<svg xmlns="http://www.w3.org/2000/svg" xmlns:xlink="http://www.w3.org/1999/xlink" width="80.999" height="90.34" viewBox="0 0 80.999 90.34">
  <defs>
    <clipPath id="clip-path">
      <rect id="Rect치ngulo_401678" data-name="Rect치ngulo 401678" width="79.295" height="79.295" fill="#abb4c0"/>
    </clipPath>
    <clipPath id="clip-path-2">
      <rect id="Rect치ngulo_401678-2" data-name="Rect치ngulo 401678" width="79.295" height="79.295" fill="none"/>
    </clipPath>
  </defs>
  <g id="Grupo_1100153" data-name="Grupo 1100153" transform="translate(-1328.05 -465)">
    <g id="Grupo_1100151" data-name="Grupo 1100151" transform="translate(1329.754 476.045)" style="mix-blend-mode: multiply;isolation: isolate">
      <g id="Grupo_1100149" data-name="Grupo 1100149" transform="translate(0 0)" clip-path="url(#clip-path)">
        <path id="Trazado_874624" data-name="Trazado 874624" d="M79.295,39.647A39.647,39.647,0,1,1,39.647,0,39.649,39.649,0,0,1,79.295,39.647" transform="translate(0 0)" fill="#abb4c0"/>
        <path id="Trazado_874625" data-name="Trazado 874625" d="M18.224,28.2h27.1a4.569,4.569,0,0,1,4.532,5.325c-1.12,6.293-4.978,15.913-18.081,15.913S14.814,39.814,13.694,33.521a4.568,4.568,0,0,1,4.53-5.325" transform="translate(7.873 16.295)" fill="#abb4c0"/>
        <path id="Trazado_874626" data-name="Trazado 874626" d="M16.321,39.488c2.725,3.415,7.034,6.058,13.894,6.058,7.036,0,11.389-2.78,14.1-6.323a24.271,24.271,0,0,0-14.1-4.3,21.6,21.6,0,0,0-13.894,4.562" transform="translate(9.432 20.184)" fill="#abb4c0"/>
        <path id="Trazado_874627" data-name="Trazado 874627" d="M27.79,27.208a1.637,1.637,0,0,1-1.584-1.232A7.346,7.346,0,0,0,19.019,20.7a7.091,7.091,0,0,0-7.03,5.247A1.637,1.637,0,0,1,8.8,25.2a10.317,10.317,0,0,1,10.217-7.771,10.578,10.578,0,0,1,10.359,7.737,1.637,1.637,0,0,1-1.18,1.991,1.575,1.575,0,0,1-.407.052" transform="translate(5.062 10.072)" fill="#abb4c0"/>
        <path id="Trazado_874628" data-name="Trazado 874628" d="M47.426,27.208a1.639,1.639,0,0,1-1.586-1.232A7.342,7.342,0,0,0,38.653,20.7a7.09,7.09,0,0,0-7.028,5.247,1.637,1.637,0,0,1-3.187-.751,10.316,10.316,0,0,1,10.215-7.771,10.579,10.579,0,0,1,10.359,7.737,1.635,1.635,0,0,1-1.179,1.991,1.656,1.656,0,0,1-.407.052" transform="translate(16.41 10.072)" fill="#abb4c0"/>
      </g>
    </g>
    <g id="Grupo_1100150" data-name="Grupo 1100150" transform="translate(1328.05 465)">
      <g id="Grupo_1100149-2" data-name="Grupo 1100149" transform="translate(0 0)" clip-path="url(#clip-path-2)">
        <path id="Trazado_874624-2" data-name="Trazado 874624" d="M79.295,39.647A39.647,39.647,0,1,1,39.647,0,39.649,39.649,0,0,1,79.295,39.647" transform="translate(0 0)" fill="#e8ce4b"/>
        <path id="Trazado_874625-2" data-name="Trazado 874625" d="M18.224,28.2h27.1a4.569,4.569,0,0,1,4.532,5.325c-1.12,6.293-4.978,15.913-18.081,15.913S14.814,39.814,13.694,33.521a4.568,4.568,0,0,1,4.53-5.325" transform="translate(7.873 16.295)" fill="#603642"/>
        <path id="Trazado_874626-2" data-name="Trazado 874626" d="M16.321,39.488c2.725,3.415,7.034,6.058,13.894,6.058,7.036,0,11.389-2.78,14.1-6.323a24.271,24.271,0,0,0-14.1-4.3,21.6,21.6,0,0,0-13.894,4.562" transform="translate(9.432 20.184)" fill="#f2405e"/>
        <path id="Trazado_874627-2" data-name="Trazado 874627" d="M27.79,27.208a1.637,1.637,0,0,1-1.584-1.232A7.346,7.346,0,0,0,19.019,20.7a7.091,7.091,0,0,0-7.03,5.247A1.637,1.637,0,0,1,8.8,25.2a10.317,10.317,0,0,1,10.217-7.771,10.578,10.578,0,0,1,10.359,7.737,1.637,1.637,0,0,1-1.18,1.991,1.575,1.575,0,0,1-.407.052" transform="translate(5.062 10.072)" fill="#3f2d31"/>
        <path id="Trazado_874628-2" data-name="Trazado 874628" d="M47.426,27.208a1.639,1.639,0,0,1-1.586-1.232A7.342,7.342,0,0,0,38.653,20.7a7.09,7.09,0,0,0-7.028,5.247,1.637,1.637,0,0,1-3.187-.751,10.316,10.316,0,0,1,10.215-7.771,10.579,10.579,0,0,1,10.359,7.737,1.635,1.635,0,0,1-1.179,1.991,1.656,1.656,0,0,1-.407.052" transform="translate(16.41 10.072)" fill="#3f2d31"/>
      </g>
    </g>
  </g>
</svg>
