<svg xmlns="http://www.w3.org/2000/svg" width="529.286" height="449.915" viewBox="0 0 529.286 449.915">
  <g id="Grupo_62155" data-name="Grupo 62155" transform="translate(31.241 -23.886)">
    <g id="Background_Complete" data-name="Background Complete">
      <path id="Trazado_133478" data-name="Trazado 133478" d="M182.22,23.886l4.691,8.578,8.578,4.691-8.578,4.691-4.691,8.578-4.691-8.578-8.578-4.691,8.578-4.691Z" fill="#f5f5f5"/>
      <path id="Trazado_133479" data-name="Trazado 133479" d="M377.87,256.273l3.518,6.433,6.433,3.518-6.433,3.518-3.518,6.433-3.519-6.433-6.433-3.518,6.433-3.518Z" fill="#f5ca56"/>
      <path id="Trazado_133480" data-name="Trazado 133480" d="M387.822,224.508l1.587,2.9,2.9,1.587-2.9,1.587-1.587,2.9-1.587-2.9-2.9-1.587,2.9-1.587Z" fill="#f5ca56"/>
      <path id="Trazado_133481" data-name="Trazado 133481" d="M148.714,27.112l1.587,2.9,2.9,1.587-2.9,1.587-1.587,2.9-1.587-2.9-2.9-1.587,2.9-1.587Z" fill="#e0e0e0"/>
      <g id="Grupo_62048" data-name="Grupo 62048" transform="translate(18 9)">
        <g id="Grupo_62047" data-name="Grupo 62047">
          <path id="Trazado_133482" data-name="Trazado 133482" d="M69.133,296.758a10.372,10.372,0,0,0,6.056-9.674c-.051-5.729-4.447-10.337-9.819-10.292s-9.685,4.725-9.634,10.454a10.353,10.353,0,0,0,6.323,9.6C47.121,299.3,48.01,315.556,48.01,315.556l35.4-.3S84,298.806,69.133,296.758Z" fill="#f5ca56"/>
        </g>
      </g>
      <g id="Grupo_62049" data-name="Grupo 62049">
        <path id="Trazado_133483" data-name="Trazado 133483" d="M408.636,403.938a5.509,5.509,0,0,0-10.866.323,5.509,5.509,0,0,0-10.868-.228,7.437,7.437,0,0,0,1.335,5.366,22.142,22.142,0,0,0,3.885,4.106c1.978,1.76,3.806,3.415,5.784,5.175,1.962-1.777,3.631-3.448,5.593-5.225a22.036,22.036,0,0,0,3.849-4.141A7.436,7.436,0,0,0,408.636,403.938Z" fill="#ebebeb"/>
      </g>
      <g id="Grupo_62052" data-name="Grupo 62052">
        <g id="Grupo_62050" data-name="Grupo 62050">
          <path id="Trazado_133484" data-name="Trazado 133484" d="M431.688,193.15l3.792-.752,5.99-13.176-1.5-7.571s5.791-1.523,7.067,8.527,1.522,7.378,1.522,7.378,12.457-2.42,13.706-1.544c.908.636,3.7,12.933,5.16,19.613a7.4,7.4,0,0,1-3.694,8.334,5.574,5.574,0,0,1-1.3.446c-3.1.616-19.468,1.237-19.468,1.237l-6.551,1.3Z" fill="#3a277b"/>
        </g>
        <g id="Grupo_62051" data-name="Grupo 62051">
          <path id="Trazado_133485" data-name="Trazado 133485" d="M420.418,193.225,427.9,218.7l6.5-1.288L429.35,192Z" fill="#3a277b"/>
        </g>
      </g>
    </g>
    <g id="Floor">
      <g id="Grupo_62053" data-name="Grupo 62053">
        <path id="Trazado_133486" data-name="Trazado 133486" d="M470.469,469.323c0,.144-99.169.26-221.472.26-122.346,0-221.494-.116-221.494-.26s99.148-.26,221.494-.26C371.3,469.063,470.469,469.179,470.469,469.323Z" fill="#263238"/>
      </g>
    </g>
    <g id="Icons">
      <g id="Grupo_62056" data-name="Grupo 62056" transform="translate(26 -2.699)">
        <path id="Trazado_133489" data-name="Trazado 133489" d="M434.013,297.755h0a28.023,28.023,0,0,1-16.175-36.179h0A28.023,28.023,0,0,1,454.017,245.4h0a28.023,28.023,0,0,1,16.175,36.179h0A28.022,28.022,0,0,1,434.013,297.755Z" fill="#0d585f"/>
        <g id="Grupo_62055" data-name="Grupo 62055">
          <path id="Trazado_133490" data-name="Trazado 133490" d="M458.644,276.336a15.1,15.1,0,0,0-28.077-11.023c-.084.2-.169.4-.247.609a14.868,14.868,0,0,0-.742,8l-5.409,6.533,8.756.5a15.111,15.111,0,0,0,25.589-4.26C458.559,276.576,458.605,276.457,458.644,276.336Zm-18.721,6.733a12.638,12.638,0,0,1-5.777-4.438l-5.108-.288,3.147-3.8a12.465,12.465,0,0,1,.379-7.759,11.688,11.688,0,0,1,.495-1.119,12.694,12.694,0,0,1,23.522,9.245c-.09.314-.192.622-.311.932A12.653,12.653,0,0,1,439.923,283.069Z" fill="#fff" fill-rule="evenodd"/>
          <path id="Trazado_133491" data-name="Trazado 133491" d="M449.8,276.6c-.284-.3-1.663-1.785-1.937-2.018s-.482-.381-.844-.126-1.324.772-1.608.921-.5.1-.785-.2a10.03,10.03,0,0,1-2.128-2.764,10.988,10.988,0,0,1-1.015-3.1c-.067-.418.182-.535.419-.641.219-.1.5-.271.751-.4.069-.042.129-.08.188-.118a4.036,4.036,0,0,0,.375-.326.662.662,0,0,0,.2-.61c-.02-.205-.068-2.159-.1-2.956s-.357-.787-.562-.866-.416-.2-.647-.285a1.37,1.37,0,0,0-1.088.076,4.111,4.111,0,0,0-2.3,2.4,4.672,4.672,0,0,0-.269,1.237,8.322,8.322,0,0,0,.327,2.847c.085.29.936,4.714,3.92,7.435s3.17,2.255,3.826,2.438a3.691,3.691,0,0,0,2.953-.74,3.028,3.028,0,0,0,.827-1.552C450.275,277.079,450.076,276.9,449.8,276.6Z" fill="#fff" fill-rule="evenodd"/>
        </g>
      </g>
      <g id="Grupo_62057" data-name="Grupo 62057" transform="translate(-24.31 5)">
        <path id="Trazado_133492" data-name="Trazado 133492" d="M69.631,168.241h0a21.368,21.368,0,0,1-21.368-21.369h0A21.368,21.368,0,0,1,69.631,125.5h0A21.368,21.368,0,0,1,91,146.872h0A21.369,21.369,0,0,1,69.631,168.241Z" fill="#26aab7"/>
        <path id="Trazado_133493" data-name="Trazado 133493" d="M58.246,154.026a13.286,13.286,0,0,0,20.439-11.8,9.469,9.469,0,0,0,2.331-2.418,9.328,9.328,0,0,1-2.683.735,4.683,4.683,0,0,0,2.054-2.584,9.385,9.385,0,0,1-2.966,1.134,4.675,4.675,0,0,0-7.961,4.261,13.257,13.257,0,0,1-9.628-4.882,4.678,4.678,0,0,0,1.445,6.238,4.645,4.645,0,0,1-2.116-.585,4.675,4.675,0,0,0,3.747,4.64,4.676,4.676,0,0,1-2.109.08,4.673,4.673,0,0,0,4.363,3.244A9.386,9.386,0,0,1,58.246,154.026Z" fill="#fff"/>
      </g>
      <g id="Grupo_62059" data-name="Grupo 62059" transform="translate(4 23.058)">
        <path id="Trazado_133494" data-name="Trazado 133494" d="M108.032,407.613h0A36.8,36.8,0,0,1,63.7,380.341h0A36.8,36.8,0,0,1,90.974,336.01h0A36.8,36.8,0,0,1,135.3,363.283h0A36.8,36.8,0,0,1,108.032,407.613Z" fill="#3a277b"/>
        <g id="Grupo_62058" data-name="Grupo 62058">
          <path id="Trazado_133495" data-name="Trazado 133495" d="M95.669,355.718c5.242-1.248,5.867-1.376,7.959-1.775a11.185,11.185,0,0,1,3.807-.192,6.685,6.685,0,0,1,4.613,2.838,11.2,11.2,0,0,1,1.544,3.484c.587,2.048.756,2.664,2,7.9s1.376,5.867,1.775,7.96a11.188,11.188,0,0,1,.193,3.806,6.68,6.68,0,0,1-2.838,4.612,11.162,11.162,0,0,1-3.484,1.545c-2.048.587-2.663.755-7.9,2s-5.868,1.376-7.96,1.776a11.144,11.144,0,0,1-3.806.191,6.679,6.679,0,0,1-4.613-2.837,11.18,11.18,0,0,1-1.544-3.484c-.588-2.048-.756-2.664-2-7.9s-1.377-5.867-1.776-7.96a11.179,11.179,0,0,1-.192-3.806,6.685,6.685,0,0,1,2.838-4.613,11.18,11.18,0,0,1,3.484-1.544c2.047-.588,2.664-.756,7.9-2.005m-.842-3.536c-5.332,1.27-6,1.452-8.066,2.046a14.8,14.8,0,0,0-4.547,2.048,10.309,10.309,0,0,0-4.373,7.109,14.786,14.786,0,0,0,.222,4.982c.4,2.116.54,2.79,1.81,8.121s1.452,5.995,2.046,8.066a14.794,14.794,0,0,0,2.048,4.547,10.316,10.316,0,0,0,7.108,4.374,14.849,14.849,0,0,0,4.983-.223c2.116-.4,2.79-.54,8.121-1.81s5.994-1.452,8.066-2.046a14.8,14.8,0,0,0,4.547-2.048,10.315,10.315,0,0,0,4.374-7.109,14.844,14.844,0,0,0-.223-4.982c-.4-2.116-.54-2.79-1.81-8.121s-1.452-5.995-2.046-8.066a14.8,14.8,0,0,0-2.048-4.547,10.315,10.315,0,0,0-7.109-4.374,14.843,14.843,0,0,0-4.982.223c-2.117.4-2.79.54-8.121,1.81" fill="#fff"/>
          <path id="Trazado_133496" data-name="Trazado 133496" d="M97.1,361.732a10.362,10.362,0,1,0,12.481,7.679A10.361,10.361,0,0,0,97.1,361.732m3.96,16.623a6.726,6.726,0,1,1,4.984-8.1,6.726,6.726,0,0,1-4.984,8.1" fill="#fff"/>
          <path id="Trazado_133497" data-name="Trazado 133497" d="M109.841,358.276a2.422,2.422,0,1,1-2.917-1.8,2.422,2.422,0,0,1,2.917,1.8" fill="#fff"/>
        </g>
      </g>
      <g id="Grupo_62060" data-name="Grupo 62060">
        <path id="Trazado_133498" data-name="Trazado 133498" d="M386.807,375.222h0a17.164,17.164,0,0,1-17.163-17.164h0a17.163,17.163,0,0,1,17.163-17.163h0a17.163,17.163,0,0,1,17.163,17.163h0A17.164,17.164,0,0,1,386.807,375.222Z" fill="#455a64"/>
        <path id="Trazado_133499" data-name="Trazado 133499" d="M384.191,368.433h4.178V357.97h2.915l.311-3.5h-3.226v-2c0-.826.166-1.152.965-1.152H391.6v-3.636H388.7c-3.109,0-4.511,1.37-4.511,3.99v2.793h-2.173v3.547h2.173Z" fill="#fff"/>
      </g>
    </g>
    <g id="Device">
      <g id="Grupo_62126" data-name="Grupo 62126">
        <g id="Grupo_62125" data-name="Grupo 62125">
          <g id="Grupo_62120" data-name="Grupo 62120">
            <g id="Grupo_62068" data-name="Grupo 62068">
              <g id="Grupo_62067" data-name="Grupo 62067">
                <g id="Grupo_62063" data-name="Grupo 62063">
                  <g id="Grupo_62062" data-name="Grupo 62062">
                    <g id="Grupo_62061" data-name="Grupo 62061">
                      <path id="Trazado_133500" data-name="Trazado 133500" d="M328.27,470.046l-137.887-.081a30.036,30.036,0,0,1-30.018-30.042l.068-345.685a30.037,30.037,0,0,1,30.053-30.031l137.888.082a30.036,30.036,0,0,1,30.018,30.042l-.068,345.686A30.034,30.034,0,0,1,328.27,470.046Z" fill="#263238"/>
                    </g>
                  </g>
                </g>
                <g id="Grupo_62066" data-name="Grupo 62066">
                  <g id="Grupo_62065" data-name="Grupo 62065">
                    <g id="Grupo_62064" data-name="Grupo 62064">
                      <path id="Trazado_133501" data-name="Trazado 133501" d="M328.227,76.515,301.493,76.5A6.641,6.641,0,0,0,295,83.282l0,4.85a6.641,6.641,0,0,1-6.492,6.782L236.4,94.883a6.647,6.647,0,0,1-6.49-6.79V83.244a6.647,6.647,0,0,0-6.491-6.79l-9.4-.006-23.4-.013a21.035,21.035,0,0,0-21.048,21.031L169.5,434.88a21.036,21.036,0,0,0,21.023,21.041l137.612.08a21.035,21.035,0,0,0,21.047-21.031l.066-337.415A21.035,21.035,0,0,0,328.227,76.515Z" fill="#fff"/>
                    </g>
                  </g>
                </g>
              </g>
            </g>
            <g id="Grupo_62078" data-name="Grupo 62078">
              <g id="Grupo_62071" data-name="Grupo 62071">
                <g id="Grupo_62070" data-name="Grupo 62070">
                  <g id="Grupo_62069" data-name="Grupo 62069">
                    <path id="Trazado_133502" data-name="Trazado 133502" d="M330.24,103.927c0,.09-3.475.192-7.764.228s-7.766-.009-7.767-.1,3.475-.192,7.765-.228S330.24,103.836,330.24,103.927Z" fill="#263238"/>
                  </g>
                </g>
              </g>
              <g id="Grupo_62074" data-name="Grupo 62074">
                <g id="Grupo_62073" data-name="Grupo 62073">
                  <g id="Grupo_62072" data-name="Grupo 62072">
                    <path id="Trazado_133503" data-name="Trazado 133503" d="M330.273,107.9c0,.09-3.476.192-7.764.228s-7.766-.01-7.767-.1,3.475-.193,7.764-.228S330.272,107.81,330.273,107.9Z" fill="#263238"/>
                  </g>
                </g>
              </g>
              <g id="Grupo_62077" data-name="Grupo 62077">
                <g id="Grupo_62076" data-name="Grupo 62076">
                  <g id="Grupo_62075" data-name="Grupo 62075">
                    <path id="Trazado_133504" data-name="Trazado 133504" d="M330.306,111.874c0,.091-3.476.193-7.764.228s-7.767-.009-7.767-.1,3.475-.193,7.764-.228S330.3,111.784,330.306,111.874Z" fill="#263238"/>
                  </g>
                </g>
              </g>
            </g>
            <g id="Grupo_62081" data-name="Grupo 62081">
              <g id="Grupo_62080" data-name="Grupo 62080">
                <g id="Grupo_62079" data-name="Grupo 62079">
                  <path id="Trazado_133505" data-name="Trazado 133505" d="M184.019,115.75a3.188,3.188,0,0,1,.407-.027l1.132-.037,4.18-.1-.116.118q-.022-1.391-.049-3.031c.006-.563-.048-1.094.006-1.745a1.607,1.607,0,0,1,1.4-1.288c.673-.013,1.266-.044,2-.01a1.623,1.623,0,0,1,1.371,1.614c.016,1.413.033,2.889.05,4.42l-.194-.19,5.272-.054-.2.2c-.019-2.123-.039-4.319-.059-6.569q-.006-.841-.014-1.673a1.7,1.7,0,0,0-.741-1.246l-2.3-2.272q-1.133-1.116-2.223-2.194l-1.078-1.064c-.37-.357-.661-.726-1.09-.814a1.42,1.42,0,0,0-1.21.231c-.319.27-.659.652-.981.965q-.974.982-1.892,1.908c-1.19,1.236-2.429,2.365-3.33,3.433a3.727,3.727,0,0,0-.265,1.967q0,.981,0,1.858-.011,1.708-.019,2.993c-.009.764-.016,1.4-.021,1.913a6.789,6.789,0,0,1-.026.69,5.019,5.019,0,0,1-.036-.634c-.014-.509-.032-1.131-.053-1.884q-.028-1.293-.068-3.016-.017-.9-.035-1.9-.007-.505-.016-1.036a2.193,2.193,0,0,1,.291-1.1c.975-1.195,2.139-2.253,3.338-3.525l1.877-1.923c.338-.332.615-.662,1.018-1.008a1.791,1.791,0,0,1,1.528-.3,2.847,2.847,0,0,1,1.266.9l1.082,1.06q1.094,1.072,2.231,2.187l2.309,2.267a4.394,4.394,0,0,1,.589.638,1.727,1.727,0,0,1,.276.889q.008.835.015,1.681c.017,2.25.034,4.446.05,6.57l0,.2h-.2l-5.273.034h-.193v-.192c-.008-1.53-.015-3.007-.023-4.42a1.272,1.272,0,0,0-1.065-1.28c-.607-.032-1.322-.011-1.912-.006a1.294,1.294,0,0,0-1.137,1.025c-.051.53-.012,1.148-.023,1.685q0,1.638,0,3.031v.118h-.116l-4.249-.03-1.106-.019A2.076,2.076,0,0,1,184.019,115.75Z" fill="#263238"/>
                </g>
              </g>
            </g>
            <g id="Grupo_62100" data-name="Grupo 62100">
              <g id="Grupo_62086" data-name="Grupo 62086">
                <g id="Grupo_62085" data-name="Grupo 62085">
                  <g id="Grupo_62082" data-name="Grupo 62082">
                    <path id="Trazado_133506" data-name="Trazado 133506" d="M274.98,379.406a7.662,7.662,0,0,1-1.445.1l-3.94.083c-3.327.047-7.923.076-13,.076s-9.674-.029-13-.076l-3.94-.083a7.662,7.662,0,0,1-1.445-.1,7.726,7.726,0,0,1,1.445-.1l3.94-.083c3.326-.047,7.923-.076,13-.076s9.672.029,13,.076l3.94.083A7.726,7.726,0,0,1,274.98,379.406Z" fill="#455a64"/>
                  </g>
                  <g id="Grupo_62083" data-name="Grupo 62083">
                    <path id="Trazado_133507" data-name="Trazado 133507" d="M332.771,388.452c0,.144-21.17.26-47.278.26s-47.282-.116-47.282-.26,21.165-.26,47.282-.26S332.771,388.308,332.771,388.452Z" fill="#455a64"/>
                  </g>
                  <g id="Grupo_62084" data-name="Grupo 62084">
                    <path id="Trazado_133508" data-name="Trazado 133508" d="M303.221,396.962c0,.143-14.554.26-32.5.26s-32.507-.117-32.507-.26,14.551-.261,32.507-.261S303.221,396.818,303.221,396.962Z" fill="#455a64"/>
                  </g>
                </g>
              </g>
              <g id="Grupo_62087" data-name="Grupo 62087">
                <path id="Trazado_133509" data-name="Trazado 133509" d="M334.64,413.526l-2.938-2.947-2.8,2.79.013-8.435,5.735.009Zm-2.937-3.314.092.092,2.586,2.6.012-7.7-5.216-.008-.012,7.549Z" fill="#263238"/>
              </g>
              <g id="Grupo_62088" data-name="Grupo 62088">
                <path id="Trazado_133510" data-name="Trazado 133510" d="M256.408,412.429l-1.036-.462a2.84,2.84,0,1,1,1.514-2.5,2.871,2.871,0,0,1-.717,1.92Zm-2.423-5.616a2.683,2.683,0,0,0,.043,5.365,2.767,2.767,0,0,0,1.291-.407l.043-.025.765.342-.174-.752.035-.038a2.678,2.678,0,0,0-2-4.485Z" fill="#263238"/>
              </g>
              <g id="Grupo_62089" data-name="Grupo 62089">
                <path id="Trazado_133511" data-name="Trazado 133511" d="M263.074,411.984l-1.189-2.9-2.228-2.031,5.4-.043Zm-2.912-4.737,1.9,1.742,1.012,2.47,1.7-4.249Z" fill="#263238"/>
              </g>
              <g id="Grupo_62090" data-name="Grupo 62090">
                <rect id="Rectángulo_31412" data-name="Rectángulo 31412" width="3.516" height="0.197" transform="translate(262.007 408.927) rotate(-33.054)" fill="#263238"/>
              </g>
              <g id="Grupo_62091" data-name="Grupo 62091">
                <path id="Trazado_133512" data-name="Trazado 133512" d="M247.9,407.659a1.672,1.672,0,0,0-3.3.11,1.672,1.672,0,0,0-3.3-.057,2.256,2.256,0,0,0,.411,1.627,6.713,6.713,0,0,0,1.183,1.241c.6.532,1.159,1.032,1.761,1.564.593-.541,1.1-1.05,1.691-1.592a6.649,6.649,0,0,0,1.164-1.26A2.262,2.262,0,0,0,247.9,407.659Z" fill="#e8505b"/>
              </g>
              <g id="Grupo_62092" data-name="Grupo 62092">
                <path id="Trazado_133513" data-name="Trazado 133513" d="M340.662,420.988s-.012-.324-.018-.941-.01-1.539-.018-2.736c-.01-2.413-.024-5.962-.042-10.558-.022-9.191-.054-22.562-.094-39.335l.172.172-159.917.089h-.01l.261-.261c0,18.617-.006,36.676-.009,53.57l-.252-.252,114.434.117,33.4.07,8.965.033,2.323.016c.524.005.8.016.8.016s-.254.01-.768.016l-2.294.016-8.91.032-33.348.071-114.607.117h-.252v-.252c0-16.894-.005-34.953-.008-53.57v-.26h.27l159.917.089h.172v.171c-.04,16.817-.072,30.223-.094,39.438-.018,4.58-.032,8.115-.042,10.519q-.012,1.776-.018,2.706C340.673,420.687,340.662,420.988,340.662,420.988Z" fill="#263238"/>
              </g>
              <g id="Grupo_62099" data-name="Grupo 62099">
                <g id="Grupo_62096" data-name="Grupo 62096">
                  <g id="Grupo_62095" data-name="Grupo 62095">
                    <g id="Grupo_62094" data-name="Grupo 62094">
                      <rect id="Rectángulo_31413" data-name="Rectángulo 31413" width="35.416" height="44.3" transform="matrix(0.006, -1, 1, 0.006, 187.185, 411.785)" fill="#ebebeb"/>
                      <g id="Grupo_62093" data-name="Grupo 62093">
                        <path id="Trazado_133514" data-name="Trazado 133514" d="M231.685,376.621a1.737,1.737,0,0,1-.222.012l-.628.01-2.418.014-9.083.01-31.949-.065.234-.232c-.052,10.545-.111,22.627-.174,35.413.055.062-.485-.493-.251-.259h.373l.383,0,.767,0,1.527.009,3.032.018,5.969.036,11.493.074,20.747.15-.218.215c.107-10.634.2-19.457.258-25.651.042-3.08.074-5.505.1-7.19q.022-1.221.035-1.9c.011-.433.028-.668.028-.668s.015.2.02.622q.006.67.014,1.864c0,1.673.009,4.083.016,7.142-.009,6.227-.021,15.1-.035,25.789v.216h-.218l-20.746-.086-11.494-.056-5.969-.032-3.032-.017-1.527-.008-.767,0-.383,0h-.373c.228.234-.325-.317-.267-.265.083-12.786.161-24.868.229-35.412v-.234l.233,0,32.1.3,9.03.113,2.372.041.6.017A.861.861,0,0,1,231.685,376.621Z" fill="#263238"/>
                      </g>
                    </g>
                  </g>
                </g>
                <rect id="Rectángulo_31414" data-name="Rectángulo 31414" width="30.957" height="41.187" transform="matrix(0.006, -1, 1, 0.006, 188.725, 409.564)" fill="#e0e0e0"/>
                <path id="Trazado_133515" data-name="Trazado 133515" d="M188.725,409.564,203.219,390.4l8.843,12.09,6.081-6.4L229.911,409.8Z" fill="#f5f5f5"/>
                <g id="Grupo_62098" data-name="Grupo 62098">
                  <g id="Grupo_62097" data-name="Grupo 62097">
                    <path id="Trazado_133516" data-name="Trazado 133516" d="M215.927,388.118a3.243,3.243,0,1,1-3.225-3.261A3.245,3.245,0,0,1,215.927,388.118Z" fill="#f5f5f5"/>
                  </g>
                </g>
              </g>
            </g>
            <g id="Grupo_62115" data-name="Grupo 62115">
              <g id="Grupo_62110" data-name="Grupo 62110">
                <g id="Grupo_62103" data-name="Grupo 62103">
                  <g id="Grupo_62102" data-name="Grupo 62102">
                    <g id="Grupo_62101" data-name="Grupo 62101">
                      <path id="Trazado_133517" data-name="Trazado 133517" d="M262.087,146.872a1.636,1.636,0,0,1-.473.053l-1.356.049-4.989.082c-4.213.048-10.033.077-16.461.077s-12.25-.029-16.463-.077l-4.988-.082L216,146.925a1.636,1.636,0,0,1-.473-.053,1.666,1.666,0,0,1,.473-.052l1.357-.049,4.988-.083c4.213-.047,10.034-.076,16.463-.076s12.248.029,16.461.076l4.989.083,1.356.049A1.666,1.666,0,0,1,262.087,146.872Z" fill="#263238"/>
                    </g>
                  </g>
                </g>
                <g id="Grupo_62109" data-name="Grupo 62109">
                  <g id="Grupo_62104" data-name="Grupo 62104">
                    <path id="Trazado_133518" data-name="Trazado 133518" d="M327.532,342.653l-4.365-4.379-4.158,4.146.02-12.535,8.523.013Zm-4.364-4.924.136.135,3.844,3.857.018-11.438-7.752-.012L319.4,341.49Z" fill="#263238"/>
                  </g>
                  <g id="Grupo_62105" data-name="Grupo 62105">
                    <path id="Trazado_133519" data-name="Trazado 133519" d="M216.674,341.334l-2.041-.91a5.59,5.59,0,1,1,2.981-4.91,5.649,5.649,0,0,1-1.411,3.78ZM211.9,330.28a5.28,5.28,0,1,0,.085,10.56,5.442,5.442,0,0,0,2.543-.8l.084-.047,1.5.671-.34-1.478.068-.075a5.274,5.274,0,0,0-3.944-8.829Z" fill="#263238"/>
                  </g>
                  <g id="Grupo_62106" data-name="Grupo 62106">
                    <path id="Trazado_133520" data-name="Trazado 133520" d="M229.794,340.459l-2.339-5.709-4.386-4,10.638-.085Zm-5.732-9.326,3.736,3.429,1.992,4.863,3.342-8.365Z" fill="#263238"/>
                  </g>
                  <g id="Grupo_62107" data-name="Grupo 62107">
                    <rect id="Rectángulo_31415" data-name="Rectángulo 31415" width="6.92" height="0.389" transform="matrix(0.838, -0.545, 0.545, 0.838, 227.694, 334.441)" fill="#263238"/>
                  </g>
                  <g id="Grupo_62108" data-name="Grupo 62108">
                    <path id="Trazado_133521" data-name="Trazado 133521" d="M199.933,331.945a3.291,3.291,0,0,0-6.489.217,3.29,3.29,0,0,0-6.491-.112,4.44,4.44,0,0,0,.809,3.2,13.142,13.142,0,0,0,2.329,2.444c1.185,1.047,2.28,2.032,3.465,3.079,1.168-1.066,2.162-2.067,3.33-3.133a13.191,13.191,0,0,0,2.29-2.481A4.441,4.441,0,0,0,199.933,331.945Z" fill="#e8505b"/>
                  </g>
                </g>
                <circle id="Elipse_4581" data-name="Elipse 4581" cx="7.216" cy="7.216" r="7.216" transform="translate(191.747 139.656)" fill="#ebebeb"/>
              </g>
              <g id="Grupo_62114" data-name="Grupo 62114">
                <g id="Grupo_62111" data-name="Grupo 62111">
                  <path id="Trazado_133522" data-name="Trazado 133522" d="M324.807,301.255c0,.144-30.26.26-67.579.26s-67.585-.116-67.585-.26,30.253-.261,67.585-.261S324.807,301.111,324.807,301.255Z" fill="#455a64"/>
                </g>
                <g id="Grupo_62112" data-name="Grupo 62112">
                  <path id="Trazado_133523" data-name="Trazado 133523" d="M324.807,290c0,.144-30.26.261-67.579.261s-67.585-.117-67.585-.261,30.253-.26,67.585-.26S324.807,289.855,324.807,290Z" fill="#455a64"/>
                </g>
                <g id="Grupo_62113" data-name="Grupo 62113">
                  <path id="Trazado_133524" data-name="Trazado 133524" d="M263.214,312.66c0,.144-16.471.261-36.784.261s-36.787-.117-36.787-.261,16.467-.26,36.787-.26S263.214,312.517,263.214,312.66Z" fill="#455a64"/>
                </g>
              </g>
            </g>
            <g id="Grupo_62119" data-name="Grupo 62119">
              <g id="Grupo_62116" data-name="Grupo 62116">
                <path id="Trazado_133525" data-name="Trazado 133525" d="M254.135,435.29a2.872,2.872,0,1,1-2.859-2.927A2.892,2.892,0,0,1,254.135,435.29Z" fill="#263238"/>
              </g>
              <g id="Grupo_62117" data-name="Grupo 62117">
                <path id="Trazado_133526" data-name="Trazado 133526" d="M263.033,435.331a2.872,2.872,0,1,1-2.859-2.927A2.891,2.891,0,0,1,263.033,435.331Z" fill="#263238"/>
              </g>
              <g id="Grupo_62118" data-name="Grupo 62118">
                <path id="Trazado_133527" data-name="Trazado 133527" d="M271.931,435.372a2.872,2.872,0,1,1-2.859-2.927A2.89,2.89,0,0,1,271.931,435.372Z" fill="#263238"/>
              </g>
            </g>
          </g>
          <g id="Grupo_62123" data-name="Grupo 62123">
            <rect id="Rectángulo_31416" data-name="Rectángulo 31416" width="159.927" height="97.804" transform="translate(181.694 161.154)" fill="#e0e0e0"/>
            <path id="Trazado_133528" data-name="Trazado 133528" d="M196.457,258.975l45.828-61.338L270.7,236l19.256-20.517,37.766,43.457Z" fill="#f5f5f5"/>
            <g id="Grupo_62122" data-name="Grupo 62122">
              <g id="Grupo_62121" data-name="Grupo 62121">
                <path id="Trazado_133529" data-name="Trazado 133529" d="M282.738,190.113A10.336,10.336,0,1,1,272.4,179.781,10.335,10.335,0,0,1,282.738,190.113Z" fill="#f5f5f5"/>
              </g>
            </g>
          </g>
          <g id="Grupo_62124" data-name="Grupo 62124">
            <path id="Trazado_133530" data-name="Trazado 133530" d="M341.19,349.853c0-2.092-.1-90.445-.236-221.24l.236.237-159.908.024h-.018l.26-.261c-.018,82.739-.035,159.311-.049,221.24l-.211-.212,159.926.212-159.926.212h-.212v-.212c-.014-61.929-.031-138.5-.049-221.24v-.26h.279l159.908.024h.236v.236c-.048,65.462-.088,120.8-.117,159.773-.027,19.46-.048,34.835-.063,45.352-.012,5.244-.022,9.276-.028,12q-.009,2.031-.014,3.079C341.2,349.51,341.19,349.853,341.19,349.853Z" fill="#263238"/>
          </g>
        </g>
      </g>
    </g>
    <g id="Megaphone">
      <g id="Grupo_62153" data-name="Grupo 62153">
        <g id="Grupo_62147" data-name="Grupo 62147">
          <g id="Grupo_62145" data-name="Grupo 62145">
            <g id="Grupo_62127" data-name="Grupo 62127">
              <path id="Trazado_133531" data-name="Trazado 133531" d="M266.043,377.3l3.538-11.887c.617-2.578,1.437-5.619,2.54-9.089.992-3.119,3.536-6.4,5.856-8.756,3.612-3.673,5.329-3.7,7.757-5.647.221-.142.467-.344.676-.457a3.828,3.828,0,0,0,1.18-1.021c2.092-2.263.083-5.765-4.165-5.432-3.2.251-8.415,1.166-16.9,9.916-.106.133-.217.244-.321.38-4.452,5.786-8.632-10.732-9.386-16.88a6.443,6.443,0,0,0-8.709-5l-20.661,9.664a9.644,9.644,0,0,0-6.031.2,6.141,6.141,0,0,0-3.936,7.289l8.38,33.451-24.613,81.893H254.3Z" fill="#ffbe9d"/>
            </g>
            <g id="Grupo_62143" data-name="Grupo 62143">
              <g id="Grupo_62135" data-name="Grupo 62135">
                <g id="Grupo_62129" data-name="Grupo 62129">
                  <g id="Grupo_62128" data-name="Grupo 62128">
                    <path id="Trazado_133532" data-name="Trazado 133532" d="M306.8,302.084l-16.4,32.133-8.2-2.278-41.215,33.527a8.349,8.349,0,0,1-11.6-1.031L213.694,346.2s31.641-13.631,37.493-24.913-.91-13.842-.91-13.842l14.892-16.923Z" fill="#26aab7"/>
                  </g>
                </g>
                <g id="Grupo_62130" data-name="Grupo 62130">
                  <path id="Trazado_133533" data-name="Trazado 133533" d="M285.527,236.443s-24-5.309-57.783-37.792-49.65-75.617-53.785-75.407-22.188-8.171-56.524,66.52-20.811,92.036-13.979,91.9,53.227-13.069,82.2-9.775,66.225,18.4,66.225,18.4Z" fill="#26aab7"/>
                </g>
                <g id="Grupo_62131" data-name="Grupo 62131">
                  <path id="Trazado_133534" data-name="Trazado 133534" d="M336.52,277.155l-8.189,15.57-3.669,6.974a20.32,20.32,0,0,1-26.488,9l-51.449-17.926,29.963-68.4,51.4,27.393A20.322,20.322,0,0,1,336.52,277.155Z" fill="#0d585f"/>
                </g>
                <g id="Grupo_62133" data-name="Grupo 62133">
                  <path id="Trazado_133536" data-name="Trazado 133536" d="M120.209,191.124c-18.273,40.46-25.88,76.515-16.99,80.531s30.911-25.531,49.185-65.991,25.88-76.515,16.99-80.53S138.484,150.663,120.209,191.124Z" fill="#0d585f"/>
                </g>
              </g>
              <g id="Grupo_62136" data-name="Grupo 62136">
                <path id="Trazado_133538" data-name="Trazado 133538" d="M340.936,299.652l-13.945-4.38,8.629-16.408,10.458,6.5Z" fill="#0d585f"/>
              </g>
              <g id="Grupo_62137" data-name="Grupo 62137" opacity="0.6">
                <path id="Trazado_133539" data-name="Trazado 133539" d="M335.62,278.865l-8.629,16.408,2.865.9,7.016-16.531Z"/>
              </g>
              <g id="Grupo_62138" data-name="Grupo 62138">
                <path id="Trazado_133540" data-name="Trazado 133540" d="M326.012,282.65c-.2.451-7.165-2.254-15.543-6.042s-15.013-7.225-14.808-7.675,7.161,2.255,15.544,6.043S326.214,282.2,326.012,282.65Z" fill="#063338"/>
              </g>
              <g id="Grupo_62139" data-name="Grupo 62139">
                <path id="Trazado_133541" data-name="Trazado 133541" d="M330.3,272.878c-.22.445-6.517-2.21-14.067-5.928s-13.495-7.093-13.275-7.538,6.513,2.212,14.066,5.931S330.518,272.434,330.3,272.878Z" fill="#063338"/>
              </g>
              <g id="Grupo_62140" data-name="Grupo 62140">
                <path id="Trazado_133542" data-name="Trazado 133542" d="M320.6,292.9c-.074.238-1.73-.145-4.373-.961-1.32-.408-2.884-.924-4.615-1.523-1.719-.623-3.5-1.526-5.417-2.392-7.629-3.542-13.454-7.009-13.263-7.42.225-.485,6.452,2.285,14.01,5.792,1.9.859,3.655,1.8,5.313,2.5,1.664.673,3.157,1.3,4.4,1.854C319.155,291.856,320.674,292.663,320.6,292.9Z" fill="#063338"/>
              </g>
              <g id="Grupo_62141" data-name="Grupo 62141">
                <path id="Trazado_133543" data-name="Trazado 133543" d="M157.465,182.126s-20.863-12.937-32.278,15.25S135.723,230.2,135.723,230.2A187.8,187.8,0,0,0,157.465,182.126Z" fill="#26aab7"/>
              </g>
              <g id="Grupo_62142" data-name="Grupo 62142" opacity="0.5">
                <path id="Trazado_133544" data-name="Trazado 133544" d="M179.653,148.533c.122.021-.174,1.935-.817,5.385-.66,3.445-1.593,8.445-2.931,14.583-.882,3.024-1.846,6.325-2.88,9.864q-.784,2.661-1.621,5.494-.42,1.418-.851,2.872c-.312.963-.718,1.908-1.081,2.881-1.5,3.878-3.079,7.946-4.713,12.161q-.615,1.583-1.242,3.19c-.406,1.077-.98,2.09-1.467,3.15q-1.53,3.154-3.1,6.394t-3.111,6.392c-.532,1.039-.976,2.117-1.57,3.1l-1.74,2.949-6.648,11.226c-.542.887-1.032,1.79-1.6,2.63q-.877,1.242-1.734,2.45-1.712,2.41-3.322,4.679c-2.146,3-4.148,5.8-5.981,8.37-3.989,4.834-7.335,8.647-9.633,11.294s-3.636,4.054-3.731,3.975a31.8,31.8,0,0,1,3.193-4.419l9.191-11.653,5.757-8.436q1.557-2.27,3.218-4.686l1.685-2.447c.549-.841,1.028-1.746,1.555-2.633L151,226.1l1.714-2.936c.587-.98,1.023-2.052,1.55-3.086q1.518-3.134,3.079-6.351l3.087-6.345c.487-1.051,1.061-2.057,1.467-3.124s.835-2.116,1.248-3.161c1.656-4.174,3.255-8.2,4.778-12.042.371-.963.786-1.9,1.108-2.848q.447-1.441.883-2.842.873-2.8,1.7-5.434c1.1-3.5,2.131-6.761,3.075-9.749l3.471-14.4A32.211,32.211,0,0,1,179.653,148.533Z"/>
              </g>
            </g>
            <g id="Grupo_62144" data-name="Grupo 62144" opacity="0.4">
              <path id="Trazado_133545" data-name="Trazado 133545" d="M218.693,343.961c1.9,3.455,3.845,6.964,6.662,9.725s6.684,4.717,10.608,4.322,7.643-3.655,7.685-7.6c1.884,1.416,4.771.649,6.331-1.117s2.067-4.219,2.254-6.567c2.558,1.509,6.116.312,7.823-2.118a10.115,10.115,0,0,0,.986-8.557,29.963,29.963,0,0,0-4.107-7.866c1.969.159,4.056.3,5.818-.6s2.953-3.224,1.924-4.912a4.894,4.894,0,0,0-2.868-1.829c-3.087-.966-5.253-1.74-8.466-1.367-.747.008,1.286,8.476-18.884,20.059C222.552,342.376,218.693,343.961,218.693,343.961Z"/>
            </g>
          </g>
          <g id="Grupo_62146" data-name="Grupo 62146">
            <path id="Trazado_133546" data-name="Trazado 133546" d="M264.113,356.2c-.013.093-1.356-.165-3.532-.106a19.968,19.968,0,0,0-14.824,7.107c-1.408,1.66-2.048,2.868-2.129,2.82a3.088,3.088,0,0,1,.395-.875,15.972,15.972,0,0,1,1.449-2.178,18.894,18.894,0,0,1,15.106-7.242,16.1,16.1,0,0,1,2.606.233A3.078,3.078,0,0,1,264.113,356.2Z" fill="#eb996e"/>
          </g>
          <path id="Trazado_133547" data-name="Trazado 133547" d="M220.008,338.59c3.249,3.121,5.471,6.567,8.879,9.71,1.548,1.428,3.954,4.134,6.03,4.494s3.4.084,4.227-1.856c.665-1.571-.53-3.718-1.355-5.013-2.171-3.4-4.247-6.068-5.873-8.716-.762-1.24.224-1.5.584-.922,1.564,1.621,3.9,3.026,5.3,4.791,1.918,2.417,2.266,5.617,7.285,4.605a4.523,4.523,0,0,0,1.863-.774c1.889-1.446,1.968-3.96,1.173-5.974a16.352,16.352,0,0,0-2.794-4.227c2.136,2.412,4.468,4.952,7.865,5.226a4.679,4.679,0,0,0,4.756-2.574c1.005-2.282-.436-4.488-1.882-6.272a65.327,65.327,0,0,0-8.529-8.713,6.489,6.489,0,0,0-4.146-1.537c-1.756-.012-3.955.319-5.041,1.847a6.819,6.819,0,0,0-1.364,5.227s-4.406-2.234-7.946.1a11.228,11.228,0,0,0-4.416,6.352Z" fill="#ffbe9d"/>
          <path id="Trazado_133548" data-name="Trazado 133548" d="M243.453,319.87a5.278,5.278,0,0,1-.623-5.96c.749-1.468,1.695-2.895,2.653-3.219,4.191-1.414,22.5,1.754,22.335,5.819-.171,4.173-1.5,6.009-11.442,4.574-1.748-.252-4.491-.6-4.491-.6l-2.4,3.6Z" fill="#ffbe9d"/>
        </g>
        <g id="Grupo_62148" data-name="Grupo 62148">
          <path id="Trazado_133549" data-name="Trazado 133549" d="M246.732,336.887a24.039,24.039,0,0,0-10.09-9.148,5.852,5.852,0,0,1,1.938.683,17.391,17.391,0,0,1,7.283,6.6A5.851,5.851,0,0,1,246.732,336.887Z" fill="#eb996e"/>
        </g>
        <g id="Grupo_62149" data-name="Grupo 62149">
          <path id="Trazado_133550" data-name="Trazado 133550" d="M249.814,324.4c-.092.085-1.3-.9-2.949-1.91a20.73,20.73,0,0,0-2.149-1.185c-.566-.266-.941-.339-.94-.417s.431-.12,1.067.072a9.845,9.845,0,0,1,2.3,1.087C248.829,323.079,249.936,324.289,249.814,324.4Z" fill="#eb996e"/>
        </g>
        <g id="Grupo_62150" data-name="Grupo 62150">
          <path id="Trazado_133551" data-name="Trazado 133551" d="M252.888,320.621a7.912,7.912,0,0,1-3.527-.4,6.446,6.446,0,0,1-2.257-1.183c-.5-.428-.712-.785-.663-.828a14.762,14.762,0,0,0,3.074,1.513C251.331,320.253,252.915,320.449,252.888,320.621Z" fill="#eb996e"/>
        </g>
        <g id="Grupo_62151" data-name="Grupo 62151">
          <path id="Trazado_133552" data-name="Trazado 133552" d="M235.091,341.918a12.753,12.753,0,0,1-1.669-2.17,19.69,19.69,0,0,0-4.275-4.858,8.616,8.616,0,0,0-6.054-1.6,11.009,11.009,0,0,0-2.55.811c-.018-.023.174-.209.584-.462a5.7,5.7,0,0,1,1.907-.712,8.507,8.507,0,0,1,6.417,1.544,17.4,17.4,0,0,1,4.278,5.078A16.267,16.267,0,0,1,235.091,341.918Z" fill="#eb996e"/>
        </g>
        <g id="Grupo_62152" data-name="Grupo 62152">
          <path id="Trazado_133553" data-name="Trazado 133553" d="M249.1,382.418a55.031,55.031,0,0,1-7.485,1.076,55.071,55.071,0,0,1-7.541.558,55,55,0,0,1,7.485-1.076A55.07,55.07,0,0,1,249.1,382.418Z" fill="#eb996e"/>
        </g>
      </g>
    </g>
    <g id="Stars">
      <g id="Grupo_62154" data-name="Grupo 62154">
        <path id="Trazado_133554" data-name="Trazado 133554" d="M406.632,49.844l1.129,2.064,2.064,1.129-2.064,1.129-1.129,2.064L405.5,54.166l-2.064-1.129,2.064-1.129Z" transform="translate(17 -12)" fill="#f5ca56"/>
        <path id="Trazado_133555" data-name="Trazado 133555" d="M430.236,101.014l1.129,2.064,2.064,1.129-2.064,1.129-1.129,2.064-1.129-2.064-2.064-1.129,2.064-1.129Z" transform="translate(17 -12)" fill="#f5ca56"/>
        <path id="Trazado_133556" data-name="Trazado 133556" d="M51.9,237.533l1.129,2.064,2.064,1.129-2.064,1.129L51.9,243.919l-1.129-2.064-2.064-1.129,2.064-1.129Z" fill="#f5ca56"/>
        <path id="Trazado_133557" data-name="Trazado 133557" d="M375.662,62.562l2.607,4.766,4.766,2.607-4.766,2.607-2.607,4.767-2.607-4.767-4.766-2.607,4.766-2.607Z" transform="translate(17 -12)" fill="#f5ca56"/>
        <path id="Trazado_133558" data-name="Trazado 133558" d="M73.061,205.1l2.6,4.756,4.756,2.6-4.756,2.6-2.6,4.756-2.6-4.756-4.756-2.6,4.756-2.6Z" fill="#f5ca56"/>
        <path id="Trazado_133559" data-name="Trazado 133559" d="M436.658,318.565l2.6,4.756,4.756,2.6-4.756,2.6-2.6,4.756-2.6-4.756-4.756-2.6,4.756-2.6Z" fill="#f5ca56"/>
      </g>
    </g>
    <g id="Grupo_60496" data-name="Grupo 60496" transform="translate(-674.497 -12272.073)">
      <g id="Grupo_60495" data-name="Grupo 60495" transform="translate(992.802 12594)">
        <g id="Grupo_60468" data-name="Grupo 60468" transform="translate(0 15.194)">
          <path id="Trazado_131225" data-name="Trazado 131225" d="M102.695,149.357H5.207A5.207,5.207,0,0,1,0,144.15V63.385l2.378-3.264H107.9V144.15A5.207,5.207,0,0,1,102.695,149.357Z" transform="translate(0 -60.121)" fill="#e8edf2"/>
        </g>
        <g id="Grupo_60469" data-name="Grupo 60469" transform="translate(58.368 59.72)">
          <path id="Trazado_131226" data-name="Trazado 131226" d="M280.485,275.806V236.3h-12.7v14.328a2.6,2.6,0,0,1-2.6,2.6h-34.23v27.779h44.327a5.207,5.207,0,0,0,5.207-5.207Z" transform="translate(-230.951 -236.303)" fill="#c5d3dd"/>
        </g>
        <g id="Grupo_60470" data-name="Grupo 60470" transform="translate(12.7 29.688)">
          <path id="Trazado_131227" data-name="Trazado 131227" d="M130.15,164.433H52.856a2.6,2.6,0,0,1-2.6-2.6V120.073a2.6,2.6,0,0,1,2.6-2.6H130.15a2.6,2.6,0,0,1,2.6,2.6v41.756A2.6,2.6,0,0,1,130.15,164.433Z" transform="translate(-50.252 -117.469)" fill="#dd636e"/>
        </g>
        <g id="Grupo_60471" data-name="Grupo 60471" transform="translate(12.7 29.688)">
          <path id="Trazado_131228" data-name="Trazado 131228" d="M55.829,161.829V120.073a2.6,2.6,0,0,1,2.6-2.6H52.856a2.6,2.6,0,0,0-2.6,2.6v41.756a2.6,2.6,0,0,0,2.6,2.6h5.577A2.6,2.6,0,0,1,55.829,161.829Z" transform="translate(-50.252 -117.469)" fill="#c63d4f"/>
        </g>
        <g id="Grupo_60472" data-name="Grupo 60472" transform="translate(0 15.679)">
          <path id="Trazado_131229" data-name="Trazado 131229" d="M6.836,145.582V64.817l-2.4-2.592-2.624-.187L0,64.817v80.765a5.207,5.207,0,0,0,5.207,5.207h6.836A5.207,5.207,0,0,1,6.836,145.582Z" transform="translate(0 -62.038)" fill="#c5d3dd"/>
        </g>
        <g id="Grupo_60473" data-name="Grupo 60473">
          <path id="Trazado_131230" data-name="Trazado 131230" d="M102.695,0H5.207A5.207,5.207,0,0,0,0,5.207V18.458H107.9V5.207A5.207,5.207,0,0,0,102.695,0Z" fill="#aee6e6"/>
        </g>
        <g id="Grupo_60474" data-name="Grupo 60474">
          <path id="Trazado_131231" data-name="Trazado 131231" d="M12.043,0H5.207A5.207,5.207,0,0,0,0,5.207V18.458H6.836V5.207A5.207,5.207,0,0,1,12.043,0Z" fill="#75cef9"/>
        </g>
        <g id="Grupo_60475" data-name="Grupo 60475" transform="translate(7.851 7.842)">
          <path id="Trazado_131232" data-name="Trazado 131232" d="M35.016,34.936h-2a1.953,1.953,0,1,1,0-3.905h2a1.953,1.953,0,0,1,0,3.905Z" transform="translate(-31.064 -31.031)" fill="#75cef9"/>
        </g>
        <g id="Grupo_60476" data-name="Grupo 60476" transform="translate(17.599 7.842)">
          <path id="Trazado_131233" data-name="Trazado 131233" d="M73.589,34.936h-2a1.953,1.953,0,1,1,0-3.905h2a1.953,1.953,0,0,1,0,3.905Z" transform="translate(-69.637 -31.031)" fill="#75cef9"/>
        </g>
        <g id="Grupo_60477" data-name="Grupo 60477" transform="translate(27.348 7.842)">
          <path id="Trazado_131234" data-name="Trazado 131234" d="M112.162,34.936h-2a1.953,1.953,0,1,1,0-3.905h2a1.953,1.953,0,1,1,0,3.905Z" transform="translate(-108.21 -31.031)" fill="#75cef9"/>
        </g>
        <g id="Grupo_60478" data-name="Grupo 60478" transform="translate(39.033 88.578)">
          <path id="Trazado_131235" data-name="Trazado 131235" d="M166.96,354.394H156.4a1.953,1.953,0,1,1,0-3.905H166.96a1.953,1.953,0,1,1,0,3.905Z" transform="translate(-154.445 -350.489)" fill="#90d8f9"/>
        </g>
        <g id="Grupo_60479" data-name="Grupo 60479" transform="translate(27.827 88.578)">
          <path id="Trazado_131236" data-name="Trazado 131236" d="M122.148,354.394h-10.09a1.953,1.953,0,1,1,0-3.905h10.09a1.953,1.953,0,1,1,0,3.905Z" transform="translate(-110.106 -350.489)" fill="#9facba"/>
        </g>
        <g id="Grupo_60480" data-name="Grupo 60480" transform="translate(58.368 59.72)">
          <path id="Trazado_131237" data-name="Trazado 131237" d="M230.951,246.716v6.517h34.23a2.6,2.6,0,0,0,2.6-2.6V236.3h-26.42a10.426,10.426,0,0,0-10.414,10.414Z" transform="translate(-230.951 -236.302)" fill="#c63d4f"/>
        </g>
        <g id="Grupo_60481" data-name="Grupo 60481" transform="translate(10.747 86.001)">
          <path id="Trazado_131238" data-name="Trazado 131238" d="M44.479,349.351a1.953,1.953,0,0,1-1.953-1.953v-5.155a1.953,1.953,0,1,1,3.905,0V347.4A1.952,1.952,0,0,1,44.479,349.351Z" transform="translate(-42.526 -340.291)" fill="#9facba"/>
        </g>
        <g id="Grupo_60482" data-name="Grupo 60482" transform="translate(18.267 86.001)">
          <path id="Trazado_131239" data-name="Trazado 131239" d="M74.231,349.351a1.953,1.953,0,0,1-1.953-1.953v-5.155a1.953,1.953,0,0,1,3.905,0V347.4A1.953,1.953,0,0,1,74.231,349.351Z" transform="translate(-72.278 -340.291)" fill="#9facba"/>
        </g>
        <g id="Grupo_60483" data-name="Grupo 60483" transform="translate(33.987 84.759)">
          <path id="Trazado_131240" data-name="Trazado 131240" d="M134.479,345.618v-8.936a1.3,1.3,0,0,1,1.885-1.164l8.915,4.468a1.3,1.3,0,0,1,0,2.328l-8.915,4.468a1.3,1.3,0,0,1-1.885-1.164Z" transform="translate(-134.479 -335.378)" fill="#dd636e"/>
        </g>
        <g id="Grupo_60484" data-name="Grupo 60484" transform="translate(46.267 42.533)">
          <path id="Trazado_131241" data-name="Trazado 131241" d="M185.006,189.4l16.7-9.332a1.3,1.3,0,0,0,0-2.273l-16.7-9.332a1.3,1.3,0,0,0-1.937,1.137v18.665a1.3,1.3,0,0,0,1.937,1.137Z" transform="translate(-183.069 -168.297)" fill="#e8edf2"/>
        </g>
        <g id="Grupo_60486" data-name="Grupo 60486" transform="translate(64.876 66.229)">
          <g id="Grupo_60485" data-name="Grupo 60485">
            <path id="Trazado_131242" data-name="Trazado 131242" d="M317.32,325.224H260.61a3.905,3.905,0,0,1-3.905-3.905V265.962a3.905,3.905,0,0,1,3.905-3.905H317.32a3.905,3.905,0,0,1,3.905,3.905v55.357A3.905,3.905,0,0,1,317.32,325.224Z" transform="translate(-256.705 -262.057)" fill="#f5ca56"/>
          </g>
        </g>
        <g id="Grupo_60488" data-name="Grupo 60488" transform="translate(64.876 66.229)">
          <g id="Grupo_60487" data-name="Grupo 60487">
            <path id="Trazado_131243" data-name="Trazado 131243" d="M262.329,321.319V265.962a3.905,3.905,0,0,1,3.905-3.905H260.61a3.905,3.905,0,0,0-3.905,3.905v55.357a3.905,3.905,0,0,0,3.905,3.905h5.624A3.906,3.906,0,0,1,262.329,321.319Z" transform="translate(-256.705 -262.057)" fill="#ebb044"/>
          </g>
        </g>
        <g id="Grupo_60489" data-name="Grupo 60489" transform="translate(112.65 66.229)">
          <path id="Trazado_131244" data-name="Trazado 131244" d="M462.484,278.8H449.643a3.905,3.905,0,0,1-3.905-3.905V262.057h12.841a3.905,3.905,0,0,1,3.905,3.905Z" transform="translate(-445.738 -262.057)" fill="#dd636e"/>
        </g>
        <path id="Trazado_131245" data-name="Trazado 131245" d="M469.991,283.548l.6-.6a1.953,1.953,0,1,0-2.762-2.762l-.6.6-.6-.6a1.953,1.953,0,1,0-2.762,2.762l.6.6-.6.6a1.953,1.953,0,1,0,2.761,2.762l.6-.6.6.6a1.953,1.953,0,0,0,2.762-2.762Z" transform="translate(-346.206 -208.946)" fill="#b2263d"/>
        <path id="Trazado_131246" data-name="Trazado 131246" d="M300.884,362.274,295.2,347.216l-.021-.054a2.291,2.291,0,0,0-2.126-1.424h0a2.29,2.29,0,0,0-2.125,1.429l-.017.044-5.735,15.057a1.953,1.953,0,1,0,3.649,1.39l.949-2.492h6.518l.939,2.487a1.953,1.953,0,0,0,3.654-1.379Zm-9.623-5.013,1.787-4.691,1.77,4.691Z" transform="translate(-213.007 -258.361)" fill="#e8edf2"/>
        <g id="Grupo_60491" data-name="Grupo 60491" transform="translate(108.412 87.378)">
          <g id="Grupo_60490" data-name="Grupo 60490">
            <path id="Trazado_131247" data-name="Trazado 131247" d="M436.243,364.919a9.236,9.236,0,0,1-6.769-2.905,1.953,1.953,0,0,1,2.893-2.623,5.274,5.274,0,0,0,3.875,1.623,2.533,2.533,0,0,0,2.625-1.7c.2-1.1-1.315-1.788-1.975-2.031-2.37-.874-4.475-1.811-4.563-1.85a1.93,1.93,0,0,1-.271-.147,4.9,4.9,0,0,1-2.185-4.848,5.415,5.415,0,0,1,3.924-4.373c4.194-1.263,7.647,1.583,7.792,1.7a1.953,1.953,0,0,1-2.5,3,5.04,5.04,0,0,0-4.163-.964,1.492,1.492,0,0,0-1.184,1.188,1.018,1.018,0,0,0,.354.95c.542.237,2.282.987,4.15,1.677,3.879,1.431,4.851,4.235,4.468,6.382a6.341,6.341,0,0,1-6.469,4.919Z" transform="translate(-428.968 -345.742)" fill="#e8edf2"/>
          </g>
        </g>
        <g id="Grupo_60492" data-name="Grupo 60492" transform="translate(91.684 87.603)">
          <path id="Trazado_131248" data-name="Trazado 131248" d="M364.763,365.358a1.952,1.952,0,0,1-1.953-1.945s-.019-5.373-.019-7.433c0-1.69-.011-7.391-.011-7.391a1.953,1.953,0,0,1,1.953-1.956h4.2c4.748,0,7.938,3.763,7.938,9.363,0,5.327-3.272,9.251-7.781,9.33-1.2.021-4.19.032-4.317.033Zm1.926-14.82c0,1.818.007,4.4.007,5.441,0,1.249.007,3.718.013,5.464.853-.005,1.778-.013,2.31-.022,2.724-.048,3.944-2.759,3.944-5.425,0-1.28-.291-5.458-4.032-5.458h-2.241Z" transform="translate(-362.78 -346.632)" fill="#e8edf2"/>
        </g>
        <g id="Grupo_60493" data-name="Grupo 60493" transform="translate(72.039 110.999)">
          <path id="Trazado_131249" data-name="Trazado 131249" d="M333.328,443.11H287a1.953,1.953,0,0,1,0-3.905h46.329a1.953,1.953,0,0,1,0,3.905Z" transform="translate(-285.047 -439.205)" fill="#d68a1d"/>
        </g>
        <g id="Grupo_60494" data-name="Grupo 60494" transform="translate(72.039 119.035)">
          <path id="Trazado_131250" data-name="Trazado 131250" d="M333.328,474.905H287A1.953,1.953,0,0,1,287,471h46.329a1.953,1.953,0,0,1,0,3.905Z" transform="translate(-285.047 -471)" fill="#d68a1d"/>
        </g>
        <g id="Grupo_62163" data-name="Grupo 62163" transform="translate(39 -104)">
          <g id="Grupo_62159" data-name="Grupo 62159" transform="translate(-288.123 -175.771)">
            <g id="Grupo_60485-2" data-name="Grupo 60485" transform="translate(0 0)">
              <path id="Trazado_131242-2" data-name="Trazado 131242" d="M321.119,329.183H260.855a4.15,4.15,0,0,1-4.15-4.15V266.207a4.15,4.15,0,0,1,4.15-4.15h60.264a4.15,4.15,0,0,1,4.15,4.15v58.826A4.15,4.15,0,0,1,321.119,329.183Z" transform="translate(-256.705 -262.057)" fill="#f5ca56"/>
            </g>
          </g>
          <g id="Grupo_62162" data-name="Grupo 62162" transform="translate(-288.123 -175.771)">
            <g id="Grupo_60487-2" data-name="Grupo 60487" transform="translate(0 0)">
              <path id="Trazado_131243-2" data-name="Trazado 131243" d="M262.681,325.033V266.207a4.15,4.15,0,0,1,4.15-4.15h-5.976a4.15,4.15,0,0,0-4.15,4.15v58.826a4.15,4.15,0,0,0,4.15,4.15h5.976A4.15,4.15,0,0,1,262.681,325.033Z" transform="translate(-256.705 -262.057)" fill="#ebb044"/>
            </g>
          </g>
          <g id="Grupo_62158" data-name="Grupo 62158" transform="translate(-237.356 -175.771)">
            <path id="Trazado_131244-2" data-name="Trazado 131244" d="M463.534,279.853H449.888a4.15,4.15,0,0,1-4.15-4.15V262.057h13.646a4.15,4.15,0,0,1,4.15,4.15Z" transform="translate(-445.738 -262.057)" fill="#dd636e"/>
          </g>
          <path id="Trazado_133561" data-name="Trazado 133561" d="M470.411,283.8l.641-.641a2.075,2.075,0,1,0-2.935-2.935l-.641.641-.641-.641a2.075,2.075,0,0,0-2.935,2.935l.641.641-.641.641a2.075,2.075,0,1,0,2.934,2.935l.641-.641.641.641a2.075,2.075,0,1,0,2.935-2.935Z" transform="translate(-695.934 -450.669)" fill="#b2263d"/>
          <path id="Trazado_133560" data-name="Trazado 133560" d="M301.876,363.311l-6.039-16-.023-.057a2.434,2.434,0,0,0-2.259-1.513h0a2.434,2.434,0,0,0-2.258,1.518l-.018.047-6.094,16a2.075,2.075,0,1,0,3.878,1.477l1.009-2.649H297l1,2.643a2.075,2.075,0,0,0,3.883-1.466Zm-10.227-5.328,1.9-4.985,1.881,4.985Z" transform="translate(-565.557 -499.036)" fill="#e8edf2"/>
          <g id="Grupo_62157" data-name="Grupo 62157" transform="translate(-241.859 -153.296)">
            <g id="Grupo_60490-2" data-name="Grupo 60490" transform="translate(0 0)">
              <path id="Trazado_131247-2" data-name="Trazado 131247" d="M436.7,366.12a9.814,9.814,0,0,1-7.193-3.087,2.075,2.075,0,0,1,3.075-2.787,5.6,5.6,0,0,0,4.118,1.724,2.692,2.692,0,0,0,2.789-1.807c.209-1.172-1.4-1.9-2.1-2.158-2.518-.929-4.755-1.924-4.849-1.966a2.049,2.049,0,0,1-.288-.156,5.2,5.2,0,0,1-2.322-5.152,5.755,5.755,0,0,1,4.169-4.647c4.457-1.343,8.126,1.683,8.28,1.812a2.075,2.075,0,0,1-2.659,3.186,5.356,5.356,0,0,0-4.424-1.024,1.586,1.586,0,0,0-1.258,1.262,1.082,1.082,0,0,0,.376,1.01c.576.252,2.425,1.049,4.41,1.782,4.122,1.521,5.155,4.5,4.748,6.782a6.738,6.738,0,0,1-6.874,5.227Z" transform="translate(-428.968 -345.742)" fill="#e8edf2"/>
            </g>
          </g>
          <g id="Grupo_62156" data-name="Grupo 62156" transform="translate(-259.635 -153.057)">
            <path id="Trazado_131248-2" data-name="Trazado 131248" d="M364.887,366.531a2.074,2.074,0,0,1-2.075-2.067s-.02-5.71-.02-7.9c0-1.8-.012-7.854-.012-7.854a2.076,2.076,0,0,1,2.075-2.079h4.461c5.045,0,8.435,4,8.435,9.95,0,5.661-3.477,9.831-8.268,9.915-1.272.022-4.453.034-4.588.035Zm2.047-15.749c0,1.931.008,4.671.008,5.782,0,1.327.008,3.951.013,5.806.906-.006,1.889-.013,2.455-.024,2.895-.051,4.191-2.932,4.191-5.765,0-1.361-.309-5.8-4.285-5.8h-2.382Z" transform="translate(-362.78 -346.632)" fill="#e8edf2"/>
          </g>
          <g id="Grupo_62161" data-name="Grupo 62161" transform="translate(-280.511 -128.195)">
            <path id="Trazado_131249-2" data-name="Trazado 131249" d="M336.354,443.355H287.122a2.075,2.075,0,0,1,0-4.15h49.232a2.075,2.075,0,0,1,0,4.15Z" transform="translate(-285.047 -439.205)" fill="#d68a1d"/>
          </g>
          <g id="Grupo_62160" data-name="Grupo 62160" transform="translate(-280.511 -119.656)">
            <path id="Trazado_131250-2" data-name="Trazado 131250" d="M336.354,475.15H287.122a2.075,2.075,0,0,1,0-4.15h49.232a2.075,2.075,0,0,1,0,4.15Z" transform="translate(-285.047 -471)" fill="#d68a1d"/>
          </g>
        </g>
      </g>
    </g>
    <g id="Grupo_60936" data-name="Grupo 60936" transform="translate(371.392 101.057)">
      <path id="Trazado_133028" data-name="Trazado 133028" d="M1150.754,79.261a29.369,29.369,0,1,1,25.66,32.66A29.369,29.369,0,0,1,1150.754,79.261Z" transform="translate(-1150.542 -53.389)" fill="#26aab7"/>
      <path id="Trazado_133029" data-name="Trazado 133029" d="M1191.165,90.08c-7.3,6.82-19.047,8.083-19.047,8.083s-8.016-8.681-9.02-18.614c-.837-8.286,4.189-15.018,10.27-14.618,8.716.57,5.609,14.956,5.609,14.956s7.124-12.879,14.071-7.571C1197.89,76.015,1197.247,84.391,1191.165,90.08Z" transform="translate(-1149.048 -52.008)" fill="#fff"/>
    </g>
    <g id="Grupo_62164" data-name="Grupo 62164" transform="translate(-31.241 415.057)">
      <path id="Trazado_133028-2" data-name="Trazado 133028" d="M1209.074,79.261a29.369,29.369,0,1,0-25.66,32.66A29.369,29.369,0,0,0,1209.074,79.261Z" transform="translate(-1150.542 -53.389)" fill="#26aab7"/>
      <path id="Trazado_133029-2" data-name="Trazado 133029" d="M1168.1,90.08c7.3,6.82,19.047,8.083,19.047,8.083s8.016-8.681,9.02-18.614c.837-8.286-4.189-15.018-10.27-14.618-8.716.57-5.609,14.956-5.609,14.956s-7.124-12.879-14.071-7.571C1161.375,76.015,1162.017,84.391,1168.1,90.08Z" transform="translate(-1151.472 -52.008)" fill="#fff"/>
    </g>
  </g>
</svg>
