<svg xmlns="http://www.w3.org/2000/svg" width="49.28" height="49.26" viewBox="0 0 49.28 49.26">
  <path id="Trazado_131166" data-name="Trazado 131166" d="M787.932,96.884a24.253,24.253,0,0,0,5.926-12.94,3.924,3.924,0,0,1,.214-1.288V78.711a7.2,7.2,0,0,1-.263-1.67,24.611,24.611,0,0,0-48.349-1.879c-2.065,9.462.678,17.581,7.888,24.076a23.622,23.622,0,0,0,13.835,5.928c.087.009.2-.029.238.1h3.848a10.027,10.027,0,0,1,1.814-.269A24.28,24.28,0,0,0,787.932,96.884Zm-16.884-2.552a5.836,5.836,0,0,1-4.673-.6,12.713,12.713,0,0,1-1.356-.907,5.465,5.465,0,0,0-4.679-.989c-1.443.273-1.278.244-1.559-1.026-.12-.542-.337-.827-.928-.886a8.409,8.409,0,0,1-2.179-.552,3.523,3.523,0,0,1-.6-.3c-.26-.163-.545-.357-.509-.7.038-.366.4-.3.651-.361a8.8,8.8,0,0,0,5.554-4.549,4.717,4.717,0,0,0,.513-1.132,1.253,1.253,0,0,0-.5-1.477,4.277,4.277,0,0,0-1.3-.593,5.345,5.345,0,0,1-1.23-.529c-.535-.333-.727-.715-.552-1.081a1.242,1.242,0,0,1,1.365-.554,6.628,6.628,0,0,0,1.138.368,3.453,3.453,0,0,0,.571.052c.662-.021.813-.178.78-.821-.066-1.28-.152-2.559-.113-3.844a6.768,6.768,0,0,1,4.68-6.555,8.386,8.386,0,0,1,8.7,1.238,6.432,6.432,0,0,1,2.524,5.126c0,.657,0,1.314,0,2.163-.03.561-.053,1.315-.12,2.065-.031.351.114.485.421.568a2.462,2.462,0,0,0,1.669-.274,1.456,1.456,0,0,1,1.459.119.673.673,0,0,1,.115,1.162,3.312,3.312,0,0,1-1.3.7,6.935,6.935,0,0,0-1.417.576,1.279,1.279,0,0,0-.61,1.762c1.259,2.762,3.133,4.855,6.241,5.547.474.106.571.379.248.742a2.759,2.759,0,0,1-1.244.692,9.831,9.831,0,0,1-2.053.475.69.69,0,0,0-.68.61c-.059.281-.152.556-.2.839-.075.463-.318.61-.776.53a12.68,12.68,0,0,0-1.9-.236,5.092,5.092,0,0,0-3.237,1A8.758,8.758,0,0,1,771.048,94.333Z" transform="translate(-744.792 -56.006)" fill="#3a277b"/>
</svg>
