<svg xmlns="http://www.w3.org/2000/svg" xmlns:xlink="http://www.w3.org/1999/xlink" width="63" height="63" viewBox="0 0 63 63">
  <defs>
    <clipPath id="clip-path">
      <rect id="Rectángulo_401535" data-name="Rectángulo 401535" width="63" height="63" transform="translate(664 615)" fill="#fff" stroke="#707070" stroke-width="1"/>
    </clipPath>
  </defs>
  <g id="Enmascarar_grupo_1098723" data-name="Enmascarar grupo 1098723" transform="translate(-664 -615)" clip-path="url(#clip-path)">
    <g id="tik-tok" transform="translate(664.006 614.877)">
      <g id="Grupo_1099897" data-name="Grupo 1099897">
        <path id="Trazado_874114" data-name="Trazado 874114" d="M22.5,32.791A8.867,8.867,0,0,0,17.891,49.31a8.73,8.73,0,0,1-1.421-4.658,8.938,8.938,0,0,1,8.995-9.019,9.289,9.289,0,0,1,2.829.445V26.132a19.558,19.558,0,0,0-2.829-.21h-.136v7.314A9.289,9.289,0,0,0,22.5,32.791Z" fill="#f00044"/>
        <path id="Trazado_874115" data-name="Trazado 874115" d="M44.183,2.965H41.539a15.193,15.193,0,0,0,5.745,9.155A15.3,15.3,0,0,1,44.183,2.965Z" fill="#f00044"/>
        <path id="Trazado_874116" data-name="Trazado 874116" d="M59.306,18.1a15.388,15.388,0,0,1-2.842-.272v7.129a24.508,24.508,0,0,1-9.687-1.965,25.306,25.306,0,0,1-5.51-3.212l.049,21.98a18.388,18.388,0,0,1-5.51,13.072,18.743,18.743,0,0,1-10.477,5.239,19.558,19.558,0,0,1-2.829.21,18.766,18.766,0,0,1-11.528-3.9,16.741,16.741,0,0,0,1.2,1.3,18.829,18.829,0,0,0,13.307,5.449,19.558,19.558,0,0,0,2.829-.21,18.743,18.743,0,0,0,10.477-5.239A18.388,18.388,0,0,0,44.294,44.6l-.185-21.98a24.271,24.271,0,0,0,5.51,3.212A24.816,24.816,0,0,0,59.306,27.8" fill="#f00044"/>
      </g>
      <path id="Trazado_874117" data-name="Trazado 874117" d="M12.133,31.395a18.8,18.8,0,0,1,13.2-5.473V23.29a19.558,19.558,0,0,0-2.829-.21A18.785,18.785,0,0,0,9.168,28.553a18.465,18.465,0,0,0,.025,26.292,18.817,18.817,0,0,0,1.767,1.544A18.4,18.4,0,0,1,6.635,44.541a18.628,18.628,0,0,1,5.5-13.146Z" fill="#08fff9"/>
      <path id="Trazado_874118" data-name="Trazado 874118" d="M56.464,17.829V15.185h-.025A15.079,15.079,0,0,1,47.3,12.121,15.094,15.094,0,0,0,56.464,17.829Z" fill="#08fff9"/>
      <path id="Trazado_874119" data-name="Trazado 874119" d="M24.958,53.4a9.283,9.283,0,0,0,3.336-.432,8.9,8.9,0,0,0,6.165-8.439l.012-14.7V2.965h7.067a15.391,15.391,0,0,1-.3-2.842H31.506V26.972l-.012,14.7a8.9,8.9,0,0,1-6.165,8.439,8.768,8.768,0,0,1-3.336.432,9.065,9.065,0,0,1-4.1-1.248,9.013,9.013,0,0,0,7.067,4.1Z" fill="#08fff9"/>
      <path id="Trazado_874120" data-name="Trazado 874120" d="M25.328,60.072a18.743,18.743,0,0,0,10.477-5.239,18.388,18.388,0,0,0,5.51-13.072l-.049-21.98a24.271,24.271,0,0,0,5.51,3.212,24.816,24.816,0,0,0,9.687,1.965V17.829A15.094,15.094,0,0,1,47.3,12.121a15.137,15.137,0,0,1-5.745-9.155h-7.08V29.813l-.012,14.7a8.9,8.9,0,0,1-6.165,8.439,8.768,8.768,0,0,1-3.336.432,9.014,9.014,0,0,1-7.067-4.09A8.867,8.867,0,0,1,22.5,32.779a9.289,9.289,0,0,1,2.829.445V25.909a18.8,18.8,0,0,0-13.2,5.473A18.506,18.506,0,0,0,6.647,44.516a18.27,18.27,0,0,0,4.324,11.849,18.792,18.792,0,0,0,11.528,3.9,17.948,17.948,0,0,0,2.829-.2Z"/>
    </g>
  </g>
</svg>
