<svg xmlns="http://www.w3.org/2000/svg" width="49.298" height="49.28" viewBox="0 0 49.298 49.28">
  <g id="Grupo_60422" data-name="Grupo 60422" transform="translate(-748.796 -55.988)">
    <path id="Trazado_131158" data-name="Trazado 131158" d="M791.952,96.883a24.261,24.261,0,0,0,5.928-12.945,3.914,3.914,0,0,1,.214-1.289V78.8a9.669,9.669,0,0,1-.264-1.773,24.621,24.621,0,0,0-48.367-1.872c-2.063,9.466.681,17.587,7.893,24.083a23.63,23.63,0,0,0,13.839,5.93c.087.009.2-.029.238.1h3.85A10.032,10.032,0,0,1,777.1,105,24.289,24.289,0,0,0,791.952,96.883ZM774.615,91.4c-3.512.042-7.022-.049-10.526-.291a19.018,19.018,0,0,1-2.1-.251,3.88,3.88,0,0,1-3.449-3.528,43.236,43.236,0,0,1-.434-8.726,28.734,28.734,0,0,1,.507-5.015,3.927,3.927,0,0,1,3.6-3.261,97.548,97.548,0,0,1,10.034-.477c.385-.007.77,0,1.154,0,3.463.024,6.926.06,10.377.385a12.813,12.813,0,0,1,1.473.216,3.9,3.9,0,0,1,3.107,3.429,42.14,42.14,0,0,1,.438,8.724,29.032,29.032,0,0,1-.505,5.064,3.888,3.888,0,0,1-3.6,3.255A92.5,92.5,0,0,1,774.615,91.4Z" transform="translate(0 0)" fill="#3a277b"/>
    <path id="Trazado_131159" data-name="Trazado 131159" d="M973.358,273.389l8-4.6-8-4.6Z" transform="translate(-202.949 -188.157)" fill="#3a277b"/>
  </g>
</svg>
