<svg xmlns="http://www.w3.org/2000/svg" xmlns:xlink="http://www.w3.org/1999/xlink" width="63" height="63" viewBox="0 0 63 63">
  <defs>
    <clipPath id="clip-path">
      <rect id="Rectángulo_401534" data-name="Rectángulo 401534" width="63" height="63" transform="translate(876 615)" fill="#fff" stroke="#707070" stroke-width="1"/>
    </clipPath>
  </defs>
  <g id="Enmascarar_grupo_1098722" data-name="Enmascarar grupo 1098722" transform="translate(-876 -615)" clip-path="url(#clip-path)">
    <g id="snapchat" transform="translate(876 615)">
      <g id="Grupo_1099896" data-name="Grupo 1099896">
        <path id="Trazado_874110" data-name="Trazado 874110" d="M47.25,63H15.75A15.751,15.751,0,0,1,0,47.251V15.75A15.751,15.751,0,0,1,15.749,0h31.5A15.75,15.75,0,0,1,63,15.75v31.5A15.75,15.75,0,0,1,47.25,63" fill="#fffa00" fill-rule="evenodd"/>
      </g>
      <path id="Trazado_874111" data-name="Trazado 874111" d="M31.5,52.663a11.775,11.775,0,0,1-6.8-2.13,9.074,9.074,0,0,0-1.8-.941,12.052,12.052,0,0,0-3.482-.521,4.9,4.9,0,0,1-2.757-.626,2.987,2.987,0,0,1-1.188-2.192c-.178-.061-.4-.121-.658-.188A12.429,12.429,0,0,1,11.8,44.911a2.737,2.737,0,0,1-1.7-2.489,2.558,2.558,0,0,1,1.664-2.271c5.191-2.509,6.53-6.1,6.8-7.06-.464-.329-1.3-.867-1.747-1.159-.426-.276-.794-.514-1-.655-2.439-1.7-2.185-3.579-1.818-4.548a3.248,3.248,0,0,1,3.194-2.076,4.5,4.5,0,0,1,.965.106c.308.067.606.151.89.242a31.435,31.435,0,0,1,.067-3.748c.564-6.526,5.536-10.915,12.37-10.92S43.307,14.726,43.87,21.253A31.425,31.425,0,0,1,43.938,25c.285-.092.586-.176.9-.244a4.5,4.5,0,0,1,.958-.1,3.251,3.251,0,0,1,3.194,2.077c.367.97.619,2.849-1.818,4.548-.2.14-.569.379-1,.655-.45.292-1.279.829-1.748,1.16.272.953,1.612,4.55,6.8,7.058a2.559,2.559,0,0,1,1.667,2.273A2.734,2.734,0,0,1,51.2,44.91a12.393,12.393,0,0,1-3.019,1.156c-.256.068-.481.128-.659.189a2.992,2.992,0,0,1-1.193,2.194,4.9,4.9,0,0,1-2.752.623,12.031,12.031,0,0,0-3.481.521,9.061,9.061,0,0,0-1.8.941A11.774,11.774,0,0,1,31.5,52.663Z"/>
      <path id="Trazado_874112" data-name="Trazado 874112" d="M50.247,43.186c-1.881,1.036-3.131.923-4.1,1.551-.826.533-.341,1.679-.937,2.092-.734.511-2.918-.034-5.731.894-2.354.777-3.792,2.971-7.977,2.972s-5.625-2.2-7.977-2.972c-2.814-.928-5-.383-5.732-.894-.6-.412-.111-1.559-.936-2.092-.971-.628-2.221-.516-4.1-1.551-1.2-.661-.52-1.069-.12-1.263,6.814-3.295,7.9-8.39,7.948-8.773a1.208,1.208,0,0,0-.378-1.285c-.485-.451-2.646-1.787-3.244-2.2-.992-.692-1.426-1.384-1.1-2.235a1.54,1.54,0,0,1,1.894-.747c1.087.236,2.144.782,2.753.927.706.176.648-.383.641-.506a39.678,39.678,0,0,1-.052-5.68c.5-5.829,5.029-9.117,10.41-9.121s9.9,3.292,10.409,9.121a39.7,39.7,0,0,1-.051,5.68c-.007.123-.066.682.64.506.61-.146,1.667-.691,2.754-.927a1.54,1.54,0,0,1,1.894.747c.322.851-.111,1.543-1.1,2.235-.6.416-2.758,1.752-3.244,2.2a1.207,1.207,0,0,0-.379,1.285c.052.383,1.135,5.478,7.948,8.773.4.194,1.079.6-.12,1.263Z" fill="#fff"/>
    </g>
  </g>
</svg>
