<svg xmlns="http://www.w3.org/2000/svg" width="49.281" height="48.931" viewBox="0 0 49.281 48.931">
  <path id="Trazado_131151" data-name="Trazado 131151" d="M-1465,478.733v-3.938c.171-.066.093-.218.1-.33a24.313,24.313,0,0,1,2.918-9.454,24.481,24.481,0,0,1,25.78-12.4,23.326,23.326,0,0,1,14.776,8.631c5.815,7.3,7.276,15.533,3.955,24.252-3.383,8.882-10.067,14.034-19.454,15.636-.284.048-.515.169-.513-.335q.028-9.221,0-18.441c0-.347.106-.421.432-.418,1.7.015,3.394,0,5.09.015.325,0,.422-.087.461-.413q.363-3.024.785-6.041c.05-.352-.006-.425-.354-.422-2,.015-4,.006-6,.01-.236,0-.418.027-.412-.33.025-1.472.008-2.945.025-4.418a3.551,3.551,0,0,1,.354-1.626,2.614,2.614,0,0,1,2.352-1.309c1.31-.106,2.624-.04,3.936-.054.224,0,.387.011.385-.312-.015-1.841-.011-3.682,0-5.523,0-.25-.087-.325-.328-.346a40.51,40.51,0,0,0-5.85-.187,8.32,8.32,0,0,0-5.065,1.913,8.406,8.406,0,0,0-2.833,6.133c-.133,1.87-.045,3.745-.051,5.617,0,.341-.055.46-.435.454-1.68-.025-3.362,0-5.042-.018-.328,0-.466.036-.461.426.024,2,.021,4,0,6,0,.359.088.455.449.45,1.681-.02,3.362,0,5.042-.015.31,0,.445.043.444.406q-.018,9.149,0,18.3c0,.32-.052.393-.4.327a24.243,24.243,0,0,1-12.019-5.992,24.256,24.256,0,0,1-7.8-14.526A7.609,7.609,0,0,0-1465,478.733Z" transform="translate(1465 -452.245)" fill="#3a277b"/>
</svg>
