<svg xmlns="http://www.w3.org/2000/svg" width="49.28" height="49.26" viewBox="0 0 49.28 49.26">
  <path id="Trazado_131180" data-name="Trazado 131180" d="M1156.807,78.037a24.611,24.611,0,0,0-48.349-1.879c-2.066,9.462.678,17.581,7.888,24.076a23.622,23.622,0,0,0,13.835,5.928c.087.009.2-.029.238.1h3.848a10.039,10.039,0,0,1,1.814-.269,24.719,24.719,0,0,0,20.774-21.051,3.931,3.931,0,0,1,.214-1.289V79.707A7.187,7.187,0,0,1,1156.807,78.037Zm-12.443,1.136a11.594,11.594,0,0,1-6.317-2.144c-.1-.07-.18-.184-.341-.179,0,3.347,0,6.665,0,9.982a8.8,8.8,0,1,1-10.428-8.392,8.866,8.866,0,0,1,2.583-.1c.29.031.37.109.367.4q-.024,1.948,0,3.9c0,.33-.072.393-.395.322a4.111,4.111,0,0,0-4.93,2.921,4.151,4.151,0,0,0,5.473,4.985,3.967,3.967,0,0,0,2.655-3.412,6.862,6.862,0,0,0,.043-.864q.007-9.259,0-18.519c0-.382.062-.518.483-.506q1.754.051,3.511,0c.456-.014.605.091.653.574a6.9,6.9,0,0,0,4.071,5.807,6.445,6.445,0,0,0,2.636.65c.292.011.375.082.37.379-.018,1.266-.02,2.533,0,3.8C1144.805,79.12,1144.694,79.186,1144.364,79.172Z" transform="translate(-1107.79 -57.001)" fill="#3a277b"/>
</svg>
