<svg xmlns="http://www.w3.org/2000/svg" width="48.93" height="48.91" viewBox="0 0 48.93 48.91">
  <path id="Trazado_131171" data-name="Trazado 131171" d="M793.462,76.892a24.436,24.436,0,0,0-48.006-1.866c-2.05,9.4.674,17.456,7.832,23.9a23.452,23.452,0,0,0,13.736,5.886c.087.009.2-.029.237.1h3.821a9.948,9.948,0,0,1,1.8-.267,24.543,24.543,0,0,0,20.626-20.9,3.908,3.908,0,0,1,.212-1.279V78.55A7.141,7.141,0,0,1,793.462,76.892Zm-12.273-2.449a1.8,1.8,0,0,0-.763,1.667,15.909,15.909,0,0,1-23.881,13.538,3.171,3.171,0,0,1-.435-.278,11.986,11.986,0,0,0,8.021-2.423,5.777,5.777,0,0,1-5.206-3.913,5.3,5.3,0,0,0,2.467-.117,5.74,5.74,0,0,1-3.191-2,5.651,5.651,0,0,1-1.23-3.541,6.384,6.384,0,0,0,2.491.67,5.784,5.784,0,0,1-2.305-3.427,5.555,5.555,0,0,1,.616-4.043,20.7,20.7,0,0,0,2.1,2.1,15.921,15.921,0,0,0,9.16,3.725c.3.024.293-.06.253-.307a5.6,5.6,0,0,1,9.336-5.062.645.645,0,0,0,.715.175,9.02,9.02,0,0,0,2.994-1.249h0c.011.028.021.057.033.084,0,0,.018,0,.028,0l-.062-.084h0c.167.137.073.262,0,.376a.562.562,0,0,0-.042.078,5.859,5.859,0,0,1-2.091,2.552,9.859,9.859,0,0,0,2.99-.772A7.911,7.911,0,0,1,781.189,74.443Z" transform="translate(-744.793 -56.006)" fill="#3a277b"/>
</svg>
