<svg id="Grupo_60415" data-name="Grupo 60415" xmlns="http://www.w3.org/2000/svg" width="49.28" height="49.28" viewBox="0 0 49.28 49.28">
  <path id="Trazado_131155" data-name="Trazado 131155" d="M658.466,239.721a5.634,5.634,0,1,0,5.655,5.629A5.618,5.618,0,0,0,658.466,239.721Z" transform="translate(-633.85 -219.726)" fill="#3a277b"/>
  <path id="Trazado_131156" data-name="Trazado 131156" d="M572.975,141.651a26.017,26.017,0,0,0-.307-4.478,5.58,5.58,0,0,0-4.234-4.628,17.785,17.785,0,0,0-4.322-.532c-1.859-.051-3.718.01-5.578-.029-1.826-.038-3.654.006-5.48.036a17,17,0,0,0-3.372.321,5.539,5.539,0,0,0-4.516,4.273,16.3,16.3,0,0,0-.465,4.028q-.033,5.372-.008,10.745a15.07,15.07,0,0,0,.327,3.217,5.749,5.749,0,0,0,4.438,4.7,17.278,17.278,0,0,0,3.9.422c3.25.07,6.5.058,9.751.038a23.113,23.113,0,0,0,4.849-.374,5.647,5.647,0,0,0,4.551-4.22,14.35,14.35,0,0,0,.428-3.269c.094-2.17.055-4.341.045-6.512C572.981,144.141,573,142.9,572.975,141.651Zm-14.069,12.925a8.686,8.686,0,1,1,8.81-8.69A8.745,8.745,0,0,1,558.906,154.576Zm9.168-15.687a2.026,2.026,0,1,1-.024-4.052,2.026,2.026,0,1,1,.024,4.052Z" transform="translate(-534.244 -120.257)" fill="#3a277b"/>
  <path id="Trazado_131157" data-name="Trazado 131157" d="M433.666-16.831a24.64,24.64,0,1,0,24.64,24.64A24.64,24.64,0,0,0,433.666-16.831Zm17.09,21.155V14.544c-.137.086-.064.222-.067.33a17.085,17.085,0,0,1-.468,3.9,8.656,8.656,0,0,1-5.632,6.31,16.244,16.244,0,0,1-4.923.751c-.109,0-.244-.071-.331.065H427.112c-.059-.126-.175-.064-.264-.072a20.545,20.545,0,0,1-2.579-.329,8.752,8.752,0,0,1-7.185-6.8,22.421,22.421,0,0,1-.515-5.435c-.019-2.972-.014-5.944-.006-8.916a25.617,25.617,0,0,1,.4-4.982,8.919,8.919,0,0,1,3.594-5.729,10.223,10.223,0,0,1,5.638-1.793c4.594-.213,9.191-.172,13.787-.062a16.552,16.552,0,0,1,3.408.386A8.578,8.578,0,0,1,450-1.944a15.938,15.938,0,0,1,.687,4.8c0,.109-.07.244.065.331Z" transform="translate(-409.026 16.831)" fill="#3a277b"/>
</svg>
