<svg xmlns="http://www.w3.org/2000/svg" xmlns:xlink="http://www.w3.org/1999/xlink" width="505" height="332" viewBox="0 0 505 332">
  <defs>
    <clipPath id="clip-path">
      <path id="Trazado_133006" data-name="Trazado 133006" d="M1080.159,44.018V259.175a10.819,10.819,0,0,1-10.633,11H964.557a10.822,10.822,0,0,1-10.647-11L916.423,12.7c0-12.39,4.761-12.993,10.647-12.993l58.809,17.467c2.77-2.9,1.923,15.181,1.923,16.828v.71c0,3.858,2.207,3.871,4.921,3.871h48.626c2.734,0,4.921-.013,4.921-3.871V34c0-1.646.986-2.975,2.227-2.975h21.031C1075.4,31.025,1080.159,32.671,1080.159,44.018Z" transform="translate(-916.423 0.295)" fill="none"/>
    </clipPath>
  </defs>
  <g id="Grupo_62168" data-name="Grupo 62168" transform="translate(-915 -2151)">
    <rect id="Rectángulo_30910" data-name="Rectángulo 30910" width="505" height="332" transform="translate(915 2151)" fill="#cae8e8"/>
    <g id="Grupo_60933" data-name="Grupo 60933" transform="translate(171.509 2191.667)">
      <g id="Grupo_60867" data-name="Grupo 60867" transform="translate(886.661 112.903)">
        <circle id="Elipse_4567" data-name="Elipse 4567" cx="14.011" cy="14.011" r="14.011" transform="matrix(0.84, -0.542, 0.542, 0.84, 0, 15.193)" fill="#3a277b"/>
        <path id="Trazado_132941" data-name="Trazado 132941" d="M932.457,179.807c-1.537,4.511-6.2,7.685-6.2,7.685s-5.325-1.848-7.982-5.8c-2.217-3.3-1.615-7.26,1.032-8.46,3.795-1.721,5.724,5.031,5.724,5.031s.1-7.021,4.217-6.35C932.122,172.376,933.736,176.045,932.457,179.807Z" transform="translate(-905.768 -159.643)" fill="#fff"/>
      </g>
      <g id="Grupo_60868" data-name="Grupo 60868" transform="translate(899.749 -34.667)">
        <path id="Trazado_132942" data-name="Trazado 132942" d="M921.217-6.038a20.292,20.292,0,0,1,10.17-26.835A20.293,20.293,0,0,1,958.222-22.7a20.293,20.293,0,0,1-10.17,26.835A20.292,20.292,0,0,1,921.217-6.038Z" transform="translate(-919.422 34.667)" fill="#f5ca56"/>
        <path id="Trazado_132943" data-name="Trazado 132943" d="M952.787-10.936C950.9-4.3,944.4.641,944.4.641s-7.84-2.276-11.977-7.8c-3.452-4.6-2.879-10.38.86-12.312,5.361-2.772,8.655,6.848,8.655,6.848s-.379-10.162,5.625-9.5C951.748-21.658,954.356-16.473,952.787-10.936Z" transform="translate(-921.846 31.834)" fill="#fff"/>
      </g>
      <g id="Grupo_60869" data-name="Grupo 60869" transform="translate(1086.56 173.156)">
        <path id="Trazado_132944" data-name="Trazado 132944" d="M1161.023,251.821a20.292,20.292,0,1,1,17.729,22.566A20.292,20.292,0,0,1,1161.023,251.821Z" transform="translate(-1160.877 -233.946)" fill="#26aab7"/>
        <path id="Trazado_132945" data-name="Trazado 132945" d="M1192.8,262.86c-5.043,4.712-13.161,5.584-13.161,5.584s-5.539-6-6.232-12.862c-.578-5.725,2.894-10.375,7.1-10.1,6.022.394,3.875,10.334,3.875,10.334s4.922-8.9,9.722-5.231C1197.443,253.141,1197,258.929,1192.8,262.86Z" transform="translate(-1163.698 -236.554)" fill="#fff"/>
      </g>
      <g id="xsrjP0" transform="translate(1081.944 39.252)">
        <g id="Grupo_60870" data-name="Grupo 60870" transform="translate(0)">
          <path id="Trazado_132946" data-name="Trazado 132946" d="M1175.486,94.29c-.762-.7-1.366-1.63-2.544-1.735-.451-.039-.286-.387-.243-.629q1.2-6.526,2.419-13.041c.059-.316.127-.573.5-.682,3.631-1.056,5.684-4.082,8.242-6.518a13.224,13.224,0,0,0,4.245-9.414c.043-1,.581-1.358,1.5-1.393a2.217,2.217,0,0,1,2.336,1.242,17.837,17.837,0,0,1,.836,6.049c-.116,1.684-1.006,3.18-1.515,4.772-.374,1.165-.871,2.293-1.323,3.459.251.266.61.219.922.282q5.507,1.034,11.016,2.054c1.547.289,2.222.873,2.246,1.94a2.994,2.994,0,0,1-2.192,2.886c-.3.087-.773-.129-.887.294s.405.482.626.706c1.16,1.159.563,2.993-1.178,3.795-.418.19-1.113-.063-1.232.476-.089.432.583.552.83.913.876,1.26-.026,3.14-1.778,3.642a4.925,4.925,0,0,0-.692.128c-.206.089-.409.193-.1.509,1.379,1.433,1.051,3.008-.765,3.863l-.543.254a3.153,3.153,0,0,1-2.012.063q-8.64-1.591-17.275-3.212A2.082,2.082,0,0,1,1175.486,94.29Z" transform="translate(-1158.922 -60.874)" fill="#3a277b" fill-rule="evenodd"/>
          <path id="Trazado_132947" data-name="Trazado 132947" d="M1156.529,87.58c.515-2.761,1.042-5.523,1.533-8.286.1-.563.21-.828.9-.692q5.044,1,10.1,1.884c.662.116.723.363.61.949q-1.581,8.331-3.1,16.674c-.127.707-.357.872-1.065.728-3.26-.645-6.526-1.262-9.8-1.818-.815-.138-.874-.444-.733-1.154C1155.526,93.109,1156.014,90.343,1156.529,87.58Z" transform="translate(-1154.911 -64.878)" fill="#3a277b" fill-rule="evenodd"/>
        </g>
      </g>
      <g id="xsrjP0-2" data-name="xsrjP0" transform="translate(866.697 185.733)">
        <g id="Grupo_60871" data-name="Grupo 60871">
          <path id="Trazado_132948" data-name="Trazado 132948" d="M896.708,282.825c-.837-.414-1.6-1.061-2.639-.853-.4.081-.345-.262-.371-.482q-.616-5.945-1.222-11.885c-.029-.289-.036-.528.262-.718,2.87-1.835,3.875-4.972,5.467-7.727a11.907,11.907,0,0,0,1.277-9.215c-.217-.878.157-1.321.942-1.585a2,2,0,0,1,2.333.48,16.064,16.064,0,0,1,2.259,5.016c.328,1.485-.061,3-.1,4.509-.027,1.1-.17,2.2-.265,3.326.285.166.583.034.869.009q5.022-.5,10.042-1.022c1.411-.144,2.143.19,2.435,1.106a2.7,2.7,0,0,1-1.161,3.051c-.237.152-.7.084-.692.479s.473.314.72.452c1.3.707,1.247,2.444-.053,3.579-.313.271-.979.228-.944.724.033.4.644.329.949.578,1.076.867.775,2.721-.612,3.6a4.494,4.494,0,0,0-.565.287c-.155.129-.3.27.04.466,1.556.888,1.672,2.333.32,3.533-.133.118-.268.239-.4.358a2.841,2.841,0,0,1-1.723.566q-7.872.821-15.746,1.612A1.876,1.876,0,0,1,896.708,282.825Z" transform="translate(-880.269 -250.202)" fill="#f5ca56" fill-rule="evenodd"/>
          <path id="Trazado_132949" data-name="Trazado 132949" d="M877.5,282.579c-.257-2.517-.5-5.038-.781-7.551-.056-.512-.029-.768.6-.826q4.613-.414,9.21-.939c.6-.067.716.13.768.665q.751,7.6,1.557,15.2c.07.644-.087.844-.736.9-2.982.271-5.961.568-8.932.919-.74.087-.869-.162-.927-.812C878.04,287.612,877.76,285.1,877.5,282.579Z" transform="translate(-876.702 -255.418)" fill="#f5ca56" fill-rule="evenodd"/>
        </g>
      </g>
      <line id="Línea_278" data-name="Línea 278" x2="64.952" transform="translate(979.736 280.653)" fill="none" stroke="#5d6cf9" stroke-linecap="round" stroke-linejoin="round" stroke-width="1.088"/>
      <line id="Línea_279" data-name="Línea 279" x2="13.991" transform="translate(1050.521 280.653)" fill="none" stroke="#5d6cf9" stroke-linecap="round" stroke-linejoin="round" stroke-width="1.088"/>
      <line id="Línea_280" data-name="Línea 280" x2="71.379" transform="translate(962.317 284.709)" fill="none" stroke="#5d6cf9" stroke-linecap="round" stroke-linejoin="round" stroke-width="1.088"/>
      <line id="Línea_281" data-name="Línea 281" x2="6.918" transform="translate(1042.228 284.709)" fill="none" stroke="#5d6cf9" stroke-linecap="round" stroke-linejoin="round" stroke-width="1.088"/>
      <line id="Línea_282" data-name="Línea 282" x2="64.299" transform="translate(1017.645 2.936)" fill="none" stroke="#fff" stroke-miterlimit="10" stroke-width="1"/>
      <line id="Línea_283" data-name="Línea 283" x2="12.653" transform="translate(999.56 2.936)" fill="none" stroke="#fff" stroke-miterlimit="10" stroke-width="1"/>
      <line id="Línea_284" data-name="Línea 284" x2="64.299" transform="translate(997.937 -5.176)" fill="none" stroke="#fff" stroke-miterlimit="10" stroke-width="1"/>
      <line id="Línea_285" data-name="Línea 285" x2="12.653" transform="translate(979.851 -5.176)" fill="none" stroke="#fff" stroke-miterlimit="10" stroke-width="1"/>
      <line id="Línea_286" data-name="Línea 286" x2="39.207" transform="translate(1041.114 -17.615)" fill="none" stroke="#fff" stroke-miterlimit="10" stroke-width="1"/>
      <line id="Línea_287" data-name="Línea 287" x2="7.715" transform="translate(1030.086 -17.615)" fill="none" stroke="#fff" stroke-miterlimit="10" stroke-width="1"/>
      <path id="Trazado_132950" data-name="Trazado 132950" d="M1084.491,30.712H967.161a11.718,11.718,0,0,0-11.868,11.566V273.336A11.726,11.726,0,0,0,967.161,284.9h117.329a11.734,11.734,0,0,0,11.882-11.566V42.278A11.725,11.725,0,0,0,1084.491,30.712Zm4.463,235.48a10.818,10.818,0,0,1-10.633,11H973.352a10.821,10.821,0,0,1-10.647-11V51.035c0-12.389,4.76-12.993,10.647-12.993h21.023c1.222,0,2.221,1.328,2.221,2.975v.71c0,3.858,2.207,3.871,4.921,3.871h48.625c2.735,0,4.921-.013,4.921-3.871v-.71c0-1.646.985-2.975,2.228-2.975h21.03c5.872,0,10.633,1.646,10.633,12.993Z" transform="translate(-27.791 -14.796)" fill="#263238"/>
      <path id="Trazado_132951" data-name="Trazado 132951" d="M1050.916,43.266h-13.264a.8.8,0,0,1-.819-.784h0a.8.8,0,0,1,.819-.783h13.264a.8.8,0,0,1,.818.783h0A.8.8,0,0,1,1050.916,43.266Z" transform="translate(-46.244 -17.282)" fill="#fff"/>
      <line id="Línea_288" data-name="Línea 288" x1="0.396" transform="translate(934.518 237.759)" fill="none"/>
      <path id="Trazado_132952" data-name="Trazado 132952" d="M1091.124,53.179V268.336a10.819,10.819,0,0,1-10.633,11H975.523a10.822,10.822,0,0,1-10.647-11V53.179c0-12.389,4.761-12.993,10.647-12.993h21.023c1.222,0,2.221,1.328,2.221,2.975v.71c0,3.858,2.207,3.871,4.921,3.871h48.626c2.734,0,4.921-.013,4.921-3.871v-.71c0-1.646.986-2.975,2.227-2.975h21.031C1086.363,40.186,1091.124,41.832,1091.124,53.179Z" transform="translate(-29.96 -16.94)" fill="#63afe4"/>
      <g id="Grupo_60873" data-name="Grupo 60873" transform="translate(943.965 37.77)">
        <path id="Trazado_132953" data-name="Trazado 132953" d="M980.3,65.644l-3.73-3.343,3.73-3.343.579.59L977.809,62.3l3.072,2.754Z" transform="translate(-976.572 -58.958)" fill="#fff"/>
        <g id="Grupo_60872" data-name="Grupo 60872" transform="translate(106.69 1.261)">
          <path id="Trazado_132954" data-name="Trazado 132954" d="M1115.937,61.29a.735.735,0,1,1-.734-.7A.719.719,0,0,1,1115.937,61.29Z" transform="translate(-1114.469 -60.588)" fill="#fff"/>
          <path id="Trazado_132955" data-name="Trazado 132955" d="M1115.937,64.517a.735.735,0,1,1-.734-.7A.719.719,0,0,1,1115.937,64.517Z" transform="translate(-1114.469 -61.318)" fill="#fff"/>
          <path id="Trazado_132956" data-name="Trazado 132956" d="M1115.937,67.743a.735.735,0,1,1-.734-.7A.719.719,0,0,1,1115.937,67.743Z" transform="translate(-1114.469 -62.048)" fill="#fff"/>
        </g>
      </g>
      <g id="Grupo_60877" data-name="Grupo 60877" transform="translate(943.147 27.174)">
        <g id="u5Zjqx" transform="translate(15.259)">
          <g id="Grupo_60874" data-name="Grupo 60874">
            <path id="Trazado_132957" data-name="Trazado 132957" d="M999.789,46.167l-.2.193-.115.111a2.853,2.853,0,0,0-3.917,0l-.109-.109-.2-.193-.006,0v0l.015-.012c.085-.073.169-.148.257-.217a3.022,3.022,0,0,1,.594-.362,3.1,3.1,0,0,1,.788-.254c.13-.022.262-.034.393-.05.045-.005.336-.006.344-.005.09.006.18.01.268.019a3.17,3.17,0,0,1,.723.165,3.21,3.21,0,0,1,.488.219,3.084,3.084,0,0,1,.467.312c.073.06.143.123.214.185Z" transform="translate(-995.238 -45.263)" fill="#ffc727"/>
            <path id="Trazado_132958" data-name="Trazado 132958" d="M996.385,47.335l-.321-.3a2.3,2.3,0,0,1,1.307-.627,2.355,2.355,0,0,1,1.964.624l-.323.306a1.919,1.919,0,0,0-2.627,0Z" transform="translate(-995.425 -45.515)" fill="#ffc727"/>
            <path id="Trazado_132959" data-name="Trazado 132959" d="M998.88,47.894l-.32.306a.98.98,0,0,0-1.346,0l-.319-.3A1.439,1.439,0,0,1,998.88,47.894Z" transform="translate(-995.613 -45.769)" fill="#ffc727"/>
          </g>
          <path id="Trazado_132960" data-name="Trazado 132960" d="M998.382,48.682a.289.289,0,1,1-.289-.275A.283.283,0,0,1,998.382,48.682Z" transform="translate(-995.819 -45.974)" fill="#ffc727"/>
        </g>
        <g id="Grupo_60875" data-name="Grupo 60875" transform="translate(0 0.692)">
          <path id="Trazado_132961" data-name="Trazado 132961" d="M975.515,46.957a.838.838,0,1,1,.836.8A.819.819,0,0,1,975.515,46.957Z" transform="translate(-975.515 -46.157)" fill="#ffc727"/>
          <path id="Trazado_132962" data-name="Trazado 132962" d="M978.921,46.957a.838.838,0,1,1,.836.8A.819.819,0,0,1,978.921,46.957Z" transform="translate(-976.286 -46.157)" fill="#ffc727"/>
          <path id="Trazado_132963" data-name="Trazado 132963" d="M982.327,46.957a.838.838,0,1,1,.837.8A.819.819,0,0,1,982.327,46.957Z" transform="translate(-977.057 -46.157)" fill="#ffc727"/>
          <path id="Trazado_132964" data-name="Trazado 132964" d="M985.733,46.957a.838.838,0,1,1,.837.8A.82.82,0,0,1,985.733,46.957Z" transform="translate(-977.827 -46.157)" fill="#ffc727"/>
          <path id="Trazado_132965" data-name="Trazado 132965" d="M989.14,46.957a.837.837,0,1,1,.836.8A.819.819,0,0,1,989.14,46.957Z" transform="translate(-978.598 -46.157)" fill="#ffc727"/>
        </g>
        <g id="Grupo_60876" data-name="Grupo 60876" transform="translate(101.725 0.213)">
          <path id="Trazado_132966" data-name="Trazado 132966" d="M1113.824,48.572H1107V45.538h6.828Zm-6.465-.348h6.1V45.886h-6.1Z" transform="translate(-1106.996 -45.538)" fill="#ffc727"/>
          <rect id="Rectángulo_31385" data-name="Rectángulo 31385" width="4.391" height="1.993" transform="translate(0.573 0.521)" fill="#ffc727"/>
          <rect id="Rectángulo_31386" data-name="Rectángulo 31386" width="0.606" height="1.614" transform="translate(6.824 0.71)" fill="#ffc727"/>
        </g>
      </g>
      <path id="Trazado_132967" data-name="Trazado 132967" d="M1091.124,53.179V268.336a10.819,10.819,0,0,1-10.633,11H975.523a10.822,10.822,0,0,1-10.647-11V53.179c0-12.389,4.761-12.993,10.647-12.993h21.023c1.222,0,2.221,1.328,2.221,2.975v.71c0,3.858,2.207,3.871,4.921,3.871h48.626c2.734,0,4.921-.013,4.921-3.871v-.71c0-1.646.986-2.975,2.227-2.975h21.031C1086.363,40.186,1091.124,41.832,1091.124,53.179Z" transform="translate(-29.96 -16.94)" opacity="0.38"/>
      <g id="Grupo_60915" data-name="Grupo 60915" transform="translate(897.428 -8.074)">
        <g id="Grupo_60914" data-name="Grupo 60914" transform="translate(0 0)" clip-path="url(#clip-path)">
          <g id="Grupo_60913" data-name="Grupo 60913" transform="translate(17.309 12.825)">
            <g id="Grupo_60893" data-name="Grupo 60893">
              <g id="Grupo_60880" data-name="Grupo 60880" transform="translate(17.485)">
                <g id="Grupo_60878" data-name="Grupo 60878">
                  <path id="Trazado_132968" data-name="Trazado 132968" d="M1013.7,104.5a30.667,30.667,0,0,0-5.8-4.973c-5.759-3.938-16.526-12.267-27.691-21.1-3.736-21.468-7.228-43.357-7.42-44.561l.368-3.587c.752-4.113.8-10.44-1.432-13.977-.387-.614-3.284,10.264-4.222,9.929s-1.574-2.871-1.673-4.193a.48.48,0,0,0-.534-.453c-.544.063-1.316.4-1.3,1.79a24.937,24.937,0,0,0,1.824,10.575,111.055,111.055,0,0,0-4.4,29.453,149.973,149.973,0,0,0,.706,17.656A16.929,16.929,0,0,0,967.652,92,196.265,196.265,0,0,0,985.3,106.045c5.073,3.608,9.479,6.436,12.63,8.442,3.984,2.548,7.305,3.393,9.987,3.359A8.01,8.01,0,0,0,1013.7,104.5Z" transform="translate(-961.394 -16.282)" fill="#e39679"/>
                  <path id="Trazado_132969" data-name="Trazado 132969" d="M1023.582,132.266a9.315,9.315,0,0,1-5.932,7.089,11.7,11.7,0,0,1-9.952-.826l-4.62-2.584-13.611-7.637,14.52-15.543a80.112,80.112,0,0,1,12.825,8.381c.279.227.548.455.816.692a22.024,22.024,0,0,1,5.136,6.015A6.5,6.5,0,0,1,1023.582,132.266Z" transform="translate(-967.748 -38.117)" fill="#f8e5dd"/>
                </g>
                <g id="Grupo_60879" data-name="Grupo 60879" transform="translate(20.046 75.274)">
                  <path id="Trazado_132970" data-name="Trazado 132970" d="M1002.916,113.573,990.092,127.3l-2.788-2.068Z" transform="translate(-987.304 -113.573)" fill="#3d1525"/>
                </g>
              </g>
              <g id="Grupo_60888" data-name="Grupo 60888" transform="translate(50.781 75.677)">
                <g id="Grupo_60882" data-name="Grupo 60882">
                  <path id="Trazado_132971" data-name="Trazado 132971" d="M1016.838,180.974s-5.341-16.682-7.845-27.745-1.835-22.251,4.651-26.148,9.9-4.012,11.9-11.735l11.991-1.25s1.954,7.461,11.568,7.8a10.2,10.2,0,0,1,6.651,2.644c2.5,2.35,4.648,6.758,3.239,14.992-2.82,16.468-9.828,30.974-8.747,41.009Z" transform="translate(-1005.157 -114.095)" fill="#e39679"/>
                  <g id="Grupo_60881" data-name="Grupo 60881" transform="translate(0 6.153)">
                    <path id="Trazado_132972" data-name="Trazado 132972" d="M1016.121,195.005l-1.842-6.145s-5.227-.323-5.77,2.562C1008.508,191.422,1007.585,194.5,1016.121,195.005Z" transform="translate(-1005.347 -137.166)" fill="#efd3c7"/>
                    <path id="Trazado_132973" data-name="Trazado 132973" d="M1020.94,124.124s-5.188,6.278-4.068,8.172,24.9-8.784,26.185-10.248a10.213,10.213,0,0,0,4.388,1.214c1.981-.094,11.97,1.628,11.626,11.963,0,0-.057,8.952-4.134,21.943a93,93,0,0,0-4.221,23.959s-36.257-10.335-41.854-6.2c-4.678,3.455,6.342,4.962,6.342,4.962l.219.706s-8.714,1.653-10.522-4.548,2.239-16.363,1.378-25.922S1004.856,128.87,1020.94,124.124Z" transform="translate(-1004.43 -122.048)" fill="#f8e5dd"/>
                  </g>
                </g>
                <g id="Grupo_60883" data-name="Grupo 60883" transform="translate(3.316 7.352)">
                  <path id="Trazado_132974" data-name="Trazado 132974" d="M1021.985,124.289c-.124.083-.268.186-.444.3-2.739,1.9-10.748,7.9-11.8,13.579l-1.024-.186c.868-4.641,5.8-9.29,9.373-12.122,1.282-1,2.388-1.788,3.08-2.264C1021.449,123.824,1021.717,124.052,1021.985,124.289Z" transform="translate(-1008.716 -123.597)" fill="#3d1525"/>
                </g>
                <g id="Grupo_60886" data-name="Grupo 60886" transform="translate(15.444 39.957)">
                  <g id="Grupo_60884" data-name="Grupo 60884" transform="translate(0 1.049)">
                    <rect id="Rectángulo_31387" data-name="Rectángulo 31387" width="1.034" height="7.665" transform="translate(0 0.534) rotate(-31.115)" fill="#3d1525"/>
                  </g>
                  <g id="Grupo_60885" data-name="Grupo 60885" transform="translate(3.122)">
                    <rect id="Rectángulo_31388" data-name="Rectángulo 31388" width="1.033" height="10.682" transform="matrix(0.814, -0.58, 0.58, 0.814, 0, 0.6)" fill="#3d1525"/>
                  </g>
                </g>
                <g id="Grupo_60887" data-name="Grupo 60887" transform="translate(11.151 65.204)">
                  <path id="Trazado_132975" data-name="Trazado 132975" d="M1052.747,199.193l-33.375.854-.529-1.676Z" transform="translate(-1018.844 -198.371)" fill="#3d1525"/>
                </g>
              </g>
              <g id="Grupo_60892" data-name="Grupo 60892" transform="translate(0 69.08)">
                <g id="Grupo_60889" data-name="Grupo 60889">
                  <path id="Trazado_132976" data-name="Trazado 132976" d="M1034.965,122.946a30.63,30.63,0,0,0-7.423,1.808c-6.559,2.378-19.6,6.263-33.293,10.176-19.613-9.492-39.425-19.429-40.517-19.977l-2.7-2.391c-2.9-3.011-8.013-6.741-12.186-6.993-.724-.044,6.419,8.655,5.6,9.222s-3.25-.4-4.382-1.088a.479.479,0,0,0-.679.169c-.266.479-.445,1.3.693,2.1a25.006,25.006,0,0,0,9.643,4.677,111.1,111.1,0,0,0,21.363,20.769,150.008,150.008,0,0,0,14.75,9.729,16.926,16.926,0,0,0,12.107,1.9,196.554,196.554,0,0,0,21.7-6.134c5.89-2.015,10.758-3.943,14.225-5.331,4.394-1.749,7.018-3.953,8.555-6.151A8.01,8.01,0,0,0,1034.965,122.946Z" transform="translate(-938.795 -105.568)" fill="#e39679"/>
                  <path id="Trazado_132977" data-name="Trazado 132977" d="M1036.442,133.263l3.619,20.958,19.15-8.359a11.7,11.7,0,0,0,6.671-7.433,9.309,9.309,0,0,0-2.063-9.011C1058.134,122.787,1036.442,133.263,1036.442,133.263Z" transform="translate(-960.894 -110.468)" fill="#f8e5dd"/>
                </g>
                <g id="Grupo_60890" data-name="Grupo 60890" transform="translate(75.548 23.463)">
                  <path id="Trazado_132978" data-name="Trazado 132978" d="M1036.442,135.894l3.319,18.552-2.827.919Z" transform="translate(-1036.442 -135.894)" fill="#3d1525"/>
                </g>
                <g id="Grupo_60891" data-name="Grupo 60891" transform="translate(77.672 33.39)">
                  <path id="Trazado_132979" data-name="Trazado 132979" d="M1041.069,160.329l-1.882-2.914.867-.561,1.421,2.2c2.688-1.089,18.253-7.475,20.739-10.329l.779.679c-2.872,3.3-20.769,10.465-21.529,10.768Z" transform="translate(-1039.187 -148.724)" fill="#3d1525"/>
                </g>
              </g>
            </g>
            <g id="Grupo_60904" data-name="Grupo 60904" transform="translate(47.876 26.694)">
              <path id="Trazado_132980" data-name="Trazado 132980" d="M1057.385,82.3a9.346,9.346,0,0,0-2.537,1.014A7.322,7.322,0,0,0,1052.822,85l-.458-.566a8.483,8.483,0,0,1,2.168-.846,3.258,3.258,0,0,1,1.252-.057,1.416,1.416,0,0,1,1.083.875,2.127,2.127,0,0,1-.612,2.331,3.091,3.091,0,0,1-2.1.857,3.331,3.331,0,0,0,1.773-1.153,1.671,1.671,0,0,0,.32-1.764c-.2-.508-.876-.494-1.551-.343a9.479,9.479,0,0,0-1.979.749l-.019.01a.368.368,0,0,1-.439-.576,6.71,6.71,0,0,1,2.36-1.667A6.875,6.875,0,0,1,1057.385,82.3Z" transform="translate(-1012.328 -57.916)" fill="#3d1525"/>
              <path id="Trazado_132981" data-name="Trazado 132981" d="M1051.1,77.055a3.549,3.549,0,0,0-4-2.508,2.973,2.973,0,0,0-.514.21c.236-5.7-.6-11.95-4.559-15.395-8.528-7.415-20.764-4.82-23.359,1.855-2.017,5.183-2.737,11.2-2.952,17.071-.1,2.5-.1,4.976-.074,7.342,0,.251.008.5.008.741a9.658,9.658,0,0,0,.4,3.13c1.349,3.834,6.815,6.2,10.507,6.963a15.576,15.576,0,0,0,13.252-3.352,17.227,17.227,0,0,0,5.682-9.666,7.577,7.577,0,0,0,2.311-.23,5.91,5.91,0,0,0,2.689-2.246A4.7,4.7,0,0,0,1051.1,77.055Z" transform="translate(-1004.06 -51.71)" fill="#e39679"/>
              <g id="Grupo_60901" data-name="Grupo 60901" transform="translate(11.571 14.495)">
                <g id="Grupo_60894" data-name="Grupo 60894" transform="translate(0 11.97)">
                  <path id="Trazado_132982" data-name="Trazado 132982" d="M1015.647,92.444a3.856,3.856,0,0,0,.972.126,3.79,3.79,0,1,0,0-7.579,3.583,3.583,0,0,0-.9.111C1015.625,87.6,1015.617,90.078,1015.647,92.444Z" transform="translate(-1015.631 -84.99)" fill="#e08766"/>
                  <path id="Trazado_132983" data-name="Trazado 132983" d="M1043.977,88.782a3.791,3.791,0,1,1-3.791-3.792A3.791,3.791,0,0,1,1043.977,88.782Z" transform="translate(-1020.33 -84.99)" fill="#e08766"/>
                </g>
                <g id="Grupo_60897" data-name="Grupo 60897" transform="translate(3.429 5.263)">
                  <g id="Grupo_60895" data-name="Grupo 60895" transform="translate(0 0)">
                    <path id="Trazado_132984" data-name="Trazado 132984" d="M1023.746,79.726c0,1.238-.491,2.241-1.095,2.241s-1.095-1-1.095-2.241.49-2.242,1.095-2.242S1023.746,78.488,1023.746,79.726Z" transform="translate(-1020.401 -76.585)" fill="#3d1525"/>
                    <path id="Trazado_132985" data-name="Trazado 132985" d="M1020.078,76.512a3.2,3.2,0,0,0,.741.956,2.6,2.6,0,0,0,1.146.593l.018,0a.405.405,0,0,0,.182-.79.388.388,0,0,0-.107-.01,2.365,2.365,0,0,1-1.756-.889l-.008-.009a.131.131,0,0,0-.216.145Z" transform="translate(-1020.063 -76.322)" fill="#3d1525"/>
                  </g>
                  <g id="Grupo_60896" data-name="Grupo 60896" transform="translate(10.638)">
                    <path id="Trazado_132986" data-name="Trazado 132986" d="M1033.813,79.726c0,1.238.49,2.241,1.095,2.241s1.095-1,1.095-2.241-.49-2.242-1.095-2.242S1033.813,78.488,1033.813,79.726Z" transform="translate(-1033.813 -76.585)" fill="#3d1525"/>
                    <path id="Trazado_132987" data-name="Trazado 132987" d="M1037.191,76.377a2.365,2.365,0,0,1-1.756.889.405.405,0,0,0-.032.81.423.423,0,0,0,.1-.009l.021-.005a2.6,2.6,0,0,0,1.146-.593,3.2,3.2,0,0,0,.74-.956.131.131,0,0,0-.216-.145Z" transform="translate(-1034.085 -76.322)" fill="#3d1525"/>
                  </g>
                </g>
                <g id="Grupo_60898" data-name="Grupo 60898" transform="translate(6.309 15.186)">
                  <path id="Trazado_132988" data-name="Trazado 132988" d="M1023.786,89.147a5.365,5.365,0,0,0,1.651,1.877,4.177,4.177,0,0,0,2.451.813,4.241,4.241,0,0,0,2.439-.842,7.983,7.983,0,0,0,.945-.841c.258-.332.509-.664.735-1.007-.338.248-.647.511-.957.767-.344.21-.652.467-1,.642a4.524,4.524,0,0,1-2.165.616,4.418,4.418,0,0,1-2.174-.587A9.416,9.416,0,0,1,1023.786,89.147Z" transform="translate(-1023.786 -89.147)" fill="#3d1525"/>
                  <path id="Trazado_132989" data-name="Trazado 132989" d="M1027.609,94.284a1.8,1.8,0,0,0,1.153.391,1.884,1.884,0,0,0,1.153-.391,5.94,5.94,0,0,1-1.154.129A4.939,4.939,0,0,1,1027.609,94.284Z" transform="translate(-1024.651 -90.31)" fill="#3d1525"/>
                </g>
                <g id="Grupo_60900" data-name="Grupo 60900" transform="translate(1.437)">
                  <g id="Grupo_60899" data-name="Grupo 60899">
                    <path id="Trazado_132990" data-name="Trazado 132990" d="M1032.582,70.149a2.6,2.6,0,0,1,1.7-.628,5.237,5.237,0,0,1,1.807.256,4.407,4.407,0,0,1,1.591.911,4.626,4.626,0,0,1,1.086,1.393.524.524,0,0,1-.812.641l-.044-.041a6.518,6.518,0,0,0-1.082-.859,3.816,3.816,0,0,0-1.194-.491,4.638,4.638,0,0,0-1.294-.125,4.952,4.952,0,0,1-1.383-.08l-.139-.034a.549.549,0,0,1-.234-.943Z" transform="translate(-1020.863 -69.519)" fill="#883c0e"/>
                    <path id="Trazado_132991" data-name="Trazado 132991" d="M1023.736,70.149a2.6,2.6,0,0,0-1.7-.628,5.237,5.237,0,0,0-1.807.256,4.407,4.407,0,0,0-1.591.911,4.624,4.624,0,0,0-1.086,1.393.524.524,0,0,0,.812.641l.044-.041a6.491,6.491,0,0,1,1.082-.859,3.815,3.815,0,0,1,1.194-.491,4.639,4.639,0,0,1,1.294-.125,4.953,4.953,0,0,0,1.383-.08l.138-.034a.549.549,0,0,0,.234-.943Z" transform="translate(-1017.488 -69.519)" fill="#883c0e"/>
                  </g>
                </g>
                <path id="Trazado_132992" data-name="Trazado 132992" d="M1028.356,75.955c-.193.845-.336,1.684-.492,2.514s-.315,1.656-.551,2.441c-.054.2-.115.391-.186.578a2.073,2.073,0,0,0-.19.723,1.456,1.456,0,0,0,.785,1.329,1.765,1.765,0,0,0,1.43.077,3.48,3.48,0,0,0,1.131-.677c-.786.3-1.7.526-2.257.108a.865.865,0,0,1-.388-.8,1.6,1.6,0,0,1,.164-.5q.127-.315.222-.633a11.907,11.907,0,0,0,.411-2.579A13.691,13.691,0,0,0,1028.356,75.955Z" transform="translate(-1018.19 -70.975)" fill="#3d1525"/>
                <path id="Trazado_132993" data-name="Trazado 132993" d="M1057.385,82.3a9.346,9.346,0,0,0-2.537,1.014A7.322,7.322,0,0,0,1052.822,85l-.458-.566a8.483,8.483,0,0,1,2.168-.846,3.258,3.258,0,0,1,1.252-.057,1.416,1.416,0,0,1,1.083.875,2.127,2.127,0,0,1-.612,2.331,3.091,3.091,0,0,1-2.1.857,3.331,3.331,0,0,0,1.773-1.153,1.671,1.671,0,0,0,.32-1.764c-.2-.508-.876-.494-1.551-.343a9.479,9.479,0,0,0-1.979.749l-.019.01a.368.368,0,0,1-.439-.576,6.71,6.71,0,0,1,2.36-1.667A6.875,6.875,0,0,1,1057.385,82.3Z" transform="translate(-1023.899 -72.411)" fill="#3d1525"/>
              </g>
              <g id="Grupo_60902" data-name="Grupo 60902" transform="translate(20.545 31.331)">
                <path id="Trazado_132994" data-name="Trazado 132994" d="M1047.127,115.085c-2.929-7.416.726-21.7,1.052-23.613.015-.067.022-.126.037-.193l-19.874,11.175a5.262,5.262,0,0,1,.6,2.187v.008a24.215,24.215,0,0,1-.43,6.08,56.707,56.707,0,0,1-1.283,5.569Z" transform="translate(-1027.23 -91.279)" fill="#e39679"/>
                <path id="Trazado_132995" data-name="Trazado 132995" d="M1028.888,112.9c10.8,1.365,16.278-11.539,16.477-12.02a12.746,12.746,0,0,1-7.712,5.532,21.171,21.171,0,0,1-8.268.422c-.022-.008-.044-.008-.067-.015A24.215,24.215,0,0,1,1028.888,112.9Z" transform="translate(-1027.605 -93.452)" fill="#3d1525"/>
              </g>
              <g id="Grupo_60903" data-name="Grupo 60903">
                <path id="Trazado_132996" data-name="Trazado 132996" d="M1042.17,82.307s-8.777,14.63-7.581,16.409,5.389-1.593,7.046-2.016,9.8-.016,10.05-8.994-2.135-38.5-16.348-33.269c0,0-2.45-6.265-13.014-2.388s-9.751,9.718-13.548,15.808-13.761,18.312-3.806,23.375c0,0-2.9,2.093-.7,4.1s15.284,5.923,18.623,3.414a17.438,17.438,0,0,0,.044-3.264s-7.644-1.648-10.023-6.324c0,0-.663-.8-.583-11.524,0,0,.528-9.088,1.53-12.629,0,0,11.776-1.192,16.886-4.164s5.925,2.429,4.959,5.716c-2.456,8.357,1.505,11.664,4.477,9.011,0,0,3.508-3.071,5.823-1.568,2.134,1.386,2.724,4.173.409,6.843a4.714,4.714,0,0,1-2.021,1.413A3.536,3.536,0,0,1,1042.17,82.307Z" transform="translate(-1000.675 -50.784)" fill="#883c0e"/>
              </g>
            </g>
            <g id="Grupo_60912" data-name="Grupo 60912" transform="translate(9.919 141.702)">
              <g id="Grupo_60908" data-name="Grupo 60908" transform="translate(62.088 20.233)">
                <path id="Trazado_132997" data-name="Trazado 132997" d="M1137.508,358.427c-.823-1.432-5.834-4.81-8.838-6.747h0l-52.186-55.586-9.98-64.85h-30.566c.177,2.01.368,4.067.583,6.206a178.85,178.85,0,0,0,3.964,20.3c2.644,11.161,6.32,24.955,10.269,39.119a44.947,44.947,0,0,0,14.62,22.527c5.735,4.755,12.48,10.334,16.828,13.889,19.544,15.957,35.649,28.741,37.018,29.827l-.144.2s-3.9,12.552-11.417,17.025a1.338,1.338,0,0,0-.691,1.177,1.868,1.868,0,0,0,1.648,1.814,1.3,1.3,0,0,0,1.1-.258l27.136-21.3A2.6,2.6,0,0,0,1137.508,358.427Z" transform="translate(-1032.787 -226.865)" fill="#db8d70"/>
                <path id="Trazado_132998" data-name="Trazado 132998" d="M1134.918,395.709l2.36,2.677-12.35,20.245a1.117,1.117,0,0,0,1.078,1.692h0a1.115,1.115,0,0,0,.545-.216l31.3-23.427a3.454,3.454,0,0,0,.581-5.027l-6.769-7.928Z" transform="translate(-1052.889 -261.373)" fill="#3d1525"/>
                <g id="Grupo_60907" data-name="Grupo 60907">
                  <path id="Trazado_132999" data-name="Trazado 132999" d="M1031.865,229.964s12.143,67.691,19.377,77.508,60.973,52.448,60.973,52.448l12.66-15.373-48.314-51.284-10.076-65.883S1035.224,221.955,1031.865,229.964Z" transform="translate(-1031.865 -225.584)" fill="#b9cadb"/>
                  <g id="Grupo_60905" data-name="Grupo 60905" transform="translate(7 20.467)">
                    <path id="Trazado_133000" data-name="Trazado 133000" d="M1040.913,271.134s21.533-2.75,30.476-19.1c0,0-3.657,16.558-29.48,23.617Z" transform="translate(-1040.913 -252.038)" fill="#3d1525"/>
                  </g>
                  <g id="Grupo_60906" data-name="Grupo 60906" transform="translate(23.32 40.896)">
                    <path id="Trazado_133001" data-name="Trazado 133001" d="M1121.963,360.283l-1.51-1.36.692-.767,1.51,1.361Zm-5.35-4.819L1112.774,352l.693-.768,3.839,3.46Zm-7.677-6.918-3.839-3.458.692-.767,3.838,3.458Zm-7.677-6.917-3.84-3.458.692-.768,3.839,3.458Zm-7.679-6.918-3.838-3.458.692-.767,3.838,3.458Zm-7.677-6.917-3.839-3.459.691-.767,3.839,3.458Zm-7.678-6.918-3.839-3.458.692-.767,3.838,3.459Zm-7.437-7.288a25.376,25.376,0,0,1-2.737-4.5l.934-.442a24.358,24.358,0,0,0,2.627,4.313Zm-4.485-9.464q-.205-.859-.349-1.731l-.563-3.391,1.02-.169.562,3.391q.138.838.335,1.66Zm-1.758-10.22-.846-5.1,1.02-.169.846,5.1Zm-1.692-10.195-.846-5.1,1.02-.169.846,5.1Z" transform="translate(-1062.006 -278.443)" fill="#3d1525"/>
                  </g>
                </g>
              </g>
              <g id="Grupo_60911" data-name="Grupo 60911">
                <path id="Trazado_133002" data-name="Trazado 133002" d="M1053.2,224.771c-3.383-14.487-15.017-25.338-15.017-25.338-33.495,12.453-65.091,36.644-78.981,48.127a13.041,13.041,0,0,0-3.554,15.466c12.952,28.4,39.311,69.928,42.6,75.071v0s-5.33,12.014-13.316,15.584a1.339,1.339,0,0,0-.823,1.089,1.868,1.868,0,0,0,1.427,1.994,1.305,1.305,0,0,0,1.123-.129l29.424-18a2.6,2.6,0,0,0,1.037-3.245,21.143,21.143,0,0,0-5.307-7.191c-1.58-3.425-24.2-52.508-27.314-61.166-.3-.83,1.513-1.373,1.986-1.568a57.3,57.3,0,0,1,10.018-2.925q2.763-.483,5.472-1.044a239.018,239.018,0,0,0,37.894-11.438A21.855,21.855,0,0,0,1053.2,224.771Z" transform="translate(-952.26 -199.433)" fill="#e39679"/>
                <path id="Trazado_133003" data-name="Trazado 133003" d="M1001.312,371.291l2.412,4.262-14.535,18.739a1.117,1.117,0,0,0,.883,1.8h0a1.115,1.115,0,0,0,.565-.153l33.721-19.782a3.454,3.454,0,0,0,1.139-4.93l-5.841-8.635Z" transform="translate(-960.065 -236.358)" fill="#3d1525"/>
                <g id="Grupo_60910" data-name="Grupo 60910">
                  <path id="Trazado_133004" data-name="Trazado 133004" d="M1001.13,200.287l37.806-.854s20.238,20.769,13.65,37.611-24.544,21.88-67.045,29.76l24.286,55.677L991.742,331.4,953.974,265.89a17.641,17.641,0,0,1-1.824-13.121h0a17.641,17.641,0,0,1,7.376-10.408l32.782-21.685a10.992,10.992,0,0,0,4.453-5.976Z" transform="translate(-951.615 -199.433)" fill="#b9cadb"/>
                  <g id="Grupo_60909" data-name="Grupo 60909" transform="translate(19.288 5.752)">
                    <path id="Trazado_133005" data-name="Trazado 133005" d="M1004.244,325.929l-26.851-58.677a9.282,9.282,0,0,1,4.769-12.388l43.513-18.741a18.389,18.389,0,0,0,11.124-16.9v-12.35h1.034v12.35a19.422,19.422,0,0,1-11.749,17.853L982.57,255.812a8.25,8.25,0,0,0-4.238,11.01l26.851,58.677Z" transform="translate(-976.545 -206.867)" fill="#3d1525"/>
                  </g>
                </g>
              </g>
            </g>
          </g>
        </g>
      </g>
      <g id="Grupo_60929" data-name="Grupo 60929" transform="translate(936.516 81.936)">
        <text id="Home" transform="translate(14.693 162.838)" fill="#fff" font-size="2" font-family="Montserrat-Regular, Montserrat"><tspan x="-3.107" y="0">Home</tspan></text>
        <text id="Discover" transform="translate(36.775 162.838)" fill="#fff" font-size="2" font-family="Montserrat-Regular, Montserrat"><tspan x="-4.282" y="0">Discover</tspan></text>
        <text id="Inbox" transform="translate(81.034 162.838)" fill="#fff" font-size="2" font-family="Montserrat-Regular, Montserrat"><tspan x="-2.799" y="0">Inbox</tspan></text>
        <text id="Me" transform="translate(102.438 161.838)" fill="#fff" font-size="1" font-family="Montserrat-Regular, Montserrat"><tspan x="-0.78" y="0">Me</tspan></text>
        <path id="Trazado_133007" data-name="Trazado 133007" d="M990.847,313.647l-4.737-4.74a1.064,1.064,0,0,0-1.506,0l-4.736,4.74a1.063,1.063,0,0,0,.754,1.815h.671V320.2h2.484v-3.2a1.587,1.587,0,0,1,1.581-1.58h0a1.587,1.587,0,0,1,1.58,1.58v3.2h2.486v-4.742h.672A1.063,1.063,0,0,0,990.847,313.647Z" transform="translate(-969.798 -159.62)" fill="none" stroke="#fff" stroke-linecap="round" stroke-linejoin="round" stroke-width="1.088"/>
        <g id="Grupo_60916" data-name="Grupo 60916" transform="translate(31.612 148.977)">
          <circle id="Elipse_4568" data-name="Elipse 4568" cx="4.685" cy="4.685" r="4.685" transform="translate(2.237)" fill="none" stroke="#fff" stroke-linecap="round" stroke-linejoin="round" stroke-width="1.088"/>
          <path id="Trazado_133008" data-name="Trazado 133008" d="M1013.517,312.175a2.973,2.973,0,0,1,4.559-.54" transform="translate(-1009.096 -309.098)" fill="none" stroke="#fff" stroke-linecap="round" stroke-linejoin="round" stroke-width="1.088"/>
          <path id="Trazado_133009" data-name="Trazado 133009" d="M1010.852,318.058l-2.792,2.792a.876.876,0,1,0,1.239,1.239l2.792-2.792A4.715,4.715,0,0,1,1010.852,318.058Z" transform="translate(-1007.803 -310.738)" fill="none" stroke="#fff" stroke-linecap="round" stroke-linejoin="round" stroke-width="1.088"/>
        </g>
        <path id="Trazado_133010" data-name="Trazado 133010" d="M1071.4,308.6h-2.586a4.524,4.524,0,0,0-4.511,4.511v.373a4.523,4.523,0,0,0,4.511,4.511h.149l1.144,2.214,1.144-2.214h.149a4.524,4.524,0,0,0,4.511-4.511v-.373A4.524,4.524,0,0,0,1071.4,308.6Z" transform="translate(-988.978 -159.62)" fill="none" stroke="#fff" stroke-linecap="round" stroke-linejoin="round" stroke-width="1.088"/>
        <line id="Línea_289" data-name="Línea 289" x2="6.798" transform="translate(77.729 152.716)" fill="none" stroke="#fff" stroke-linecap="round" stroke-linejoin="round" stroke-width="1.088"/>
        <line id="Línea_290" data-name="Línea 290" x2="6.798" transform="translate(77.729 154.69)" fill="none" stroke="#fff" stroke-linecap="round" stroke-linejoin="round" stroke-width="1.088"/>
        <g id="Grupo_60917" data-name="Grupo 60917" transform="translate(97.18 148.977)">
          <path id="Trazado_133011" data-name="Trazado 133011" d="M1101.982,311.324a2.728,2.728,0,1,1-2.728-2.727A2.728,2.728,0,0,1,1101.982,311.324Z" transform="translate(-1093.45 -308.597)" fill="none" stroke="#fff" stroke-linecap="round" stroke-linejoin="round" stroke-width="1.088"/>
          <path id="Trazado_133012" data-name="Trazado 133012" d="M1104.159,320.063v2.074H1092.55v-2.074a3.191,3.191,0,0,1,3.384-2.928h4.843A3.191,3.191,0,0,1,1104.159,320.063Z" transform="translate(-1092.55 -310.529)" fill="none" stroke="#fff" stroke-linecap="round" stroke-linejoin="round" stroke-width="1.088"/>
        </g>
        <circle id="Elipse_4569" data-name="Elipse 4569" cx="5.804" cy="5.804" r="5.804" transform="translate(52.616 159.583) rotate(-80.808)" fill="none" stroke="#fff" stroke-linecap="round" stroke-linejoin="round" stroke-width="1.088"/>
        <g id="Grupo_60918" data-name="Grupo 60918" transform="translate(56.994 152.503)">
          <line id="Línea_291" data-name="Línea 291" y2="4.556" transform="translate(2.278)" fill="none" stroke="#fff" stroke-linecap="round" stroke-linejoin="round" stroke-width="1.088"/>
          <line id="Línea_292" data-name="Línea 292" x1="4.556" transform="translate(0 2.278)" fill="none" stroke="#fff" stroke-linecap="round" stroke-linejoin="round" stroke-width="1.088"/>
        </g>
        <path id="Trazado_133013" data-name="Trazado 133013" d="M1037.455,307.04a7.959,7.959,0,0,0,0,14.017" transform="translate(-981.954 -159.268)" fill="none" stroke="#cc3f57" stroke-linecap="round" stroke-linejoin="round" stroke-width="1.088"/>
        <path id="Trazado_133014" data-name="Trazado 133014" d="M1048.428,321.057a7.959,7.959,0,0,0,0-14.017" transform="translate(-985.385 -159.268)" fill="none" stroke="#5d6cf9" stroke-linecap="round" stroke-linejoin="round" stroke-width="1.088"/>
        <line id="Línea_293" data-name="Línea 293" x2="123.047" transform="translate(0 139.85)" fill="none" stroke="#fff" stroke-linecap="round" stroke-linejoin="round" stroke-width="1.082"/>
        <g id="Grupo_60919" data-name="Grupo 60919" transform="translate(105.874 29.782)">
          <text id="_669" data-name="669" transform="translate(5.467 13.831)" fill="#fff" font-size="2" font-family="Montserrat-Regular, Montserrat"><tspan x="-1.827" y="0">669</tspan></text>
          <path id="Trazado_133015" data-name="Trazado 133015" d="M1115.363,157.672a20.135,20.135,0,0,1-8.44-3.135,3.135,3.135,0,0,0-3.135,3.135h0s0,.046.006.127a3.121,3.121,0,0,0,.1.674c.275,1.31,1.256,4.056,4.759,6.925q.436.36.921.716c.326-.239.633-.476.924-.718,3.481-2.85,4.47-5.581,4.751-6.9A3.107,3.107,0,0,0,1115.363,157.672Z" transform="translate(-1103.788 -154.537)" fill="none" stroke="#cc3f57" stroke-linecap="round" stroke-linejoin="round" stroke-width="1.088"/>
          <line id="Línea_294" data-name="Línea 294" x1="1.171" y2="2.25" transform="translate(4.616 1.469)" fill="none" stroke="#cc3f57" stroke-linecap="round" stroke-linejoin="round" stroke-width="1.088"/>
        </g>
        <g id="Grupo_60921" data-name="Grupo 60921" transform="translate(105.858 59.503)">
          <text id="_669-2" data-name="669" transform="translate(5.483 13.862)" fill="#fff" font-size="2" font-family="Montserrat-Regular, Montserrat"><tspan x="-1.827" y="0">669</tspan></text>
          <path id="Trazado_133016" data-name="Trazado 133016" d="M1113.509,201.375a4.527,4.527,0,0,0,1.865-3.567c0-2.682-2.6-4.857-5.8-4.857s-5.8,2.175-5.8,4.857,2.6,4.858,5.8,4.858a6.87,6.87,0,0,0,1.63-.2,6.528,6.528,0,0,0,4.175,2.089A6.8,6.8,0,0,1,1113.509,201.375Z" transform="translate(-1103.767 -192.951)" fill="none" stroke="#fff" stroke-linecap="round" stroke-linejoin="round" stroke-width="1.088"/>
          <g id="Grupo_60920" data-name="Grupo 60920" transform="translate(2.641 5.283)">
            <line id="Línea_295" data-name="Línea 295" x2="0.645" fill="none" stroke="#fff" stroke-linecap="round" stroke-linejoin="round" stroke-width="1.088"/>
            <line id="Línea_296" data-name="Línea 296" x2="0.645" transform="translate(2.84)" fill="none" stroke="#fff" stroke-linecap="round" stroke-linejoin="round" stroke-width="1.088"/>
            <line id="Línea_297" data-name="Línea 297" x2="0.645" transform="translate(5.68)" fill="none" stroke="#fff" stroke-linecap="round" stroke-linejoin="round" stroke-width="1.088"/>
          </g>
        </g>
        <g id="Grupo_60923" data-name="Grupo 60923" transform="translate(104.721 117.87)">
          <circle id="Elipse_4570" data-name="Elipse 4570" cx="5.804" cy="5.804" r="5.804" transform="matrix(0.22, -0.975, 0.975, 0.22, 0, 11.322)" fill="none" stroke="#fff" stroke-linecap="round" stroke-linejoin="round" stroke-width="1.088"/>
          <path id="Trazado_133017" data-name="Trazado 133017" d="M1113.737,276.34a3.49,3.49,0,1,1-3.49-3.489A3.489,3.489,0,0,1,1113.737,276.34Z" transform="translate(-1103.307 -269.4)" fill="none" stroke="#cc3f57" stroke-linecap="round" stroke-linejoin="round" stroke-width="1.088"/>
          <g id="Grupo_60922" data-name="Grupo 60922" transform="translate(5.407 5.15)">
            <ellipse id="Elipse_4571" data-name="Elipse 4571" cx="0.795" cy="0.578" rx="0.795" ry="0.578" transform="translate(0 2.425)" fill="none" stroke="#fff" stroke-linecap="round" stroke-linejoin="round" stroke-width="1.088"/>
            <path id="Trazado_133018" data-name="Trazado 133018" d="M1111.341,278.05v-3h1.477" transform="translate(-1109.751 -275.047)" fill="none" stroke="#fff" stroke-linecap="round" stroke-linejoin="round" stroke-width="1.088"/>
            <line id="Línea_298" data-name="Línea 298" x1="1.348" transform="translate(1.719 0.867)" fill="none" stroke="#fff" stroke-linecap="round" stroke-linejoin="round" stroke-width="1.088"/>
          </g>
        </g>
        <g id="Grupo_60924" data-name="Grupo 60924" transform="translate(105.858 89.255)">
          <text id="Share" transform="translate(5.71 13.861)" fill="#fff" font-size="2" font-family="Montserrat-Regular, Montserrat"><tspan x="-2.874" y="0">Share</tspan></text>
          <path id="Trazado_133019" data-name="Trazado 133019" d="M1111.343,235.124h-3.779a4.111,4.111,0,0,0-3.8,4.365h0a4.112,4.112,0,0,0,3.8,4.366h1.718" transform="translate(-1103.767 -232.247)" fill="none" stroke="#fff" stroke-linecap="round" stroke-linejoin="round" stroke-width="1.088"/>
          <path id="Trazado_133020" data-name="Trazado 133020" d="M1113.559,231.406l4.031,2.877-4.031,2.877Z" transform="translate(-1105.983 -231.406)" fill="none" stroke="#fff" stroke-linecap="round" stroke-linejoin="round" stroke-width="1.088"/>
        </g>
        <g id="Grupo_60926" data-name="Grupo 60926" transform="translate(105.858 0)">
          <path id="Trazado_133021" data-name="Trazado 133021" d="M1109.57,116.043a5.8,5.8,0,0,0-2.295,11.135,2.344,2.344,0,0,1,4.59,0,5.8,5.8,0,0,0-2.3-11.135Z" transform="translate(-1103.767 -116.043)" fill="none" stroke="#5d6cf9" stroke-linecap="round" stroke-linejoin="round" stroke-width="1.088"/>
          <path id="Trazado_133022" data-name="Trazado 133022" d="M1112.925,130.361a2.343,2.343,0,1,1-2.343-2.343A2.343,2.343,0,0,1,1112.925,130.361Z" transform="translate(-1104.779 -118.753)" fill="none" stroke="#cc3f57" stroke-linecap="round" stroke-linejoin="round" stroke-width="1.088"/>
          <g id="Grupo_60925" data-name="Grupo 60925" transform="translate(4.836 10.64)">
            <line id="Línea_299" data-name="Línea 299" y2="1.936" transform="translate(0.968)" fill="none" stroke="#fff" stroke-linecap="round" stroke-linejoin="round" stroke-width="1.088"/>
            <line id="Línea_300" data-name="Línea 300" x1="1.936" transform="translate(0 0.968)" fill="none" stroke="#fff" stroke-linecap="round" stroke-linejoin="round" stroke-width="1.088"/>
          </g>
        </g>
        <g id="Grupo_60927" data-name="Grupo 60927" transform="translate(8.964 86.958)">
          <rect id="Rectángulo_31389" data-name="Rectángulo 31389" width="15.366" height="6.06" rx="2.155" fill="#cc3f57"/>
          <text id="HOT" transform="translate(3.706 3.328)" fill="#fff" font-size="3" font-family="Montserrat-Light, Montserrat" font-weight="300"><tspan x="0" y="0">HOT</tspan></text>
        </g>
        <text id="see_translation" data-name="see translation" transform="translate(8.965 119.41)" fill="#fff" font-size="4" font-family="Montserrat-Light, Montserrat" font-weight="300"><tspan x="0" y="0">see translation</tspan></text>
        <text id="original_sound" data-name="original sound" transform="translate(13.943 128.996)" fill="#fff" font-size="4" font-family="Montserrat-Light, Montserrat" font-weight="300"><tspan x="0" y="0">original sound</tspan></text>
        <path id="Rectángulo_31390" data-name="Rectángulo 31390" d="M2.57,0H31.351a2.57,2.57,0,0,1,2.57,2.57V5.144a2.569,2.569,0,0,1-2.569,2.569H2.57A2.57,2.57,0,0,1,0,5.144V2.57A2.57,2.57,0,0,1,2.57,0Z" transform="translate(8.964 95.884)" fill="#363636"/>
        <text id="_username_._5_minutes_ago" data-name="@username  .  5 minutes ago" transform="translate(8.965 109.823)" fill="#fff" font-size="4" font-family="Montserrat-Light, Montserrat" font-weight="300"><tspan x="0" y="0" xml:space="preserve">@username  </tspan><tspan y="0" xml:space="preserve" fill="#979797">.  5 minutes ago</tspan></text>
        <text id="_hashtag" data-name="#hashtag" transform="translate(15.107 100.236)" fill="#fff" font-size="4" font-family="Montserrat-Light, Montserrat" font-weight="300"><tspan x="0" y="0">#hashtag</tspan></text>
        <g id="Grupo_60928" data-name="Grupo 60928" transform="translate(8.964 126.445)">
          <path id="Trazado_133023" data-name="Trazado 133023" d="M980.12,283.186c0,.32-.356.578-.795.578s-.8-.258-.8-.578.356-.578.8-.578S980.12,282.866,980.12,283.186Z" transform="translate(-978.53 -280.183)" fill="none" stroke="#fff" stroke-linecap="round" stroke-linejoin="round" stroke-width="0.75"/>
          <path id="Trazado_133024" data-name="Trazado 133024" d="M980.585,282.477v-3h1.477" transform="translate(-978.995 -279.474)" fill="none" stroke="#fff" stroke-linecap="round" stroke-linejoin="round" stroke-width="0.75"/>
          <line id="Línea_301" data-name="Línea 301" x1="1.348" transform="translate(1.719 0.867)" fill="none" stroke="#fff" stroke-linecap="round" stroke-linejoin="round" stroke-width="0.75"/>
        </g>
      </g>
      <line id="Línea_302" data-name="Línea 302" x2="40.987" transform="translate(852.626 95.886)" fill="none" stroke="#cc3f57" stroke-linecap="round" stroke-linejoin="round" stroke-width="1.088"/>
      <line id="Línea_303" data-name="Línea 303" x2="12.827" transform="translate(899.322 95.886)" fill="none" stroke="#cc3f57" stroke-linecap="round" stroke-linejoin="round" stroke-width="1.088"/>
      <line id="Línea_304" data-name="Línea 304" x2="40.987" transform="translate(832.491 91.201)" fill="none" stroke="#cc3f57" stroke-linecap="round" stroke-linejoin="round" stroke-width="1.088"/>
      <line id="Línea_305" data-name="Línea 305" x2="12.827" transform="translate(879.188 91.201)" fill="none" stroke="#cc3f57" stroke-linecap="round" stroke-linejoin="round" stroke-width="1.088"/>
      <line id="Línea_306" data-name="Línea 306" x2="40.987" transform="translate(1099.483 135.281)" fill="none" stroke="#cc3f57" stroke-linecap="round" stroke-linejoin="round" stroke-width="1.088"/>
      <line id="Línea_307" data-name="Línea 307" x2="40.987" transform="translate(1106.654 125.124)" fill="none" stroke="#cc3f57" stroke-linecap="round" stroke-linejoin="round" stroke-width="1.088"/>
      <line id="Línea_308" data-name="Línea 308" x2="12.827" transform="translate(1146.179 135.281)" fill="none" stroke="#cc3f57" stroke-linecap="round" stroke-linejoin="round" stroke-width="1.088"/>
      <line id="Línea_309" data-name="Línea 309" x2="40.987" transform="translate(1079.348 130.595)" fill="none" stroke="#cc3f57" stroke-linecap="round" stroke-linejoin="round" stroke-width="1.088"/>
      <line id="Línea_310" data-name="Línea 310" x2="12.827" transform="translate(1126.045 130.595)" fill="none" stroke="#cc3f57" stroke-linecap="round" stroke-linejoin="round" stroke-width="1.088"/>
      <g id="Grupo_60930" data-name="Grupo 60930" transform="translate(1095.661 95.886)">
        <line id="Línea_311" data-name="Línea 311" x1="7.644" transform="translate(0 3.822)" fill="none" stroke="#fff" stroke-miterlimit="10" stroke-width="1"/>
        <line id="Línea_312" data-name="Línea 312" y2="7.644" transform="translate(3.822)" fill="none" stroke="#fff" stroke-miterlimit="10" stroke-width="1"/>
      </g>
      <g id="Grupo_60931" data-name="Grupo 60931" transform="translate(892.778 247.896)">
        <line id="Línea_313" data-name="Línea 313" x1="7.644" transform="translate(0 3.822)" fill="none" stroke="#fff" stroke-miterlimit="10" stroke-width="1"/>
        <line id="Línea_314" data-name="Línea 314" y2="7.644" transform="translate(3.822)" fill="none" stroke="#fff" stroke-miterlimit="10" stroke-width="1"/>
      </g>
      <g id="Grupo_60932" data-name="Grupo 60932" transform="translate(887.896 25.082)">
        <line id="Línea_315" data-name="Línea 315" x1="7.644" transform="translate(0 3.822)" fill="none" stroke="#fff" stroke-miterlimit="10" stroke-width="1"/>
        <line id="Línea_316" data-name="Línea 316" y2="7.644" transform="translate(3.822)" fill="none" stroke="#fff" stroke-miterlimit="10" stroke-width="1"/>
      </g>
    </g>
  </g>
</svg>
