<svg xmlns="http://www.w3.org/2000/svg" width="57" height="57" viewBox="0 0 57 57">
  <g id="Grupo_60266" data-name="Grupo 60266" transform="translate(-196 -3543)">
    <circle id="Elipse_4096" data-name="Elipse 4096" cx="28.5" cy="28.5" r="28.5" transform="translate(196 3543)" fill="#aee6e6"/>
    <g id="Grupo_60262" data-name="Grupo 60262" transform="translate(-275.222 3484.8)">
      <path id="Trazado_130880" data-name="Trazado 130880" d="M516.252,77.467a2.268,2.268,0,0,1-.646-.676,18.621,18.621,0,0,0-10.336-7.973.852.852,0,0,1-.554-.47,5.54,5.54,0,0,0-9.989-.009.851.851,0,0,1-.549.475,18.5,18.5,0,0,0-11.049,9.2,1.615,1.615,0,0,1-.541.592,9.688,9.688,0,0,0,.1,16.258,1.088,1.088,0,0,1,.372.4,18.613,18.613,0,0,0,10.66,9.171.785.785,0,0,1,.464.4,6.231,6.231,0,0,0,11.045.029.89.89,0,0,1,.533-.445,18.456,18.456,0,0,0,9.862-7.849,2.132,2.132,0,0,1,.622-.64,11.019,11.019,0,0,0,0-18.468Zm-16.538-10.9a4.164,4.164,0,1,1-4.158,4.17A4.176,4.176,0,0,1,499.714,66.571ZM479.8,84.826a8.377,8.377,0,0,1,6.8-6.357,17.506,17.506,0,0,1,2.467-.1c.188,0,.252.049.245.242-.014.39,0,.781,0,1.171,0,.361-.014.724,0,1.084.012.227-.059.29-.287.289a9.793,9.793,0,0,0-2.415.151,5.551,5.551,0,0,0,1.254,10.948c.116,0,.232-.006.347,0,.356.024.843-.16,1.032.071s.059.687.062,1.045c0,.463,0,.925,0,1.388,0,.148.021.266-.208.277a9.167,9.167,0,0,1-6.036-1.57A8.343,8.343,0,0,1,479.8,84.826Zm19.937,22a4.858,4.858,0,1,1,4.836-4.87A4.877,4.877,0,0,1,499.742,106.829Zm6.181-3.977a6.126,6.126,0,0,0-2.954-6.191,5.854,5.854,0,0,0-6.553.031,6.11,6.11,0,0,0-2.9,6.143c-2.291-.359-6.649-3.867-8.375-6.767a.573.573,0,0,1,.362.04,9.571,9.571,0,0,0,2.357.308c2.212,0,4.425-.007,6.637.008.309,0,.377-.08.374-.38q-.024-2.407,0-4.815c0-.311-.083-.375-.381-.373-2.2.014-4.4.022-6.594,0a4.16,4.16,0,0,1-.035-8.319c2.2-.023,4.4-.014,6.594,0,.349,0,.419-.1.416-.427q-.026-2.386,0-4.772c0-.313-.088-.373-.383-.371-2.212.013-4.425.008-6.637.007a10.585,10.585,0,0,0-2.765.413,16.274,16.274,0,0,1,2.1-2.684,17.387,17.387,0,0,1,6.61-4.322c.326-.121.394-.082.388.282a5.545,5.545,0,0,0,11.029.892,8.015,8.015,0,0,0,.057-1.3,17.609,17.609,0,0,1,8.135,5.776c-4.6-1.112-8.536-.084-11.666,3.431a10.553,10.553,0,0,0-2.67,8.084,11.144,11.144,0,0,0,14.228,9.826C512.53,99.029,508.151,102.288,505.923,102.852Zm-12.541-7.891c-.256.229-.878.048-1.339.048-.441-.022-1.032.217-1.283-.067-.217-.246-.072-.825-.06-1.256.013-.471-.207-1.1.087-1.366.257-.232.879-.074,1.339-.064.442.01,1.033-.192,1.282.084.218.242.072.824.06,1.255C493.456,94.067,493.676,94.7,493.382,94.961Zm-2.689-16.351c0-.189.051-.247.242-.244q1.149.015,2.3,0c.189,0,.251.051.244.243-.014.39,0,.78,0,1.171s-.01.752,0,1.127c.007.189-.051.247-.243.244q-1.149-.015-2.3,0c-.189,0-.247-.051-.244-.243Q490.708,79.76,490.693,78.611Zm25.743,15.472a10,10,0,0,1-6.707,2.334,9.565,9.565,0,0,1-6.223-2.609.551.551,0,0,1-.169-.713,1.991,1.991,0,0,1,1.426-1.272c.8-.19,1.606-.353,2.414-.506a2.678,2.678,0,0,0,1.712-1.081c.123-.167.209-.254.446-.179a2.694,2.694,0,0,0,1.623-.007.287.287,0,0,1,.384.139,2.787,2.787,0,0,0,1.818,1.147c.779.149,1.556.314,2.331.48a1.919,1.919,0,0,1,1.027.608C517.153,93.121,517.134,93.479,516.436,94.083Zm-9.776-8.246a.663.663,0,0,1,0,.171,1.213,1.213,0,0,1,0,.257c-.031.141.106.361-.082.41s-.349-.1-.465-.254a.643.643,0,0,1-.115-.608c.087-.266.281-.5.545-.47C506.786,85.373,506.612,85.667,506.66,85.837Zm-.014-1.906a3.626,3.626,0,0,0-.64.081,4.136,4.136,0,1,1,8.269.009,10.407,10.407,0,0,0-2.35-.091,6.6,6.6,0,0,1-2.809-.6,1.467,1.467,0,0,0-1.569.306A1.269,1.269,0,0,1,506.645,83.931Zm6.953,1.592c-.007-.226.085-.237.256-.159a.659.659,0,0,1,.433.716.714.714,0,0,1-.686.632C513.6,86.291,513.61,85.907,513.6,85.523Zm-5.547-.2a.571.571,0,0,1,.862-.56,7.228,7.228,0,0,0,2.954.54c.287-.011.371.074.352.355-.025.374,0,.75-.01,1.125a2.081,2.081,0,0,1-4.157.012c-.01-.23,0-.462,0-.693h0C508.05,85.845,508.039,85.585,508.052,85.326Zm10.01,6.922a3.833,3.833,0,0,0-3.156-1.983c-.5-.077-.993-.182-1.487-.287a1.8,1.8,0,0,1-.486-.173c-.515-.283-.539-.437-.162-.879A2.867,2.867,0,0,1,514.178,88a1.885,1.885,0,0,0,1.465-1.694,12.135,12.135,0,0,0-.143-3.8,5.551,5.551,0,0,0-10.921,1.334q-.01,1.062,0,2.125a2.065,2.065,0,0,0,2.065,2.113.435.435,0,0,1,.46.282,2.26,2.26,0,0,0,.572.755c.182.158.135.279,0,.43a1.5,1.5,0,0,1-.872.439c-.652.124-1.3.262-1.954.381a3.573,3.573,0,0,0-2.652,1.872,9.692,9.692,0,1,1,15.866.009Z" transform="translate(0 0)" fill="#0d585f" stroke="rgba(0,0,0,0)" stroke-width="1"/>
      <path id="Trazado_130881" data-name="Trazado 130881" d="M699.433,469.132c-.116-.214-.614-.044-.94-.069a.563.563,0,0,0-.13,0c-.214.034-.267-.062-.261-.266.014-.477,0-.954,0-1.431,0-1.14,0-1.132-1.132-1.087-.213.009-.266.069-.26.272.013.491,0,.983,0,1.474,0,1.067,0,1.057-1.089,1.044-.252,0-.308-.078-.3-.316.013-.939.006-1.879.006-2.819,0-1.067,0-1.057-1.089-1.044-.252,0-.309.078-.3.316.014.809.005,1.619.005,2.428q0,1.257,0,2.515c0,.155-.042.307.221.306,1.706-.01,3.411-.006,5.117,0,.128,0,.223-.007.217-.178C699.482,469.887,699.6,469.435,699.433,469.132Z" transform="translate(-196.998 -365.01)" fill="#0d585f" stroke="rgba(0,0,0,0)" stroke-width="1"/>
      <path id="Trazado_130882" data-name="Trazado 130882" d="M702.158,90.914V97.52l5.5-3.3Zm1.392,2.464,1.414.837-1.414.846Z" transform="translate(-204.507 -23.483)" fill="#0d585f" stroke="rgba(0,0,0,0)" stroke-width="1"/>
    </g>
  </g>
</svg>
