<svg xmlns="http://www.w3.org/2000/svg" xmlns:xlink="http://www.w3.org/1999/xlink" width="295" height="279.935" viewBox="0 0 295 279.935">
  <defs>
    <clipPath id="clip-path">
      <rect id="Rectángulo_401679" data-name="Rectángulo 401679" width="295" height="279.935" fill="#c2f3f3"/>
    </clipPath>
    <clipPath id="clip-path-2">
      <path id="Trazado_874630" data-name="Trazado 874630" d="M143.826,0C60.336,0,29.881,48.1,5.022,125.035S51.4,244.749,134.893,244.749,295,216.8,295,139.667c0-43.938-59.068-31.261-93.4-56.864C175.657,63.46,179.759,0,143.826,0Z" transform="translate(0 -0.001)" fill="none"/>
    </clipPath>
    <clipPath id="clip-path-3">
      <rect id="Rectángulo_401705" data-name="Rectángulo 401705" width="2.013" height="3.411" fill="none"/>
    </clipPath>
    <clipPath id="clip-path-4">
      <rect id="Rectángulo_401706" data-name="Rectángulo 401706" width="0.911" height="1.544" fill="none"/>
    </clipPath>
    <clipPath id="clip-path-6">
      <rect id="Rectángulo_401708" data-name="Rectángulo 401708" width="0.912" height="1.544" fill="none"/>
    </clipPath>
  </defs>
  <g id="Grupo_1100173" data-name="Grupo 1100173" transform="translate(0 0)">
    <g id="Grupo_1100174" data-name="Grupo 1100174">
      <g id="Grupo_1100155" data-name="Grupo 1100155" transform="translate(0 0)">
        <g id="Grupo_1100154" data-name="Grupo 1100154" clip-path="url(#clip-path)">
          <path id="Trazado_874629" data-name="Trazado 874629" d="M143.827,0C179.76,0,175.658,63.46,201.6,82.8c34.334,25.6,93.4,12.926,93.4,56.864,0,77.135-76.615,105.082-160.107,105.082S-19.837,201.967,5.023,125.035,60.337,0,143.827,0" transform="translate(-0.001 -0.001)" fill="#c2f3f3" fill-rule="evenodd"/>
        </g>
      </g>
      <g id="Grupo_1100157" data-name="Grupo 1100157" transform="translate(0 0)">
        <g id="Grupo_1100156" data-name="Grupo 1100156" clip-path="url(#clip-path-2)">
          <rect id="Rectángulo_401680" data-name="Rectángulo 401680" width="0.492" height="242.447" transform="translate(22.946 37.488)" fill="#fff"/>
          <rect id="Rectángulo_401681" data-name="Rectángulo 401681" width="264.821" height="0.492" transform="translate(17.28 42.654)" fill="#fff"/>
          <rect id="Rectángulo_401682" data-name="Rectángulo 401682" width="0.492" height="242.447" transform="translate(45.946 37.488)" fill="#fff"/>
          <rect id="Rectángulo_401683" data-name="Rectángulo 401683" width="264.821" height="0.492" transform="translate(17.28 63.711)" fill="#fff"/>
          <rect id="Rectángulo_401684" data-name="Rectángulo 401684" width="0.492" height="242.447" transform="translate(68.945 37.488)" fill="#fff"/>
          <rect id="Rectángulo_401685" data-name="Rectángulo 401685" width="264.821" height="0.492" transform="translate(17.28 84.767)" fill="#fff"/>
          <rect id="Rectángulo_401686" data-name="Rectángulo 401686" width="0.492" height="242.447" transform="translate(91.945 37.488)" fill="#fff"/>
          <rect id="Rectángulo_401687" data-name="Rectángulo 401687" width="264.821" height="0.492" transform="translate(17.28 105.824)" fill="#fff"/>
          <rect id="Rectángulo_401688" data-name="Rectángulo 401688" width="0.492" height="242.447" transform="translate(114.946 37.488)" fill="#fff"/>
          <rect id="Rectángulo_401689" data-name="Rectángulo 401689" width="264.821" height="0.492" transform="translate(17.28 126.881)" fill="#fff"/>
          <rect id="Rectángulo_401690" data-name="Rectángulo 401690" width="0.492" height="242.447" transform="translate(137.945 37.488)" fill="#fff"/>
          <rect id="Rectángulo_401691" data-name="Rectángulo 401691" width="264.821" height="0.492" transform="translate(17.28 147.937)" fill="#fff"/>
          <rect id="Rectángulo_401692" data-name="Rectángulo 401692" width="0.492" height="242.447" transform="translate(160.945 37.488)" fill="#fff"/>
          <rect id="Rectángulo_401693" data-name="Rectángulo 401693" width="264.821" height="0.492" transform="translate(17.28 168.994)" fill="#fff"/>
          <rect id="Rectángulo_401694" data-name="Rectángulo 401694" width="0.492" height="242.447" transform="translate(183.944 37.488)" fill="#fff"/>
          <rect id="Rectángulo_401695" data-name="Rectángulo 401695" width="264.821" height="0.492" transform="translate(17.28 190.05)" fill="#fff"/>
          <rect id="Rectángulo_401696" data-name="Rectángulo 401696" width="0.492" height="242.447" transform="translate(206.944 37.488)" fill="#fff"/>
          <rect id="Rectángulo_401697" data-name="Rectángulo 401697" width="264.821" height="0.492" transform="translate(17.28 211.107)" fill="#fff"/>
          <rect id="Rectángulo_401698" data-name="Rectángulo 401698" width="0.492" height="242.447" transform="translate(229.944 37.488)" fill="#fff"/>
          <rect id="Rectángulo_401699" data-name="Rectángulo 401699" width="264.821" height="0.492" transform="translate(17.28 232.164)" fill="#fff"/>
          <rect id="Rectángulo_401700" data-name="Rectángulo 401700" width="0.492" height="242.447" transform="translate(252.944 37.488)" fill="#fff"/>
          <rect id="Rectángulo_401701" data-name="Rectángulo 401701" width="264.821" height="0.492" transform="translate(17.28 253.22)" fill="#fff"/>
          <rect id="Rectángulo_401702" data-name="Rectángulo 401702" width="0.492" height="242.447" transform="translate(275.944 37.488)" fill="#fff"/>
        </g>
      </g>
      <g id="Grupo_1100171" data-name="Grupo 1100171" transform="translate(0 0)">
        <g id="Grupo_1100175" data-name="Grupo 1100175">
          <path id="Trazado_874632" data-name="Trazado 874632" d="M776.87,94.232c20.15-25.377,40.273-50.406,60.652-74.815,24.5,11.633,23.923,63.327,46.887,80.452,34.335,25.6,93.4,12.924,93.4,56.864,0,49.325-31.33,78.534-75.753,93.185-31.927-14.116-63.791-27.456-95.395-40.436q-7.447-28.812-14.9-57.625c-4.953-19.155-9.932-38.416-14.9-57.625" transform="translate(-682.813 -17.066)" fill="#aee6e6" fill-rule="evenodd"/>
          <path id="Trazado_874633" data-name="Trazado 874633" d="M854.2,591.152c28.245-16.492,56.518-32.625,85.183-47.571,3.442,6.94,7.557,12.935,12.994,16.99,34.335,25.6,93.4,12.924,93.4,56.864a98.789,98.789,0,0,1-3.767,27.714q-19.158-2.45-38.256-4.34c-46.467-4.544-92.713-6.024-138.473-6.788-1.845-7.137-3.7-14.326-5.548-21.462s-3.689-14.273-5.535-21.407" transform="translate(-750.781 -477.769)" fill="#c3f2f2" fill-rule="evenodd"/>
          <path id="Trazado_874634" data-name="Trazado 874634" d="M242.4,1613.162a2.092,2.092,0,0,0,2.787.9l5.142-2.482a2.022,2.022,0,0,0,.977-2.717l-5.727-11.473a2.087,2.087,0,0,0-2.783-.9l-5.144,2.476a2.033,2.033,0,0,0-.982,2.722Z" transform="translate(-207.834 -1403.01)" fill="#7d6eb2" fill-rule="evenodd"/>
          <path id="Trazado_874635" data-name="Trazado 874635" d="M285.538,1631.98l-.269-1.036c.569-.093,1.132-.17,1.7-.256l4.206,8.423a2.023,2.023,0,0,1-.977,2.717l-1.388.67-3.751,1.811a2.092,2.092,0,0,1-2.788-.9l-.444-.889a10.133,10.133,0,0,0,3.712-10.538" transform="translate(-247.705 -1433.257)" fill="#62529b" fill-rule="evenodd"/>
          <path id="Trazado_874636" data-name="Trazado 874636" d="M91.022,1517.388c-7.1-12.7-22.971-41.651-24.725-49.681l-20.795,5.2c8.008,19.145,24.262,34.087,45.52,44.482" transform="translate(-39.993 -1290.008)" fill="#62529b" fill-rule="evenodd"/>
          <path id="Trazado_874637" data-name="Trazado 874637" d="M177.646,1506.493c-7.683-14.012-18.077-33.619-21.149-42.526l7.182-1.8c1.792,8.2,18.32,38.245,25.174,50.483a124.43,124.43,0,0,1-11.207-6.162" transform="translate(-137.55 -1285.144)" fill="#7d6eb2" fill-rule="evenodd"/>
          <path id="Trazado_874638" data-name="Trazado 874638" d="M63.323,1418.716l2.027,7.8a9.269,9.269,0,0,1-6.83,11.18l-16.494,4.285a71.133,71.133,0,0,1-7.9-15.682Z" transform="translate(-29.995 -1246.949)" fill="#7d6eb2" fill-rule="evenodd"/>
          <path id="Trazado_874639" data-name="Trazado 874639" d="M68.4,1486.606l20.246-5.26a11.3,11.3,0,0,0,6.621-4.721l.206.791a9.268,9.268,0,0,1-6.83,11.18l-16.494,4.285q-2.033-3.05-3.749-6.275" transform="translate(-60.12 -1297.847)" fill="#62529b" fill-rule="evenodd"/>
          <path id="Trazado_874640" data-name="Trazado 874640" d="M6.669,1156.422l15.849-4.119-12.345-47.51-8,2.079c-4.05,18.823-2.081,35.385,4.5,49.549" transform="translate(-0.061 -971.034)" fill="#62529b" fill-rule="evenodd"/>
          <path id="Trazado_874641" data-name="Trazado 874641" d="M169.152,566.385c-1.019,7.96,3.574,34.426,11.6,65.3,8.013,30.843,16.879,56.181,21.646,62.664-13.459-9.22-55.968-28.383-106.529-15.247L83.515,631.571c50.574-13.14,78.379-50.588,85.637-65.186" transform="translate(-73.404 -497.812)" fill="#7d6eb2" fill-rule="evenodd"/>
          <path id="Trazado_874642" data-name="Trazado 874642" d="M799.478,631.926c9.181,35.334,19.606,63.2,23.286,62.247s-.78-30.375-9.961-65.71-19.609-63.207-23.286-62.251c-.8.206.779,30.374,9.962,65.715" transform="translate(-693.768 -497.638)" fill="#62529b" fill-rule="evenodd"/>
          <path id="Trazado_874643" data-name="Trazado 874643" d="M14.531,1117.685q-1.86.534-3.76,1.031L1.219,1121.2a93.238,93.238,0,0,1,1.962-14.324l8-2.078h0Z" transform="translate(-1.071 -971.035)" fill="#7d6eb2" fill-rule="evenodd"/>
          <path id="Trazado_874644" data-name="Trazado 874644" d="M83.515,631.571l.007,0c1.431-.372,2.839-.768,4.232-1.179.428-.126.852-.258,1.28-.387.988-.3,1.972-.611,2.941-.93q.666-.22,1.329-.441,1.6-.546,3.173-1.125c.276-.1.558-.2.834-.3q1.953-.732,3.854-1.512c.336-.138.664-.281,1-.421q1.419-.593,2.808-1.208.619-.276,1.231-.557,1.334-.607,2.638-1.237c.345-.167.695-.331,1.04-.5,1.177-.581,2.343-1.17,3.486-1.774.192-.1.378-.206.569-.308.957-.51,1.907-1.031,2.839-1.556.376-.211.746-.427,1.116-.639q1.148-.662,2.268-1.334c.364-.218.729-.437,1.09-.658q1.324-.812,2.611-1.642c.183-.117.368-.231.552-.348q1.51-.984,2.971-1.991c.342-.236.676-.472,1.015-.708.652-.458,1.3-.916,1.942-1.379.369-.269.74-.538,1.1-.808.629-.464,1.246-.93,1.859-1.4.319-.243.645-.486.96-.732q1.288-1,2.537-2.017c.329-.27.651-.541.978-.812.533-.441,1.06-.879,1.577-1.321.385-.328.761-.654,1.139-.983q.673-.587,1.333-1.176c.379-.339.758-.675,1.126-1.012.46-.417.905-.834,1.351-1.251.632-.59,1.249-1.18,1.858-1.768.354-.343.711-.685,1.059-1.028.41-.406.812-.812,1.213-1.218q.424-.431.845-.859c.412-.426.822-.851,1.225-1.275.218-.23.43-.459.644-.687q2.207-2.358,4.162-4.652l.322-.375q.657-.773,1.287-1.537c.071-.085.138-.17.206-.254a100.653,100.653,0,0,0,12.028-17.885c-.433,3.383.15,10.116,1.578,19.1-.429.6-.867,1.207-1.325,1.824-13.976,18.85-41.135,45.278-82.541,57.153Z" transform="translate(-73.404 -497.812)" fill="#9789c8" fill-rule="evenodd"/>
          <path id="Trazado_874645" data-name="Trazado 874645" d="M1051.44,1077.628l-.025-.011c-.028-.1-.053-.188-.081-.283.038.1.072.2.106.294" transform="translate(-924.047 -946.899)" fill="#00518c" fill-rule="evenodd"/>
          <path id="Trazado_874646" data-name="Trazado 874646" d="M851.187,966.1c11.077-2.278,22.027,4.177,24.807,14.876s-3.643,21.667-14.427,25.07Z" transform="translate(-748.132 -848.736)" fill="#7d6eb2" fill-rule="evenodd"/>
          <path id="Trazado_874647" data-name="Trazado 874647" d="M28.6,1388.734l.008.026c1.737-.451,3.465-.864,5.187-1.255l3.452,13.281-.018,0L21.4,1404.9a69.917,69.917,0,0,1-4.57-13.11Z" transform="translate(-14.793 -1219.517)" fill="#574498" fill-rule="evenodd"/>
          <path id="Trazado_874648" data-name="Trazado 874648" d="M257.563,1363.042c3.746,10.745,7.087,18.516,9.433,21.71-6.943-4.756-21.633-12.15-41.158-16.4-.1-.022-.2-.045-.306-.066q-1.259-.272-2.542-.524c-.122-.026-.244-.047-.366-.071q-3.756-.731-7.723-1.282c-.338-.047-.677-.1-1.018-.141q-1.086-.141-2.189-.268-.64-.074-1.286-.141c-.712-.076-1.424-.152-2.145-.218-.476-.043-.96-.079-1.443-.118q-1.753-.142-3.539-.242c-.6-.034-1.2-.069-1.8-.1-.627-.026-1.26-.046-1.892-.065s-1.27-.033-1.907-.044c-.615-.01-1.226-.019-1.844-.02-.757,0-1.518,0-2.286.015-.549.007-1.1.011-1.649.023q-1.745.044-3.512.134c-.526.026-1.058.062-1.589.1-.807.049-1.617.1-2.432.17-.551.043-1.105.089-1.659.139q-1.31.123-2.631.27c-.475.052-.945.1-1.425.157q-1.969.24-3.965.538c-.37.057-.746.122-1.117.182-1.021.163-2.046.335-3.076.523-.5.09-.992.186-1.49.282q-1.447.281-2.908.6c-.46.1-.92.195-1.381.3-1.391.315-2.789.648-4.194,1.011l-.053.013-3.456-13.3a177.547,177.547,0,0,1,100.547,6.836" transform="translate(-138.006 -1188.22)" fill="#62529b" fill-rule="evenodd"/>
          <path id="Trazado_874649" data-name="Trazado 874649" d="M731.291,566.385c-1.019,7.96,3.574,34.426,11.6,65.3,8.013,30.843,16.879,56.181,21.646,62.664A90.4,90.4,0,0,0,751.048,687a245.531,245.531,0,0,1-27.959-107.625,90.38,90.38,0,0,0,8.2-12.989" transform="translate(-635.543 -497.812)" fill="#ffd947" fill-rule="evenodd"/>
          <path id="Trazado_874650" data-name="Trazado 874650" d="M723.089,579.373a90.308,90.308,0,0,0,8.2-12.988c-.433,3.383.15,10.116,1.577,19.1-.429.6-.867,1.207-1.325,1.824-2.149,2.9-4.615,5.976-7.39,9.152-.542-5.673-.915-11.368-1.065-17.088" transform="translate(-635.543 -497.812)" fill="#f6db71" fill-rule="evenodd"/>
          <path id="Trazado_874653" data-name="Trazado 874653" d="M3.2,1015.45c4.231-1.22,8.907-2.358,13.794-3.547,16.992-4.133,36.614-8.909,47.731-19.651a1.76,1.76,0,0,1,2.449,2.53c-11.795,11.4-31.928,16.3-49.358,20.539-5.4,1.313-10.529,2.562-15.026,3.911q.164-1.875.41-3.782" transform="translate(-2.449 -871.683)" fill="#fae0da" fill-rule="evenodd"/>
          <path id="Trazado_874654" data-name="Trazado 874654" d="M551.4,886.662a1.759,1.759,0,0,1-2.189-2.753q3.023-2.415,6.048-5.1,2.982-2.649,5.977-5.579a1.762,1.762,0,0,1,2.465,2.517q-3.005,2.94-6.1,5.691-3.055,2.71-6.2,5.226" transform="translate(-482.132 -767.063)" fill="#fae0da" fill-rule="evenodd"/>
          <path id="Trazado_874655" data-name="Trazado 874655" d="M1315.671,909.363l-9.856-8.171a2.246,2.246,0,0,0-3.156.295l-2.47,2.979h0a.374.374,0,0,0-.524.049l-2.01,2.424a.373.373,0,0,0,.049.524l-12.754,15.384a2.247,2.247,0,0,0,.3,3.157l9.855,8.17a2.247,2.247,0,0,0,3.156-.3l10.815-13.045a.235.235,0,0,0,.023.021.373.373,0,0,0,.523-.049l2.01-2.424a.373.373,0,0,0-.049-.524l-.025-.019.684-.825.023.021a.373.373,0,0,0,.524-.049l2.01-2.425a.372.372,0,0,0-.049-.523l-.025-.019,1.244-1.5a2.246,2.246,0,0,0-.295-3.156" transform="translate(-1128.927 -791.631)" fill="#26aab7" fill-rule="evenodd"/>
          <path id="Trazado_874656" data-name="Trazado 874656" d="M1319.628,914.164l-9.856-8.171a1.649,1.649,0,0,0-2.315.217l-17.708,21.36a1.648,1.648,0,0,0,.216,2.315l9.855,8.171a1.649,1.649,0,0,0,2.315-.217l17.708-21.359a1.649,1.649,0,0,0-.216-2.315" transform="translate(-1133.266 -795.972)" fill="#32c2d1" fill-rule="evenodd"/>
          <path id="Trazado_874657" data-name="Trazado 874657" d="M1334.528,919.249l-9.855-8.171a.973.973,0,0,0-1.366.128l-16.33,19.7a.973.973,0,0,0,.128,1.366l9.855,8.17a.972.972,0,0,0,1.365-.127l16.331-19.7a.973.973,0,0,0-.128-1.366" transform="translate(-1148.543 -800.577)" fill="#fff" fill-rule="evenodd"/>
          <path id="Trazado_874658" data-name="Trazado 874658" d="M1470.926,923.13l5.443,4.513c.036.03.052.074.032.1s-.064.017-.1-.014l-5.443-4.513c-.037-.031-.052-.075-.032-.1s.065-.016.1.014m-.4-.333-.534-.443c-.037-.031-.083-.037-.1-.014s0,.067.033.1l.534.443c.037.031.083.037.1.014h0c.019-.023,0-.067-.033-.1" transform="translate(-1291.918 -810.658)" fill="#fff" fill-rule="evenodd"/>
          <path id="Trazado_874659" data-name="Trazado 874659" d="M1479.323,933.1l-5.092-4.222a.524.524,0,0,0,.148.6l4.325,3.586a.523.523,0,0,0,.618.035" transform="translate(-1295.708 -816.415)" fill="#aee6e6" fill-rule="evenodd"/>
          <path id="Trazado_874661" data-name="Trazado 874661" d="M1537.244,1518.879a12.053,12.053,0,1,1,16.358,4.793,12.053,12.053,0,0,1-16.358-4.793" transform="translate(-1349.825 -1319.306)" fill="#0b70b8" fill-rule="evenodd"/>
          <path id="Trazado_874662" data-name="Trazado 874662" d="M1593.8,1501.075a12.056,12.056,0,0,1-6.4,22.609,12.055,12.055,0,1,0,6.4-22.609" transform="translate(-1395.211 -1319.337)" fill="#0b70b8" fill-rule="evenodd"/>
          <path id="Trazado_874663" data-name="Trazado 874663" d="M1549.011,1528.915a10.64,10.64,0,0,1,13.624-14.842,10.641,10.641,0,1,0-9.84,18.817,10.59,10.59,0,0,1-3.784-3.974" transform="translate(-1359.211 -1329.387)" fill="#0b70b8" fill-rule="evenodd"/>
          <path id="Trazado_874664" data-name="Trazado 874664" d="M1599.236,1540.292l.737,1.348a3.229,3.229,0,0,1,1.62-.19,4.689,4.689,0,0,1,1.663.707l-.93,1.482a2.044,2.044,0,0,0-2.183-.236,1.647,1.647,0,0,0-.808.906,1.308,1.308,0,0,0,.09,1.112,1.251,1.251,0,0,0,.767.634,5.338,5.338,0,0,0,1.688.05,14.6,14.6,0,0,1,1.764-.04,4.184,4.184,0,0,1,1.17.2,3.28,3.28,0,0,1,1.886,1.6,3.7,3.7,0,0,1,.426,2.445,3.862,3.862,0,0,1-1.2,2.211l.778,1.423-1.2.658-.756-1.382a4.168,4.168,0,0,1-2.563.2,5.055,5.055,0,0,1-2.24-1.615l1.339-1.143a4.037,4.037,0,0,0,1.572,1.078,2.023,2.023,0,0,0,1.477-.254,2,2,0,0,0,1-1.18,1.877,1.877,0,0,0-.178-1.519,1.671,1.671,0,0,0-1.017-.864,4.455,4.455,0,0,0-.875-.106,12.346,12.346,0,0,0-1.361.035,5.858,5.858,0,0,1-2.354-.141,3.137,3.137,0,0,1-1.993-2.437,2.866,2.866,0,0,1,.034-1.023,3.246,3.246,0,0,1,.41-1.005,4.542,4.542,0,0,1,.779-.944l-.737-1.347Z" transform="translate(-1404.102 -1353.806)" fill="#0b70b8" fill-rule="evenodd"/>
          <path id="Trazado_874665" data-name="Trazado 874665" d="M1521.654,1499.452a14.2,14.2,0,1,1,19.275,5.648,14.2,14.2,0,0,1-19.275-5.648" transform="translate(-1335.891 -1299.436)" fill="#26aab7" fill-rule="evenodd"/>
          <path id="Trazado_874666" data-name="Trazado 874666" d="M1539.144,1514.026a12.053,12.053,0,1,1,16.358,4.793,12.054,12.054,0,0,1-16.358-4.793" transform="translate(-1351.495 -1315.041)" fill="#fff" fill-rule="evenodd"/>
          <path id="Trazado_874667" data-name="Trazado 874667" d="M1586.639,1538.517l2.032-1.061-1-1.915c2.642-1.7,3.713-4.127,2.468-6.511l-.02-.039c-1.266-2.422-3.41-2.719-6.894-1.82l-1.183-2.266a8.827,8.827,0,0,1,3.23-.195l.234-3.455a10.026,10.026,0,0,0-4.918.629l-.612-1.172-2.032,1.061.582,1.114c-2.877,1.776-3.72,4.256-2.516,6.561l.02.039c1.265,2.422,3.429,2.661,6.951,1.74l1.224,2.344a9.817,9.817,0,0,1-4.47.3l-.4,3.517a12.549,12.549,0,0,0,6.284-.822Zm-5.424-10.719c-1.208.258-1.635.108-1.9-.4l-.02-.04c-.265-.507-.1-1.093.818-1.671Zm4.888,4.931-1.122-2.148c1.169-.238,1.615-.1,1.891.429l.02.039c.3.567.059,1.113-.788,1.68" transform="translate(-1384.732 -1336.597)" fill="#26aab7" fill-rule="evenodd"/>
          <path id="Trazado_874669" data-name="Trazado 874669" d="M1550.91,1524.06a10.64,10.64,0,0,1,13.624-14.842,10.641,10.641,0,1,0-9.839,18.817,10.59,10.59,0,0,1-3.785-3.974" transform="translate(-1360.88 -1325.12)" fill="#fff" fill-rule="evenodd"/>
          <path id="Trazado_874671" data-name="Trazado 874671" d="M1564.5,711.867l-12.919-5.351a12.943,12.943,0,0,0-16.769,6.857l-.325.785a12.84,12.84,0,0,0,7.056,16.595l4.181,1.732-5.5,5.85,12.863-2.8,1.37.568a12.678,12.678,0,0,0,16.549-6.819l.324-.784a12.78,12.78,0,0,0-6.835-16.634" transform="translate(-1347.882 -620.132)" fill="#26aab7" fill-rule="evenodd"/>
          <path id="Trazado_874672" data-name="Trazado 874672" d="M1743.036,851.5a2.5,2.5,0,1,0,3.26-1.351,2.5,2.5,0,0,0-3.26,1.351" transform="translate(-1531.835 -747.056)" fill="#fff" fill-rule="evenodd"/>
          <path id="Trazado_874673" data-name="Trazado 874673" d="M1671.567,821.906a2.5,2.5,0,1,0,3.261-1.351,2.5,2.5,0,0,0-3.261,1.351" transform="translate(-1469.019 -721.042)" fill="#fff" fill-rule="evenodd"/>
          <path id="Trazado_874674" data-name="Trazado 874674" d="M1600.112,792.308a2.5,2.5,0,1,0,3.261-1.351,2.5,2.5,0,0,0-3.261,1.351" transform="translate(-1406.215 -695.027)" fill="#fff" fill-rule="evenodd"/>
          <path id="Trazado_874679" data-name="Trazado 874679" d="M1724.584,913.788l7.476,3.1a7.488,7.488,0,0,1,4.055,9.666l-.187.454a7.43,7.43,0,0,1-9.676,3.9l-2.419-1-.145,4.641-4.119-6.407-.793-.328a7.335,7.335,0,0,1-3.981-9.56l.188-.454a7.394,7.394,0,0,1,9.6-4.01" transform="translate(-1506.694 -802.67)" fill="#38bac7" fill-rule="evenodd"/>
          <path id="Trazado_874680" data-name="Trazado 874680" d="M1754.841,964.545a1.444,1.444,0,1,1-.782-1.887,1.444,1.444,0,0,1,.782,1.887" transform="translate(-1539.936 -846.011)" fill="#fff" fill-rule="evenodd"/>
          <path id="Trazado_874681" data-name="Trazado 874681" d="M1796.191,981.671a1.444,1.444,0,1,1-.782-1.887,1.444,1.444,0,0,1,.782,1.887" transform="translate(-1576.28 -861.063)" fill="#fff" fill-rule="evenodd"/>
          <path id="Trazado_874682" data-name="Trazado 874682" d="M1837.536,998.795a1.444,1.444,0,1,1-.781-1.887,1.444,1.444,0,0,1,.781,1.887" transform="translate(-1612.619 -876.113)" fill="#fff" fill-rule="evenodd"/>
          <path id="Trazado_874687" data-name="Trazado 874687" d="M1867.815,1110.265l7.475,3.1a7.489,7.489,0,0,1,4.056,9.666l-.188.453a7.429,7.429,0,0,1-9.676,3.9l-2.419-1-.145,4.641-4.118-6.408-.793-.328a7.336,7.336,0,0,1-3.982-9.56l.188-.454a7.4,7.4,0,0,1,9.6-4.01" transform="translate(-1632.583 -975.359)" fill="#fff" fill-rule="evenodd"/>
          <path id="Trazado_874688" data-name="Trazado 874688" d="M1898.074,1161.022a1.444,1.444,0,1,1-.781-1.887,1.443,1.443,0,0,1,.781,1.887" transform="translate(-1665.828 -1018.7)" fill="#26aab7" fill-rule="evenodd"/>
          <path id="Trazado_874689" data-name="Trazado 874689" d="M1939.426,1178.147a1.444,1.444,0,1,1-.782-1.887,1.445,1.445,0,0,1,.782,1.887" transform="translate(-1702.172 -1033.751)" fill="#26aab7" fill-rule="evenodd"/>
          <path id="Trazado_874690" data-name="Trazado 874690" d="M1980.769,1195.271a1.444,1.444,0,1,1-.782-1.886,1.444,1.444,0,0,1,.782,1.886" transform="translate(-1738.51 -1048.802)" fill="#26aab7" fill-rule="evenodd"/>
          <path id="Trazado_874695" data-name="Trazado 874695" d="M1147.762,463.325a12.219,12.219,0,0,1,4.03-1.668v-1.849a1.075,1.075,0,0,1,1.072-1.072h3.08a1.075,1.075,0,0,1,1.072,1.072v1.849a12.216,12.216,0,0,1,4.03,1.668l1.307-1.307a1.075,1.075,0,0,1,1.516,0l.538.538,1.1,1.1.538.538a1.075,1.075,0,0,1,0,1.516l-1.306,1.306a12.207,12.207,0,0,1,1.667,4.031h1.85a1.075,1.075,0,0,1,1.072,1.072v3.08a1.074,1.074,0,0,1-1.071,1.072h-1.849a12.209,12.209,0,0,1-1.668,4.03l1.306,1.307a1.075,1.075,0,0,1,0,1.516l-.538.538-1.1,1.1-.537.538a1.075,1.075,0,0,1-1.516,0L1161.047,484a12.221,12.221,0,0,1-4.03,1.668v1.849a1.075,1.075,0,0,1-1.072,1.072h-3.08a1.075,1.075,0,0,1-1.072-1.072v-1.849a12.22,12.22,0,0,1-4.03-1.668l-1.307,1.307a1.076,1.076,0,0,1-1.516,0l-.538-.538-1.1-1.1-.538-.538a1.076,1.076,0,0,1,0-1.517l1.307-1.306a12.206,12.206,0,0,1-1.669-4.031h-1.849a1.075,1.075,0,0,1-1.072-1.072v-3.08a1.075,1.075,0,0,1,1.072-1.072h1.85a12.2,12.2,0,0,1,1.668-4.03l-1.307-1.307a1.076,1.076,0,0,1,0-1.516l.538-.538,1.1-1.1.538-.538a1.075,1.075,0,0,1,1.516,0Zm26.088-5.485a1.067,1.067,0,0,0-1.167.951l-.1,1.028a5.7,5.7,0,0,0-1.956.88l-.839-.605a1.067,1.067,0,0,0-1.486.24l-.952,1.318a1.068,1.068,0,0,0,.24,1.487l.838.6a5.73,5.73,0,0,0-.217,2.134l-.943.423a1.066,1.066,0,0,0-.535,1.407l.666,1.483a1.067,1.067,0,0,0,1.406.535l.944-.423a5.713,5.713,0,0,0,1.739,1.256l-.1,1.028a1.067,1.067,0,0,0,.951,1.167l1.617.165a1.067,1.067,0,0,0,1.167-.951l.1-1.028a5.706,5.706,0,0,0,1.956-.879l.839.6a1.067,1.067,0,0,0,1.486-.24l.952-1.318a1.068,1.068,0,0,0-.24-1.486l-.838-.605a5.744,5.744,0,0,0,.217-2.134l.943-.423a1.067,1.067,0,0,0,.535-1.407l-.666-1.483a1.066,1.066,0,0,0-1.407-.535l-.944.424a5.71,5.71,0,0,0-1.739-1.256l.1-1.028a1.068,1.068,0,0,0-.951-1.167Zm.049,4.917a2.621,2.621,0,1,1-2.622,2.621,2.622,2.622,0,0,1,2.622-2.621m-1.81,11.654a1.068,1.068,0,0,0-.914,1.2l.138,1.024a5.71,5.71,0,0,0-1.7,1.311l-.957-.393a1.068,1.068,0,0,0-1.389.58l-.618,1.5a1.067,1.067,0,0,0,.58,1.389l.956.393a5.732,5.732,0,0,0,.286,2.125l-.819.631a1.069,1.069,0,0,0-.192,1.494l.993,1.287a1.067,1.067,0,0,0,1.493.192l.819-.632a5.723,5.723,0,0,0,1.983.816l.138,1.023a1.068,1.068,0,0,0,1.2.913l1.611-.217a1.068,1.068,0,0,0,.913-1.2l-.138-1.024a5.713,5.713,0,0,0,1.7-1.312l.957.393a1.068,1.068,0,0,0,1.389-.58l.618-1.5a1.068,1.068,0,0,0-.58-1.389l-.956-.392a5.733,5.733,0,0,0-.286-2.126l.818-.631a1.068,1.068,0,0,0,.192-1.493l-.993-1.287a1.068,1.068,0,0,0-1.493-.193l-.819.632a5.7,5.7,0,0,0-1.983-.816l-.138-1.024a1.068,1.068,0,0,0-1.2-.913Zm1.8,4.7a2.621,2.621,0,1,1-2.621,2.622,2.622,2.622,0,0,1,2.621-2.622M1154.4,464.781a8.881,8.881,0,1,0,6.28,2.6,8.852,8.852,0,0,0-6.28-2.6m4.565,4.317a6.456,6.456,0,1,0,1.89,4.565,6.436,6.436,0,0,0-1.89-4.565" transform="translate(-1001.519 -402.403)" fill="#fff" fill-rule="evenodd"/>
          <path id="Trazado_874696" data-name="Trazado 874696" d="M1842.648,1261.706h-6.186v22.271h6.186Zm39.3-26.824h-6.186v49.1h6.186Zm-9.826,12.266h-6.187v36.829h6.187Zm-9.826,8.9h-6.187v27.927h6.187Zm-9.826-6.716h-6.186v34.643h6.186Z" transform="translate(-1614.117 -1085.372)" fill="#fff" fill-rule="evenodd"/>
          <path id="Trazado_874697" data-name="Trazado 874697" d="M1856.671,1236.516a1.183,1.183,0,0,1-.464-2.32l5.366-1.082a1.183,1.183,0,0,1,1.392.928,1.2,1.2,0,0,1,.023.2h0l.151,5.154a1.184,1.184,0,1,1-2.366.065l-.049-1.674-14.768,20.043a1.861,1.861,0,0,1-2.4,2.251l-9.185,5.905a1.861,1.861,0,0,1-3,.375l-6.082-1.658a1.861,1.861,0,0,1-1.912.234l-14.013,8.85a1.184,1.184,0,0,1-1.262-2l14.23-8.988a1.861,1.861,0,0,1,3.462-.407l5.527,1.508a1.86,1.86,0,0,1,2.453-.341l8.543-5.492a1.862,1.862,0,0,1,1.7-1.6l15.054-20.432Z" transform="translate(-1588.706 -1083.798)" fill="#26aab7" fill-rule="evenodd"/>
          <path id="Trazado_874698" data-name="Trazado 874698" d="M2100.165,1430.352a1.346,1.346,0,1,1-1.346,1.346,1.346,1.346,0,0,1,1.346-1.346" transform="translate(-1844.71 -1257.176)" fill="#fae0da" fill-rule="evenodd"/>
          <path id="Trazado_874699" data-name="Trazado 874699" d="M2005.836,1486.349a1.346,1.346,0,1,1-1.346,1.346,1.346,1.346,0,0,1,1.346-1.346" transform="translate(-1761.802 -1306.393)" fill="#fae0da" fill-rule="evenodd"/>
          <path id="Trazado_874700" data-name="Trazado 874700" d="M1934.811,1470.985a1.346,1.346,0,1,1-1.346,1.346,1.346,1.346,0,0,1,1.346-1.346" transform="translate(-1699.376 -1292.89)" fill="#fae0da" fill-rule="evenodd"/>
          <path id="Trazado_874701" data-name="Trazado 874701" d="M2119.706,918.524l15.436,3.018a15.625,15.625,0,0,0-6.183-15.361Z" transform="translate(-1863.068 -796.468)" fill="#26aab7" fill-rule="evenodd"/>
          <path id="Trazado_874702" data-name="Trazado 874702" d="M2008.26,904.606l-16.249-3.176,9.74-12.995a15.605,15.605,0,1,0,6.509,16.171" transform="translate(-1737.975 -778.503)" fill="#fff" fill-rule="evenodd"/>
          <rect id="Rectángulo_401703" data-name="Rectángulo 401703" width="8.678" height="2.998" transform="translate(139.915 126.727)" fill="#fff"/>
          <path id="Trazado_874703" data-name="Trazado 874703" d="M1117.119,849.569a1.429,1.429,0,0,0,.869-1.373v-.212c.1-5.872,5.262-7.517,5.679-14.012a9.855,9.855,0,0,0-.01-1.428c-.808-4.926-5.49-8.234-10.751-8.234-5.995,0-11.238,4.295-10.854,10.386.4,6.3,5.313,7.9,5.41,13.594a1.364,1.364,0,0,0,1.221,1.278Z" transform="translate(-968.606 -724.509)" fill="#26aab7" fill-rule="evenodd"/>
          <path id="Trazado_874704" data-name="Trazado 874704" d="M1121.828,853.772l-2.244,1.954-4.141-1-1.916-.954-.026,0c-.2-.006-.49-.421-.493-.619a10.153,10.153,0,0,0-1.7-5.417c-.762-1.236-1.655-2.383-2.357-3.657a10.474,10.474,0,0,1-1.352-4.553,8.434,8.434,0,0,1,1.579-5.554,10.6,10.6,0,0,1,8.606-4.118c4.647,0,9.28,2.841,10.083,7.644a9.147,9.147,0,0,1,.008,1.3,10.694,10.694,0,0,1-1.439,4.736c-.749,1.325-1.7,2.516-2.5,3.807a10.306,10.306,0,0,0-1.743,5.513v.212a.753.753,0,0,1-.364.7" transform="translate(-973.481 -729.384)" fill="#fff" fill-rule="evenodd"/>
          <path id="Trazado_874705" data-name="Trazado 874705" d="M1118.912,854.581l-.823.782-2.645-.638-1.916-.954-.026,0c-.2-.006-.49-.421-.493-.619a10.144,10.144,0,0,0-1.7-5.416c-.761-1.236-1.654-2.384-2.357-3.657a10.472,10.472,0,0,1-1.352-4.553,8.431,8.431,0,0,1,1.579-5.554,10.6,10.6,0,0,1,8.605-4.118,11.6,11.6,0,0,1,2.9.372,9.524,9.524,0,0,1,4.263,6.607,10.888,10.888,0,0,1,.008,1.421,12.436,12.436,0,0,1-1.44,5.166c-.748,1.445-1.7,2.744-2.5,4.152a11.966,11.966,0,0,0-1.743,6.013v.231a.843.843,0,0,1-.364.765" transform="translate(-973.481 -729.384)" fill="#fff" fill-rule="evenodd"/>
          <path id="Trazado_874706" data-name="Trazado 874706" d="M1153.01,1038.288a1.312,1.312,0,0,0,1.3,1.179h1l.389.636c.224.366.355.39.784.39h2.353c.429,0,.559-.023.784-.39l.389-.636h1a1.312,1.312,0,0,0,1.3-1.153v-.458a.341.341,0,0,0-.33-.261h-8.637a.341.341,0,0,0-.33.264c0,.014.005.042,0,.048Zm8.848-3.005h-8.393a.462.462,0,0,0-.461.461v.715a.462.462,0,0,0,.461.461h8.393a.463.463,0,0,0,.461-.461v-.715a.462.462,0,0,0-.461-.461m-.019-2.354h-8.356a.481.481,0,0,0-.479.48v.744a.481.481,0,0,0,.479.48h8.356a.482.482,0,0,0,.48-.48v-.744a.482.482,0,0,0-.48-.48" transform="translate(-1013.407 -907.87)" fill="#26aab7" fill-rule="evenodd"/>
          <path id="Trazado_874707" data-name="Trazado 874707" d="M1144.2,925.575l.889-10.748h1.287a2.014,2.014,0,0,0,1.427-.593h0a2.019,2.019,0,0,0-1.426-3.446,1.927,1.927,0,0,0-1.379.574,2.269,2.269,0,0,0-.639,1.407l-.1,1.151h-3.938l-.1-1.151a2.27,2.27,0,0,0-.639-1.407,1.927,1.927,0,0,0-1.379-.574,2.014,2.014,0,0,0-1.426.594h0a2.02,2.02,0,0,0,1.427,3.447h1.287l.889,10.748h.906l-.884-10.748h3.78l-.885,10.748Zm.968-11.655.094-1.074a1.358,1.358,0,0,1,.376-.843,1.032,1.032,0,0,1,.738-.309,1.112,1.112,0,0,1,.787,1.9h0a1.111,1.111,0,0,1-.786.327Zm-5.759,0H1138.2a1.111,1.111,0,0,1-.785-1.9v0a1.109,1.109,0,0,1,.785-.325,1.033,1.033,0,0,1,.738.309,1.362,1.362,0,0,1,.377.843Z" transform="translate(-998.622 -800.515)" fill="#26aab7" fill-rule="evenodd"/>
          <path id="Trazado_874708" data-name="Trazado 874708" d="M1121.128,847.6a.566.566,0,1,0-.44-1.043c-.235.1-.458.206-.667.319s-.427.242-.632.378a.567.567,0,1,0,.626.946q.262-.173.543-.325t.57-.274m-2.493,1.809a.568.568,0,1,0-.857-.746,7.721,7.721,0,0,0-1.406,2.352,7.588,7.588,0,0,0-.488,2.681.568.568,0,1,0,1.137,0,6.461,6.461,0,0,1,.412-2.281,6.6,6.6,0,0,1,1.2-2.006" transform="translate(-980.781 -744.024)" fill="#26aab7" fill-rule="evenodd"/>
          <path id="Trazado_874709" data-name="Trazado 874709" d="M1033.751,743.144h0a.485.485,0,0,1,.484.484v6.117a.485.485,0,1,1-.969,0v-6.117a.486.486,0,0,1,.485-.484m-18.022,31.791h0a.486.486,0,0,0,.655.2l5.411-2.852a.486.486,0,0,0,.2-.655h0a.485.485,0,0,0-.655-.2l-5.411,2.852a.486.486,0,0,0-.2.655m-3.311-10.182h0a.487.487,0,0,0,.516.452l6.1-.4a.486.486,0,0,0,.452-.516h0a.485.485,0,0,0-.515-.451l-6.1.4a.486.486,0,0,0-.452.516m1.985-10.326h0a.486.486,0,0,0,.287.623l5.738,2.12a.486.486,0,0,0,.622-.287h0a.485.485,0,0,0-.287-.622l-5.738-2.12a.486.486,0,0,0-.622.286m7.5-8.224h0a.486.486,0,0,0-.1.678l3.651,4.908a.487.487,0,0,0,.678.1h0a.486.486,0,0,0,.1-.678l-3.652-4.907a.485.485,0,0,0-.678-.1m29.867,28.732h0a.486.486,0,0,1-.655.2l-5.411-2.852a.486.486,0,0,1-.2-.655h0a.485.485,0,0,1,.655-.2l5.411,2.852a.486.486,0,0,1,.2.655m3.311-10.182h0a.486.486,0,0,1-.515.452l-6.1-.4a.487.487,0,0,1-.452-.516h0a.486.486,0,0,1,.515-.451l6.1.4a.486.486,0,0,1,.452.516m-1.985-10.326h0a.487.487,0,0,1-.286.623l-5.738,2.12a.486.486,0,0,1-.622-.287h0a.486.486,0,0,1,.287-.622l5.738-2.12a.486.486,0,0,1,.622.286m-7.5-8.224h0a.486.486,0,0,1,.1.678l-3.652,4.908a.486.486,0,0,1-.677.1h0a.486.486,0,0,1-.1-.678l3.651-4.907a.486.486,0,0,1,.678-.1" transform="translate(-889.841 -653.17)" fill="#26aab7" fill-rule="evenodd"/>
          <path id="Trazado_874710" data-name="Trazado 874710" d="M1281.651,1223.474a15.332,15.332,0,0,1,12,14.964q0,.635-.052,1.257l-10.383.559a5.224,5.224,0,0,0-3.264-6.775Z" transform="translate(-1124.986 -1075.345)" fill="#26aab7" fill-rule="evenodd"/>
          <path id="Trazado_874711" data-name="Trazado 874711" d="M1140.684,1242.538l1.7-10.007a15.352,15.352,0,0,0-15.305,5.4l8.206,5.958a5.228,5.228,0,0,1,5.4-1.355m-14.468-3.414,8.212,5.962a5.22,5.22,0,0,0,.444,5.53l-7.244,7.1a15.327,15.327,0,0,1-1.412-18.587m2.441,19.633a15.33,15.33,0,0,0,18.562,1.715l-5.787-8.328a5.219,5.219,0,0,1-5.527-.486Zm19.765.874-5.792-8.334a5.225,5.225,0,0,0,1.318-1.984l10.384-.559a15.307,15.307,0,0,1-5.911,10.877" transform="translate(-987.675 -1082.988)" fill="#fff" fill-rule="evenodd"/>
          <path id="Trazado_874712" data-name="Trazado 874712" d="M1445.7,1157.416h13.625a.673.673,0,0,1,.6.722v9.111a.673.673,0,0,1-.6.722H1445.7a.673.673,0,0,1-.6-.722v-9.111a.673.673,0,0,1,.6-.722" transform="translate(-1270.137 -1017.285)" fill="#26aab7" fill-rule="evenodd"/>
          <path id="Trazado_874713" data-name="Trazado 874713" d="M1453.63,1196l4.435,3.456,2.48,1.932a.589.589,0,0,1-.506.329h-13.625a.588.588,0,0,1-.506-.329l2.48-1.932,4.431-3.453a.525.525,0,0,1,.81,0" transform="translate(-1270.85 -1051.03)" fill="#53cfdb" fill-rule="evenodd"/>
          <path id="Trazado_874714" data-name="Trazado 874714" d="M1453.092,1163.384l4.435-3.455,2.555-1.99a.633.633,0,0,0-.58-.523h-13.625a.633.633,0,0,0-.58.523l2.555,1.99,4.431,3.453a.525.525,0,0,0,.81,0" transform="translate(-1270.311 -1017.285)" fill="#aee6e6" fill-rule="evenodd"/>
          <path id="Trazado_874715" data-name="Trazado 874715" d="M1453.092,1163.025l4.435-3.247,2.555-1.871a.621.621,0,0,0-.58-.491h-13.625a.621.621,0,0,0-.58.491l2.555,1.871,4.431,3.245a.546.546,0,0,0,.81,0" transform="translate(-1270.311 -1017.285)" fill="#fff" fill-rule="evenodd"/>
          <path id="Trazado_874716" data-name="Trazado 874716" d="M1577.7,1161.129l19.156-.1a.632.632,0,0,1,.009,1.244l-19.157.1a.631.631,0,0,1-.007-1.243m-.015-2.214,25.919-.167a.63.63,0,0,1,.008,1.241l-25.918.167a.63.63,0,0,1-.009-1.241m.042,6.055,25.92-.165a.631.631,0,0,1,.007,1.242l-25.919.167a.632.632,0,0,1-.008-1.245m.015,2.216,19.155-.1a.631.631,0,0,1,.01,1.243l-19.158.1a.631.631,0,0,1-.007-1.243" transform="translate(-1386.213 -1018.456)" fill="#26aab7" fill-rule="evenodd"/>
          <path id="Trazado_874717" data-name="Trazado 874717" d="M1553.338,1316.215h13.624a.673.673,0,0,1,.6.722v9.111a.672.672,0,0,1-.6.722h-13.624a.672.672,0,0,1-.6-.722v-9.111a.673.673,0,0,1,.6-.722" transform="translate(-1364.741 -1156.858)" fill="#26aab7" fill-rule="evenodd"/>
          <path id="Trazado_874718" data-name="Trazado 874718" d="M1561.261,1354.8l4.435,3.455,2.48,1.932a.587.587,0,0,1-.506.329h-13.624a.589.589,0,0,1-.506-.329l2.48-1.932,4.431-3.453c.326-.26.485-.251.809,0" transform="translate(-1365.449 -1190.602)" fill="#53cfdb" fill-rule="evenodd"/>
          <path id="Trazado_874719" data-name="Trazado 874719" d="M1560.724,1322.183l4.435-3.455,2.555-1.99a.634.634,0,0,0-.581-.523h-13.624a.633.633,0,0,0-.581.523l2.555,1.99,4.431,3.453a.525.525,0,0,0,.809,0" transform="translate(-1364.911 -1156.858)" fill="#aee6e6" fill-rule="evenodd"/>
          <path id="Trazado_874720" data-name="Trazado 874720" d="M1560.724,1321.825l4.435-3.248,2.555-1.871a.622.622,0,0,0-.581-.491h-13.624a.621.621,0,0,0-.581.491l2.555,1.871,4.431,3.245a.547.547,0,0,0,.809,0" transform="translate(-1364.911 -1156.858)" fill="#fff" fill-rule="evenodd"/>
          <path id="Trazado_874721" data-name="Trazado 874721" d="M1685.328,1319.928l19.156-.1a.632.632,0,0,1,.009,1.244l-19.158.1a.631.631,0,0,1-.007-1.243m-.015-2.214,25.919-.167a.63.63,0,0,1,.008,1.241l-25.918.167a.63.63,0,0,1-.009-1.241m.042,6.054,25.92-.165a.631.631,0,0,1,.007,1.243l-25.919.167a.632.632,0,0,1-.008-1.245m.015,2.217,19.156-.1a.631.631,0,0,1,.01,1.243l-19.158.1a.631.631,0,0,1-.008-1.243" transform="translate(-1480.814 -1158.029)" fill="#26aab7" fill-rule="evenodd"/>
          <path id="Trazado_874722" data-name="Trazado 874722" d="M1766.826,1686.094a10.766,10.766,0,1,1,10.766,10.766,10.778,10.778,0,0,1-10.766-10.766" transform="translate(-1552.912 -1472.492)" fill="#fff" fill-rule="evenodd"/>
          <path id="Trazado_874724" data-name="Trazado 874724" d="M1777.591,1676.148a9.946,9.946,0,1,0,9.946,9.946,9.957,9.957,0,0,0-9.946-9.946m0,20.712a10.766,10.766,0,1,1,10.767-10.766,10.778,10.778,0,0,1-10.767,10.766" transform="translate(-1552.911 -1472.492)" fill="#26aab7" fill-rule="evenodd"/>
          <path id="Trazado_874725" data-name="Trazado 874725" d="M1807.5,1676.148c-3.212,0-5.825,4.462-5.825,9.946s2.614,9.945,5.825,9.945,5.826-4.461,5.826-9.945-2.614-9.946-5.826-9.946m0,20.712c-3.665,0-6.647-4.83-6.647-10.766s2.982-10.766,6.647-10.766,6.647,4.83,6.647,10.766-2.982,10.766-6.647,10.766" transform="translate(-1582.816 -1472.492)" fill="#26aab7" fill-rule="evenodd"/>
          <path id="Trazado_874726" data-name="Trazado 874726" d="M1837.645,1676.148c-.5,0-1.673,3.384-1.673,9.946s1.173,9.945,1.673,9.945,1.673-3.384,1.673-9.945-1.173-9.946-1.673-9.946m0,20.712c-1.972,0-2.493-7.042-2.493-10.766s.521-10.766,2.493-10.766,2.494,7.043,2.494,10.766-.521,10.766-2.494,10.766" transform="translate(-1612.966 -1472.492)" fill="#26aab7" fill-rule="evenodd"/>
          <rect id="Rectángulo_401704" data-name="Rectángulo 401704" width="20.712" height="0.821" transform="translate(214.323 213.192)" fill="#26aab7"/>
          <path id="Trazado_874727" data-name="Trazado 874727" d="M1793.716,1713.63a14.4,14.4,0,0,1-8.545-2.442l.5-.647a15.359,15.359,0,0,0,16.131-.04l.51.643a14.31,14.31,0,0,1-8.6,2.486" transform="translate(-1569.036 -1503.408)" fill="#26aab7" fill-rule="evenodd"/>
          <path id="Trazado_874728" data-name="Trazado 874728" d="M1801.806,1795.148a15.359,15.359,0,0,0-16.131-.04l-.5-.648a16.147,16.147,0,0,1,17.146.045Z" transform="translate(-1569.036 -1575.055)" fill="#26aab7" fill-rule="evenodd"/>
          <path id="Trazado_874729" data-name="Trazado 874729" d="M1819.926,1690.321c-2.435,0-4.986-.791-5.148-2.3l.815-.088c.08.742,1.879,1.569,4.333,1.569s4.217-.8,4.33-1.549l.811.123c-.2,1.3-2.359,2.247-5.141,2.247" transform="translate(-1595.059 -1483.57)" fill="#26aab7" fill-rule="evenodd"/>
          <path id="Trazado_874730" data-name="Trazado 874730" d="M1814.28,1823.076l-.815-.088c.163-1.512,2.713-2.3,5.148-2.3,2.783,0,4.945.945,5.141,2.247l-.812.123c-.113-.749-1.879-1.55-4.33-1.55s-4.252.827-4.333,1.57" transform="translate(-1593.904 -1600.251)" fill="#26aab7" fill-rule="evenodd"/>
          <path id="Trazado_874733" data-name="Trazado 874733" d="M1327.029,1493.656l-4.065-7.5-4.064,7.5-4.064,7.5h19.976l-2.843-5.249-2.844-5.248-1.859,3.432Zm-.994-7.855a1.927,1.927,0,1,1,1.927,1.927,1.927,1.927,0,0,1-1.927-1.927" transform="translate(-1155.646 -1304.219)" fill="#fff" fill-rule="evenodd"/>
          <path id="Trazado_874734" data-name="Trazado 874734" d="M1200.49,253.994l-7.052,4.072-7.579,4.376c-1.023.591-.7.262-.7-1.013V244.534c0-1.183.125-.74,1.228-.1l7.053,4.072,7.578,4.376c1.024.591.578.477-.526,1.115" transform="translate(-1041.624 -214.278)" fill="#fff" fill-rule="evenodd"/>
          <path id="Trazado_874735" data-name="Trazado 874735" d="M1199.513,263.28l-6.6,3.813-7.1,4.1c-.958.554-.657.246-.657-.949V254.42c0-1.107.117-.692,1.15-.1l6.6,3.813,7.1,4.1c.959.554.541.447-.493,1.044" transform="translate(-1041.624 -223.009)" fill="#fff" fill-rule="evenodd"/>
          <path id="Trazado_874736" data-name="Trazado 874736" d="M873.128,585.46h-3.946l.182,2.275a.332.332,0,0,1-.577.25l-2.29-2.524H846.655a1.855,1.855,0,0,1-1.855-1.854v-7.233a1.854,1.854,0,0,1,1.855-1.855h26.473a1.855,1.855,0,0,1,1.855,1.855v7.233a1.855,1.855,0,0,1-1.855,1.854" transform="translate(-742.518 -504.96)" fill="#fff" fill-rule="evenodd"/>
          <path id="Trazado_874737" data-name="Trazado 874737" d="M889.032,599.061h-3.54a.386.386,0,1,1,0-.773h3.54a.386.386,0,0,1,0,.773m-15,4.414h-9.821a.386.386,0,1,1,0-.773h9.821a.386.386,0,1,1,0,.773m11.15,0h-9.566a.386.386,0,0,1,0-.773h9.566a.386.386,0,1,1,0,.773m-14.89-2.207h-6.081a.386.386,0,1,1,0-.773h6.081a.386.386,0,1,1,0,.773m18.74,0h-17.04a.386.386,0,1,1,0-.773h17.04a.386.386,0,1,1,0,.773m-5.178-2.207H864.212a.386.386,0,1,1,0-.773h19.642a.386.386,0,0,1,0,.773" transform="translate(-759.24 -525.852)" fill="#26aab7" fill-rule="evenodd"/>
          <path id="Trazado_874738" data-name="Trazado 874738" d="M861.451,1296.915a24.653,24.653,0,0,0-.406,5.423c1.313,28.674-12.921,30.656-5.833-4.008a44.809,44.809,0,0,1,1.411-4.317c.593-3,3.692-4.119,6.594-3.586,1.651.3,3.518,1.38,3.707,4.647,1.078,7,1.859,8.334,2.5,9.489-.623.482-.9.37-1.177-.161-.248-.47-.427-1.032-.5-1.171a14.181,14.181,0,0,0,.562,1.755c8.152,35.789-8.387,4.474-6.858-8.072" transform="translate(-749.921 -1134.08)" fill="#09378c" fill-rule="evenodd"/>
          <path id="Trazado_874739" data-name="Trazado 874739" d="M935.937,1292.817c3.095,1.28,2.353,2.547,3.306,3.968,0,0,.448-3.067-1.121-4.505-2.2-1.817-2.912.141-2.185.537" transform="translate(-822.38 -1135.152)" fill="#09378c" fill-rule="evenodd"/>
          <path id="Trazado_874740" data-name="Trazado 874740" d="M923.341,1302.4s-.513,4.587-3.383,6.431c0,0,2.689-3.148,2.542-6.108s.841-.323.841-.323" transform="translate(-808.577 -1143.769)" fill="#09378c" fill-rule="evenodd"/>
          <path id="Trazado_874741" data-name="Trazado 874741" d="M933.256,1287.494q.644.049.717-.394a1.876,1.876,0,0,0-1.293-.97,1.5,1.5,0,0,1,.4.694,5.409,5.409,0,0,1,.172.669" transform="translate(-819.758 -1130.416)" fill="#09378c" fill-rule="evenodd"/>
          <path id="Trazado_874742" data-name="Trazado 874742" d="M937.681,1288.959q-.483.065-.558-.266a1.42,1.42,0,0,1,.934-.787,1.821,1.821,0,0,0-.376,1.053" transform="translate(-823.663 -1131.977)" fill="#09378c" fill-rule="evenodd"/>
          <path id="Trazado_874743" data-name="Trazado 874743" d="M979.675,1950.039a38.532,38.532,0,0,1-1.228,5.813c-.053.146-.573.7-.629.846.462,3.5,2.706,5.469,4.79,6.84-.522-1.748-1.591-3.728-1.484-4.129a52.593,52.593,0,0,1,2.3-7.249c-1.685-.1-2.334-1.129-3.749-2.122" transform="translate(-859.431 -1713.943)" fill="#f4ae7c" fill-rule="evenodd"/>
          <path id="Trazado_874744" data-name="Trazado 874744" d="M872.295,1598.075l-11,7.609s4.835,5.542,6.65,7.6,11.151,9.7,11.287,10.158a15.39,15.39,0,0,0-.826,2.4c-.7,3.51-1.71,10.363-2.3,16.254,1.026,1.253,3.421,1.713,4.835,2.191,4.1-6.986,6.432-20.82,6.546-22.5.177-2.725-15.2-23.713-15.2-23.713" transform="translate(-757.019 -1404.593)" fill="#3156a4" fill-rule="evenodd"/>
          <path id="Trazado_874745" data-name="Trazado 874745" d="M651.734,1696.421a48.7,48.7,0,0,1,4.476,6.821c1.139-1.025,1.759-2.13,3.082-2.906a36.757,36.757,0,0,1-4.365-6.1c-.737-2.2-1.278-2.447-1.278-2.447s-6.924,3.72-7.308,4.525,3.839-1.073,5.393.106" transform="translate(-568.065 -1486.961)" fill="#f4ae7c" fill-rule="evenodd"/>
          <path id="Trazado_874746" data-name="Trazado 874746" d="M639.988,1686.5c.565-.086-.42-2.656-.639-3.245-.241-.667-.652-.816-.752-.828-.268-.019-7.964,4.121-9.184,5.36a1.713,1.713,0,0,0-.239.384c-.546,1.581,6.167.8,7.039,0,.773-.7,1.233-1.272,3.775-1.675" transform="translate(-552.971 -1478.735)" fill="#09378c" fill-rule="evenodd"/>
          <path id="Trazado_874747" data-name="Trazado 874747" d="M744.941,1587.161l-8.872-4.455c.035.025-.08.388-.088.414-.141.445-1.511-.645-1.787-.182-1.327,2.228-4.075,2.736-6.061,7.892-1.608,4.178-1.966,18.606-1.966,18.606s-4.032-3.442-8.264-7.1c-.388-.329-3.863,2.992-3.863,2.992,5.329,10.681,14.464,15.338,15.7,14.949,4.2-1.3,12.328-28.262,12.32-28.264.908-1.579,2.885-4.853,2.885-4.853" transform="translate(-627.59 -1391.084)" fill="#3e62ac" fill-rule="evenodd"/>
          <path id="Trazado_874748" data-name="Trazado 874748" d="M620.016,1330.733s-11.053-3.093-13.522-3.633-10.974-3.98-11.3-4.12-1.343-4.8-1.846-4.49.64,2.352.018,2.592-5.72-2.3-5.777-1.862c-.107.817,3.057,1.684,2.94,2.056s-3.216-1.219-3.63-.67,3.075,1.228,3.122,1.55-3.371-.183-3.215.5c.085.367,3.054.367,2.911.787s-2.424.786-2.289,1.21,1.875-.568,3.031-.237,2.167-.038,3.836,1.053c2.127.438,9.909,3.192,12.32,6.438,3.966,1.016,11.486,3.481,11.486,3.481Z" transform="translate(-515.755 -1158.844)" fill="#f4ae7c" fill-rule="evenodd"/>
          <path id="Trazado_874749" data-name="Trazado 874749" d="M968.7,1186.476s5.053-10.314,6.294-12.506,4.331-10.842,4.44-11.188-2.681-4.193-2.115-4.361,1.324,2.042,1.922,1.743,2.09-5.8,2.452-5.551c.681.463-.779,3.4-.421,3.559s1.23-3.207,1.92-3.147-1.135,3.107-.928,3.353,2.114-2.637,2.517-2.065c.221.312-1.759,2.526-1.347,2.695s2.2-1.274,2.422-.9-1.673,1.016-2.191,2.105-1.759,1.614-2.057,3.587c-.657,2.144-1.416,9.321-3.06,12.838-1.888,3.641-5.091,11.5-5.091,11.5Z" transform="translate(-851.415 -1014.815)" fill="#f4ae7c" fill-rule="evenodd"/>
          <path id="Trazado_874750" data-name="Trazado 874750" d="M890.079,1257.665c.286-1.966.9-7.263.857-7.925.522-1.952,7.47-14.569,8.843-21.99l1.119-6.049-2.536-.887c-.465-.163-1.047,1.4-1.451,2.065-1.87,3.093-4.033,11.389-7.2,17.474,0,0-2.421,2.794-4.136,3.59a4.135,4.135,0,0,1-.849.2c-1.6-.111-7.169-.658-8.235-.4l0,9.05c.265.543-.05,10.929.511,11.828s9.294,5.362,10.849,4.46c.061-.033,1.65-7.448,2.226-11.416" transform="translate(-770.374 -1072.996)" fill="#5d9cd4" fill-rule="evenodd"/>
          <path id="Trazado_874751" data-name="Trazado 874751" d="M678.209,1362.489c-.552-.026-.674.018-1.529-.049-3.583.361-12.049-1.246-15.207-2.568-1.168-.489-11.568-4.647-12.321-3.849-.276.292-1.716,1.655-1.215,2.363,2.89,4.083,21.308,10.168,21.312,10.175s6.6,1.469,6.369,2.03Z" transform="translate(-569.398 -1191.757)" fill="#5d9cd4" fill-rule="evenodd"/>
          <path id="Trazado_874752" data-name="Trazado 874752" d="M916.229,1373.984a25.242,25.242,0,0,1,.177,4.393c-.2,1.229.1,5.241,2.6,5.418s.807-5.026.652-6.255a47.773,47.773,0,0,1,.031-4.966Z" transform="translate(-805.299 -1206.393)" fill="#f4ae7c" fill-rule="evenodd"/>
          <path id="Trazado_874753" data-name="Trazado 874753" d="M919.618,1374.448c.026-1.026.068-1.874.068-1.874l-3.457,1.41s.076.642.143,1.466a2.858,2.858,0,0,0,3.246-1" transform="translate(-805.299 -1206.393)" fill="#ec724c" fill-rule="evenodd"/>
          <path id="Trazado_874754" data-name="Trazado 874754" d="M895.1,1310.006a4.34,4.34,0,0,0-1.92,2.263c-.578,1.583-.315,5.809,2.954,7.04s4.933-1.988,4.415-4.628-1.8-6.017-5.449-4.675" transform="translate(-784.829 -1151.133)" fill="#f4ae7c" fill-rule="evenodd"/>
          <path id="Trazado_874755" data-name="Trazado 874755" d="M949.454,1332.752c-.108.686-.512,1.2-.9,1.131s-.607-.678-.5-1.365.515-1.2.9-1.139.608.679.494,1.373" transform="translate(-833.25 -1170.181)" fill="#f4ae7c" fill-rule="evenodd"/>
          <path id="Trazado_874756" data-name="Trazado 874756" d="M958.718,1998.061c-.235-.546-2.281,1.341-2.767,1.728a1.185,1.185,0,0,0-.548.992c.051.268,5.8,6.93,7.433,7.794a.888.888,0,0,0,.558.032c.864-.41-.84-6.03-2.048-7.091a7.161,7.161,0,0,1-2.628-3.455" transform="translate(-839.727 -1756.065)" fill="#09378c" fill-rule="evenodd"/>
          <path id="Trazado_874757" data-name="Trazado 874757" d="M888.4,1355.48c.35.635.3,1.352-.109,1.607s-1.032-.067-1.381-.7-.3-1.352.107-1.6,1.031.057,1.383.692" transform="translate(-779.323 -1190.686)" fill="#f4ae7c" fill-rule="evenodd"/>
          <path id="Trazado_874758" data-name="Trazado 874758" d="M894.535,1298.792s-1.468,3.545-3.55,4.005-2.961-.123-2.961-.123a5.851,5.851,0,0,0,2.029-3.389s3.526-2.238,4.482-.494" transform="translate(-780.509 -1140.96)" fill="#09378c" fill-rule="evenodd"/>
          <path id="Trazado_874759" data-name="Trazado 874759" d="M936.865,1312.262q-.607-.188-.774.221a1.847,1.847,0,0,0,1.028,1.214,2.371,2.371,0,0,1-.255-1.435" transform="translate(-822.756 -1153.332)" fill="#09378c" fill-rule="evenodd"/>
          <path id="Trazado_874760" data-name="Trazado 874760" d="M917.292,1411.449a33.749,33.749,0,0,1,.7,4.1,2.31,2.31,0,0,1-.53,1.827,1.579,1.579,0,0,1-1.97-.211,6.169,6.169,0,0,1-1.152-3.327q-.1-1.15-.122-1.763c-.009-.331-.107-.867-.1-.88l-.516-.039c-.105.1.026.438.041.934q.018.625.126,1.809v.011a6.656,6.656,0,0,0,1.3,3.647,2.108,2.108,0,0,0,2.656.321l.052-.032a2.745,2.745,0,0,0,.775-2.3,17.287,17.287,0,0,0-.731-4.193Z" transform="translate(-802.954 -1240.303)" fill="#498ac9" fill-rule="evenodd"/>
          <path id="Trazado_874761" data-name="Trazado 874761" d="M770.9,1396.235a38.9,38.9,0,0,1-1.185,3.994,4.5,4.5,0,0,1-.67,1.327l.373.162c.371.065.433-.257.829-1.286a39.26,39.26,0,0,0,1.208-4.057Z" transform="translate(-675.937 -1227.19)" fill="#498ac9" fill-rule="evenodd"/>
          <path id="Trazado_874762" data-name="Trazado 874762" d="M763.778,1394.094a38.877,38.877,0,0,1-1.186,3.994,4.193,4.193,0,0,1-.607,1.255l.373.2c.372.066.371-.219.767-1.248a39.4,39.4,0,0,0,1.208-4.057Z" transform="translate(-669.73 -1225.308)" fill="#498ac9" fill-rule="evenodd"/>
          <path id="Trazado_874763" data-name="Trazado 874763" d="M1017.024,1318.044a28.976,28.976,0,0,1-3.1-.893,5.89,5.89,0,0,1-1.653-.863l-.206.554a5.3,5.3,0,0,0,1.66.844,27.185,27.185,0,0,0,3.08.918Z" transform="translate(-889.535 -1156.922)" fill="#498ac9" fill-rule="evenodd"/>
          <path id="Trazado_874764" data-name="Trazado 874764" d="M1014.453,1324.887a27.65,27.65,0,0,1-3.07-.917,5.935,5.935,0,0,1-1.659-.861l-.207.546a5.328,5.328,0,0,0,1.666.849,27.381,27.381,0,0,0,3.066.895Z" transform="translate(-887.293 -1162.918)" fill="#498ac9" fill-rule="evenodd"/>
          <path id="Trazado_874765" data-name="Trazado 874765" d="M877.295,1475.913c-.71,2.966-.341,10.066.375,12.96.012.119.024.239.036.361a4.538,4.538,0,0,1-.589-.449.728.728,0,0,1-.108-.127,5.162,5.162,0,0,1-.25-1.632c-.229-3.568-.261-7.7-.26-11.326l.033.018a2.621,2.621,0,0,0,.764.2" transform="translate(-770.378 -1297.034)" fill="#498ac9" fill-rule="evenodd"/>
          <path id="Trazado_874766" data-name="Trazado 874766" d="M933.67,1460.121a.784.784,0,1,0,.752.784.769.769,0,0,0-.752-.784" transform="translate(-819.968 -1283.341)" fill="#498ac9" fill-rule="evenodd"/>
          <path id="Trazado_874767" data-name="Trazado 874767" d="M937.126,1473.794a.366.366,0,1,0,.35.365.358.358,0,0,0-.35-.365" transform="translate(-823.358 -1295.359)" fill="#498ac9" fill-rule="evenodd"/>
          <path id="Trazado_874768" data-name="Trazado 874768" d="M937.967,1482.864a.245.245,0,1,0,.234.244.24.24,0,0,0-.234-.244" transform="translate(-824.199 -1303.33)" fill="#498ac9" fill-rule="evenodd"/>
          <path id="Trazado_874769" data-name="Trazado 874769" d="M903.443,1342.78c-1.37-.431-.948-.34-2.112.1a1.371,1.371,0,0,1,1.619-.529c.339.089.4.083.493.427" transform="translate(-792.205 -1179.765)" fill="#0053a1" fill-rule="evenodd"/>
          <path id="Trazado_874770" data-name="Trazado 874770" d="M910.762,1347.506a.331.331,0,0,1-.444-.179.368.368,0,0,1,.11-.488.331.331,0,0,1,.444.179.368.368,0,0,1-.11.489" transform="translate(-800.062 -1183.744)" fill="#0053a1" fill-rule="evenodd"/>
          <path id="Trazado_874771" data-name="Trazado 874771" d="M912.441,1348.489a.118.118,0,0,1-.157-.064.129.129,0,0,1,.039-.172.116.116,0,0,1,.157.063.13.13,0,0,1-.039.173" transform="translate(-801.817 -1185.006)" fill="#bad9f2" fill-rule="evenodd"/>
          <path id="Trazado_874772" data-name="Trazado 874772" d="M930.6,1335.117c1.1-.923.839-.526,2.083-.566a1.63,1.63,0,0,0-1.874.051c-.278.212-.256.162-.209.515" transform="translate(-817.906 -1172.736)" fill="#0053a1" fill-rule="evenodd"/>
          <path id="Trazado_874773" data-name="Trazado 874773" d="M930.276,1345.5a.065.065,0,1,0-.129-.007,2.22,2.22,0,0,0,.47,1.2,1.59,1.59,0,0,1,.289.59c0,.13-.122.212-.5.225l-.186.021a.064.064,0,1,0,.015.128l.178-.02c.468-.017.625-.148.618-.358a1.611,1.611,0,0,0-.309-.656,2.133,2.133,0,0,1-.451-1.12" transform="translate(-817.531 -1182.537)" fill="#f09171" fill-rule="evenodd"/>
          <path id="Trazado_874774" data-name="Trazado 874774" d="M924.317,1369.592c-1.237.5-2.73-.844-.884-.88.531-.01.689-.383,1.1-.588.661-.326.12,1.33-.221,1.467" transform="translate(-810.87 -1202.446)" fill="#f09171" fill-rule="evenodd"/>
          <path id="Trazado_874775" data-name="Trazado 874775" d="M924.6,1369.874c-1.152.463-2.657-.768-.868-.8.552-.01.691-.379,1.121-.591.578-.285.046,1.275-.254,1.394" transform="translate(-811.167 -1202.764)" fill="#fff" fill-rule="evenodd"/>
          <path id="Trazado_874776" data-name="Trazado 874776" d="M924.452,1372.019a1.468,1.468,0,0,1-1.732-.424c.49-.117.9-.13,1.308-.2a2.6,2.6,0,0,0,.955-.551,1.856,1.856,0,0,1-.531,1.175" transform="translate(-811.004 -1204.873)" fill="#f09171" fill-rule="evenodd"/>
          <path id="Trazado_874777" data-name="Trazado 874777" d="M936.93,1338.936a.331.331,0,0,1-.444-.179.368.368,0,0,1,.11-.489.33.33,0,0,1,.444.18.368.368,0,0,1-.11.488" transform="translate(-823.063 -1176.211)" fill="#0053a1" fill-rule="evenodd"/>
          <path id="Trazado_874778" data-name="Trazado 874778" d="M938.609,1339.921a.117.117,0,0,1-.157-.063.13.13,0,0,1,.039-.173.117.117,0,0,1,.157.063.13.13,0,0,1-.039.173" transform="translate(-824.817 -1177.476)" fill="#bad9f2" fill-rule="evenodd"/>
          <path id="Trazado_874779" data-name="Trazado 874779" d="M2196.135,1243.81s4.824-8.612,6-10.442,4.232-9.107,4.343-9.393-2.108-3.729-1.614-3.847,1.043,1.815,1.569,1.586,2.07-4.885,2.372-4.654c.562.431-.833,2.886-.531,3.04s1.207-2.7,1.8-2.617-1.12,2.617-.954,2.84,1.937-2.162,2.26-1.653c.172.276-1.632,2.082-1.285,2.253s1.952-1,2.122-.662-1.484.8-1.981,1.7-1.337,1.3-1.687,2.977-.874,7.758-2.668,10.788-5.736,9.742-5.736,9.742Z" transform="translate(-1930.244 -1069.701)" fill="#f4ae7c" fill-rule="evenodd"/>
          <path id="Trazado_874780" data-name="Trazado 874780" d="M2016.54,1568.86s.391-.488.509-.661c.138-.2.505-.844.505-.844a11.567,11.567,0,0,0,1-2.361c-.177-.071-.6.209-.72.323s-.276.24-.4.355a.327.327,0,0,1-.463-.02c-.154-.141.231-.708.4-.879a26.77,26.77,0,0,1,2.436-1.775c.21-.149,1.518-4.493,2.085-5.946h0c.857-2.405,1.617-4.921,1.705-5.175l.539-10.92,4.079-1.36s-.427,12.129-.517,12.733c-.044.287-2.46,5.709-2.462,5.707-1.358,2.594-2.56,4.877-2.78,5.323,0,0-.3,1.506-.427,2.477a8.572,8.572,0,0,1-.723,2.078,6.341,6.341,0,0,1-.908,1.941c-.579.834-.413-.229-.413-.229s.8-1.743.649-1.783c-.114-.031-.493.945-1.124,1.874-.162.24-.324.476-.474.69-.394.562-.853.478-.535-.18a6.683,6.683,0,0,1,.484-.864,5.762,5.762,0,0,0,.408-.838,7.974,7.974,0,0,0,.415-.865c-.036,0-.055-.137-.236.113-.217.3-.537,1.035-.891,1.45-.2.233-.589.75-.589.75a6.485,6.485,0,0,1-.774.737c-.291-.166.069-.866.382-1.148a4.559,4.559,0,0,1,.531-.815s.615-1.27.437-1.363c-.147-.075-2.211,2.673-2.49,2.487-.228-.154.356-1.009.356-1.009" transform="translate(-1772.033 -1353.194)" fill="#f4ae7c" fill-rule="evenodd"/>
          <path id="Trazado_874781" data-name="Trazado 874781" d="M2077.111,1353.766a12.14,12.14,0,0,1,1.342-6.393c.069-1.992,1.855-2.467,3.44-2.491a.183.183,0,0,0,.1-.047,3.184,3.184,0,0,1,.841-.528,4.971,4.971,0,0,1,4.629,1.5c1.525,1.449,1.567,2,1.962,3.976,2.155,10.761,15.795,22.518-.292,26.517-1.534,1.208-5.3-4.251-6.533-6.311a54.028,54.028,0,0,1-3.368-7.742,26.557,26.557,0,0,1-2.121-8.479" transform="translate(-1825.616 -1181.473)" fill="#09378c" fill-rule="evenodd"/>
          <path id="Trazado_874782" data-name="Trazado 874782" d="M2227.144,2063.33s.463,3.2,1.259,4.237a8.272,8.272,0,0,1,1.076,1.413,4.152,4.152,0,0,1-.146,3.23c-.189.413.013.411-.416.543a2.644,2.644,0,0,1-3.172-1.486,7.5,7.5,0,0,1-.621-2.729,9.865,9.865,0,0,0-1.044-4.388Z" transform="translate(-1954.805 -1813.518)" fill="#f4ae7c" fill-rule="evenodd"/>
          <path id="Trazado_874783" data-name="Trazado 874783" d="M2071.274,2075.419a30.155,30.155,0,0,0-.055,4.789c.124.629.817,1.922.5,2.514a1.59,1.59,0,0,1-.68.739l-8.223.132c-.449.01-.151-.279.208-.544a16.591,16.591,0,0,1,2.956-1.632c.125-.059.573-.344.733-.442a5.706,5.706,0,0,0,1.177-1.038c.592-.655.642-3.836.642-3.836Z" transform="translate(-1812.866 -1824.143)" fill="#f4ae7c" fill-rule="evenodd"/>
          <path id="Trazado_874784" data-name="Trazado 874784" d="M2076.981,1672.207s-1.037,5.867-.356,9.714,3.941,39.492,3.941,39.492l3.629.2s.76-14.892.623-16.961a32.04,32.04,0,0,0-1.213-5.536l.362-12.023-4.578-15.793Z" transform="translate(-1824.999 -1468.955)" fill="#3156a4" fill-rule="evenodd"/>
          <path id="Trazado_874785" data-name="Trazado 874785" d="M2095.232,1658.915s2.856,4.289,3.535,7.839-.5,14.458.811,19.111c.708,2.518,3.39,6.405,3.8,9.661s2.008,11.776,2.008,11.776l-3.625.718-8.425-21.288-6.607-19.242-1.693-9.909Z" transform="translate(-1832.595 -1456.895)" fill="#3e62ac" fill-rule="evenodd"/>
          <path id="Trazado_874786" data-name="Trazado 874786" d="M2088.708,1466.914s3.779-.24,5.274,1.387-3.319,14.5-3.59,16.567,1.387,7.578,1.387,7.578-8.881,1.784-11.418.1c0,0-.274-14.889,0-16.369a43.771,43.771,0,0,1,3.08-8.086c.545-.591,5.267-1.183,5.267-1.183" transform="translate(-1828.38 -1289.301)" fill="#5d9cd4" fill-rule="evenodd"/>
          <path id="Trazado_874787" data-name="Trazado 874787" d="M2115.236,1424.755s.019.112.054.3a28.6,28.6,0,0,0,1.255,4.744c.531,1-1.813,4.188-4.07,3.8-.672-.114.568-2.929.507-3.229-.114-.568-.268-1.347-.426-2.145-.09-.45-.178-.908-.265-1.337-.24-1.219-.438-2.216-.438-2.216Z" transform="translate(-1856.167 -1252.183)" fill="#f4ae7c" fill-rule="evenodd"/>
          <path id="Trazado_874788" data-name="Trazado 874788" d="M2115.29,1425.055c-.036-.188-.054-.3-.054-.3l-3.382-.084s.2,1,.438,2.215c.084.427.174.882.262,1.329a3.164,3.164,0,0,0,1.616-.807,4.276,4.276,0,0,0,1.224-1.815c-.042-.215-.078-.4-.1-.538" transform="translate(-1856.167 -1252.183)" fill="#ed7d5b" fill-rule="evenodd"/>
          <path id="Trazado_874789" data-name="Trazado 874789" d="M2097.844,1361.94a3.055,3.055,0,0,1,2.593,1.106c1,1.291,2.076,5.277-.406,7.445s-4.932-.287-5.3-2.889c-.254-2.564-.043-5.6,3.11-5.663" transform="translate(-1841.051 -1197.039)" fill="#f4ae7c" fill-rule="evenodd"/>
          <path id="Trazado_874790" data-name="Trazado 874790" d="M2087.7,1398.143c.3.575.793.892,1.112.712s.333-.8.038-1.371-.794-.893-1.112-.712-.332.8-.037,1.371" transform="translate(-1834.75 -1227.618)" fill="#f4ae7c" fill-rule="evenodd"/>
          <path id="Trazado_874791" data-name="Trazado 874791" d="M2105.644,1360.85s3.219,2.923,4.721,2.607,2.326,1.532,2.326,1.532-1.987-4.232-3.7-4.6a5.616,5.616,0,0,0-3.348.464" transform="translate(-1850.709 -1195.597)" fill="#09378c" fill-rule="evenodd"/>
          <path id="Trazado_874792" data-name="Trazado 874792" d="M2235.807,2111.563a4.056,4.056,0,0,0,3.974-1.657,4.339,4.339,0,0,1,.376,3.24c-.324.71-1.275.689-2.023.716a1.95,1.95,0,0,1-1.8-1.1,6.516,6.516,0,0,1-.53-1.2" transform="translate(-1965.113 -1854.454)" fill="#142d4d" fill-rule="evenodd"/>
          <path id="Trazado_874793" data-name="Trazado 874793" d="M2062.416,2119.948a7.446,7.446,0,0,0,4.683-.184,3.754,3.754,0,0,1,.375,1.954c-.2.581-.484.712-.735.718-1.986.053-7.277.124-8.791.144a.247.247,0,0,1-.191-.407c.375-.447,4.5-2.127,4.659-2.226" transform="translate(-1808.567 -1863.12)" fill="#142d4d" fill-rule="evenodd"/>
          <path id="Trazado_874794" data-name="Trazado 874794" d="M2146.143,1391.36c-.124.673.126,1.291.556,1.379s.882-.385,1.006-1.059-.126-1.291-.558-1.379-.88.387-1,1.059" transform="translate(-1886.276 -1221.965)" fill="#f4ae7c" fill-rule="evenodd"/>
          <path id="Trazado_874795" data-name="Trazado 874795" d="M2161.14,1415s-5.338,5.73-6.129,8.038.773,5.609,2.938,5.754,6.98-10.165,6.98-10.165Z" transform="translate(-1893.914 -1243.683)" fill="#498ac9" fill-rule="evenodd"/>
          <path id="Trazado_874796" data-name="Trazado 874796" d="M2113.634,1344.047q-.814.207-1.008-.344a2.444,2.444,0,0,1,1.442-1.534,3.137,3.137,0,0,0-.434,1.878" transform="translate(-1856.845 -1179.67)" fill="#09378c" fill-rule="evenodd"/>
          <path id="Trazado_874797" data-name="Trazado 874797" d="M2112.93,1345.2q-.2.132-.3-.431a2.562,2.562,0,0,1,.253-1.387,9.6,9.6,0,0,0,.051,1.818" transform="translate(-1856.845 -1180.733)" fill="#09378c" fill-rule="evenodd"/>
          <path id="Trazado_874798" data-name="Trazado 874798" d="M2116.48,1355.817q-.665-.207-.823.345a2.3,2.3,0,0,0,1.178,1.533,3.7,3.7,0,0,1-.354-1.878" transform="translate(-1859.51 -1191.615)" fill="#09378c" fill-rule="evenodd"/>
          <path id="Trazado_874799" data-name="Trazado 874799" d="M2115.034,1358.669q-.2-.072-.3.236.011.6.253.759a2.9,2.9,0,0,1,.051-.995" transform="translate(-1858.695 -1194.16)" fill="#09378c" fill-rule="evenodd"/>
          <path id="Trazado_874800" data-name="Trazado 874800" d="M2111.864,1500.757c.042,0,.078-.04.08-.1a.1.1,0,0,0-.071-.106q-1.039-.075-2.125-.044a.092.092,0,0,0-.074.1c0,.056.036.1.078.1q1.079-.03,2.113.044" transform="translate(-1854.251 -1318.833)" fill="#498ac9" fill-rule="evenodd"/>
          <path id="Trazado_874801" data-name="Trazado 874801" d="M2118.934,1466a.125.125,0,0,0-.157-.079.124.124,0,0,0-.079.157,1.425,1.425,0,0,1-.2,1.1,7,7,0,0,1-1.152,1.48,5.487,5.487,0,0,1-1.092.773,2.8,2.8,0,0,1-1.006.318c-.056,0-.223.015-.366.017h0a1.585,1.585,0,0,1-.184,0h0c-.069-.015-.113-.076-.133-.179a1.69,1.69,0,0,1,.05-.62l0-.017c.427-1.531.544-2.231.544-2.233a.124.124,0,0,0-.245-.041s-.115.694-.539,2.213v.006l-.005.018h0a1.9,1.9,0,0,0-.051.717.421.421,0,0,0,.32.376h0a1.429,1.429,0,0,0,.244.01h0c.148,0,.326-.013.386-.019h0a3.035,3.035,0,0,0,1.095-.344,5.74,5.74,0,0,0,1.147-.812l.007-.007a7.319,7.319,0,0,0,1.2-1.538,1.659,1.659,0,0,0,.214-1.295" transform="translate(-1858.319 -1288.434)" fill="#498ac9" fill-rule="evenodd"/>
          <path id="Trazado_874802" data-name="Trazado 874802" d="M2113.989,1503.292c.031,0,.058-.04.06-.1s-.022-.1-.053-.106a11.822,11.822,0,0,0-1.58-.044c-.031,0-.056.048-.055.1s.026.1.058.1a11.644,11.644,0,0,1,1.57.044" transform="translate(-1856.613 -1321.061)" fill="#498ac9" fill-rule="evenodd"/>
          <path id="Trazado_874803" data-name="Trazado 874803" d="M2116.3,1506.08c.011,0,.021-.04.022-.095s-.008-.1-.02-.106a1.637,1.637,0,0,0-.586-.044c-.012,0-.021.047-.021.1s.01.1.021.1a1.641,1.641,0,0,1,.583.044" transform="translate(-1859.544 -1323.512)" fill="#498ac9" fill-rule="evenodd"/>
          <path id="Trazado_874804" data-name="Trazado 874804" d="M2092.578,1671.909a.124.124,0,1,0-.048-.244,38.083,38.083,0,0,1-6.43.8,12.572,12.572,0,0,1-4.461-.583.125.125,0,0,0-.083.235,12.809,12.809,0,0,0,4.548.6,38.306,38.306,0,0,0,6.474-.809" transform="translate(-1829.465 -1469.271)" fill="#498ac9" fill-rule="evenodd"/>
          <path id="Trazado_874805" data-name="Trazado 874805" d="M2091.925,1665.656a.124.124,0,1,0-.049-.243,32.044,32.044,0,0,1-6.383.737,10.681,10.681,0,0,1-4.37-.813.125.125,0,1,0-.1.227,10.928,10.928,0,0,0,4.473.834,32.251,32.251,0,0,0,6.432-.742" transform="translate(-1829.001 -1463.7)" fill="#498ac9" fill-rule="evenodd"/>
          <path id="Trazado_874806" data-name="Trazado 874806" d="M2103.847,1388.887c-.141.027-.283-.1-.318-.292a.312.312,0,0,1,.191-.387c.141-.026.283.105.318.293a.312.312,0,0,1-.192.387" transform="translate(-1848.844 -1220.131)" fill="#0053a1" fill-rule="evenodd"/>
          <path id="Trazado_874807" data-name="Trazado 874807" d="M2122.9,1382.692c1.277-.508,1.11-.441,2.22.039a1.463,1.463,0,0,0-1.769-.53c-.316.106-.375.1-.452.491" transform="translate(-1865.876 -1214.766)" fill="#0053a1" fill-rule="evenodd"/>
          <path id="Trazado_874808" data-name="Trazado 874808" d="M2127.984,1386.7c.141-.007.247-.167.238-.357s-.131-.34-.271-.333-.247.167-.237.358.131.34.271.333" transform="translate(-1870.106 -1218.205)" fill="#0053a1" fill-rule="evenodd"/>
          <path id="Trazado_874809" data-name="Trazado 874809" d="M2097.2,1384.384c-1.261-.385-1.1-.335-2.1.249a1.364,1.364,0,0,1,1.628-.7c.311.077.365.064.476.446" transform="translate(-1841.437 -1216.334)" fill="#0053a1" fill-rule="evenodd"/>
          <path id="Trazado_874810" data-name="Trazado 874810" d="M2114.545,1394.344a.1.1,0,0,0-.2,0,5.364,5.364,0,0,1-.088,1.028,2.474,2.474,0,0,0-.047.424c0,.21.037.331.131.4a.613.613,0,0,0,.416.07l.306-.015a.1.1,0,1,0-.01-.2l-.306.015a.515.515,0,0,1-.283-.027c-.037-.03-.051-.106-.053-.25a2.4,2.4,0,0,1,.045-.388,5.511,5.511,0,0,0,.09-1.063" transform="translate(-1858.236 -1225.441)" fill="#f09171" fill-rule="evenodd"/>
          <path id="Trazado_874811" data-name="Trazado 874811" d="M2113.463,1417.519c-1.432.872-2.505.125-2.194.392.27.942,1.3.939,2.194-.392" transform="translate(-1855.605 -1245.897)" fill="#fff" fill-rule="evenodd"/>
          <path id="Trazado_874812" data-name="Trazado 874812" d="M2105.257,1388.215c.026,0,.05.056.053.128s-.015.131-.041.132-.05-.056-.053-.128.015-.131.041-.132" transform="translate(-1850.332 -1220.141)" fill="#a5cded" fill-rule="evenodd"/>
          <path id="Trazado_874813" data-name="Trazado 874813" d="M2127.43,1387.547c.028,0,.054.06.057.137s-.016.141-.043.142-.053-.06-.058-.137.016-.14.044-.142" transform="translate(-1869.818 -1219.554)" fill="#a5cded" fill-rule="evenodd"/>
          <path id="Trazado_874814" data-name="Trazado 874814" d="M256.889,465.383c-1.253-.612-2.688-.765-3.027,1.6-.355,6.73,8.433,14.468,10.195,15.308,8.368,7.862,10.983-7.288,10.6-18.768l-3.338-.835s-2,15.418-3.77,13.643c-1.5-1.5-9.781-10.518-10.658-10.946" transform="translate(-223.117 -406.669)" fill="#498ac9" fill-rule="evenodd"/>
          <path id="Trazado_874815" data-name="Trazado 874815" d="M219.733,379.069q-5.118,1.854-6.566.358-1.472-.342-1.919-2.611c-1.016-2.3-.147-5.982,1.281-4.16,1.182-3.022,5.921-1.27,8.594-2.946,1.622,1.06,1.006,3.681-.161,4.567.046,3.014-.119,4.624-1.23,4.793" transform="translate(-185.284 -324.949)" fill="#09378c" fill-rule="evenodd"/>
          <path id="Trazado_874816" data-name="Trazado 874816" d="M212.422,1128.617l-.335,1.846a19,19,0,0,0,2.589,3.73c1.315,1.314,3.059,1.136,3.059.017s-2.275-3.916-2.275-5.258-3.038-.336-3.038-.336" transform="translate(-186.409 -991.654)" fill="#09378c" fill-rule="evenodd"/>
          <path id="Trazado_874817" data-name="Trazado 874817" d="M341.393,1022l-.5,3.411h8.669s-.28-.84-2.8-1.344-2.657-1.377-2.657-1.377l.2-2.2-2.293-.337Z" transform="translate(-299.617 -896.637)" fill="#09378c" fill-rule="evenodd"/>
          <path id="Trazado_874818" data-name="Trazado 874818" d="M258.744,742.353l11.136,7.106-1.011,20.152h3.3l4.53-22.93-11.411-13.845Z" transform="translate(-227.418 -644.11)" fill="#3156a4" fill-rule="evenodd"/>
          <path id="Trazado_874819" data-name="Trazado 874819" d="M208.618,727.054l-3.048,10.229s-4.67,15.275-5.425,24.11a78.548,78.548,0,0,0,0,14.877l-4.167.672s-2.4-18.344-1.51-24.5-.2-21.139-.2-21.139l1.71-4.252Z" transform="translate(-170.748 -639.028)" fill="#3e62ac" fill-rule="evenodd"/>
          <path id="Trazado_874820" data-name="Trazado 874820" d="M287.184,492.1l2.093,2.064,2.5,24.9s1.842,5.486,2.509,8.632a12.311,12.311,0,0,0-3.89,1.068c-1.019-3.108-2.334-9.113-2.334-9.113Z" transform="translate(-252.414 -432.521)" fill="#498ac9" fill-rule="evenodd"/>
          <path id="Trazado_874821" data-name="Trazado 874821" d="M228.425,510.652c.262-.262,11.486,2.1,11.486,2.1l-2.517-17.848-2.259-10.731-3.191-7.728s-4.785-1.167-5.125-.95l-.86,13.848Z" transform="translate(-198.601 -417.907)" fill="#3784c6" fill-rule="evenodd"/>
          <path id="Trazado_874822" data-name="Trazado 874822" d="M209.42,485.949s5.371-2.875,8.864.62,3.775,13.361,3.775,13.361v11.408l.5,5.08-13.085-1.556,1.762-17.415Z" transform="translate(-184.065 -426.137)" fill="#fff" fill-rule="evenodd"/>
          <path id="Trazado_874823" data-name="Trazado 874823" d="M186.516,497.728l-8.808-18.736-2.72.669c-1.984,6.046-.629,15.454-.636,18.068l-3.607,18.289s14.051-1.217,15.772.5Z" transform="translate(-150.072 -421)" fill="#5d9cd4" fill-rule="evenodd"/>
          <path id="Trazado_874824" data-name="Trazado 874824" d="M301.012,681.237h0v0Z" transform="translate(-264.567 -593.723)" fill="#7b7395" fill-rule="evenodd"/>
          <path id="Trazado_874825" data-name="Trazado 874825" d="M281.608,499.143s3.188,10.108,3.188,13.2,2.516,21.214,2.516,21.214h1.51l-2.1-21.214-2.591-9.706Z" transform="translate(-247.513 -438.711)" fill="#498ac9" fill-rule="evenodd"/>
          <path id="Trazado_874826" data-name="Trazado 874826" d="M275.4,483.539,279.6,502l-.92-13.073-.845-.884.667.149-1.674-3.615Z" transform="translate(-242.055 -424.996)" fill="#5d9cd4" fill-rule="evenodd"/>
          <path id="Trazado_874827" data-name="Trazado 874827" d="M219.962,507.862l-9.087-11.618.662-1.151h-1.1l-1.639-4.537.428-.035,4.02,3.25Z" transform="translate(-183.518 -431.133)" fill="#498ac9" fill-rule="evenodd"/>
          <path id="Trazado_874828" data-name="Trazado 874828" d="M235.651,431.264a2.524,2.524,0,0,0,1.75,2.11c.99.311,1.931.55,2.449.674.178.044.924-.393.917-.577a13.518,13.518,0,0,1-.326-3c.08-.718.158-1.372.2-1.767-.21-.526-1.8-4.53-1.7-4.274v0l-.328-.82s-3.012,7.231-2.961,7.657" transform="translate(-207.119 -372.32)" fill="#f4ae7c" fill-rule="evenodd"/>
          <path id="Trazado_874829" data-name="Trazado 874829" d="M244.319,434.27c.28.28,3.019,2.469,3.608,2.845.106-.978.3-2.667.3-2.667s-.5.432-1.694-4.308c0,0,0,.01-.007.029v0c-.068.406-2.6,3.708-2.2,4.1" transform="translate(-214.702 -378.063)" fill="#ed7d5b" fill-rule="evenodd"/>
          <path id="Trazado_874830" data-name="Trazado 874830" d="M236.541,398.508s-5.266.794-6.05-2.791-2.054-5.825,1.575-6.837,4.643.2,5.2,1.333.752,7.853-.72,8.3" transform="translate(-201.821 -341.464)" fill="#f4ae7c" fill-rule="evenodd"/>
          <path id="Trazado_874831" data-name="Trazado 874831" d="M219.6,494.831l-7.886-11.967.839-1.79-1.762.111-2.4-3.736,2.987-1.753Z" transform="translate(-183.16 -418.102)" fill="#5d9cd4" fill-rule="evenodd"/>
          <path id="Trazado_874832" data-name="Trazado 874832" d="M232.535,392.952q-1.63.791-1.076,1.426a8.983,8.983,0,0,0,4.71-.531,7.745,7.745,0,0,1-3.634-.9" transform="translate(-203.313 -345.377)" fill="#09378c" fill-rule="evenodd"/>
          <path id="Trazado_874833" data-name="Trazado 874833" d="M230.283,365.322c-1.23-1.242-3.551-1.392-6.75-.224-2.024-.5-2.478-1.437-1.624-2.959,1.208-2.149,3.822-.45,7.024-2.473-.122,1.572,4.644,2.919,1.349,5.656" transform="translate(-194.683 -316.121)" fill="#09378c" fill-rule="evenodd"/>
          <path id="Trazado_874834" data-name="Trazado 874834" d="M278.875,413.134c.357-.167.671-.352,1.045-.513.545-.234.7.221,1.083.259-.084-.059-.071-.09-.167-.2-.516-.568-.958-.435-1.549-.112-.329.18-.391.083-.413.562" transform="translate(-245.111 -362.377)" fill="#0053a1" fill-rule="evenodd"/>
          <path id="Trazado_874835" data-name="Trazado 874835" d="M284.533,418.069a.427.427,0,1,1-.343.419.387.387,0,0,1,.343-.419" transform="translate(-249.782 -367.453)" fill="#fff" fill-rule="evenodd"/>
          <path id="Trazado_874836" data-name="Trazado 874836" d="M284.529,418.9a.428.428,0,0,0,0-.839.3.3,0,0,0-.211.088l.027,0a.138.138,0,1,1-.111.136v-.016a.494.494,0,0,0-.048.215.387.387,0,0,0,.343.42" transform="translate(-249.779 -367.45)" fill="#0053a1" fill-rule="evenodd"/>
          <path id="Trazado_874837" data-name="Trazado 874837" d="M251.238,413.134c-.357-.167-.671-.352-1.046-.513-.545-.234-.7.221-1.083.259.084-.059.071-.09.167-.2.516-.568.958-.435,1.549-.112.329.18.39.083.413.562" transform="translate(-218.949 -362.377)" fill="#0053a1" fill-rule="evenodd"/>
          <path id="Trazado_874838" data-name="Trazado 874838" d="M256.053,418.069a.427.427,0,1,0,.343.419.387.387,0,0,0-.343-.419" transform="translate(-224.751 -367.453)" fill="#fff" fill-rule="evenodd"/>
          <path id="Trazado_874839" data-name="Trazado 874839" d="M256.047,418.9a.428.428,0,0,1,0-.839.3.3,0,0,1,.211.088l-.026,0a.139.139,0,1,0,.111.136v-.016a.49.49,0,0,1,.049.215.388.388,0,0,1-.344.42" transform="translate(-224.745 -367.45)" fill="#0053a1" fill-rule="evenodd"/>
          <path id="Trazado_874840" data-name="Trazado 874840" d="M273.908,425.379a.093.093,0,0,1,.041-.109.067.067,0,0,1,.089.05c.155.519.263.924.318,1.206a1.047,1.047,0,0,1,.011.6l-.009.013a.647.647,0,0,1-.208.161.468.468,0,0,1-.232.037.082.082,0,0,1-.063-.092.076.076,0,0,1,.076-.076.336.336,0,0,0,.17-.028.511.511,0,0,0,.157-.121,1.143,1.143,0,0,0-.038-.456c-.056-.291-.161-.688-.311-1.188" transform="translate(-240.698 -373.777)" fill="#f09171" fill-rule="evenodd"/>
          <path id="Trazado_874841" data-name="Trazado 874841" d="M265.965,452.528a1.733,1.733,0,0,1-2.6-.12,15.661,15.661,0,0,0,2.6.12" transform="translate(-231.481 -397.634)" fill="#fff" fill-rule="evenodd"/>
          <path id="Trazado_874842" data-name="Trazado 874842" d="M285.6,411.481a.05.05,0,0,1,.013.07,1.563,1.563,0,0,0-.223,1.139,1.438,1.438,0,0,0,.84.887l.041.02-.016.042c-.009.025-.226.611-.661.714h-.011a.049.049,0,0,1-.049-.039.049.049,0,0,1,.037-.06c.322-.076.517-.478.573-.609a1.507,1.507,0,0,1-.852-.931,1.637,1.637,0,0,1,.237-1.221.05.05,0,0,1,.07-.013" transform="translate(-250.715 -361.654)" fill="#eb6b5c" fill-rule="evenodd"/>
          <path id="Trazado_874843" data-name="Trazado 874843" d="M291.6,406.176a.1.1,0,0,1-.128.155c-.443-.365-1.222.328-1.229.335a.1.1,0,0,1-.065.026.1.1,0,0,1-.069-.175c.037-.034.914-.816,1.491-.341" transform="translate(-254.96 -356.866)" fill="#00091c" fill-rule="evenodd"/>
          <path id="Trazado_874844" data-name="Trazado 874844" d="M497.361,354.762s2.593-15.719-.344-16.7L486.66,340.1c-2.471.343-4.4,3.124-4.4,6.5,0,3.3,1.834,6.026,4.219,6.475h0l.016,0c.07.013.141.024.212.033Z" transform="translate(-423.874 -297.133)" fill="#86bae4" fill-rule="evenodd"/>
          <path id="Trazado_874845" data-name="Trazado 874845" d="M566.375,346.6c0,4.715-2.7,8.538-6.032,8.538s-6.031-3.822-6.031-8.538,2.7-8.538,6.031-8.538,6.032,3.823,6.032,8.538" transform="translate(-487.201 -297.133)" fill="#5d9cd4" fill-rule="evenodd"/>
          <path id="Trazado_874846" data-name="Trazado 874846" d="M603.814,335.128l-3.467.379-.009,17.028,3.467.373Z" transform="translate(-527.653 -294.554)" fill="#5d9cd4" fill-rule="evenodd"/>
          <path id="Trazado_874847" data-name="Trazado 874847" d="M593.185,344.021c0,4.912-2.7,8.893-6.031,8.893s-6.031-3.982-6.031-8.893,2.7-8.893,6.031-8.893,6.031,3.982,6.031,8.893" transform="translate(-510.765 -294.554)" fill="#498ac9" fill-rule="evenodd"/>
          <path id="Trazado_874848" data-name="Trazado 874848" d="M603.11,358.093c0,3.841-1.99,6.955-4.445,6.955s-4.445-3.114-4.445-6.955,1.99-6.955,4.445-6.955,4.445,3.113,4.445,6.955" transform="translate(-522.276 -308.625)" fill="#bad9f2" fill-rule="evenodd"/>
          <g id="Grupo_1100160" data-name="Grupo 1100160" transform="translate(76.054 43.126)" opacity="0.31">
            <g id="Grupo_1100159" data-name="Grupo 1100159">
              <g id="Grupo_1100158" data-name="Grupo 1100158" clip-path="url(#clip-path-3)">
                <path id="Trazado_874849" data-name="Trazado 874849" d="M629.721,359.613a.38.38,0,0,0,.142-.027c.407-.166.429-1.052.051-1.979-.337-.825-.878-1.4-1.28-1.4a.369.369,0,0,0-.141.027c-.407.166-.43,1.052-.051,1.979.337.825.879,1.4,1.28,1.4" transform="translate(-628.17 -356.203)" fill="#fff" fill-rule="evenodd"/>
              </g>
            </g>
          </g>
          <g id="Grupo_1100163" data-name="Grupo 1100163" transform="translate(76.149 46.93)" opacity="0.31">
            <g id="Grupo_1100162" data-name="Grupo 1100162">
              <g id="Grupo_1100161" data-name="Grupo 1100161" clip-path="url(#clip-path-4)">
                <path id="Trazado_874850" data-name="Trazado 874850" d="M629.657,389.159a.171.171,0,0,0,.065-.012c.184-.076.194-.477.023-.9-.153-.374-.4-.635-.58-.635a.168.168,0,0,0-.064.012c-.184.075-.195.477-.023.9.153.374.4.636.58.636" transform="translate(-628.955 -387.616)" fill="#fff" fill-rule="evenodd"/>
              </g>
            </g>
          </g>
          <path id="Trazado_874851" data-name="Trazado 874851" d="M269.875,394.456l1.294-.027.106,5.184-1.4-.029-.926-3.5Z" transform="translate(-236.387 -346.675)" fill="#5d9cd4" fill-rule="evenodd"/>
          <path id="Trazado_874852" data-name="Trazado 874852" d="M265.861,397.213c0,1.416-.768,2.564-1.715,2.564s-1.715-1.148-1.715-2.564.768-2.565,1.715-2.565,1.715,1.148,1.715,2.565" transform="translate(-230.658 -346.867)" fill="#5d9cd4" fill-rule="evenodd"/>
          <path id="Trazado_874853" data-name="Trazado 874853" d="M275.758,397.021c0,1.432-.768,2.592-1.715,2.592s-1.715-1.161-1.715-2.592.768-2.592,1.715-2.592,1.715,1.16,1.715,2.592" transform="translate(-239.357 -346.675)" fill="#86bae4" fill-rule="evenodd"/>
          <path id="Trazado_874854" data-name="Trazado 874854" d="M289.651,392.351l-3.9.254-.018,5.169,3.957.307Z" transform="translate(-251.138 -344.848)" fill="#86bae4" fill-rule="evenodd"/>
          <path id="Trazado_874855" data-name="Trazado 874855" d="M324.093,370.579l7.5-1.129s.281,11.146.178,11.061-7.678-.96-7.678-.96Z" transform="translate(-284.854 -324.72)" fill="#5d9cd4" fill-rule="evenodd"/>
          <path id="Trazado_874856" data-name="Trazado 874856" d="M313.843,383.259c0,2.479-.768,4.488-1.715,4.488s-1.715-2.009-1.715-4.488.768-4.487,1.715-4.487,1.715,2.009,1.715,4.487" transform="translate(-272.831 -332.913)" fill="#5d9cd4" fill-rule="evenodd"/>
          <path id="Trazado_874857" data-name="Trazado 874857" d="M382.944,360.691s2.593-15.718-.343-16.7l-10.358,2.033c-2.471.343-4.4,3.124-4.4,6.5,0,3.3,1.834,6.026,4.219,6.475h0l.016,0c.07.013.14.024.211.032Z" transform="translate(-323.31 -302.344)" fill="#86bae4" fill-rule="evenodd"/>
          <path id="Trazado_874858" data-name="Trazado 874858" d="M451.959,352.53c0,4.715-2.7,8.538-6.031,8.538s-6.031-3.822-6.031-8.538,2.7-8.538,6.031-8.538,6.031,3.822,6.031,8.538" transform="translate(-386.638 -302.344)" fill="#5d9cd4" fill-rule="evenodd"/>
          <path id="Trazado_874859" data-name="Trazado 874859" d="M489.4,341.056l-3.468.379-.009,17.028,3.467.373Z" transform="translate(-427.089 -299.764)" fill="#5d9cd4" fill-rule="evenodd"/>
          <path id="Trazado_874860" data-name="Trazado 874860" d="M478.765,349.949c0,4.911-2.7,8.893-6.031,8.893s-6.032-3.982-6.032-8.893,2.7-8.893,6.032-8.893,6.031,3.982,6.031,8.893" transform="translate(-410.197 -299.764)" fill="#498ac9" fill-rule="evenodd"/>
          <path id="Trazado_874861" data-name="Trazado 874861" d="M488.69,364.023c0,3.841-1.99,6.955-4.445,6.955s-4.446-3.114-4.446-6.955,1.99-6.955,4.446-6.955,4.445,3.114,4.445,6.955" transform="translate(-421.708 -313.837)" fill="#bad9f2" fill-rule="evenodd"/>
          <g id="Grupo_1100166" data-name="Grupo 1100166" transform="translate(62.603 43.516)" opacity="0.31">
            <g id="Grupo_1100165" data-name="Grupo 1100165">
              <g id="Grupo_1100164" data-name="Grupo 1100164" clip-path="url(#clip-path-3)">
                <path id="Trazado_874862" data-name="Trazado 874862" d="M518.624,362.833a.373.373,0,0,0,.142-.027c.407-.166.429-1.052.051-1.979-.337-.824-.878-1.4-1.281-1.4a.371.371,0,0,0-.142.027c-.407.166-.43,1.052-.051,1.979.337.825.878,1.4,1.281,1.4" transform="translate(-517.074 -359.423)" fill="#fff" fill-rule="evenodd"/>
              </g>
            </g>
          </g>
          <g id="Grupo_1100169" data-name="Grupo 1100169" transform="translate(62.698 47.32)" opacity="0.31">
            <g id="Grupo_1100168" data-name="Grupo 1100168">
              <g id="Grupo_1100167" data-name="Grupo 1100167" clip-path="url(#clip-path-6)">
                <path id="Trazado_874863" data-name="Trazado 874863" d="M518.559,392.38a.171.171,0,0,0,.064-.012c.185-.075.195-.477.023-.9-.153-.374-.4-.635-.58-.635a.175.175,0,0,0-.064.012c-.185.075-.195.476-.023.9.153.373.4.636.58.636" transform="translate(-517.857 -390.836)" fill="#fff" fill-rule="evenodd"/>
              </g>
            </g>
          </g>
          <path id="Trazado_874864" data-name="Trazado 874864" d="M348.924,411.734s.1.488.129.655c.025.2.059.792.059.792a9.351,9.351,0,0,1-.169,2.07.878.878,0,0,1-.551-.309c-.046-.125-.006-.41-.051-.535a.334.334,0,0,0-.381-.2c-.163.054-.18.756-.18.756a2.148,2.148,0,0,0,.183.91c.672,1.172.848,1.011.928,1.16a27.154,27.154,0,0,1-.185,2.969s-1.106,8.194-1.163,8.634l0,.006a2.256,2.256,0,0,0,1.006.238c1.07.327,1.3.071,2.372.327.075-1.309.269-10.5.278-11.436,0,0,.448-1.19.707-1.946a6.644,6.644,0,0,0,.208-1.791,6.843,6.843,0,0,0-.038-1.714c-.115-.809-.381.024-.381.024a6.482,6.482,0,0,1-.18,1.529c-.1-.018-.013-.863-.132-1.755-.029-.232-.06-.458-.089-.666-.081-.547-.443-.643-.452-.053a5.16,5.16,0,0,0,.036.8,4.876,4.876,0,0,1-.011.756,5.76,5.76,0,0,1-.016.773c-.024-.012-.088.078-.128-.161a13.715,13.715,0,0,0-.116-1.368c-.059-.238-.152-.749-.152-.749a4.577,4.577,0,0,0-.336-.732c-.269.024-.22.589-.1.9a3.712,3.712,0,0,0,.088.78s-.016,1.136-.179,1.148a12.557,12.557,0,0,1-.324-1.363c-.168-.619-.442-1.213-.571-1.19-.22.03-.108.744-.108.744" transform="translate(-305.463 -360.991)" fill="#f4ae7c" fill-rule="evenodd"/>
          <path id="Trazado_874865" data-name="Trazado 874865" d="M207.25,464.015c-1.253-.612-3.452-1.328-3.79,1.035-.008.149-.007.3-.011.448-.192,7.734,9.2,14.818,10.969,15.422,8.367,7.862,10.984-7.288,10.6-18.768l-3.338-.834s-2,15.418-3.77,13.643c-1.5-1.5-9.782-10.519-10.658-10.946" transform="translate(-178.814 -405.466)" fill="#4f93cf" fill-rule="evenodd"/>
          <path id="Trazado_874866" data-name="Trazado 874866" d="M370.869,482.558a.309.309,0,1,1-.241.364.309.309,0,0,1,.241-.364" transform="translate(-325.75 -424.128)" fill="#498ac9" fill-rule="evenodd"/>
          <path id="Trazado_874867" data-name="Trazado 874867" d="M370.08,494a.309.309,0,1,1-.242.364.309.309,0,0,1,.242-.364" transform="translate(-325.056 -434.185)" fill="#498ac9" fill-rule="evenodd"/>
          <path id="Trazado_874868" data-name="Trazado 874868" d="M363.147,1314.908c-1.48-2.168,1.721-2.725,1.69-5.1-.021-1.635,1-3.339.7-4.971-.628-3.337.675-4.349.682-4.6.078-2.529,1.591-2.594,3.1-3.446,2.672-1.513,5,.337,5.754.387,3.862.253,1.723,1.913,3.452,3.409,1.424,1.232.75,2.167.6,2.907-.066.334-.376,1.708.61,2.4,1.445,1.018-.036,3.738.817,4,3.282.994,1.961,1.4,1.872,3.7-.028.734-.735,1.291-1.2,1.829-5.652-1.77-9.54,5.263-18.076-.512" transform="translate(-318.836 -1139.264)" fill="#09378c" fill-rule="evenodd"/>
          <path id="Trazado_874869" data-name="Trazado 874869" d="M407.518,1420.119a2.136,2.136,0,0,1,.764-.753,11.058,11.058,0,0,0,5.188,1.445,29.578,29.578,0,0,1-.427,3.3,50.943,50.943,0,0,0-5.525-3.992" transform="translate(-358.179 -1247.52)" fill="#fff" fill-rule="evenodd"/>
          <path id="Trazado_874870" data-name="Trazado 874870" d="M457.971,1420.847a11.055,11.055,0,0,1,.9,2.617,3.5,3.5,0,0,0-2.191-1.793c.377-.4.347-.912.5-1.326q.637.392.793.5" transform="translate(-401.388 -1248.381)" fill="#fff" fill-rule="evenodd"/>
          <path id="Trazado_874871" data-name="Trazado 874871" d="M391.814,1424.562c4.541,11.543.713,10.647-9.124.25a10.077,10.077,0,0,0-1.584.507q1.916,1.771,1.432,5.924-.29,3.216-.637,6.251a10.482,10.482,0,0,1,.9,3.951,16.47,16.47,0,0,1-.392,3.935,54.628,54.628,0,0,1-2.459,7.8q10.331,3.519,17.686.08c-2.844-6.252-2.466-8.19-2.142-12.372.322-6.789,4.459-4.657-2.419-16.074a6.1,6.1,0,0,0-1.256-.257" transform="translate(-333.945 -1252.087)" fill="#5d9cd4" fill-rule="evenodd"/>
          <path id="Trazado_874872" data-name="Trazado 874872" d="M409.159,1425.176a29.57,29.57,0,0,1-.427,3.3,50.963,50.963,0,0,0-5.525-3.992q-.305.058-.594.126c9.837,10.4,13.665,11.293,9.124-.25a8.866,8.866,0,0,0-1.286-.008,11.055,11.055,0,0,1,.9,2.617,3.5,3.5,0,0,0-2.19-1.793" transform="translate(-353.868 -1251.885)" fill="#73acdd" fill-rule="evenodd"/>
          <path id="Trazado_874873" data-name="Trazado 874873" d="M513.672,1521.574a7.147,7.147,0,0,1-1.374-1.789c-.22.615-.487,1.268-.705,2.1Z" transform="translate(-449.653 -1335.781)" fill="#6998d0" fill-rule="evenodd"/>
          <path id="Trazado_874874" data-name="Trazado 874874" d="M488.348,1426.686a44.933,44.933,0,0,1,3.214,6.09c.584-4.583-.253-5.615-3.214-6.09" transform="translate(-429.223 -1253.954)" fill="#73acdd" fill-rule="evenodd"/>
          <path id="Trazado_874875" data-name="Trazado 874875" d="M376.612,1663.9q-2.439,5.032-1.373,21.872,13.394,1.813,19.3-.37-.48-15.379-2.169-21.41-6.7,2.712-15.758-.092" transform="translate(-329.523 -1462.45)" fill="#3e62ac" fill-rule="evenodd"/>
          <path id="Trazado_874876" data-name="Trazado 874876" d="M403.929,1348.217a11.06,11.06,0,0,0,5.188,1.445,2.376,2.376,0,0,0,.451-1.174c.006-.021.012-.042.018-.063a1.326,1.326,0,0,1-.3-1.329c0-.01.005-.02.008-.03,1.969-.661,3.191-3.973,2.392-5.92q.06-.978.188-2.027c-2.917.846-4.749.8-6.886-.7a3.8,3.8,0,0,0-.338,2.553c.049.355.23,1.112-.244,1.182-.219-1.233-.667-1.913-1.5-1.619a1.893,1.893,0,0,0,1.48,2.989,4.544,4.544,0,0,1,.676,2.214,4.383,4.383,0,0,1-.976,2.241l-.16.24" transform="translate(-353.826 -1176.371)" fill="#f4ae7c" fill-rule="evenodd"/>
          <path id="Trazado_874877" data-name="Trazado 874877" d="M437.647,1407.259a4.786,4.786,0,0,1-2.836-.313,4.11,4.11,0,0,0,2.809,1.181,1.817,1.817,0,0,1,.027-.868" transform="translate(-382.167 -1236.604)" fill="#ed7d5b" fill-rule="evenodd"/>
          <path id="Trazado_874878" data-name="Trazado 874878" d="M474.837,1854.1q.345-4.746.409-10.065a27.837,27.837,0,0,1-7.443.885c.72,3.037,1.812,6.361,2.38,9.64-3.023,8.2,1.139,14.974.55,20.337.824,1.314,2.191,4.285,4.255,5.375.687-.179.172-.805.4-1.162a8.775,8.775,0,0,1-2-5.2,100.325,100.325,0,0,1,1.445-19.81" transform="translate(-411.165 -1620.77)" fill="#f4ae7c" fill-rule="evenodd"/>
          <path id="Trazado_874879" data-name="Trazado 874879" d="M380.774,1855.171c.623-2.595,1.753-5.207,2.576-8.023q-3.3-.081-7.348-.56.065,3.991.1,8.33c-4.234,7.486-1.4,16.232-2.53,19.995.825,1.956,1.045,4.407,2.879,5.849.676-.052.326-.714.58-1.023a13.045,13.045,0,0,1-.945-4.921,99.939,99.939,0,0,1,4.687-19.646" transform="translate(-328.344 -1623.018)" fill="#f4ae7c" fill-rule="evenodd"/>
          <path id="Trazado_874880" data-name="Trazado 874880" d="M490.942,2101.092c-1.45.076-.127,1.165-1.071,1.411-2.064-1.091-3.207-4.064-4.031-5.377-.434-.691-.747.188-.961,1.172-.341,1.567.09,1.019.282,2.271.048.312-.355,1.991-.421,2.923a.712.712,0,0,0,.212.574A28.051,28.051,0,0,0,486,2100.28c2.025,1.74,1.583,3.66,2.784,4.314,2.881.308,4.438.385,6.627.431.48-1.8-3.324-1.19-4.468-3.933" transform="translate(-426.05 -1843.005)" fill="#09378c" fill-rule="evenodd"/>
          <path id="Trazado_874881" data-name="Trazado 874881" d="M361.542,2083.307c-1.4-.175-.334,1.092-1.28,1.165-1.773-1.394-2.321-4.428-2.868-5.823-.288-.733-.749.052-1.132.955-.612,1.438-.1.989-.146,2.217-.011.307-.7,1.841-.936,2.721a.688.688,0,0,0,.1.585,27.683,27.683,0,0,0,1.69-3.438c1.617,2.008.844,3.765,1.872,4.595,2.7.785,4.169,1.124,6.25,1.542.787-1.635-2.958-1.7-3.549-4.518" transform="translate(-312.153 -1826.728)" fill="#09378c" fill-rule="evenodd"/>
          <path id="Trazado_874882" data-name="Trazado 874882" d="M441.958,1361.119c-.27.033-.605-1.008.051-1.088.351-.042.391,1.032-.051,1.088" transform="translate(-388.159 -1195.368)" fill="#09378c" fill-rule="evenodd"/>
          <path id="Trazado_874883" data-name="Trazado 874883" d="M469.087,1358.495c.27-.033.359-1.123-.3-1.043-.351.042-.147,1.1.3,1.043" transform="translate(-411.875 -1193.099)" fill="#09378c" fill-rule="evenodd"/>
          <path id="Trazado_874884" data-name="Trazado 874884" d="M434.2,1351.992c.438-.038.467.324.16.46a9.777,9.777,0,0,1-1.75.487,2.245,2.245,0,0,1,1.59-.947" transform="translate(-380.227 -1188.301)" fill="#09378c" fill-rule="evenodd"/>
          <path id="Trazado_874885" data-name="Trazado 874885" d="M463.382,1349.129c-.437.049-.4.411-.073.483.154.033,1.914.248,1.791.11a2.251,2.251,0,0,0-1.718-.592" transform="translate(-406.995 -1185.776)" fill="#09378c" fill-rule="evenodd"/>
          <path id="Trazado_874886" data-name="Trazado 874886" d="M460.315,1365.774c-.976.276-.859-.172-.585-.118.912.178.039-.348.19-1.93.018-.166.2-.146.208-.007,0,.1-.029.444-.018.548.119,1.262.518,1.418.205,1.507" transform="translate(-403.899 -1198.513)" fill="#ed7d5b" fill-rule="evenodd"/>
          <path id="Trazado_874887" data-name="Trazado 874887" d="M451.09,1386.272c-1.27,2.435-2.64.25-2.263.186,1.921-.327,2.419-.483,2.263-.186" transform="translate(-394.43 -1218.294)" fill="#fff" fill-rule="evenodd"/>
          <path id="Trazado_874888" data-name="Trazado 874888" d="M488.676,1507.234h-12.8a.639.639,0,0,0-.579.458l-2.277,8.67a.342.342,0,0,0,.338.458h12.8a.638.638,0,0,0,.578-.458l2.277-8.67a.342.342,0,0,0-.338-.458" transform="translate(-415.74 -1324.75)" fill="#f6bca5" fill-rule="evenodd"/>
          <path id="Trazado_874889" data-name="Trazado 874889" d="M471.556,1511.857l1.545-5.886a.64.64,0,0,1,.579-.458h12.8c.252,0,.7.325.627.575a.335.335,0,0,0-.353-.367h-12.8a.638.638,0,0,0-.578.458l-2.277,8.67a.361.361,0,0,0,.091.37c-.21-.136-.412-.4-.364-.578Z" transform="translate(-413.815 -1323.237)" fill="#ec743d" fill-rule="evenodd"/>
          <path id="Trazado_874890" data-name="Trazado 874890" d="M444.981,1581.864h12.8a.518.518,0,0,0,.14-.02c-.255.66-.947.563-1.217.56H441.529c-.822-.035-.8-.611-.811-1.167h3.645a.75.75,0,0,0,.371.538.362.362,0,0,0,.247.088" transform="translate(-387.359 -1389.793)" fill="#ec743d" fill-rule="evenodd"/>
          <path id="Trazado_874891" data-name="Trazado 874891" d="M480.471,1536.678c7.047,3.564,7.034-.16,11.917,1.751l-.952,3.624H479.059Z" transform="translate(-421.058 -1350.629)" fill="#ec743d" fill-rule="evenodd"/>
          <path id="Trazado_874892" data-name="Trazado 874892" d="M366.548,1447.048q-2.8.008-5.235-.211.634-4.806,1.11-10.1.484-4.153-1.432-5.924a5.262,5.262,0,0,0-3.245,3.359c-1.005,3.244-.882,15.325.211,16.417q2.071.907,8.751-.37a6.485,6.485,0,0,1-.16-3.172" transform="translate(-313.829 -1257.582)" fill="#73acdd" fill-rule="evenodd"/>
          <path id="Trazado_874893" data-name="Trazado 874893" d="M435.686,1551.735q-.38.042-1.2.076a6.485,6.485,0,0,0,.1,2.18q.715-.132,1.815-.38a10.64,10.64,0,0,0,4.706-.052,1.838,1.838,0,0,0,1.163-2.7q-2.992.35-3.582-.225,1.046-.533.74-1.23-2.941,1.079-3.741,2.327" transform="translate(-381.84 -1361.818)" fill="#f4ae7c" fill-rule="evenodd"/>
        </g>
      </g>
    </g>
  </g>
</svg>
