<svg xmlns="http://www.w3.org/2000/svg" width="398" height="583" viewBox="0 0 398 583">
  <g id="Grupo_60412" data-name="Grupo 60412" transform="translate(-917 -3550)">
    <rect id="Rectángulo_30904" data-name="Rectángulo 30904" width="398" height="583" transform="translate(917 3550)" fill="none"/>
    <g id="Grupo_60411" data-name="Grupo 60411" transform="translate(-2501.446 4038.185)">
      <g id="Grupo_60384" data-name="Grupo 60384" transform="translate(3633.365 -19.215)">
        <path id="Trazado_131124" data-name="Trazado 131124" d="M4343.617,1691.868a5.194,5.194,0,0,0-.608-1.147h0l0,0a5.3,5.3,0,0,0-.62-.73l-.935-1.1-.281.176c-4.988-2.924-15.886-1.041-27.235,5.209-13.717,7.554-22.994,18.677-21.042,25.107l-.39.245,1.345,1.559c.064.078.13.155.2.23l.038.044.012.01a5.97,5.97,0,0,0,1.192.97l.007.006h0c4.911,3.063,15.921,1.208,27.4-5.11C4336.668,1709.635,4346.035,1698.235,4343.617,1691.868Z" transform="translate(-4291.196 -1686.044)" fill="#ffa412"/>
        <path id="Trazado_131125" data-name="Trazado 131125" d="M4307.555,1686.285c13.973-7.7,27.261-8.772,29.679-2.4s-6.948,17.768-20.922,25.463-27.261,8.772-29.679,2.4S4293.582,1693.98,4307.555,1686.285Z" transform="translate(-4286.252 -1679.729)" fill="#ffb93e"/>
        <g id="Grupo_60382" data-name="Grupo 60382" transform="translate(3.21 2.104)">
          <path id="Trazado_131126" data-name="Trazado 131126" d="M4308.02,1721.315a10.664,10.664,0,0,1-2.9-.591,5.086,5.086,0,0,1-3.22-2.99c-1-2.709.4-6.514,3.955-10.713a52.613,52.613,0,0,1,14.457-11.375h0c8.985-4.964,17.9-7.018,22.707-5.233a5.091,5.091,0,0,1,3.221,2.99c1,2.709-.4,6.514-3.956,10.714a52.616,52.616,0,0,1-14.458,11.375C4320.422,1719.579,4313.07,1721.694,4308.02,1721.315Zm32.049-30.511c-4.83-.363-12.122,1.741-19.287,5.7a51.625,51.625,0,0,0-14.184,11.151c-3.269,3.861-4.647,7.411-3.785,9.74a4.156,4.156,0,0,0,2.643,2.412,9.6,9.6,0,0,0,2.6.527c4.83.364,12.122-1.74,19.287-5.7a51.647,51.647,0,0,0,14.184-11.151c3.268-3.861,4.647-7.411,3.784-9.74a4.153,4.153,0,0,0-2.643-2.412A9.565,9.565,0,0,0,4340.069,1690.8Z" transform="translate(-4301.58 -1689.777)" fill="#ffa412"/>
        </g>
        <g id="Grupo_60383" data-name="Grupo 60383" transform="translate(11.204 9.875)">
          <path id="Trazado_131127" data-name="Trazado 131127" d="M4348.63,1737.866a7.123,7.123,0,0,0,1.143-.511,5.237,5.237,0,0,0,.945-.688,7,7,0,0,0,.845-.934,13.106,13.106,0,0,0,.828-1.243q.74-1.227,1.5-2.283a14.505,14.505,0,0,1,1.667-1.938,12.25,12.25,0,0,1,2.042-1.592,13.187,13.187,0,0,1,2.621-1.234,9.238,9.238,0,0,1,2.3-.535,3.88,3.88,0,0,1,1.7.188,2.068,2.068,0,0,1,1.056.855,2.633,2.633,0,0,1,.334,1.484l3.246-1.144-.291,1.68-3.292,1.16a7.24,7.24,0,0,1-1.027,1.9,10.369,10.369,0,0,1-1.672,1.763,14.348,14.348,0,0,1-2.254,1.539,17.986,17.986,0,0,1-2.786,1.243l.525-3.034a9.018,9.018,0,0,0,2.813-1.48,3,3,0,0,0,1.143-1.709,1.144,1.144,0,0,0-.063-.741.744.744,0,0,0-.464-.364,1.862,1.862,0,0,0-.786-.029,5.381,5.381,0,0,0-1.028.264,6.6,6.6,0,0,0-1.035.463,4.883,4.883,0,0,0-.9.659,6.991,6.991,0,0,0-.847.939q-.415.546-.889,1.3-.768,1.227-1.534,2.281a14.9,14.9,0,0,1-1.681,1.938,12.486,12.486,0,0,1-2.05,1.595,13.11,13.11,0,0,1-2.606,1.229,9.277,9.277,0,0,1-2.344.546,3.784,3.784,0,0,1-1.689-.2,1.954,1.954,0,0,1-1.016-.879,2.873,2.873,0,0,1-.309-1.5l-3.019,1.064.289-1.669,3-1.059a8.53,8.53,0,0,1,.884-1.893,9.724,9.724,0,0,1,1.563-1.906,13.46,13.46,0,0,1,2.336-1.77,16.821,16.821,0,0,1,3.19-1.48l-.526,3.034a10.35,10.35,0,0,0-1.831.828,6.6,6.6,0,0,0-1.243.926,3.818,3.818,0,0,0-.735.954,3.189,3.189,0,0,0-.321.907,1.4,1.4,0,0,0,.047.8.8.8,0,0,0,.438.432,1.574,1.574,0,0,0,.761.086A4.284,4.284,0,0,0,4348.63,1737.866Z" transform="translate(-4339.757 -1726.888)" fill="#ffa412"/>
        </g>
      </g>
      <g id="Grupo_60387" data-name="Grupo 60387" transform="translate(3612.645 50.088)">
        <path id="Trazado_131128" data-name="Trazado 131128" d="M4187.566,2019.221a3.706,3.706,0,0,1,.426-.805h0l0,0a3.714,3.714,0,0,1,.435-.512l.656-.773.2.124c3.5-2.053,11.152-.73,19.12,3.657,9.629,5.3,16.143,13.112,14.772,17.626l.273.172-.944,1.094c-.045.055-.091.109-.14.162l-.026.031-.008.007a4.2,4.2,0,0,1-.837.681l0,0h0c-3.449,2.15-11.178.848-19.233-3.587C4192.445,2031.694,4185.869,2023.691,4187.566,2019.221Z" transform="translate(-4187.299 -2015.132)" fill="#ffa412"/>
        <path id="Trazado_131129" data-name="Trazado 131129" d="M4213.225,2015.3c-9.81-5.4-19.138-6.158-20.836-1.688s4.879,12.473,14.688,17.875,19.138,6.158,20.835,1.688S4223.035,2020.7,4213.225,2015.3Z" transform="translate(-4191.112 -2010.699)" fill="#ffb93e"/>
        <g id="Grupo_60385" data-name="Grupo 60385" transform="translate(3.243 1.477)">
          <path id="Trazado_131130" data-name="Trazado 131130" d="M4215.935,2035.8a36.947,36.947,0,0,1-10.15-7.985c-2.5-2.948-3.481-5.62-2.777-7.521a3.573,3.573,0,0,1,2.261-2.1c3.376-1.253,9.633.189,15.94,3.673h0a36.941,36.941,0,0,1,10.15,7.986c2.5,2.948,3.481,5.619,2.777,7.521a3.573,3.573,0,0,1-2.261,2.1,7.48,7.48,0,0,1-2.039.415C4226.292,2040.159,4221.13,2038.675,4215.935,2035.8Zm-10.426-16.961a2.912,2.912,0,0,0-1.854,1.693c-.607,1.635.362,4.127,2.656,6.838a36.258,36.258,0,0,0,9.958,7.828c5.029,2.779,10.148,4.256,13.54,4a6.74,6.74,0,0,0,1.829-.37,2.921,2.921,0,0,0,1.855-1.694c.605-1.635-.362-4.127-2.657-6.838a36.251,36.251,0,0,0-9.958-7.828c-5.029-2.779-10.148-4.255-13.539-4A6.721,6.721,0,0,0,4205.509,2018.843Z" transform="translate(-4202.786 -2017.753)" fill="#ffa412"/>
        </g>
        <g id="Grupo_60386" data-name="Grupo 60386" transform="translate(8.771 6.932)">
          <path id="Trazado_131131" data-name="Trazado 131131" d="M4244.1,2051.681a1.107,1.107,0,0,0,.535-.061.562.562,0,0,0,.307-.3.992.992,0,0,0,.033-.559,2.231,2.231,0,0,0-.226-.636,2.648,2.648,0,0,0-.516-.669,4.621,4.621,0,0,0-.873-.65,7.231,7.231,0,0,0-1.285-.581l-.369-2.13a11.842,11.842,0,0,1,2.239,1.039,9.46,9.46,0,0,1,1.64,1.243,6.817,6.817,0,0,1,1.1,1.338,5.987,5.987,0,0,1,.62,1.329l2.108.744.2,1.171-2.119-.747a2.022,2.022,0,0,1-.217,1.055,1.374,1.374,0,0,1-.713.617,2.661,2.661,0,0,1-1.186.139,6.507,6.507,0,0,1-1.646-.383,9.224,9.224,0,0,1-1.83-.862,8.728,8.728,0,0,1-1.439-1.12,10.365,10.365,0,0,1-1.181-1.36q-.538-.74-1.077-1.6-.333-.532-.624-.916a4.952,4.952,0,0,0-.594-.659,3.438,3.438,0,0,0-.635-.463,4.616,4.616,0,0,0-.726-.325,3.805,3.805,0,0,0-.722-.186,1.315,1.315,0,0,0-.552.02.522.522,0,0,0-.325.256.8.8,0,0,0-.044.52,2.1,2.1,0,0,0,.8,1.2,6.316,6.316,0,0,0,1.976,1.039l.369,2.13a12.662,12.662,0,0,1-1.957-.873,10.057,10.057,0,0,1-1.582-1.08,7.3,7.3,0,0,1-1.174-1.237,5.1,5.1,0,0,1-.721-1.334l-2.311-.814-.2-1.179,2.279.8a1.854,1.854,0,0,1,.234-1.042,1.456,1.456,0,0,1,.741-.6,2.725,2.725,0,0,1,1.2-.132,6.48,6.48,0,0,1,1.615.376,9.258,9.258,0,0,1,1.84.866,8.626,8.626,0,0,1,1.434,1.117,10.176,10.176,0,0,1,1.17,1.361q.533.742,1.053,1.6a9.286,9.286,0,0,0,.581.873,4.9,4.9,0,0,0,.594.656,3.643,3.643,0,0,0,.664.483,4.965,4.965,0,0,0,.8.359A3.016,3.016,0,0,0,4244.1,2051.681Z" transform="translate(-4229.185 -2043.806)" fill="#ffa412"/>
        </g>
      </g>
      <g id="Grupo_60390" data-name="Grupo 60390" transform="translate(3551.24 -30.78)">
        <path id="Trazado_131132" data-name="Trazado 131132" d="M3909.774,1685.252q.606.37,1.231.714.212.117.424.229c.323.172.646.338.971.5a32.767,32.767,0,0,0,30.241-58.12q-.63-.347-1.269-.663-.62-.309-1.249-.588a32.71,32.71,0,0,0-9.835-2.644,32.772,32.772,0,0,0-20.515,60.573Z" transform="translate(-3894.051 -1624.498)" fill="#ffb93e"/>
        <g id="Grupo_60388" data-name="Grupo 60388" transform="translate(2.805 3.332)">
          <path id="Trazado_131133" data-name="Trazado 131133" d="M3922.85,1696.273a29.8,29.8,0,1,1,14.329,3.7A29.819,29.819,0,0,1,3922.85,1696.273Zm-10.266-39.67a28.154,28.154,0,1,0,24.692-14.552A28.173,28.173,0,0,0,3912.584,1656.6Z" transform="translate(-3907.449 -1640.408)" fill="#ffa412"/>
        </g>
        <g id="Grupo_60389" data-name="Grupo 60389" transform="translate(17.425 11.565)">
          <path id="Trazado_131134" data-name="Trazado 131134" d="M3977.271,1707.784a8.214,8.214,0,0,0,.8,3.35c.038.079.077.158.117.235a10.1,10.1,0,0,0,2.069,2.7,14.9,14.9,0,0,0,3.427,2.393l-1.733,4.268,3.673,1.491,1.723-4.248a16.658,16.658,0,0,0,4.048.669,10.573,10.573,0,0,0,3.929-.566,9.473,9.473,0,0,0,3.458-2.157,11.515,11.515,0,0,0,2.625-4.081l-6.674-2.71a7.091,7.091,0,0,1-1.46,2.368,4.588,4.588,0,0,1-1.8,1.167,4.472,4.472,0,0,1-1.977.2,7.7,7.7,0,0,1-1.959-.508,6.407,6.407,0,0,1-1.792-1.053,4.252,4.252,0,0,1-1.061-1.331,3.378,3.378,0,0,1-.356-1.507,4.112,4.112,0,0,1,.319-1.583,4.907,4.907,0,0,1,.9-1.484,3.614,3.614,0,0,1,1.336-.907,6.8,6.8,0,0,1,1.908-.424,17.708,17.708,0,0,1,2.6-.017,46.958,46.958,0,0,0,4.786.005,14.783,14.783,0,0,0,3.978-.721,8.746,8.746,0,0,0,3.125-1.83,9.87,9.87,0,0,0,2.9-6.918,8.3,8.3,0,0,0-.786-3.368,10.357,10.357,0,0,0-2.138-2.981,13.851,13.851,0,0,0-3.392-2.414l1.863-4.591-3.695-1.5-1.89,4.656a12.365,12.365,0,0,0-4.029-.411,9.362,9.362,0,0,0-6.544,3.228,12.488,12.488,0,0,0-2.185,3.624l6.675,2.71a6.074,6.074,0,0,1,2.706-3.387,4.218,4.218,0,0,1,3.579-.034,5.337,5.337,0,0,1,1.671,1.017,3.62,3.62,0,0,1,.913,1.294,3.382,3.382,0,0,1,.234,1.482,4.987,4.987,0,0,1-.371,1.574,4.572,4.572,0,0,1-.814,1.343,3.371,3.371,0,0,1-1.281.868,6.833,6.833,0,0,1-1.919.42,23.026,23.026,0,0,1-2.726.055q-2.58-.073-4.774.062a14.97,14.97,0,0,0-3.975.747,8.877,8.877,0,0,0-3.129,1.841,8.594,8.594,0,0,0-1.988,2.839c-.07.153-.138.309-.2.471A9.012,9.012,0,0,0,3977.271,1707.784Z" transform="translate(-3977.268 -1679.729)" fill="#ffa412"/>
        </g>
      </g>
      <g id="Grupo_60393" data-name="Grupo 60393" transform="translate(3606.273 -94.389)">
        <path id="Trazado_131135" data-name="Trazado 131135" d="M4172.592,1381.473q.606.37,1.231.714.212.117.424.229.484.258.971.5a32.767,32.767,0,0,0,30.241-58.12q-.63-.347-1.269-.663c-.413-.206-.83-.4-1.249-.588a32.7,32.7,0,0,0-9.835-2.644,32.772,32.772,0,0,0-20.515,60.572Z" transform="translate(-4156.869 -1320.719)" fill="#ffb93e"/>
        <g id="Grupo_60391" data-name="Grupo 60391" transform="translate(2.805 3.332)">
          <path id="Trazado_131136" data-name="Trazado 131136" d="M4185.667,1392.494a29.8,29.8,0,1,1,14.329,3.7A29.818,29.818,0,0,1,4185.667,1392.494Zm-10.267-39.67a28.154,28.154,0,1,0,24.693-14.552A28.174,28.174,0,0,0,4175.4,1352.824Z" transform="translate(-4170.266 -1336.629)" fill="#ffa412"/>
        </g>
        <g id="Grupo_60392" data-name="Grupo 60392" transform="translate(17.425 11.565)">
          <path id="Trazado_131137" data-name="Trazado 131137" d="M4240.089,1404a8.2,8.2,0,0,0,.8,3.35c.038.079.077.158.117.235a10.108,10.108,0,0,0,2.068,2.7,14.907,14.907,0,0,0,3.428,2.393l-1.734,4.268,3.673,1.491,1.723-4.248a16.66,16.66,0,0,0,4.048.669,10.57,10.57,0,0,0,3.929-.566,9.476,9.476,0,0,0,3.458-2.157,11.535,11.535,0,0,0,2.626-4.081l-6.674-2.71a7.092,7.092,0,0,1-1.46,2.368,4.584,4.584,0,0,1-1.8,1.167,4.473,4.473,0,0,1-1.977.2,7.71,7.71,0,0,1-1.959-.508,6.4,6.4,0,0,1-1.792-1.052,4.243,4.243,0,0,1-1.061-1.331,3.378,3.378,0,0,1-.356-1.507,4.132,4.132,0,0,1,.318-1.582,4.929,4.929,0,0,1,.9-1.484,3.615,3.615,0,0,1,1.336-.907,6.8,6.8,0,0,1,1.908-.424,17.679,17.679,0,0,1,2.6-.017,47.006,47.006,0,0,0,4.787.005,14.781,14.781,0,0,0,3.977-.721,8.737,8.737,0,0,0,3.125-1.83,9.862,9.862,0,0,0,2.9-6.918,8.312,8.312,0,0,0-.786-3.368,10.374,10.374,0,0,0-2.138-2.981,13.866,13.866,0,0,0-3.392-2.414l1.863-4.591-3.7-1.5-1.89,4.656a12.364,12.364,0,0,0-4.029-.412,9.362,9.362,0,0,0-6.544,3.228,12.493,12.493,0,0,0-2.185,3.624l6.676,2.71a6.072,6.072,0,0,1,2.705-3.387,4.221,4.221,0,0,1,3.581-.034,5.351,5.351,0,0,1,1.671,1.017,3.619,3.619,0,0,1,.913,1.295,3.382,3.382,0,0,1,.233,1.481,4.987,4.987,0,0,1-.371,1.574,4.576,4.576,0,0,1-.814,1.343,3.371,3.371,0,0,1-1.281.868,6.84,6.84,0,0,1-1.919.42,23.062,23.062,0,0,1-2.726.055q-2.58-.073-4.774.062a14.967,14.967,0,0,0-3.975.747,8.867,8.867,0,0,0-3.129,1.841,8.6,8.6,0,0,0-1.987,2.839c-.07.153-.139.309-.2.471A9.017,9.017,0,0,0,4240.089,1404Z" transform="translate(-4240.086 -1375.95)" fill="#ffa412"/>
        </g>
      </g>
      <g id="Grupo_60394" data-name="Grupo 60394" transform="translate(3537.745 -145.54)">
        <path id="Trazado_131138" data-name="Trazado 131138" d="M3923.1,1235.072l-41.507-.321a47.8,47.8,0,0,1-46.326-37.57l-5.664-25.848h145.128l-4.154,24.068A47.8,47.8,0,0,1,3923.1,1235.072Z" transform="translate(-3829.6 -1151.463)" fill="#624cd5"/>
        <path id="Trazado_131139" data-name="Trazado 131139" d="M3902.164,1076.439c-40.076,0-72.564,8.9-72.564,19.87a5.908,5.908,0,0,0,.509,2.364c4.268,9.86,34.9,17.506,72.054,17.506,34.433,0,63.265-6.568,70.7-15.378a6.968,6.968,0,0,0,1.863-4.493C3974.728,1085.335,3942.24,1076.439,3902.164,1076.439Z" transform="translate(-3829.6 -1076.439)" fill="#3f2684"/>
      </g>
      <g id="Grupo_60395" data-name="Grupo 60395" transform="translate(3515.569 -233.075)">
        <path id="Trazado_131140" data-name="Trazado 131140" d="M3845.766,865.51l-54.191-.419a62.413,62.413,0,0,1-60.483-49.051l-7.4-33.747h189.479l-5.424,31.422A62.412,62.412,0,0,1,3845.766,865.51Z" transform="translate(-3723.697 -756.35)" fill="#008ae7"/>
        <path id="Trazado_131141" data-name="Trazado 131141" d="M3818.437,658.4c-52.323,0-94.74,11.615-94.74,25.942a7.715,7.715,0,0,0,.665,3.086c5.573,12.873,45.565,22.856,94.074,22.856,44.956,0,82.6-8.574,92.307-20.077a9.1,9.1,0,0,0,2.432-5.866C3913.176,670.015,3870.76,658.4,3818.437,658.4Z" transform="translate(-3723.697 -658.4)" fill="#002fe7"/>
      </g>
      <g id="Grupo_60396" data-name="Grupo 60396" transform="translate(3501.73 -324.057)">
        <path id="Trazado_131142" data-name="Trazado 131142" d="M3797.507,461.259l-62.106-.481a71.53,71.53,0,0,1-69.318-56.216l-8.475-38.677h217.157l-6.215,36.013A71.53,71.53,0,0,1,3797.507,461.259Z" transform="translate(-3657.607 -336.153)" fill="#ffd057"/>
        <path id="Trazado_131143" data-name="Trazado 131143" d="M3766.186,223.9c-59.966,0-108.579,13.311-108.579,29.732a8.842,8.842,0,0,0,.762,3.537c6.387,14.753,52.221,26.195,107.816,26.195,51.523,0,94.664-9.827,105.791-23.009a10.427,10.427,0,0,0,2.787-6.722C3874.764,237.207,3826.152,223.9,3766.186,223.9Z" transform="translate(-3657.607 -223.896)" fill="#ff9c57"/>
      </g>
      <g id="Grupo_60399" data-name="Grupo 60399" transform="translate(3594.9 -325.026)">
        <g id="Grupo_60397" data-name="Grupo 60397" transform="translate(0 0)">
          <path id="Trazado_131144" data-name="Trazado 131144" d="M4102.556,239.084a19.813,19.813,0,1,1,19.813,19.813A19.813,19.813,0,0,1,4102.556,239.084Z" transform="translate(-4102.556 -219.271)" fill="#aec3ff"/>
        </g>
        <g id="Grupo_60398" data-name="Grupo 60398" transform="translate(8.684 5.505)">
          <path id="Trazado_131145" data-name="Trazado 131145" d="M4166.806,251.919a6.359,6.359,0,1,1,6.359,6.359A6.359,6.359,0,0,1,4166.806,251.919Z" transform="translate(-4162.037 -245.56)" fill="#739af0"/>
          <path id="Trazado_131146" data-name="Trazado 131146" d="M4155.158,306.3a11.128,11.128,0,0,0-11.128,11.128h22.257A11.128,11.128,0,0,0,4155.158,306.3Z" transform="translate(-4144.03 -293.579)" fill="#739af0"/>
        </g>
      </g>
      <g id="Grupo_60402" data-name="Grupo 60402" transform="translate(3546.966 -431.465)">
        <g id="Grupo_60400" data-name="Grupo 60400" transform="translate(0 0)">
          <circle id="Elipse_4329" data-name="Elipse 4329" cx="34.313" cy="34.313" r="34.313" transform="translate(0 48.526) rotate(-45)" fill="#aec3ff"/>
        </g>
        <g id="Grupo_60401" data-name="Grupo 60401" transform="translate(29.253 23.746)">
          <path id="Trazado_131147" data-name="Trazado 131147" d="M4052.789-164.632a11.013,11.013,0,0,1,11.013-11.013,11.013,11.013,0,0,1,11.013,11.013,11.013,11.013,0,0,1-11.013,11.013A11.013,11.013,0,0,1,4052.789-164.632Z" transform="translate(-4044.529 175.645)" fill="#739af0"/>
          <path id="Trazado_131148" data-name="Trazado 131148" d="M4032.615-70.455a19.273,19.273,0,0,0-19.273,19.273h38.546A19.273,19.273,0,0,0,4032.615-70.455Z" transform="translate(-4013.342 92.481)" fill="#739af0"/>
        </g>
      </g>
      <g id="Grupo_60405" data-name="Grupo 60405" transform="translate(3665.566 -356.341)">
        <g id="Grupo_60403" data-name="Grupo 60403" transform="translate(0 0)">
          <circle id="Elipse_4330" data-name="Elipse 4330" cx="21.393" cy="21.393" r="21.393" fill="#aec3ff"/>
        </g>
        <g id="Grupo_60404" data-name="Grupo 60404" transform="translate(7.99 4.866)">
          <path id="Trazado_131149" data-name="Trazado 131149" d="M4502.781,99.822a6.866,6.866,0,1,1,6.866,6.866A6.866,6.866,0,0,1,4502.781,99.822Z" transform="translate(-4497.632 -92.956)" fill="#739af0"/>
          <path id="Trazado_131150" data-name="Trazado 131150" d="M4490.2,158.537a12.015,12.015,0,0,0-12.016,12.015h24.031A12.016,12.016,0,0,0,4490.2,158.537Z" transform="translate(-4478.189 -144.805)" fill="#739af0"/>
        </g>
      </g>
      <g id="Grupo_60406" data-name="Grupo 60406" transform="translate(3684.807 -418.061)">
        <path id="Trazado_121339" data-name="Trazado 121339" d="M4637.436-47.335l4.356,2.639a1.28,1.28,0,0,0,.921.146,1.2,1.2,0,0,0,.755-.512l9.445-14.539-5.661-2.793L4637.2-48.856a1.042,1.042,0,0,0,.163,1.464c.025.02.051.038.077.055Z" transform="translate(-4614.974 96.451)" fill="#8484ef"/>
        <path id="Trazado_121340" data-name="Trazado 121340" d="M4558.7-170.578l1.48.92,5.986-8-1.48-.94a5.284,5.284,0,0,0-6.812,1.619h0a4.315,4.315,0,0,0,.423,6.088,4.311,4.311,0,0,0,.4.312Z" transform="translate(-4551.604 188.816)" fill="#c4c4f7"/>
        <path id="Trazado_121341" data-name="Trazado 121341" d="M4539.728-192.037l27.532,3.844,6.291-8.42-13.908-22.121Z" transform="translate(-4538.093 220.054)" fill="#c4c4f7"/>
        <path id="Trazado_121342" data-name="Trazado 121342" d="M4548.043-122.909l25.791,3.5,2.5-3.359-21.7-8.961Z" transform="translate(-4544.667 151.267)" fill="#bbbbf2"/>
        <path id="Trazado_121343" data-name="Trazado 121343" d="M4720.264-71.769h0a3.658,3.658,0,0,0,4.741-1.14l1.131-1.5a3.01,3.01,0,0,0-.308-4.245,2.932,2.932,0,0,0-.28-.215h0a3.659,3.659,0,0,0-4.74,1.12l-1.132,1.5a3.029,3.029,0,0,0,.316,4.271A3,3,0,0,0,4720.264-71.769Z" transform="translate(-4679.78 109.825)" fill="#c4c4f7"/>
        <path id="Trazado_121344" data-name="Trazado 121344" d="M4720.83-73.14l-1.109,1.5a3,3,0,0,0-.73,2.348,3.127,3.127,0,0,0,1.3,2.132,3.681,3.681,0,0,0,4.766-1.14l1.109-1.5a1.96,1.96,0,0,0,.218-.34,3.383,3.383,0,0,1-4.451.769,2.8,2.8,0,0,1-1.014-3.823,2.806,2.806,0,0,1,.176-.266Z" transform="translate(-4679.802 105.197)" fill="#bbbbf2"/>
        <path id="Trazado_121345" data-name="Trazado 121345" d="M4532.642-196.2h0a2.292,2.292,0,0,0,2.807-.66l18.87-25.3a1.734,1.734,0,0,0,.438-1.373,1.81,1.81,0,0,0-.768-1.247h0a2.15,2.15,0,0,0-2.786.66l-18.821,25.3a1.775,1.775,0,0,0,.124,2.508A1.635,1.635,0,0,0,4532.642-196.2Z" transform="translate(-4531.922 225.037)" fill="#a4a4f7"/>
        <path id="Trazado_121346" data-name="Trazado 121346" d="M4554.581-221.505l-15.714,21.057a2.29,2.29,0,0,1-2.807.68,1.823,1.823,0,0,1-.479-.5l-3.09,4.239a1.778,1.778,0,0,0,.183,2.508,1.634,1.634,0,0,0,.144.112,2.292,2.292,0,0,0,2.806-.66l18.869-25.3A1.864,1.864,0,0,0,4554.581-221.505Z" transform="translate(-4532.029 222.245)" fill="#8484ef"/>
        <path id="Trazado_121347" data-name="Trazado 121347" d="M4673.838-101.506l1.785,1.12a6.589,6.589,0,0,0,8.51-2l1.763-2.379a5.359,5.359,0,0,0,1.3-4.195,5.58,5.58,0,0,0-2.321-3.8l-1.784-1.12a6.567,6.567,0,0,0-8.488,2l-1.784,2.38a5.352,5.352,0,0,0-1.3,4.195,5.588,5.588,0,0,0,2.321,3.8Z" transform="translate(-4642.255 137.782)" fill="#a4a4f7"/>
        <path id="Trazado_121348" data-name="Trazado 121348" d="M4666.776-90.575l-2.65,3.559a1.679,1.679,0,0,0-.412,1.322,1.754,1.754,0,0,0,.738,1.2l8.292,5.2a2.082,2.082,0,0,0,2.678-.641l2.655-3.559a2.079,2.079,0,0,1-2.7.641l-8.335-5.18a1.76,1.76,0,0,1-.705-1.22,1.7,1.7,0,0,1,.443-1.32Z" transform="translate(-4636.107 118.731)" fill="#8484ef"/>
      </g>
      <g id="Grupo_60407" data-name="Grupo 60407" transform="translate(3619.01 -469.184)">
        <path id="Trazado_121372" data-name="Trazado 121372" d="M4297.846-425.981H4217.7l9.6-6.53v-31.858a5.039,5.039,0,0,1,5.217-4.811h65.321a5.04,5.04,0,0,1,5.24,4.814v33.57a5.04,5.04,0,0,1-5.24,4.814Z" transform="translate(-4217.699 469.184)" fill="#aee6e6"/>
        <rect id="Rectángulo_30540" data-name="Rectángulo 30540" width="36.63" height="3.214" transform="translate(41.791 6.217)" fill="#fff" opacity="0.45" style="isolation: isolate"/>
        <rect id="Rectángulo_30541" data-name="Rectángulo 30541" width="36.63" height="3.214" transform="translate(41.791 11.031)" fill="#fff" opacity="0.45" style="isolation: isolate"/>
        <rect id="Rectángulo_30542" data-name="Rectángulo 30542" width="36.63" height="3.214" transform="translate(41.791 15.846)" fill="#fff" opacity="0.45" style="isolation: isolate"/>
        <rect id="Rectángulo_30543" data-name="Rectángulo 30543" width="36.63" height="3.214" transform="translate(41.791 20.53)" fill="#fff" opacity="0.45" style="isolation: isolate"/>
        <rect id="Rectángulo_30544" data-name="Rectángulo 30544" width="25.554" height="3.214" transform="translate(41.791 26.137)" fill="#fff" opacity="0.45" style="isolation: isolate"/>
        <rect id="Rectángulo_30545" data-name="Rectángulo 30545" width="23.013" height="24.72" rx="11.506" transform="translate(15.906 6.217)" fill="#26aab7" opacity="0.41" style="isolation: isolate"/>
        <rect id="Rectángulo_30546" data-name="Rectángulo 30546" width="23.013" height="2.652" transform="translate(15.906 34.022)" fill="#fff" opacity="0.45" style="isolation: isolate"/>
        <path id="Trazado_121373" data-name="Trazado 121373" d="M4318.384-390.691h-8.268a1.009,1.009,0,0,1-1-.706l-1.57-5.448a.9.9,0,0,1,.185-.831,1.085,1.085,0,0,1,.823-.38h11.562a1.07,1.07,0,0,1,.831.375.891.891,0,0,1,.173.836l-1.57,5.448a1.037,1.037,0,0,1-1.161.706Z" transform="translate(-4288.704 412.951)" fill="#fff"/>
        <path id="Trazado_121374" data-name="Trazado 121374" d="M4327.811-401.328h-10.055a.188.188,0,0,1-.188-.187.188.188,0,0,1,.188-.188h9.9l3.5-11.214a.2.2,0,0,1,.2-.144h2.181a.213.213,0,0,1,.149.06.177.177,0,0,1,.054.142.2.2,0,0,1-.2.185H4331.5L4328-401.46A.185.185,0,0,1,4327.811-401.328Z" transform="translate(-4296.656 424.813)" fill="#fff"/>
        <path id="Trazado_121375" data-name="Trazado 121375" d="M4317.089-354.146a1.182,1.182,0,0,1-1.223,1.081,1.118,1.118,0,0,1-1.085-1.149,1.118,1.118,0,0,1,1.085-1.085,1.28,1.28,0,0,1,.876.34A1.077,1.077,0,0,1,4317.089-354.146Z" transform="translate(-4294.452 379.145)" fill="#fff"/>
        <ellipse id="Elipse_4067" data-name="Elipse 4067" cx="1.224" cy="1.125" rx="1.224" ry="1.125" transform="translate(29.036 23.874)" fill="#fff"/>
      </g>
      <g id="Grupo_60409" data-name="Grupo 60409" transform="translate(3735.99 -468.184)">
        <g id="Grupo_60408" data-name="Grupo 60408" transform="translate(0 0)">
          <path id="Trazado_121415" data-name="Trazado 121415" d="M4786.6-348.5l-4.64,10.476,9.28-4.287" transform="translate(-4780.784 372.772)" fill="#aec3ff"/>
          <path id="Trazado_121416" data-name="Trazado 121416" d="M4795.985-464.4a19.7,19.7,0,0,0-18.25,11.378,17.035,17.035,0,0,0,4.754,19.788,20.979,20.979,0,0,0,21.767,3.262,17.927,17.927,0,0,0,11.349-17.375C4815.316-457.036,4806.53-464.673,4795.985-464.4Z" transform="translate(-4776.36 464.407)" fill="#aec3ff"/>
        </g>
        <g id="Grupo_55616" data-name="Grupo 55616" transform="translate(14.809 10.216)">
          <path id="Trazado_121417" data-name="Trazado 121417" d="M4847.083-414.355v12.173a1.25,1.25,0,0,0,.7,1.114,1.484,1.484,0,0,0,1.4-.019l11.455-6.066a1.239,1.239,0,0,0,.553-1.663,1.24,1.24,0,0,0-.553-.553l-11.455-6.066a1.483,1.483,0,0,0-1.387-.023A1.251,1.251,0,0,0,4847.083-414.355Z" transform="translate(-4847.083 415.619)" fill="#fefefe"/>
        </g>
      </g>
      <g id="Grupo_55618" data-name="Grupo 55618" transform="translate(3460.446 -392.096)">
        <path id="Trazado_121421" data-name="Trazado 121421" d="M3613.489-64.822l9.379-9.327L3610-71.817" transform="translate(-3578.68 79.779)" fill="#3939d3"/>
        <path id="Trazado_121422" data-name="Trazado 121422" d="M3460.461-83.921a18.011,18.011,0,0,0,11.345,17.482,21.1,21.1,0,0,0,21.877-3.193,17.137,17.137,0,0,0,4.888-19.853,19.784,19.784,0,0,0-18.251-11.537,20.2,20.2,0,0,0-13.8,4.763,17.046,17.046,0,0,0-6.062,12.34Z" transform="translate(-3460.446 101.036)" fill="#3939d3"/>
        <path id="Trazado_121423" data-name="Trazado 121423" d="M3535.635-53.7h11.4c1.141,0,2.132-1.79.736-2.332a2.656,2.656,0,0,0,1.435-1.182,1.182,1.182,0,0,0-.656-1.538l-.044-.017c1.362.338,1.875-1.732.847-2.4a2.905,2.905,0,0,0,1.251-1.732,1.633,1.633,0,0,0-.81-1.791,2.772,2.772,0,0,0-1.4-.236h-5.14a10.287,10.287,0,0,0-.7-7.2c-.4-.65-1.435-1.42-2.243-.911s-.589,1.589-.552,2.332a8.1,8.1,0,0,1-4.378,7.469A81.755,81.755,0,0,1,3535.635-53.7Z" transform="translate(-3519.694 79.029)" fill="#fefefe"/>
        <rect id="Rectángulo_30559" data-name="Rectángulo 30559" width="5.884" height="9.699" transform="translate(8.658 15.595)" fill="#fefefe"/>
      </g>
      <g id="Grupo_55619" data-name="Grupo 55619" transform="translate(3511.356 -432.787)">
        <path id="Trazado_121424" data-name="Trazado 121424" d="M3735.874-268.391a15.686,15.686,0,0,0-1.409-22.139q-.227-.2-.463-.392a19.3,19.3,0,0,0-24.594-.034,15.687,15.687,0,0,0-2.346,22.061q.192.239.395.469a19.209,19.209,0,0,0,24.294,3.54l7.027,3.438Z" transform="translate(-3703.578 295.362)" fill="#3939d3"/>
        <path id="Trazado_121425" data-name="Trazado 121425" d="M3748.385-242.456a4.712,4.712,0,0,1,6.267,0l1.147,1.081,1.147-1.054a4.765,4.765,0,0,1,6.337.022,3.886,3.886,0,0,1,.316,5.485,3.877,3.877,0,0,1-.339.336l-4.339,3.919h0a4.687,4.687,0,0,1-6.268,0l-4.247-3.986a3.843,3.843,0,0,1-.4-5.42,3.784,3.784,0,0,1,.378-.381Z" transform="translate(-3737.965 254.477)" fill="#fff"/>
      </g>
      <g id="Grupo_60410" data-name="Grupo 60410" transform="translate(3468.156 -369.56)">
        <path id="Trazado_121308" data-name="Trazado 121308" d="M3683.092,367.605H3644.45q.4,17.236.649,34.539a12.723,12.723,0,0,1-.707,5.21h0c-.505,0-.289.133-.462.968h0c-1.559,2.347-4.6,3.619-7.576,4.229a.688.688,0,0,0,0,.385.807.807,0,0,0-.289,1.074c.17.385,2.4.9,5.412.595a15.209,15.209,0,0,0,3.348-.849,5.267,5.267,0,0,0,1.226-.769,4.652,4.652,0,0,0,1.14-.255l.115.106,3.463-1.326s-.375-2-.679-3.049a1.818,1.818,0,0,0-.231-.491,135.654,135.654,0,0,0,6.724-22.182c-.635,9.281-4.332,28.348-4.56,29a5.293,5.293,0,0,1-4.332,2.837c-.822,0-4.849-.146-4.417,1.551.116.411,2.194,1.326,5.224,1.458a15.941,15.941,0,0,0,3.463-.3,6.729,6.729,0,0,0,2.15-1.074l.462.57,3.665-.822V417.08a3.986,3.986,0,0,0-.779-2.055V413.1l2.038-.212s4.084-12.131,6.018-16.255a22.342,22.342,0,0,0,3.03-11.627,53.262,53.262,0,0,1,2.367-11.678,1.533,1.533,0,0,1,.347-.679,2.057,2.057,0,0,1,1.342-.425c5.2-.437,7.56.371,10.822-.557,4.332-1.22,4.733-3.009,4.95-3.089A14.45,14.45,0,0,0,3683.092,367.605Z" transform="translate(-3606.925 -292.011)" fill="#5851bc" opacity="0.35" style="isolation: isolate"/>
        <path id="Trazado_121351" data-name="Trazado 121351" d="M3514.607,122.585s-3.362-2.175-3.477-3.089a21.2,21.2,0,0,0-3.218-5.3,19.032,19.032,0,0,0-5.527-2.214c-.849-.119-5.671.265-5.065.862s3.723.385,4.332.716l.606.331s-.606.756-.361,1.206-1.039,1.154-.549,1.922-.2.716.231,1.529c.707,1.326,2.525,2.068,3,1.711.361.782,1.746,2.387,3.03,2.281s4.43,2.652,4.43,2.652" transform="translate(-3497.269 -89.893)" fill="#ffb9b0"/>
        <path id="Trazado_121352" data-name="Trazado 121352" d="M3777.357,88.494c.1,2.068,0,5.691.594,6.219s2.727.451,2.727.451-7.46,8.671-8.124,8.194-9.48-7.08-7.5-7.425,3.925-.265,3.868-1.206l-.17-2.837" transform="translate(-3708.751 -71.344)" fill="#ffb9b0"/>
        <path id="Trazado_121353" data-name="Trazado 121353" d="M3765.264,159.058s-14.56,1.511-17.907,1.577-3.189-1.536-3.189-1.536a110.783,110.783,0,0,0-1.444-14.081c-.649-2.532-.923-3.46-1.444-5.861-1.255-5.3-1.2-6.364-2.525-12.954l8.658-6.418a4.681,4.681,0,0,0,4.545,2.506,6.807,6.807,0,0,0,6.4-3.09l11.846,7.24,1.126,17.594-1.444,14.492" transform="translate(-3688.188 -95.623)" fill="#6980e2"/>
        <path id="Trazado_121354" data-name="Trazado 121354" d="M3768.464,35.421a21.528,21.528,0,0,1-1.024,3.076,3.808,3.808,0,0,1-4.026,2.548l-4.444.093a5.527,5.527,0,0,1-3.492-.679c-.909-.729-.923-1.962-1.125-2.973-.26-1.326-.477-2.652-.635-3.9a52.818,52.818,0,0,1-.39-7.7,4.3,4.3,0,0,1,.1-1.047.628.628,0,0,1,.188-.385.922.922,0,0,1,.534-.2,49.759,49.759,0,0,1,8.427-.491,10.28,10.28,0,0,1,5.671,1.326,9.683,9.683,0,0,1,3.016,4.694c.1.278.188.65-.072.822" transform="translate(-3699.7 -20.152)" fill="#ffb9b0"/>
        <path id="Trazado_121355" data-name="Trazado 121355" d="M3669.715,530.36a26.67,26.67,0,0,0,.88,3.568c.375.915,3.622.08,3.838-.517a25.129,25.129,0,0,0-1.024-4.905" transform="translate(-3633.606 -419.219)" fill="#ed9c80"/>
        <path id="Trazado_121356" data-name="Trazado 121356" d="M3647.624,551.393c.274.981.634,2.864.634,2.864l-3.246,1.326-.534-.464a6,6,0,0,1-1.8,1.326,14.913,14.913,0,0,1-3.143.8c-2.888.278-4.92-.213-5.08-.57-.707-1.511,3.044-1.91,3.8-2.095a4.793,4.793,0,0,0,3.567-3.274c.159-.8,0-.929.433-.9a1.153,1.153,0,0,1,.808.345,2.192,2.192,0,0,0,2.309.491,2.379,2.379,0,0,0,1.154-.875A1.387,1.387,0,0,1,3647.624,551.393Z" transform="translate(-3605.656 -436.5)" fill="#38287c"/>
        <path id="Trazado_121357" data-name="Trazado 121357" d="M3631.7,318.9a59.862,59.862,0,0,1-16.58.358c.721,1.883,2.482,4.309,3.143,6.961,2.208,8.791,2.986,20.591,3.535,27.843,0,0-1.053,1.869-4.459.451-5.08-11.535-13.953-34.911-13.867-39.988.1-6.456,17.633-7.956,30.494-9.6" transform="translate(-3581.238 -242.455)" fill="#453087"/>
        <path id="Trazado_121358" data-name="Trazado 121358" d="M3661.4,304.836c4.041,2.652-22.395,12.927-22.395,12.927a47.281,47.281,0,0,1-8.658.756,5.443,5.443,0,0,1-.649-1.511c-.144-.7,0-1.432-.2-2.148a5.021,5.021,0,0,0-2.641-3.262,12.258,12.258,0,0,0-4.332-1.326,62.971,62.971,0,0,0-9.812-.159c7.95-5.383,24.213-6.1,31.746-6.541C3645.929,305.817,3660.821,304.439,3661.4,304.836Z" transform="translate(-3588.536 -241.387)" fill="#38287c"/>
        <path id="Trazado_121359" data-name="Trazado 121359" d="M3709.734,561.973a25.818,25.818,0,0,0,.188,3.659c.2.955,3.567.636,3.882.092a24.366,24.366,0,0,0-.072-5" transform="translate(-3665.241 -444.693)" fill="#ed9c80"/>
        <path id="Trazado_121360" data-name="Trazado 121360" d="M3681.009,582.062c.085,1.007.072,2.917.072,2.917l-3.434.769-.434-.544a6.141,6.141,0,0,1-2.039,1.007,13.89,13.89,0,0,1-3.232.291c-2.888-.17-4.805-.995-4.906-1.326-.4-1.6,3.362-1.406,4.142-1.458a5.012,5.012,0,0,0,4.127-2.652c.3-.756.13-.928.595-.822a1.19,1.19,0,0,1,.736.477,2.143,2.143,0,0,0,2.179.849,2.561,2.561,0,0,0,1.3-.68A1.337,1.337,0,0,1,3681.009,582.062Z" transform="translate(-3631.464 -460.102)" fill="#38287c"/>
        <path id="Trazado_121361" data-name="Trazado 121361" d="M3736.167,307.009a176.968,176.968,0,0,1-17.907.53c-2.293,0-19.6,2.983-21.255,5.675-2.713,4.428,1.775,30.336,1.359,48.885,0,0,2.078,1.591,5.776.093.923-9.109,6.781-30.6,2.742-40.638,9.538,1.167,17.23,2.321,25.9-.318a6.61,6.61,0,0,0,4.459-4.349C3738.129,314.474,3737.653,309.17,3736.167,307.009Z" transform="translate(-3654.487 -244.103)" fill="#453087"/>
        <path id="Trazado_121362" data-name="Trazado 121362" d="M3598.709,121.989l-2.482.133a20.908,20.908,0,0,0-5.137.9c-2.366.8-4.026,2.811-5.946,4.389s-11.428,9.9-13.218,10.209-17.388-9.559-17.388-9.559l-3.838,3.513s17.028,14.453,22.093,14.478c2.463,0,16.061-6.563,20.4-9.122Z" transform="translate(-3539.512 -97.825)" fill="#6980e2"/>
        <path id="Trazado_121363" data-name="Trazado 121363" d="M3572.5,176.909c-3.492.186-19.524-11.058-21.385-12.37l-.75.679s17.027,14.449,22.093,14.475c2.064,0,11.833-4.548,17.547-7.56l1.444-.782-.883-4.85S3576.22,176.724,3572.5,176.909Z" transform="translate(-3539.245 -131.465)" fill="#ce4a30" opacity="0.25" style="isolation: isolate"/>
        <path id="Trazado_121364" data-name="Trazado 121364" d="M3551.85,234.689h38.961l-6.984-20.922a2.973,2.973,0,0,0-2.888-1.936h-34.082a2,2,0,0,0-1.57.719,1.661,1.661,0,0,0-.292,1.588Z" transform="translate(-3534.932 -168.854)" fill="#a4a4f7"/>
        <path id="Trazado_121365" data-name="Trazado 121365" d="M3547.338,234.688h38.369l-7-20.922a2.957,2.957,0,0,0-2.888-1.936h-34.111a2.01,2.01,0,0,0-1.562.724,1.674,1.674,0,0,0-.3,1.583l6.7,20.034A.777.777,0,0,0,3547.338,234.688Z" transform="translate(-3530.868 -168.852)" fill="#7a74d1"/>
        <g id="Grupo_55614" data-name="Grupo 55614" transform="translate(51.416 23.62)" opacity="0.25">
          <path id="Trazado_121366" data-name="Trazado 121366" d="M3767.741,130.027a128.127,128.127,0,0,0-2.888,20.113c-6.81,2.427-9.581,6.046-16.248,8.764,0,0-5.253-.8-5.776,1.019-.318,1.047,6.162,1.882,6.162,1.882,6.176,0,22.452-4.11,23.563-4.389s4.333-19.291,4.43-29.62a6.069,6.069,0,0,0-1.039-4.19,5.781,5.781,0,0,0-2.006-1.326,30.1,30.1,0,0,0-12.424-2.888" transform="translate(-3742.817 -119.393)" fill="#ce4a30"/>
        </g>
        <path id="Trazado_121367" data-name="Trazado 121367" d="M3733.759,310.329a4.123,4.123,0,0,0-3.246-.941,21.392,21.392,0,0,0-2.6.186c-.39,0-.849.146-.895.53s1.919,0,2.888.279q-3.009.222-6.031.146a1.744,1.744,0,0,0-.692,0,.525.525,0,0,0-.39.477.669.669,0,0,0,.275.425,4.287,4.287,0,0,0,2.078.769,17.265,17.265,0,0,0,9.148-.742" transform="translate(-3675.571 -245.951)" fill="#ffb9b0"/>
        <path id="Trazado_121368" data-name="Trazado 121368" d="M3789.394,129.874c-.159,8.618-.823,12.556-.635,21.214-4.7.928-11.227,5.82-17.878,8.552a2.922,2.922,0,0,0,.217,2.227c.505.17,22.467-4.734,24.214-6.219s3.653-17.462,3.781-27.843a6.066,6.066,0,0,0-1.039-4.19,5.783,5.783,0,0,0-2.005-1.326,30.109,30.109,0,0,0-12.425-2.888" transform="translate(-3713.487 -95.779)" fill="#6980e2"/>
        <path id="Trazado_121369" data-name="Trazado 121369" d="M3628.623,255.433c.144,1.843-2.222,3.328-5.267,3.328s-5.642-1.485-5.776-3.328,2.222-3.313,5.281-3.313S3628.479,253.6,3628.623,255.433Z" transform="translate(-3592.384 -200.708)" fill="none" stroke="#a4a4f7" stroke-miterlimit="10" stroke-width="1" opacity="0.45" style="isolation: isolate"/>
        <path id="Trazado_121426" data-name="Trazado 121426" d="M3627.159,260.806c.04-1.018,1.646-1.786,3.582-1.716s3.469.95,3.426,1.967-1.646,1.786-3.582,1.716S3627.119,261.822,3627.159,260.806Z" transform="translate(-3599.96 -206.214)" fill="#a4a4f7"/>
        <path id="Trazado_121370" data-name="Trazado 121370" d="M3754.264,51.948c0-.331-.85-.385-1.631-.305a12.992,12.992,0,0,0-3.29.65c-.433.3-.4.517-.635.544s-.231-.186-.735-.4a7.161,7.161,0,0,0-2.482,0c-.779.093-1.515.255-1.444.57a1.742,1.742,0,0,0,.3.995c.159.093.159.08.779,1.326a1.347,1.347,0,0,0,.711.849,1.557,1.557,0,0,0,1.165.085,2.038,2.038,0,0,0,1.444-2.175c0-.57.188-.636.39-.663s.332,0,.578.557.419,1.724,1.747,1.79c1.718.093,2.463-.451,2.713-1.472.317-1.326.245-1.326.375-1.5a7.849,7.849,0,0,1,1.284.093v-.411A11.1,11.1,0,0,1,3754.264,51.948ZM3748,54.719a1.359,1.359,0,0,1-1.269,1.444h0c-.793.093-1.154-.291-1.573-1.233a2.227,2.227,0,0,1-.246-1.671c.13-.225.563-.212,1.544-.279s1.313-.066,1.444.331a4.5,4.5,0,0,1,.1,1.407Zm5.627-.756a1.614,1.614,0,0,1-1.636,1.591h-.009c-1.529.17-1.832-.385-2.063-1.061a5.124,5.124,0,0,1-.289-1.392c0-.411.375-.464,1.342-.636a6.432,6.432,0,0,1,2.453-.186,2.222,2.222,0,0,1,.145,1.684Z" transform="translate(-3692.369 -42.183)" fill="#483a99"/>
        <path id="Trazado_121371" data-name="Trazado 121371" d="M3760.165,14.154a12.642,12.642,0,0,0-.433-2.123,6.81,6.81,0,0,0-3.593-4.332A12.474,12.474,0,0,0,3748,6.956c-1.444.385-2.049,1.1-2.888,1.074a8.835,8.835,0,0,1-2.092-.623c-5.776-1.922-4.848,3.313-4.228,4.747.274.636,1.6,1.1,1.775,1.326a16.022,16.022,0,0,1,.274,2.135,1.154,1.154,0,0,0,.721.8V14.485a2.081,2.081,0,0,1,.866-1.578,5.839,5.839,0,0,1,2.092-.544,17.157,17.157,0,0,1,4.332.65c1.1.862,1.444,2.824,1.674,3.978.144.544.289.9.534.9.17-1.591.779-1.631,1.8-1.087a2.625,2.625,0,0,1,.88,2.135,2.281,2.281,0,0,1-1.732,2.347c-.419.08.822,2.241,1.444,2.784a3.481,3.481,0,0,0,.607.491,3.125,3.125,0,0,0,.707.239l.822.2a2.453,2.453,0,0,0,1.155.093c.606-.159.934-.756,1.212-1.326a29.613,29.613,0,0,0,1.359-2.652,14.4,14.4,0,0,0,.85-6.961Z" transform="translate(-3687.852 -6.59)" fill="#483a99"/>
      </g>
    </g>
  </g>
</svg>
