<svg xmlns="http://www.w3.org/2000/svg" xmlns:xlink="http://www.w3.org/1999/xlink" width="78.501" height="76.824" viewBox="0 0 78.501 76.824">
  <defs>
    <clipPath id="clip-path">
      <rect id="Rectángulo_401709" data-name="Rectángulo 401709" width="63" height="63" transform="translate(293 3114)" fill="#fff" stroke="#707070" stroke-width="1"/>
    </clipPath>
  </defs>
  <g id="Grupo_1100549" data-name="Grupo 1100549" transform="translate(-285 -3309)">
    <g id="Grupo_1100178" data-name="Grupo 1100178" transform="translate(0 195)">
      <path id="_12068" data-name="12068" d="M72.033,71.913c-8.038-1.11-16.53-.839-23.844,2.675C38.045,79.46,31.382,90.507,31.127,101.757s5.606,22.305,14.66,28.988,21,9.051,32.068,7.045c11.165-2.023,21.645-8.583,27.469-18.322,3.735-6.245,5.48-13.956,3.417-20.934a28.6,28.6,0,0,0-6.787-11.156A50.145,50.145,0,0,0,72.033,71.913Z" transform="translate(253.881 3052.343)" fill="#26aab7"/>
      <g id="Enmascarar_grupo_1098738" data-name="Enmascarar grupo 1098738" clip-path="url(#clip-path)">
        <g id="investigacion" transform="translate(293 3113.889)">
          <g id="Grupo_1100197" data-name="Grupo 1100197">
            <path id="Trazado_874925" data-name="Trazado 874925" d="M13.293,46.545,11.207,48.63,2.523,57.315a2.531,2.531,0,0,0,0,3.579h0a2.531,2.531,0,0,0,3.579,0L14.993,52l1.879-1.879a12.555,12.555,0,0,1-3.579-3.579Z" fill="#ffad95"/>
            <path id="Trazado_874926" data-name="Trazado 874926" d="M61.747,29.017A23.68,23.68,0,1,1,20.673,9.341a1.232,1.232,0,0,1,1.792-.048l3.1,3.1a1.229,1.229,0,0,1,.071,1.668A16.839,16.839,0,1,0,54.872,28.552a1.236,1.236,0,0,1,1.207-.983h4.452A1.237,1.237,0,0,1,61.747,29.017Z" fill="#99ebfa"/>
            <path id="Trazado_874927" data-name="Trazado 874927" d="M32.578,30.839a12.5,12.5,0,1,0,0,17.678A12.514,12.514,0,0,0,32.578,30.839Z" fill="#ffe4dc"/>
            <circle id="Elipse_11610" data-name="Elipse 11610" cx="7.522" cy="7.522" r="7.522" transform="translate(16.217 32.155)" fill="#fff"/>
            <path id="Trazado_874928" data-name="Trazado 874928" d="M60.531,22.508H56.079a1.235,1.235,0,0,1-1.207-.981A16.849,16.849,0,0,0,31.266,9.783a1.234,1.234,0,0,1-1.4-.243L26.622,6.291a1.233,1.233,0,0,1,.264-1.947A23.688,23.688,0,0,1,61.747,21.063,1.236,1.236,0,0,1,60.531,22.508Z" fill="#fff3a0"/>
          </g>
          <g id="Grupo_1100198" data-name="Grupo 1100198">
            <circle id="Elipse_11611" data-name="Elipse 11611" cx="12.5" cy="12.5" r="12.5" transform="translate(6.062 39.678) rotate(-45)" fill="none" stroke="#000" stroke-linecap="round" stroke-linejoin="round" stroke-miterlimit="10" stroke-width="2.461"/>
            <circle id="Elipse_11612" data-name="Elipse 11612" cx="7.522" cy="7.522" r="7.522" transform="translate(16.217 32.155)" fill="none" stroke="#000" stroke-linecap="round" stroke-linejoin="round" stroke-miterlimit="10" stroke-width="2.461"/>
            <path id="Trazado_874929" data-name="Trazado 874929" d="M16.69,50.306,6.1,60.894a2.531,2.531,0,0,1-3.579,0h0a2.531,2.531,0,0,1,0-3.579L13.111,46.727" fill="none" stroke="#000" stroke-linecap="round" stroke-linejoin="round" stroke-miterlimit="10" stroke-width="2.461"/>
            <path id="Trazado_874930" data-name="Trazado 874930" d="M36.067,41.716A16.86,16.86,0,0,0,54.872,28.55a1.235,1.235,0,0,1,1.207-.981h4.452a1.236,1.236,0,0,1,1.217,1.445,23.707,23.707,0,0,1-28.766,19.08" fill="none" stroke="#000" stroke-linecap="round" stroke-linejoin="round" stroke-miterlimit="10" stroke-width="2.461"/>
            <path id="Trazado_874931" data-name="Trazado 874931" d="M15.338,30.422A23.73,23.73,0,0,1,20.674,9.34a1.231,1.231,0,0,1,1.791-.047l3.1,3.1a1.23,1.23,0,0,1,.068,1.671,16.776,16.776,0,0,0-4.067,10.976,16.955,16.955,0,0,0,.157,2.309" fill="none" stroke="#000" stroke-linecap="round" stroke-linejoin="round" stroke-miterlimit="10" stroke-width="2.461"/>
            <path id="Trazado_874932" data-name="Trazado 874932" d="M57.717,11.339a23.553,23.553,0,0,1,4.031,9.723,1.236,1.236,0,0,1-1.217,1.445H56.079a1.235,1.235,0,0,1-1.207-.981A16.849,16.849,0,0,0,31.266,9.783a1.234,1.234,0,0,1-1.4-.243L26.622,6.291a1.233,1.233,0,0,1,.264-1.947A23.713,23.713,0,0,1,49.412,4.07" fill="none" stroke="#000" stroke-linecap="round" stroke-linejoin="round" stroke-miterlimit="10" stroke-width="2.461"/>
            <path id="Trazado_874933" data-name="Trazado 874933" d="M43.331,48.717l3.022,9.569a2.468,2.468,0,0,0,2.354,1.725H59.075" fill="none" stroke="#000" stroke-linecap="round" stroke-linejoin="round" stroke-miterlimit="10" stroke-width="2.461"/>
            <line id="Línea_1593" data-name="Línea 1593" x2="8.133" transform="translate(50.942 55.033)" fill="none" stroke="#000" stroke-linecap="round" stroke-linejoin="round" stroke-miterlimit="10" stroke-width="2.461"/>
            <line id="Línea_1594" data-name="Línea 1594" x1="14.091" transform="translate(1.23 17.997)" fill="none" stroke="#000" stroke-linecap="round" stroke-linejoin="round" stroke-miterlimit="10" stroke-width="2.461"/>
            <line id="Línea_1595" data-name="Línea 1595" x1="8.005" transform="translate(1.23 13.02)" fill="none" stroke="#000" stroke-linecap="round" stroke-linejoin="round" stroke-miterlimit="10" stroke-width="2.461"/>
            <line id="Línea_1596" data-name="Línea 1596" transform="translate(54.013 7.223)" fill="none" stroke="#000" stroke-linecap="round" stroke-linejoin="round" stroke-miterlimit="10" stroke-width="2.461"/>
          </g>
        </g>
      </g>
    </g>
  </g>
</svg>
