<svg xmlns="http://www.w3.org/2000/svg" xmlns:xlink="http://www.w3.org/1999/xlink" width="78.501" height="76.824" viewBox="0 0 78.501 76.824">
  <defs>
    <clipPath id="clip-path">
      <rect id="Rectángulo_401709" data-name="Rectángulo 401709" width="63" height="63" transform="translate(293 3114)" fill="#fff" stroke="#707070" stroke-width="1"/>
    </clipPath>
  </defs>
  <g id="Grupo_1100550" data-name="Grupo 1100550" transform="translate(-838 -3114)">
    <g id="Grupo_1100177" data-name="Grupo 1100177" transform="translate(553)">
      <path id="_12068" data-name="12068" d="M72.033,71.913c-8.038-1.11-16.53-.839-23.844,2.675C38.045,79.46,31.382,90.507,31.127,101.757s5.606,22.305,14.66,28.988,21,9.051,32.068,7.045c11.165-2.023,21.645-8.583,27.469-18.322,3.735-6.245,5.48-13.956,3.417-20.934a28.6,28.6,0,0,0-6.787-11.156A50.145,50.145,0,0,0,72.033,71.913Z" transform="translate(253.881 3052.343)" fill="#26aab7"/>
      <g id="Enmascarar_grupo_1098737" data-name="Enmascarar grupo 1098737" clip-path="url(#clip-path)">
        <g id="reclutamiento" transform="translate(293 3114)">
          <path id="Trazado_874911" data-name="Trazado 874911" d="M22.2,46.354,7.77,60.78a3.381,3.381,0,0,1-4.781,0h0a3.381,3.381,0,0,1,0-4.781L17.415,41.573Z" fill="#58bfff"/>
          <path id="Trazado_874912" data-name="Trazado 874912" d="M56.368,29.163v.987A3.947,3.947,0,0,1,52.42,34.1h0a3.947,3.947,0,0,1-3.947-3.947v-.987a3.947,3.947,0,0,1,3.947-3.947h0A3.947,3.947,0,0,1,56.368,29.163Z" fill="#ffcdac"/>
          <path id="Trazado_874913" data-name="Trazado 874913" d="M55.082,34.1H49.759a6.687,6.687,0,0,0-6.687,6.687v2.477h18.7V40.784A6.687,6.687,0,0,0,55.082,34.1Z" fill="#ffbc53"/>
          <path id="Trazado_874914" data-name="Trazado 874914" d="M6.632,29.163v.987A3.947,3.947,0,0,0,10.58,34.1h0a3.947,3.947,0,0,0,3.947-3.947v-.987a3.947,3.947,0,0,0-3.947-3.947h0A3.947,3.947,0,0,0,6.632,29.163Z" fill="#ffcdac"/>
          <path id="Trazado_874915" data-name="Trazado 874915" d="M7.918,34.1h5.324a6.687,6.687,0,0,1,6.687,6.687v2.477H1.23V40.784A6.687,6.687,0,0,1,7.918,34.1Z" fill="#95e540"/>
          <circle id="Elipse_11608" data-name="Elipse 11608" cx="16.98" cy="16.98" r="16.98" transform="translate(14.52 14.308)" fill="#a5ddff"/>
          <circle id="Elipse_11609" data-name="Elipse 11609" cx="12.055" cy="12.055" r="12.055" transform="translate(19.445 19.233)" fill="#fff"/>
          <path id="Trazado_874916" data-name="Trazado 874916" d="M35.323,29.744V30.7A3.823,3.823,0,0,1,31.5,34.523h0A3.823,3.823,0,0,1,27.677,30.7v-.956A3.823,3.823,0,0,1,31.5,25.92h0A3.823,3.823,0,0,1,35.323,29.744Z" fill="#ffcdac"/>
          <path id="Trazado_874917" data-name="Trazado 874917" d="M31.5,34.523h0a8.824,8.824,0,0,0-8.21,5.593,12.049,12.049,0,0,0,16.421,0A8.824,8.824,0,0,0,31.5,34.523Z" fill="#fe6663"/>
          <path id="Trazado_874918" data-name="Trazado 874918" d="M56.716,33.037A5.148,5.148,0,0,0,57.6,30.15v-.987A5.175,5.175,0,0,0,48.767,25.5a18.212,18.212,0,0,0-34.534,0A5.175,5.175,0,0,0,5.4,29.163v.987a5.148,5.148,0,0,0,.882,2.887A7.931,7.931,0,0,0,0,40.784v2.477a1.231,1.231,0,0,0,1.23,1.23h6.4a1.23,1.23,0,0,0,0-2.461H2.461V40.784a5.463,5.463,0,0,1,5.457-5.457h5.824a18.108,18.108,0,0,0,2.417,5.762L2.119,55.129A4.611,4.611,0,0,0,8.64,61.651l7.74-7.74a1.231,1.231,0,0,0-1.74-1.74L6.9,59.91a2.15,2.15,0,1,1-3.041-3.041L17.641,43.087a18.2,18.2,0,0,0,31.618-7.76h5.824a5.463,5.463,0,0,1,5.457,5.457v1.247H48.973a1.23,1.23,0,0,0,0,2.461h12.8A1.231,1.231,0,0,0,63,43.262V40.784A7.931,7.931,0,0,0,56.716,33.037ZM49.7,29.163a2.717,2.717,0,1,1,5.434,0v.987a2.717,2.717,0,0,1-5.434,0Zm-41.841,0a2.717,2.717,0,0,1,5.434,0v.987a2.717,2.717,0,0,1-5.434,0S7.862,29.163,7.862,29.163ZM31.5,47.038a15.75,15.75,0,1,1,15.75-15.75A15.768,15.768,0,0,1,31.5,47.038Z"/>
          <path id="Trazado_874919" data-name="Trazado 874919" d="M31.5,18a13.283,13.283,0,0,0-9.113,22.952,1.23,1.23,0,0,0,.143.133,13.264,13.264,0,0,0,17.941,0,1.219,1.219,0,0,0,.143-.133A13.283,13.283,0,0,0,31.5,18ZM24.794,39.784a7.594,7.594,0,0,1,13.411,0,10.806,10.806,0,0,1-13.411,0ZM28.907,30.7v-.956a2.593,2.593,0,1,1,5.186,0V30.7a2.593,2.593,0,0,1-5.186,0Zm11.1,7.282A9.966,9.966,0,0,0,35.3,34.029,5.032,5.032,0,0,0,36.554,30.7v-.956a5.054,5.054,0,1,0-10.108,0V30.7A5.031,5.031,0,0,0,27.7,34.029a9.968,9.968,0,0,0-4.708,3.952,10.828,10.828,0,1,1,17.011,0Z"/>
          <path id="Trazado_874920" data-name="Trazado 874920" d="M18.8,48.518a1.231,1.231,0,1,0,.87.361A1.24,1.24,0,0,0,18.8,48.518Z"/>
          <path id="Trazado_874921" data-name="Trazado 874921" d="M31.525,6.649a1.231,1.231,0,0,0,1.23-1.23V1.232a1.23,1.23,0,1,0-2.461,0V5.418A1.231,1.231,0,0,0,31.525,6.649Z"/>
          <path id="Trazado_874922" data-name="Trazado 874922" d="M31.525,10.706a1.231,1.231,0,1,0-.87-.361A1.237,1.237,0,0,0,31.525,10.706Z"/>
          <path id="Trazado_874923" data-name="Trazado 874923" d="M38.924,9.091a1.227,1.227,0,0,0,.87-.36l2.163-2.163a1.231,1.231,0,1,0-1.74-1.74L38.053,6.99a1.231,1.231,0,0,0,.87,2.1Z"/>
          <path id="Trazado_874924" data-name="Trazado 874924" d="M23.227,8.746a1.23,1.23,0,0,0,1.74-1.74L22.784,4.822a1.231,1.231,0,1,0-1.74,1.74Z"/>
        </g>
      </g>
    </g>
  </g>
</svg>
