<svg xmlns="http://www.w3.org/2000/svg" width="85.718" height="85.718" viewBox="0 0 85.718 85.718">
  <g id="Grupo_62197" data-name="Grupo 62197" transform="translate(-1068.281 -1078.282)">
    <circle id="Elipse_76" data-name="Elipse 76" cx="42.859" cy="42.859" r="42.859" transform="translate(1068.281 1078.282)" fill="#3a277b" opacity="0.1"/>
    <g id="Grupo_60259" data-name="Grupo 60259" transform="translate(417.864 1059.142)">
      <path id="Trazado_130842" data-name="Trazado 130842" d="M696.044,278.787a.818.818,0,1,0-1.636.011c-.018.733.005,1.468-.008,2.2a32.449,32.449,0,0,1-.191,5,12.737,12.737,0,0,1-23.862,3.725,14.059,14.059,0,0,1-1.45-7.022c.032-1.265.013-2.532,0-3.8-.005-.6-.4-.993-.9-.932-.476.059-.743.423-.745,1.051,0,1.614-.013,3.229,0,4.843a13.752,13.752,0,0,0,.916,5,14.191,14.191,0,0,0,9.945,8.911c.4.107.464.256.4.637-.157.921-.305,1.847-.371,2.778-.037.527-.246.617-.711.606-1.045-.025-2.094-.044-3.135.024a3.864,3.864,0,0,0-3.533,2.629,2.3,2.3,0,0,0,1.189,3.332h19.375a2.061,2.061,0,0,0,1.465-2.112A4,4,0,0,0,689,301.815c-1.1-.059-2.2-.042-3.3-.021-.361.007-.476-.126-.514-.451-.111-.946-.206-1.9-.378-2.833-.089-.487.056-.621.506-.757,5.828-1.758,9.39-5.611,10.526-11.607C696.3,283.717,696,281.241,696.044,278.787Zm-16.281,22.619c.138-.961.265-1.923.388-2.886.029-.23.089-.343.368-.333.75.027,1.5.021,2.254,0,.251-.006.362.056.392.316.114.983.234,1.965.38,2.943.044.3-.056.346-.311.34-.531-.012-1.064,0-1.6,0-.514,0-1.028-.016-1.54.006C679.789,301.8,679.723,301.688,679.763,301.406Zm8.726,2.034a2.41,2.41,0,0,1,2.539,1.683,3.576,3.576,0,0,1,.1.482c.064.376-.082.531-.477.526-1.264-.016-2.529-.006-3.794-.006H672.779c-.606,0-.7-.12-.586-.722a2.389,2.389,0,0,1,2.167-1.94c.566-.039,1.135-.025,1.7-.025Q682.276,303.436,688.49,303.44Z" transform="translate(0 -214.683)" fill="#3a277b"/>
      <path id="Trazado_130843" data-name="Trazado 130843" d="M942.9,42.348a6.541,6.541,0,0,0-6.526-5.615c-5.321-.009-10.641-.019-15.962.005a6.406,6.406,0,0,0-5.6,3.112,8.049,8.049,0,0,0-.96,5.036.74.74,0,0,0,.825.717.77.77,0,0,0,.8-.755c.037-.419.012-.843.013-1.265a4.9,4.9,0,0,1,5.2-5.2q7.706,0,15.411,0a4.919,4.919,0,0,1,5.225,5.185q.01,3.137,0,6.275a4.907,4.907,0,0,1-5.209,5.2c-2.88,0-5.761.01-8.641,0a2.847,2.847,0,0,0-2.522,1.287c-.7,1.008-1.438,1.99-2.161,2.983-.5.685-1,1.369-1.507,2.065-.048-.06-.066-.072-.066-.085q-.007-1.789-.011-3.577a2.607,2.607,0,0,0-2.137-2.841,4.781,4.781,0,0,1-3.5-3.848,12.711,12.711,0,0,1-.08-2.2c-.019-.64-.32-1-.846-.992-.505.007-.8.356-.807.967q-.008.716,0,1.431a6.486,6.486,0,0,0,4.762,6.214c.787.227.954.452.955,1.3,0,1.523.007,3.046,0,4.568a1.358,1.358,0,0,0,2.543.763c1.384-1.894,2.775-3.783,4.131-5.7a1.515,1.515,0,0,1,1.385-.693q4.376.029,8.751,0a6.523,6.523,0,0,0,6.463-5.162c.047-.2-.013-.443.188-.6V42.566C942.892,42.536,942.918,42.434,942.9,42.348Z" transform="translate(-219.434)" fill="#3a277b"/>
      <path id="Trazado_130844" data-name="Trazado 130844" d="M704.488,140.392a.832.832,0,1,0,1.471-.749,9.809,9.809,0,0,1-1.031-4.836c.005-.417.09-.557.537-.553,2.752.022,5.5.011,8.256.011q4.155,0,8.311,0c.217,0,.477-.1.476.316a12.5,12.5,0,0,1-.272,3.059,8.776,8.776,0,0,1-13.649,5.012,1.49,1.49,0,0,0-.565-.326.78.78,0,0,0-.948.464.823.823,0,0,0,.381,1.082,10.122,10.122,0,0,0,8.637,1.806,10.391,10.391,0,0,0,8.059-10.336c.006-4.348,0-8.7,0-13.044a12.636,12.636,0,0,0-.211-2.3,10.427,10.427,0,0,0-20.651,2.1c-.036,4.44-.01,8.88-.006,13.32A10.547,10.547,0,0,0,704.488,140.392Zm5.68-16.267c-1.559-.006-3.118-.015-4.677.006-.412.006-.61-.073-.559-.536.058-.525-.21-1.208.1-1.543s1-.1,1.528-.1c1.155-.018,2.311-.005,3.467-.006a3.059,3.059,0,0,0,.439-.013.818.818,0,0,0,.754-.86.774.774,0,0,0-.83-.771c-1.541-.014-3.081-.007-4.622-.008h-.641a8.779,8.779,0,0,1,17.09-.474c.11.426.018.487-.377.482-1.522-.018-3.045-.01-4.567-.006-.705,0-1.056.289-1.043.837.012.519.367.809,1.03.812,1.578.006,3.155.015,4.732-.007.389-.005.573.057.524.5a6.4,6.4,0,0,0,0,1.209c.031.382-.09.5-.481.49-1.522-.023-3.045-.01-4.567-.009a3.931,3.931,0,0,0-.494.017.813.813,0,0,0-.014,1.617,3.168,3.168,0,0,0,.494.017c1.522,0,3.045.012,4.567-.008.367,0,.536.067.494.473-.057.56.232,1.314-.117,1.634-.3.278-1.046.085-1.595.087-1.211,0-2.421-.007-3.632.006-.616.007-.947.322-.939.838.008.492.33.779.914.808.128.007.257,0,.385,0,1.467,0,2.936.027,4.4-.014.511-.014.615.15.586.613a14.367,14.367,0,0,0,0,1.87c.03.448-.126.539-.549.538-4.934-.015-9.868-.009-14.8-.009-.605,0-1.211-.014-1.816.006-.307.01-.421-.081-.412-.4.02-.715.025-1.431,0-2.146-.014-.364.1-.47.464-.465,1.5.019,3.008.008,4.512.008.165,0,.331.006.495-.008a.8.8,0,0,0,.814-.8.813.813,0,0,0-.828-.842c-.146-.013-.293-.006-.44-.006-1.486,0-2.972-.013-4.457.008-.408.006-.611-.067-.559-.532.058-.525-.213-1.218.095-1.543.336-.354,1.038-.106,1.58-.114,1.192-.019,2.384,0,3.577-.008.662,0,1.021-.291,1.034-.8C711.229,124.435,710.86,124.128,710.168,124.125Z" transform="translate(-32.065 -66.635)" fill="#3a277b"/>
      <path id="Trazado_130845" data-name="Trazado 130845" d="M986,144.555a3.277,3.277,0,0,0-.549-.021H969.762a4.62,4.62,0,0,0-.55.015.742.742,0,0,0-.7.727.77.77,0,0,0,.553.848,1.829,1.829,0,0,0,.653.062h15.742a1.644,1.644,0,0,0,.7-.085.768.768,0,0,0,.483-.84A.735.735,0,0,0,986,144.555Z" transform="translate(-268.102 -95.942)" fill="#3a277b"/>
      <path id="Trazado_130846" data-name="Trazado 130846" d="M985.512,87.684q-3.985,0-7.97,0h-6.376c-.641,0-1.283-.013-1.924.008a.8.8,0,0,0-.81.8.839.839,0,0,0,.782.84,2.783,2.783,0,0,0,.329.006h15.941c.729,0,1.113-.3,1.105-.845C986.58,87.96,986.217,87.684,985.512,87.684Z" transform="translate(-268.032 -45.347)" fill="#3a277b"/>
    </g>
  </g>
</svg>
