<svg xmlns="http://www.w3.org/2000/svg" width="85.718" height="85.718" viewBox="0 0 85.718 85.718">
  <g id="Grupo_62200" data-name="Grupo 62200" transform="translate(-1068.281 -1599)">
    <circle id="Elipse_76" data-name="Elipse 76" cx="42.859" cy="42.859" r="42.859" transform="translate(1068.281 1599)" fill="#3a277b" opacity="0.1"/>
    <g id="Grupo_60261" data-name="Grupo 60261" transform="translate(608.966 1547.909)">
      <path id="Trazado_130867" data-name="Trazado 130867" d="M526.676,87a.862.862,0,0,0-1.325-.736c-.109.058-.206.137-.409.275v-.685q0-8.856,0-17.712c0-.829-.292-1.136-1.087-1.136q-18.907,0-37.814,0c-.779,0-1.084.306-1.086,1.081,0,1.231-.014,2.463.007,3.694.006.348-.078.453-.44.448-1.738-.02-3.477-.009-5.216-.009-1.078,0-1.307.227-1.307,1.3q0,21.325,0,42.649a4.373,4.373,0,0,0,4.73,4.735h35.749c.217,0,.435,0,.652-.009a6.106,6.106,0,0,0,5.6-4.516,17.14,17.14,0,0,0,.21-3.836c.008-.22,0-.441,0-.712a2.4,2.4,0,0,1,.227.123.9.9,0,0,0,1.057.141.986.986,0,0,0,.458-.971q-.008-11.328,0-22.656C526.681,87.975,526.7,87.485,526.676,87Zm-41.724,29.5a2.606,2.606,0,1,1-5.21,0q-.008-10.485,0-20.97,0-10.512-.011-21.025c0-.449.1-.569.554-.558,1.412.034,2.825.025,4.237,0,.354-.005.444.089.444.444Q484.948,95.443,484.951,116.5ZM523.2,114.8a4.328,4.328,0,0,1-4.346,4.352q-16.352.016-32.7,0H485.8a4.9,4.9,0,0,0,.9-3q-.015-23.414-.02-46.828c0-.511.148-.6.62-.6q17.656.02,35.311,0c.5,0,.6.138.6.617q-.025,8.936,0,17.873a.923.923,0,0,1-.465.873c-1.848,1.269-3.68,2.562-5.511,3.855a1.363,1.363,0,0,1-.846.273c-1.738-.016-3.477-.012-5.215-.006a5.2,5.2,0,0,0-5.352,5.342,26.565,26.565,0,0,0,.087,4.229,4.973,4.973,0,0,0,2.993,3.858.576.576,0,0,1,.4.638c-.014,1.919-.01,3.839-.006,5.758a3.48,3.48,0,1,0,6.952.023c.005-1.775,0-3.549.006-5.324,0-.2-.12-.5.087-.591a.832.832,0,0,1,.8.173c1.07.773,2.158,1.52,3.239,2.277.815.57,1.623,1.151,2.449,1.705a.731.731,0,0,1,.379.7C523.19,112.268,523.214,113.536,523.2,114.8Zm-5.218-20.957a.52.52,0,0,1,.249-.488c1.054-.725,2.1-1.461,3.2-2.227v16.076c-1.1-.772-2.144-1.512-3.2-2.238a.516.516,0,0,1-.246-.488Q517.993,99.164,517.983,93.846Zm-3.472,15.535c0,.9,0,1.809,0,2.713a1.741,1.741,0,1,1-3.474-.012c-.005-1.845,0-3.69-.007-5.534,0-.3.023-.45.394-.437.9.032,1.809.024,2.712,0,.314-.007.389.093.383.393C514.5,107.464,514.51,108.423,514.51,109.381Zm-3.4-5a3.475,3.475,0,0,1-3.548-3.525c-.009-1.14-.011-2.279,0-3.419a3.468,3.468,0,0,1,3.478-3.483c1.592-.014,3.184.008,4.775-.011.351,0,.45.084.446.442-.02,1.61-.009,3.22-.009,4.83,0,1.556-.012,3.112.009,4.667.005.38-.053.523-.486.514C514.217,104.362,512.661,104.389,511.106,104.38Zm13.82,5.267c-.561-.391-1.066-.754-1.584-1.1-.179-.119-.136-.279-.136-.432q0-8.961,0-17.923a.457.457,0,0,1,.2-.457c.5-.322.973-.671,1.524-1.054Z" fill="#3a277b"/>
      <path id="Trazado_130868" data-name="Trazado 130868" d="M938.163,289.674c.191.22.318.194.51,0,.692-.713,1.4-1.409,2.1-2.113.075-.075.14-.16.221-.252-.071-.08-.127-.149-.189-.211-.255-.257-.526-.5-.762-.771-.194-.224-.321-.2-.512.006-.46.485-.944.946-1.412,1.424-.3.308-.856.66-.823.934C937.343,289.045,937.868,289.336,938.163,289.674Z" transform="translate(-409.389 -195.35)" fill="#3a277b"/>
      <path id="Trazado_130869" data-name="Trazado 130869" d="M939.146,375.222c-.308-.3-.657-.856-.934-.824-.357.041-.65.565-.989.86-.215.187-.206.316,0,.51.536.511,1.053,1.043,1.577,1.566.787.787.784.784,1.579,0a4.158,4.158,0,0,1,.49-.36c-.171-.189-.251-.285-.339-.373C940.068,376.141,939.611,375.678,939.146,375.222Z" transform="translate(-409.182 -273.993)" fill="#3a277b"/>
      <path id="Trazado_130870" data-name="Trazado 130870" d="M945.208,339.256c-.012-.233-.065-.312-.305-.305-.615.016-1.231.005-1.846.005-1.423,0-1.416,0-1.34,1.438.012.233.065.314.305.305.47-.018.941-.005,1.412-.005h.434C945.291,340.694,945.284,340.694,945.208,339.256Z" transform="translate(-413.304 -242.397)" fill="#3a277b"/>
      <path id="Trazado_130871" data-name="Trazado 130871" d="M575.216,114.649H605.9c.844,0,1.132-.292,1.132-1.145q0-6.68,0-13.36c0-.852-.288-1.141-1.136-1.141H575.158c-.883,0-1.159.28-1.159,1.172q0,6.626,0,13.251C574,114.389,574.257,114.649,575.216,114.649Zm.511-13.419c0-.406.095-.5.5-.5q14.288.019,28.576,0c.4,0,.5.092.5.5q-.027,5.6,0,11.191c0,.406-.094.5-.5.5-4.763-.016-9.525-.01-14.288-.01-4.745,0-9.489-.007-14.234.012-.451,0-.559-.1-.556-.555Q575.757,106.8,575.727,101.23Z" transform="translate(-85.567 -28.522)" fill="#3a277b"/>
      <path id="Trazado_130872" data-name="Trazado 130872" d="M588.516,259q-6.706,0-13.411,0c-.811,0-1.106.3-1.107,1.114q0,7.574,0,15.149c0,.84.292,1.122,1.155,1.122q6.679,0,13.357,0c.845,0,1.134-.292,1.135-1.143q0-3.746,0-7.493,0-3.8,0-7.6C589.645,259.292,589.359,259,588.516,259Zm-.6,15.211c0,.354-.089.445-.443.444q-5.65-.02-11.3,0c-.354,0-.447-.089-.444-.444.017-2.173.009-4.346.009-6.519s.008-4.346-.009-6.519c0-.354.089-.445.444-.444q5.65.02,11.3,0c.354,0,.445.089.444.444Q587.9,267.692,587.915,274.211Z" transform="translate(-85.567 -171.134)" fill="#3a277b"/>
      <path id="Trazado_130873" data-name="Trazado 130873" d="M592.512,434.917q-8.665.02-17.329.009c-1.283,0-1.265,0-1.284,1.281-.006.39.107.468.479.466,3.024-.016,6.048-.009,9.072-.009h8.366c1.222,0,1.2,0,1.231-1.227C593.058,435,592.924,434.916,592.512,434.917Z" transform="translate(-85.479 -327.936)" fill="#3a277b"/>
      <path id="Trazado_130874" data-name="Trazado 130874" d="M583.448,468.656h8.366c1.227,0,1.208,0,1.235-1.221.01-.423-.1-.529-.527-.528q-8.665.023-17.329.01c-1.288,0-1.271,0-1.289,1.275-.005.381.09.475.472.473C577.4,468.648,580.424,468.656,583.448,468.656Z" transform="translate(-85.482 -356.45)" fill="#3a277b"/>
      <path id="Trazado_130875" data-name="Trazado 130875" d="M592.512,498.917q-8.665.02-17.329.009c-1.283,0-1.265,0-1.284,1.281-.006.39.107.468.479.466,3.024-.016,6.048-.009,9.072-.009h8.366c1.222,0,1.2,0,1.231-1.227C593.058,499,592.924,498.916,592.512,498.917Z" transform="translate(-85.479 -384.982)" fill="#3a277b"/>
      <path id="Trazado_130876" data-name="Trazado 130876" d="M605.952,138.265c0,1.347,0,1.33,1.345,1.33.361,0,.4-.125.4-.434-.015-1.394-.007-2.788-.007-4.182l.092-.038c.839,1.342,1.682,2.681,2.514,4.027.259.418.576.73,1.1.577s.647-.556.644-1.062c-.012-2.082-.005-4.165-.005-6.247,0-1.386,0-1.373-1.373-1.354-.33,0-.374.121-.371.406.014,1.286.009,2.572,0,3.857,0,.125.086.286-.087.388-.838-1.338-1.678-2.667-2.5-4.005-.257-.417-.562-.745-1.089-.606-.545.144-.673.571-.669,1.1C605.961,134.1,605.952,136.182,605.952,138.265Z" transform="translate(-114.044 -56.934)" fill="#3a277b"/>
      <path id="Trazado_130877" data-name="Trazado 130877" d="M733.946,134.7q0,1.982,0,3.963a.837.837,0,0,0,.707.9.822.822,0,0,0,.963-.526c.092-.2.169-.4.25-.6.217-.536.432-1.072.688-1.709.316.779.593,1.424.837,2.081.183.492.464.829,1.03.762.487-.058.737-.445.738-1.092q0-3.122,0-6.243c0-1.385,0-1.372-1.372-1.354-.327,0-.378.117-.373.4.017.893.006,1.787.006,2.742-.659-.7-1.109-.7-1.739.05V132.24c0-1.387,0-1.375-1.368-1.357-.321,0-.381.107-.377.4C733.955,132.422,733.946,133.563,733.946,134.7Z" transform="translate(-228.128 -56.936)" fill="#3a277b"/>
      <path id="Trazado_130878" data-name="Trazado 130878" d="M677.988,138.64a.887.887,0,0,0,1,1c.67.008,1.34,0,2.01,0,1.38,0,1.371,0,1.343-1.382-.006-.278-.068-.374-.359-.363-.6.023-1.2-.019-1.792.016-.381.022-.481-.086-.475-.47.019-1.277,0-1.278,1.287-1.278,1.423,0,1.416,0,1.339-1.441-.013-.237-.072-.309-.308-.3-.615.015-1.233-.021-1.846.015-.387.023-.476-.1-.471-.474.018-1.274,0-1.274,1.291-1.274,1.377,0,1.366,0,1.336-1.39-.006-.293-.093-.359-.368-.354-.978.015-1.955,0-2.933.007-.74,0-1.05.315-1.053,1.059,0,1.086,0,2.173,0,3.259C677.986,136.395,677.981,137.517,677.988,138.64Z" transform="translate(-178.253 -56.996)" fill="#3a277b"/>
      <path id="Trazado_130879" data-name="Trazado 130879" d="M797.754,139.542c.148.275.767.059,1.174.09.108.008.217,0,.325,0V139.6a9.385,9.385,0,0,0,1.461-.012,2.594,2.594,0,0,0,2.179-2.744,2.629,2.629,0,0,0-2.479-2.426c-.641-.047-1.012-.386-.991-.905s.411-.829,1.058-.835c.362,0,.723,0,1.085,0,1.376,0,1.368,0,1.339-1.382-.006-.277-.067-.372-.358-.363-.723.021-1.446,0-2.17.008a2.608,2.608,0,0,0-.186,5.213c.613.046.969.369.965.876,0,.526-.395.858-1.03.863-.705.005-1.41,0-2.116,0-.15,0-.339-.058-.33.215C797.7,138.6,797.55,139.163,797.754,139.542Z" transform="translate(-284.911 -56.984)" fill="#3a277b"/>
    </g>
  </g>
</svg>
