<svg xmlns="http://www.w3.org/2000/svg" width="85.718" height="85.718" viewBox="0 0 85.718 85.718">
  <g id="Grupo_60246" data-name="Grupo 60246" transform="translate(-183.015 -619.329)">
    <circle id="Elipse_76" data-name="Elipse 76" cx="42.859" cy="42.859" r="42.859" transform="translate(183.015 619.329)" fill="#3a277b" opacity="0.1"/>
    <g id="Grupo_60245" data-name="Grupo 60245" transform="translate(181.598 634.786)">
      <rect id="Rectángulo_31066" data-name="Rectángulo 31066" width="7.305" height="3.652" transform="translate(21.652 17.367)" fill="#3a277b"/>
      <path id="Trazado_130806" data-name="Trazado 130806" d="M59.892,256.1h7.3l-3.652,4.565Z" transform="translate(-38.239 -228.683)" fill="#3a277b"/>
      <path id="Trazado_130807" data-name="Trazado 130807" d="M128.134,280.46a7.3,7.3,0,1,0,7.3-7.3A7.305,7.305,0,0,0,128.134,280.46Zm7.3,5.479a5.452,5.452,0,0,1-2.659-.692l3.1-3.873h4.957A5.482,5.482,0,0,1,135.439,285.938Zm5.4-6.392h-4.483v-4.483A5.486,5.486,0,0,1,140.835,279.547Zm-6.309-4.483v5.076l-3.169,3.962a5.464,5.464,0,0,1,3.169-9.038Z" transform="translate(-99.177 -243.916)" fill="#3a277b"/>
      <rect id="Rectángulo_31069" data-name="Rectángulo 31069" width="1.826" height="1.826" transform="translate(28.956 45.672)" fill="#3a277b"/>
      <rect id="Rectángulo_31070" data-name="Rectángulo 31070" width="10.957" height="1.826" transform="translate(32.609 45.672)" fill="#3a277b"/>
      <rect id="Rectángulo_31071" data-name="Rectángulo 31071" width="14.609" height="1.826" transform="translate(28.956 49.325)" fill="#3a277b"/>
      <rect id="Rectángulo_31072" data-name="Rectángulo 31072" width="1.826" height="1.826" transform="translate(49.044 45.672)" fill="#3a277b"/>
      <rect id="Rectángulo_31073" data-name="Rectángulo 31073" width="10.957" height="1.826" transform="translate(52.697 45.672)" fill="#3a277b"/>
      <rect id="Rectángulo_31074" data-name="Rectángulo 31074" width="14.609" height="1.826" transform="translate(49.044 49.325)" fill="#3a277b"/>
      <rect id="Rectángulo_31075" data-name="Rectángulo 31075" width="1.826" height="1.826" transform="translate(50.87 9.149)" fill="#3a277b"/>
      <rect id="Rectángulo_31076" data-name="Rectángulo 31076" width="9.131" height="1.826" transform="translate(54.523 9.149)" fill="#3a277b"/>
      <rect id="Rectángulo_31077" data-name="Rectángulo 31077" width="12.783" height="1.826" transform="translate(50.87 12.801)" fill="#3a277b"/>
      <rect id="Rectángulo_31078" data-name="Rectángulo 31078" width="1.826" height="1.826" transform="translate(50.87 19.193)" fill="#3a277b"/>
      <rect id="Rectángulo_31079" data-name="Rectángulo 31079" width="9.131" height="1.826" transform="translate(54.523 19.193)" fill="#3a277b"/>
      <rect id="Rectángulo_31080" data-name="Rectángulo 31080" width="12.783" height="1.826" transform="translate(50.87 22.845)" fill="#3a277b"/>
      <path id="Trazado_130808" data-name="Trazado 130808" d="M325.242,287.765H336.2a.913.913,0,0,0,.913-.913v-7.3a.913.913,0,0,0-.913-.913H333.46v-4.565a.913.913,0,0,0-.913-.913h-3.652a.913.913,0,0,0-.913.913v2.739h-2.739a.913.913,0,0,0-.913.913v9.131A.913.913,0,0,0,325.242,287.765Zm10.044-7.3v5.478H333.46v-5.478Zm-5.478-5.478h1.826v10.957h-1.826Zm-3.652,3.652h1.826v7.3h-1.826Z" transform="translate(-274.371 -243.917)" fill="#3a277b"/>
      <path id="Trazado_130809" data-name="Trazado 130809" d="M197.289,84.266h10.957a.913.913,0,0,0,.913-.913V77.874a.913.913,0,0,0-.913-.913H197.289a.913.913,0,0,0-.913.913v5.478A.913.913,0,0,0,197.289,84.266Zm.913-5.479h9.131v3.652H198.2Z" transform="translate(-160.114 -68.723)" fill="#3a277b"/>
      <path id="Trazado_130810" data-name="Trazado 130810" d="M197.289,178.1h10.957a.913.913,0,0,0,.913-.913v-5.478a.913.913,0,0,0-.913-.913H197.289a.913.913,0,0,0-.913.913v5.478A.913.913,0,0,0,197.289,178.1Zm.913-5.478h9.131v3.652H198.2Z" transform="translate(-160.114 -152.512)" fill="#3a277b"/>
      <path id="Trazado_130811" data-name="Trazado 130811" d="M20.74,15.063V27.412a.912.912,0,0,0,.2.571L24.392,32.3V53.892a.913.913,0,0,0,.913.913h42a.913.913,0,0,0,.913-.913V4.585a.913.913,0,0,0-.913-.913H32.133A8.218,8.218,0,1,0,20.74,15.063Zm7.3,3.219v1.826H22.566V18.282ZM25.305,30.517l-1.753-2.191h3.506ZM22.566,26.5V21.934h1.826V26.5Zm5.479,0H26.218V21.934h1.826Zm38.349-21v47.48H26.218V32.3l3.452-4.315a.913.913,0,0,0,.2-.571V15.063A8.17,8.17,0,0,0,33.043,5.5ZM25.305,1.846a6.392,6.392,0,0,1,3.2,11.921.912.912,0,0,0-.457.79v1.9H26.218v-5.1L28.69,8.883,27.4,7.592,25.305,9.686,23.211,7.592,21.92,8.883l2.472,2.472v5.1H22.566v-1.9a.912.912,0,0,0-.457-.79,6.392,6.392,0,0,1,3.2-11.921Z" transform="translate(0 0)" fill="#3a277b"/>
    </g>
  </g>
</svg>
