<svg xmlns="http://www.w3.org/2000/svg" width="85.718" height="85.718" viewBox="0 0 85.718 85.718">
  <g id="Grupo_62194" data-name="Grupo 62194" transform="translate(-1068 -619)">
    <circle id="Elipse_76" data-name="Elipse 76" cx="42.859" cy="42.859" r="42.859" transform="translate(1068 619)" fill="#3a277b" opacity="0.1"/>
    <g id="Grupo_60256" data-name="Grupo 60256" transform="translate(501.021 616.556)">
      <path id="Trazado_130820" data-name="Trazado 130820" d="M635.7,22.795a3.531,3.531,0,0,0-3.04-1.351q-22.516.012-45.031.005c-.1,0-.2,0-.307,0a3.264,3.264,0,0,0-3.34,3.475c0,.392,0,.784,0,1.176q0,19.986,0,39.971a3.776,3.776,0,0,0,.34,1.786,3.281,3.281,0,0,0,3.165,1.833q9.379-.009,18.759,0a2.966,2.966,0,0,0,.559-.042.993.993,0,0,0,.054-1.932,3.515,3.515,0,0,0-.76-.067q-9.226-.005-18.452,0c-1.222,0-1.618-.4-1.618-1.621q0-16.075-.012-32.151c0-.486.1-.61.6-.61q23.538.023,47.076,0c.505,0,.6.134.6.613q-.022,16.05-.011,32.1c0,1.294-.375,1.669-1.673,1.669q-8.562,0-17.123,0a3.257,3.257,0,0,0-.759.071.959.959,0,0,0-.7,1,.947.947,0,0,0,.747.918,1.927,1.927,0,0,0,.507.047q8.792,0,17.583,0a3.364,3.364,0,0,0,2.866-1.382c.278-.37.351-.833.594-1.215V24.159A6.623,6.623,0,0,0,635.7,22.795Zm-1.957,8.45q-11.8-.025-23.609-.012-11.779,0-23.558.01c-.426,0-.573-.069-.565-.541.033-1.89.012-3.781.014-5.672,0-1.085.431-1.53,1.506-1.531q22.612,0,45.224,0c1.083,0,1.52.442,1.522,1.515,0,1.891-.014,3.782.012,5.672C634.294,31.121,634.2,31.246,633.742,31.245Z" transform="translate(0 0)" fill="#3a277b"/>
      <path id="Trazado_130821" data-name="Trazado 130821" d="M682.286,226.768c0,.861.361,1.276,1.162,1.28a36.755,36.755,0,0,0,3.675-.04,3.639,3.639,0,0,0,2.492-5.9c-.242-.3-.269-.459-.011-.78a3.426,3.426,0,0,0,.526-3.687,3.473,3.473,0,0,0-3.044-2.223c-1.138-.1-2.28-.032-3.42-.041-1.023-.008-1.38.355-1.382,1.373q0,2.478,0,4.955C682.284,223.4,682.279,225.082,682.286,226.768Zm4.6-.785c-.744.048-1.493.015-2.24.031-.244.005-.329-.084-.322-.326.014-.441,0-.883,0-1.325s.007-.883,0-1.325c-.005-.217.072-.3.294-.3.764.014,1.53-.017,2.291.034a1.61,1.61,0,0,1-.024,3.211Zm-2.153-8.564c.645.02,1.291-.008,1.936.01a1.633,1.633,0,1,1,0,3.261c-.662.019-1.325-.01-1.987.011-.308.009-.373-.118-.361-.392.018-.424,0-.849,0-1.273,0-.408.021-.816-.006-1.222C684.3,217.485,684.431,217.409,684.734,217.419Z" transform="translate(-88.255 -174.097)" fill="#3a277b"/>
      <path id="Trazado_130822" data-name="Trazado 130822" d="M683.236,419.485a3.807,3.807,0,0,0,.71.052q7.281,0,14.563,0c4.905,0,9.811-.013,14.716.009,1.158.005,1.429-.533,1.436-1.055.01-.667-.486-1-1.432-1q-14.665,0-29.33,0a3.481,3.481,0,0,0-.659.051.992.992,0,0,0,0,1.939Z" transform="translate(-88.41 -355.561)" fill="#3a277b"/>
      <path id="Trazado_130823" data-name="Trazado 130823" d="M932.348,269.464a3.738,3.738,0,0,0-3.741-2.356,3.687,3.687,0,0,0-.939,7.151,3.769,3.769,0,0,0,2.9-.17c0,.578,0,1.07,0,1.563a2.01,2.01,0,0,1-.045.354,1.643,1.643,0,0,1-3.2.117c-.051-.2-.065-.4-.1-.6a1.031,1.031,0,0,0-.959-.843,1.045,1.045,0,0,0-1,.781,1.89,1.89,0,0,0,.024.857,3.676,3.676,0,0,0,7.274-.148c.15-1.784.046-3.573.053-5.359A3.827,3.827,0,0,0,932.348,269.464Zm-3.446,2.973a1.673,1.673,0,0,1-1.662-1.649,1.659,1.659,0,0,1,3.319,0A1.662,1.662,0,0,1,928.9,272.438Z" transform="translate(-306.338 -220.532)" fill="#3a277b"/>
      <path id="Trazado_130824" data-name="Trazado 130824" d="M843.891,270.75a3.7,3.7,0,0,0-7.4.018,3.7,3.7,0,1,0,7.4-.018Zm-5.353-.04a1.655,1.655,0,1,1,1.591,1.7A1.64,1.64,0,0,1,838.538,270.711Z" transform="translate(-226.697 -220.515)" fill="#3a277b"/>
      <path id="Trazado_130825" data-name="Trazado 130825" d="M782.762,216.87c-.007-.729-.394-1.162-1-1.179a.983.983,0,0,0-1.037,1.071c-.006,2.81-.025,5.621.027,8.431a3.173,3.173,0,0,0,2.029,2.882,2.947,2.947,0,0,0,1.24.257,1.024,1.024,0,0,0,1.086-.927.971.971,0,0,0-.878-1.059,1.535,1.535,0,0,1-1.478-1.811c.051-1.19.012-2.384.012-3.577C782.766,219.595,782.776,218.232,782.762,216.87Z" transform="translate(-176.629 -174.388)" fill="#3a277b"/>
      <path id="Trazado_130826" data-name="Trazado 130826" d="M837.967,473.588a1.027,1.027,0,0,0-.988,1.021,1.017,1.017,0,0,0,1.015.988,1,1,0,1,0-.028-2.009Z" transform="translate(-227.136 -405.921)" fill="#3a277b"/>
      <path id="Trazado_130827" data-name="Trazado 130827" d="M846.429,69.4a3.286,3.286,0,0,0-.658-.059q-9.429,0-18.859,0a3.146,3.146,0,0,0-.658.062.979.979,0,0,0-.776,1,.994.994,0,0,0,.841.949,3.923,3.923,0,0,0,.611.034q4.7,0,9.4,0t9.4,0a4.4,4.4,0,0,0,.611-.028.977.977,0,0,0,.869-.973A.959.959,0,0,0,846.429,69.4Z" transform="translate(-216.811 -42.995)" fill="#3a277b"/>
      <path id="Trazado_130828" data-name="Trazado 130828" d="M642.135,69.52a1.041,1.041,0,0,0-1.037,1.034,1.03,1.03,0,0,0,1.036.979,1.006,1.006,0,0,0,0-2.013Z" transform="translate(-51.28 -43.161)" fill="#3a277b"/>
      <path id="Trazado_130829" data-name="Trazado 130829" d="M691.789,69.512a1,1,0,0,0-.974,1.03.994.994,0,0,0,1.017.984,1.008,1.008,0,1,0-.042-2.014Z" transform="translate(-95.915 -43.153)" fill="#3a277b"/>
      <path id="Trazado_130830" data-name="Trazado 130830" d="M741.247,69.551a1.005,1.005,0,1,0-.1,2.007,1,1,0,0,0,.1-2.007Z" transform="translate(-140.217 -43.188)" fill="#3a277b"/>
    </g>
  </g>
</svg>
