<svg xmlns="http://www.w3.org/2000/svg" width="85.718" height="85.718" viewBox="0 0 85.718 85.718">
  <g id="Grupo_62195" data-name="Grupo 62195" transform="translate(-215.157 -1078.282)">
    <circle id="Elipse_76" data-name="Elipse 76" cx="42.859" cy="42.859" r="42.859" transform="translate(215.157 1078.282)" fill="#3a277b" opacity="0.1"/>
    <g id="Grupo_60257" data-name="Grupo 60257" transform="translate(-390.524 1067.853)">
      <path id="Trazado_130831" data-name="Trazado 130831" d="M673.7,27.968A4.726,4.726,0,0,0,668.719,23q-15.707,0-31.413,0a4.714,4.714,0,0,0-5.023,5.033q-.009,4.7,0,9.406a3.66,3.66,0,0,0,.024.531.808.808,0,0,0,.8.73.8.8,0,0,0,.883-.63,2.83,2.83,0,0,0,.064-.7q.006-4.644,0-9.288a2.972,2.972,0,0,1,3.33-3.306h31.176a3.009,3.009,0,0,1,3.355,3.357q0,21.918,0,43.836a3.006,3.006,0,0,1-3.331,3.325h-29.15a.23.23,0,0,1-.017-.031,11.645,11.645,0,0,0,1.173-5.179c-.012-.535.119-.677.665-.676q13.7.028,27.39.013c1.894,0,1.894,0,1.894-1.912q0-4.171,0-8.341c0-.691-.325-1.1-.865-1.116-.558-.015-.9.417-.911,1.137,0,.158,0,.316,0,.473,0,2.5,0,5.009.005,7.513,0,.319-.017.483-.427.482q-13.755-.021-27.509-.006c-.292,0-.437-.043-.509-.386a17.172,17.172,0,0,0-2.518-6,.777.777,0,0,1-.128-.661c.372-1.59.75-3.178,1.086-4.775a24.477,24.477,0,0,0,.684-3.773A4.2,4.2,0,0,0,637.647,48a.827.827,0,0,1-.468-.811q.015-8.045-.007-16.091c0-.55.15-.663.675-.662q15.144.024,30.289,0c.491,0,.651.077.649.622q-.033,12.039-.014,24.077c0,.739.328,1.132.913,1.119.562-.012.862-.387.862-1.1q0-12.69,0-25.379c0-.8-.306-1.1-1.11-1.1q-16.446,0-32.892,0c-.831,0-1.13.306-1.133,1.147,0,1.085,0,2.169,0,3.254q0,7.129,0,14.257a3.114,3.114,0,0,1,.021.346,1.963,1.963,0,0,1-.1.188.366.366,0,0,1-.074.046,2.884,2.884,0,0,0-1.092.985.17.17,0,0,1-.1-.055v-.5q0-3.254,0-6.507a3,3,0,0,0-.044-.646.87.87,0,0,0-1.715.083,4.63,4.63,0,0,0-.018.591q0,5.058.005,10.116a1.964,1.964,0,0,1-.233.957c-1.386,2.625-2.761,5.255-4.148,7.88a9.789,9.789,0,0,0-1.045,3.113,13.7,13.7,0,0,0,.447,4.8,12.2,12.2,0,0,1-1.227,8.519c-.849,1.551-1.627,3.142-2.437,4.714-.411.8-.372,1.029.279,1.619h21.416a9.439,9.439,0,0,0,1.607-2.153,1.872,1.872,0,0,1,1.146-.814,15.558,15.558,0,0,0,6.221-3.121,1.577,1.577,0,0,1,1.148-.432q6.626.023,13.252.008A4.731,4.731,0,0,0,673.7,72.1Q673.709,50.034,673.7,27.968ZM644.523,81.7a5.823,5.823,0,0,1-2.442.1q-7.807,0-15.614,0h-.643c-.074-.224.084-.355.158-.5.47-.93.919-1.872,1.44-2.773a14.361,14.361,0,0,0,1.541-10.66,8.944,8.944,0,0,1-.215-4.382,8.729,8.729,0,0,1,.685-1.75q3-5.716,6-11.434c.073-.139.144-.28.227-.413a.806.806,0,0,1,1.41-.088,3.4,3.4,0,0,1,.522,2.924c-.5,2.608-1.065,5.2-1.716,7.777a1.684,1.684,0,0,0,.275,1.486,14.548,14.548,0,0,1,2.679,7.576,10.376,10.376,0,0,1-2.626,7.378c-.114.136-.236.265-.348.4a.888.888,0,1,0,1.317,1.179c.342-.38.66-.783.97-1.189a.608.608,0,0,1,.54-.273q6.476.012,12.952.008a1.172,1.172,0,0,1,.2.059,17.873,17.873,0,0,1-4.872,1.945,1.583,1.583,0,0,0-1.035.7C645.49,80.453,645.155,81.373,644.523,81.7Z" transform="translate(0 0)" fill="#3a277b"/>
      <path id="Trazado_130832" data-name="Trazado 130832" d="M793.034,131.1q.017-6.8,0-13.6a2.012,2.012,0,0,0-1.979-2.016,8.156,8.156,0,0,0-1,0,3.219,3.219,0,0,1-1.792-.423c-2.489-1.28-5.006-1.6-7.5,0a.327.327,0,0,1-.417-.03,6.766,6.766,0,0,0-6.973-.19,6.169,6.169,0,0,1-2.985.653,2.053,2.053,0,0,0-2.3,2.3q0,6.534,0,13.068a2.088,2.088,0,0,0,2.312,2.3q5.085,0,10.171,0,5.174,0,10.348,0A2.015,2.015,0,0,0,793.034,131.1Zm-19.355-14.478a5.917,5.917,0,0,1,4.835-.542c1.1.412,1.157.489,1.157,1.638v10.04a7.325,7.325,0,0,0-6.331.177c-.127-.147-.079-.289-.079-.418,0-3.392,0-6.783-.011-10.175A.674.674,0,0,1,773.678,116.623Zm6,14.526c-.058.381-.318.224-.488.224-2.563.011-5.126.007-7.689.007-.335,0-.672-.024-1.005.006-.485.043-.656-.133-.65-.634.023-2.149.01-4.3.01-6.447,0-2.129.015-4.259-.011-6.388-.006-.524.167-.686.68-.672.954.027.955,0,.955.968q0,5.412,0,10.824c0,.456-.05.921.436,1.2.5.286.9.009,1.311-.227A6.47,6.47,0,0,1,777.786,129a4.743,4.743,0,0,1,.79.232C779.651,129.647,779.849,130.025,779.678,131.148Zm2.309.243c-.439,0-.563-.1-.551-.547.031-1.127.048-1.192,1.119-1.617a5.527,5.527,0,0,1,4.408.3c.431.188.835.437,1.25.661a.9.9,0,0,0,1.44-.792c.021-1.517.014-3.035,0-4.553a.912.912,0,0,0-.9-1.022c-.518.012-.863.414-.87,1.058-.011,1,0,2.005,0,3.1a7.419,7.419,0,0,0-6.432-.211v-.593c0-3.311.011-6.623-.013-9.934a.841.841,0,0,1,.494-.831,5.1,5.1,0,0,1,4.389-.27c1.565.53,1.562.54,1.562,2.159,0,.828,0,1.656,0,2.483,0,.854.3,1.257.9,1.249s.873-.395.875-1.276c0-1.025.014-2.05-.007-3.075-.007-.342.1-.434.436-.429,1.4.024,1.169-.111,1.171,1.157.008,4.08-.006,8.16.014,12.24,0,.549-.122.753-.714.747C787.7,131.364,784.844,131.37,781.986,131.391Z" transform="translate(-127.581 -80.206)" fill="#3a277b"/>
      <path id="Trazado_130833" data-name="Trazado 130833" d="M789.514,306.82a4.716,4.716,0,0,0,.473.006h17.261c.236,0,.474.012.709-.006a.868.868,0,0,0,.854-.878.882.882,0,0,0-.8-.882,2.489,2.489,0,0,0-.413-.009H789.864a1.732,1.732,0,0,0-.47.025.844.844,0,0,0-.69.957A.816.816,0,0,0,789.514,306.82Z" transform="translate(-145.762 -248.677)" fill="#3a277b"/>
      <path id="Trazado_130834" data-name="Trazado 130834" d="M788.761,345.134a1.088,1.088,0,0,0,1,.388q4.433-.006,8.865,0,4.462,0,8.924,0c.736,0,1.159-.322,1.175-.876s-.408-.89-1.138-.9H789.914a3.639,3.639,0,0,0-.59.022A.867.867,0,0,0,788.761,345.134Z" transform="translate(-145.672 -282.795)" fill="#3a277b"/>
      <path id="Trazado_130835" data-name="Trazado 130835" d="M852.491,419.928a2.5,2.5,0,1,0,2.537-2.479A2.522,2.522,0,0,0,852.491,419.928Zm3.224-.006a.733.733,0,0,1-.738.755.71.71,0,0,1-.7-.725.679.679,0,0,1,.7-.715A.689.689,0,0,1,855.715,419.922Z" transform="translate(-202.007 -347.779)" fill="#3a277b"/>
      <path id="Trazado_130836" data-name="Trazado 130836" d="M869.093,48.664a.882.882,0,1,0-.027-1.763c-.57-.014-1.141,0-1.712,0-.61,0-1.22-.012-1.83,0a.845.845,0,0,0-.889.83.858.858,0,0,0,.858.93C866.692,48.687,867.893,48.685,869.093,48.664Z" transform="translate(-212.713 -21.068)" fill="#3a277b"/>
      <path id="Trazado_130837" data-name="Trazado 130837" d="M840.775,47.848A.888.888,0,1,0,839,47.822a.888.888,0,0,0,1.777.026Z" transform="translate(-190.11 -21.104)" fill="#3a277b"/>
    </g>
  </g>
</svg>
