<svg xmlns="http://www.w3.org/2000/svg" width="85.718" height="85.718" viewBox="0 0 85.718 85.718">
  <g id="Grupo_62193" data-name="Grupo 62193" transform="translate(-635 -619)">
    <circle id="Elipse_76" data-name="Elipse 76" cx="42.859" cy="42.859" r="42.859" transform="translate(635 619)" fill="#3a277b" opacity="0.1"/>
    <g id="Grupo_60255" data-name="Grupo 60255" transform="translate(83.832 631.984)">
      <path id="Trazado_130812" data-name="Trazado 130812" d="M622.775,83.859a1.733,1.733,0,0,0-.89-1.619c-3.119-1.983-6.221-3.995-9.33-6-.6-.385-1.443-.634-1.737-1.181a5.077,5.077,0,0,1-.1-2.155c-.008-1.027-.447-1.475-1.475-1.479-1.241-.006-2.482-.01-3.723,0a1.564,1.564,0,0,1-.894-.254c-2.858-1.8-5.731-3.572-8.582-5.383a1.586,1.586,0,0,0-1.917-.017c-2.848,1.815-5.722,3.589-8.58,5.388a1.666,1.666,0,0,1-.949.267q-2.482-.02-4.963,0a1.241,1.241,0,0,0-1.415,1.367c-.006.658,0,1.316,0,1.974a.445.445,0,0,1-.219.457c-3.653,2.333-7.291,4.689-10.948,7.014a1.727,1.727,0,0,0-.89,1.616q.021,15.257,0,30.514a1.575,1.575,0,0,0,.883,1.6h54.84a1.572,1.572,0,0,0,.882-1.6Q622.756,99.116,622.775,83.859ZM594.8,68.219c.143-.089.263-.19.45-.072,1.687,1.062,3.378,2.118,5.186,3.25H589.708C591.5,70.28,593.151,69.251,594.8,68.219Zm-13.623,5.627c4.437.014,8.875.009,13.312.009,4.418,0,8.837.007,13.255-.01.463,0,.589.112.588.585q-.023,13,0,26a.787.787,0,0,1-.461.785c-1.071.621-2.132,1.26-3.174,1.928a.761.761,0,0,1-.906.03c-2.987-1.649-5.992-3.265-8.974-4.922a1.7,1.7,0,0,0-1.885.007c-2.7,1.582-5.434,3.112-8.144,4.681a.748.748,0,0,1-.906-.023c-.931-.6-1.881-1.166-2.838-1.722a.744.744,0,0,1-.433-.744q.021-13.03,0-26.059C580.609,73.927,580.756,73.845,581.179,73.846ZM568.6,84.588a.648.648,0,0,1,.29-.659c3.084-1.969,6.158-3.954,9.285-5.968V99.446c-2.948-1.791-5.834-3.575-8.759-5.3a1.461,1.461,0,0,1-.834-1.5C568.633,89.967,568.6,87.277,568.6,84.588Zm.028,11.878,13.318,8.085-13.318,7.611Zm2.614,17.1c-.045-.2.143-.2.236-.257q11.01-6.3,22.023-12.595a.711.711,0,0,1,.808.008q11.5,6.287,23.007,12.555c.11.06.214.133.463.289Zm49.053-1.4-13.6-7.42,13.6-8.261Zm.048-18.973a.634.634,0,0,1-.306.65q-4.53,2.723-9.046,5.471c-.061.037-.126.068-.257.138V78.014c.2-.019.315.127.448.213q4.379,2.812,8.756,5.627a.74.74,0,0,1,.411.709C620.333,87.438,620.338,90.313,620.344,93.188Z" transform="translate(0 -57.177)" fill="#3a277b"/>
      <path id="Trazado_130813" data-name="Trazado 130813" d="M685.4,6.71c.278.694.539,1.4.843,2.079a1.133,1.133,0,0,0,1.338.668,1.2,1.2,0,0,0,.931-1.269,2.489,2.489,0,0,0-.1-.395q-1.169-2.946-2.347-5.888a1.339,1.339,0,0,0-.379-.55,1.2,1.2,0,0,0-1.866,1.4C684.335,4.075,684.872,5.391,685.4,6.71Z" transform="translate(-104.289 -0.049)" fill="#3a277b"/>
      <path id="Trazado_130814" data-name="Trazado 130814" d="M919.4,9.44a1.184,1.184,0,0,0,1.246-.77c.808-1.993,1.6-3.994,2.393-5.993a2.527,2.527,0,0,0,.1-.343A1.257,1.257,0,0,0,922.2,1.05a1.206,1.206,0,0,0-1.4.772q-1.207,2.962-2.377,5.94a1.164,1.164,0,0,0-.084.661A1.229,1.229,0,0,0,919.4,9.44Z" transform="translate(-312.417)" fill="#3a277b"/>
      <path id="Trazado_130815" data-name="Trazado 130815" d="M573.915,74.379c.652.651,1.3,1.309,1.96,1.95a1.121,1.121,0,0,0,1.349.235,1.218,1.218,0,0,0,.257-2.025c-1.357-1.355-2.71-2.716-4.073-4.065a1.208,1.208,0,1,0-1.686,1.709C572.447,72.921,573.183,73.648,573.915,74.379Z" transform="translate(-4.513 -61.22)" fill="#3a277b"/>
      <path id="Trazado_130816" data-name="Trazado 130816" d="M1004.489,76.555a1.136,1.136,0,0,0,1.341-.285c1.4-1.391,2.8-2.783,4.187-4.191A1.2,1.2,0,1,0,1008.3,70.4c-1.393,1.373-2.769,2.763-4.151,4.146a1.138,1.138,0,0,0-.4.775A1.205,1.205,0,0,0,1004.489,76.555Z" transform="translate(-388.211 -61.193)" fill="#3a277b"/>
      <path id="Trazado_130817" data-name="Trazado 130817" d="M727.735,170.674q6.937,0,13.874,0c1.081,0,1.5-.419,1.5-1.5q.005-3.3,0-6.6c0-1.088-.443-1.515-1.551-1.515h-6.824q-3.5,0-6.994,0c-1.057,0-1.5.441-1.5,1.512q-.005,3.3,0,6.6C726.242,170.257,726.654,170.673,727.735,170.674Zm.917-2.89c.037-1.295.023-2.591.006-3.886,0-.331.067-.454.43-.453q5.577.02,11.154,0c.411,0,.45.16.446.494-.014,1.3-.02,2.591,0,3.887.006.367-.091.467-.461.463-1.859-.02-3.718-.009-5.577-.009-1.821,0-3.643-.011-5.464.009C728.8,168.29,728.638,168.239,728.651,167.784Z" transform="translate(-142.008 -141.98)" fill="#3a277b"/>
      <path id="Trazado_130818" data-name="Trazado 130818" d="M726.738,312.662c3.007-.032,6.015-.015,9.023-.015,3.045,0,6.091-.006,9.136.008.366,0,.5-.088.468-.465a8.3,8.3,0,0,1,0-1.408c.048-.487-.135-.575-.59-.573-4.85.018-9.7.011-14.549.011-1.241,0-2.481.009-3.722-.006-.31,0-.442.074-.423.407a8.628,8.628,0,0,1,0,1.352C726.025,312.5,726.171,312.668,726.738,312.662Z" transform="translate(-141.857 -274.302)" fill="#3a277b"/>
      <path id="Trazado_130819" data-name="Trazado 130819" d="M726.677,270.134c3.025-.023,6.05-.012,9.075-.012,3.044,0,6.088-.012,9.131.012.459,0,.57-.135.535-.558a6.692,6.692,0,0,1,0-1.295c.055-.491-.133-.569-.585-.568q-9.047.024-18.094.011c-.094,0-.189.008-.282,0-.245-.023-.328.085-.321.327.014.507.032,1.016,0,1.521C726.1,270,726.217,270.137,726.677,270.134Z" transform="translate(-141.911 -236.602)" fill="#3a277b"/>
    </g>
  </g>
</svg>
