<svg xmlns="http://www.w3.org/2000/svg" width="85.718" height="85.718" viewBox="0 0 85.718 85.718">
  <g id="Grupo_62199" data-name="Grupo 62199" transform="translate(-635.282 -1599)">
    <circle id="Elipse_76" data-name="Elipse 76" cx="42.859" cy="42.859" r="42.859" transform="translate(635.282 1599)" fill="#3a277b" opacity="0.1"/>
    <path id="Trazado_130866" data-name="Trazado 130866" d="M504.8,101.872c-.517.064-.665-.084-.664-.635q.029-16.326.015-32.652a4.8,4.8,0,0,0-.345-2.108,4.1,4.1,0,0,0-4-2.513c-4.077,0-8.154,0-12.231.01-.408,0-.556-.076-.568-.526a7.913,7.913,0,0,0-.62-2.845c-.279-.669-.656-.915-1.148-.733-.542.2-.672.636-.4,1.334a6.972,6.972,0,0,1-.834,6.82c-.094.136-.2.263-.31.389a.937.937,0,0,1-.151.113A5.145,5.145,0,0,0,481.2,65.5c-.387-.226-.038-.363.059-.492a3.752,3.752,0,0,0-5.438-5.123,3.672,3.672,0,0,0-.54,4.992c.333.434.228.56-.164.816a5,5,0,0,0-2.06,2.865,6.513,6.513,0,0,1-1.591-2.932,7.06,7.06,0,0,1,10.884-7.541c.076.052.149.109.227.157a.843.843,0,0,0,1.215-.182.811.811,0,0,0-.248-1.162,8.146,8.146,0,0,0-3.815-1.636,8.7,8.7,0,0,0-10,7.014,4.962,4.962,0,0,0-.138,1.205c.022.454-.176.488-.548.487q-6.143-.017-12.286,0a4.126,4.126,0,0,0-4.2,3.224,6.169,6.169,0,0,0-.107,1.431q0,16.3.013,32.6c0,.518-.1.68-.645.662-1.4-.045-1.857.436-1.857,1.822,0,1.144-.012,2.288,0,3.431a4.766,4.766,0,0,0,3.333,4.48c.183.059.405.032.539.216h48.713c.26-.182.584-.134.867-.243a4.814,4.814,0,0,0,3.026-3.147c.053-.164.018-.374.2-.485v-4.982A1.545,1.545,0,0,0,504.8,101.872ZM478.295,60.6a2.092,2.092,0,1,1-2.09,2.075A2.119,2.119,0,0,1,478.295,60.6Zm-3.718,8.758a3.836,3.836,0,0,1,7.444,0,.55.55,0,0,1-.311.707,7.085,7.085,0,0,1-6.769.024A.58.58,0,0,1,474.577,69.357Zm13.03,19.849a4.109,4.109,0,0,1,3.4.461,3.406,3.406,0,0,1,1.5,2.41.506.506,0,0,1-.315.607,7.214,7.214,0,0,1-3.382.882,7.627,7.627,0,0,1-3.349-.823.642.642,0,0,1-.393-.832A3.317,3.317,0,0,1,487.606,89.206Zm-.9-3.86a2.055,2.055,0,0,1,2.083-2.1,2.082,2.082,0,1,1-2.083,2.1Zm4.751,2.641a3.86,3.86,0,0,0,1.043-3.144,3.746,3.746,0,0,0-6.845-1.588,3.7,3.7,0,0,0,.132,4.293c.284.363.287.488-.127.737a4.95,4.95,0,0,0-2.1,2.815c-1.777-1.491-2.855-5.7-.367-8.909a7.074,7.074,0,0,1,10.249-1,6.99,6.99,0,0,1,.59,9.962A5.3,5.3,0,0,0,491.453,87.987Zm-7.034-9.027a8.539,8.539,0,0,0-4.343,7.365c-.012.334-.125.393-.417.38-.23-.011-.461-.012-.691-.011s-.461.005-.692.005l-.346,0c-.346,0-.692-.01-1.037.009-.3.017-.355-.1-.365-.376a8.575,8.575,0,0,0-4.341-7.371c-.253-.155-.326-.243-.137-.523q1.952-2.882,3.865-5.79a.462.462,0,0,1,.576-.245,8.177,8.177,0,0,0,3.62,0,.463.463,0,0,1,.577.242q1.919,2.9,3.863,5.79C484.736,78.709,484.682,78.8,484.419,78.96Zm-16.6,14.606a7.182,7.182,0,0,1-1.987-.295l-.049-.015q-.174-.053-.345-.114l-.107-.04-.19-.074c-.118-.048-.236-.1-.353-.154q-.2-.1-.406-.2a.485.485,0,0,1-.293-.567,3.425,3.425,0,0,1,2.963-2.98,4.212,4.212,0,0,1,3.024.559,3.51,3.51,0,0,1,1.459,2.259.617.617,0,0,1-.374.79q-.2.1-.4.187A7.442,7.442,0,0,1,467.815,93.566ZM465.725,85.3a2.082,2.082,0,0,1,2.141-2.059,2.081,2.081,0,1,1-.094,4.16A2.091,2.091,0,0,1,465.725,85.3Zm4.782,2.69c1.464-2.038,1.388-4.041-.194-5.468a3.746,3.746,0,0,0-5.033.04c-1.535,1.41-1.6,3.456-.144,5.429a5.24,5.24,0,0,0-2.55,3.134,6.908,6.908,0,0,1-.176-9.166,7.045,7.045,0,1,1,10.665,9.205A5.361,5.361,0,0,0,470.506,87.992ZM454.114,68.44a2.5,2.5,0,0,1,2.784-2.81c4.1,0,8.192.006,12.288-.011.417,0,.65.076.7.524a2.1,2.1,0,0,0,.214.682c.213.429.02.468-.356.468q-6.144-.014-12.288-.006c-1.289,0-1.687.4-1.687,1.683q0,6.7,0,13.4a3.3,3.3,0,0,0,.027.551.813.813,0,0,0,1.605.014,3.445,3.445,0,0,0,.031-.606c0-4.281.008-8.561-.009-12.842,0-.442.122-.543.549-.541q6.366.024,12.731,0a.867.867,0,0,1,.79.362,7.744,7.744,0,0,0,2.653,2.215c.374.189.313.331.125.61q-1.884,2.795-3.74,5.609a.556.556,0,0,1-.715.277,8.715,8.715,0,1,0,6.4,10.788c.09-.325.209-.469.584-.455,1,.035,1.993.033,2.988,0,.365-.012.493.105.589.444a8.769,8.769,0,0,0,8.808,6.426,8.883,8.883,0,0,0,8.285-7.808,8.78,8.78,0,0,0-6.954-9.465,8.382,8.382,0,0,0-3.78.085.492.492,0,0,1-.634-.241q-1.883-2.862-3.8-5.7c-.206-.3-.136-.409.158-.563a7.991,7.991,0,0,0,2.685-2.263.765.765,0,0,1,.7-.319q6.421.01,12.842,0c.379,0,.5.085.495.482q-.018,13.506,0,27.012c0,.358-.087.456-.451.455q-20.425-.015-40.85,0c-.373,0-.448-.111-.447-.46.013-3.081.008-6.163.007-9.244a5.223,5.223,0,0,0-.012-.553.84.84,0,0,0-.825-.8.826.826,0,0,0-.816.812c-.029.4-.013.811-.013,1.217q0,4.511,0,9.023c0,1.241.424,1.664,1.658,1.664h41.736c1.239,0,1.67-.423,1.67-1.652q0-13.977,0-27.953c0-1.242-.416-1.655-1.66-1.655-4.078,0-8.155-.007-12.233.009-.466,0-.647-.057-.414-.551.161-.343.148-.876.4-1.041.287-.189.781-.072,1.184-.073q5.784,0,11.569,0a2.5,2.5,0,0,1,2.81,2.784q0,16.467.013,32.935c0,.454-.141.527-.55.526q-11.846-.017-23.691-.009-11.79,0-23.58.01c-.444,0-.578-.081-.577-.557Q454.124,84.88,454.114,68.44Zm24.219,35.089h.872c.872,0,1.744,0,2.615-.008.3,0,.413.058.407.387-.03,1.541.144,1.264-1.247,1.274-1.993.015-3.986-.011-5.978.014-.493.006-.639-.157-.63-.634.019-1.034,0-1.035,1.027-1.035Zm26.66.558c-.04.939-.009,1.882-.013,2.822a3.1,3.1,0,0,1-3.266,3.259l-11.707,0H455.053a3.127,3.127,0,0,1-3.433-3.426c0-.941.012-1.882-.007-2.823-.006-.308.075-.4.392-.4q10.157.014,20.314,0c.3,0,.427.059.405.389a7.766,7.766,0,0,0,.018,1.216,1.853,1.853,0,0,0,1.794,1.711q3.764.038,7.528,0a1.868,1.868,0,0,0,1.8-1.71c.012-.11.018-.221.021-.331.009-.405-.142-.954.063-1.179.244-.268.8-.086,1.221-.086,6.421,0,12.841,0,19.262-.015C504.894,103.516,505.012,103.629,504.993,104.087Z" transform="translate(201.081 1555.613)" fill="#3a277b"/>
  </g>
</svg>
