<svg xmlns="http://www.w3.org/2000/svg" width="85.718" height="85.718" viewBox="0 0 85.718 85.718">
  <g id="Grupo_62196" data-name="Grupo 62196" transform="translate(-635.282 -1078.282)">
    <circle id="Elipse_76" data-name="Elipse 76" cx="42.859" cy="42.859" r="42.859" transform="translate(635.282 1078.282)" fill="#3a277b" opacity="0.1"/>
    <g id="Grupo_60258" data-name="Grupo 60258" transform="translate(129.613 1019.265)">
      <path id="Trazado_130838" data-name="Trazado 130838" d="M574.1,78.882q-25.816.054-51.631.021c-2.29,0-3.482,1.192-3.482,3.479q0,10.413,0,20.826,0,3.548,0,7.1a3,3,0,0,0,1.651,2.826,3.752,3.752,0,0,0,1.846.348h27q12.576,0,25.152,0a3.4,3.4,0,0,0,2.656-1.01,7.385,7.385,0,0,0,.78-1.378V81.319C577.427,79.4,576.011,78.878,574.1,78.882Zm.451,32.144H522.514c-1.01,0-1.094-.083-1.094-1.076q0-13.759,0-27.519c0-.98.111-1.092,1.088-1.092h52.037c.982,0,1.094.112,1.094,1.086q0,13.759,0,27.518C575.639,110.943,575.556,111.025,574.551,111.025Z" transform="translate(0 0)" fill="#3a277b"/>
      <path id="Trazado_130839" data-name="Trazado 130839" d="M576.378,410.843c-7.383.018-14.766.007-22.149.02-.418,0-.639-.083-.792-.517a4.777,4.777,0,0,0-8.946-.009.672.672,0,0,1-.781.525q-11.421-.018-22.841-.007a5.323,5.323,0,0,0-.8.047,1.19,1.19,0,0,0-1.005,1.156,1.178,1.178,0,0,0,.926,1.161,4.315,4.315,0,0,0,.857.074q11.421.006,22.841-.006c.437,0,.659.084.823.543a4.776,4.776,0,0,0,8.923-.012.678.678,0,0,1,.774-.533c7.325.015,14.651,0,21.976.021a2.109,2.109,0,0,0,1.957-.785v-.808A1.729,1.729,0,0,0,576.378,410.843Zm-27.408,3.615a2.385,2.385,0,1,1,2.381-2.393A2.423,2.423,0,0,1,548.969,414.458Z" transform="translate(-0.065 -290.467)" fill="#3a277b"/>
      <path id="Trazado_130840" data-name="Trazado 130840" d="M727.779,155.744q-5.446-3.876-10.893-7.751a1.433,1.433,0,0,0-1.544-.3c-.621.3-.687.855-.685,1.462.009,2.6,0,5.193,0,7.789,0,2.616.005,5.231,0,7.847a1.287,1.287,0,0,0,2.213,1.132q5.44-3.885,10.891-7.754C728.879,157.37,728.886,156.531,727.779,155.744Zm-10.651,6.993V151.163l8.135,5.783Z" transform="translate(-173.091 -60.76)" fill="#3a277b"/>
      <path id="Trazado_130841" data-name="Trazado 130841" d="M714.661,169.077c0-2.6.005-5.193,0-7.789.009,2.6,0,5.193,0,7.789,0,2.616.005,5.231,0,7.847C714.667,174.309,714.661,171.693,714.661,169.077Z" transform="translate(-173.091 -72.897)" fill="#3a277b"/>
    </g>
  </g>
</svg>
