<svg xmlns="http://www.w3.org/2000/svg" xmlns:xlink="http://www.w3.org/1999/xlink" width="91.737" height="90.396" viewBox="0 0 91.737 90.396">
  <defs>
    <clipPath id="clip-path">
      <rect id="Rectángulo_401797" data-name="Rectángulo 401797" width="82" height="82" transform="translate(214 9746)" fill="#fff" stroke="#707070" stroke-width="1"/>
    </clipPath>
  </defs>
  <g id="Grupo_1101625" data-name="Grupo 1101625" transform="translate(-209 -9746)">
    <g id="Grupo_1100500" data-name="Grupo 1100500">
      <path id="_12068" data-name="12068" d="M78.931,72.011c-9.394-1.3-19.317-.98-27.865,3.126-11.854,5.694-19.64,18.6-19.938,31.75s6.551,26.066,17.132,33.876S72.8,151.341,85.735,149c13.048-2.365,25.295-10.031,32.1-21.411,4.364-7.3,6.4-16.309,3.993-24.463A33.421,33.421,0,0,0,113.9,90.084,58.6,58.6,0,0,0,78.931,72.011Z" transform="translate(177.881 9686.594)" fill="#ffd947"/>
      <g id="Enmascarar_grupo_1098754" data-name="Enmascarar grupo 1098754" clip-path="url(#clip-path)">
        <g id="mensaje" transform="translate(212.677 9744.678)">
          <g id="Grupo_1100514" data-name="Grupo 1100514">
            <g id="Grupo_1100506" data-name="Grupo 1100506">
              <path id="Trazado_875812" data-name="Trazado 875812" d="M71.261,34.876,66.9,67.61a7.455,7.455,0,0,1-7.38,6.454H38.355v6.071A1.863,1.863,0,0,1,36.49,82h-.159a1.938,1.938,0,0,1-1.124-.37L25.129,74.065H14.456a7.445,7.445,0,0,1-7.38-6.454L2.711,34.876a8.11,8.11,0,0,1-.066-.979,7.445,7.445,0,0,1,7.446-7.446H41.145l.344,1.561a4.768,4.768,0,0,0,4.655,3.73H58.194v3.425a1.87,1.87,0,0,0,3.187,1.323l4.748-4.748h4.88a7.652,7.652,0,0,1,.317,2.156,8.111,8.111,0,0,1-.066.979Z" fill="#e6e9ed"/>
            </g>
            <g id="Grupo_1100507" data-name="Grupo 1100507">
              <path id="Trazado_875813" data-name="Trazado 875813" d="M82,7.406a4.6,4.6,0,0,1-.119,1.045L77.543,28.012a4.768,4.768,0,0,1-4.655,3.73H66.129L61.381,36.49a1.87,1.87,0,0,1-3.187-1.323V31.742H46.145a4.768,4.768,0,0,1-4.655-3.73l-.344-1.561-3.994-18a4.6,4.6,0,0,1-.119-1.045,4.771,4.771,0,0,1,1.534-3.5l.013.013L59.516,21.161,80.453,3.915l.013-.013a1.449,1.449,0,0,1,.145.132A4.746,4.746,0,0,1,82,7.406Z" fill="#d3a06c"/>
            </g>
            <g id="Grupo_1100508" data-name="Grupo 1100508">
              <path id="Trazado_875814" data-name="Trazado 875814" d="M77.239,2.645A4.726,4.726,0,0,1,80.466,3.9l-.013.013L59.516,21.161,38.58,3.915,38.566,3.9a4.726,4.726,0,0,1,3.227-1.256Z" fill="#cf9e76"/>
            </g>
            <g id="Grupo_1100509" data-name="Grupo 1100509">
              <path id="Trazado_875815" data-name="Trazado 875815" d="M21.161,54.4V66.129H17.194l-2.645-11.9h3.968A22.023,22.023,0,0,1,21.161,54.4Z" fill="#aab2bd"/>
            </g>
            <g id="Grupo_1100510" data-name="Grupo 1100510">
              <path id="Trazado_875816" data-name="Trazado 875816" d="M18.516,54.226V43.645a22.605,22.605,0,0,0,15.871-6.613V60.839A22.548,22.548,0,0,0,21.161,54.4,22.023,22.023,0,0,0,18.516,54.226Z" fill="#aab2bd"/>
            </g>
            <g id="Grupo_1100511" data-name="Grupo 1100511">
              <path id="Trazado_875817" data-name="Trazado 875817" d="M39.677,43.645a5.29,5.29,0,0,1,0,10.581Z" fill="#ff826e"/>
            </g>
            <g id="Grupo_1100512" data-name="Grupo 1100512">
              <path id="Trazado_875818" data-name="Trazado 875818" d="M18.516,43.645V54.226h-5.29a2.653,2.653,0,0,1-2.645-2.645V46.29a2.653,2.653,0,0,1,2.645-2.645h5.2Z" fill="#fcd770"/>
            </g>
            <g id="Grupo_1100513" data-name="Grupo 1100513">
              <path id="Trazado_875819" data-name="Trazado 875819" d="M39.677,54.226v6.613a2.645,2.645,0,0,1-5.29,0V37.032a2.653,2.653,0,0,1,2.645-2.645,2.664,2.664,0,0,1,2.645,2.645V54.226Z" fill="#fcd770"/>
            </g>
          </g>
          <g id="Grupo_1100515" data-name="Grupo 1100515">
            <path id="Trazado_875820" data-name="Trazado 875820" d="M9.258,33.892a.829.829,0,0,1,.828-.828h9.753V30.419H10.086a3.477,3.477,0,0,0-3.473,3.473,3.58,3.58,0,0,0,.03.463L7.2,38.529l2.621-.35Z"/>
            <path id="Trazado_875821" data-name="Trazado 875821" d="M41,42.456V37.032a3.961,3.961,0,0,0-7.871-.643,21.1,21.1,0,0,1-14.707,5.933h-5.2A3.973,3.973,0,0,0,9.258,46.29v5.29a3.973,3.973,0,0,0,3.968,3.968h.262l2.645,11.9h6.351V55.94a21.083,21.083,0,0,1,10.645,5.542A3.961,3.961,0,0,0,41,60.839V55.415a6.613,6.613,0,0,0,0-12.959ZM19.839,44.9a23.654,23.654,0,0,0,13.226-4.965v18a23.645,23.645,0,0,0-13.226-4.965ZM11.9,51.581V50.258h2.645V47.613H11.9V46.29a1.324,1.324,0,0,1,1.323-1.323h3.968V52.9H13.226A1.324,1.324,0,0,1,11.9,51.581Zm7.935,13.226H18.254L16.2,55.548h2.225c.476,0,.946.038,1.416.069v9.189Zm18.516-3.968a1.323,1.323,0,1,1-2.645,0V37.032a1.323,1.323,0,1,1,2.645,0ZM41,52.66V45.212a3.944,3.944,0,0,1,0,7.447Z"/>
            <path id="Trazado_875822" data-name="Trazado 875822" d="M48.935,41H64.806v2.645H48.935Z"/>
            <path id="Trazado_875823" data-name="Trazado 875823" d="M48.935,46.29H64.806v2.645H48.935Z"/>
            <path id="Trazado_875824" data-name="Trazado 875824" d="M48.935,51.581H64.806v2.645H48.935Z"/>
            <path id="Trazado_875825" data-name="Trazado 875825" d="M62.161,56.871h2.645v2.645H62.161Z"/>
            <path id="Trazado_875826" data-name="Trazado 875826" d="M48.935,56.871H59.516v2.645H48.935Z"/>
            <path id="Trazado_875827" data-name="Trazado 875827" d="M48.935,62.161h2.645v2.645H48.935Z"/>
            <path id="Trazado_875828" data-name="Trazado 875828" d="M54.226,62.161H64.806v2.645H54.226Z"/>
            <path id="Trazado_875829" data-name="Trazado 875829" d="M22.484,30.419h2.645v2.645H22.484Z"/>
            <path id="Trazado_875830" data-name="Trazado 875830" d="M77.233,1.323H41.8a6.088,6.088,0,0,0-5.944,7.41l3.642,16.4H10.086a8.774,8.774,0,0,0-8.763,8.763A8.955,8.955,0,0,0,1.4,35.051l4.365,32.73a8.792,8.792,0,0,0,8.687,7.606H24.687l9.729,7.3a3.224,3.224,0,0,0,1.916.639h.152a3.2,3.2,0,0,0,3.193-3.193V75.387H59.516A8.791,8.791,0,0,0,68.2,67.781L72.567,35.05a8.692,8.692,0,0,0,.077-1.157c0-.279-.034-.553-.061-.828h.3A6.055,6.055,0,0,0,78.83,28.3L83.177,8.734a6.089,6.089,0,0,0-5.944-7.412Zm0,2.645a3.363,3.363,0,0,1,.913.139L59.516,19.449,40.886,4.107a3.371,3.371,0,0,1,.913-.139ZM70,33.892a6.1,6.1,0,0,1-.054.808L65.58,67.432a6.136,6.136,0,0,1-6.064,5.31H37.032V80.13a.549.549,0,0,1-.548.548h-.152a.547.547,0,0,1-.328-.11L25.569,72.742H14.451a6.138,6.138,0,0,1-6.065-5.31L4.021,34.7a6.35,6.35,0,0,1-.053-.809,6.125,6.125,0,0,1,6.118-6.118h30l.116.522a6.055,6.055,0,0,0,5.945,4.768H56.871v2.1a3.193,3.193,0,0,0,5.45,2.258l4.355-4.355h3.263a6.177,6.177,0,0,1,.06.828ZM80.6,8.159,76.248,27.721a3.423,3.423,0,0,1-3.362,2.7h-7.3l-5.13,5.13a.569.569,0,0,1-.935-.388V30.419H46.146a3.423,3.423,0,0,1-3.362-2.7L38.437,8.159a3.459,3.459,0,0,1-.082-.747,3.4,3.4,0,0,1,.422-1.618l20.739,17.08L80.256,5.8a3.4,3.4,0,0,1,.422,1.616,3.459,3.459,0,0,1-.082.747Z"/>
          </g>
        </g>
      </g>
    </g>
  </g>
</svg>
