<svg xmlns="http://www.w3.org/2000/svg" xmlns:xlink="http://www.w3.org/1999/xlink" width="78.501" height="78.271" viewBox="0 0 78.501 78.271">
  <defs>
    <clipPath id="clip-path">
      <rect id="Rectángulo_401798" data-name="Rectángulo 401798" width="68" height="68" transform="translate(290 10749)" fill="#fff" stroke="#707070" stroke-width="1"/>
    </clipPath>
  </defs>
  <g id="Grupo_1101626" data-name="Grupo 1101626" transform="translate(-831.2 -10984.946)">
    <g id="Grupo_1100542" data-name="Grupo 1100542" transform="translate(546.2 235.946)">
      <path id="_12068" data-name="12068" d="M72.033,71.913c-8.038-1.11-16.53-.839-23.844,2.675C38.045,79.46,31.382,90.507,31.127,101.757s5.606,22.305,14.66,28.988,21,9.051,32.068,7.045c11.165-2.023,21.645-8.583,27.469-18.322,3.735-6.245,5.48-13.956,3.417-20.934a28.6,28.6,0,0,0-6.787-11.156A50.145,50.145,0,0,0,72.033,71.913Z" transform="translate(253.881 10688.789)" fill="#26aab7"/>
      <g id="Enmascarar_grupo_1098763" data-name="Enmascarar grupo 1098763" clip-path="url(#clip-path)">
        <g id="_07-Landing_Page" data-name="07-Landing Page" transform="translate(290.002 10749.004)">
          <path id="Trazado_875969" data-name="Trazado 875969" d="M25.5,1.062c4.25,0,4.25,4.25,4.25,4.25v4.25H1.062V5.312a4.25,4.25,0,0,1,4.25-4.25Z" fill="#f2f2f2"/>
          <path id="Trazado_875970" data-name="Trazado 875970" d="M62.684,1.062a4.25,4.25,0,0,1,4.25,4.25v4.25H29.748V5.312s0-4.25-4.25-4.25Z" fill="#62529b"/>
          <path id="Trazado_875971" data-name="Trazado 875971" d="M66.934,9.562V62.684a4.25,4.25,0,0,1-4.25,4.25H5.312a4.25,4.25,0,0,1-4.25-4.25V9.562Z" fill="#dedede"/>
          <path id="Trazado_875972" data-name="Trazado 875972" d="M34,3.719a2.656,2.656,0,0,0,2.656,2.656h30.28V5.312a4.25,4.25,0,0,0-4.25-4.25H31.342A2.656,2.656,0,0,1,34,3.719Z" fill="#7d6eb2"/>
          <path id="Trazado_875973" data-name="Trazado 875973" d="M62.684,64.809H5.312a2.125,2.125,0,0,1-2.125-2.125V9.562H64.809V62.684A2.125,2.125,0,0,1,62.684,64.809Z" fill="#f2f2f2"/>
          <path id="Trazado_875974" data-name="Trazado 875974" d="M61.622,60.559h3.187v-51H10.624a51,51,0,0,0,51,51Z" fill="#fff"/>
          <path id="Trazado_875975" data-name="Trazado 875975" d="M29.748,5.312s0-4.25-4.25-4.25H5.312a4.25,4.25,0,0,0-4.25,4.25v4.25H3.187V5.312A2.125,2.125,0,0,1,5.312,3.187H25.5a2.125,2.125,0,0,1,2.125,2.125v4.25h2.125Z" fill="#dedede"/>
          <path id="Trazado_875976" data-name="Trazado 875976" d="M43.56,37.185H62.684v25.5H43.56Z" fill="#62529b"/>
          <g id="Grupo_1100545" data-name="Grupo 1100545">
            <path id="Trazado_875977" data-name="Trazado 875977" d="M12.749,57.372,5.312,62.684V52.06Z" fill="#f2f2f2"/>
            <path id="Trazado_875978" data-name="Trazado 875978" d="M20.186,52.06V62.684l-7.437-5.312Z" fill="#f2f2f2"/>
            <path id="Trazado_875979" data-name="Trazado 875979" d="M31.873,57.372l-7.437,5.312V52.06Z" fill="#f2f2f2"/>
            <path id="Trazado_875980" data-name="Trazado 875980" d="M39.31,52.06V62.684l-7.437-5.312Z" fill="#f2f2f2"/>
          </g>
          <path id="Trazado_875981" data-name="Trazado 875981" d="M39.31,62.684H24.436l7.437-5.312Z" fill="#fff"/>
          <path id="Trazado_875982" data-name="Trazado 875982" d="M20.186,62.684H5.312l7.437-5.312Z" fill="#fff"/>
          <path id="Trazado_875983" data-name="Trazado 875983" d="M20.186,52.06l-7.437,5.312L5.312,52.06Z" fill="#fff"/>
          <path id="Trazado_875984" data-name="Trazado 875984" d="M39.31,52.06l-7.437,5.312L24.436,52.06Z" fill="#fff"/>
          <path id="Trazado_875985" data-name="Trazado 875985" d="M5.312,37.185h34V47.81h-34Z" fill="#26aab7"/>
          <circle id="Elipse_11644" data-name="Elipse 11644" cx="3.187" cy="3.187" r="3.187" transform="translate(6.375 13.812)" fill="#ffd947"/>
          <path id="Trazado_875986" data-name="Trazado 875986" d="M30.811,26.561,43.56,13.812,62.684,32.936H5.312L21.249,17Z" fill="#12a32c"/>
          <path id="Trazado_875987" data-name="Trazado 875987" d="M66.934,9.562V32.936h-4.25L43.56,13.812,30.811,26.561,21.249,17,5.312,32.936H1.062V9.562ZM12.749,17a3.187,3.187,0,1,0-3.187,3.187A3.187,3.187,0,0,0,12.749,17Z" fill="#26aab7"/>
          <path id="Trazado_875988" data-name="Trazado 875988" d="M43.56,37.185V57.257a50.856,50.856,0,0,0,18.062,3.3h1.062V37.185Z" fill="#7d6eb2"/>
          <path id="Trazado_875989" data-name="Trazado 875989" d="M27.908,47.81h11.4V37.185H18.764A51.229,51.229,0,0,0,27.908,47.81Z" fill="#aee6e6"/>
          <path id="Trazado_875990" data-name="Trazado 875990" d="M12.749,17a3.181,3.181,0,0,0-1.912-2.921,50.854,50.854,0,0,0,.754,5.363A3.165,3.165,0,0,0,12.749,17Z" fill="#ffdf64"/>
          <path id="Trazado_875991" data-name="Trazado 875991" d="M43.56,13.812,30.811,26.561,21.249,17,13.068,25.18A50.517,50.517,0,0,0,16.3,32.936H62.684Z" fill="#16cd37"/>
          <path id="Trazado_875992" data-name="Trazado 875992" d="M64.809,9.562H10.624c0,1.524.08,3.027.212,4.516a3.17,3.17,0,0,1,.754,5.363,50.774,50.774,0,0,0,1.477,5.738L21.249,17l9.562,9.562L43.56,13.812,62.684,32.936h4.25V9.562Z" fill="#aee6e6"/>
          <path id="Trazado_875993" data-name="Trazado 875993" d="M39.31,36.123h-34A1.062,1.062,0,0,0,4.25,37.185V47.81a1.062,1.062,0,0,0,1.062,1.062h34a1.062,1.062,0,0,0,1.062-1.062V37.185A1.062,1.062,0,0,0,39.31,36.123ZM38.248,46.747H6.375v-8.5H38.248Z"/>
          <path id="Trazado_875994" data-name="Trazado 875994" d="M20.186,51H5.312A1.062,1.062,0,0,0,4.25,52.06V62.684a1.062,1.062,0,0,0,1.062,1.062H20.186a1.062,1.062,0,0,0,1.062-1.062V52.06A1.062,1.062,0,0,0,20.186,51Zm-9.266,6.375L6.375,60.62v-6.5Zm-2.293-4.25h8.242l-4.121,2.944Zm4.121,5.556,4.121,2.944H8.628Zm1.828-1.306,4.546-3.248v6.5Z"/>
          <path id="Trazado_875995" data-name="Trazado 875995" d="M39.31,51H24.436a1.062,1.062,0,0,0-1.062,1.062V62.684a1.062,1.062,0,0,0,1.062,1.062H39.31a1.062,1.062,0,0,0,1.062-1.062V52.06A1.062,1.062,0,0,0,39.31,51Zm-9.266,6.375L25.5,60.62v-6.5Zm-2.293-4.25h8.242l-4.121,2.944Zm4.121,5.556,4.121,2.944H27.752ZM33.7,57.372l4.546-3.248v6.5Z"/>
          <path id="Trazado_875996" data-name="Trazado 875996" d="M62.684,36.123H43.56A1.062,1.062,0,0,0,42.5,37.185v25.5a1.062,1.062,0,0,0,1.062,1.062H62.684a1.062,1.062,0,0,0,1.062-1.062v-25.5A1.062,1.062,0,0,0,62.684,36.123Zm-1.062,25.5h-17V38.248h17Z"/>
          <path id="Trazado_875997" data-name="Trazado 875997" d="M5.312,17a4.25,4.25,0,1,0,4.25-4.25A4.25,4.25,0,0,0,5.312,17Zm6.375,0a2.125,2.125,0,1,1-2.125-2.125A2.125,2.125,0,0,1,11.687,17Z"/>
          <path id="Trazado_875998" data-name="Trazado 875998" d="M23.374,12.749H25.5v2.125H23.374Z"/>
          <path id="Trazado_875999" data-name="Trazado 875999" d="M27.624,12.749H38.248v2.125H27.624Z"/>
          <path id="Trazado_876000" data-name="Trazado 876000" d="M49.935,12.749H63.747v2.125H49.935Z"/>
          <path id="Trazado_876001" data-name="Trazado 876001" d="M46.747,40.373h2.125V42.5H46.747Z"/>
          <path id="Trazado_876002" data-name="Trazado 876002" d="M51,40.373h8.5V42.5H51Z"/>
          <path id="Trazado_876003" data-name="Trazado 876003" d="M46.747,44.623H59.5v2.125H46.747Z"/>
          <path id="Trazado_876004" data-name="Trazado 876004" d="M48.872,48.872H59.5V51H48.872Z"/>
          <path id="Trazado_876005" data-name="Trazado 876005" d="M46.747,53.122H59.5v2.125H46.747Z"/>
          <path id="Trazado_876006" data-name="Trazado 876006" d="M46.747,57.372H59.5V59.5H46.747Z"/>
          <path id="Trazado_876007" data-name="Trazado 876007" d="M2.125,10.624H32.936V8.5H30.811V5.312A5.122,5.122,0,0,0,25.5,0H5.312A5.319,5.319,0,0,0,0,5.312v7.437H2.125Zm3.187-8.5H25.5a3.03,3.03,0,0,1,3.187,3.187V8.5H2.125V5.312A3.187,3.187,0,0,1,5.312,2.125Z"/>
          <path id="Trazado_876008" data-name="Trazado 876008" d="M62.684,0h-25.5V2.125h25.5a3.187,3.187,0,0,1,3.187,3.187V8.5H35.061v2.125H65.871V31.873H63.124L44.311,13.061a1.062,1.062,0,0,0-1.5,0l-12,12L22,16.248a1.062,1.062,0,0,0-1.5,0L4.872,31.873H2.125v-17H0v47.81A5.319,5.319,0,0,0,5.312,68H62.684A5.319,5.319,0,0,0,68,62.684V5.312A5.319,5.319,0,0,0,62.684,0ZM21.249,18.5l12,12,1.5-1.5-2.436-2.436L43.56,15.314,60.119,31.873H7.877Zm41.435,47.37H5.312a3.187,3.187,0,0,1-3.187-3.187V34H65.871V62.684a3.187,3.187,0,0,1-3.187,3.187Z"/>
          <path id="Trazado_876009" data-name="Trazado 876009" d="M32.936,0h2.125V2.125H32.936Z"/>
          <path id="Trazado_876010" data-name="Trazado 876010" d="M4.25,4.25H22.311V6.375H4.25Z"/>
          <path id="Trazado_876011" data-name="Trazado 876011" d="M24.436,4.25h2.125V6.375H24.436Z"/>
          <path id="Trazado_876012" data-name="Trazado 876012" d="M61.622,4.25h2.125V6.375H61.622Z"/>
          <path id="Trazado_876013" data-name="Trazado 876013" d="M57.372,4.25H59.5V6.375H57.372Z"/>
          <path id="Trazado_876014" data-name="Trazado 876014" d="M53.122,4.25h2.125V6.375H53.122Z"/>
        </g>
      </g>
    </g>
  </g>
</svg>
