<svg xmlns="http://www.w3.org/2000/svg" xmlns:xlink="http://www.w3.org/1999/xlink" width="91.737" height="90.396" viewBox="0 0 91.737 90.396">
  <defs>
    <clipPath id="clip-path">
      <rect id="Rectángulo_401797" data-name="Rectángulo 401797" width="82" height="82" transform="translate(214 9746)" fill="#fff" stroke="#707070" stroke-width="1"/>
    </clipPath>
  </defs>
  <g id="Grupo_1101629" data-name="Grupo 1101629" transform="translate(-630.5 -10113)">
    <g id="Grupo_1100504" data-name="Grupo 1100504" transform="translate(421.5 367)">
      <path id="_12068" data-name="12068" d="M78.931,72.011c-9.394-1.3-19.317-.98-27.865,3.126-11.854,5.694-19.64,18.6-19.938,31.75s6.551,26.066,17.132,33.876S72.8,151.341,85.735,149c13.048-2.365,25.295-10.031,32.1-21.411,4.364-7.3,6.4-16.309,3.993-24.463A33.421,33.421,0,0,0,113.9,90.084,58.6,58.6,0,0,0,78.931,72.011Z" transform="translate(177.881 9686.594)" fill="#ffd947"/>
      <g id="Enmascarar_grupo_1098758" data-name="Enmascarar grupo 1098758" clip-path="url(#clip-path)">
        <g id="globos-de-texto" transform="translate(214.002 9746.001)">
          <path id="Trazado_875888" data-name="Trazado 875888" d="M71.995,9.819V32.225H25.85V9.819a1.594,1.594,0,0,1,1.591-1.589H70.4a1.593,1.593,0,0,1,1.591,1.589Z" fill="#ffdf8e"/>
          <path id="Trazado_875889" data-name="Trazado 875889" d="M71.995,29.458v2.767H25.85V20.416H31.3a18.974,18.974,0,0,1,16.172,9.042Z" fill="#ffcd6e"/>
          <path id="Trazado_875890" data-name="Trazado 875890" d="M80.768,40.46V54.59a8.339,8.339,0,0,1-8.452,8.237L66.665,73.768,59.283,62.827h-16.2a8.449,8.449,0,0,1-7.96-5.457,8.075,8.075,0,0,1-.492-2.78V39.753a7.527,7.527,0,0,1,7.527-7.527H72.316a8.343,8.343,0,0,1,8.452,8.235Z" fill="#f281ad"/>
          <path id="Trazado_875891" data-name="Trazado 875891" d="M44.947,52.184a18.7,18.7,0,0,1-9.83,5.186,8.074,8.074,0,0,1-.492-2.78V39.753a7.527,7.527,0,0,1,7.527-7.527h7.04a18.245,18.245,0,0,1,1.253,6.39v0a18.674,18.674,0,0,1-5.5,13.567Z" fill="#f76898"/>
          <g id="Grupo_1100536" data-name="Grupo 1100536">
            <path id="Trazado_875892" data-name="Trazado 875892" d="M73.2,55.5H48.922a1.23,1.23,0,1,1,0-2.46H73.2a1.23,1.23,0,1,1,0,2.46Z" fill="#fff"/>
            <path id="Trazado_875893" data-name="Trazado 875893" d="M73.2,48.232H53.937a1.23,1.23,0,0,1,0-2.46H73.2a1.23,1.23,0,1,1,0,2.46Z" fill="#fff"/>
            <path id="Trazado_875894" data-name="Trazado 875894" d="M73.2,40.96H59.623a1.23,1.23,0,1,1,0-2.46H73.2a1.23,1.23,0,1,1,0,2.46Z" fill="#fff"/>
          </g>
          <path id="Trazado_875895" data-name="Trazado 875895" d="M47.37,38.662A15.712,15.712,0,0,1,31.657,54.613H19.147a2.413,2.413,0,0,0-.941.193,2.387,2.387,0,0,0-.892.66l-6.972,8.28L9.426,52.7V52.7a15.714,15.714,0,0,1,7.519-29.513H31.3A15.947,15.947,0,0,1,47.37,38.662Z" fill="#c4e2fe"/>
          <path id="Trazado_875896" data-name="Trazado 875896" d="M47.37,38.662A15.712,15.712,0,0,1,31.657,54.613H19.147a2.413,2.413,0,0,0-.941.193S9.838,50.778,9.838,38.9A15.709,15.709,0,0,1,25.551,23.183H31.3A15.947,15.947,0,0,1,47.37,38.662Z" fill="#9ccefd"/>
          <path id="Trazado_875897" data-name="Trazado 875897" d="M15.557,38.759a2.2,2.2,0,1,1-2.2-2.2A2.2,2.2,0,0,1,15.557,38.759Z" fill="#fff"/>
          <path id="Trazado_875898" data-name="Trazado 875898" d="M26.524,38.759a2.2,2.2,0,1,1-2.2-2.2A2.2,2.2,0,0,1,26.524,38.759Z" fill="#fff"/>
          <path id="Trazado_875899" data-name="Trazado 875899" d="M38.1,38.759a2.2,2.2,0,1,1-2.2-2.2A2.2,2.2,0,0,1,38.1,38.759Z" fill="#fff"/>
          <path id="Trazado_875900" data-name="Trazado 875900" d="M73.225,31.039V9.819A2.819,2.819,0,0,0,70.406,7H53.16a1.23,1.23,0,1,0,0,2.46H70.4a.362.362,0,0,1,.361.361V31H46.583A17.415,17.415,0,0,0,31.3,21.953H27.08V9.819a.36.36,0,0,1,.359-.359h15.9a1.23,1.23,0,1,0,0-2.46h-15.9A2.829,2.829,0,0,0,24.62,9.821V21.953H16.945A16.944,16.944,0,0,0,8.251,53.44l.865,10.406a1.23,1.23,0,0,0,2.165.691l6.974-8.28a1.166,1.166,0,0,1,.892-.414H31.658a17.129,17.129,0,0,0,1.812-.1,9.62,9.62,0,0,0,9.608,8.311H58.629l7.017,10.4a1.23,1.23,0,0,0,2.111-.125l5.324-10.305A9.565,9.565,0,0,0,82,54.59V40.46a9.562,9.562,0,0,0-8.774-9.421ZM31.658,53.383H19.147a3.618,3.618,0,0,0-2.774,1.289l-5.053,6-.666-8.04a1.229,1.229,0,0,0-.64-1.017,14.484,14.484,0,0,1,6.931-27.2H31.3A14.728,14.728,0,0,1,46.14,38.679a14.48,14.48,0,0,1-14.483,14.7ZM79.538,54.59a7.122,7.122,0,0,1-7.222,7,1.233,1.233,0,0,0-1.093.666l-4.7,9.1L60.3,62.138a1.231,1.231,0,0,0-1.019-.543h-16.2a7.152,7.152,0,0,1-7.185-6.285A16.952,16.952,0,0,0,48.6,38.644a16.258,16.258,0,0,0-.258-2.661,16.6,16.6,0,0,0-.666-2.528H72.316a7.124,7.124,0,0,1,7.222,7Z"/>
          <path id="Trazado_875901" data-name="Trazado 875901" d="M15.557,38.759a2.2,2.2,0,1,1-2.2-2.2A2.2,2.2,0,0,1,15.557,38.759Z"/>
          <path id="Trazado_875902" data-name="Trazado 875902" d="M26.524,38.759a2.2,2.2,0,1,1-2.2-2.2,2.2,2.2,0,0,1,2.2,2.2Z"/>
          <path id="Trazado_875903" data-name="Trazado 875903" d="M38.1,38.759a2.2,2.2,0,1,1-2.2-2.2,2.2,2.2,0,0,1,2.2,2.2Z"/>
          <path id="Trazado_875904" data-name="Trazado 875904" d="M73.2,53.043H48.923a1.23,1.23,0,1,0,0,2.46H73.2a1.23,1.23,0,1,0,0-2.46Z"/>
          <path id="Trazado_875905" data-name="Trazado 875905" d="M73.2,45.771H53.938a1.23,1.23,0,0,0,0,2.46H73.2a1.23,1.23,0,1,0,0-2.46Z"/>
          <path id="Trazado_875906" data-name="Trazado 875906" d="M73.2,38.5H59.623a1.23,1.23,0,0,0,0,2.46H73.2a1.23,1.23,0,0,0,0-2.46Z"/>
          <circle id="Elipse_11629" data-name="Elipse 11629" cx="1.227" cy="1.227" r="1.227" transform="translate(47.023 7.032)"/>
        </g>
      </g>
    </g>
  </g>
</svg>
