<svg xmlns="http://www.w3.org/2000/svg" width="94.896" height="94.896" viewBox="0 0 94.896 94.896">
  <g id="Grupo_62205" data-name="Grupo 62205" transform="translate(-543 -2415)">
    <path id="Trazado_131185" data-name="Trazado 131185" d="M47.448,0A47.448,47.448,0,1,1,0,47.448,47.448,47.448,0,0,1,47.448,0Z" transform="translate(543 2415)" fill="#26aab7"/>
    <g id="Grupo_60506" data-name="Grupo 60506" transform="translate(-0.485 -5982.758)">
      <path id="Trazado_131296" data-name="Trazado 131296" d="M58.793,33.144a5.656,5.656,0,0,0-4.268-9.324h-.054a7.171,7.171,0,0,0-3.283-2.6,5.656,5.656,0,0,0-4.276-9.315h-.053a7.175,7.175,0,0,0-3.284-2.6,5.619,5.619,0,1,0-8.552,0,7.174,7.174,0,0,0-3.283,2.6h-.106a7.175,7.175,0,0,0-3.284-2.6,5.619,5.619,0,1,0-8.552,0,7.171,7.171,0,0,0-3.283,2.6h-.053a5.628,5.628,0,0,0-.9.073,1.238,1.238,0,0,0,.4,2.443,3.123,3.123,0,0,1,.5-.041,3.178,3.178,0,1,1-2.9,4.4,1.238,1.238,0,0,0-2.288.944,5.687,5.687,0,0,0,.908,1.5A7.176,7.176,0,0,0,8.9,23.821H8.85a5.656,5.656,0,0,0-4.268,9.324A7.2,7.2,0,0,0,0,39.844v3.479a3.717,3.717,0,0,0,3.713,3.713H49.759a1.238,1.238,0,0,0,0-2.476H48.15V39.844a4.723,4.723,0,0,1,4.717-4.717h3.315A4.723,4.723,0,0,1,60.9,39.844v3.479a1.239,1.239,0,0,1-1.238,1.238H58.3a1.238,1.238,0,0,0,0,2.476h1.366a3.717,3.717,0,0,0,3.713-3.713V39.844a7.2,7.2,0,0,0-4.582-6.7Zm-1.125-3.67A3.143,3.143,0,1,1,54.525,26.3a3.164,3.164,0,0,1,3.143,3.178ZM50.056,17.564a3.143,3.143,0,1,1-3.143-3.178A3.164,3.164,0,0,1,50.056,17.564ZM39.3,2.476a3.178,3.178,0,1,1-3.143,3.178A3.164,3.164,0,0,1,39.3,2.476Zm-1.7,8.831H41a4.633,4.633,0,0,1,3.209,1.3,5.666,5.666,0,0,0-1.576,8.618,7.173,7.173,0,0,0-3.283,2.6h-.107a7.17,7.17,0,0,0-3.283-2.6,5.665,5.665,0,0,0-1.576-8.618,4.634,4.634,0,0,1,3.21-1.3Zm1.7,21.344a3.178,3.178,0,1,1,3.143-3.178A3.164,3.164,0,0,1,39.3,32.651Zm-7.612,3.163a7.232,7.232,0,0,0-3.344-2.67,5.665,5.665,0,0,0-1.569-8.626,4.632,4.632,0,0,1,3.209-1.3h3.407a4.632,4.632,0,0,1,3.209,1.3,5.665,5.665,0,0,0-1.569,8.626,7.232,7.232,0,0,0-3.344,2.67ZM20.932,29.473a3.143,3.143,0,1,1,3.143,3.178A3.164,3.164,0,0,1,20.932,29.473ZM31.688,14.386a3.178,3.178,0,1,1-3.143,3.177A3.164,3.164,0,0,1,31.688,14.386ZM24.075,2.476a3.178,3.178,0,1,1-3.143,3.178A3.164,3.164,0,0,1,24.075,2.476ZM19.162,12.607a4.634,4.634,0,0,1,3.21-1.3h3.407a4.634,4.634,0,0,1,3.21,1.3,5.666,5.666,0,0,0-1.577,8.618,7.175,7.175,0,0,0-3.283,2.6h-.107a7.17,7.17,0,0,0-3.283-2.6,5.665,5.665,0,0,0-1.576-8.618Zm-4.4,10.609h3.407a4.633,4.633,0,0,1,3.209,1.3,5.665,5.665,0,0,0-1.569,8.626,7.236,7.236,0,0,0-3.344,2.67,7.23,7.23,0,0,0-3.343-2.67,5.665,5.665,0,0,0-1.569-8.626,4.635,4.635,0,0,1,3.21-1.3ZM8.85,26.3a3.178,3.178,0,1,1-3.143,3.178A3.164,3.164,0,0,1,8.85,26.3ZM2.476,43.323V39.844a4.723,4.723,0,0,1,4.717-4.717h3.315a4.723,4.723,0,0,1,4.717,4.717v4.717H3.714a1.239,1.239,0,0,1-1.238-1.238ZM17.7,39.844a4.723,4.723,0,0,1,4.717-4.717h3.315a4.723,4.723,0,0,1,4.717,4.717v4.717H17.7Zm15.225,0a4.723,4.723,0,0,1,4.717-4.717h3.315a4.723,4.723,0,0,1,4.717,4.717v4.717H32.925Zm13.987-4.03a7.232,7.232,0,0,0-3.344-2.67A5.665,5.665,0,0,0,42,24.517a4.632,4.632,0,0,1,3.209-1.3h3.407a4.632,4.632,0,0,1,3.209,1.3,5.665,5.665,0,0,0-1.569,8.626,7.232,7.232,0,0,0-3.344,2.67Zm0,0" transform="translate(558.247 8421.759)" fill="#fff"/>
      <g id="Grupo_60504" data-name="Grupo 60504" transform="translate(1.958)">
        <path id="Trazado_131298" data-name="Trazado 131298" d="M1403.484,306.2a.857.857,0,1,0-1.712.005c-.017.5,0,1-.006,1.507-.007.738-.31,1.05-1.044,1.05q-4.978.005-9.956,0c-.742,0-1.055-.307-1.056-1.037q-.005-4.978,0-9.956c0-.768.3-1.063,1.083-1.063q4.951,0,9.9,0c.769,0,1.07.3,1.071,1.076,0,1.579,0,3.157,0,4.736,0,.681.318,1.071.856,1.074s.864-.389.865-1.066c0-1.614.006-3.229,0-4.843a2.575,2.575,0,0,0-2.708-2.7q-5.032-.007-10.063,0a2.58,2.58,0,0,0-2.73,2.731q-.007,5,0,10.01a2.588,2.588,0,0,0,2.755,2.761c1.668,0,3.337,0,5,0,1.722,0,3.444.011,5.166,0a2.562,2.562,0,0,0,2.566-2.4C1403.513,307.458,1403.5,306.828,1403.484,306.2Z" transform="translate(-836.457 8130.902)" fill="#fff"/>
        <path id="Trazado_131299" data-name="Trazado 131299" d="M1428,338.428a3.445,3.445,0,1,0,3.473-3.431A3.449,3.449,0,0,0,1428,338.428Zm5.165-.008a1.72,1.72,0,1,1-1.728-1.7A1.727,1.727,0,0,1,1433.168,338.42Z" transform="translate(-872.167 8095.196)" fill="#fff"/>
      </g>
      <g id="Grupo_60505" data-name="Grupo 60505" transform="translate(2.451)">
        <path id="Trazado_131297" data-name="Trazado 131297" d="M1388.765,51.943a.831.831,0,0,0,.834-.877c.014-.468,0-.938,0-1.407,0-.756.287-1.048,1.03-1.049q4.794,0,9.588,0c.776,0,1.056.286,1.057,1.075q0,4.768,0,9.535c0,.779-.286,1.063-1.07,1.063q-4.768,0-9.536,0c-.784,0-1.067-.283-1.069-1.063,0-1.511,0-3.022,0-4.533,0-.694-.312-1.082-.85-1.072-.521.01-.816.385-.817,1.052q0,2.319,0,4.637a2.5,2.5,0,0,0,2.642,2.647q4.846.007,9.692,0a2.5,2.5,0,0,0,2.676-2.665c0-1.615,0-3.231,0-4.846,0-1.667.011-3.335,0-5a2.46,2.46,0,0,0-2.423-2.49q-5.08-.03-10.161,0a2.467,2.467,0,0,0-2.417,2.39c-.02.573-.015,1.146,0,1.719A.829.829,0,0,0,1388.765,51.943Z" transform="translate(-776.407 8380.872)" fill="#fff"/>
        <path id="Trazado_131300" data-name="Trazado 131300" d="M1432.2,80.611c.537-.024,1.075,0,1.613-.01a.832.832,0,1,0,0-1.661q-.832-.021-1.665,0a2.5,2.5,0,0,0-2.458,2.458c-.022.809-.022.809-.843.877a.833.833,0,0,0-.823.834.849.849,0,0,0,.774.832c.295.043.7-.166.859.115.134.238.03.609.032.921,0,.121,0,.243,0,.364,0,.33-.005.659,0,.989a.848.848,0,0,0,.818.944c.508.01.842-.364.848-.967.007-.659.022-1.319-.007-1.977-.014-.327.084-.4.4-.4.893.011,1.287-.271,1.272-.848-.015-.56-.388-.8-1.263-.815-.13,0-.293.07-.388-.068A1.143,1.143,0,0,1,1432.2,80.611Z" transform="translate(-812.323 8352.214)" fill="#fff"/>
      </g>
    </g>
  </g>
</svg>
