<svg xmlns="http://www.w3.org/2000/svg" xmlns:xlink="http://www.w3.org/1999/xlink" width="91.927" height="91.928" viewBox="0 0 91.927 91.928">
  <defs>
    <radialGradient id="radial-gradient" cx="0.076" cy="0.019" r="1.465" gradientTransform="translate(0.001)" gradientUnits="objectBoundingBox">
      <stop offset="0" stop-color="#f6f6f7"/>
      <stop offset="0.477" stop-color="#f9f9fa"/>
      <stop offset="0.715" stop-color="#fff"/>
    </radialGradient>
  </defs>
  <g id="Grupo_60678" data-name="Grupo 60678" transform="translate(-285 -16177)">
    <g id="Grupo_60187" data-name="Grupo 60187" transform="translate(285 16177)">
      <g id="Grupo_42274" data-name="Grupo 42274">
        <g id="Grupo_18423" data-name="Grupo 18423">
          <g id="Grupo_18421" data-name="Grupo 18421">
            <g id="Grupo_18420" data-name="Grupo 18420">
              <g id="Grupo_18419" data-name="Grupo 18419">
                <path id="Trazado_40936" data-name="Trazado 40936" d="M286.55,2191.684a45.964,45.964,0,1,1-45.963-45.962A45.963,45.963,0,0,1,286.55,2191.684Z" transform="translate(-194.623 -2145.721)" fill="#fff"/>
              </g>
            </g>
          </g>
          <path id="Trazado_40937" data-name="Trazado 40937" d="M286.23,2191.334a45.963,45.963,0,1,0-45.963,45.965A45.782,45.782,0,0,0,286.23,2191.334Z" transform="translate(-194.303 -2145.372)" fill="url(#radial-gradient)"/>
          <path id="Trazado_40938" data-name="Trazado 40938" d="M272.56,2188.562a35.084,35.084,0,1,0-35.084,35.084A34.953,34.953,0,0,0,272.56,2188.562Z" transform="translate(-191.373 -2142.446)" fill="none" stroke="#7d6eb2" stroke-miterlimit="10" stroke-width="4"/>
          <g id="Grupo_18422" data-name="Grupo 18422" transform="translate(8.143 25.805)">
            <path id="Trazado_40939" data-name="Trazado 40939" d="M279.682,2164.488a45.969,45.969,0,0,1-79.137,45.773,45.823,45.823,0,0,0,79.137-45.773Z" transform="translate(-200.545 -2164.488)" fill="#eceef0"/>
          </g>
        </g>
      </g>
    </g>
    <g id="Grupo_60676" data-name="Grupo 60676" transform="translate(-3484.695 15420.674)">
      <path id="Trazado_132010" data-name="Trazado 132010" d="M3953.611,787.432a.835.835,0,0,0-.079.144A.835.835,0,0,1,3953.611,787.432Z" transform="translate(-144.889 -4.302)" fill="none"/>
      <path id="Trazado_132011" data-name="Trazado 132011" d="M3953.021,789.838a.784.784,0,0,0-.023.078A.789.789,0,0,1,3953.021,789.838Z" transform="translate(-144.398 -6.512)" fill="none"/>
      <path id="Trazado_132012" data-name="Trazado 132012" d="M3908.287,787.151a.908.908,0,0,1,.143-.276A.908.908,0,0,0,3908.287,787.151Z" transform="translate(-103.326 -3.79)" fill="none"/>
      <path id="Trazado_132013" data-name="Trazado 132013" d="M3882.711,790.122a.894.894,0,0,1,.035.209h0A.894.894,0,0,0,3882.711,790.122Z" transform="translate(-79.831 -6.773)" fill="none"/>
      <path id="Trazado_132014" data-name="Trazado 132014" d="M3795.94,822.576a2.6,2.6,0,0,0,2.548,1.84q5.532.007,11.065,0h25.017a2.648,2.648,0,0,0,2.9-2.906q0-17.96,0-35.919a2.669,2.669,0,0,0-1.792-2.713c-.131-.045-.3.028-.4-.131h-26.125a1.4,1.4,0,0,0-.432.381.838.838,0,0,0-.079.144c-.008.017-.014.034-.021.052a.725.725,0,0,0-.023.078.881.881,0,0,0-.024.157.956.956,0,0,0,.4.692.773.773,0,0,0,.154.064,1.227,1.227,0,0,0,.188.039,2.673,2.673,0,0,0,.356.02h24.818c1.036,0,1.346.314,1.346,1.364,0,1.7-.013,3.391.01,5.085.006.389-.087.49-.484.49q-14.138-.019-28.277-.01c-3.051,0-6.1-.01-9.154.012-.429,0-.5-.125-.5-.518.021-1.736.008-3.472.01-5.208,0-.852.362-1.214,1.208-1.215,1.1,0,2.2,0,3.3,0a.84.84,0,0,0,.965-.818.906.906,0,0,0-.034-.209.829.829,0,0,0-.234-.373,1.478,1.478,0,0,0-.328-.227h-4.476c-.04.132-.173.111-.263.145a2.616,2.616,0,0,0-1.641,1.7c-.031.091,0,.225-.131.271V822.3C3795.938,822.35,3795.908,822.484,3795.94,822.576Zm1.933-29.654q9.378.021,18.757.01t18.757-.009c.38,0,.458.106.458.468q-.016,14.038-.009,28.075c0,.991-.328,1.324-1.3,1.324h-35.806c-.948,0-1.283-.339-1.283-1.3q0-14.058-.008-28.116C3797.437,793.026,3797.5,792.922,3797.873,792.923Z" transform="translate(0)" fill="#3a277b"/>
      <path id="Trazado_132015" data-name="Trazado 132015" d="M3907.929,783.085a.926.926,0,0,0-.143.276.941.941,0,0,0-.044.2,1.364,1.364,0,0,0,.266.565.765.765,0,0,0,.106.1.678.678,0,0,0,.12.074.7.7,0,0,0,.134.048.874.874,0,0,0,.229.023q.647-.015.8-.814a.964.964,0,0,0-.591-.81h-.488A1.423,1.423,0,0,0,3907.929,783.085Z" transform="translate(-102.825)" fill="#3a277b"/>
      <path id="Trazado_132016" data-name="Trazado 132016" d="M3880.067,785.906a.831.831,0,0,0-.234-.373A.831.831,0,0,1,3880.067,785.906Z" transform="translate(-77.188 -2.557)" fill="#fcfcfc"/>
      <path id="Trazado_132017" data-name="Trazado 132017" d="M3907.786,790.264a.942.942,0,0,0-.044.2h0A.942.942,0,0,1,3907.786,790.264Z" transform="translate(-102.825 -6.903)" fill="#fcfcfc"/>
      <path id="Trazado_132018" data-name="Trazado 132018" d="M3953.3,789.2c-.007.017-.014.034-.021.052C3953.289,789.232,3953.3,789.215,3953.3,789.2Z" transform="translate(-144.66 -5.924)" fill="#fcfcfc"/>
      <path id="Trazado_132019" data-name="Trazado 132019" d="M3952.7,790.951a.882.882,0,0,1,.024-.158.928.928,0,0,0-.025.158Z" transform="translate(-144.122 -7.389)" fill="#fcfcfc"/>
      <path id="Trazado_132020" data-name="Trazado 132020" d="M3817.132,937.623h35.806c.975,0,1.3-.334,1.3-1.324q0-14.038.008-28.075c0-.362-.077-.469-.458-.468q-9.379.02-18.757.009t-18.757-.01c-.372,0-.436.1-.436.45q.015,14.058.008,28.116C3815.849,937.283,3816.183,937.623,3817.132,937.623Zm4.71-2.123a3.386,3.386,0,1,1,3.37-3.4A3.4,3.4,0,0,1,3821.842,935.5Zm8.8,0a3.386,3.386,0,1,1-.012-6.771,3.386,3.386,0,1,1,.012,6.771Zm17.62,0a3.386,3.386,0,1,1,3.378-3.4A3.392,3.392,0,0,1,3848.266,935.5Zm-6.369-25.388q2.195,0,4.39,0,2.175,0,4.349,0c.592,0,.966.309.975.8.009.5-.374.829-.988.829q-4.369,0-8.739,0c-.59,0-.965-.314-.974-.8C3840.9,910.428,3841.276,910.113,3841.9,910.112Zm-.194,4.505a3.208,3.208,0,0,1,.325-.006h8.413c.122,0,.244-.006.365,0a.822.822,0,0,1,.8.849.8.8,0,0,1-.833.769c-.8.013-1.6,0-2.4,0h-2.113c-1.5,0-3.008.006-4.511,0a.793.793,0,0,1-.844-.8A.827.827,0,0,1,3841.7,914.618Zm-.607,4.812a.873.873,0,0,1,.761-.3q1.107,0,2.215,0h6.564c.6,0,.969.3.977.792s-.375.832-.989.833q-4.369,0-8.738,0a.885.885,0,0,1-.9-.5A.76.76,0,0,1,3841.1,919.429Zm-.164,4.829c.106-.413.43-.625.967-.626h8.169c.244,0,.489-.01.732,0a.816.816,0,0,1,.811.8.8.8,0,0,1-.826.819c-1.5.01-3.008,0-4.511,0v0c-1.49,0-2.981.005-4.471,0A.817.817,0,0,1,3840.932,924.258Zm1.91,7.855a3.391,3.391,0,1,1-3.39-3.384A3.413,3.413,0,0,1,3842.842,932.113Zm-23.34-22h17.737c.778,0,1.052.273,1.052,1.051q0,6.651,0,13.3c0,.752-.283,1.041-1.025,1.041q-8.909,0-17.818,0c-.724,0-1.005-.285-1.005-1.013q0-6.672,0-13.343C3818.443,910.377,3818.715,910.112,3819.5,910.112Z" transform="translate(-18.403 -114.832)" fill="#fcfcfc"/>
      <path id="Trazado_132022" data-name="Trazado 132022" d="M3959.514,802.021a1.227,1.227,0,0,0,.188.039A1.227,1.227,0,0,1,3959.514,802.021Z" transform="translate(-150.384 -17.704)" fill="#e17b92"/>
      <path id="Trazado_132023" data-name="Trazado 132023" d="M3952.7,792.729a.954.954,0,0,0,.4.692.953.953,0,0,1-.4-.692Z" transform="translate(-144.122 -9.168)" fill="#e17b92"/>
      <path id="Trazado_132024" data-name="Trazado 132024" d="M3957.627,801.234a.754.754,0,0,0,.154.064A.754.754,0,0,1,3957.627,801.234Z" transform="translate(-148.65 -16.981)" fill="#e17b92"/>
      <path id="Trazado_132025" data-name="Trazado 132025" d="M3913.795,801.827a.7.7,0,0,0,.134.048A.7.7,0,0,1,3913.795,801.827Z" transform="translate(-108.385 -17.525)" fill="#e17b92"/>
      <path id="Trazado_132026" data-name="Trazado 132026" d="M3911.124,799.784a.718.718,0,0,1-.106-.1A.718.718,0,0,0,3911.124,799.784Z" transform="translate(-105.834 -15.556)" fill="#e17b92"/>
      <path id="Trazado_132027" data-name="Trazado 132027" d="M3907.742,792.739a1.364,1.364,0,0,0,.266.565,1.364,1.364,0,0,1-.266-.565Z" transform="translate(-102.825 -9.177)" fill="#e17b92"/>
      <path id="Trazado_132028" data-name="Trazado 132028" d="M3885.138,792.689h0l-2,0h0Z" transform="translate(-80.222 -9.127)" fill="#e17b92"/>
      <path id="Trazado_132029" data-name="Trazado 132029" d="M3907.742,792.739Z" transform="translate(-102.826 -9.177)" fill="#e17b92"/>
      <path id="Trazado_132030" data-name="Trazado 132030" d="M3848.809,952.1q8.91,0,17.818,0c.742,0,1.024-.289,1.024-1.041q0-6.651,0-13.3c0-.778-.274-1.051-1.052-1.051h-17.736c-.788,0-1.06.265-1.06,1.038q0,6.672,0,13.343C3847.8,951.819,3848.085,952.1,3848.809,952.1Zm10.222-1.618c-2.9-.009-5.8-.005-8.7-.006-.051,0-.1-.012-.224-.027l4.624-7.283,1.7,2.683q1.371,2.159,2.744,4.317C3859.308,950.367,3859.376,950.488,3859.032,950.487Zm2.466,0a.341.341,0,0,1-.324-.188c-.424-.677-.854-1.349-1.281-2.023-.058-.091-.119-.178-.044-.3.645-1.012,1.287-2.025,1.962-3.088l3.548,5.591C3864.013,950.482,3862.755,950.48,3861.5,950.485Zm-11.7-12.153q7.914.016,15.828,0c.31,0,.4.066.4.393-.014,3.106-.009,6.212-.009,9.318v.331c-.169-.08-.208-.217-.276-.324q-1.562-2.449-3.116-4.9c-.5-.795-1.134-.8-1.634-.016q-1.047,1.645-2.091,3.291c-.022.034-.046.067-.087.128-.094-.144-.183-.275-.267-.408l-2.984-4.7c-.522-.823-1.14-.83-1.656-.018l-4.225,6.652-.253.4v-.492c0-3.092,0-6.185-.008-9.277C3849.424,938.406,3849.494,938.332,3849.8,938.333Z" transform="translate(-47.765 -141.431)" fill="#3a277b"/>
      <path id="Trazado_132031" data-name="Trazado 132031" d="M4064.283,1168.844a3.391,3.391,0,1,0,3.392-3.379A3.405,3.405,0,0,0,4064.283,1168.844Zm3.4-1.742a1.748,1.748,0,0,1,1.744,1.727,1.776,1.776,0,0,1-1.75,1.774,1.754,1.754,0,0,1-1.754-1.759A1.728,1.728,0,0,1,4067.685,1167.1Z" transform="translate(-246.626 -351.569)" fill="#3a277b"/>
      <path id="Trazado_132032" data-name="Trazado 132032" d="M3851.206,1165.446a3.386,3.386,0,1,0,3.391,3.373A3.388,3.388,0,0,0,3851.206,1165.446Zm-.012,5.14a1.77,1.77,0,0,1-1.732-1.748,1.75,1.75,0,1,1,1.732,1.748Z" transform="translate(-47.789 -351.551)" fill="#3a277b"/>
      <path id="Trazado_132033" data-name="Trazado 132033" d="M3959.386,1165.466a3.386,3.386,0,1,0,3.392,3.375A3.4,3.4,0,0,0,3959.386,1165.466Zm-.009,5.138a1.775,1.775,0,0,1-1.74-1.783,1.747,1.747,0,0,1,1.792-1.718,1.728,1.728,0,0,1,1.709,1.791A1.75,1.75,0,0,1,3959.376,1170.6Z" transform="translate(-147.156 -351.569)" fill="#3a277b"/>
      <path id="Trazado_132034" data-name="Trazado 132034" d="M4175.967,1165.456a3.386,3.386,0,1,0,3.4,3.375A3.372,3.372,0,0,0,4175.967,1165.456Zm.006,5.139a1.748,1.748,0,0,1-1.744-1.769,1.727,1.727,0,0,1,1.768-1.734,1.746,1.746,0,0,1,1.732,1.738A1.77,1.77,0,0,1,4175.974,1170.595Z" transform="translate(-346.122 -351.56)" fill="#3a277b"/>
      <path id="Trazado_132035" data-name="Trazado 132035" d="M4124.717,993.608c1.5.009,3.008,0,4.511,0h2.113c.8,0,1.6.008,2.4,0a.8.8,0,0,0,.833-.769.822.822,0,0,0-.8-.849c-.121-.011-.243,0-.365,0h-8.413a3.24,3.24,0,0,0-.325.006.827.827,0,0,0-.793.82A.793.793,0,0,0,4124.717,993.608Z" transform="translate(-301.366 -192.205)" fill="#3a277b"/>
      <path id="Trazado_132036" data-name="Trazado 132036" d="M4124.8,1049.168q4.37,0,8.739,0c.614,0,1-.33.989-.833s-.377-.791-.977-.792h-6.564q-1.107,0-2.215,0a.873.873,0,0,0-.761.3.759.759,0,0,0-.111.837A.885.885,0,0,0,4124.8,1049.168Z" transform="translate(-301.318 -243.239)" fill="#3a277b"/>
      <path id="Trazado_132037" data-name="Trazado 132037" d="M4167.11,1047.558h0Z" transform="translate(-337.053 -243.257)" fill="#010101"/>
      <path id="Trazado_132038" data-name="Trazado 132038" d="M4124.852,938.332q4.37,0,8.738,0c.614,0,1-.327.988-.829-.009-.487-.383-.8-.975-.8q-2.175,0-4.349,0-2.194,0-4.389,0c-.622,0-1,.316-.986.823C4123.887,938.018,4124.261,938.332,4124.852,938.332Z" transform="translate(-301.371 -141.427)" fill="#3a277b"/>
      <path id="Trazado_132039" data-name="Trazado 132039" d="M4124.716,1104.427c1.491.007,2.981,0,4.471,0v0c1.5,0,3.008.006,4.512,0a.8.8,0,0,0,.826-.819.815.815,0,0,0-.81-.8c-.243-.013-.487,0-.731,0q-4.085,0-8.169,0c-.538,0-.862.213-.967.625A.817.817,0,0,0,4124.716,1104.427Z" transform="translate(-301.318 -294.003)" fill="#3a277b"/>
      <path id="Trazado_132040" data-name="Trazado 132040" d="M3857.495,835.363a4.074,4.074,0,0,0-.528.021.8.8,0,0,0-.074,1.57,2.226,2.226,0,0,0,.483.04q5.814,0,11.628,0a2.206,2.206,0,0,0,.483-.041.8.8,0,0,0-.082-1.57,4.142,4.142,0,0,0-.528-.02h-11.384Z" transform="translate(-55.541 -48.331)" fill="#3a277b"/>
      <path id="Trazado_132041" data-name="Trazado 132041" d="M4174.362,837.12a.834.834,0,0,0,.809-.808.807.807,0,0,0-.84-.806.785.785,0,0,0-.777.818A.808.808,0,0,0,4174.362,837.12Z" transform="translate(-347.003 -48.462)" fill="#3a277b"/>
      <path id="Trazado_132042" data-name="Trazado 132042" d="M4120.414,837.116a.837.837,0,0,0,.831-.828.809.809,0,0,0-.82-.787.786.786,0,0,0-.8.8A.813.813,0,0,0,4120.414,837.116Z" transform="translate(-297.463 -48.458)" fill="#3a277b"/>
      <path id="Trazado_132043" data-name="Trazado 132043" d="M4228.294,837.118a.826.826,0,0,0,.8-.812.8.8,0,0,0-.8-.8.787.787,0,0,0-.815.781A.81.81,0,0,0,4228.294,837.118Z" transform="translate(-396.542 -48.461)" fill="#3a277b"/>
      <path id="Trazado_132044" data-name="Trazado 132044" d="M3867.74,966.3v.492l.254-.4,4.224-6.652c.516-.813,1.134-.806,1.656.018l2.984,4.7c.085.133.173.264.267.408.042-.061.066-.094.088-.128q1.045-1.645,2.091-3.291c.5-.785,1.129-.779,1.634.016q1.558,2.451,3.115,4.9c.068.107.107.244.276.324v-.331c0-3.106-.005-6.212.009-9.318,0-.327-.093-.394-.4-.393q-7.914.014-15.828,0c-.305,0-.375.073-.375.376C3867.745,960.111,3867.74,963.2,3867.74,966.3Z" transform="translate(-66.072 -159.741)" fill="#fcfcfc"/>
    </g>
  </g>
</svg>
