<svg xmlns="http://www.w3.org/2000/svg" width="94.896" height="94.896" viewBox="0 0 94.896 94.896">
  <g id="Grupo_62204" data-name="Grupo 62204" transform="translate(-1173 -1955.044)">
    <path id="Trazado_131184" data-name="Trazado 131184" d="M47.448,0A47.448,47.448,0,1,1,0,47.448,47.448,47.448,0,0,1,47.448,0Z" transform="translate(1173 1955.044)" fill="#26aab7"/>
    <g id="Grupo_60503" data-name="Grupo 60503" transform="translate(136.469 1931.455)">
      <path id="Trazado_131281" data-name="Trazado 131281" d="M1227.971,84.761c0,.492,0,.983,0,1.474.01,1.087.726,1.529,1.708,1.045,1.972-.973,3.934-1.964,5.9-2.941a1.154,1.154,0,0,0,.775-1.037,1.134,1.134,0,0,0-.757-1.047c-1.989-.988-3.97-1.991-5.963-2.97-.937-.46-1.656,0-1.667,1.053-.005.491-.006.983-.005,1.474s0,.983,0,1.474S1227.972,84.27,1227.971,84.761Zm2.132-2.9,2.858,1.422-2.858,1.446Z" transform="translate(-152.912 -34.833)" fill="#fff"/>
      <path id="Trazado_131282" data-name="Trazado 131282" d="M1088.733,310.1a8.079,8.079,0,0,0-1.441,0c-.608.078-.7-.166-.693-.714.027-3.127.015-6.255.011-9.382,0-.745-.317-1.159-.909-1.229-.711-.084-1.186.387-1.187,1.21-.005,3.171-.015,6.342.011,9.513,0,.5-.122.6-.607.6q-13.056-.024-26.112,0c-.489,0-.606-.112-.6-.6q.028-9.907,0-19.814c0-.485.105-.613.6-.607,2.646.028,5.292.009,7.938.017a1.093,1.093,0,0,0,1.188-.723c.258-.745-.274-1.377-1.166-1.378q-4.593-.009-9.185,0c-1.155,0-1.463.313-1.463,1.483q0,9.284,0,18.567c0,.875-.017,1.75.009,2.624.01.353-.1.447-.44.43-.545-.026-1.094-.022-1.64,0a1.029,1.029,0,0,0-1.073,1.076c-.021.568-.006,1.137-.005,1.706a5.265,5.265,0,0,0,5.619,5.611q6.626,0,13.253,0,5.118,0,10.235,0,1.706,0,3.412-.007a5.2,5.2,0,0,0,5.18-4.317,14.479,14.479,0,0,0,.074-3.14A.95.95,0,0,0,1088.733,310.1Zm-4.631,6.292h-.393c-.393,0-.867.131-1.159-.042-.339-.2-.085-.715-.14-1.089a1.049,1.049,0,0,0-2.093.02c-.044.36.175.867-.105,1.046s-.758.064-1.148.064c-5.683,0-11.366,0-17.048.012-.47,0-.694-.081-.606-.593a1.737,1.737,0,0,0-.008-.588,1.014,1.014,0,0,0-1.022-.922,1.034,1.034,0,0,0-1.058.956c-.047.363.168.89-.09,1.051-.3.188-.8.083-1.206.081a7.053,7.053,0,0,1-1.371-.057c-1.681-.343-2.79-1.7-2.595-3.885.029-.329.233-.25.41-.251.787-.005,1.574,0,2.36,0h14.032c5.377,0,10.754.008,16.13-.012.519,0,.7.081.688.654C1087.641,315.139,1086.415,316.388,1084.1,316.389Z" transform="translate(0 -215.432)" fill="#fff"/>
      <path id="Trazado_131283" data-name="Trazado 131283" d="M1138.51,224.144c-.6-1.039-1.187-2.086-1.807-3.112a1.053,1.053,0,0,0-1.83-.121,1.144,1.144,0,0,0,.079,1.29c1.424,2.452,2.826,4.917,4.266,7.36.241.408.134.506-.247.647-2.208.813-4.42,1.619-6.608,2.483-4.832,1.908-9.9,3.269-14.306,6.175a2.014,2.014,0,0,1-3.017-.809q-.983-1.662-1.932-3.343a2.078,2.078,0,0,1,.779-2.99c1.029-.615,2.083-1.191,3.108-1.813.339-.206.486-.177.685.185.715,1.3,1.471,2.576,2.216,3.859.431.742,1.031.972,1.606.63.559-.333.648-.931.23-1.662-.758-1.325-1.505-2.658-2.3-3.962-.237-.389-.168-.566.162-.836q6.085-4.987,12.136-10.016c.489-.407.7-.462,1.009.158a1.009,1.009,0,0,0,1.487.472,1.077,1.077,0,0,0,.3-1.55c-.263-.478-.545-.945-.821-1.415-.561-.955-1.15-1.054-2.014-.342-2.057,1.7-4.1,3.415-6.175,5.085-4.111,3.3-7.925,7-12.706,9.413a3.92,3.92,0,0,0-2.029,4.321c.048.3.014.5-.28.632a5.894,5.894,0,0,0-.573.314,3.153,3.153,0,0,0-1.3,4.334,3.115,3.115,0,0,0,4.365,1.15c.66-.378,1.188-.638,1.789.049a1.737,1.737,0,0,0,.691.356,4.033,4.033,0,0,0,3.812-.44c.567-.371.8-.259,1.086.307.483.952,1.048,1.862,1.586,2.786a3.152,3.152,0,1,0,5.45-3.143c-.588-1.041-1.186-2.077-1.792-3.138.175-.073.313-.135.454-.188q7.495-2.817,14.99-5.633c1.01-.38,1.216-.945.682-1.878Q1140.135,226.946,1138.51,224.144Zm-25.863,14.246a1.818,1.818,0,0,1-1.164.63,1.064,1.064,0,0,1-1.091-.608.977.977,0,0,1,.161-1.1c.014-.017.027-.034.042-.05.727-.76,1.134-.716,1.65.178a.377.377,0,0,1,.03.058C1112.393,237.814,1112.864,238.151,1112.647,238.39Zm13.167,3.855a1.031,1.031,0,0,1-.672,1.077.911.911,0,0,1-1.166-.321c-.722-1.163-1.39-2.361-2.082-3.543-.081-.139-.068-.242.071-.325l.225-.133c1.362-.822,1.362-.822,2.165.556.405.7.809,1.392,1.218,2.085A1.274,1.274,0,0,1,1125.814,242.245Z" transform="translate(-48.881 -152.86)" fill="#fff"/>
      <path id="Trazado_131284" data-name="Trazado 131284" d="M1388.981,53.24a1.046,1.046,0,0,0,1.05-1.1c.018-.59,0-1.181.006-1.771.006-.951.361-1.319,1.3-1.32q6.035,0,12.07,0c.977,0,1.329.361,1.33,1.354q0,6,0,12c0,.981-.36,1.338-1.347,1.338q-6,0-12,0c-.987,0-1.344-.356-1.345-1.339,0-1.9,0-3.8,0-5.707,0-.874-.393-1.363-1.07-1.349-.656.013-1.027.485-1.028,1.324q0,2.919,0,5.838a3.147,3.147,0,0,0,3.326,3.332q6.1.008,12.2,0a3.152,3.152,0,0,0,3.369-3.355c.005-2.034,0-4.067,0-6.1,0-2.1.014-4.2-.005-6.3a3.1,3.1,0,0,0-3.051-3.134q-6.4-.037-12.792,0a3.106,3.106,0,0,0-3.043,3.008c-.025.721-.019,1.443,0,2.165A1.043,1.043,0,0,0,1388.981,53.24Z" transform="translate(-291.876 -6.883)" fill="#fff"/>
      <path id="Trazado_131285" data-name="Trazado 131285" d="M1406.878,308.658a1.044,1.044,0,1,0-2.087.006c-.021.612,0,1.224-.007,1.837-.008.9-.378,1.279-1.273,1.28q-6.068.006-12.136,0c-.9,0-1.286-.374-1.287-1.264q-.007-6.068,0-12.136c0-.936.369-1.3,1.32-1.3q6.035,0,12.07,0c.938,0,1.3.37,1.306,1.312,0,1.924,0,3.849,0,5.773,0,.83.387,1.306,1.043,1.31s1.053-.474,1.054-1.3c0-1.968.008-3.936,0-5.9a3.139,3.139,0,0,0-3.3-3.29q-6.133-.009-12.267,0a3.145,3.145,0,0,0-3.328,3.329q-.008,6.1,0,12.2a3.154,3.154,0,0,0,3.358,3.366c2.034,0,4.067,0,6.1,0,2.1,0,4.2.014,6.3,0a3.123,3.123,0,0,0,3.128-2.925C1406.913,310.19,1406.9,309.423,1406.878,308.658Z" transform="translate(-291.925 -222.375)" fill="#fff"/>
      <path id="Trazado_131286" data-name="Trazado 131286" d="M1053.331,137.891q6,0,12,0c1.019,0,1.364-.352,1.364-1.386q0-4.033,0-8.065,0-4.065,0-8.131c0-.944-.367-1.314-1.3-1.315q-6.033,0-12.065,0c-.978,0-1.33.359-1.33,1.352q0,8.1,0,16.2C1052,137.532,1052.351,137.89,1053.331,137.891Zm.766-9.448c0-2.275.012-4.549-.01-6.823,0-.427.107-.539.536-.537q4.724.029,9.448,0c.428,0,.537.108.536.536q-.024,6.823,0,13.647c0,.427-.107.539-.535.537q-4.724-.029-9.448,0c-.428,0-.541-.108-.536-.536C1054.108,132.992,1054.1,130.717,1054.1,128.443Z" transform="translate(-0.032 -69.483)" fill="#fff"/>
      <path id="Trazado_131287" data-name="Trazado 131287" d="M1189.307,57.909A9.448,9.448,0,1,0,1180,48.44,9.463,9.463,0,0,0,1189.307,57.909Zm.125-16.8a7.346,7.346,0,1,1-7.334,7.41A7.355,7.355,0,0,1,1189.432,41.112Z" transform="translate(-111.234)" fill="#fff"/>
      <path id="Trazado_131288" data-name="Trazado 131288" d="M1428,339.179a4.2,4.2,0,1,0,4.234-4.182A4.2,4.2,0,0,0,1428,339.179Zm6.3-.009a2.1,2.1,0,1,1-2.106-2.07A2.106,2.106,0,0,1,1434.3,339.17Z" transform="translate(-326.692 -257.139)" fill="#fff"/>
      <path id="Trazado_131289" data-name="Trazado 131289" d="M1433.281,81.047c.676-.03,1.354.006,2.03-.012a1.047,1.047,0,1,0,0-2.092q-1.048-.027-2.1,0a3.15,3.15,0,0,0-3.095,3.094c-.028,1.019-.028,1.019-1.061,1.1a1.049,1.049,0,0,0-1.036,1.05,1.069,1.069,0,0,0,.974,1.048c.371.055.882-.209,1.081.145.168.3.038.767.04,1.16,0,.153,0,.306,0,.459,0,.415-.007.83,0,1.245a1.068,1.068,0,0,0,1.03,1.189c.639.012,1.06-.458,1.068-1.217.009-.83.027-1.661-.009-2.489-.018-.412.105-.506.505-.5,1.124.013,1.621-.342,1.6-1.068-.019-.7-.489-1-1.59-1.026-.164,0-.368.089-.488-.086A1.439,1.439,0,0,1,1433.281,81.047Z" transform="translate(-326.709 -34.678)" fill="#fff"/>
      <path id="Trazado_131290" data-name="Trazado 131290" d="M1378.577,255.744a1.1,1.1,0,0,0-1.442-.766q-2.532.5-5.061,1.022a1.076,1.076,0,0,0-.947,1.138c.059.587.53.966,1.4.959,1.556-.315,3.307-.663,5.056-1.026C1378.359,256.908,1378.727,256.4,1378.577,255.744Z" transform="translate(-277.275 -187.589)" fill="#fff"/>
      <path id="Trazado_131291" data-name="Trazado 131291" d="M1323.924,172.268a.98.98,0,0,0,.064.224,1.077,1.077,0,0,0,.951.66.978.978,0,0,0,.734-.27.875.875,0,0,0,.076-.088c1.1-1.441,2.193-2.881,3.254-4.347a.97.97,0,0,0-.275-1.388.939.939,0,0,0-1.359.134c-1.131,1.441-2.236,2.9-3.292,4.4a.931.931,0,0,0-.126.252.869.869,0,0,0-.027.424Z" transform="translate(-236.26 -111.045)" fill="#fff"/>
      <path id="Trazado_131292" data-name="Trazado 131292" d="M1348.177,211.807a1.039,1.039,0,0,0,1.561.148c1.352-1,2.691-2.01,4.034-3.019a1.138,1.138,0,0,0,.495-.91,1.038,1.038,0,0,0-.586-.92,1.024,1.024,0,0,0-1.161.142c-1.344,1.006-2.692,2.009-4.029,3.024A1.044,1.044,0,0,0,1348.177,211.807Z" transform="translate(-257.154 -145.927)" fill="#fff"/>
      <path id="Trazado_131293" data-name="Trazado 131293" d="M1085.205,185.057c.632.011,1.265,0,1.9,0,.676,0,1.352.008,2.028,0a1.063,1.063,0,0,0,1.184-1.033,1.048,1.048,0,0,0-1.152-1.062q-2-.018-3.991,0a1.047,1.047,0,0,0-1.15,1.063A1.062,1.062,0,0,0,1085.205,185.057Z" transform="translate(-27.855 -125.049)" fill="#fff"/>
      <path id="Trazado_131294" data-name="Trazado 131294" d="M1085.184,217.062q.245,0,.491.006c.491,0,.981,0,1.472,0,.654,0,1.309.007,1.963,0,.752-.011,1.223-.439,1.206-1.077a1.062,1.062,0,0,0-1.195-1.02q-1.963-.014-3.926,0a1.054,1.054,0,1,0-.011,2.1Z" transform="translate(-27.856 -152.855)" fill="#fff"/>
      <path id="Trazado_131295" data-name="Trazado 131295" d="M1101.071,153.015c.087.005.174.008.261.009.261,0,.523-.005.785-.005s.523.009.785.005c.087,0,.174,0,.261-.009a1.045,1.045,0,0,0,1.054-1.028,1.024,1.024,0,0,0-1.017-1.059c-.718-.028-1.438-.028-2.156,0a1.023,1.023,0,0,0-1.021,1.055A1.041,1.041,0,0,0,1101.071,153.015Z" transform="translate(-41.755 -97.209)" fill="#fff"/>
    </g>
  </g>
</svg>
