<svg xmlns="http://www.w3.org/2000/svg" xmlns:xlink="http://www.w3.org/1999/xlink" width="78.501" height="67.149" viewBox="0 0 78.501 67.149">
  <defs>
    <clipPath id="clip-path">
      <rect id="Rectángulo_401558" data-name="Rectángulo 401558" width="58" height="58" transform="translate(421 2294)" fill="#fff" stroke="#707070" stroke-width="1"/>
    </clipPath>
  </defs>
  <g id="Grupo_1099945" data-name="Grupo 1099945" transform="translate(-410 -2293.675)">
    <path id="_12068" data-name="12068" d="M72.033,71.913c-8.038-1.11-16.53-.839-23.844,2.675C38.045,79.46,31.382,90.507,31.127,101.757s5.606,22.305,14.66,28.988,21,9.051,32.068,7.045c11.165-2.023,21.645-8.583,27.469-18.322,3.735-6.245,5.48-13.956,3.417-20.934a28.6,28.6,0,0,0-6.787-11.156A50.145,50.145,0,0,0,72.033,71.913Z" transform="translate(378.881 2222.343)" fill="#26aab7"/>
    <g id="Enmascarar_grupo_1098729" data-name="Enmascarar grupo 1098729" clip-path="url(#clip-path)">
      <g id="viral" transform="translate(421 2294)">
        <g id="Grupo_1099967" data-name="Grupo 1099967">
          <circle id="Elipse_11581" data-name="Elipse 11581" cx="18.309" cy="18.309" r="18.309" transform="translate(10.691 10.691)" fill="#fce25c"/>
          <path id="Trazado_874266" data-name="Trazado 874266" d="M40.743,14.955A18.307,18.307,0,0,1,14.955,40.743,18.307,18.307,0,1,0,40.743,14.955Z" fill="#fbd307"/>
          <circle id="Elipse_11582" data-name="Elipse 11582" cx="5.722" cy="5.722" r="5.722" transform="translate(45.707 0.85)" fill="#7fd061"/>
          <path id="Trazado_874267" data-name="Trazado 874267" d="M54.578,1.8a5.721,5.721,0,0,1-7.926,7.926A5.721,5.721,0,1,0,54.578,1.8Z" fill="#51be26"/>
          <circle id="Elipse_11583" data-name="Elipse 11583" cx="5.722" cy="5.722" r="5.722" transform="translate(0.85 0.85)" fill="#7fd061"/>
          <g id="Grupo_1099966" data-name="Grupo 1099966">
            <circle id="Elipse_11584" data-name="Elipse 11584" cx="2.861" cy="2.861" r="2.861" transform="translate(26.139 0.85)" fill="#b9e4ef"/>
            <circle id="Elipse_11585" data-name="Elipse 11585" cx="2.861" cy="2.861" r="2.861" transform="translate(51.429 26.139)" fill="#b9e4ef"/>
            <circle id="Elipse_11586" data-name="Elipse 11586" cx="2.861" cy="2.861" r="2.861" transform="translate(0.85 26.139)" fill="#b9e4ef"/>
            <circle id="Elipse_11587" data-name="Elipse 11587" cx="2.861" cy="2.861" r="2.861" transform="translate(26.139 51.429)" fill="#b9e4ef"/>
          </g>
          <path id="Trazado_874268" data-name="Trazado 874268" d="M9.721,1.8A5.721,5.721,0,0,1,1.8,9.721,5.721,5.721,0,1,0,9.721,1.8Z" fill="#51be26"/>
          <circle id="Elipse_11588" data-name="Elipse 11588" cx="5.722" cy="5.722" r="5.722" transform="translate(45.707 45.707)" fill="#7fd061"/>
          <path id="Trazado_874269" data-name="Trazado 874269" d="M54.578,46.653a5.721,5.721,0,0,1-7.926,7.926,5.721,5.721,0,1,0,7.926-7.926Z" fill="#51be26"/>
          <circle id="Elipse_11589" data-name="Elipse 11589" cx="5.722" cy="5.722" r="5.722" transform="translate(0.85 45.707)" fill="#7fd061"/>
          <path id="Trazado_874270" data-name="Trazado 874270" d="M9.721,46.653A5.721,5.721,0,0,1,1.8,54.578a5.721,5.721,0,1,0,7.926-7.926Z" fill="#51be26"/>
        </g>
        <g id="Grupo_1099969" data-name="Grupo 1099969">
          <path id="Trazado_874271" data-name="Trazado 874271" d="M21.637,25.986,24.122,33.6l14.474.092L33.272,17.375Z" fill="#eff3f5"/>
          <path id="Trazado_874272" data-name="Trazado 874272" d="M18.419,26.5H23v8.012H18.419Z" transform="matrix(0.951, -0.31, 0.31, 0.951, -8.441, 7.927)" fill="#fb636f"/>
          <g id="Grupo_1099968" data-name="Grupo 1099968">
            <path id="Trazado_874273" data-name="Trazado 874273" d="M21.946,34.311l3.264-1.065,3.218,6.172-3.264,1.065Z" fill="#9b9b9b"/>
            <path id="Trazado_874274" data-name="Trazado 874274" d="M34.691,21.726l1.741-.568a1.144,1.144,0,0,1,1.443.733l1.775,5.439a1.144,1.144,0,0,1-.733,1.443l-1.741.568Z" fill="#9b9b9b"/>
          </g>
        </g>
        <g id="Grupo_1099970" data-name="Grupo 1099970">
          <path id="Trazado_874275" data-name="Trazado 874275" d="M48.139,29.85h2.54a3.71,3.71,0,1,0,0-1.7h-2.54a19.085,19.085,0,0,0-5.011-12.077l4.3-4.3a6.581,6.581,0,1,0-1.2-1.2l-4.3,4.3A19.085,19.085,0,0,0,29.85,9.861V7.322a3.71,3.71,0,1,0-1.7,0V9.86a19.1,19.1,0,0,0-5.232.967.85.85,0,0,0,.539,1.611A17.473,17.473,0,1,1,20,14.033a.85.85,0,1,0-.877-1.455,19.218,19.218,0,0,0-3.058,2.289l-4.292-4.292a6.582,6.582,0,1,0-1.2,1.2l4.291,4.291a19.066,19.066,0,0,0-5,12.082H7.321a3.71,3.71,0,1,0,0,1.7h2.54a19.085,19.085,0,0,0,5.011,12.077l-4.3,4.3a6.581,6.581,0,1,0,1.2,1.2l4.3-4.3A19.085,19.085,0,0,0,28.15,48.139v2.539a3.71,3.71,0,1,0,1.7,0V48.139a19.085,19.085,0,0,0,12.077-5.011l4.3,4.3a6.582,6.582,0,1,0,1.2-1.2l-4.3-4.3A19.085,19.085,0,0,0,48.139,29.85ZM51.429,1.7a4.872,4.872,0,1,1-4.872,4.872A4.877,4.877,0,0,1,51.429,1.7ZM26.989,3.71A2.011,2.011,0,1,1,29,5.722,2.013,2.013,0,0,1,26.989,3.71Zm27.3,23.278A2.011,2.011,0,1,1,52.278,29,2.013,2.013,0,0,1,54.29,26.989ZM1.7,6.571a4.872,4.872,0,1,1,4.872,4.872A4.877,4.877,0,0,1,1.7,6.571ZM3.71,31.011A2.011,2.011,0,1,1,5.722,29,2.013,2.013,0,0,1,3.71,31.011ZM6.571,56.3a4.872,4.872,0,1,1,4.872-4.872A4.877,4.877,0,0,1,6.571,56.3Zm24.44-2.011A2.011,2.011,0,1,1,29,52.278,2.013,2.013,0,0,1,31.011,54.29ZM56.3,51.429a4.872,4.872,0,1,1-4.872-4.872A4.877,4.877,0,0,1,56.3,51.429Z"/>
          <path id="Trazado_874276" data-name="Trazado 874276" d="M40.34,28.589a1.98,1.98,0,0,0,.118-1.522l-1.775-5.439a2,2,0,0,0-2.514-1.277l-.933.3-1.156-3.544a.85.85,0,0,0-1.313-.419L21.242,25.221,17.022,26.6a.849.849,0,0,0-.544,1.071l2.485,7.615a.849.849,0,0,0,1.071.544l1.492-.487,2.885,5.534a.849.849,0,0,0,1.017.415l3.264-1.065a.849.849,0,0,0,.49-1.2L26.8,34.468l4.946.031h.006a.85.85,0,0,0,.005-1.7l-7.022-.045-2.1-6.451L32.83,18.759l1.054,3.23h0L36.368,29.6h0l1.054,3.23-1.687-.011a.85.85,0,1,0-.011,1.7l2.866.018H38.6a.849.849,0,0,0,.808-1.113l-1.156-3.544.933-.3a1.981,1.981,0,0,0,1.159-.993ZM27.21,38.922l-1.626.53-2.421-4.645,1.091-.356.628,0Zm-4.16-5.865-2.736.893-1.958-6,2.736-.893Zm15.774-5.238a.294.294,0,0,1-.171.147l-.933.3-1.958-6,.933-.3a.295.295,0,0,1,.372.189l1.775,5.439a.293.293,0,0,1-.017.225Z"/>
        </g>
      </g>
    </g>
  </g>
</svg>
