<svg xmlns="http://www.w3.org/2000/svg" xmlns:xlink="http://www.w3.org/1999/xlink" width="78.501" height="67.149" viewBox="0 0 78.501 67.149">
  <defs>
    <clipPath id="clip-path">
      <rect id="Rectángulo_401558" data-name="Rectángulo 401558" width="58" height="58" transform="translate(421 2294)" fill="#fff" stroke="#707070" stroke-width="1"/>
    </clipPath>
  </defs>
  <g id="Grupo_1099943" data-name="Grupo 1099943" transform="translate(-410 -2293.675)">
    <path id="_12068" data-name="12068" d="M72.033,71.913c-8.038-1.11-16.53-.839-23.844,2.675C38.045,79.46,31.382,90.507,31.127,101.757s5.606,22.305,14.66,28.988,21,9.051,32.068,7.045c11.165-2.023,21.645-8.583,27.469-18.322,3.735-6.245,5.48-13.956,3.417-20.934a28.6,28.6,0,0,0-6.787-11.156A50.145,50.145,0,0,0,72.033,71.913Z" transform="translate(378.881 2222.343)" fill="#26aab7"/>
    <g id="Enmascarar_grupo_1098727" data-name="Enmascarar grupo 1098727" clip-path="url(#clip-path)">
      <g id="publico-objetivo" transform="translate(421 2294)">
        <g id="Grupo_1099953" data-name="Grupo 1099953">
          <g id="Grupo_1099952" data-name="Grupo 1099952">
            <g id="Grupo_1099948" data-name="Grupo 1099948">
              <circle id="Elipse_11578" data-name="Elipse 11578" cx="24.373" cy="24.373" r="24.373" transform="translate(4.627 4.627)" fill="#9dc6fb"/>
            </g>
            <g id="Grupo_1099949" data-name="Grupo 1099949">
              <path id="Trazado_874207" data-name="Trazado 874207" d="M11.249.906H3.738A2.832,2.832,0,0,0,.906,3.738v7.51a1.864,1.864,0,0,0,3.729,0V4.635h6.613a1.865,1.865,0,0,0,0-3.729Z" fill="#f95750"/>
              <path id="Trazado_874208" data-name="Trazado 874208" d="M46.751.906h7.51a2.832,2.832,0,0,1,2.832,2.832v7.51a1.864,1.864,0,1,1-3.729,0V4.635H46.751a1.865,1.865,0,0,1,0-3.729Z" fill="#f95750"/>
              <path id="Trazado_874209" data-name="Trazado 874209" d="M11.249,57.094H3.738A2.832,2.832,0,0,1,.906,54.262v-7.51a1.864,1.864,0,0,1,3.729,0v6.613h6.613a1.865,1.865,0,0,1,0,3.729Z" fill="#f95750"/>
              <path id="Trazado_874210" data-name="Trazado 874210" d="M46.751,57.094h7.51a2.832,2.832,0,0,0,2.832-2.832v-7.51a1.864,1.864,0,1,0-3.729,0v6.613H46.751a1.865,1.865,0,0,0,0,3.729Z" fill="#f95750"/>
            </g>
            <g id="Grupo_1099950" data-name="Grupo 1099950">
              <path id="Trazado_874211" data-name="Trazado 874211" d="M11.249,2.6H5.2a.566.566,0,0,0-.566.566V4.635h6.613a1.863,1.863,0,0,0,1.56-2.884,1.862,1.862,0,0,1-1.56.845Z" fill="#e84642"/>
              <path id="Trazado_874212" data-name="Trazado 874212" d="M2.771,11.074A1.865,1.865,0,0,1,.906,9.21v2.039a1.864,1.864,0,0,0,3.729,0V9.21A1.864,1.864,0,0,1,2.771,11.074Z" fill="#e84642"/>
            </g>
            <g id="Grupo_1099951" data-name="Grupo 1099951">
              <path id="Trazado_874213" data-name="Trazado 874213" d="M53.365,3.163A.566.566,0,0,0,52.8,2.6H46.751a1.862,1.862,0,0,1-1.56-.845,1.863,1.863,0,0,0,1.56,2.884h6.613Z" fill="#e84642"/>
              <path id="Trazado_874214" data-name="Trazado 874214" d="M55.229,11.074A1.864,1.864,0,0,1,53.365,9.21v2.039a1.865,1.865,0,0,0,3.729,0V9.21A1.865,1.865,0,0,1,55.229,11.074Z" fill="#e84642"/>
            </g>
            <path id="Trazado_874215" data-name="Trazado 874215" d="M11.249,55.055H3.738A2.832,2.832,0,0,1,.906,52.223v2.039a2.832,2.832,0,0,0,2.832,2.832h7.51a1.863,1.863,0,0,0,1.56-2.884,1.862,1.862,0,0,1-1.56.845Z" fill="#e84642"/>
            <path id="Trazado_874216" data-name="Trazado 874216" d="M54.262,55.055h-7.51a1.862,1.862,0,0,1-1.56-.845,1.863,1.863,0,0,0,1.56,2.884h7.51a2.832,2.832,0,0,0,2.832-2.832V52.223a2.832,2.832,0,0,1-2.832,2.832Z" fill="#e84642"/>
          </g>
          <path id="Trazado_874217" data-name="Trazado 874217" d="M39.367,23.49c1.516-3.669.441-7.809-1.78-9.443a5.683,5.683,0,0,0-4.021-.973A6.59,6.59,0,0,0,29,11.365c-4.011,0-12.156,2.034-10.606,12.256" fill="#af665a"/>
          <path id="Trazado_874218" data-name="Trazado 874218" d="M29,46.485a17.448,17.448,0,0,0,11.2-4.044,14.681,14.681,0,0,0-7.643-6.927h0a8.021,8.021,0,0,1-7.1,0h0A14.681,14.681,0,0,0,17.8,42.441,17.447,17.447,0,0,0,29,46.485Z" fill="#eef2f5"/>
          <path id="Trazado_874219" data-name="Trazado 874219" d="M29,44.445a17.439,17.439,0,0,1-10.349-3.383c-.292.428-.575.887-.847,1.378a17.519,17.519,0,0,0,22.391,0c-.271-.492-.555-.95-.847-1.378A17.438,17.438,0,0,1,29,44.445Z" fill="#deeaf3"/>
          <path id="Trazado_874220" data-name="Trazado 874220" d="M37.019,23.5v4.826a8.019,8.019,0,0,1-16.038,0V23.5c4.858-.566,10.631-5.176,10.631-5.176S34.432,22.334,37.019,23.5Z" fill="#fdd4bb"/>
          <path id="Trazado_874221" data-name="Trazado 874221" d="M29,34.3a8.019,8.019,0,0,1-8.019-8.019v2.039a8.019,8.019,0,1,0,16.038,0V26.284A8.019,8.019,0,0,1,29,34.3Z" fill="#f7c4a8"/>
          <path id="Trazado_874222" data-name="Trazado 874222" d="M37.019,23.5a2.684,2.684,0,1,1,0,4.819Z" fill="#ebbaa1"/>
          <path id="Trazado_874223" data-name="Trazado 874223" d="M20.981,23.5a2.684,2.684,0,1,0,0,4.819Z" fill="#ebbaa1"/>
          <path id="Trazado_874224" data-name="Trazado 874224" d="M38.2,26.552a2.672,2.672,0,0,1-1.182-.274v2.039a2.684,2.684,0,0,0,3.664-3.429A2.684,2.684,0,0,1,38.2,26.552Z" fill="#e8a990"/>
          <path id="Trazado_874225" data-name="Trazado 874225" d="M17.317,24.888a2.684,2.684,0,0,0,3.664,3.429V26.278a2.684,2.684,0,0,1-3.664-1.39Z" fill="#e8a990"/>
          <path id="Trazado_874226" data-name="Trazado 874226" d="M29,36.342a7.983,7.983,0,0,1-3.551-.829h0l1.776,4.5h3.552l1.776-4.5h0A7.983,7.983,0,0,1,29,36.342Z" fill="#f68acc"/>
          <path id="Trazado_874227" data-name="Trazado 874227" d="M26.087,46.242a17.623,17.623,0,0,0,5.826,0l-1.137-6.227H27.224Z" fill="#ffa6d4"/>
          <path id="Trazado_874228" data-name="Trazado 874228" d="M29,44.445a17.655,17.655,0,0,1-2.551-.186l-.362,1.982a17.623,17.623,0,0,0,5.826,0l-.362-1.982A17.655,17.655,0,0,1,29,44.445Z" fill="#f690d2"/>
        </g>
        <g id="Grupo_1099954" data-name="Grupo 1099954">
          <path id="Trazado_874229" data-name="Trazado 874229" d="M46.87,46.87a25.093,25.093,0,0,0,7.386-17.019h2.552a.851.851,0,1,0,0-1.7H54.256A25.267,25.267,0,0,0,29.851,3.744V1.192a.851.851,0,0,0-1.7,0V3.744a25.267,25.267,0,0,0-24.4,24.405H1.192a.851.851,0,0,0,0,1.7H3.744A25.267,25.267,0,0,0,28.149,54.256v2.552a.851.851,0,1,0,1.7,0V54.256A25.094,25.094,0,0,0,46.87,46.87ZM5.448,29.851H6.478a.851.851,0,0,0,0-1.7H5.448a23.6,23.6,0,0,1,22.7-22.7V6.478a.851.851,0,1,0,1.7,0V5.447a23.6,23.6,0,0,1,22.7,22.7H51.522a.851.851,0,1,0,0,1.7h1.031a23.6,23.6,0,0,1-22.7,22.7V51.522a.851.851,0,1,0-1.7,0v1.031A23.6,23.6,0,0,1,5.448,29.851Z"/>
          <path id="Trazado_874230" data-name="Trazado 874230" d="M2.719,13.933a2.723,2.723,0,0,0,2.72-2.719V5.439h5.775a2.719,2.719,0,1,0,0-5.439H3.689A3.693,3.693,0,0,0,0,3.689v7.525a2.722,2.722,0,0,0,2.719,2.719ZM1.7,3.689A1.989,1.989,0,0,1,3.689,1.7h7.525a1.017,1.017,0,0,1,0,2.034H4.588a.851.851,0,0,0-.851.851v6.626a1.017,1.017,0,1,1-2.034,0V3.689Z"/>
          <path id="Trazado_874231" data-name="Trazado 874231" d="M54.311,0H52.292a.851.851,0,1,0,0,1.7h2.019A1.989,1.989,0,0,1,56.3,3.689v7.525a1.017,1.017,0,0,1-2.034,0V4.588a.851.851,0,0,0-.851-.851H46.786a1.017,1.017,0,0,1,0-2.034h2.1a.851.851,0,0,0,0-1.7h-2.1a2.719,2.719,0,1,0,0,5.439h5.775v5.775a2.719,2.719,0,0,0,5.439,0V3.689A3.693,3.693,0,0,0,54.311,0Z"/>
          <path id="Trazado_874232" data-name="Trazado 874232" d="M11.214,52.561H5.439V46.786a2.719,2.719,0,0,0-5.439,0v7.525A3.693,3.693,0,0,0,3.689,58H5.62a.851.851,0,0,0,0-1.7H3.689A1.989,1.989,0,0,1,1.7,54.311V46.786a1.017,1.017,0,1,1,2.034,0v6.626a.851.851,0,0,0,.851.851h6.626a1.017,1.017,0,0,1,0,2.034H9.025a.851.851,0,0,0,0,1.7h2.188a2.719,2.719,0,0,0,0-5.439Z"/>
          <path id="Trazado_874233" data-name="Trazado 874233" d="M55.28,44.067a2.723,2.723,0,0,0-2.72,2.719v5.775H46.786a2.719,2.719,0,1,0,0,5.439h7.525A3.693,3.693,0,0,0,58,54.311V46.786a2.723,2.723,0,0,0-2.719-2.719ZM56.3,54.311A1.989,1.989,0,0,1,54.311,56.3H46.786a1.017,1.017,0,0,1,0-2.034h6.626a.851.851,0,0,0,.851-.851V46.786a1.017,1.017,0,0,1,2.034,0v7.525Z"/>
          <path id="Trazado_874234" data-name="Trazado 874234" d="M32.559,27.575a.851.851,0,0,0,.851-.851v-1.3a.851.851,0,0,0-1.7,0v1.3A.851.851,0,0,0,32.559,27.575Z"/>
          <path id="Trazado_874235" data-name="Trazado 874235" d="M25.441,27.575a.851.851,0,0,0,.851-.851v-1.3a.851.851,0,1,0-1.7,0v1.3A.851.851,0,0,0,25.441,27.575Z"/>
          <path id="Trazado_874236" data-name="Trazado 874236" d="M26.149,31.011A3,3,0,0,0,29,32.609a3,3,0,0,0,2.851-1.6.851.851,0,1,0-1.549-.7h0a1.34,1.34,0,0,1-1.3.6,1.34,1.34,0,0,1-1.3-.6h0a.851.851,0,1,0-1.549.7Z"/>
          <path id="Trazado_874237" data-name="Trazado 874237" d="M40.762,43.121a.851.851,0,0,0,.2-1.066,16.415,16.415,0,0,0-6.6-6.658,8.887,8.887,0,0,0,3.448-5.979,3.6,3.6,0,0,0,.4.023,3.538,3.538,0,0,0,2.2-6.307,10.309,10.309,0,0,0,.311-5.326,7.432,7.432,0,0,0-2.626-4.476,6.511,6.511,0,0,0-4.248-1.176A7.655,7.655,0,0,0,29,10.479a14.248,14.248,0,0,0-6.713,1.682.851.851,0,0,0,.836,1.483A12.49,12.49,0,0,1,29,12.182a5.739,5.739,0,0,1,3.958,1.449.859.859,0,0,0,.764.251A4.886,4.886,0,0,1,37.1,14.7c2.093,1.538,2.553,5.046,1.759,7.716a3.525,3.525,0,0,0-1.789.133A12.653,12.653,0,0,1,34,19.9a25.652,25.652,0,0,1-1.687-2.092.851.851,0,0,0-1.227-.176c-.055.044-5.475,4.332-10,4.977a3.505,3.505,0,0,0-1.308-.251,3.543,3.543,0,0,0-.692.068,9.272,9.272,0,0,1,1.672-6.807.851.851,0,1,0-1.332-1.061c-1.751,2.2-2.412,5.113-1.968,8.668a3.538,3.538,0,0,0,2.32,6.211,3.6,3.6,0,0,0,.4-.023A8.885,8.885,0,0,0,23.633,35.4a16.415,16.415,0,0,0-6.6,6.658.851.851,0,0,0,.2,1.066,18.4,18.4,0,0,0,23.523,0ZM37.886,24.093a1.838,1.838,0,1,1,0,3.616ZM20.114,27.709a1.838,1.838,0,1,1,0-3.616Zm14.713,9.963a15.114,15.114,0,0,1,4.286,4.587A16.72,16.72,0,0,1,32.6,45.273l-.94-5.149,1.375-3.484A12.417,12.417,0,0,1,34.827,37.672Zm-13.01-9.35V24.217a21.287,21.287,0,0,0,6.736-2.805c1.243-.741,2.262-1.452,2.894-1.915a18.617,18.617,0,0,0,4.736,4.512v4.314a7.183,7.183,0,0,1-14.367,0ZM25.4,45.273a16.721,16.721,0,0,1-6.512-3.014,14.519,14.519,0,0,1,6.078-5.617l1.374,3.482ZM29,37.208a8.869,8.869,0,0,0,2.079-.248L30.2,39.186H27.8l-.878-2.226A8.869,8.869,0,0,0,29,37.208Zm-1.07,3.68H30.07l.852,4.667a16.522,16.522,0,0,1-3.844,0Z"/>
        </g>
      </g>
    </g>
  </g>
</svg>
