<svg xmlns="http://www.w3.org/2000/svg" xmlns:xlink="http://www.w3.org/1999/xlink" width="309.394" height="559.122" viewBox="0 0 309.394 559.122">
  <defs>
    <clipPath id="clip-path">
      <rect id="Rectángulo_401581" data-name="Rectángulo 401581" width="36.284" height="60.927" fill="none"/>
    </clipPath>
    <clipPath id="clip-path-2">
      <rect id="Rectángulo_401582" data-name="Rectángulo 401582" width="31.751" height="60.041" fill="none"/>
    </clipPath>
    <clipPath id="clip-path-3">
      <rect id="Rectángulo_401583" data-name="Rectángulo 401583" width="33.972" height="64.319" fill="none"/>
    </clipPath>
    <clipPath id="clip-path-4">
      <rect id="Rectángulo_401584" data-name="Rectángulo 401584" width="28.296" height="45.559" fill="none"/>
    </clipPath>
    <clipPath id="clip-path-5">
      <rect id="Rectángulo_401585" data-name="Rectángulo 401585" width="23.728" height="43.807" fill="none"/>
    </clipPath>
    <clipPath id="clip-path-6">
      <rect id="Rectángulo_401586" data-name="Rectángulo 401586" width="26.807" height="49.793" fill="none"/>
    </clipPath>
    <clipPath id="clip-path-7">
      <rect id="Rectángulo_401587" data-name="Rectángulo 401587" width="21.567" height="13.697" fill="none"/>
    </clipPath>
    <clipPath id="clip-path-8">
      <rect id="Rectángulo_401588" data-name="Rectángulo 401588" width="24.637" height="16.071" fill="none"/>
    </clipPath>
    <clipPath id="clip-path-9">
      <rect id="Rectángulo_401589" data-name="Rectángulo 401589" width="7.776" height="22.44" fill="none"/>
    </clipPath>
    <clipPath id="clip-path-10">
      <rect id="Rectángulo_401590" data-name="Rectángulo 401590" width="11.528" height="22.876" fill="none"/>
    </clipPath>
  </defs>
  <g id="Grupo_1100546" data-name="Grupo 1100546" transform="translate(-180 -3123.878)">
    <path id="Rectángulo_401560" data-name="Rectángulo 401560" d="M0,0H178A117,117,0,0,1,295,117V366a0,0,0,0,1,0,0H0a0,0,0,0,1,0,0V0A0,0,0,0,1,0,0Z" transform="translate(180 3317)" fill="#7d6eb2"/>
    <g id="Grupo_1100010" data-name="Grupo 1100010" transform="translate(84.009 3162.924)">
      <g id="Grupo_1100013" data-name="Grupo 1100013" transform="translate(95.991 -39.046)">
        <g id="Grupo_1099974" data-name="Grupo 1099974" transform="translate(0 54.906)">
          <g id="Grupo_1100011" data-name="Grupo 1100011">
            <path id="Trazado_874338" data-name="Trazado 874338" d="M326.69,121.212s7.56,8.173,15.191,2.733c6.17-4.4-1.286-10.457-6.975-11.264-6.174-.876-13.2,2.658-8.216,8.531" transform="translate(-95.1 -20.872)" fill="#0053b3"/>
            <path id="Trazado_874343" data-name="Trazado 874343" d="M302.271,38.08v334.5a18.982,18.982,0,0,1-18.984,18.983H116.711a18.979,18.979,0,0,1-18.983-18.983V38.08A18.981,18.981,0,0,1,116.711,19.1H283.287A18.973,18.973,0,0,1,302.271,38.08" transform="translate(-90.782 -19.097)" fill="#193768"/>
            <path id="Trazado_874344" data-name="Trazado 874344" d="M97.593,124.627h-1.38a5.564,5.564,0,0,1-5.564-5.564V86a5.563,5.563,0,0,1,5.564-5.563h1.38Z" transform="translate(-90.648 -20.262)" fill="#011142"/>
            <path id="Trazado_874345" data-name="Trazado 874345" d="M306.232,113h1.128a4.553,4.553,0,0,0,4.553-4.552V81.568a4.552,4.552,0,0,0-4.552-4.552h-1.129Z" transform="translate(-94.743 -20.197)" fill="#011142"/>
            <path id="Trazado_874346" data-name="Trazado 874346" d="M97.593,175.788h-1.38a5.564,5.564,0,0,1-5.564-5.564V137.16a5.563,5.563,0,0,1,5.564-5.563h1.38Z" transform="translate(-90.648 -21.234)" fill="#011142"/>
            <path id="Trazado_874347" data-name="Trazado 874347" d="M293.23,36.945v336.8a8.36,8.36,0,0,1-8.363,8.365H116a8.364,8.364,0,0,1-8.364-8.365V36.945A8.368,8.368,0,0,1,116,28.582H284.867a8.349,8.349,0,0,1,8.363,8.363" transform="translate(-90.971 -19.277)" fill="#fff"/>
            <path id="Trazado_874348" data-name="Trazado 874348" d="M275.983,92.541H122.346a3.179,3.179,0,0,1-3.179-3.179v-.77a3.179,3.179,0,0,1,3.179-3.178H275.983a3.179,3.179,0,0,1,3.179,3.178v.77a3.179,3.179,0,0,1-3.179,3.179" transform="translate(-91.19 -20.357)" fill="#d1e2e8"/>
            <path id="Trazado_874349" data-name="Trazado 874349" d="M275.983,107.88H122.346a3.179,3.179,0,0,1-3.179-3.179v-.77a3.179,3.179,0,0,1,3.179-3.178H275.983a3.179,3.179,0,0,1,3.179,3.178v.77a3.179,3.179,0,0,1-3.179,3.179" transform="translate(-91.19 -20.648)" fill="#d1e2e8"/>
            <path id="Trazado_874350" data-name="Trazado 874350" d="M275.983,123.365H122.346a3.179,3.179,0,0,1-3.179-3.179v-.77a3.179,3.179,0,0,1,3.179-3.178H275.983a3.179,3.179,0,0,1,3.179,3.178v.77a3.179,3.179,0,0,1-3.179,3.179" transform="translate(-91.19 -20.942)" fill="#d1e2e8"/>
            <path id="Trazado_874351" data-name="Trazado 874351" d="M275.983,327.545H122.346a3.179,3.179,0,0,1-3.179-3.179v-.77a3.179,3.179,0,0,1,3.179-3.178H275.983a3.179,3.179,0,0,1,3.179,3.178v.77a3.179,3.179,0,0,1-3.179,3.179" transform="translate(-91.19 -24.821)" fill="#d1e2e8"/>
            <path id="Trazado_874352" data-name="Trazado 874352" d="M275.983,342.956H122.346a3.179,3.179,0,0,1-3.179-3.179v-.77a3.179,3.179,0,0,1,3.179-3.178H275.983a3.179,3.179,0,0,1,3.179,3.178v.77a3.179,3.179,0,0,1-3.179,3.179" transform="translate(-91.19 -25.114)" fill="#d1e2e8"/>
          </g>
        </g>
        <text id="LIVE" transform="translate(48.82 105.837)" fill="#193768" font-size="10" font-family="SegoeUI, Segoe UI"><tspan x="0" y="0">LI</tspan><tspan y="0" letter-spacing="-0.014em">V</tspan><tspan y="0">E</tspan></text>
        <text id="_1_583" data-name="1,583" transform="translate(157.223 105.837)" fill="#193768" font-size="10" font-family="SegoeUI, Segoe UI"><tspan x="0" y="0">1,583</tspan></text>
        <g id="Grupo_1100008" data-name="Grupo 1100008" transform="translate(12.456)">
          <g id="Grupo_1100014" data-name="Grupo 1100014">
            <path id="Trazado_874355" data-name="Trazado 874355" d="M246.634,66.085a2.591,2.591,0,1,1-2.591-2.591,2.59,2.59,0,0,1,2.591,2.591" transform="translate(-105.968 34.966)" fill="#f14149"/>
            <path id="Trazado_874356" data-name="Trazado 874356" d="M248.842,72.759h-9.687a5.012,5.012,0,0,1,4.771-3.077l.073,0,.074,0a5.012,5.012,0,0,1,4.771,3.077" transform="translate(-105.925 34.848)" fill="#f14149"/>
            <path id="Trazado_874357" data-name="Trazado 874357" d="M292.98,37.112V52.8h-185.6V37.112a8.368,8.368,0,0,1,8.364-8.363H284.617a8.346,8.346,0,0,1,8.363,8.363" transform="translate(-103.422 35.626)" fill="#d1e2e8"/>
            <path id="Trazado_874358" data-name="Trazado 874358" d="M263.053,308.545H135.276a16.109,16.109,0,0,1-16.109-16.109v-139.7a16.108,16.108,0,0,1,16.109-16.108H263.053a16.108,16.108,0,0,1,16.109,16.108v139.7a16.109,16.109,0,0,1-16.109,16.109" transform="translate(-103.646 33.577)" fill="#d1e2e8"/>
            <path id="Trazado_874359" data-name="Trazado 874359" d="M153.746,28.5l4.62,4.62a24.671,24.671,0,0,0,17.444,7.225H226.3A24.673,24.673,0,0,0,243.74,33.12l4.582-4.582Z" transform="translate(-104.302 35.631)" fill="#193768"/>
            <path id="Trazado_874360" data-name="Trazado 874360" d="M235.349,34.475H169.762a1.426,1.426,0,0,1-1.422-1.421v-.345a1.426,1.426,0,0,1,1.422-1.421h65.587a1.426,1.426,0,0,1,1.421,1.421v.345a1.426,1.426,0,0,1-1.421,1.421" transform="translate(-104.58 35.578)" fill="#011142"/>
            <rect id="Rectángulo_401578" data-name="Rectángulo 401578" width="191.437" height="36.403" transform="translate(0 383.471)" fill="#193768"/>
            <path id="Trazado_874361" data-name="Trazado 874361" d="M214.084,372.777a13.427,13.427,0,1,1-13.427-13.427,13.427,13.427,0,0,1,13.427,13.427" transform="translate(-104.939 29.346)" fill="#011142"/>
            <path id="Trazado_874363" data-name="Trazado 874363" d="M355.133,296.878c-6.9,1.248-8.933,3.279-10.181,10.181a.788.788,0,0,1-1.551,0c-1.248-6.9-3.279-8.933-10.181-10.181a.788.788,0,0,1,0-1.551c6.9-1.248,8.933-3.279,10.181-10.181a.788.788,0,0,1,1.551,0c1.248,6.9,3.279,8.933,10.181,10.181a.788.788,0,0,1,0,1.551" transform="translate(-107.699 30.768)" fill="#fff"/>
            <path id="Trazado_874364" data-name="Trazado 874364" d="M366.26,319.305c-3.451.624-4.467,1.639-5.09,5.09a.393.393,0,0,1-.775,0c-.625-3.451-1.64-4.467-5.091-5.09a.393.393,0,0,1,0-.775c3.451-.624,4.467-1.639,5.091-5.091a.393.393,0,0,1,.775,0c.624,3.452,1.639,4.467,5.09,5.091a.393.393,0,0,1,0,.775" transform="translate(-108.125 30.224)" fill="#fff"/>
            <path id="Trazado_874366" data-name="Trazado 874366" d="M328.909,104.556a157.533,157.533,0,0,1-17.776,24.525,139.37,139.37,0,0,1-23.024,20.7,11.49,11.49,0,0,1-11.478,1.1l-2.266-.834-52.082-23.976c-5.915-2.943-18.06-11.86-17.815-19.061.059-1.8,1.354-4.777,3.12-7.475,2.58-3.924,9.408-11.458,21.533-2.472,7.671,5.7,46.529,24.349,51.444,26.693.334.157.51.245.51.245l.343.216,1.53-1c.314-.216.628-.422.942-.647a115.422,115.422,0,0,0,11.576-9.025,136.928,136.928,0,0,0,17.884-19.434l.029-.039a9.386,9.386,0,0,1,15.529,10.487" transform="translate(-105.266 34.455)" fill="#c81e37"/>
            <path id="Trazado_874367" data-name="Trazado 874367" d="M285.352,123.19c-2.493,4.454-3.513,11.262-3.513,11.262-.942-5.072-.422-8.27.186-10.075.334.157.51.245.51.245l.343.216,1.53-1c.314-.216.628-.422.943-.647" transform="translate(-106.726 33.832)" fill="#9c1224"/>
            <path id="Trazado_874368" data-name="Trazado 874368" d="M328.552,70.549l.287-.621a6.463,6.463,0,0,0-.287.621" transform="translate(-107.623 34.844)" fill="#f7baa6"/>
            <path id="Trazado_874369" data-name="Trazado 874369" d="M318.932,98.628c3.58,3.007,11.107,3.792,12.7,1.492a12.608,12.608,0,0,1,3.1-3.178,7.309,7.309,0,0,1,1.3-.752,10.392,10.392,0,0,0,2.216-2.072,20.209,20.209,0,0,0,4.589-11.659c.311-4.85-4.524-10.435-8.489-13.824,1.947-3.434,5.508-10.365,3.9-12.509-1.916-2.552-8.216,10.5-9.642,13.533-.185.4-.287.624-.287.624s.011-1.011-.067-2.334c-.164-2.751-.711-6.827-2.55-5.819-2.722,1.493-3.651,14.259-6,17.8a13.319,13.319,0,0,0-1.689,3.432s-.02.062-.057.184a.8.8,0,0,1-.024.083c-.517,1.737-3.176,11.5.995,15" transform="translate(-107.396 35.112)" fill="#f7baa6"/>
            <path id="Trazado_874370" data-name="Trazado 874370" d="M335.087,97.723a9.154,9.154,0,0,0,1.3-.752,7.388,7.388,0,0,0-1.3.752" transform="translate(-107.747 34.33)" fill="#f7baa6"/>
            <path id="Trazado_874371" data-name="Trazado 874371" d="M328.187,78.626a13.41,13.41,0,0,0-4.051,3.555.6.6,0,1,1-.965-.727c.728-.892,2.9-3.373,5.178-4.161Z" transform="translate(-107.518 34.704)" fill="#ff8b81"/>
            <path id="Trazado_874372" data-name="Trazado 874372" d="M329.371,85.22a1.954,1.954,0,0,1-.316-.06,1.852,1.852,0,0,1-1.294-1.882c-.193-3.752,5.4-12.041,5.642-12.391a.63.63,0,1,1,1.043.708c-1.558,2.294-5.568,8.853-5.425,11.617.032.636.292.709.378.734a2.461,2.461,0,0,0,2.126-1.227c.118-.171.331-.541.577-.97,1.021-1.776,2.921-5.081,4.981-6.463a.63.63,0,0,1,.7,1.047c-1.815,1.218-3.62,4.358-4.59,6.045-.282.491-.485.845-.633,1.058a3.79,3.79,0,0,1-3.19,1.783" transform="translate(-107.608 34.831)" fill="#ff8b81"/>
            <path id="Trazado_874373" data-name="Trazado 874373" d="M333.237,89.142q-.1-.01-.191-.029a2.026,2.026,0,0,1-1.516-1.476c-1.05-3.251,4.461-10.961,5.092-11.83a.631.631,0,0,1,1.019.743c-2.241,3.08-5.555,8.709-4.912,10.7.178.55.47.609.566.629a1.4,1.4,0,0,0,1.194-.507,15.245,15.245,0,0,0,1.218-1.887c1.037-1.76,2.329-3.951,4.092-5.135a.63.63,0,1,1,.7,1.047c-1.524,1.024-2.736,3.077-3.708,4.728a15.615,15.615,0,0,1-1.349,2.069,2.7,2.7,0,0,1-2.208.95" transform="translate(-107.677 34.737)" fill="#ff8b81"/>
            <path id="Trazado_874374" data-name="Trazado 874374" d="M337.074,91.068a2.049,2.049,0,0,1-.516-.121,1.8,1.8,0,0,1-1.153-1.421c-.436-2.544,3.46-8.014,3.905-8.629a.63.63,0,0,1,1.021.739c-1.563,2.16-3.945,6.154-3.685,7.677a.536.536,0,0,0,.357.454.914.914,0,0,0,.812-.1,7.828,7.828,0,0,0,1.3-2.005,9.479,9.479,0,0,1,2.563-3.467.631.631,0,0,1,.7,1.047,8.689,8.689,0,0,0-2.154,3.014,8.006,8.006,0,0,1-1.619,2.394,2.143,2.143,0,0,1-1.533.414" transform="translate(-107.753 34.64)" fill="#ff8b81"/>
            <path id="Trazado_874375" data-name="Trazado 874375" d="M324.439,94.1a.563.563,0,0,1-.175-.894,12.979,12.979,0,0,0,3.478-6.95l0-.036a.631.631,0,0,1,.69-.563h0a.632.632,0,0,1,.562.69c-.328,3.226-2.532,6.163-3.9,7.634a.562.562,0,0,1-.65.125l-.011,0" transform="translate(-107.539 34.545)" fill="#ff8b81"/>
            <rect id="Rectángulo_401579" data-name="Rectángulo 401579" width="6.665" height="10.012" transform="matrix(0.58, -0.815, 0.815, 0.58, 232.619, 75.048)" fill="#d1e2e8"/>
            <rect id="Rectángulo_401580" data-name="Rectángulo 401580" width="6.665" height="10.012" transform="matrix(0.58, -0.815, 0.815, 0.58, 259.257, 93.99)" fill="#d1e2e8"/>
            <path id="Trazado_874376" data-name="Trazado 874376" d="M374.807,64.33l-16.643,23.4A21.295,21.295,0,1,1,323.456,63.05l16.64-23.4,8.04,5.714-16.643,23.4a11.349,11.349,0,0,0-2.1,7.122c.013.289.037.581.072.868-1.074,2.17-1.937,4.419-1.859,5.932a1.784,1.784,0,0,0,1.609,1.942,3.354,3.354,0,0,0,2.394-.9,5.532,5.532,0,0,0-.3,3.223,2.033,2.033,0,0,0,1.516,1.477q.1.018.191.029a2.7,2.7,0,0,0,2.132-.861,3.3,3.3,0,0,0-.04,1.151,1.807,1.807,0,0,0,1.156,1.42,2.085,2.085,0,0,0,.515.121,2.138,2.138,0,0,0,1.533-.415,7.975,7.975,0,0,0,1.619-2.394c.117-.221.237-.448.362-.674a11.1,11.1,0,0,0,1.376-.023,11.4,11.4,0,0,0,8.463-4.768l16.643-23.4Z" transform="translate(-107.451 35.419)" fill="#f14149"/>
            <path id="Trazado_874377" data-name="Trazado 874377" d="M341.787,87.487c-.621,1.785-2.364,6.02-4.841,5.5-3.061-.65-2.361-2.449-2.332-2.524A2.424,2.424,0,0,1,331.3,91c-1.91-1.293-.849-4.349-.849-4.349s-2.881,2.452-4.169-1.309,3.239-8.756,3.239-8.756c.013.289.037.582.072.868-1.074,2.171-1.937,4.42-1.859,5.933a1.854,1.854,0,0,0,1.293,1.884,1.973,1.973,0,0,0,.316.059,3.354,3.354,0,0,0,2.394-.9,5.531,5.531,0,0,0-.3,3.223,2.03,2.03,0,0,0,1.516,1.476q.1.019.191.029a2.694,2.694,0,0,0,2.132-.86,3.3,3.3,0,0,0-.039,1.151,1.807,1.807,0,0,0,1.155,1.42,2.1,2.1,0,0,0,.515.121,2.139,2.139,0,0,0,1.533-.415,7.975,7.975,0,0,0,1.619-2.394c.118-.221.237-.448.363-.675a10.905,10.905,0,0,0,1.375-.022" transform="translate(-107.575 34.717)" fill="#c81e37"/>
            <path id="Trazado_874378" data-name="Trazado 874378" d="M366.347,0l-7.78,14.333-4.05-4.272-4.959,19.962,6.513-13.955,2.9,5.371Z" transform="translate(-108.022 36.172)" fill="#fdd14f"/>
            <path id="Trazado_874379" data-name="Trazado 874379" d="M405.591,27.99,394.606,40.045l5.365,2.422L382.743,53.706l11.043-10.734L387.762,42Z" transform="translate(-108.652 35.64)" fill="#fdd14f"/>
            <path id="Trazado_874380" data-name="Trazado 874380" d="M202.741,310.746h43.4l-6.646-64.979-42.527,15.386,5.741,49.466Z" transform="translate(-105.123 31.503)" fill="#011142"/>
            <path id="Trazado_874381" data-name="Trazado 874381" d="M201.852,310.916l3.758-47.294-44.219-7.333-2.329-.385-6.59-1.163c1.237,11.05,2.62,33.432,3.829,56.175Z" transform="translate(-104.278 31.333)" fill="#193768"/>
            <path id="Trazado_874382" data-name="Trazado 874382" d="M164.451,310.939l-2.932-54.627-2.329-.385,2.954,55.012Z" transform="translate(-104.406 31.31)" fill="#011142"/>
            <path id="Trazado_874383" data-name="Trazado 874383" d="M169.156,300.153a9.981,9.981,0,0,1-7.853-3.717c-8.934-10.428-5.582-39.425-5.435-40.654a.924.924,0,0,1,1.008-.847.969.969,0,0,1,.777,1.1c-.035.292-3.391,29.309,4.965,39.064a8.275,8.275,0,0,0,7.227,3.071c15.971-1.066,16.089-37.993,16.088-38.366a.944.944,0,0,1,.9-.983h0a.943.943,0,0,1,.9.979c0,1.6-.124,39.149-17.779,40.328q-.4.026-.8.026" transform="translate(-104.329 31.329)" fill="#fdd14f"/>
            <path id="Trazado_874384" data-name="Trazado 874384" d="M148.049,249.65c0,.348-.147,4.382-.137,4.727,34.108,11.543,67.225,12.57,97,0-.122-1.3-.246-6.3-.365-7.625-.077-.589-.121-1.177-.182-1.781-.15-1.6-.3-3.186-.451-4.8-.077-.814-.167-1.628-.243-2.46-.076-.86-.167-1.7-.24-2.564-.031-.469-.076-.953-.123-1.435-.044-.437-.074-.876-.12-1.312-.027-.3-.052-.6-.078-.9-.064-.739-.13-1.472-.194-2.215-.014-.257-.044-.527-.074-.8s-.031-.545-.061-.817c-.121-1.432-.226-2.838-.332-4.225-.046-.695-.09-1.389-.137-2.068-.044-.544-.09-1.1-.12-1.645-.015-.181-.015-.363-.029-.528-.018-.334-.047-.679-.062-1.013-.029-.556-.061-1.115-.09-1.675-.029-.469-.062-.934-.077-1.418-.029-.559-.059-1.118-.074-1.66-.031-.484-.046-.953-.061-1.435-.027-.594-.042-1.185-.057-1.766,0-.071,0-.14,0-.211s-.015-.12-.015-.182c-.029-1.707-.061-3.368-.044-4.951.015-.891.029-1.767.059-2.612,0-.27.015-.542.032-.829,0-.574.015-1.177.015-1.8,0-.907.015-1.856,0-2.822,0-1.421-.015-2.914-.062-4.455-.015-.362-.015-.723-.029-1.086,0-.272-.015-.544-.015-.814v-.108c-.017-.407-.031-.829-.031-1.267-.015-.165-.015-.332-.015-.5-.029-.633-.044-1.283-.077-1.947v-.074c0-.243-.015-.5-.029-.741-.015-.287-.015-.574-.029-.86s-.015-.542-.031-.814c-.029-.8-.059-1.6-.088-2.416s-.077-1.6-.091-2.416c-.031-.527-.046-1.071-.076-1.6q-.071-2.131-.181-4.3v-.014c0-.287-.015-.574-.029-.861,0-.242-.015-.5-.032-.741-.059-1.689-.134-3.394-.2-5.131,0-.077-.015-.137-.015-.211-.015-.574-.029-1.133-.059-1.707,0-.527-.031-1.04-.046-1.57-.015-.574-.044-1.13-.059-1.7v-.137c-.018-.469-.032-.935-.047-1.4,0-.227-.015-.454-.015-.68-.015-.439-.015-.875-.029-1.3-.031-.89-.046-1.8-.076-2.687-.015-.695-.015-1.373-.029-2.068-.032-1.707-.047-3.427-.062-5.116v-3.429c0-.211.015-.437.015-.633,0-1.087,0-2.205-.015-3.335v-.952c-.015-.454-.015-.905-.015-1.359-.061-5.116-.211-10.415-.211-14.671a51.815,51.815,0,0,0-1.888-14.46c-.225-.755-.468-1.5-.738-2.219a7.658,7.658,0,0,0-.319-.832A29.724,29.724,0,0,0,221.5,89.56c-.952-.453-1.933-.861-2.943-1.238-.544-.2-1.1-.393-1.676-.575L204.742,83.81a17.561,17.561,0,0,0-12.92.846c-8.906,4.241-24.68,12.619-32.633,21.976a19.338,19.338,0,0,0-4.712,8.92c-.179,1.01-.375,2.506-.6,4.437-.1,1.042-.24,2.219-.378,3.5-.179,1.722-.36,3.654-.556,5.766-.1,1.223-.211,2.492-.334,3.821-.665,7.787-1.388,17.524-2.053,28.3-.029.439-.059.875-.09,1.314-.059.981-.121,1.962-.181,2.958-.015.317-.029.65-.044.966-.044.513-.062,1.043-.106,1.571-.015.558-.061,1.133-.09,1.707-.044.723-.077,1.447-.121,2.173-.031.558-.061,1.115-.1,1.689-.015.53-.046,1.058-.077,1.57-.015.469-.046.922-.061,1.388-.044.741-.091,1.511-.121,2.266-.029.437-.044.876-.061,1.313q-.071,1.21-.132,2.44c-.052,1.05-.1,2.106-.155,3.159-.015.378-.029.741-.044,1.118-.076,1.63-.152,3.274-.226,4.905-.031.861-.061,1.707-.09,2.565-.015.228-.015.454-.032.679s-.014.454-.028.68c-.03.665-.045,1.344-.077,2.009,0,.071,0,.142-.01.213-.01.278-.022.552-.034.829-.047,1.614-.106,3.216-.167,4.829-.106,3.411-.211,6.852-.3,10.249q-.044,2.2-.09,4.393c-.015.363-.015.725-.029,1.1-.015,1.058-.029,2.114-.062,3.172v.6c-.015.708-.028,1.42-.044,2.114,0,.784-.015,1.555-.015,2.34-.014.814-.014,1.628-.031,2.445-.015,1.432-.015,2.837-.015,4.241v5.057c.015,2.248.032,4.453.061,6.627.016,1.207.044,2.415.077,3.592" transform="translate(-104.192 34.596)" fill="#f14149"/>
            <path id="Trazado_874385" data-name="Trazado 874385" d="M244.274,233.966c-24.339.484-35.017-20.01-35.017-20.01l33.651-1.254c.015.581.029,1.172.056,1.766.015.484.029.952.062,1.435.015.542.044,1.1.074,1.66.015.484.046.949.076,1.418.029.559.062,1.118.091,1.676.015.334.044.679.061,1.012.015.165.015.346.029.528.029.544.077,1.1.121,1.645.046.679.09,1.373.136,2.068.106,1.387.212,2.793.332,4.225.029.272.044.544.062.817s.059.542.074.8c.064.743.129,1.475.193,2.214" transform="translate(-105.357 32.132)" fill="#c81e37"/>
            <path id="Trazado_874386" data-name="Trazado 874386" d="M224.294,212.327s-51.785,10.484-64.048,4.927c-6.529-2.96-8.368-8.963-11.529-17.263,0-.071.007-.142.01-.213.032-.665.047-1.344.077-2.009.014-.226.014-.451.028-.68s.018-.45.032-.679c.029-.858.059-1.7.09-2.565.074-1.631.15-3.274.226-4.905.015-.378.029-.741.044-1.118.052-1.052.1-2.109.155-3.159a136.866,136.866,0,0,0,11.321,20.3c6.7,9.483,63.594,7.369,63.594,7.369" transform="translate(-104.207 32.664)" fill="#c81e37"/>
            <path id="Trazado_874387" data-name="Trazado 874387" d="M177.544,189.894s-1.791-35.943,7.324-68.714c0,0-20.438,31.019-7.324,68.714" transform="translate(-104.671 33.87)" fill="#c81e37"/>
            <path id="Trazado_874388" data-name="Trazado 874388" d="M240.933,145.143c0,.206,0,.424,0,.637q-.01.9-.011,1.807H178.892c.254-2.418.523-4.688.781-6.728h61.249c0,.321,0,.637.007.957.015,1.133.015,2.248,0,3.327" transform="translate(-104.78 33.496)" fill="#c81e37"/>
            <path id="Trazado_874389" data-name="Trazado 874389" d="M241.118,161.314h-63.3c.111-2.267.258-4.523.435-6.728h62.71c.008.689.019,1.38.033,2.068.022.9.044,1.792.07,2.687.012.431.019.865.033,1.3,0,.225.011.452.019.677" transform="translate(-104.76 33.236)" fill="#c81e37"/>
            <path id="Trazado_874390" data-name="Trazado 874390" d="M241.6,175.045H177.779c-.118-2.168-.162-4.422-.147-6.727h63.7q.1,2.594.206,5.131c.008.241.019.489.026.732.015.294.023.575.033.864" transform="translate(-104.756 32.975)" fill="#c81e37"/>
            <path id="Trazado_874391" data-name="Trazado 874391" d="M214.647,100.429c-10.134,0-22.481-4.681-23.138-4.933a1.1,1.1,0,0,1,.791-2.062c.2.076,19.775,7.5,29.015,3.727a1.1,1.1,0,1,1,.834,2.044,20.128,20.128,0,0,1-7.5,1.224" transform="translate(-105.006 34.399)" fill="#c81e37"/>
            <path id="Trazado_874392" data-name="Trazado 874392" d="M209.2,107.589c-.7,0-1.42-.024-2.165-.075a1.1,1.1,0,1,1,.148-2.2c10.055.682,15.611-4.028,15.666-4.076A1.1,1.1,0,0,1,224.3,102.9c-.234.2-5.465,4.69-15.1,4.69" transform="translate(-105.295 34.254)" fill="#c81e37"/>
            <path id="Trazado_874393" data-name="Trazado 874393" d="M166.471,232.963h.026c18.271-.4,34.213-10.976,44.369-19.776a120.9,120.9,0,0,0,17.8-19.128,1.147,1.147,0,0,0-1.875-1.322,118.538,118.538,0,0,1-17.465,18.752c-9.862,8.537-25.306,18.793-42.876,19.181a1.147,1.147,0,0,0,.025,2.294" transform="translate(-104.522 32.52)" fill="#c81e37"/>
            <path id="Trazado_874394" data-name="Trazado 874394" d="M182.67,244.164A92.291,92.291,0,0,0,206.7,240.7a113.36,113.36,0,0,0,20.822-7.927,1.044,1.044,0,0,0-.98-1.844c-.336.179-33.99,17.761-61.905,8.418a1.044,1.044,0,1,0-.662,1.981,58.9,58.9,0,0,0,18.693,2.842" transform="translate(-104.483 31.788)" fill="#c81e37"/>
            <path id="Trazado_874395" data-name="Trazado 874395" d="M186.359,34.9s-8.33,2.5-8.334,5.542c-.006,4.837,8.3,2.455,10.823,1.064Z" transform="translate(-104.764 35.509)" fill="#f3970d"/>
            <path id="Trazado_874396" data-name="Trazado 874396" d="M193.22,87.135c10.143,7.041,23.988,5.348,23.988,5.348l-.6-25.676-20.033-6.115-3.218-.982Z" transform="translate(-105.052 35.038)" fill="#f7baa6"/>
            <path id="Trazado_874397" data-name="Trazado 874397" d="M196.637,60.712s5.075,21.422,20.448,23.794l-.415-17.68Z" transform="translate(-105.117 35.019)" fill="#011142"/>
            <path id="Trazado_874398" data-name="Trazado 874398" d="M229.407,39.083s5.989-3.7,8.859,3.611-3.76,16.622-10.575,15.1c0,0-.984-14.96,1.716-18.716" transform="translate(-105.704 35.447)" fill="#ff8b81"/>
            <path id="Trazado_874399" data-name="Trazado 874399" d="M235.519,51.267c-.008.106-.015.211-.023.317-.007.139-.017.28-.031.422-.1,1.238-.221,2.479-.378,3.713-.976,7.683-3.2,15.131-7.7,20.155-8.16,9.12-20.694,1.565-29.278-9.44a53.964,53.964,0,0,1-6.36-10.307v0c-.409-.881-.79-1.756-1.125-2.627a26.539,26.539,0,0,1-1.972-8.993c-.008-.966-.008-1.9.007-2.784q.022-1.516.083-2.886.049-.9.111-1.741a41.158,41.158,0,0,1,.785-5.68c1.472-6.649,4.724-9.833,10.6-12.5,4.287-1.939,11.505-2.592,18.222-1.841A19.029,19.029,0,0,1,235.3,34.4a113.132,113.132,0,0,1,.224,16.868" transform="translate(-104.965 35.853)" fill="#f7baa6"/>
            <path id="Trazado_874400" data-name="Trazado 874400" d="M216.671,53.439c.033,1.23-1.892,2.279-4.3,2.345s-4.387-.88-4.419-2.109,1.891-2.28,4.3-2.345,4.387.88,4.42,2.109" transform="translate(-105.332 35.197)" fill="#ff8b81"/>
            <path id="Trazado_874401" data-name="Trazado 874401" d="M236.343,51.935c-.008.106-.015.211-.023.317-.007.139-.017.28-.031.422-.1,1.238-.221,2.479-.378,3.713-2.158-.077-3.855-.969-3.888-2.107-.031-1.231,1.893-2.281,4.3-2.345Z" transform="translate(-105.789 35.185)" fill="#ff8b81"/>
            <path id="Trazado_874402" data-name="Trazado 874402" d="M190.667,54.2c.337.871.714,1.747,1.123,2.627v.006a13.741,13.741,0,0,0,7,2.075c.181,0,.3,0,.329-.01a.713.713,0,0,0-.09-1.422c-.024,0-.114,0-.252,0a12.412,12.412,0,0,1-8.107-3.279" transform="translate(-105.004 35.142)" fill="#ff8b81"/>
            <path id="Trazado_874403" data-name="Trazado 874403" d="M234.685,31.169s1.791-14.127-16.522-17.367-30.305,7.07-32.649,18.532.9,22.694,7.679,26.493c0,0-2.508-44.391,41.492-27.658" transform="translate(-104.892 35.921)" fill="#011142"/>
            <path id="Trazado_874404" data-name="Trazado 874404" d="M184.651,38.063s-9.077,2.682-8.807,7.859c.29,5.572,6.5,2.294,6.5,2.294s-4.5,3.462-3.6,8.035,7.543,1.223,7.543,1.223a6.175,6.175,0,0,0,1.614,8.093c4.415,3.515,6.719-6.281,6.719-6.281s-4.228-19.624-9.97-21.223" transform="translate(-104.722 35.449)" fill="#011142"/>
            <path id="Trazado_874405" data-name="Trazado 874405" d="M235.633,52.485c-.7,8.942-2.861,18.04-8.074,23.868-8.161,9.122-20.7,1.566-29.279-9.438l-.834-23.329s1.188-2.055,5.047-1.389l2.125,10.5s1.156,5.574,4.626,6.661,8.678-.3,13.944.624a42.357,42.357,0,0,1,9.477,2.895s2.609-6.352,2.968-10.4" transform="translate(-105.133 35.373)" fill="#193768"/>
            <path id="Trazado_874406" data-name="Trazado 874406" d="M222.578,73.318a6.631,6.631,0,0,1-4.044-1.837.638.638,0,0,1,.885-.918,5.688,5.688,0,0,0,5.1,1.385.637.637,0,0,1,.324,1.233,7,7,0,0,1-2.263.137" transform="translate(-105.529 34.835)" fill="#193768"/>
            <path id="Trazado_874407" data-name="Trazado 874407" d="M228.564,66.409S220.7,65.8,215.643,63.1c0,0,1.953,5.642,6.475,7.059s6.446-3.745,6.446-3.745" transform="translate(-105.478 34.973)" fill="#fff"/>
            <path id="Trazado_874408" data-name="Trazado 874408" d="M231.05,47.172c-.024,1.342.557,2.439,1.3,2.453s1.361-1.063,1.385-2.405-.558-2.439-1.3-2.452-1.361,1.063-1.384,2.4" transform="translate(-105.771 35.322)" fill="#011142"/>
            <path id="Trazado_874409" data-name="Trazado 874409" d="M214.347,47.172c-.024,1.342.557,2.439,1.3,2.453s1.36-1.063,1.384-2.405-.558-2.439-1.3-2.452-1.361,1.063-1.384,2.4" transform="translate(-105.454 35.322)" fill="#011142"/>
            <path id="Trazado_874410" data-name="Trazado 874410" d="M208.677,42.772a1.155,1.155,0,0,1-.349-1.927c1.652-1.5,5.841-3.607,9.874-.83a1.155,1.155,0,1,1-1.31,1.9c-3.552-2.449-6.871.509-7.01.636a1.155,1.155,0,0,1-1.2.219" transform="translate(-105.332 35.438)" fill="#011142"/>
            <path id="Trazado_874411" data-name="Trazado 874411" d="M227.533,41.723a1,1,0,0,1-.335-.313A1.019,1.019,0,0,1,227.472,40a7.091,7.091,0,0,1,8.728.527,1.019,1.019,0,0,1-1.385,1.5c-2.792-2.589-6.065-.426-6.2-.333a1.021,1.021,0,0,1-1.08.038" transform="translate(-105.694 35.436)" fill="#011142"/>
            <path id="Trazado_874412" data-name="Trazado 874412" d="M188.663,41.944c5.262,1.016,11.128,2.9,13.662,0,0,0-.445-3.586,5.058-6.926,3.506-2.129,1.943-6.243,1.943-6.243l-19.684,2.863a40.823,40.823,0,0,0-.785,5.679q-.065.843-.11,1.742-.063,1.371-.085,2.885" transform="translate(-104.966 35.625)" fill="#011142"/>
            <path id="Trazado_874413" data-name="Trazado 874413" d="M195.369,38.67s-7.024-3.073-8.641,4.609,5.38,13.485,11,13.845c0,0,.93-15.2-2.355-18.454" transform="translate(-104.924 35.449)" fill="#f7baa6"/>
            <path id="Trazado_874414" data-name="Trazado 874414" d="M194.449,55.215a1.615,1.615,0,1,1-1.615-1.615,1.615,1.615,0,0,1,1.615,1.615" transform="translate(-105.014 35.154)" fill="#fff"/>
            <path id="Trazado_874415" data-name="Trazado 874415" d="M195.823,51.754a.709.709,0,0,1-.681-.585,11.825,11.825,0,0,0-4.468-7.214.709.709,0,0,1,.79-1.178,13.051,13.051,0,0,1,5.076,8.143.71.71,0,0,1-.574.823.785.785,0,0,1-.142.011" transform="translate(-104.998 35.362)" fill="#ff8b81"/>
            <path id="Trazado_874416" data-name="Trazado 874416" d="M190.358,48.368a.709.709,0,0,1-.313-1.337,7.9,7.9,0,0,1,4.26-.894.709.709,0,0,1-.258,1.395,6.419,6.419,0,0,0-3.344.755.7.7,0,0,1-.344.08" transform="translate(-104.985 35.297)" fill="#ff8b81"/>
            <path id="Trazado_874417" data-name="Trazado 874417" d="M226.684,59.414a11.013,11.013,0,0,1-2.412-.335.767.767,0,0,1,.364-1.491,7.945,7.945,0,0,0,2.55.263c-.054-1.262-.906-7.02-1.736-12.14a.767.767,0,0,1,1.515-.245c.442,2.727,1.876,11.711,1.744,12.762a1.2,1.2,0,0,1-.524.848,2.728,2.728,0,0,1-1.5.338" transform="translate(-105.631 35.321)" fill="#ff8b81"/>
            <path id="Trazado_874418" data-name="Trazado 874418" d="M234.732,30.749s-18.258-3.743-35.112.322q-.6.143-1.192.3a41.473,41.473,0,0,0-13.609,6.156s-1.547-10.919,4.751-19.19a21.063,21.063,0,0,1,11.019-7.164q.983-.29,1.989-.512c8.963-1.991,19.117-.034,23.883,3.941,9.2,7.676,8.272,16.147,8.272,16.147" transform="translate(-104.89 35.984)" fill="#fdb105"/>
            <path id="Trazado_874419" data-name="Trazado 874419" d="M200.046,14.926c-2.207,4.763-2.269,10.191-.189,16.16q-.6.143-1.192.3c-2.654-7.752-1.366-13.484.3-17.04a18.929,18.929,0,0,1,1.866-3.159c.654-.194,1.316-.363,1.989-.512a17.75,17.75,0,0,0-2.768,4.25" transform="translate(-105.127 35.969)" fill="#f3970d"/>
            <path id="Trazado_874420" data-name="Trazado 874420" d="M206.362,30.038S243.468,12.419,256.9,18.916s-21.1,18.056-21.1,18.056a13.094,13.094,0,0,0-1.225-5.728s-19.086-2.839-28.215-1.207" transform="translate(-105.302 35.84)" fill="#f3970d"/>
            <path id="Trazado_874421" data-name="Trazado 874421" d="M214.037,123.484a8.363,8.363,0,0,0,3.141-.621c3.141-1.262,5.184-3.941,6.07-7.964a32.918,32.918,0,0,0-.026-11.737,82.825,82.825,0,0,0-4.043-15.286.607.607,0,1,0-1.132.439c.11.284,10.879,28.519-1.322,33.421a7.851,7.851,0,0,1-7.222-.859C199.845,115.1,191.679,93,190.819,85.222a.607.607,0,1,0-1.208.133c.906,8.188,9.125,30.494,19.269,36.564a10.027,10.027,0,0,0,5.157,1.565" transform="translate(-104.984 34.563)" fill="#fff"/>
            <path id="Trazado_874422" data-name="Trazado 874422" d="M276.954,180.937a35.38,35.38,0,0,1-47.688,43.546q-1.168-.506-2.3-1.1a35.413,35.413,0,0,1-8.978-6.665c-.514-.527-1.014-1.069-1.5-1.629a35.268,35.268,0,0,1-6.78-12.019c-.137-.415-.266-.835-.384-1.257A35.414,35.414,0,0,1,245.7,156.679q1.282.087,2.546.266a35.439,35.439,0,0,1,10.545,3.219q1.093.531,2.148,1.135a35.236,35.236,0,0,1,15.578,18.4q.232.615.437,1.24" transform="translate(-105.332 33.197)" fill="#fdd14f"/>
            <g id="Grupo_1099979" data-name="Grupo 1099979" transform="translate(131.926 199.679)" opacity="0.2">
              <g id="Grupo_1099978" data-name="Grupo 1099978">
                <g id="Grupo_1099977" data-name="Grupo 1099977" clip-path="url(#clip-path)">
                  <path id="Trazado_874423" data-name="Trazado 874423" d="M274.11,173.739l-26.794,53.693a35.111,35.111,0,0,1-9.49-.361l30.607-60.4a35.153,35.153,0,0,1,5.677,7.066" transform="translate(-237.826 -166.673)" fill="#fff"/>
                </g>
              </g>
            </g>
            <g id="Grupo_1099982" data-name="Grupo 1099982" transform="translate(111.162 189.877)" opacity="0.2">
              <g id="Grupo_1099981" data-name="Grupo 1099981">
                <g id="Grupo_1099980" data-name="Grupo 1099980" clip-path="url(#clip-path-2)">
                  <path id="Trazado_874424" data-name="Trazado 874424" d="M248.411,156.947l-30.256,59.776q-.771-.789-1.5-1.629l29.206-58.412q1.28.088,2.545.266" transform="translate(-216.66 -156.681)" fill="#fff"/>
                </g>
              </g>
            </g>
            <g id="Grupo_1099985" data-name="Grupo 1099985" transform="translate(121.635 193.361)" opacity="0.2">
              <g id="Grupo_1099984" data-name="Grupo 1099984">
                <g id="Grupo_1099983" data-name="Grupo 1099983" clip-path="url(#clip-path-3)">
                  <path id="Trazado_874425" data-name="Trazado 874425" d="M261.307,161.368l-31.673,63.185q-1.168-.508-2.3-1.1l31.823-63.223q1.093.531,2.148,1.135" transform="translate(-227.335 -160.233)" fill="#fff"/>
                </g>
              </g>
            </g>
            <path id="Trazado_874426" data-name="Trazado 874426" d="M270.343,183.3c.135.413.26.829.38,1.242a28.292,28.292,0,0,1-53.689,17.677c-.149-.4-.3-.812-.433-1.226A28.29,28.29,0,0,1,270.343,183.3" transform="translate(-105.469 33.06)" fill="#f3970d"/>
            <path id="Trazado_874427" data-name="Trazado 874427" d="M270.739,184.587a28.326,28.326,0,0,1-18.4,34.475c-.323.106-.644.2-.966.3a28.154,28.154,0,0,1-19.012-1.175c-.741-.318-1.466-.665-2.181-1.045a28.342,28.342,0,0,1-8.522-6.964,26.729,26.729,0,0,1-1.617-2.16,28.1,28.1,0,0,1-2.987-5.753,28.3,28.3,0,0,1,23.906-35.7,27.614,27.614,0,0,1,2.809-.193,28.259,28.259,0,0,1,11.013,2.022q1.12.447,2.205.994a28.2,28.2,0,0,1,12.924,13.242c.3.636.58,1.292.833,1.961" transform="translate(-105.485 33.012)" fill="#fdb105"/>
            <g id="Grupo_1099988" data-name="Grupo 1099988" transform="translate(136.125 207.936)" opacity="0.2">
              <g id="Grupo_1099987" data-name="Grupo 1099987">
                <g id="Grupo_1099986" data-name="Grupo 1099986" clip-path="url(#clip-path-4)">
                  <path id="Trazado_874428" data-name="Trazado 874428" d="M270.4,182.791l-18.538,36.734a28.067,28.067,0,0,1-9.757,1.059l22.958-45.5a28.116,28.116,0,0,1,5.337,7.7" transform="translate(-242.106 -175.09)" fill="#fff"/>
                </g>
              </g>
            </g>
            <g id="Grupo_1099991" data-name="Grupo 1099991" transform="translate(114.551 199.381)" opacity="0.2">
              <g id="Grupo_1099990" data-name="Grupo 1099990">
                <g id="Grupo_1099989" data-name="Grupo 1099989" clip-path="url(#clip-path-5)">
                  <path id="Trazado_874429" data-name="Trazado 874429" d="M243.842,166.369l-22.11,43.807a26.976,26.976,0,0,1-1.618-2.16l20.92-41.453a27.566,27.566,0,0,1,2.808-.193" transform="translate(-220.114 -166.369)" fill="#fff"/>
                </g>
              </g>
            </g>
            <g id="Grupo_1099994" data-name="Grupo 1099994" transform="translate(124.691 201.403)" opacity="0.2">
              <g id="Grupo_1099993" data-name="Grupo 1099993">
                <g id="Grupo_1099992" data-name="Grupo 1099992" clip-path="url(#clip-path-6)">
                  <path id="Trazado_874430" data-name="Trazado 874430" d="M257.257,169.424l-24.627,48.8q-1.11-.475-2.18-1.044l24.6-48.749q1.121.447,2.206.994" transform="translate(-230.45 -168.43)" fill="#fff"/>
                </g>
              </g>
            </g>
            <path id="Trazado_874431" data-name="Trazado 874431" d="M252.509,206.331l1.47,4.465-5.671,1.867-1.4-4.263a24.918,24.918,0,0,1-11.264.588l.78-7.924a20.338,20.338,0,0,0,10.138-.485c2.695-.888,3.475-1.769,3.157-2.734-1.165-3.539-15.79,4.441-19.246-6.057-1.5-4.545.544-9.452,6.836-12.548l-1.443-4.384,5.671-1.867,1.417,4.3a22.109,22.109,0,0,1,8.933-.355l-.592,7.818a18.287,18.287,0,0,0-8.532.49c-2.775.913-3.4,2.009-3.077,2.974,1.112,3.379,15.751-4.561,19.167,5.815,1.43,4.344-.462,9.158-6.339,12.3" transform="translate(-105.751 32.886)" fill="#f3970d"/>
            <path id="Trazado_874432" data-name="Trazado 874432" d="M251.842,204.873l1.47,4.465-5.671,1.867-1.4-4.263a24.917,24.917,0,0,1-11.264.588l.78-7.924a20.327,20.327,0,0,0,10.138-.486c2.695-.887,3.475-1.768,3.157-2.733-1.165-3.539-15.79,4.441-19.246-6.057-1.5-4.545.544-9.451,6.836-12.548l-1.443-4.384,5.671-1.867,1.417,4.3a22.109,22.109,0,0,1,8.933-.355l-.592,7.818a18.287,18.287,0,0,0-8.532.491c-2.775.913-3.4,2.009-3.077,2.974,1.112,3.379,15.751-4.561,19.167,5.815,1.43,4.344-.463,9.158-6.339,12.3" transform="translate(-105.738 32.914)" fill="#fdd14f"/>
            <path id="Trazado_874433" data-name="Trazado 874433" d="M247.864,210.362c-11.906.641-28.858,1.285-39.814,1.484q-10.462.184-20.915.289c-6.982.066-13.925.12-20.946.132a12.254,12.254,0,0,1-10.627-6.131l-.7-1.217c-1.03-1.964-1.977-3.96-2.825-5.986s-1.594-4.071-2.249-6.136a83.735,83.735,0,0,1-2.9-12.434,106.9,106.9,0,0,1-.821-24.429,146.645,146.645,0,0,1,3.725-23.228q1.368-5.658,3.118-11.2c.589-1.851,1.2-3.693,1.866-5.541.332-.926.675-1.851,1.035-2.791l.557-1.42.3-.738.368-.871a13.906,13.906,0,0,1,25.688,10.661l-.177.43-.348.853-.415,1.058c-.275.723-.551,1.461-.816,2.207-.538,1.49-1.05,3.019-1.535,4.549-.969,3.071-1.837,6.188-2.593,9.318a119.232,119.232,0,0,0-3.031,18.791,79.38,79.38,0,0,0,.567,18.057,55.96,55.96,0,0,0,1.366,6.391c.067.238.132.476.2.711q.174.6.361,1.185c.017.041.029.085.044.13.118.368.24.736.368,1.1l.044.126c.736.1,1.473.2,2.217.3q4.829.65,9.663,1.29c6.854.9,13.868,1.5,20.76,2.038,11.839.925,28.116,1.913,39.981,2.928,4.792,4.476,1.46,14.885-1.511,18.095" transform="translate(-104.15 34.242)" fill="#f14149"/>
            <path id="Trazado_874434" data-name="Trazado 874434" d="M177.081,187.153a33.186,33.186,0,0,0-11.757,4.552s3.846-6.146,10.783-7.676c.067.237.133.476.2.711q.174.6.361,1.184c.017.042.029.086.044.13.118.368.24.736.368,1.1" transform="translate(-104.522 32.676)" fill="#c81e37"/>
            <path id="Trazado_874435" data-name="Trazado 874435" d="M248.176,209.952c19.03,9.424,28.03,3.875,30.912,2.742s2.3-4.443,2.3-4.443a3.643,3.643,0,0,0,1.5-4.2c3.746-2.565,2.127-5.138,2.127-5.138s4.7-.848,3.833-3.778-7.026-.46-10.7-1.029c-.175-.026-.358-.058-.556-.1,2.3-.92,4.932-2.369,5.277-4.254.622-3.423-15.692,1.815-15.692,1.815a25.84,25.84,0,0,0-8.2,2.2,15.829,15.829,0,0,1-4.859,1.161l-3.379.292c-3.32,2.836-4.27,9.084-2.553,14.726" transform="translate(-106.08 32.589)" fill="#f7baa6"/>
            <path id="Trazado_874438" data-name="Trazado 874438" d="M383.572,141.888a20,20,0,1,1-11.03-26.049,20,20,0,0,1,11.03,26.049" transform="translate(-182.159 -114.371)" fill="#aee6e6"/>
            <path id="Trazado_874439" data-name="Trazado 874439" d="M376.185,131.815c-1.425-3.367-4.761-4.454-9.079-2.625a12.5,12.5,0,0,0-.779-1.547c-1.882-3.148-4.637-4.127-7.568-2.886a6.666,6.666,0,0,0-3.529,8.713l3.147,7.432,2.165,4.49h0l4.68-1.718,7.433-3.147a6.668,6.668,0,0,0,3.529-8.713" transform="translate(-182.343 -114.558)" fill="#f14149"/>
            <path id="Trazado_874440" data-name="Trazado 874440" d="M59.541,298.848,41.008,291.37a8.216,8.216,0,0,1-4.545-10.694l6.713-16.636A8.217,8.217,0,0,1,53.87,259.5L72.4,266.975a8.216,8.216,0,0,1,4.545,10.694L70.234,294.3a8.216,8.216,0,0,1-10.694,4.545" transform="translate(107.053 192.014)" fill="#009af9"/>
            <path id="Trazado_874441" data-name="Trazado 874441" d="M63.073,278.14h0l-2.62-1.039c.429-1.074.818-2.119,1.263-3.139a1.207,1.207,0,0,1,1.641-.808c.469.125.926.292,1.383.458l1.44.581,1.622-4.018-1.516-.589v0c-.775-.29-1.55-.581-2.327-.865a5.171,5.171,0,0,0-6.682,2.69c-.583,1.225-1.062,2.5-1.6,3.779a2.077,2.077,0,0,1-.351-.074q-1.4-.55-2.791-1.112c-.445-.18-.841-.309-.967.379a5.086,5.086,0,0,1-.335.834c-.312.817-.619,1.636-.947,2.5.956.384,1.789.725,2.627,1.055,1.251.491,1.226.477.733,1.719q-1.255,3.161-2.482,6.333h0l-1.294,3.2.5.2v0c1.4.575,2.807,1.12,4.29,1.7,1.426-3.641,2.831-7.225,4.243-10.829.927.36,1.768.678,2.6,1.016a1.086,1.086,0,0,0,.164.053l.521.21,2.459-3.612Z" transform="translate(106.787 191.834)" fill="#fff"/>
            <path id="Trazado_874442" data-name="Trazado 874442" d="M356.677,193.795l-17.648,9.376a8.217,8.217,0,0,1-11.111-3.4L319.5,183.928a8.217,8.217,0,0,1,3.4-11.111l17.648-9.376a8.217,8.217,0,0,1,11.111,3.4l8.416,15.842a8.216,8.216,0,0,1-3.4,11.111" transform="translate(-107.433 33.086)" fill="#009af9"/>
            <path id="Trazado_874443" data-name="Trazado 874443" d="M343.054,177.983h0l-2.482,1.337c-.546-1.019-1.1-1.989-1.591-2.987a1.206,1.206,0,0,1,.438-1.776c.4-.28.819-.521,1.24-.765h0l1.37-.728L340,169.237l-1.425.782v0q-1.08.609-2.159,1.224a5.172,5.172,0,0,0-2.24,6.846c.564,1.234,1.23,2.421,1.864,3.655a2.1,2.1,0,0,1-.283.222q-1.32.717-2.648,1.421c-.424.225-.777.444-.333.983a5.141,5.141,0,0,1,.424.794c.425.764.854,1.526,1.309,2.336.907-.484,1.706-.9,2.5-1.333,1.18-.642,1.155-.632,1.787.544q1.613,3,3.252,5.976l0,0,1.622,3.053.475-.252v0c1.338-.7,2.662-1.428,4.063-2.189-1.869-3.435-3.709-6.816-5.56-10.216.872-.477,1.656-.916,2.451-1.336a1.034,1.034,0,0,0,.145-.091l.5-.264-1.184-4.207Z" transform="translate(-107.699 32.957)" fill="#fff"/>
            <path id="Trazado_874444" data-name="Trazado 874444" d="M343.135,244.463,338.2,257.84l16.28,6.009s2.6-.031,2.275-3.2c0,0,2.81-.427,1.958-3.79,0,0,2.606-1.175,1.128-3.383,0,0,2.856-1.2.892-3.606l-7.635-2.818a10.7,10.7,0,0,0,5.285-6.582s.446-1.854-.859-1.741c0,0-3.748,3.129-5.71,3.3-2.533.215-7.867.243-7.867.243Z" transform="translate(-124.331 41.441)" fill="#fff"/>
            <path id="Trazado_874445" data-name="Trazado 874445" d="M335.2,258.537l-5.057-1.866a1.488,1.488,0,0,1-.881-1.912l4.547-12.321a2.088,2.088,0,0,1,2.681-1.236l4.5,1.659a.139.139,0,0,1,.082.179l-5.689,15.415a.139.139,0,0,1-.179.083" transform="translate(-121.467 40.696)" fill="#009af9"/>
            <path id="Trazado_874446" data-name="Trazado 874446" d="M36.76,135.279l8.61,18.595L68,143.395s2.6-2.675-.948-5.559c0,0,2.416-3.294-1.872-5.837,0,0,1.447-3.846-2.3-4.58,0,0,1.673-4.126-2.766-4.567L49.5,127.765A15.378,15.378,0,0,0,48.16,115.71s-1.434-2.335-2.644-.893c0,0-.616,6.99-2.437,9.156-2.35,2.8-7.732,8.255-7.732,8.255Z" transform="translate(-19.475 297.036)" fill="#fff"/>
            <path id="Trazado_874447" data-name="Trazado 874447" d="M45.029,154.3,38,157.557a2.141,2.141,0,0,1-2.841-1.043l-7.93-17.126a3,3,0,0,1,1.463-3.983l6.248-2.893a.2.2,0,0,1,.265.1l9.922,21.427a.2.2,0,0,1-.1.266" transform="translate(-19.316 296.691)" fill="#009af9"/>
            <path id="Trazado_874448" data-name="Trazado 874448" d="M402.434,225.177c-.283-2.836-2.345-4.955-4.64-6.658-2.63-1.947-5.568-3.348-6.5-4.65a1.187,1.187,0,0,1-.233-1.164c.33-.862,1.351-1.3,3.661-.517h0c.15.051.3.106.464.169a17.256,17.256,0,0,1,6.257,4.371c.148.156.3.314.444.478l1.235-1.3,3.989-4.2a18.828,18.828,0,0,0-4.1-3.581,26.184,26.184,0,0,0-2.814-1.617l.944-2.461.626-1.632-5.4-2.07-1.6,4.172c-6.613-1.525-11.145.909-12.8,5.233a7.356,7.356,0,0,0,1.432,7.994,28.5,28.5,0,0,0,6.209,4.791c2.034,1.317,3.525,2.4,3.091,3.528-.352.92-1.475,1.1-4.04.122a17.727,17.727,0,0,1-3.172-1.628,19.644,19.644,0,0,1-4.729-4.21l-5.431,5.469a16.121,16.121,0,0,0,2.469,2.514,28.127,28.127,0,0,0,6.339,3.933l-.891,2.329-.664,1.728,5.4,2.068,1.627-4.248c6.327,1.24,10.69-1.213,12.275-5.346a7.846,7.846,0,0,0,.553-3.614" transform="translate(-192.035 43.225)" fill="#fdd14f"/>
            <g id="Grupo_1099997" data-name="Grupo 1099997" transform="translate(189.405 247.272)" opacity="0.5" style="mix-blend-mode: screen;isolation: isolate">
              <g id="Grupo_1099996" data-name="Grupo 1099996">
                <g id="Grupo_1099995" data-name="Grupo 1099995" clip-path="url(#clip-path-7)">
                  <path id="Trazado_874449" data-name="Trazado 874449" d="M403.125,208.2l-8.285,4.064h0c-2.309-.787-3.331-.345-3.661.517a1.19,1.19,0,0,0,.234,1.164l-7.893,3.874a7.852,7.852,0,0,1-1.961-4.034l19.7-9.663-.944,2.461a26.022,26.022,0,0,1,2.814,1.617" transform="translate(-381.558 -204.118)" fill="#fdd14f"/>
                </g>
              </g>
            </g>
            <path id="Trazado_874450" data-name="Trazado 874450" d="M402.393,217.508c-.147-.163-.3-.322-.443-.478l1.678-.823Z" transform="translate(-109.017 32.065)" fill="#fdd14f"/>
            <g id="Grupo_1100000" data-name="Grupo 1100000" transform="translate(185.763 261.744)" opacity="0.5" style="mix-blend-mode: screen;isolation: isolate">
              <g id="Grupo_1099999" data-name="Grupo 1099999">
                <g id="Grupo_1099998" data-name="Grupo 1099998" clip-path="url(#clip-path-8)">
                  <path id="Trazado_874451" data-name="Trazado 874451" d="M383.294,234.942l.892-2.329a28.142,28.142,0,0,1-6.339-3.933l7.691-3.773a17.686,17.686,0,0,0,3.171,1.628c2.564.981,3.689.8,4.041-.123.433-1.128-1.058-2.21-3.092-3.527l8.185-4.015c2.3,1.7,4.358,3.822,4.64,6.658Z" transform="translate(-377.845 -218.871)" fill="#fdd14f"/>
                </g>
              </g>
            </g>
            <path id="Trazado_874452" data-name="Trazado 874452" d="M25.876,228.784c-2.487-1.393-5.405-.916-8.116-.01-3.1,1.041-5.934,2.647-7.535,2.665a1.187,1.187,0,0,1-1.088-.475c-.518-.765-.3-1.855,1.673-3.3l0,0c.129-.093.26-.186.4-.284a17.258,17.258,0,0,1,7.167-2.625c.212-.031.428-.063.646-.09l-.359-1.758-1.158-5.675a18.779,18.779,0,0,0-5.286,1.314,25.972,25.972,0,0,0-2.937,1.38l-1.477-2.184L6.833,216.3l-4.787,3.237,2.5,3.7c-5.037,4.547-5.638,9.656-3.043,13.49a7.836,7.836,0,0,0,2.945,2.7,7.849,7.849,0,0,0,4.428.7,28.537,28.537,0,0,0,7.484-2.346c2.245-.912,3.986-1.516,4.663-.514.552.816.059,1.842-2.215,3.382a17.67,17.67,0,0,1-3.15,1.667A19.646,19.646,0,0,1,9.5,243.784l1.371,7.584a16.118,16.118,0,0,0,3.476-.584A28.113,28.113,0,0,0,21.2,247.84l1.4,2.065,1.036,1.533,4.785-3.239-2.55-3.767c4.64-4.476,5.129-9.457,2.649-13.125a7.859,7.859,0,0,0-2.646-2.523" transform="translate(141.993 193.253)" fill="#fdd14f"/>
            <g id="Grupo_1100003" data-name="Grupo 1100003" transform="translate(146.444 410.997)" opacity="0.5" style="mix-blend-mode: screen;isolation: isolate">
              <g id="Grupo_1100002" data-name="Grupo 1100002">
                <g id="Grupo_1100001" data-name="Grupo 1100001" clip-path="url(#clip-path-9)">
                  <path id="Trazado_874453" data-name="Trazado 874453" d="M12.312,218.574,10.9,227.694h0c-1.968,1.443-2.192,2.533-1.674,3.3a1.19,1.19,0,0,0,1.089.475l-1.346,8.69a7.842,7.842,0,0,1-4.429-.7L7.9,217.771l1.476,2.184a26.131,26.131,0,0,1,2.937-1.38" transform="translate(-4.537 -217.772)" fill="#fdd14f"/>
                </g>
              </g>
            </g>
            <g id="Grupo_1100006" data-name="Grupo 1100006" transform="translate(156.341 421.161)" opacity="0.5" style="mix-blend-mode: screen;isolation: isolate">
              <g id="Grupo_1100005" data-name="Grupo 1100005">
                <g id="Grupo_1100004" data-name="Grupo 1100004" clip-path="url(#clip-path-10)">
                  <path id="Trazado_874455" data-name="Trazado 874455" d="M22.879,250.129l-1.4-2.064a28.091,28.091,0,0,1-6.854,2.944l1.313-8.465a17.806,17.806,0,0,0,3.151-1.667c2.273-1.541,2.767-2.566,2.214-3.382-.677-1-2.418-.4-4.663.514l1.4-9.01c2.71-.906,5.629-1.384,8.115.009Z" transform="translate(-14.626 -228.133)" fill="#fdd14f"/>
                </g>
              </g>
            </g>
            <path id="Trazado_874456" data-name="Trazado 874456" d="M346.154,350.059a22.871,22.871,0,1,1-12.964-29.634,22.871,22.871,0,0,1,12.964,29.634" transform="translate(-107.118 30.115)" fill="#fdd14f"/>
            <path id="Trazado_874457" data-name="Trazado 874457" d="M311.3,345.114a.889.889,0,0,1-.877-1.51l4.969-4.322-5.859-1.218a.889.889,0,0,1,.362-1.74l7.613,1.582a.89.89,0,0,1,.4,1.541l-6.321,5.5a.889.889,0,0,1-.29.169" transform="translate(-107.248 29.784)" fill="#011142"/>
            <path id="Trazado_874458" data-name="Trazado 874458" d="M338.23,335.691a.89.89,0,0,1-.333.049l-8.369-.377a.889.889,0,0,1-.643-1.458l4.978-5.972a.889.889,0,0,1,1.367,1.138l-3.831,4.6,6.579.3a.889.889,0,0,1,.252,1.728" transform="translate(-107.625 29.949)" fill="#011142"/>
            <path id="Trazado_874459" data-name="Trazado 874459" d="M338.8,350.219a13.336,13.336,0,0,0,.1-9.1l-25.292,8.819a13.336,13.336,0,0,0,5.688,7.034,29.876,29.876,0,0,1,19.5-6.757" transform="translate(-107.339 29.692)" fill="#011142"/>
            <path id="Trazado_874460" data-name="Trazado 874460" d="M330.776,358.354a13.363,13.363,0,0,0,8.134-7.96,29.881,29.881,0,0,0-19.5,6.757,13.366,13.366,0,0,0,11.368,1.2" transform="translate(-107.449 29.517)" fill="#f14149"/>
            <path id="Trazado_874461" data-name="Trazado 874461" d="M330.96,382.15A22.923,22.923,0,1,1,315.23,353.8a22.922,22.922,0,0,1,15.73,28.345" transform="translate(-106.815 29.468)" fill="#fdd14f"/>
            <path id="Trazado_874462" data-name="Trazado 874462" d="M312.221,388.856c-1.245,4.351-4.922,7.114-8.212,6.173s-4.948-5.232-3.7-9.583,4.922-7.114,8.212-6.172,4.947,5.232,3.7,9.582" transform="translate(-107.079 28.971)" fill="#011142"/>
            <path id="Trazado_874463" data-name="Trazado 874463" d="M303.233,371.451c-.647,2.262-2.537,3.705-4.219,3.224s-2.522-2.706-1.875-4.968,2.536-3.705,4.219-3.224,2.522,2.706,1.875,4.968" transform="translate(-107.022 29.212)" fill="#011142"/>
            <path id="Trazado_874464" data-name="Trazado 874464" d="M323.069,377.128c-.647,2.262-2.537,3.705-4.219,3.224s-2.522-2.706-1.875-4.968,2.536-3.705,4.219-3.224,2.522,2.706,1.875,4.968" transform="translate(-107.399 29.104)" fill="#011142"/>
            <path id="Trazado_874465" data-name="Trazado 874465" d="M297.064,362.984a.964.964,0,0,1-.2-.083.978.978,0,0,1-.387-1.329,4.425,4.425,0,0,1,3.947-2.128,4.546,4.546,0,0,1,3.57,1.74.979.979,0,0,1-1.618,1.1,2.617,2.617,0,0,0-2.011-.886,2.476,2.476,0,0,0-2.173,1.114.98.98,0,0,1-1.126.47" transform="translate(-107.011 29.344)" fill="#011142"/>
            <path id="Trazado_874466" data-name="Trazado 874466" d="M325.941,371.307a.98.98,0,0,1-.707-.985,2.467,2.467,0,0,0-1.254-2.1,2.619,2.619,0,0,0-2.191-.307.985.985,0,0,1-1.273-.526.972.972,0,0,1,.5-1.271,4.551,4.551,0,0,1,3.95.413,4.424,4.424,0,0,1,2.223,3.894.979.979,0,0,1-1.247.887" transform="translate(-107.469 29.222)" fill="#011142"/>
            <path id="Trazado_874467" data-name="Trazado 874467" d="M374.716,382.186a22.871,22.871,0,1,1-12.963-29.634,22.87,22.87,0,0,1,12.963,29.634" transform="translate(-107.661 29.505)" fill="#fdd14f"/>
            <path id="Trazado_874468" data-name="Trazado 874468" d="M339.862,377.241a.889.889,0,0,1-.877-1.51l4.969-4.322-5.859-1.218a.889.889,0,0,1,.362-1.74l7.613,1.582a.89.89,0,0,1,.4,1.541l-6.321,5.5a.889.889,0,0,1-.29.169" transform="translate(-107.791 29.173)" fill="#011142"/>
            <path id="Trazado_874469" data-name="Trazado 874469" d="M366.792,367.818a.892.892,0,0,1-.333.049l-8.369-.377a.889.889,0,0,1-.643-1.458l4.978-5.972a.889.889,0,0,1,1.367,1.138l-3.831,4.6,6.579.3a.889.889,0,0,1,.252,1.728" transform="translate(-108.168 29.338)" fill="#011142"/>
            <path id="Trazado_874470" data-name="Trazado 874470" d="M367.363,382.346a13.336,13.336,0,0,0,.1-9.1l-25.292,8.819a13.336,13.336,0,0,0,5.688,7.034,29.876,29.876,0,0,1,19.5-6.757" transform="translate(-107.882 29.082)" fill="#011142"/>
            <path id="Trazado_874471" data-name="Trazado 874471" d="M359.339,390.481a13.364,13.364,0,0,0,8.134-7.96,29.876,29.876,0,0,0-19.5,6.757,13.368,13.368,0,0,0,11.369,1.2" transform="translate(-107.992 28.907)" fill="#f14149"/>
            <g id="Grupo_1100012" data-name="Grupo 1100012" transform="translate(11.557 0)">
              <path id="Trazado_874472" data-name="Trazado 874472" d="M96.843,382.161a22.923,22.923,0,1,1-15.73-28.345,22.922,22.922,0,0,1,15.73,28.345" transform="translate(-51.877 -352.925)" fill="#fdd14f"/>
              <path id="Trazado_874473" data-name="Trazado 874473" d="M78.1,388.868c-1.246,4.351-4.922,7.114-8.212,6.172s-4.948-5.232-3.7-9.582,4.922-7.114,8.212-6.172,4.947,5.232,3.7,9.582" transform="translate(-52.141 -353.422)" fill="#011142"/>
              <path id="Trazado_874474" data-name="Trazado 874474" d="M69.116,371.462c-.647,2.262-2.536,3.705-4.219,3.224s-2.522-2.707-1.875-4.968,2.536-3.705,4.219-3.224,2.522,2.706,1.875,4.968" transform="translate(-52.084 -353.18)" fill="#011142"/>
              <path id="Trazado_874475" data-name="Trazado 874475" d="M88.952,377.139c-.647,2.262-2.536,3.705-4.219,3.224s-2.522-2.706-1.875-4.968,2.536-3.705,4.219-3.224,2.522,2.706,1.875,4.968" transform="translate(-52.461 -353.289)" fill="#011142"/>
              <path id="Trazado_874476" data-name="Trazado 874476" d="M62.947,363a1.022,1.022,0,0,1-.2-.083.978.978,0,0,1-.387-1.329,4.425,4.425,0,0,1,3.947-2.128,4.55,4.55,0,0,1,3.57,1.739.979.979,0,0,1-1.618,1.1,2.617,2.617,0,0,0-2.011-.886,2.476,2.476,0,0,0-2.173,1.114.98.98,0,0,1-1.126.47" transform="translate(-52.074 -353.049)" fill="#011142"/>
              <path id="Trazado_874477" data-name="Trazado 874477" d="M91.824,371.318a.98.98,0,0,1-.707-.985,2.466,2.466,0,0,0-1.254-2.1,2.619,2.619,0,0,0-2.191-.307A.985.985,0,0,1,86.4,367.4a.971.971,0,0,1,.5-1.271,4.551,4.551,0,0,1,3.95.413,4.424,4.424,0,0,1,2.223,3.894.979.979,0,0,1-1.247.887" transform="translate(-52.531 -353.17)" fill="#011142"/>
            </g>
          </g>
        </g>
      </g>
    </g>
  </g>
</svg>
