<svg id="Grupo_1100075" data-name="Grupo 1100075" xmlns="http://www.w3.org/2000/svg" xmlns:xlink="http://www.w3.org/1999/xlink" width="260.059" height="260.059" viewBox="0 0 260.059 260.059">
  <defs>
    <clipPath id="clip-path">
      <rect id="Rectángulo_401640" data-name="Rectángulo 401640" width="260.059" height="260.059" fill="none"/>
    </clipPath>
  </defs>
  <g id="Grupo_1100074" data-name="Grupo 1100074" clip-path="url(#clip-path)">
    <path id="Trazado_874538" data-name="Trazado 874538" d="M260.059,130.028A129.868,129.868,0,0,1,130.029,260.058q-5.964,0-11.789-.529c-.342-.03-.684-.06-1.021-.1A130.034,130.034,0,0,1,130.029,0a129.461,129.461,0,0,1,72.939,22.359q1.883,1.288,3.724,2.631c.474.342.943.69,1.411,1.045q1.54,1.153,3.039,2.36,1.829,1.46,3.6,2.979c.252.216.5.433.745.643.361.312.709.625,1.063.943.594.528,1.189,1.063,1.772,1.609q2.622,2.423,5.111,4.991c.433.444.865.895,1.286,1.351a129.545,129.545,0,0,1,35.343,89.119" transform="translate(0 0.001)" fill="#7d6eb2"/>
    <path id="Trazado_874539" data-name="Trazado 874539" d="M245.7,155.906l1.682-2.012s-.445-8.171-3.4-11.821-11.875-6.258-17.063-4c0,0-15.446.039-19.1,10.1s-2.128,24.529-2.128,24.529-14.735,5.874-11.78,21.347,28.282,21.035,28.282,21.035l23.525-11.2Z" transform="translate(-132.199 -93.747)" fill="#f17255"/>
    <path id="Trazado_874540" data-name="Trazado 874540" d="M513.011,268.464s-.626-3.979,10.833-4.586,15.671-.161,15.189,3.233-15.189,15.648-15.189,15.648Z" transform="translate(-350.449 -180.107)" fill="#fff"/>
    <path id="Trazado_874541" data-name="Trazado 874541" d="M312.22,639.05a130.455,130.455,0,0,1-30.989,3.712q-5.964,0-11.789-.529c-.343-.03-.685-.06-1.021-.1a129.146,129.146,0,0,1-47.085-13.963,211.747,211.747,0,0,1,7.729-32.557h.006s-.006-.006,0-.006a109.252,109.252,0,0,1,6.2-15.579l15.35-14.906a109.313,109.313,0,0,1,26.035-4.817c.33-.018.661-.03,1-.042,14.011-.5,29.092,2.817,33.44,18.077.39,1.363.739,2.733,1.063,4.108q.711,3.072,1.219,6.168a2.408,2.408,0,0,1,.048.288l.246,1.579.03.18c2.865,19.639.2,39.151-1.478,48.382" transform="translate(-151.201 -382.703)" fill="#12263f"/>
    <path id="Trazado_874542" data-name="Trazado 874542" d="M245.738,613.391s25.916,7.791,34.583,4.478,19.2-21.271,11.756-30.164-46.339,25.686-46.339,25.686" transform="translate(-167.871 -400.48)" fill="#030f1d"/>
    <path id="Trazado_874543" data-name="Trazado 874543" d="M391.978,617.269s3.188,15.692,12.255,17.261,26.033-4.89,26.033-4.89l-1.274-8.187Z" transform="translate(-267.772 -421.675)" fill="#030f1d"/>
    <path id="Trazado_874544" data-name="Trazado 874544" d="M379.952,742.319l-9,23.855c-.342-.03-.685-.06-1.021-.1l9.1-24.107a.494.494,0,0,1,.925.348" transform="translate(-252.709 -506.644)" fill="#7c7b82"/>
    <path id="Trazado_874545" data-name="Trazado 874545" d="M523.843,258.5s1.407-1.455,7.9-2.332,9.6,0,9.6,0l-4.254,7.476-5.507,1.55-5.056-2.865Z" transform="translate(-357.853 -174.733)" fill="#fff"/>
    <path id="Trazado_874546" data-name="Trazado 874546" d="M536.331,144.505c0,.424-.141,10.546-2.683,17.7s-2.824,9.941,1.977,21.4l-12.405,3.407s-5.1-11.155-5.528-15.251,0-19.769,0-19.769Z" transform="translate(-353.522 -98.716)" fill="#ffa890"/>
    <path id="Trazado_874547" data-name="Trazado 874547" d="M559.242,167.106a.495.495,0,0,1-.467-.657c1.424-4.085.009-8.824-.006-8.871a.494.494,0,0,1,.945-.289c.063.206,1.526,5.09-.006,9.486a.494.494,0,0,1-.466.331" transform="translate(-381.697 -107.21)" fill="#e28065"/>
    <path id="Trazado_874548" data-name="Trazado 874548" d="M546.148,163.137a.495.495,0,0,1-.452-.693c.621-1.41,1.15-6.842,1.3-8.816a.487.487,0,0,1,.53-.455.494.494,0,0,1,.454.53c-.023.3-.567,7.286-1.382,9.139a.5.5,0,0,1-.453.3" transform="translate(-372.752 -104.635)" fill="#e28065"/>
    <path id="Trazado_874549" data-name="Trazado 874549" d="M523.843,259.344a13.068,13.068,0,0,0,9.131,1.9c5.939-.789,8.365-4.236,8.365-4.236l.766,16.368-14.047,3.694Z" transform="translate(-357.853 -175.573)" fill="#fff"/>
    <path id="Trazado_874550" data-name="Trazado 874550" d="M210.3,313.351l-4.972,5.465s-28.1,4.154-30.841,16.585,16.059,45.279,24.636,57.141l-9.174,32.538s23.374,7.288,38.5,5.208c0,0,12.811-4.395,15.9-24.456,0,0,3.472,16.687,11.188,19.531s33.178-8.455,33.178-8.455l-18.518-37.777s1.373-40.963-4.235-54.931c-4.68-11.656-41.162-9.357-41.162-9.357Z" transform="translate(-119.011 -214.06)" fill="#aee6e6"/>
    <path id="Trazado_874551" data-name="Trazado 874551" d="M343.328,288.231a524.092,524.092,0,0,1,57.519,1.73L397.1,275.929s12.074,9.908,26.022-1.353c0,0,1.457,15.177,2.29,19.341s8.119,22.275-6.454,27.48-33.308-3.539-44.342-2.915Z" transform="translate(-234.538 -187.571)" fill="#aee6e6"/>
    <path id="Trazado_874552" data-name="Trazado 874552" d="M370.342,362.373a.495.495,0,0,1-.426-.744c5.006-8.559,8.535-22.324,9.07-24.48l-7.291-6.43a.5.5,0,0,1-.116-.59l3.526-7.1a28.057,28.057,0,0,0-9.961-6.412.494.494,0,1,1,.323-.933,28.35,28.35,0,0,1,10.6,6.932.5.5,0,0,1,.074.55l-3.508,7.062,7.23,6.377a.493.493,0,0,1,.153.485c-.036.155-3.758,15.649-9.248,25.037a.494.494,0,0,1-.427.245" transform="translate(-249.214 -215.635)" fill="#26aab7"/>
    <path id="Trazado_874553" data-name="Trazado 874553" d="M350.687,462.655a198.83,198.83,0,0,0-1.754-23.044c0-.006,0-.006-.006-.012a.5.5,0,0,0-.024-.09l-.012-.03a.32.32,0,0,0-.078-.12q-.928-1.063-1.79-2.054c-5.8-6.643-9.723-11.075-12.4-14.035-.138-.15-.27-.294-.4-.439l-.4-.438c-.847-.931-1.549-1.694-2.132-2.312-2.582-2.751-2.8-2.751-2.949-2.751a.5.5,0,0,0-.5.5.5.5,0,0,0,.324.463c.438.306,2.354,2.366,4.961,5.255.132.144.264.294.4.444s.258.288.39.433c4.066,4.522,9.477,10.684,13.645,15.477a198.243,198.243,0,0,1,1.718,22.8c.054,3.615-.024,7.351-.306,10.942v.006c-.084,1.069-.186,2.12-.306,3.159a.489.489,0,0,0,.414.54.022.022,0,0,0,.018.006.2.2,0,0,0,.06.006.668.668,0,0,0,.108-.012.5.5,0,0,0,.384-.426c.06-.492.114-1,.162-1.5a117.079,117.079,0,0,0,.462-12.768" transform="translate(-224.237 -285.091)" fill="#26aab7"/>
    <path id="Trazado_874554" data-name="Trazado 874554" d="M381.035,460.907a.493.493,0,0,1-.462-.321l-4.582-12.243a.494.494,0,1,1,.925-.346L381.5,460.24a.494.494,0,0,1-.462.667" transform="translate(-256.829 -305.821)" fill="#26aab7"/>
    <path id="Trazado_874555" data-name="Trazado 874555" d="M464.524,374.073a.494.494,0,0,1-.493-.47,54.813,54.813,0,0,0-4.5-19.3.494.494,0,0,1,.888-.433,55.862,55.862,0,0,1,4.6,19.684.5.5,0,0,1-.47.517h-.024" transform="translate(-313.886 -241.551)" fill="#26aab7"/>
    <path id="Trazado_874556" data-name="Trazado 874556" d="M527.173,334.248a.494.494,0,0,1-.474-.357L523.31,322.2a.494.494,0,0,1,.949-.275l3.388,11.689a.494.494,0,0,1-.337.612.483.483,0,0,1-.138.02" transform="translate(-357.476 -219.674)" fill="#26aab7"/>
    <path id="Trazado_874557" data-name="Trazado 874557" d="M374.851,496.9a2.648,2.648,0,1,0,2.648,2.648,2.652,2.652,0,0,0-2.648-2.648m0,4.306a1.658,1.658,0,1,1,1.658-1.658,1.657,1.657,0,0,1-1.658,1.658" transform="translate(-254.263 -339.445)" fill="#26aab7"/>
    <path id="Trazado_874558" data-name="Trazado 874558" d="M374.851,529.041a2.645,2.645,0,1,0,2.648,2.642,2.647,2.647,0,0,0-2.648-2.642m0,4.306a1.661,1.661,0,1,1,1.658-1.664,1.658,1.658,0,0,1-1.658,1.664" transform="translate(-254.263 -361.404)" fill="#26aab7"/>
    <path id="Trazado_874559" data-name="Trazado 874559" d="M374.851,564.2a2.646,2.646,0,1,0,2.648,2.649,2.653,2.653,0,0,0-2.648-2.649m0,4.306a1.661,1.661,0,1,1,1.658-1.658,1.657,1.657,0,0,1-1.658,1.658" transform="translate(-254.263 -385.421)" fill="#26aab7"/>
    <path id="Trazado_874560" data-name="Trazado 874560" d="M303.449,282.945l-17.094,1.724-1.563-22.88-.783-11.5,14.873-1.5,2.265,16.94Z" transform="translate(-194.015 -169.956)" fill="#ffa890"/>
    <path id="Trazado_874561" data-name="Trazado 874561" d="M285.412,269.869s2.553,11.058,8.978,11.594c5.678.474,7.141-6.977,7.141-6.977l-11.841-6.6Z" transform="translate(-194.974 -183.003)" fill="#d98f7a"/>
    <path id="Trazado_874562" data-name="Trazado 874562" d="M276.253,155.9c-14.986,2.544-13.28,12.595-11.175,24.993s12.225,18.683,18.286,17.77c8.792-1.324,13.792-10.46,11.687-22.858s-3.811-22.449-18.8-19.9" transform="translate(-180.147 -106.229)" fill="#ffa890"/>
    <path id="Trazado_874563" data-name="Trazado 874563" d="M250.583,232.662c2.336,2.821,5.679,3.907,7.466,2.427s1.342-4.967-.994-7.787-5.679-3.907-7.466-2.427-1.342,4.967.994,7.787" transform="translate(-169.752 -153.166)" fill="#ffa890"/>
    <path id="Trazado_874564" data-name="Trazado 874564" d="M265.091,238.693a.5.5,0,0,1-.376-.173c-2.952-3.458-.962-6.074-.942-6.1a.494.494,0,0,1,.779.608c-.067.087-1.49,2.036.915,4.851a.494.494,0,0,1-.376.815" transform="translate(-179.731 -158.643)" fill="#e28065"/>
    <path id="Trazado_874565" data-name="Trazado 874565" d="M301.093,222.407c.25,1.294-.129,2.456-.846,2.594s-1.5-.8-1.752-2.092.129-2.456.847-2.595,1.5.8,1.752,2.093" transform="translate(-203.858 -150.494)" fill="#371d14"/>
    <path id="Trazado_874566" data-name="Trazado 874566" d="M323.551,230.755a.488.488,0,0,1-.273-.083.494.494,0,0,1-.138-.685l1.276-1.913-3.215-3.586a.494.494,0,0,1,.736-.66l3.47,3.871a.5.5,0,0,1,.043.6l-1.488,2.232a.494.494,0,0,1-.412.22" transform="translate(-219.336 -152.792)" fill="#e28065"/>
    <path id="Trazado_874567" data-name="Trazado 874567" d="M321.388,249.652a4.747,4.747,0,0,1-9.114,1.761l1.932-.116a20.849,20.849,0,0,0,5.347-1.033Z" transform="translate(-213.324 -170.545)" fill="#fff"/>
    <path id="Trazado_874568" data-name="Trazado 874568" d="M287.569,200.975a3.215,3.215,0,0,1,.283-.859,5.188,5.188,0,0,1,.425-.729,6.969,6.969,0,0,1,1.11-1.229,10.686,10.686,0,0,1,1.306-.987c.458-.289.932-.548,1.414-.79a1.151,1.151,0,1,1,.782,2.149l-.011,0c-.448.1-.893.223-1.327.368a9.018,9.018,0,0,0-1.246.538,5.637,5.637,0,0,0-1.106.748,3.421,3.421,0,0,0-.782.963l-.044.09a.427.427,0,0,1-.8-.264" transform="translate(-196.442 -134.07)" fill="#f17255"/>
    <path id="Trazado_874569" data-name="Trazado 874569" d="M333.243,195.528a3.421,3.421,0,0,0-1.212-.265,5.611,5.611,0,0,0-1.331.106,8.97,8.97,0,0,0-1.31.357c-.43.158-.851.342-1.267.54l0,0a1.151,1.151,0,1,1-.992-2.077,1.207,1.207,0,0,1,.258-.087c.528-.112,1.059-.2,1.6-.265a10.636,10.636,0,0,1,1.637-.043,6.971,6.971,0,0,1,1.635.268,5.147,5.147,0,0,1,.786.3,3.2,3.2,0,0,1,.757.495.427.427,0,0,1-.462.708Z" transform="translate(-223.022 -132.377)" fill="#f17255"/>
    <path id="Trazado_874570" data-name="Trazado 874570" d="M287.944,313.351s-.583,6.316,1.706,10.85,10.516,1.1,26.632,32.207c0,0,1.4-34.8-4.242-41.353l-7.317,5.934-13.1-.316a24.138,24.138,0,0,1-3.682-7.322" transform="translate(-196.658 -214.06)" fill="#fff"/>
    <path id="Trazado_874571" data-name="Trazado 874571" d="M256.668,154.433s-7.247,1.912-8.235,6.432-5.16,24.513-12.809,27.468-1.043-5.853-1.043-5.853l4.173-15.83L242,154.433l11.155-4.52,3.512-.7s11.765.228,16.951,12.865l-1.682,2.012s-5.368-8.965-8.845-9.661a16.7,16.7,0,0,0-6.424,0" transform="translate(-158.439 -101.935)" fill="#f17255"/>
    <path id="Trazado_874572" data-name="Trazado 874572" d="M251.576,256.944a.494.494,0,0,1-.325-.866,18.96,18.96,0,0,0,2.814-3.947.494.494,0,1,1,.868.472,19.529,19.529,0,0,1-3.032,4.219.491.491,0,0,1-.325.122" transform="translate(-171.522 -172.061)" fill="#c95f47"/>
    <path id="Trazado_874573" data-name="Trazado 874573" d="M230.864,250.2a.494.494,0,0,1-.494-.494v-1.586a.494.494,0,0,1,.989,0V249.7a.494.494,0,0,1-.494.494" transform="translate(-157.373 -169.16)" fill="#c95f47"/>
    <path id="Trazado_874574" data-name="Trazado 874574" d="M304.346,145.943a.494.494,0,0,1-.494-.48c-.131-4.653-6.06-6.14-6.12-6.155a.494.494,0,1,1,.233-.96c.274.066,6.723,1.688,6.875,7.087a.494.494,0,0,1-.48.508Z" transform="translate(-203.132 -94.5)" fill="#c95f47"/>
    <path id="Trazado_874575" data-name="Trazado 874575" d="M335.81,166.327a.491.491,0,0,1-.3-.1,9.627,9.627,0,0,0-3.693-1.168.494.494,0,0,1,.122-.98,10.717,10.717,0,0,1,4.177,1.368.494.494,0,0,1-.3.884" transform="translate(-226.377 -112.082)" fill="#c95f47"/>
    <path id="Trazado_874576" data-name="Trazado 874576" d="M366.564,150.09l-6.992-15.581L297.94,159.024l0,.015c-1.315.437-2.167,2.163-1.941,4.12.248,2.156,1.7,3.76,3.249,3.582a1.911,1.911,0,0,0,.227-.059l0,.019Z" transform="translate(-202.183 -91.888)" fill="#ffd947"/>
    <path id="Trazado_874577" data-name="Trazado 874577" d="M543.389,87.025,537.275,59.49l-56.2,21.942,0,.01c-3.4,1.2-5.464,5.776-4.7,10.837.832,5.528,4.72,9.525,8.683,8.928a5.257,5.257,0,0,0,.834-.2Z" transform="translate(-325.316 -40.639)" fill="#ffd947"/>
    <path id="Trazado_874578" data-name="Trazado 874578" d="M480.693,155.984a.492.492,0,0,1-.214-.049c-2.886-1.389-5.054-4.747-5.658-8.763a13.122,13.122,0,0,1,.827-7.14.494.494,0,1,1,.9.4,12.127,12.127,0,0,0-.755,6.6c.548,3.641,2.554,6.789,5.111,8.02a.494.494,0,0,1-.215.939" transform="translate(-324.254 -95.458)" fill="#f2b55a"/>
    <path id="Trazado_874579" data-name="Trazado 874579" d="M669.423,70.112c1.168,7.754-2.392,14.72-7.953,15.557s-11.014-4.77-12.182-12.525,2.392-14.72,7.952-15.557,11.014,4.77,12.182,12.525" transform="translate(-443.397 -39.283)" fill="#f2b55a"/>
    <path id="Trazado_874580" data-name="Trazado 874580" d="M659.946,65.1l-4.6,17.217a16.6,16.6,0,0,1-1.211-4.213c-.929-6.14,1.638-11.694,5.813-13" transform="translate(-446.729 -44.471)" fill="#fff"/>
    <path id="Trazado_874581" data-name="Trazado 874581" d="M677.793,67.594,672,89.268a7.62,7.62,0,0,1-1.135-.685l5.8-21.7a8.48,8.48,0,0,1,1.128.716" transform="translate(-458.29 -45.686)" fill="#fff"/>
    <path id="Trazado_874582" data-name="Trazado 874582" d="M682.847,95.11a6.445,6.445,0,0,1-2.026-.023L686.344,74.4a14.972,14.972,0,0,1,3.261,7.481c.99,6.59-2.034,12.509-6.757,13.225" transform="translate(-465.089 -50.828)" fill="#fff"/>
    <path id="Trazado_874583" data-name="Trazado 874583" d="M668.125,65.038l-5.8,21.7a12.356,12.356,0,0,1-3.961-5.051l4.6-17.217a5.474,5.474,0,0,1,.944-.221,6.766,6.766,0,0,1,4.213.785" transform="translate(-449.75 -43.847)" fill="#fff"/>
    <path id="Trazado_874584" data-name="Trazado 874584" d="M681.992,70.807l-5.523,20.683a7.252,7.252,0,0,1-2.019-.678l5.79-21.674a10.325,10.325,0,0,1,1.752,1.668" transform="translate(-460.737 -47.231)" fill="#fff"/>
    <path id="Trazado_874585" data-name="Trazado 874585" d="M326.655,216.874s5.077-10.819,5.927-18.355,3.185-16.811,5.746-21.884,5.413-9.366,6.642-9.059c1.336.334-.937,4.953-1.781,6.642,0,0,6.368-9.1,7.551-8.566,1.838.828-2.087,5.742-4.784,10.983,0,0,6.332-6.339,7.74-5.776s-3.8,6.4-3.8,6.4-3.8,4.487-4.362,8.047c0,0,3.458-4.551,6.835-5.882,0,0,3.51-1.526,4.008-.578.539,1.024-2.119,2.608-3.551,3.447-1.4.819-4.3,3.383-4.738,6.562,0,0,.168,8.04-1.958,11.913s-13.212,20.5-13.212,20.5Z" transform="translate(-223.148 -113.147)" fill="#ffa890"/>
    <path id="Trazado_874586" data-name="Trazado 874586" d="M307.311,297.721c.3-.1,7.354-12.225,7.354-12.225s9.911,4.5,12.5,10.036L321,307.568Z" transform="translate(-209.933 -195.031)" fill="#fff"/>
    <path id="Trazado_874587" data-name="Trazado 874587" d="M236.423,303.945,214.25,340.37l-10.736,9.29s19.319,15.638,29.849,13.771,13.6-10.036,15.1-15.871,7.8-31.042,7.8-31.042-7.936-9.972-19.839-12.572" transform="translate(-139.026 -207.634)" fill="#aee6e6"/>
    <path id="Trazado_874588" data-name="Trazado 874588" d="M236.329,361.44a.494.494,0,0,1-.421-.751L251.971,334.3a.494.494,0,1,1,.843.513L236.752,361.2a.493.493,0,0,1-.422.237" transform="translate(-161.107 -228.21)" fill="#26aab7"/>
    <path id="Trazado_874589" data-name="Trazado 874589" d="M230.435,419.505c-10.826,0-27.548-13.43-28.3-14.036a.494.494,0,1,1,.622-.768c.191.155,19.277,15.469,29.452,13.669,9.954-1.765,13.088-9.215,14.706-15.508.837-3.26,3.108-12.306,4.388-17.408a.494.494,0,1,1,.958.24c-1.279,5.1-3.55,14.151-4.389,17.413-1.56,6.067-4.863,14.35-15.49,16.235a11.159,11.159,0,0,1-1.949.163" transform="translate(-137.961 -263.06)" fill="#26aab7"/>
    <path id="Trazado_874590" data-name="Trazado 874590" d="M259.892,573.864a.493.493,0,0,1-.4-.2l-8.141-11.167a.494.494,0,1,1,.8-.582l8.141,11.167a.494.494,0,0,1-.4.785" transform="translate(-171.64 -383.72)" fill="#26aab7"/>
    <path id="Trazado_874591" data-name="Trazado 874591" d="M471.509,529.535a.453.453,0,0,1-.077-.006.494.494,0,0,1-.412-.564l1.435-9.159a.494.494,0,0,1,.977.153L472,529.117a.494.494,0,0,1-.488.418" transform="translate(-321.764 -354.809)" fill="#26aab7"/>
    <path id="Trazado_874592" data-name="Trazado 874592" d="M503.847,190.727a64.991,64.991,0,0,1-2.287-9.579,22.581,22.581,0,0,0-3.918-10.091c-1.223-1.534-2.281-3.49-1.278-3.97.773-.369,4.623,1.06,9.4,10.823s-1.913,12.818-1.913,12.818" transform="translate(-338.808 -114.107)" fill="#ffa890"/>
    <path id="Trazado_874593" data-name="Trazado 874593" d="M523.353,194.532a.493.493,0,0,1-.41-.217l-5.16-7.64a.494.494,0,0,1,.818-.553l5.16,7.64a.494.494,0,0,1-.408.77" transform="translate(-353.655 -126.997)" fill="#e28065"/>
    <path id="Trazado_874594" data-name="Trazado 874594" d="M363.064,201.426a.494.494,0,0,1-.466-.658,35.909,35.909,0,0,1,4.735-9.4.494.494,0,0,1,.781.6,35.676,35.676,0,0,0-4.584,9.126.494.494,0,0,1-.466.33" transform="translate(-247.682 -130.596)" fill="#e28065"/>
    <path id="Trazado_874595" data-name="Trazado 874595" d="M372.6,208.468a.495.495,0,0,1-.477-.624c1.661-6.1,4.424-8.791,4.54-8.9a.494.494,0,0,1,.683.714c-.027.025-2.687,2.636-4.269,8.448a.5.5,0,0,1-.477.364" transform="translate(-254.197 -135.809)" fill="#e28065"/>
    <path id="Trazado_874596" data-name="Trazado 874596" d="M341.075,243.155a.48.48,0,0,1-.151-.024.493.493,0,0,1-.319-.621c.288-.9.933-4.872,1.233-6.846a107.518,107.518,0,0,1,2.68-12.511.494.494,0,0,1,.951.267,106.528,106.528,0,0,0-2.653,12.382c-.038.247-.886,5.812-1.271,7.01a.494.494,0,0,1-.47.343" transform="translate(-232.661 -152.196)" fill="#e28065"/>
  </g>
</svg>
