<svg xmlns="http://www.w3.org/2000/svg" xmlns:xlink="http://www.w3.org/1999/xlink" width="78.501" height="67.824" viewBox="0 0 78.501 67.824">
  <defs>
    <clipPath id="clip-path">
      <rect id="Rectángulo_401730" data-name="Rectángulo 401730" width="58" height="58" transform="translate(420 7733)" fill="#fff" stroke="#707070" stroke-width="1"/>
    </clipPath>
  </defs>
  <g id="Grupo_1100317" data-name="Grupo 1100317" transform="translate(-410 -7733)">
    <path id="_12068" data-name="12068" d="M72.033,71.913c-8.038-1.11-16.53-.839-23.844,2.675C38.045,79.46,31.382,90.507,31.127,101.757s5.606,22.305,14.66,28.988,21,9.051,32.068,7.045c11.165-2.023,21.645-8.583,27.469-18.322,3.735-6.245,5.48-13.956,3.417-20.934a28.6,28.6,0,0,0-6.787-11.156A50.145,50.145,0,0,0,72.033,71.913Z" transform="translate(378.881 7662.343)" fill="#7d6eb2"/>
    <g id="Enmascarar_grupo_1098749" data-name="Enmascarar grupo 1098749" clip-path="url(#clip-path)">
      <g id="pago-por-clic" transform="translate(420.016 7733.017)">
        <g id="Grupo_1100325" data-name="Grupo 1100325">
          <path id="Trazado_875157" data-name="Trazado 875157" d="M9.623.906H48.346A3.145,3.145,0,0,1,51.48,4.04v35.8a3.145,3.145,0,0,1-3.134,3.134H9.623a3.146,3.146,0,0,1-3.137-3.134V4.04A3.146,3.146,0,0,1,9.623.906Z" fill="#ebf5fc" fill-rule="evenodd"/>
          <path id="Trazado_875158" data-name="Trazado 875158" d="M9.623.906H48.346A3.145,3.145,0,0,1,51.48,4.04v4.5H6.486V4.04A3.146,3.146,0,0,1,9.623.906Z" fill="#26aab7" fill-rule="evenodd"/>
          <path id="Trazado_875159" data-name="Trazado 875159" d="M29.137,19.83a6.959,6.959,0,1,1-6.957-6.957A6.957,6.957,0,0,1,29.137,19.83Z" fill="#ffd400" fill-rule="evenodd"/>
          <path id="Trazado_875160" data-name="Trazado 875160" d="M43.052,19.83A6.957,6.957,0,1,1,36.1,12.873,6.957,6.957,0,0,1,43.052,19.83Z" fill="#ffd400" fill-rule="evenodd"/>
          <path id="Trazado_875161" data-name="Trazado 875161" d="M22.9,25.654H35.374a1.761,1.761,0,0,1,1.759,1.759v4.75a1.761,1.761,0,0,1-1.759,1.759H22.9a1.764,1.764,0,0,1-1.763-1.759v-4.75A1.765,1.765,0,0,1,22.9,25.654Z" fill="#26aab7" fill-rule="evenodd"/>
          <path id="Trazado_875162" data-name="Trazado 875162" d="M8.523,8.535V39.844a3.145,3.145,0,0,0,3.134,3.134H9.623a3.146,3.146,0,0,1-3.137-3.134V8.535Z" fill="#d4dde3" fill-rule="evenodd"/>
          <path id="Trazado_875163" data-name="Trazado 875163" d="M9.623.906h2.033A3.144,3.144,0,0,0,8.523,4.04v4.5H6.486V4.04A3.146,3.146,0,0,1,9.623.906Z" fill="#0d8e9b" fill-rule="evenodd"/>
          <path id="Trazado_875164" data-name="Trazado 875164" d="M21.434,40.26a1.437,1.437,0,0,1,1.964.525l2.117,3.672v-12.2a1.438,1.438,0,0,1,2.876,0v3.755a1.438,1.438,0,0,1,2.876,0v1.766a1.438,1.438,0,1,1,2.876,0V39.05a1.437,1.437,0,1,1,2.873,0v9.3a4.9,4.9,0,0,1-.388,1.964L35.483,53.1v2.1H25.515v-3.6a4.943,4.943,0,0,0-.691-2.58l-3.917-6.786A1.444,1.444,0,0,1,21.434,40.26Z" fill="#fbbd80" fill-rule="evenodd"/>
          <path id="Trazado_875165" data-name="Trazado 875165" d="M24.137,53.1H36.858a.4.4,0,0,1,.392.392v3.177a.4.4,0,0,1-.392.4H24.137a.4.4,0,0,1-.392-.4V53.488A.394.394,0,0,1,24.137,53.1Z" fill="#aee6e6" fill-rule="evenodd"/>
          <path id="Trazado_875166" data-name="Trazado 875166" d="M24.137,53.1h.821a.4.4,0,0,0-.392.392v3.177a.4.4,0,0,0,.392.4h-.821a.4.4,0,0,1-.392-.4V53.488A.394.394,0,0,1,24.137,53.1Z" fill="#0584e3" fill-rule="evenodd"/>
          <path id="Trazado_875167" data-name="Trazado 875167" d="M21.434,40.26a1.579,1.579,0,0,1,1.166-.125,1.769,1.769,0,0,0-.317.125,1.44,1.44,0,0,0-.525,1.964l3.917,6.786a4.956,4.956,0,0,1,.691,2.58v1.5h-.849v-1.5a4.943,4.943,0,0,0-.691-2.58l-3.917-6.786a1.443,1.443,0,0,1,.525-1.965Zm4.081,2.73V32.255a1.442,1.442,0,0,1,1.861-1.374,1.446,1.446,0,0,0-1.013,1.374v12.2Z" fill="#e2aa73" fill-rule="evenodd"/>
          <path id="Trazado_875168" data-name="Trazado 875168" d="M22.9,25.654h.973a1.763,1.763,0,0,0-1.759,1.759v4.75a1.763,1.763,0,0,0,1.759,1.759H22.9a1.764,1.764,0,0,1-1.763-1.759v-4.75A1.765,1.765,0,0,1,22.9,25.654Z" fill="#65c43a" fill-rule="evenodd"/>
        </g>
        <path id="Trazado_875169" data-name="Trazado 875169" d="M48.362-.017H9.6A4.047,4.047,0,0,0,5.56,4.024V39.861A4.049,4.049,0,0,0,9.6,43.9H20.82l3.222,5.58a4.035,4.035,0,0,1,.569,2.125v.6H24.14a1.3,1.3,0,0,0-1.3,1.3v3.177a1.3,1.3,0,0,0,1.3,1.3H36.858a1.3,1.3,0,0,0,1.3-1.3V53.51a1.3,1.3,0,0,0-1.3-1.3h-.025l.631-1.53a5.8,5.8,0,0,0,.456-2.312V43.9H48.363a4.049,4.049,0,0,0,4.044-4.044V4.024A4.049,4.049,0,0,0,48.362-.017ZM9.6,1.792H48.362A2.235,2.235,0,0,1,50.6,4.023V7.617H7.37V4.024A2.235,2.235,0,0,1,9.6,1.792ZM36.343,56.174H24.653v-2.15H36.344v2.15Zm-9.922-3.96v-.6a5.832,5.832,0,0,0-.812-3.03l-3.918-6.787a.533.533,0,0,1,.923-.533l2.118,3.672a.905.905,0,0,0,1.689-.452v-12.2a.533.533,0,0,1,1.066,0V41.72a.9.9,0,0,0,1.809,0V36.036a.534.534,0,0,1,.533-.533.54.54,0,0,1,.533.533V42.5a.9.9,0,1,0,1.809,0V37.8a.532.532,0,1,1,1.063,0v6.271a.9.9,0,0,0,1.809,0v-5a.533.533,0,0,1,1.066,0v9.3A4.021,4.021,0,0,1,35.791,50l-.915,2.219H26.421ZM37.446,25.737a2.675,2.675,0,0,0-1.16-.826.9.9,0,0,0,.665-.872V23.56l.035-.01a2.262,2.262,0,0,0,1.5-1.633,2.239,2.239,0,0,0-.548-2.068,3.1,3.1,0,0,0-1.4-.786.952.952,0,0,0-.213-.086,1.871,1.871,0,0,1-.872-.386.427.427,0,0,1-.085-.387.467.467,0,0,1,.329-.339,1.186,1.186,0,0,1,1.233.229.9.9,0,0,0,1.433-1.1,2.54,2.54,0,0,0-1.41-.907v-.469a.9.9,0,1,0-1.809,0v.53l-.035.01a2.259,2.259,0,0,0-1.5,1.634,2.233,2.233,0,0,0,.549,2.064,3.1,3.1,0,0,0,1.4.788.888.888,0,0,0,.226.092,1.919,1.919,0,0,1,.868.379.433.433,0,0,1,.085.388.464.464,0,0,1-.331.339,1.184,1.184,0,0,1-1.233-.23.9.9,0,1,0-1.433,1.1,2.542,2.542,0,0,0,1.41.908v.417a.9.9,0,0,0,.352.716c-.038,0-.076,0-.114,0h-2.8a6.055,6.055,0,1,1,4.868.988Zm-7.487-.985H28.311a7.842,7.842,0,0,0,.824-1.256A7.972,7.972,0,0,0,29.959,24.752Zm-4.263,0h-2.8c-.079,0-.157,0-.234.011a.9.9,0,0,0,.362-.723v-.48l.031-.009a2.266,2.266,0,0,0,.958-3.7,3.071,3.071,0,0,0-1.4-.788.93.93,0,0,0-.216-.087,1.883,1.883,0,0,1-.872-.384.429.429,0,0,1-.085-.389.465.465,0,0,1,.331-.337A1.19,1.19,0,0,1,23,18.1a.9.9,0,1,0,1.43-1.108,2.56,2.56,0,0,0-1.408-.9v-.47a.9.9,0,0,0-1.809,0v.53l-.034.01a2.265,2.265,0,0,0-.954,3.7,3.122,3.122,0,0,0,1.391.783.914.914,0,0,0,.23.093,1.875,1.875,0,0,1,.866.379.429.429,0,0,1,.085.389.465.465,0,0,1-.331.337,1.19,1.19,0,0,1-1.234-.231.905.905,0,1,0-1.431,1.11,2.554,2.554,0,0,0,1.412.906v.417a.9.9,0,0,0,.731.888,2.681,2.681,0,0,0-1.119.811,6.067,6.067,0,1,1,4.873-.985Zm-3.66,2.666a.869.869,0,0,1,.857-.857H35.377a.869.869,0,0,1,.857.857v4.756a.858.858,0,0,1-.857.857H29.3v-.754a2.342,2.342,0,0,0-4.685,0v.754H22.893a.858.858,0,0,1-.857-.857ZM48.362,42.094H37.919V39.072a2.343,2.343,0,0,0-3.076-2.225,2.341,2.341,0,0,0-2.726-1.317,2.348,2.348,0,0,0-.274-.687h3.536a2.671,2.671,0,0,0,2.667-2.667V27.455a7.869,7.869,0,1,0-8.908-11.283,7.868,7.868,0,1,0-8.909,11.283v4.721A2.671,2.671,0,0,0,22.9,34.843h1.717V41.1l-.429-.745a2.335,2.335,0,0,0-3.152-.883l-.051.027a2.353,2.353,0,0,0-1.1,2.595H9.6A2.236,2.236,0,0,1,7.37,39.861V9.427H50.6V39.861a2.236,2.236,0,0,1-2.234,2.234ZM25.566,4.706a.9.9,0,0,1,.9-.9H46.785a.9.9,0,0,1,0,1.809H26.472a.9.9,0,0,1-.906-.9Zm-6.292,0a.9.9,0,0,1,.9-.9H21a.9.9,0,0,1,0,1.809h-.825A.9.9,0,0,1,19.274,4.706Zm-4.5,0a.9.9,0,0,1,.9-.9H16.5a.9.9,0,0,1,0,1.809h-.825A.9.9,0,0,1,14.775,4.706Zm-4.5,0a.9.9,0,0,1,.9-.9H12a.9.9,0,0,1,0,1.809h-.825A.9.9,0,0,1,10.274,4.706Z"/>
      </g>
    </g>
  </g>
</svg>
