<svg xmlns="http://www.w3.org/2000/svg" xmlns:xlink="http://www.w3.org/1999/xlink" width="78.501" height="67.824" viewBox="0 0 78.501 67.824">
  <defs>
    <clipPath id="clip-path">
      <rect id="Rectángulo_401730" data-name="Rectángulo 401730" width="58" height="58" transform="translate(420 7733)" fill="#fff" stroke="#707070" stroke-width="1"/>
    </clipPath>
  </defs>
  <g id="Grupo_1100314" data-name="Grupo 1100314" transform="translate(-410 -7733)">
    <path id="_12068" data-name="12068" d="M72.033,71.913c-8.038-1.11-16.53-.839-23.844,2.675C38.045,79.46,31.382,90.507,31.127,101.757s5.606,22.305,14.66,28.988,21,9.051,32.068,7.045c11.165-2.023,21.645-8.583,27.469-18.322,3.735-6.245,5.48-13.956,3.417-20.934a28.6,28.6,0,0,0-6.787-11.156A50.145,50.145,0,0,0,72.033,71.913Z" transform="translate(378.881 7662.343)" fill="#7d6eb2"/>
    <g id="Enmascarar_grupo_1098746" data-name="Enmascarar grupo 1098746" clip-path="url(#clip-path)">
      <g id="las-compras-en-linea" transform="translate(420 7733)">
        <rect id="Rectángulo_401731" data-name="Rectángulo 401731" width="20.17" height="4.531" transform="translate(15.967 52.336)" fill="#7d9bff"/>
        <rect id="Rectángulo_401732" data-name="Rectángulo 401732" width="9.063" height="6.117" transform="translate(21.52 46.219)" fill="#edf2fa"/>
        <rect id="Rectángulo_401733" data-name="Rectángulo 401733" width="49.829" height="6.569" transform="translate(1.027 39.65)" fill="#7d9bff"/>
        <g id="Grupo_1100322" data-name="Grupo 1100322">
          <rect id="Rectángulo_401734" data-name="Rectángulo 401734" width="5.324" height="28.888" transform="translate(1.133 10.762)" fill="#72d8ff"/>
          <rect id="Rectángulo_401735" data-name="Rectángulo 401735" width="5.172" height="17.328" transform="translate(45.578 10.762)" fill="#72d8ff"/>
        </g>
        <rect id="Rectángulo_401736" data-name="Rectángulo 401736" width="38.969" height="31.134" transform="translate(6.457 8.515)" fill="#fff"/>
        <path id="Trazado_875102" data-name="Trazado 875102" d="M56.867,34.061c0,.161-6.112,8.6-13.65,8.6s-13.65-8.49-13.65-8.6c0-.161,6.112-8.6,13.65-8.6S56.867,33.954,56.867,34.061Z" fill="#c9f3ff"/>
        <circle id="Elipse_11626" data-name="Elipse 11626" cx="4.663" cy="4.663" r="4.663" transform="translate(38.556 29.395)" fill="#ffb954"/>
        <path id="Trazado_875103" data-name="Trazado 875103" d="M13.571,1.133V5.468a4.123,4.123,0,0,0,8.247,0V1.133Z" fill="#d8fb93"/>
        <path id="Trazado_875104" data-name="Trazado 875104" d="M5.324,1.133V5.468a4.123,4.123,0,1,0,8.247,0V1.133Z" fill="#a0e557"/>
        <path id="Trazado_875105" data-name="Trazado 875105" d="M30.065,1.133V5.468a4.123,4.123,0,1,0,8.247,0V1.133Z" fill="#d8fb93"/>
        <g id="Grupo_1100323" data-name="Grupo 1100323">
          <path id="Trazado_875106" data-name="Trazado 875106" d="M21.818,1.133V5.468a4.123,4.123,0,1,0,8.247,0V1.133Z" fill="#a0e557"/>
          <path id="Trazado_875107" data-name="Trazado 875107" d="M38.312,1.133V5.468a4.123,4.123,0,1,0,8.247,0V1.133Z" fill="#a0e557"/>
        </g>
        <rect id="Rectángulo_401737" data-name="Rectángulo 401737" width="10.875" height="10.875" transform="translate(11.441 14.539)" fill="#ff5d5d"/>
        <path id="Trazado_875108" data-name="Trazado 875108" d="M56.657,31.938a28.983,28.983,0,0,0-3.047-3.073q-.857-.741-1.727-1.365V10.761A1.133,1.133,0,0,0,50.75,9.629H46.559V8.722a5.229,5.229,0,0,0,1.133-3.254V1.133A1.133,1.133,0,0,0,46.559,0H5.324A1.133,1.133,0,0,0,4.191,1.133V5.468A5.229,5.229,0,0,0,5.324,8.722v.907H1.133A1.133,1.133,0,0,0,0,10.761V46.219a1.133,1.133,0,0,0,1.133,1.133H20.282V51.2H15.861a1.133,1.133,0,0,0-1.133,1.133v4.532A1.133,1.133,0,0,0,15.861,58H36.03a1.133,1.133,0,0,0,1.133-1.133V52.335A1.133,1.133,0,0,0,36.03,51.2H31.61V47.352H50.75a1.133,1.133,0,0,0,1.133-1.133V40.635c.632-.452,1.211-.914,1.725-1.358a28.39,28.39,0,0,0,3.05-3.072C58,34.624,58,34.376,58,34.061S58,33.515,56.657,31.938Zm-7.04-20.043V26.082a15.77,15.77,0,0,0-3.059-1.259V11.894ZM29.777,36.184A29.211,29.211,0,0,0,32,38.515H7.59V10.384a5.246,5.246,0,0,0,5.981-1.662,5.247,5.247,0,0,0,8.247,0,5.247,5.247,0,0,0,8.247,0,5.247,5.247,0,0,0,8.247,0,5.246,5.246,0,0,0,5.981,1.662v14c-.361-.035-.72-.053-1.076-.053-4.261,0-8,2.454-10.392,4.513a28.379,28.379,0,0,0-3.05,3.073c-1.342,1.58-1.342,1.829-1.342,2.144S28.434,34.607,29.777,36.184ZM45.426,5.468a2.991,2.991,0,1,1-5.981,0v-3.2h5.981Zm-8.247,0a2.991,2.991,0,1,1-5.981,0v-3.2h5.981Zm-8.247,0a2.991,2.991,0,1,1-5.981,0v-3.2h5.981v3.2Zm-8.247,0a2.991,2.991,0,1,1-5.981,0v-3.2h5.981v3.2ZM6.457,2.266h5.981v3.2a2.991,2.991,0,1,1-5.981,0ZM5.324,11.894V38.515H2.266V11.894ZM34.9,55.734h-17.9V53.468H34.9v2.266ZM29.344,51.2h-6.8V47.352h6.8Zm20.273-6.117H2.266v-4.3h32.51a14.908,14.908,0,0,0,8.441,3.009,13.681,13.681,0,0,0,6.4-1.743Zm-6.4-3.561c-5.857,0-10.836-5.688-12.26-7.487,1.508-1.956,6.6-7.441,12.26-7.441,5.857,0,10.836,5.688,12.26,7.487C53.969,36.039,48.874,41.525,43.217,41.525Z"/>
        <path id="Trazado_875109" data-name="Trazado 875109" d="M43.219,28.263a5.8,5.8,0,1,0,5.8,5.8A5.8,5.8,0,0,0,43.219,28.263Zm0,9.326a3.53,3.53,0,1,1,3.53-3.53A3.534,3.534,0,0,1,43.219,37.589Z"/>
        <path id="Trazado_875110" data-name="Trazado 875110" d="M43.217,32.927a1.133,1.133,0,1,0,.8.332A1.141,1.141,0,0,0,43.217,32.927Z"/>
        <path id="Trazado_875111" data-name="Trazado 875111" d="M11.441,26.546H22.316a1.133,1.133,0,0,0,1.133-1.133V14.539a1.133,1.133,0,0,0-1.133-1.133H11.441a1.133,1.133,0,0,0-1.133,1.133V25.414A1.133,1.133,0,0,0,11.441,26.546Zm1.133-10.875h8.609v8.609H12.574Z"/>
        <path id="Trazado_875112" data-name="Trazado 875112" d="M40.441,15.671a1.133,1.133,0,1,0-.8-.332A1.141,1.141,0,0,0,40.441,15.671Z"/>
        <path id="Trazado_875113" data-name="Trazado 875113" d="M28.434,15.671h7.25a1.133,1.133,0,0,0,0-2.266h-7.25a1.133,1.133,0,0,0,0,2.266Z"/>
        <path id="Trazado_875114" data-name="Trazado 875114" d="M28.434,20.2H40.441a1.133,1.133,0,0,0,0-2.266H28.434a1.133,1.133,0,0,0,0,2.266Z"/>
        <path id="Trazado_875115" data-name="Trazado 875115" d="M34.174,23.6a1.133,1.133,0,0,0-1.133-1.133H28.434a1.133,1.133,0,0,0,0,2.266h4.607A1.133,1.133,0,0,0,34.174,23.6Z"/>
        <path id="Trazado_875116" data-name="Trazado 875116" d="M23.449,34.25H11.441a1.133,1.133,0,0,0,0,2.266H23.449a1.133,1.133,0,0,0,0-2.266Z"/>
        <path id="Trazado_875117" data-name="Trazado 875117" d="M11.441,31.984a1.133,1.133,0,1,0-.8-.332A1.141,1.141,0,0,0,11.441,31.984Z"/>
        <path id="Trazado_875118" data-name="Trazado 875118" d="M23.449,29.718H15.967a1.133,1.133,0,0,0,0,2.266h7.483a1.133,1.133,0,0,0,0-2.266Z"/>
      </g>
    </g>
  </g>
</svg>
