<svg xmlns="http://www.w3.org/2000/svg" xmlns:xlink="http://www.w3.org/1999/xlink" width="521.057" height="334.9" viewBox="0 0 521.057 334.9">
  <defs>
    <clipPath id="clip-path">
      <rect id="Rectángulo_401788" data-name="Rectángulo 401788" width="390.83" height="325.811" fill="none"/>
    </clipPath>
    <clipPath id="clip-path-3">
      <rect id="Rectángulo_401782" data-name="Rectángulo 401782" width="67.192" height="34.548" transform="translate(150.182 279.79)" fill="none"/>
    </clipPath>
  </defs>
  <g id="Grupo_1101626" data-name="Grupo 1101626" transform="translate(-2763.472 2402)">
    <g id="Grupo_1100497" data-name="Grupo 1100497">
      <path id="Rectángulo_401781" data-name="Rectángulo 401781" d="M53,0H476.057a45,45,0,0,1,45,45V222.679a0,0,0,0,1,0,0H0a0,0,0,0,1,0,0V53A53,53,0,0,1,53,0Z" transform="translate(2763.472 -2289.779)" fill="#aee6e6"/>
      <g id="Grupo_1100476" data-name="Grupo 1100476" transform="translate(2837.566 -2402)">
        <g id="Grupo_1100475" data-name="Grupo 1100475" clip-path="url(#clip-path)">
          <g id="Grupo_1100472" data-name="Grupo 1100472">
            <g id="Grupo_1100471" data-name="Grupo 1100471" clip-path="url(#clip-path)">
              <path id="Trazado_875560" data-name="Trazado 875560" d="M213.7,300.109V279.79H153.856v20.319a29.42,29.42,0,0,1-6.355,18.264l-2.621,3.31h77.8l-2.621-3.31a29.421,29.421,0,0,1-6.356-18.264" fill="#fff"/>
              <path id="Trazado_875561" data-name="Trazado 875561" d="M222.676,322.183h-77.8a.5.5,0,0,1-.392-.811l2.62-3.309a29.036,29.036,0,0,0,6.248-17.954v-20.32a.5.5,0,0,1,.5-.5H213.7a.5.5,0,0,1,.5.5v20.32a29.043,29.043,0,0,0,6.247,17.954l2.62,3.309a.5.5,0,0,1-.391.811m-76.763-1h75.729l-1.978-2.5a30.043,30.043,0,0,1-6.464-18.575v-19.82H154.356v19.82a30.047,30.047,0,0,1-6.464,18.575Z" fill="#263238"/>
              <g id="Grupo_1100470" data-name="Grupo 1100470" style="mix-blend-mode: multiply;isolation: isolate">
                <g id="Grupo_1100469" data-name="Grupo 1100469">
                  <g id="Grupo_1100468" data-name="Grupo 1100468" clip-path="url(#clip-path-3)">
                    <path id="Trazado_875562" data-name="Trazado 875562" d="M150.182,314.338h67.191a29.418,29.418,0,0,1-3.674-14.229V279.79H153.856v20.319a29.418,29.418,0,0,1-3.674,14.229" fill="#7d6eb2"/>
                  </g>
                </g>
              </g>
              <path id="Trazado_875563" data-name="Trazado 875563" d="M295.551,286.2H72.006a8.485,8.485,0,0,1-8.485-8.484V114.3a8.484,8.484,0,0,1,8.485-8.484H295.551a8.483,8.483,0,0,1,8.483,8.484V277.713a8.484,8.484,0,0,1-8.483,8.484" fill="#263238"/>
              <path id="Trazado_875564" data-name="Trazado 875564" d="M295.551,286.7H72a8.995,8.995,0,0,1-8.983-8.985V114.3A8.994,8.994,0,0,1,72,105.312H295.551a8.994,8.994,0,0,1,8.984,8.984V277.712a8.995,8.995,0,0,1-8.984,8.985M72,106.312a7.993,7.993,0,0,0-7.983,7.984V277.712A7.993,7.993,0,0,0,72,285.7H295.551a7.994,7.994,0,0,0,7.984-7.985V114.3a7.994,7.994,0,0,0-7.984-7.984Z" fill="#263238"/>
              <path id="Trazado_875565" data-name="Trazado 875565" d="M295.551,286.2H72.006a8.485,8.485,0,0,1-8.485-8.484V258.158H304.034v19.555a8.484,8.484,0,0,1-8.483,8.484" fill="#fff"/>
              <path id="Trazado_875566" data-name="Trazado 875566" d="M295.551,286.7H72a8.994,8.994,0,0,1-8.983-8.984V258.159a.5.5,0,0,1,.5-.5H304.035a.5.5,0,0,1,.5.5v19.554a8.995,8.995,0,0,1-8.984,8.984M64.021,258.659v19.054A7.993,7.993,0,0,0,72,285.7H295.551a7.994,7.994,0,0,0,7.984-7.984V258.659Z" fill="#263238"/>
              <rect id="Rectángulo_401783" data-name="Rectángulo 401783" width="216.318" height="127.442" transform="translate(75.619 117.034)" fill="#fff"/>
              <path id="Trazado_875567" data-name="Trazado 875567" d="M291.937,244.976H75.619a.5.5,0,0,1-.5-.5V117.034a.5.5,0,0,1,.5-.5H291.937a.5.5,0,0,1,.5.5V244.476a.5.5,0,0,1-.5.5m-215.818-1H291.436V117.534H76.119Z" fill="#263238"/>
              <path id="Trazado_875568" data-name="Trazado 875568" d="M188.214,272.178a4.436,4.436,0,1,0-4.436,4.436,4.436,4.436,0,0,0,4.436-4.436" fill="#263238"/>
              <path id="Trazado_875569" data-name="Trazado 875569" d="M183.778,277.114a4.936,4.936,0,1,1,4.936-4.936,4.943,4.943,0,0,1-4.936,4.936m0-8.872a3.936,3.936,0,1,0,3.936,3.936,3.941,3.941,0,0,0-3.936-3.936" fill="#263238"/>
              <rect id="Rectángulo_401784" data-name="Rectángulo 401784" width="77.813" height="3.628" transform="translate(144.88 321.683)" fill="#fff"/>
              <path id="Trazado_875570" data-name="Trazado 875570" d="M222.692,325.811H144.88a.5.5,0,0,1-.5-.5v-3.628a.5.5,0,0,1,.5-.5h77.812a.5.5,0,0,1,.5.5v3.628a.5.5,0,0,1-.5.5m-77.312-1h76.813v-2.628H145.38Z" fill="#263238"/>
              <rect id="Rectángulo_401785" data-name="Rectángulo 401785" width="212.585" height="11.171" transform="translate(77.321 126.019)" fill="#fff"/>
              <path id="Trazado_875571" data-name="Trazado 875571" d="M289.906,137.69H77.321a.5.5,0,0,1-.5-.5V126.019a.5.5,0,0,1,.5-.5H289.906a.5.5,0,0,1,.5.5V137.19a.5.5,0,0,1-.5.5m-212.085-1H289.406V126.519H77.821Z" fill="#263238"/>
              <path id="Trazado_875572" data-name="Trazado 875572" d="M112.392,137.19l-2.543-6.9H77.321V239.047H289.906V137.19Z" fill="#7d6eb2"/>
              <path id="Trazado_875573" data-name="Trazado 875573" d="M289.906,239.547H77.321a.5.5,0,0,1-.5-.5V130.29a.5.5,0,0,1,.5-.5h32.528a.5.5,0,0,1,.469.327l2.423,6.573H289.906a.5.5,0,0,1,.5.5V239.047a.5.5,0,0,1-.5.5m-212.085-1H289.406V137.69H112.392a.5.5,0,0,1-.468-.328L109.5,130.79H77.821Z" fill="#263238"/>
              <path id="Trazado_875574" data-name="Trazado 875574" d="M234.22,188.694H134.541a1,1,0,0,1,0-2H234.22a1,1,0,0,1,0,2" fill="#263238"/>
              <path id="Trazado_875575" data-name="Trazado 875575" d="M234.22,198.5H134.541a1,1,0,0,1,0-2H234.22a1,1,0,1,1,0,2" fill="#263238"/>
              <path id="Trazado_875576" data-name="Trazado 875576" d="M234.22,208.3H134.541a1,1,0,0,1,0-2H234.22a1,1,0,1,1,0,2" fill="#263238"/>
              <path id="Trazado_875577" data-name="Trazado 875577" d="M234.22,218.107H134.541a1,1,0,1,1,0-2H234.22a1,1,0,0,1,0,2" fill="#263238"/>
              <path id="Trazado_875578" data-name="Trazado 875578" d="M228.943,161.568h-90.33a7.09,7.09,0,0,1,0-14.181h90.33a7.09,7.09,0,1,1,0,14.181" fill="#fff"/>
              <path id="Trazado_875579" data-name="Trazado 875579" d="M228.942,162.068H138.613a7.591,7.591,0,1,1,0-15.182h90.329a7.591,7.591,0,1,1,0,15.182m-90.329-14.182a6.591,6.591,0,1,0,0,13.182h90.329a6.591,6.591,0,1,0,0-13.182Z" fill="#263238"/>
              <path id="Trazado_875580" data-name="Trazado 875580" d="M228.943,161.568H216.611V147.387h12.332a7.09,7.09,0,1,1,0,14.181" fill="#263238"/>
              <path id="Trazado_875581" data-name="Trazado 875581" d="M228.942,162.068H216.611a.5.5,0,0,1-.5-.5V147.386a.5.5,0,0,1,.5-.5h12.331a7.591,7.591,0,1,1,0,15.182m-11.831-1h11.831a6.591,6.591,0,1,0,0-13.182H217.111Z" fill="#263238"/>
              <path id="Trazado_875582" data-name="Trazado 875582" d="M226.2,149.185a4.071,4.071,0,1,0,.187,5.755,4.072,4.072,0,0,0-.187-5.755m-.4,5.205a3.267,3.267,0,1,1-.15-4.618,3.267,3.267,0,0,1,.15,4.618" fill="#fff"/>
              <path id="Trazado_875583" data-name="Trazado 875583" d="M229.256,156.415a.674.674,0,0,0-.686-.142l-1.472-1.379a.4.4,0,0,0-.56.018l-.132.14a.4.4,0,0,0,.018.561l1.454,1.363a.678.678,0,0,0,.174.723l2.491,2.448a.88.88,0,1,0,1.2-1.284Z" fill="#fff"/>
            </g>
          </g>
          <g id="Grupo_1100474" data-name="Grupo 1100474">
            <g id="Grupo_1100473" data-name="Grupo 1100473" clip-path="url(#clip-path)">
              <path id="Trazado_875584" data-name="Trazado 875584" d="M255.081,204.309a5.826,5.826,0,0,0,3.211,3.218c1.129.465,2.632.36,4.376,1.341,3.925,2.208,13.738.245,20.853.981s16.682-7.114,16.682-7.114l28.212,1.531V176.3s-29.438,1.227-35.817-1.226-13.493-7.6-16.681-7.36-29.44,3.189-29.44,3.189l8.586,33.364Z" fill="#fff"/>
              <path id="Trazado_875585" data-name="Trazado 875585" d="M269.449,210.455c-2.892,0-5.4-.237-7.025-1.151a8.637,8.637,0,0,0-2.777-.91,8.194,8.194,0,0,1-1.546-.4,6.373,6.373,0,0,1-3.485-3.5l0,0-.016-.043-8.6-33.42a.5.5,0,0,1,.429-.622c.263-.029,26.294-2.947,29.456-3.19,2.015-.163,5.275,1.578,9.04,3.586a73.21,73.21,0,0,0,7.859,3.805c6.211,2.39,35.324,1.207,35.618,1.194a.557.557,0,0,1,.366.139.5.5,0,0,1,.154.361v27.967a.5.5,0,0,1-.156.363.451.451,0,0,1-.371.136l-28.02-1.521c-1.305,1.043-10.067,7.816-16.9,7.1a67.174,67.174,0,0,0-9.144-.029c-1.683.07-3.335.137-4.877.137m-13.9-6.331a5.357,5.357,0,0,0,2.938,2.94,7.16,7.16,0,0,0,1.355.348,9.569,9.569,0,0,1,3.077,1.021c2.241,1.261,6.675,1.08,11.371.886a67.06,67.06,0,0,1,9.288.034c6.8.714,16.219-6.926,16.313-7a.482.482,0,0,1,.345-.113l27.684,1.5V176.82c-4.1.158-29.488,1.031-35.5-1.28a74.413,74.413,0,0,1-7.971-3.856c-3.476-1.854-6.762-3.581-8.493-3.473-2.883.223-24.988,2.692-28.848,3.124Z" fill="#263238"/>
              <path id="Trazado_875586" data-name="Trazado 875586" d="M247.807,91.44a29.627,29.627,0,1,0,32.71,26.185,29.627,29.627,0,0,0-32.71-26.185m5.881,53.08A23.777,23.777,0,1,1,274.7,118.269a23.777,23.777,0,0,1-21.014,26.251" fill="#fff"/>
              <path id="Trazado_875587" data-name="Trazado 875587" d="M251.047,151.016a30.143,30.143,0,1,1,3.34-.185,30.172,30.172,0,0,1-3.34.185m-3.186-59.079a29.127,29.127,0,1,0,21.412,6.211,29.161,29.161,0,0,0-21.412-6.211m-.054-.5h0Zm3.244,53.726a24.29,24.29,0,1,1,2.691-.149,24.706,24.706,0,0,1-2.691.149m.035-47.558a23.289,23.289,0,0,0-23.152,25.842,23.277,23.277,0,1,0,23.152-25.842" fill="#263238"/>
              <path id="Trazado_875588" data-name="Trazado 875588" d="M247.62,89.752a29.627,29.627,0,1,0,32.71,26.185,29.627,29.627,0,0,0-32.71-26.185m5.881,53.08a23.777,23.777,0,1,1,21.014-26.251A23.777,23.777,0,0,1,253.5,142.832" fill="#fff"/>
              <path id="Trazado_875589" data-name="Trazado 875589" d="M250.824,149.33a30.159,30.159,0,1,1,3.376-.187,30.651,30.651,0,0,1-3.376.187m-3.149-59.081h0a29.128,29.128,0,1,0,21.41,6.212,29.16,29.16,0,0,0-21.41-6.212m3.19,53.229a24.289,24.289,0,1,1,2.691-.149,24.719,24.719,0,0,1-2.691.149m.062-47.559a23.608,23.608,0,0,0-2.608.145,23.2,23.2,0,1,0,2.608-.145" fill="#263238"/>
              <path id="Trazado_875590" data-name="Trazado 875590" d="M258.016,175.463l-1.393.154a2.884,2.884,0,0,1-3.185-2.549l-2.274-20.524a2.885,2.885,0,0,1,2.549-3.185l1.394-.154a2.884,2.884,0,0,1,3.184,2.549l2.274,20.524a2.884,2.884,0,0,1-2.549,3.185" fill="#aee6e6"/>
              <path id="Trazado_875591" data-name="Trazado 875591" d="M256.3,176.134a3.389,3.389,0,0,1-3.362-3.01L250.667,152.6a3.384,3.384,0,0,1,2.992-3.736l1.393-.154a3.382,3.382,0,0,1,3.736,2.991l2.275,20.524a3.384,3.384,0,0,1-2.992,3.736l-1.393.155a3.654,3.654,0,0,1-.375.02m-.873-26.447a2.44,2.44,0,0,0-.269.015l-1.393.154a2.383,2.383,0,0,0-2.107,2.633l2.274,20.524a2.386,2.386,0,0,0,2.634,2.107l1.392-.155a2.382,2.382,0,0,0,2.108-2.632l-2.275-20.525a2.381,2.381,0,0,0-2.364-2.121" fill="#263238"/>
              <path id="Trazado_875592" data-name="Trazado 875592" d="M261.958,217.935l-.2.023a6.3,6.3,0,0,1-6.959-5.571l-4.5-40.6a4.928,4.928,0,0,1,4.355-5.44l2.937-.325a4.928,4.928,0,0,1,5.441,4.355l4.5,40.605a6.3,6.3,0,0,1-5.57,6.958" fill="#263238"/>
              <path id="Trazado_875593" data-name="Trazado 875593" d="M261.057,218.5a6.813,6.813,0,0,1-6.757-6.055l-4.5-40.6a5.434,5.434,0,0,1,4.8-5.992l2.937-.325a5.431,5.431,0,0,1,5.993,4.8l4.5,40.6a6.811,6.811,0,0,1-6.013,7.51l-.2.023a6.855,6.855,0,0,1-.753.042m.9-.562h0Zm-3.822-51.448a4.528,4.528,0,0,0-.491.027l-2.938.326a4.428,4.428,0,0,0-3.912,4.887l4.5,40.606a5.8,5.8,0,0,0,6.406,5.128l.2-.023a5.8,5.8,0,0,0,5.128-6.407l-4.5-40.605a4.434,4.434,0,0,0-4.4-3.939" fill="#263238"/>
              <path id="Trazado_875594" data-name="Trazado 875594" d="M259.015,200.173s-7.1.268-8.105,1.493-.819,5.512,1.111,6.021c4.916,1.295,15.379.537,15.784-.341s1.255-5.992-.908-6.548a52.08,52.08,0,0,0-7.882-.625" fill="#fff"/>
              <path id="Trazado_875595" data-name="Trazado 875595" d="M259.5,208.874a33.52,33.52,0,0,1-7.6-.7,2.729,2.729,0,0,1-1.771-2c-.546-1.68-.362-3.888.4-4.821,1.089-1.332,7.249-1.629,8.474-1.676h.024a51.364,51.364,0,0,1,8,.64,2.078,2.078,0,0,1,1.35,1.194c.876,1.843.255,5.253-.111,6.048-.385.834-4.521,1.319-8.76,1.319m-.479-8.2c-3.377.129-7.186.652-7.723,1.309a5.152,5.152,0,0,0-.223,3.879c.141.432.467,1.181,1.074,1.341,4.756,1.251,14.182.513,15.23-.131.272-.711.787-3.666.089-5.134a1.087,1.087,0,0,0-.7-.656,51.471,51.471,0,0,0-7.751-.608" fill="#263238"/>
              <path id="Trazado_875596" data-name="Trazado 875596" d="M256.97,190.26s-8.268-.316-9.561,1.176-1.543,7.058.64,7.9c5.563,2.136,18.071,1.3,18.636.2s1.807-6.808-.641-7.73-9.074-1.544-9.074-1.544" fill="#fff"/>
              <path id="Trazado_875597" data-name="Trazado 875597" d="M258.483,201.17c-3.884,0-8.137-.42-10.613-1.37a3.142,3.142,0,0,1-1.713-2.366c-.54-2.159-.123-5.175.874-6.325,1.379-1.594,8.537-1.4,9.958-1.349l.028,0c.273.027,6.72.64,9.2,1.574a2.489,2.489,0,0,1,1.434,1.535c.849,2.2-.056,5.981-.523,6.891-.456.889-4.325,1.408-8.648,1.408m-3.317-10.443c-3.115,0-6.728.283-7.379,1.036-.7.814-1.147,3.478-.66,5.429a2.327,2.327,0,0,0,1.1,1.675c5.464,2.1,17.182,1.162,18.049.385.351-.7,1.161-4.163.444-6.021a1.519,1.519,0,0,0-.854-.959c-2.306-.868-8.594-1.481-8.931-1.513-.553-.02-1.153-.032-1.771-.032" fill="#263238"/>
              <path id="Trazado_875598" data-name="Trazado 875598" d="M255.764,179.059s-8.84-.338-10.222,1.257-1.649,7.546.687,8.442c5.944,2.284,19,2.279,19.607,1.1s2.246-8.167-.372-9.152-9.7-1.651-9.7-1.651" fill="#fff"/>
              <path id="Trazado_875599" data-name="Trazado 875599" d="M260.144,191.143c-4.721,0-10.934-.7-14.1-1.918a3.322,3.322,0,0,1-1.81-2.505c-.576-2.3-.133-5.509.926-6.731,1.465-1.692,9.1-1.488,10.618-1.431l.028,0c.292.027,7.179.684,9.83,1.682a2.429,2.429,0,0,1,1.393,1.507c.961,2.491-.206,7.276-.753,8.34-.371.724-2.9,1.054-6.137,1.054m-6.342-11.62c-3.221,0-7.147.273-7.881,1.12-.759.876-1.236,3.739-.712,5.834a2.513,2.513,0,0,0,1.2,1.815c5.886,2.259,18.04,2.132,19.023,1.287.389-.778,1.516-5.28.67-7.471a1.467,1.467,0,0,0-.812-.931c-2.472-.929-9.208-1.586-9.558-1.62-.585-.022-1.242-.034-1.929-.034" fill="#263238"/>
              <path id="Trazado_875600" data-name="Trazado 875600" d="M250.676,168.581s-8.839-.338-10.221,1.257-1.711,7.725.686,8.442,19,2.279,19.608,1.1,2.246-8.167-.372-9.152-9.7-1.651-9.7-1.651" fill="#fff"/>
              <path id="Trazado_875601" data-name="Trazado 875601" d="M257.12,180.3A109.479,109.479,0,0,1,241,178.758a2.934,2.934,0,0,1-1.811-2.208c-.661-2.272-.219-5.758.891-7.039,1.465-1.693,9.1-1.488,10.618-1.431l.028,0c.292.027,7.179.684,9.83,1.681a2.428,2.428,0,0,1,1.392,1.506c.962,2.49-.205,7.277-.751,8.342-.257.5-1.866.69-4.074.69m-8.411-11.257c-3.22,0-7.143.274-7.876,1.121-.8.93-1.283,4.057-.687,6.106.172.593.51,1.341,1.138,1.53,2.8.84,17.612,2,19.053,1.286.448-.984,1.5-5.322.676-7.458a1.467,1.467,0,0,0-.812-.931c-2.472-.929-9.21-1.586-9.558-1.619-.587-.022-1.245-.035-1.934-.035" fill="#263238"/>
              <path id="Trazado_875602" data-name="Trazado 875602" d="M279.628,197.99a14.873,14.873,0,0,1-4.448-2.065c-7.114-4.906-6.869-16.191-6.869-16.191l-1.717-.491a15.036,15.036,0,0,1-3.925-2.207,35.268,35.268,0,0,1,.981,7.114,5.316,5.316,0,0,1-4.907,5.152c-2.208.245-3.189.49-3.925-2.453s-4.416-14.72-4.661-16.437c-.223-1.563,2.4-4.343,6.566-5.017,6.414.528,12.738,2.318,19.193,2.318a12.916,12.916,0,0,1,6.254,2.3" fill="#fff"/>
              <path id="Trazado_875603" data-name="Trazado 875603" d="M279.628,198.49a.483.483,0,0,1-.135-.019,15.425,15.425,0,0,1-4.6-2.133c-6.585-4.543-7.061-14.146-7.085-16.227l-1.355-.388a12.036,12.036,0,0,1-3.015-1.527,32.111,32.111,0,0,1,.708,5.954A5.78,5.78,0,0,1,258.8,189.8l-.272.03c-2.221.254-3.419.24-4.193-2.86-.3-1.22-1.127-3.992-2-6.925-1.242-4.193-2.527-8.527-2.675-9.562-.288-2.013,2.7-4.889,6.981-5.58a.5.5,0,0,1,.121,0c2.673.22,5.364.662,7.968,1.091a69.4,69.4,0,0,0,11.184,1.225,13.22,13.22,0,0,1,6.529,2.38.5.5,0,1,1-.55.834,12.38,12.38,0,0,0-5.979-2.214,70.155,70.155,0,0,1-11.348-1.239c-2.563-.421-5.212-.857-7.825-1.076-4.013.67-6.256,3.287-6.091,4.443.138.962,1.469,5.455,2.644,9.419.873,2.944,1.7,5.725,2.008,6.967.6,2.393,1.128,2.332,3.109,2.109l.276-.032a4.822,4.822,0,0,0,4.46-4.654,35.1,35.1,0,0,0-.965-6.994.5.5,0,0,1,.792-.516,14.613,14.613,0,0,0,3.756,2.122l1.717.492a.5.5,0,0,1,.363.491c0,.11-.154,11.075,6.652,15.769a14.427,14.427,0,0,0,4.3,1.995.5.5,0,0,1-.135.981" fill="#263238"/>
              <path id="Trazado_875604" data-name="Trazado 875604" d="M286.388,198.6a22.586,22.586,0,0,1-2.337.046" fill="#fff"/>
              <path id="Trazado_875605" data-name="Trazado 875605" d="M284.754,199.161c-.241,0-.48,0-.719-.011a.5.5,0,0,1,.033-1,21.679,21.679,0,0,0,2.286-.046.519.519,0,0,1,.534.464.5.5,0,0,1-.464.534c-.561.039-1.12.059-1.67.059" fill="#263238"/>
              <path id="Trazado_875606" data-name="Trazado 875606" d="M291.617,197.642a22.742,22.742,0,0,1-5.229.961" fill="#fff"/>
              <path id="Trazado_875607" data-name="Trazado 875607" d="M286.388,199.1a.5.5,0,0,1-.034-1,22.414,22.414,0,0,0,5.1-.935.5.5,0,0,1,.325.946,23.1,23.1,0,0,1-5.356.987h-.036" fill="#263238"/>
              <line id="Línea_1716" data-name="Línea 1716" x2="8.832" transform="translate(300.448 194.453)" fill="#fff"/>
              <path id="Trazado_875608" data-name="Trazado 875608" d="M309.28,194.953h-8.832a.5.5,0,0,1,0-1h8.832a.5.5,0,0,1,0,1" fill="#263238"/>
              <line id="Línea_1717" data-name="Línea 1717" x2="3.68" transform="translate(301.184 196.906)" fill="#fff"/>
              <path id="Trazado_875609" data-name="Trazado 875609" d="M304.864,197.406h-3.68a.5.5,0,0,1,0-1h3.68a.5.5,0,0,1,0,1" fill="#263238"/>
              <path id="Trazado_875610" data-name="Trazado 875610" d="M268.311,180.234a.5.5,0,0,1,0-1c.048,0,4.73-.059,7.745-2.782a.5.5,0,1,1,.67.742c-3.3,2.984-8.2,3.039-8.41,3.04Z" fill="#263238"/>
              <path id="Trazado_875611" data-name="Trazado 875611" d="M262.556,177.219a.5.5,0,0,1-.5-.466,19.174,19.174,0,0,0-.806-3.811.5.5,0,1,1,.957-.291,19.813,19.813,0,0,1,.847,4.035.5.5,0,0,1-.465.532h-.034" fill="#263238"/>
              <path id="Trazado_875612" data-name="Trazado 875612" d="M260.7,188.738a.242.242,0,0,1-.079-.013.25.25,0,0,1-.158-.316l.309-.929c.272-.812-.817-5.5-1.328-6.518a.4.4,0,0,0-.319-.21c-.942-.2-3.04.789-3.945,1.529-.817.67-.37,2.56-.128,3.231a.25.25,0,1,1-.471.17c-.04-.112-.975-2.758.283-3.788.989-.809,3.23-1.871,4.365-1.632a.906.906,0,0,1,.662.476c.526,1.049,1.7,5.883,1.356,6.9l-.31.929a.25.25,0,0,1-.237.171" fill="#263238"/>
              <path id="Trazado_875613" data-name="Trazado 875613" d="M390.33,216.889H305.779V175.325H390.33" fill="#7d6eb2"/>
              <path id="Trazado_875614" data-name="Trazado 875614" d="M390.33,217.389H305.779a.5.5,0,0,1-.5-.5V175.325a.5.5,0,0,1,.5-.5H390.33a.5.5,0,0,1,0,1H306.279v40.564H390.33a.5.5,0,0,1,0,1" fill="#263238"/>
              <path id="Trazado_875615" data-name="Trazado 875615" d="M313.88,212.206a1.9,1.9,0,1,1-1.9-1.9,1.9,1.9,0,0,1,1.9,1.9" fill="#fff"/>
              <path id="Trazado_875616" data-name="Trazado 875616" d="M311.981,214.6a2.4,2.4,0,1,1,2.4-2.4,2.4,2.4,0,0,1-2.4,2.4m0-3.8a1.4,1.4,0,1,0,1.4,1.4,1.4,1.4,0,0,0-1.4-1.4" fill="#263238"/>
              <path id="Trazado_875617" data-name="Trazado 875617" d="M177.6,135.75a5.826,5.826,0,0,0,3.217-3.21c.466-1.131.36-2.633,1.341-4.378,2.209-3.925.245-13.738.982-20.853s-7.114-16.681-7.114-16.681l1.53-28.213H149.594s1.228,29.439-1.226,35.817-7.6,13.493-7.36,16.683,3.189,29.438,3.189,29.438l33.364-8.586Z" fill="#fff"/>
              <path id="Trazado_875618" data-name="Trazado 875618" d="M144.2,144.853a.5.5,0,0,1-.284-.088.507.507,0,0,1-.213-.356c-.029-.263-2.948-26.295-3.19-29.456-.157-2.024,1.578-5.276,3.584-9.04a73.25,73.25,0,0,0,3.806-7.861c2.389-6.209,1.206-35.323,1.193-35.616a.5.5,0,0,1,.5-.521h27.967a.5.5,0,0,1,.5.527l-1.52,28.02c1.043,1.306,7.808,10.071,7.1,16.9a66.793,66.793,0,0,0-.027,9.139c.2,4.843.386,9.416-1.016,11.907a8.658,8.658,0,0,0-.91,2.778,8.173,8.173,0,0,1-.4,1.544,6.376,6.376,0,0,1-3.494,3.484l-.041.017-33.428,8.607a.482.482,0,0,1-.125.016m5.917-81.938c.157,4.1,1.03,29.489-1.28,35.5a74.235,74.235,0,0,1-3.857,7.971c-1.853,3.477-3.6,6.76-3.471,8.493.221,2.882,2.692,24.989,3.124,28.849l32.805-8.442-.017,0a5.368,5.368,0,0,0,2.942-2.937,7.411,7.411,0,0,0,.346-1.354,9.623,9.623,0,0,1,1.02-3.079c1.262-2.243,1.08-6.678.888-11.375a67.323,67.323,0,0,1,.032-9.284c.706-6.822-6.927-16.219-7-16.313a.5.5,0,0,1-.112-.344l1.5-27.685Z" fill="#263238"/>
              <path id="Trazado_875619" data-name="Trazado 875619" d="M64.736,143.023a29.627,29.627,0,1,0,26.185-32.71,29.627,29.627,0,0,0-26.185,32.71m53.08-5.881a23.777,23.777,0,1,1-26.251-21.014,23.777,23.777,0,0,1,26.251,21.014" fill="#fff"/>
              <path id="Trazado_875620" data-name="Trazado 875620" d="M94.124,169.891a30.182,30.182,0,1,1,3.375-.186,30.644,30.644,0,0,1-3.375.186m.115-59.261a29.644,29.644,0,0,0-3.264.181,29.03,29.03,0,1,0,3.264-.181m-.1,53.411a24.341,24.341,0,1,1,2.721-.151,24.648,24.648,0,0,1-2.721.151m.094-47.56a23.643,23.643,0,0,0-2.61.145,23.2,23.2,0,1,0,2.61-.145" fill="#263238"/>
              <path id="Trazado_875621" data-name="Trazado 875621" d="M63.048,143.21A29.627,29.627,0,1,0,89.233,110.5a29.627,29.627,0,0,0-26.185,32.71m53.08-5.881a23.777,23.777,0,1,1-26.251-21.014,23.777,23.777,0,0,1,26.251,21.014" fill="#fff"/>
              <path id="Trazado_875622" data-name="Trazado 875622" d="M92.473,170.076a30.135,30.135,0,1,1,3.339-.184,30.171,30.171,0,0,1-3.339.184M63.545,143.155A29.127,29.127,0,1,0,89.287,111a29.151,29.151,0,0,0-25.742,32.158m28.932,21.072a24.3,24.3,0,1,1,2.691-.15,24.313,24.313,0,0,1-2.691.15m.063-47.56a23.608,23.608,0,0,0-2.608.145,23.193,23.193,0,1,0,2.608-.145" fill="#263238"/>
              <path id="Trazado_875623" data-name="Trazado 875623" d="M148.758,132.814l.154,1.393a2.884,2.884,0,0,1-2.549,3.185l-20.524,2.274a2.885,2.885,0,0,1-3.185-2.549l-.154-1.394a2.884,2.884,0,0,1,2.549-3.184l20.524-2.274a2.884,2.884,0,0,1,3.185,2.549" fill="#ffd947"/>
              <path id="Trazado_875624" data-name="Trazado 875624" d="M125.519,140.185a3.392,3.392,0,0,1-3.362-3.013L122,135.779A3.385,3.385,0,0,1,125,132.042l20.524-2.273a3.384,3.384,0,0,1,3.736,2.989v0l.155,1.393a3.384,3.384,0,0,1-2.993,3.737l-20.524,2.273a3.14,3.14,0,0,1-.374.022m20.377-9.438a2.407,2.407,0,0,0-.267.016L125.1,133.036A2.382,2.382,0,0,0,123,135.67l.154,1.392a2.387,2.387,0,0,0,2.634,2.108l20.523-2.275a2.387,2.387,0,0,0,2.108-2.632l-.155-1.4a2.385,2.385,0,0,0-2.365-2.121" fill="#263238"/>
              <path id="Trazado_875625" data-name="Trazado 875625" d="M191.231,128.872l.022.2a6.3,6.3,0,0,1-5.57,6.958l-40.6,4.5a4.928,4.928,0,0,1-5.44-4.355l-.325-2.937a4.927,4.927,0,0,1,4.355-5.44l40.6-4.5a6.3,6.3,0,0,1,6.958,5.57" fill="#263238"/>
              <path id="Trazado_875626" data-name="Trazado 875626" d="M144.532,141.063a5.436,5.436,0,0,1-5.391-4.831l-.325-2.937a5.435,5.435,0,0,1,4.8-5.992l40.6-4.5a6.8,6.8,0,0,1,7.51,6.013l.022.2a6.8,6.8,0,0,1-6.012,7.51l-40.605,4.5a5.542,5.542,0,0,1-.6.033m40.438-17.3a5.843,5.843,0,0,0-.643.036l-40.6,4.5a4.433,4.433,0,0,0-3.912,4.889l.325,2.936a4.428,4.428,0,0,0,4.889,3.913l40.6-4.5a5.8,5.8,0,0,0,5.128-6.406l-.022-.2a5.812,5.812,0,0,0-5.764-5.164" fill="#263238"/>
              <path id="Trazado_875627" data-name="Trazado 875627" d="M173.469,131.816s.268,7.1,1.493,8.105,5.512.819,6.021-1.111c1.295-4.916.537-15.379-.341-15.784s-5.992-1.255-6.548.908a52.08,52.08,0,0,0-.625,7.882" fill="#fff"/>
              <path id="Trazado_875628" data-name="Trazado 875628" d="M177.366,141.022a4.545,4.545,0,0,1-2.72-.715c-1.332-1.088-1.63-7.248-1.677-8.473v-.024a51.311,51.311,0,0,1,.641-8,2.077,2.077,0,0,1,1.195-1.35c1.846-.873,5.252-.252,6.047.114,1.4.644,1.815,11.808.614,16.365a2.73,2.73,0,0,1-2,1.77,6.95,6.95,0,0,1-2.1.315m-3.4-9.212c.129,3.378.653,7.187,1.31,7.724a5.163,5.163,0,0,0,3.877.222c.433-.14,1.183-.467,1.343-1.074,1.254-4.756.513-14.183-.132-15.229-.7-.266-3.691-.775-5.132-.091a1.085,1.085,0,0,0-.657.695,51.383,51.383,0,0,0-.609,7.753" fill="#263238"/>
              <path id="Trazado_875629" data-name="Trazado 875629" d="M163.556,133.861s-.316,8.268,1.176,9.561,7.058,1.543,7.9-.641c2.136-5.562,1.3-18.071.2-18.635s-6.808-1.808-7.73.64-1.544,9.075-1.544,9.075" fill="#fff"/>
              <path id="Trazado_875630" data-name="Trazado 875630" d="M168.63,144.912a7.112,7.112,0,0,1-4.224-1.113c-1.593-1.38-1.4-8.537-1.35-9.958l0-.027c.026-.274.641-6.721,1.574-9.2a2.487,2.487,0,0,1,1.535-1.435c2.2-.847,5.983.058,6.892.526,1.685.865,2.046,14.028.037,19.259a3.134,3.134,0,0,1-2.364,1.713,8.8,8.8,0,0,1-2.1.239m-4.575-11.018c-.126,3.334.1,8.367,1.005,9.149.813.705,3.477,1.151,5.429.66a2.323,2.323,0,0,0,1.673-1.1c2.1-5.467,1.164-17.184.386-18.049-.7-.351-4.158-1.16-6.02-.444a1.515,1.515,0,0,0-.96.853c-.867,2.307-1.481,8.6-1.513,8.933" fill="#263238"/>
              <path id="Trazado_875631" data-name="Trazado 875631" d="M152.354,135.067s-.338,8.839,1.257,10.221,7.546,1.65,8.443-.685c2.283-5.946,2.278-19.006,1.1-19.609s-8.167-2.246-9.152.372-1.651,9.7-1.651,9.7" fill="#fff"/>
              <path id="Trazado_875632" data-name="Trazado 875632" d="M157.775,146.846a7.564,7.564,0,0,1-4.49-1.181c-1.692-1.464-1.489-9.1-1.431-10.618l0-.027c.027-.292.683-7.18,1.681-9.83a2.43,2.43,0,0,1,1.505-1.393c2.491-.964,7.279.2,8.343.752,1.78.914,1.181,14.906-.865,20.233a3.323,3.323,0,0,1-2.5,1.81,9.375,9.375,0,0,1-2.242.254M152.854,135.1c-.127,3.326.057,8.919,1.085,9.81.876.758,3.741,1.235,5.835.711a2.507,2.507,0,0,0,1.812-1.2c2.262-5.886,2.134-18.039,1.288-19.023-.778-.389-5.282-1.516-7.471-.67a1.465,1.465,0,0,0-.931.811c-.931,2.473-1.586,9.211-1.618,9.559" fill="#263238"/>
              <path id="Trazado_875633" data-name="Trazado 875633" d="M141.877,140.155s-.338,8.839,1.257,10.221,7.725,1.711,8.443-.686,2.278-19.005,1.1-19.608-8.167-2.246-9.152.372-1.651,9.7-1.651,9.7" fill="#fff"/>
              <path id="Trazado_875634" data-name="Trazado 875634" d="M147.407,151.955a7.8,7.8,0,0,1-4.6-1.2c-1.691-1.464-1.488-9.1-1.43-10.618l0-.027c.027-.292.683-7.18,1.681-9.83a2.43,2.43,0,0,1,1.505-1.393c2.491-.964,7.279.2,8.343.752,1.766.905-.366,18.572-.853,20.2a2.938,2.938,0,0,1-2.208,1.811,8.938,8.938,0,0,1-2.44.31m-5.031-11.767c-.126,3.327.058,8.919,1.085,9.81.93.8,4.058,1.283,6.106.687.594-.173,1.342-.511,1.531-1.139.839-2.8,2-17.61,1.286-19.052-.986-.45-5.323-1.5-7.458-.676a1.466,1.466,0,0,0-.931.811c-.931,2.473-1.586,9.211-1.619,9.559" fill="#263238"/>
              <path id="Trazado_875635" data-name="Trazado 875635" d="M171.9,104.417a17.479,17.479,0,0,1-2.676,11.233c-4.907,7.115-16.191,6.869-16.191,6.869l-.491,1.718a15.058,15.058,0,0,1-2.208,3.925,35.234,35.234,0,0,1,7.114-.982,5.315,5.315,0,0,1,5.152,4.907c.245,2.208.491,3.189-2.453,3.925s-14.72,4.416-16.437,4.661c-1.562.224-4.343-2.4-5.017-6.565.528-6.414,2.319-12.738,2.319-19.194a12.926,12.926,0,0,1,2.3-6.254" fill="#fff"/>
              <path id="Trazado_875636" data-name="Trazado 875636" d="M143.505,141.187c-1.991,0-4.646-2.908-5.308-7a.49.49,0,0,1,0-.121c.219-2.672.663-5.362,1.09-7.964a69.462,69.462,0,0,0,1.226-11.188,13.231,13.231,0,0,1,2.38-6.531.5.5,0,0,1,.834.551,12.379,12.379,0,0,0-2.214,5.98,70.367,70.367,0,0,1-1.238,11.35c-.422,2.563-.859,5.211-1.078,7.822.672,4.012,3.265,6.265,4.444,6.091.962-.137,5.448-1.467,9.407-2.64,2.949-.874,5.735-1.7,6.979-2.011,2.394-.6,2.334-1.131,2.108-3.111l-.031-.274a4.824,4.824,0,0,0-4.655-4.462,34.956,34.956,0,0,0-6.993.967.5.5,0,0,1-.515-.792,14.7,14.7,0,0,0,2.122-3.756l.49-1.718a.53.53,0,0,1,.491-.362c.1-.008,11.077.151,15.77-6.653a17.12,17.12,0,0,0,2.589-10.913.5.5,0,0,1,.462-.535.508.508,0,0,1,.536.462,18.115,18.115,0,0,1-2.764,11.554c-4.542,6.585-14.145,7.062-16.227,7.086l-.386,1.355a12.055,12.055,0,0,1-1.528,3.015,31.914,31.914,0,0,1,5.953-.71,5.781,5.781,0,0,1,5.649,5.351l.03.271c.254,2.224.242,3.42-2.859,4.2-1.222.3-4,1.127-6.937,2-4.186,1.241-8.515,2.524-9.551,2.671a1.873,1.873,0,0,1-.272.019" fill="#263238"/>
              <path id="Trazado_875637" data-name="Trazado 875637" d="M170.938,99.213a20.061,20.061,0,0,1,.677,2.864" fill="#fff"/>
              <path id="Trazado_875638" data-name="Trazado 875638" d="M171.614,102.578a.5.5,0,0,1-.492-.417,19.883,19.883,0,0,0-.657-2.786.5.5,0,0,1,.946-.323,20.53,20.53,0,0,1,.7,2.943.5.5,0,0,1-.41.576.476.476,0,0,1-.084.007" fill="#263238"/>
              <line id="Línea_1718" data-name="Línea 1718" y1="8.832" transform="translate(167.749 81.55)" fill="#fff"/>
              <path id="Trazado_875639" data-name="Trazado 875639" d="M167.749,90.882a.5.5,0,0,1-.5-.5V81.55a.5.5,0,0,1,1,0v8.832a.5.5,0,0,1-.5.5" fill="#263238"/>
              <line id="Línea_1719" data-name="Línea 1719" y1="3.68" transform="translate(170.202 85.966)" fill="#fff"/>
              <path id="Trazado_875640" data-name="Trazado 875640" d="M170.2,90.146a.5.5,0,0,1-.5-.5v-3.68a.5.5,0,1,1,1,0v3.68a.5.5,0,0,1-.5.5" fill="#263238"/>
              <path id="Trazado_875641" data-name="Trazado 875641" d="M153.029,123.019a.5.5,0,0,1-.5-.5c0-.048-.059-4.731-2.781-7.746a.5.5,0,1,1,.742-.67c2.983,3.3,3.038,8.2,3.039,8.411a.5.5,0,0,1-.5.5Z" fill="#263238"/>
              <path id="Trazado_875642" data-name="Trazado 875642" d="M146.093,129.6a.5.5,0,0,1-.146-.979,19.794,19.794,0,0,1,4.036-.845.5.5,0,0,1,.066,1,19.1,19.1,0,0,0-3.81.8.531.531,0,0,1-.146.021" fill="#263238"/>
              <path id="Trazado_875643" data-name="Trazado 875643" d="M156.932,136.624a2.169,2.169,0,0,1-1.741-.655c-.81-.989-1.874-3.233-1.633-4.364a.909.909,0,0,1,.475-.664c1.049-.524,5.885-1.7,6.9-1.355l.929.309a.25.25,0,1,1-.159.475l-.928-.309c-.814-.273-5.5.818-6.521,1.328a.4.4,0,0,0-.209.32c-.2.939.79,3.04,1.531,3.943.669.818,2.559.371,3.231.13a.25.25,0,0,1,.17.471,6.854,6.854,0,0,1-2.047.371" fill="#263238"/>
              <path id="Trazado_875644" data-name="Trazado 875644" d="M190.185.5V85.051H148.62V.5" fill="#ffd947"/>
              <path id="Trazado_875645" data-name="Trazado 875645" d="M190.186,85.551H148.621a.5.5,0,0,1-.5-.5V.5a.5.5,0,0,1,1,0V84.551h40.565V.5a.5.5,0,0,1,1,0V85.051a.5.5,0,0,1-.5.5" fill="#263238"/>
              <path id="Trazado_875646" data-name="Trazado 875646" d="M185.5,76.95a1.9,1.9,0,1,1-1.9,1.9,1.9,1.9,0,0,1,1.9-1.9" fill="#fff"/>
              <path id="Trazado_875647" data-name="Trazado 875647" d="M185.5,81.247a2.4,2.4,0,1,1,2.4-2.4,2.4,2.4,0,0,1-2.4,2.4m0-3.8a1.4,1.4,0,1,0,1.4,1.4,1.4,1.4,0,0,0-1.4-1.4" fill="#263238"/>
              <path id="Trazado_875648" data-name="Trazado 875648" d="M135.75,286.362a5.826,5.826,0,0,1-3.211,3.218c-1.13.465-2.633.36-4.377,1.341-3.925,2.208-13.738.245-20.853.981s-16.682-7.114-16.682-7.114l-28.212,1.531V258.352s29.439,1.227,35.817-1.226,13.493-7.605,16.683-7.36,29.438,3.189,29.438,3.189l-8.586,33.364Z" fill="#fff"/>
              <path id="Trazado_875649" data-name="Trazado 875649" d="M121.38,292.508c-1.543,0-3.194-.068-4.879-.136a66.637,66.637,0,0,0-9.139.027c-6.842.709-15.593-6.059-16.9-7.1l-28.02,1.521a.471.471,0,0,1-.372-.136.5.5,0,0,1-.156-.363V258.352a.5.5,0,0,1,.155-.36.515.515,0,0,1,.366-.14c.294.014,29.408,1.2,35.617-1.193a73.145,73.145,0,0,0,7.86-3.806c3.766-2.007,7.023-3.723,9.04-3.586,3.161.243,29.194,3.162,29.456,3.191a.5.5,0,0,1,.429.623l-8.586,33.363c-.006.02-.029.082-.038.105a6.369,6.369,0,0,1-3.483,3.493,8.129,8.129,0,0,1-1.545.4,8.679,8.679,0,0,0-2.779.91c-1.624.914-4.134,1.152-7.027,1.152m-10.121-1.281c1.735,0,3.526.073,5.283.146,4.7.19,9.133.374,11.375-.888a9.608,9.608,0,0,1,3.078-1.021,7.275,7.275,0,0,0,1.356-.346,5.359,5.359,0,0,0,2.935-2.942v0l.018-.043,8.421-32.741c-3.861-.432-25.967-2.9-28.849-3.124-1.74-.117-5.016,1.617-8.493,3.472a74.147,74.147,0,0,1-7.972,3.856c-6.007,2.311-31.4,1.437-35.5,1.281V285.79l27.686-1.5a.479.479,0,0,1,.345.112c.093.078,9.5,7.708,16.312,7a39.057,39.057,0,0,1,4-.178" fill="#263238"/>
              <path id="Trazado_875650" data-name="Trazado 875650" d="M143.024,173.493a29.627,29.627,0,1,1-32.71,26.185,29.627,29.627,0,0,1,32.71-26.185m-5.881,53.08a23.777,23.777,0,1,0-21.014-26.251,23.777,23.777,0,0,0,21.014,26.251" fill="#fff"/>
              <path id="Trazado_875651" data-name="Trazado 875651" d="M139.819,233.071a30.658,30.658,0,0,1-3.375-.186,30.054,30.054,0,1,1,3.375.186m-.114-59.261a29.2,29.2,0,1,0,3.263.181,29.61,29.61,0,0,0-3.263-.181m.1,53.411a24.644,24.644,0,0,1-2.72-.151,24.193,24.193,0,1,1,2.72.151m-2.611-1.145a23.278,23.278,0,1,0-20.571-25.7,23.118,23.118,0,0,0,20.571,25.7" fill="#263238"/>
              <path id="Trazado_875652" data-name="Trazado 875652" d="M143.211,171.8A29.627,29.627,0,1,1,110.5,197.99a29.627,29.627,0,0,1,32.71-26.185m-5.881,53.08a23.777,23.777,0,1,0-21.014-26.251,23.777,23.777,0,0,0,21.014,26.251" fill="#fff"/>
              <path id="Trazado_875653" data-name="Trazado 875653" d="M139.971,231.381a30.128,30.128,0,1,1,29.922-26.811,30.378,30.378,0,0,1-29.922,26.811m-.044-59.258a29.144,29.144,0,1,0,3.229.179,29.171,29.171,0,0,0-3.229-.179m.038,53.408a24.278,24.278,0,1,1,24.113-21.606,24.423,24.423,0,0,1-24.113,21.606m-2.58-1.143a23.277,23.277,0,1,0-20.572-25.7,23.3,23.3,0,0,0,20.572,25.7" fill="#263238"/>
              <path id="Trazado_875654" data-name="Trazado 875654" d="M132.815,257.516l1.393.154a2.884,2.884,0,0,0,3.185-2.549l2.274-20.524a2.885,2.885,0,0,0-2.549-3.185l-1.394-.154a2.884,2.884,0,0,0-3.184,2.549l-2.274,20.524a2.884,2.884,0,0,0,2.549,3.185" fill="#26aab7"/>
              <path id="Trazado_875655" data-name="Trazado 875655" d="M134.531,258.188a3.432,3.432,0,0,1-.378-.021l-1.393-.154h0a3.385,3.385,0,0,1-2.991-3.737l2.274-20.524a3.385,3.385,0,0,1,3.737-2.992l1.393.155a3.39,3.39,0,0,1,2.992,3.736l-2.274,20.524a3.384,3.384,0,0,1-3.359,3.013m-1.662-1.169,1.394.154a2.376,2.376,0,0,0,2.632-2.107l2.275-20.525a2.388,2.388,0,0,0-2.108-2.632l-1.392-.155a2.384,2.384,0,0,0-2.634,2.108l-2.273,20.524a2.382,2.382,0,0,0,2.106,2.633" fill="#263238"/>
              <path id="Trazado_875656" data-name="Trazado 875656" d="M128.872,299.988l.2.022a6.3,6.3,0,0,0,6.959-5.57l4.5-40.6a4.928,4.928,0,0,0-4.355-5.44l-2.937-.325a4.928,4.928,0,0,0-5.441,4.355l-4.5,40.6a6.3,6.3,0,0,0,5.57,6.958" fill="#263238"/>
              <path id="Trazado_875657" data-name="Trazado 875657" d="M129.784,300.55a6.973,6.973,0,0,1-.762-.042l-.2-.023a6.811,6.811,0,0,1-6.013-7.51l4.5-40.605a5.432,5.432,0,0,1,5.992-4.8l2.937.325a5.435,5.435,0,0,1,4.8,5.992l-4.5,40.6a6.8,6.8,0,0,1-6.747,6.055m-.857-1.059.2.022a5.8,5.8,0,0,0,6.406-5.127l4.5-40.6a4.428,4.428,0,0,0-3.913-4.889l-2.936-.325a4.431,4.431,0,0,0-4.889,3.912l-4.5,40.606a5.81,5.81,0,0,0,5.128,6.406" fill="#263238"/>
              <path id="Trazado_875658" data-name="Trazado 875658" d="M131.816,282.226s7.1.268,8.105,1.493.819,5.512-1.111,6.021c-4.916,1.3-15.379.537-15.784-.341s-1.255-5.992.908-6.548a52.08,52.08,0,0,1,7.882-.625" fill="#fff"/>
              <path id="Trazado_875659" data-name="Trazado 875659" d="M131.335,290.928c-4.241,0-8.378-.485-8.763-1.32-.366-.793-.989-4.2-.112-6.046a2.072,2.072,0,0,1,1.35-1.2,51.28,51.28,0,0,1,8-.641h.024c1.225.047,7.385.345,8.473,1.677.762.932.945,3.139.4,4.82a2.731,2.731,0,0,1-1.771,2,33.5,33.5,0,0,1-7.6.705m-7.882-1.8c1.048.646,10.475,1.385,15.229.132.608-.16.934-.91,1.075-1.343a5.147,5.147,0,0,0-.223-3.877c-.537-.657-4.346-1.181-7.723-1.31a51.365,51.365,0,0,0-7.752.609,1.087,1.087,0,0,0-.7.657c-.685,1.442-.175,4.434.09,5.132m.027.065h0Z" fill="#263238"/>
              <path id="Trazado_875660" data-name="Trazado 875660" d="M133.861,272.313s8.268-.316,9.561,1.176,1.543,7.058-.641,7.9c-5.562,2.136-18.071,1.3-18.635.2s-1.808-6.808.64-7.73,9.075-1.544,9.075-1.544" fill="#fff"/>
              <path id="Trazado_875661" data-name="Trazado 875661" d="M132.346,283.224c-4.323,0-8.19-.52-8.645-1.408-.468-.91-1.373-4.693-.525-6.891a2.48,2.48,0,0,1,1.435-1.535c2.482-.934,8.929-1.549,9.2-1.575l.027,0c1.423-.054,8.578-.243,9.958,1.35,1,1.15,1.415,4.165.874,6.325a3.136,3.136,0,0,1-1.713,2.365c-2.475.95-6.729,1.371-10.614,1.371m1.549-10.412c-.339.032-6.627.646-8.933,1.514a1.51,1.51,0,0,0-.853.96c-.718,1.859.092,5.315.481,6.073.827.724,12.544,1.66,18.011-.44a2.329,2.329,0,0,0,1.1-1.673c.487-1.952.044-4.617-.661-5.429-.781-.9-5.816-1.13-9.148-1" fill="#263238"/>
              <path id="Trazado_875662" data-name="Trazado 875662" d="M135.067,261.112s8.839-.338,10.221,1.257,1.65,7.546-.686,8.442c-5.945,2.284-19.005,2.279-19.608,1.1s-2.246-8.167.372-9.152,9.7-1.651,9.7-1.651" fill="#fff"/>
              <path id="Trazado_875663" data-name="Trazado 875663" d="M130.687,273.2c-3.233,0-5.766-.33-6.137-1.054-.547-1.065-1.714-5.852-.752-8.343a2.43,2.43,0,0,1,1.393-1.5c2.65-1,9.538-1.654,9.83-1.681l.027,0c1.516-.058,9.154-.262,10.618,1.43,1.061,1.224,1.5,4.434.926,6.734a3.318,3.318,0,0,1-1.81,2.5c-3.16,1.215-9.374,1.919-14.1,1.919m4.414-11.586c-.348.033-7.086.688-9.559,1.619a1.465,1.465,0,0,0-.811.931c-.846,2.19.281,6.693.708,7.525.946.792,13.1.92,18.984-1.342a2.507,2.507,0,0,0,1.2-1.811c.525-2.1.047-4.96-.711-5.837-.891-1.027-6.487-1.212-9.81-1.085" fill="#263238"/>
              <path id="Trazado_875664" data-name="Trazado 875664" d="M140.155,250.634s8.839-.338,10.221,1.257,1.711,7.725-.686,8.443-19.005,2.278-19.608,1.1-2.246-8.167.372-9.152,9.7-1.651,9.7-1.651" fill="#fff"/>
              <path id="Trazado_875665" data-name="Trazado 875665" d="M133.708,262.355c-2.207,0-3.814-.188-4.072-.689-.546-1.065-1.713-5.853-.751-8.343a2.434,2.434,0,0,1,1.393-1.506c2.65-1,9.538-1.653,9.83-1.68l.027,0c1.516-.058,9.155-.261,10.619,1.429,1.11,1.283,1.551,4.77.891,7.041a2.934,2.934,0,0,1-1.811,2.208,109.722,109.722,0,0,1-16.126,1.542m-3.214-1.213c1.445.712,16.249-.447,19.053-1.287.627-.188.965-.935,1.138-1.529.6-2.049.117-5.178-.687-6.107-.891-1.028-6.485-1.212-9.81-1.085-.348.033-7.086.688-9.558,1.619a1.461,1.461,0,0,0-.812.931c-.824,2.135.228,6.473.676,7.458m.033.067h0Z" fill="#263238"/>
              <path id="Trazado_875666" data-name="Trazado 875666" d="M105.8,280.713a16.843,16.843,0,0,0,9.851-2.735c7.114-4.906,6.869-16.191,6.869-16.191l1.717-.491a15.021,15.021,0,0,0,3.926-2.208,35.25,35.25,0,0,0-.982,7.115,5.316,5.316,0,0,0,4.907,5.152c2.208.245,3.189.49,3.925-2.454s4.416-14.719,4.661-16.436c.223-1.563-2.4-4.343-6.566-5.017-6.413.528-12.737,2.318-19.193,2.318a12.919,12.919,0,0,0-6.254,2.3" fill="#fff"/>
              <path id="Trazado_875667" data-name="Trazado 875667" d="M106.078,281.214l-.284,0a.5.5,0,0,1,.006-1c.1,0,.185,0,.278,0a16.033,16.033,0,0,0,9.288-2.647c6.807-4.694,6.655-15.66,6.653-15.77a.5.5,0,0,1,.363-.491l1.717-.49a14.637,14.637,0,0,0,3.756-2.123.5.5,0,0,1,.792.516,35.055,35.055,0,0,0-.966,6.993,4.824,4.824,0,0,0,4.461,4.655l.275.031c1.98.227,2.512.287,3.11-2.109.311-1.24,1.134-4.018,2.006-6.96,1.176-3.966,2.508-8.462,2.646-9.425.165-1.156-2.08-3.773-6.091-4.444-2.612.219-5.26.656-7.823,1.077a70.254,70.254,0,0,1-11.35,1.239,12.385,12.385,0,0,0-5.98,2.214.5.5,0,1,1-.55-.834,13.225,13.225,0,0,1,6.53-2.38A69.46,69.46,0,0,0,126.1,248.04c2.6-.428,5.292-.871,7.964-1.091a.412.412,0,0,1,.121,0c4.281.692,7.268,3.568,6.981,5.58-.149,1.036-1.434,5.375-2.677,9.57-.869,2.93-1.689,5.7-1.994,6.918-.775,3.1-1.967,3.113-4.194,2.859l-.272-.03a5.78,5.78,0,0,1-5.351-5.649,32.007,32.007,0,0,1,.709-5.953,12.038,12.038,0,0,1-3.015,1.528l-1.355.386c-.024,2.081-.5,11.685-7.086,16.227a17.008,17.008,0,0,1-9.856,2.824" fill="#263238"/>
              <path id="Trazado_875668" data-name="Trazado 875668" d="M99.214,279.7a22.065,22.065,0,0,0,4.289.876" fill="#fff"/>
              <path id="Trazado_875669" data-name="Trazado 875669" d="M103.5,281.071a.522.522,0,0,1-.056,0,22.365,22.365,0,0,1-4.4-.9.5.5,0,0,1,.323-.947,21.879,21.879,0,0,0,4.184.852.5.5,0,0,1-.054,1" fill="#263238"/>
              <line id="Línea_1720" data-name="Línea 1720" x1="8.832" transform="translate(81.55 276.506)" fill="#fff"/>
              <path id="Trazado_875670" data-name="Trazado 875670" d="M90.383,277.006H81.551a.5.5,0,0,1,0-1h8.832a.5.5,0,0,1,0,1" fill="#263238"/>
              <line id="Línea_1721" data-name="Línea 1721" x1="3.68" transform="translate(85.966 278.96)" fill="#fff"/>
              <path id="Trazado_875671" data-name="Trazado 875671" d="M89.646,279.459h-3.68a.5.5,0,0,1,0-1h3.68a.5.5,0,0,1,0,1" fill="#263238"/>
              <path id="Trazado_875672" data-name="Trazado 875672" d="M122.52,262.287h0c-.207,0-5.107-.056-8.411-3.039a.5.5,0,1,1,.67-.742c3.015,2.722,7.7,2.781,7.746,2.781a.5.5,0,0,1,0,1" fill="#263238"/>
              <path id="Trazado_875673" data-name="Trazado 875673" d="M128.275,259.273h-.033a.5.5,0,0,1-.466-.532,19.747,19.747,0,0,1,.846-4.035.5.5,0,1,1,.957.291,19.117,19.117,0,0,0-.8,3.81.5.5,0,0,1-.5.467" fill="#263238"/>
              <path id="Trazado_875674" data-name="Trazado 875674" d="M130.133,270.792a.25.25,0,0,1-.237-.171l-.31-.929c-.339-1.018.832-5.853,1.357-6.9a.9.9,0,0,1,.662-.475c1.132-.237,3.375.823,4.365,1.633,1.257,1.029.323,3.676.283,3.788a.25.25,0,1,1-.471-.17c.242-.671.689-2.562-.128-3.231-.905-.741-3.011-1.727-3.944-1.53a.4.4,0,0,0-.32.209c-.511,1.019-1.6,5.707-1.329,6.52l.309.929a.25.25,0,0,1-.158.316.242.242,0,0,1-.079.013" fill="#263238"/>
              <path id="Trazado_875675" data-name="Trazado 875675" d="M.5,298.943H85.051V257.378H.5" fill="#26aab7"/>
              <path id="Trazado_875676" data-name="Trazado 875676" d="M85.052,299.443H.5a.5.5,0,0,1,0-1H84.552V257.879H.5a.5.5,0,0,1,0-1H85.052a.5.5,0,0,1,.5.5v41.564a.5.5,0,0,1-.5.5" fill="#263238"/>
              <path id="Trazado_875677" data-name="Trazado 875677" d="M76.951,294.26a1.9,1.9,0,1,0,1.9-1.9,1.9,1.9,0,0,0-1.9,1.9" fill="#fff"/>
              <path id="Trazado_875678" data-name="Trazado 875678" d="M78.85,296.658a2.4,2.4,0,1,1,2.4-2.4,2.4,2.4,0,0,1-2.4,2.4m0-3.8a1.4,1.4,0,1,0,1.4,1.4,1.4,1.4,0,0,0-1.4-1.4" fill="#263238"/>
            </g>
          </g>
        </g>
      </g>
    </g>
  </g>
</svg>
