<svg xmlns="http://www.w3.org/2000/svg" width="148.855" height="139" viewBox="0 0 148.855 139">
  <g id="Grupo_62208" data-name="Grupo 62208" transform="translate(-450 -12590.999)">
    <g id="Grupo_60174" data-name="Grupo 60174" transform="translate(456.007 12591.021)">
      <circle id="Elipse_157" data-name="Elipse 157" cx="69.5" cy="69.5" r="69.5" transform="translate(-0.007 -0.021)" fill="#3a277b"/>
    </g>
    <g id="Grupo_60501" data-name="Grupo 60501" transform="translate(450 12566.998)">
      <path id="Trazado_131251" data-name="Trazado 131251" d="M107.61,67.619H53.573a2.906,2.906,0,0,0-2.9,2.9V85.006H107.61Z" transform="translate(-35.942 -30.228)" fill="#293d7c"/>
      <path id="Trazado_131252" data-name="Trazado 131252" d="M59.342,67.619H53.573a2.906,2.906,0,0,0-2.9,2.9V85.006h5.769V70.517A2.907,2.907,0,0,1,59.342,67.619Z" transform="translate(-35.942 -30.228)" fill="#1a2b63"/>
      <path id="Trazado_131253" data-name="Trazado 131253" d="M78.468,95.531a2.44,2.44,0,1,1,1.725-.713A2.466,2.466,0,0,1,78.468,95.531Z" transform="translate(-53.923 -46.561)" fill="#e26693"/>
      <path id="Trazado_131254" data-name="Trazado 131254" d="M106,95.531a2.439,2.439,0,1,1,1.728-.716A2.45,2.45,0,0,1,106,95.531Z" transform="translate(-73.452 -46.562)" fill="#ffaf10"/>
      <path id="Trazado_131255" data-name="Trazado 131255" d="M133.547,95.531a2.44,2.44,0,1,1,1.725-.713A2.455,2.455,0,0,1,133.547,95.531Z" transform="translate(-92.989 -46.561)" fill="#37c47a"/>
      <path id="Trazado_131256" data-name="Trazado 131256" d="M109.063,139.7a1.458,1.458,0,0,1-1.454-1.454V127.423H50.675v76.249a71.617,71.617,0,0,0,14.155,15.9h91.08a71.618,71.618,0,0,0,14.155-15.9V139.7Z" transform="translate(-35.942 -72.645)" fill="#aec1ed"/>
      <path id="Trazado_131257" data-name="Trazado 131257" d="M56.444,201.787V127.423H50.675v76.249l.125.188Z" transform="translate(-35.942 -72.645)" fill="#85a0dd"/>
      <path id="Trazado_131258" data-name="Trazado 131258" d="M126.737,157.377a1.458,1.458,0,0,1-1.454-1.454v-3.582H77.048a1.458,1.458,0,0,0-1.454,1.454v65.124L88.14,214.31a1.024,1.024,0,0,1,.336-.071.219.219,0,0,1,.188.066c.047.067.063.232-.034.495L83.047,230h95.994a1.458,1.458,0,0,0,1.454-1.454V157.377Z" transform="translate(-53.616 -90.318)" fill="#d9eafc"/>
      <path id="Trazado_131259" data-name="Trazado 131259" d="M245.506,65.9a1.458,1.458,0,0,0,1.454,1.454h74.571a1.458,1.458,0,0,0,1.454-1.454V26.455A1.458,1.458,0,0,0,321.531,25H246.96a1.458,1.458,0,0,0-1.454,1.454Z" transform="translate(-174.129)" fill="#ffd00d"/>
      <path id="Trazado_131260" data-name="Trazado 131260" d="M251.275,65.9V26.455A1.458,1.458,0,0,1,252.729,25H246.96a1.458,1.458,0,0,0-1.454,1.454V65.9a1.458,1.458,0,0,0,1.454,1.454h5.769A1.458,1.458,0,0,1,251.275,65.9Z" transform="translate(-174.129)" fill="#ffaf10"/>
      <path id="Trazado_131261" data-name="Trazado 131261" d="M475,26.455A1.458,1.458,0,0,0,473.544,25H459.83V39.3a.872.872,0,0,0,.872.872H475Z" transform="translate(-326.142)" fill="#b7092b"/>
      <g id="Grupo_60497" data-name="Grupo 60497" transform="translate(28.92 73.114)">
        <path id="Trazado_131262" data-name="Trazado 131262" d="M277.161,194.85H226.71a2.18,2.18,0,1,1,0-4.361h50.45a2.18,2.18,0,0,1,0,4.361Z" transform="translate(-188.171 -190.489)" fill="#445ea0"/>
        <path id="Trazado_131263" data-name="Trazado 131263" d="M277.161,220.348H226.71a2.18,2.18,0,1,1,0-4.361h50.45a2.18,2.18,0,0,1,0,4.361Z" transform="translate(-188.171 -208.574)" fill="#445ea0"/>
        <path id="Trazado_131264" data-name="Trazado 131264" d="M260.673,245.847H226.71a2.18,2.18,0,0,1,0-4.361h33.962a2.18,2.18,0,1,1,0,4.361Z" transform="translate(-188.171 -226.659)" fill="#445ea0"/>
        <path id="Trazado_131265" data-name="Trazado 131265" d="M146.527,385.978H109.621l-1.6,4.361h38.508a2.18,2.18,0,1,0,0-4.361Z" transform="translate(-105.534 -329.143)" fill="#445ea0"/>
        <path id="Trazado_131266" data-name="Trazado 131266" d="M140.465,361.98H101.653A2.181,2.181,0,0,0,99.639,365l5.437-2a1.024,1.024,0,0,1,.336-.071.219.219,0,0,1,.188.066c.047.067.063.232-.034.495l-1.047,2.85h35.945a2.18,2.18,0,1,0,0-4.361Z" transform="translate(-99.472 -312.122)" fill="#445ea0"/>
        <path id="Trazado_131267" data-name="Trazado 131267" d="M140.465,342.342H101.653a2.18,2.18,0,1,1,0-4.361h38.813a2.18,2.18,0,1,1,0,4.361Z" transform="translate(-99.472 -295.1)" fill="#445ea0"/>
        <path id="Trazado_131268" data-name="Trazado 131268" d="M305.023,390.339H266.211a2.18,2.18,0,1,1,0-4.361h38.813a2.18,2.18,0,1,1,0,4.361Z" transform="translate(-216.188 -329.143)" fill="#445ea0"/>
        <path id="Trazado_131269" data-name="Trazado 131269" d="M305.023,366.341H266.211a2.18,2.18,0,1,1,0-4.361h38.813a2.18,2.18,0,0,1,0,4.361Z" transform="translate(-216.188 -312.122)" fill="#445ea0"/>
        <path id="Trazado_131270" data-name="Trazado 131270" d="M305.023,342.342H266.211a2.18,2.18,0,1,1,0-4.361h38.813a2.18,2.18,0,0,1,0,4.361Z" transform="translate(-216.188 -295.1)" fill="#445ea0"/>
      </g>
      <path id="Trazado_131271" data-name="Trazado 131271" d="M35.287,365.2c.276-.751-.113-1.139-.863-.863L1.732,376.342a.859.859,0,0,0-.337,1.529l6.375,6.375a1.458,1.458,0,0,1,0,2.056L.424,393.647a1.458,1.458,0,0,0,0,2.056L3.919,399.2a1.457,1.457,0,0,0,2.055,0l7.346-7.346a1.457,1.457,0,0,1,2.055,0l6.375,6.374a.859.859,0,0,0,1.529-.337Z" transform="translate(0 -240.615)" fill="#293d7c"/>
      <path id="Trazado_131272" data-name="Trazado 131272" d="M7.155,381.062,35.908,370.5l1.948-5.3c.276-.751-.113-1.139-.863-.863L4.3,376.342a.859.859,0,0,0-.337,1.529Z" transform="translate(-2.569 -240.615)" fill="#1a2b63"/>
      <g id="Grupo_60498" data-name="Grupo 60498" transform="translate(27.62 70.355)">
        <path id="Trazado_131273" data-name="Trazado 131273" d="M126.981,204.549A1.458,1.458,0,0,1,125.527,206H96.454A1.458,1.458,0,0,1,95,204.549v-22.1A1.458,1.458,0,0,1,96.454,181h29.073a1.458,1.458,0,0,1,1.454,1.454Z" transform="translate(-95 -181)" fill="#445ea0"/>
        <path id="Trazado_131274" data-name="Trazado 131274" d="M189.351,290.77a1.458,1.458,0,0,1-1.454,1.454H98.209a1.458,1.458,0,0,1-1.454-1.454V280.448a1.458,1.458,0,0,1,1.454-1.454H187.9a1.458,1.458,0,0,1,1.454,1.454Z" transform="translate(-96.245 -250.504)" fill="#445ea0"/>
      </g>
      <g id="Grupo_60499" data-name="Grupo 60499" transform="translate(27.62 70.355)">
        <path id="Trazado_131275" data-name="Trazado 131275" d="M100.769,204.549v-22.1A1.458,1.458,0,0,1,102.223,181H96.454A1.458,1.458,0,0,0,95,182.454v22.1A1.458,1.458,0,0,0,96.454,206h5.769A1.458,1.458,0,0,1,100.769,204.549Z" transform="translate(-95 -181)" fill="#293d7c"/>
        <path id="Trazado_131276" data-name="Trazado 131276" d="M102.524,290.77V280.448a1.458,1.458,0,0,1,1.454-1.454H98.209a1.458,1.458,0,0,0-1.454,1.454V290.77a1.458,1.458,0,0,0,1.454,1.454h5.769A1.458,1.458,0,0,1,102.524,290.77Z" transform="translate(-96.245 -250.504)" fill="#293d7c"/>
      </g>
      <g id="Grupo_60500" data-name="Grupo 60500" transform="translate(80.549 34.886)">
        <path id="Trazado_131277" data-name="Trazado 131277" d="M342.633,83.422h-6.4a2.18,2.18,0,0,1-2.181-2.18V61.181A2.18,2.18,0,0,1,336.237,59h6.4a6.549,6.549,0,0,1,6.542,6.541V76.88A6.549,6.549,0,0,1,342.633,83.422Zm-4.216-4.361h4.216a2.183,2.183,0,0,0,2.181-2.18V65.541a2.183,2.183,0,0,0-2.181-2.181h-4.216Z" transform="translate(-317.484 -59)" fill="#1a2b63"/>
        <path id="Trazado_131278" data-name="Trazado 131278" d="M401.086,83.422h-7.85a2.18,2.18,0,0,1,0-4.361h7.85a.737.737,0,0,0,.727-.727V74.118a.737.737,0,0,0-.727-.727h-4.942a5.094,5.094,0,0,1-5.088-5.088V64.088A5.094,5.094,0,0,1,396.144,59h7.85a2.18,2.18,0,0,1,0,4.361h-7.85a.737.737,0,0,0-.727.727V68.3a.737.737,0,0,0,.727.727h4.942a5.094,5.094,0,0,1,5.088,5.088v4.216A5.094,5.094,0,0,1,401.086,83.422Z" transform="translate(-357.912 -59)" fill="#1a2b63"/>
        <path id="Trazado_131279" data-name="Trazado 131279" d="M285.633,59H283.6a6.549,6.549,0,0,0-6.542,6.541v15.7a2.18,2.18,0,1,0,4.361,0v-7.8h6.4v7.8a2.18,2.18,0,1,0,4.361,0v-15.7A6.549,6.549,0,0,0,285.633,59Zm-4.216,10.079V65.541a2.183,2.183,0,0,1,2.181-2.181h2.035a2.183,2.183,0,0,1,2.181,2.181v3.537Z" transform="translate(-277.056 -59)" fill="#1a2b63"/>
      </g>
      <path id="Trazado_131280" data-name="Trazado 131280" d="M475.105,37.195l1.972-1.972a2.18,2.18,0,0,0-3.083-3.084l-1.973,1.972-1.972-1.972a2.18,2.18,0,0,0-3.083,3.084l1.972,1.972-1.972,1.972a2.18,2.18,0,0,0,3.083,3.084l1.972-1.972,1.973,1.972a2.18,2.18,0,0,0,3.083-3.084Z" transform="translate(-330.75 -4.61)" fill="#e26693"/>
    </g>
  </g>
</svg>
