<svg xmlns="http://www.w3.org/2000/svg" width="139" height="139" viewBox="0 0 139 139">
  <g id="Grupo_60496" data-name="Grupo 60496" transform="translate(-991 -12589)">
    <g id="Grupo_4585" data-name="Grupo 4585" transform="translate(991.007 12589.021)">
      <circle id="Elipse_157" data-name="Elipse 157" cx="69.5" cy="69.5" r="69.5" transform="translate(-0.007 -0.021)" fill="#26aab7"/>
    </g>
    <g id="Grupo_60495" data-name="Grupo 60495" transform="translate(992.802 12594)">
      <g id="Grupo_60468" data-name="Grupo 60468" transform="translate(0 15.194)">
        <path id="Trazado_131225" data-name="Trazado 131225" d="M102.695,149.357H5.207A5.207,5.207,0,0,1,0,144.15V63.385l2.378-3.264H107.9V144.15A5.207,5.207,0,0,1,102.695,149.357Z" transform="translate(0 -60.121)" fill="#e8edf2"/>
      </g>
      <g id="Grupo_60469" data-name="Grupo 60469" transform="translate(58.368 59.72)">
        <path id="Trazado_131226" data-name="Trazado 131226" d="M280.485,275.806V236.3h-12.7v14.328a2.6,2.6,0,0,1-2.6,2.6h-34.23v27.779h44.327a5.207,5.207,0,0,0,5.207-5.207Z" transform="translate(-230.951 -236.303)" fill="#c5d3dd"/>
      </g>
      <g id="Grupo_60470" data-name="Grupo 60470" transform="translate(12.7 29.688)">
        <path id="Trazado_131227" data-name="Trazado 131227" d="M130.15,164.433H52.856a2.6,2.6,0,0,1-2.6-2.6V120.073a2.6,2.6,0,0,1,2.6-2.6H130.15a2.6,2.6,0,0,1,2.6,2.6v41.756A2.6,2.6,0,0,1,130.15,164.433Z" transform="translate(-50.252 -117.469)" fill="#dd636e"/>
      </g>
      <g id="Grupo_60471" data-name="Grupo 60471" transform="translate(12.7 29.688)">
        <path id="Trazado_131228" data-name="Trazado 131228" d="M55.829,161.829V120.073a2.6,2.6,0,0,1,2.6-2.6H52.856a2.6,2.6,0,0,0-2.6,2.6v41.756a2.6,2.6,0,0,0,2.6,2.6h5.577A2.6,2.6,0,0,1,55.829,161.829Z" transform="translate(-50.252 -117.469)" fill="#c63d4f"/>
      </g>
      <g id="Grupo_60472" data-name="Grupo 60472" transform="translate(0 15.679)">
        <path id="Trazado_131229" data-name="Trazado 131229" d="M6.836,145.582V64.817l-2.4-2.592-2.624-.187L0,64.817v80.765a5.207,5.207,0,0,0,5.207,5.207h6.836A5.207,5.207,0,0,1,6.836,145.582Z" transform="translate(0 -62.038)" fill="#c5d3dd"/>
      </g>
      <g id="Grupo_60473" data-name="Grupo 60473">
        <path id="Trazado_131230" data-name="Trazado 131230" d="M102.695,0H5.207A5.207,5.207,0,0,0,0,5.207V18.458H107.9V5.207A5.207,5.207,0,0,0,102.695,0Z" fill="#aee6e6"/>
      </g>
      <g id="Grupo_60474" data-name="Grupo 60474">
        <path id="Trazado_131231" data-name="Trazado 131231" d="M12.043,0H5.207A5.207,5.207,0,0,0,0,5.207V18.458H6.836V5.207A5.207,5.207,0,0,1,12.043,0Z" fill="#75cef9"/>
      </g>
      <g id="Grupo_60475" data-name="Grupo 60475" transform="translate(7.851 7.842)">
        <path id="Trazado_131232" data-name="Trazado 131232" d="M35.016,34.936h-2a1.953,1.953,0,1,1,0-3.905h2a1.953,1.953,0,0,1,0,3.905Z" transform="translate(-31.064 -31.031)" fill="#75cef9"/>
      </g>
      <g id="Grupo_60476" data-name="Grupo 60476" transform="translate(17.599 7.842)">
        <path id="Trazado_131233" data-name="Trazado 131233" d="M73.589,34.936h-2a1.953,1.953,0,1,1,0-3.905h2a1.953,1.953,0,0,1,0,3.905Z" transform="translate(-69.637 -31.031)" fill="#75cef9"/>
      </g>
      <g id="Grupo_60477" data-name="Grupo 60477" transform="translate(27.348 7.842)">
        <path id="Trazado_131234" data-name="Trazado 131234" d="M112.162,34.936h-2a1.953,1.953,0,1,1,0-3.905h2a1.953,1.953,0,1,1,0,3.905Z" transform="translate(-108.21 -31.031)" fill="#75cef9"/>
      </g>
      <g id="Grupo_60478" data-name="Grupo 60478" transform="translate(39.033 88.578)">
        <path id="Trazado_131235" data-name="Trazado 131235" d="M166.96,354.394H156.4a1.953,1.953,0,1,1,0-3.905H166.96a1.953,1.953,0,1,1,0,3.905Z" transform="translate(-154.445 -350.489)" fill="#90d8f9"/>
      </g>
      <g id="Grupo_60479" data-name="Grupo 60479" transform="translate(27.827 88.578)">
        <path id="Trazado_131236" data-name="Trazado 131236" d="M122.148,354.394h-10.09a1.953,1.953,0,1,1,0-3.905h10.09a1.953,1.953,0,1,1,0,3.905Z" transform="translate(-110.106 -350.489)" fill="#9facba"/>
      </g>
      <g id="Grupo_60480" data-name="Grupo 60480" transform="translate(58.368 59.72)">
        <path id="Trazado_131237" data-name="Trazado 131237" d="M230.951,246.716v6.517h34.23a2.6,2.6,0,0,0,2.6-2.6V236.3h-26.42a10.426,10.426,0,0,0-10.414,10.414Z" transform="translate(-230.951 -236.302)" fill="#c63d4f"/>
      </g>
      <g id="Grupo_60481" data-name="Grupo 60481" transform="translate(10.747 86.001)">
        <path id="Trazado_131238" data-name="Trazado 131238" d="M44.479,349.351a1.953,1.953,0,0,1-1.953-1.953v-5.155a1.953,1.953,0,1,1,3.905,0V347.4A1.952,1.952,0,0,1,44.479,349.351Z" transform="translate(-42.526 -340.291)" fill="#9facba"/>
      </g>
      <g id="Grupo_60482" data-name="Grupo 60482" transform="translate(18.267 86.001)">
        <path id="Trazado_131239" data-name="Trazado 131239" d="M74.231,349.351a1.953,1.953,0,0,1-1.953-1.953v-5.155a1.953,1.953,0,0,1,3.905,0V347.4A1.953,1.953,0,0,1,74.231,349.351Z" transform="translate(-72.278 -340.291)" fill="#9facba"/>
      </g>
      <g id="Grupo_60483" data-name="Grupo 60483" transform="translate(33.987 84.759)">
        <path id="Trazado_131240" data-name="Trazado 131240" d="M134.479,345.618v-8.936a1.3,1.3,0,0,1,1.885-1.164l8.915,4.468a1.3,1.3,0,0,1,0,2.328l-8.915,4.468a1.3,1.3,0,0,1-1.885-1.164Z" transform="translate(-134.479 -335.378)" fill="#dd636e"/>
      </g>
      <g id="Grupo_60484" data-name="Grupo 60484" transform="translate(46.267 42.533)">
        <path id="Trazado_131241" data-name="Trazado 131241" d="M185.006,189.4l16.7-9.332a1.3,1.3,0,0,0,0-2.273l-16.7-9.332a1.3,1.3,0,0,0-1.937,1.137v18.665a1.3,1.3,0,0,0,1.937,1.137Z" transform="translate(-183.069 -168.297)" fill="#e8edf2"/>
      </g>
      <g id="Grupo_60486" data-name="Grupo 60486" transform="translate(64.876 66.229)">
        <g id="Grupo_60485" data-name="Grupo 60485">
          <path id="Trazado_131242" data-name="Trazado 131242" d="M317.32,325.224H260.61a3.905,3.905,0,0,1-3.905-3.905V265.962a3.905,3.905,0,0,1,3.905-3.905H317.32a3.905,3.905,0,0,1,3.905,3.905v55.357A3.905,3.905,0,0,1,317.32,325.224Z" transform="translate(-256.705 -262.057)" fill="#f5ca56"/>
        </g>
      </g>
      <g id="Grupo_60488" data-name="Grupo 60488" transform="translate(64.876 66.229)">
        <g id="Grupo_60487" data-name="Grupo 60487">
          <path id="Trazado_131243" data-name="Trazado 131243" d="M262.329,321.319V265.962a3.905,3.905,0,0,1,3.905-3.905H260.61a3.905,3.905,0,0,0-3.905,3.905v55.357a3.905,3.905,0,0,0,3.905,3.905h5.624A3.906,3.906,0,0,1,262.329,321.319Z" transform="translate(-256.705 -262.057)" fill="#ebb044"/>
        </g>
      </g>
      <g id="Grupo_60489" data-name="Grupo 60489" transform="translate(112.65 66.229)">
        <path id="Trazado_131244" data-name="Trazado 131244" d="M462.484,278.8H449.643a3.905,3.905,0,0,1-3.905-3.905V262.057h12.841a3.905,3.905,0,0,1,3.905,3.905Z" transform="translate(-445.738 -262.057)" fill="#dd636e"/>
      </g>
      <path id="Trazado_131245" data-name="Trazado 131245" d="M469.991,283.548l.6-.6a1.953,1.953,0,1,0-2.762-2.762l-.6.6-.6-.6a1.953,1.953,0,1,0-2.762,2.762l.6.6-.6.6a1.953,1.953,0,1,0,2.761,2.762l.6-.6.6.6a1.953,1.953,0,0,0,2.762-2.762Z" transform="translate(-346.206 -208.946)" fill="#b2263d"/>
      <path id="Trazado_131246" data-name="Trazado 131246" d="M300.884,362.274,295.2,347.216l-.021-.054a2.291,2.291,0,0,0-2.126-1.424h0a2.29,2.29,0,0,0-2.125,1.429l-.017.044-5.735,15.057a1.953,1.953,0,1,0,3.649,1.39l.949-2.492h6.518l.939,2.487a1.953,1.953,0,0,0,3.654-1.379Zm-9.623-5.013,1.787-4.691,1.77,4.691Z" transform="translate(-213.007 -258.361)" fill="#e8edf2"/>
      <g id="Grupo_60491" data-name="Grupo 60491" transform="translate(108.412 87.378)">
        <g id="Grupo_60490" data-name="Grupo 60490">
          <path id="Trazado_131247" data-name="Trazado 131247" d="M436.243,364.919a9.236,9.236,0,0,1-6.769-2.905,1.953,1.953,0,0,1,2.893-2.623,5.274,5.274,0,0,0,3.875,1.623,2.533,2.533,0,0,0,2.625-1.7c.2-1.1-1.315-1.788-1.975-2.031-2.37-.874-4.475-1.811-4.563-1.85a1.93,1.93,0,0,1-.271-.147,4.9,4.9,0,0,1-2.185-4.848,5.415,5.415,0,0,1,3.924-4.373c4.194-1.263,7.647,1.583,7.792,1.7a1.953,1.953,0,0,1-2.5,3,5.04,5.04,0,0,0-4.163-.964,1.492,1.492,0,0,0-1.184,1.188,1.018,1.018,0,0,0,.354.95c.542.237,2.282.987,4.15,1.677,3.879,1.431,4.851,4.235,4.468,6.382a6.341,6.341,0,0,1-6.469,4.919Z" transform="translate(-428.968 -345.742)" fill="#e8edf2"/>
        </g>
      </g>
      <g id="Grupo_60492" data-name="Grupo 60492" transform="translate(91.684 87.603)">
        <path id="Trazado_131248" data-name="Trazado 131248" d="M364.763,365.358a1.952,1.952,0,0,1-1.953-1.945s-.019-5.373-.019-7.433c0-1.69-.011-7.391-.011-7.391a1.953,1.953,0,0,1,1.953-1.956h4.2c4.748,0,7.938,3.763,7.938,9.363,0,5.327-3.272,9.251-7.781,9.33-1.2.021-4.19.032-4.317.033Zm1.926-14.82c0,1.818.007,4.4.007,5.441,0,1.249.007,3.718.013,5.464.853-.005,1.778-.013,2.31-.022,2.724-.048,3.944-2.759,3.944-5.425,0-1.28-.291-5.458-4.032-5.458h-2.241Z" transform="translate(-362.78 -346.632)" fill="#e8edf2"/>
      </g>
      <g id="Grupo_60493" data-name="Grupo 60493" transform="translate(72.039 110.999)">
        <path id="Trazado_131249" data-name="Trazado 131249" d="M333.328,443.11H287a1.953,1.953,0,0,1,0-3.905h46.329a1.953,1.953,0,0,1,0,3.905Z" transform="translate(-285.047 -439.205)" fill="#d68a1d"/>
      </g>
      <g id="Grupo_60494" data-name="Grupo 60494" transform="translate(72.039 119.035)">
        <path id="Trazado_131250" data-name="Trazado 131250" d="M333.328,474.905H287A1.953,1.953,0,0,1,287,471h46.329a1.953,1.953,0,0,1,0,3.905Z" transform="translate(-285.047 -471)" fill="#d68a1d"/>
      </g>
    </g>
  </g>
</svg>
