<svg xmlns="http://www.w3.org/2000/svg" width="344" height="220" viewBox="0 0 344 220">
  <g id="Grupo_60726" data-name="Grupo 60726" transform="translate(-1020 -14156.688)">
    <rect id="Rectángulo_31358" data-name="Rectángulo 31358" width="344" height="220" transform="translate(1020 14156.688)" fill="none"/>
    <g id="Grupo_60723" data-name="Grupo 60723" transform="translate(-12.859 15.146)">
      <rect id="Rectángulo_31359" data-name="Rectángulo 31359" width="297.469" height="45.68" rx="12.66" transform="translate(1043.859 14285.854)" fill="#e0e0e0"/>
      <path id="Trazado_133562" data-name="Trazado 133562" d="M-98.767-3.224A2.869,2.869,0,0,0-96.8-3.89a2.334,2.334,0,0,0,.787-1.771h4.1a5.611,5.611,0,0,1-.908,3.05A5.993,5.993,0,0,1-95.263-.462,7.651,7.651,0,0,1-98.691.3a7.11,7.11,0,0,1-5.54-2.233A8.835,8.835,0,0,1-106.26-8.1v-.288a8.734,8.734,0,0,1,2.013-6.04,7.027,7.027,0,0,1,5.525-2.255,6.889,6.889,0,0,1,4.927,1.748,6.19,6.19,0,0,1,1.885,4.655h-4.1a3.006,3.006,0,0,0-.787-2.077,2.624,2.624,0,0,0-2-.8,2.635,2.635,0,0,0-2.308,1.114,6.457,6.457,0,0,0-.78,3.616v.455a6.539,6.539,0,0,0,.772,3.638A2.668,2.668,0,0,0-98.767-3.224ZM-79.6-1.665A5.486,5.486,0,0,1-84.084.3,5.174,5.174,0,0,1-88.1-1.211a6.462,6.462,0,0,1-1.415-4.435V-16.378h4.375V-5.785q0,2.561,2.331,2.561A3.159,3.159,0,0,0-79.755-4.77V-16.378h4.39V0h-4.117Zm16.741-10.611a11.885,11.885,0,0,0-1.574-.121q-2.482,0-3.254,1.68V0h-4.375V-16.378h4.132l.121,1.953a4.053,4.053,0,0,1,3.648-2.255,4.584,4.584,0,0,1,1.362.2Zm10.974,7.75a1.409,1.409,0,0,0-.795-1.264,9.027,9.027,0,0,0-2.551-.825q-5.843-1.226-5.843-4.965a4.5,4.5,0,0,1,1.809-3.64,7.3,7.3,0,0,1,4.73-1.461,7.853,7.853,0,0,1,4.988,1.468A4.627,4.627,0,0,1-47.681-11.4h-4.375a2.117,2.117,0,0,0-.605-1.552,2.562,2.562,0,0,0-1.892-.613,2.618,2.618,0,0,0-1.71.5,1.577,1.577,0,0,0-.605,1.271,1.348,1.348,0,0,0,.689,1.173,7.085,7.085,0,0,0,2.323.772,18.978,18.978,0,0,1,2.755.734q3.466,1.271,3.466,4.4a4.272,4.272,0,0,1-1.922,3.625A8.293,8.293,0,0,1-54.522.3a8.661,8.661,0,0,1-3.656-.734,6.133,6.133,0,0,1-2.505-2.013,4.678,4.678,0,0,1-.908-2.762h4.147a2.284,2.284,0,0,0,.863,1.786,3.422,3.422,0,0,0,2.149.621,3.167,3.167,0,0,0,1.9-.477A1.484,1.484,0,0,0-51.889-4.526ZM-45.5-8.34a9.713,9.713,0,0,1,.938-4.344,6.87,6.87,0,0,1,2.7-2.952,7.883,7.883,0,0,1,4.094-1.044,7.458,7.458,0,0,1,5.411,2.028,8.14,8.14,0,0,1,2.339,5.51l.03,1.12a8.56,8.56,0,0,1-2.1,6.047A7.313,7.313,0,0,1-37.736.3a7.35,7.35,0,0,1-5.654-2.271A8.711,8.711,0,0,1-45.5-8.144Zm4.375.311a6.122,6.122,0,0,0,.878,3.57,2.9,2.9,0,0,0,2.513,1.236,2.9,2.9,0,0,0,2.482-1.22,6.7,6.7,0,0,0,.893-3.9,6.061,6.061,0,0,0-.893-3.547,2.9,2.9,0,0,0-2.513-1.258A2.856,2.856,0,0,0-40.249-11.9,6.812,6.812,0,0,0-41.126-8.03Zm20.874-.28a9.87,9.87,0,0,1,1.718-6.1,5.574,5.574,0,0,1,4.7-2.271,5.016,5.016,0,0,1,3.951,1.786V-23.25h4.39V0H-9.445l-.212-1.741A5.148,5.148,0,0,1-13.865.3,5.559,5.559,0,0,1-18.5-1.975,10.188,10.188,0,0,1-20.253-8.31Zm4.375.326a6.465,6.465,0,0,0,.8,3.532,2.613,2.613,0,0,0,2.331,1.228A2.927,2.927,0,0,0-9.884-4.937V-11.41a2.885,2.885,0,0,0-2.831-1.713Q-15.878-13.124-15.878-7.984ZM5.434.3A8.04,8.04,0,0,1-.431-1.907,7.855,7.855,0,0,1-2.694-7.8v-.424a9.894,9.894,0,0,1,.954-4.412,7,7,0,0,1,2.7-3A7.584,7.584,0,0,1,4.95-16.681a6.8,6.8,0,0,1,5.29,2.119,8.611,8.611,0,0,1,1.93,6.009v1.786H1.741A4.064,4.064,0,0,0,3.02-4.193a3.866,3.866,0,0,0,2.7.969A4.722,4.722,0,0,0,9.672-5.056l2.149,2.407A6.567,6.567,0,0,1,9.158-.477,8.74,8.74,0,0,1,5.434.3Zm-.5-13.457a2.734,2.734,0,0,0-2.112.882A4.566,4.566,0,0,0,1.786-9.748H7.871v-.35a3.257,3.257,0,0,0-.787-2.258A2.82,2.82,0,0,0,4.935-13.154ZM31.863,0a4.858,4.858,0,0,1-.439-1.468A5.293,5.293,0,0,1,27.292.3,5.815,5.815,0,0,1,23.3-1.09,4.479,4.479,0,0,1,21.721-4.6a4.628,4.628,0,0,1,1.93-4,9.523,9.523,0,0,1,5.578-1.408h2.013v-.938a2.7,2.7,0,0,0-.583-1.816,2.293,2.293,0,0,0-1.839-.681,2.606,2.606,0,0,0-1.733.53,1.8,1.8,0,0,0-.628,1.453H22.084a4.394,4.394,0,0,1,.878-2.634,5.8,5.8,0,0,1,2.482-1.9,9.047,9.047,0,0,1,3.6-.689,7.148,7.148,0,0,1,4.806,1.521,5.322,5.322,0,0,1,1.779,4.276v7.1a7.83,7.83,0,0,0,.651,3.527V0ZM28.245-3.042a3.768,3.768,0,0,0,1.786-.431,2.833,2.833,0,0,0,1.211-1.158V-7.447H29.607q-3.285,0-3.5,2.271l-.015.257a1.751,1.751,0,0,0,.575,1.347A2.234,2.234,0,0,0,28.245-3.042ZM48.2-12.276a11.885,11.885,0,0,0-1.574-.121q-2.482,0-3.254,1.68V0H38.992V-16.378h4.132l.121,1.953a4.053,4.053,0,0,1,3.648-2.255,4.584,4.584,0,0,1,1.362.2Zm8.1-8.128v4.026h2.8v3.209h-2.8V-5a1.952,1.952,0,0,0,.348,1.3,1.749,1.749,0,0,0,1.332.394,6.976,6.976,0,0,0,1.287-.106V-.091A9.006,9.006,0,0,1,56.611.3q-4.6,0-4.692-4.647v-8.825H49.527v-3.209h2.392V-20.4ZM69.069.3A8.04,8.04,0,0,1,63.2-1.907,7.855,7.855,0,0,1,60.94-7.8v-.424a9.894,9.894,0,0,1,.954-4.412,7,7,0,0,1,2.7-3,7.584,7.584,0,0,1,3.989-1.052,6.8,6.8,0,0,1,5.29,2.119A8.611,8.611,0,0,1,75.8-8.552v1.786H65.375a4.064,4.064,0,0,0,1.279,2.573,3.866,3.866,0,0,0,2.7.969,4.722,4.722,0,0,0,3.951-1.832l2.149,2.407A6.567,6.567,0,0,1,72.792-.477,8.74,8.74,0,0,1,69.069.3Zm-.5-13.457a2.734,2.734,0,0,0-2.112.882,4.566,4.566,0,0,0-1.037,2.524h6.085v-.35a3.257,3.257,0,0,0-.787-2.258A2.82,2.82,0,0,0,68.569-13.154Zm17.771,11a2.2,2.2,0,0,1,.7-1.7A2.5,2.5,0,0,1,88.807-4.5a2.518,2.518,0,0,1,1.779.651,2.2,2.2,0,0,1,.7,1.7,2.172,2.172,0,0,1-.7,1.673,2.528,2.528,0,0,1-1.786.643,2.508,2.508,0,0,1-1.771-.643A2.172,2.172,0,0,1,86.34-2.149Zm7.16,0a2.2,2.2,0,0,1,.7-1.7A2.5,2.5,0,0,1,95.967-4.5a2.518,2.518,0,0,1,1.779.651,2.2,2.2,0,0,1,.7,1.7,2.172,2.172,0,0,1-.7,1.673,2.528,2.528,0,0,1-1.786.643A2.508,2.508,0,0,1,94.2-.477,2.172,2.172,0,0,1,93.5-2.149Zm7.023,0a2.2,2.2,0,0,1,.7-1.7A2.5,2.5,0,0,1,102.99-4.5a2.518,2.518,0,0,1,1.779.651,2.2,2.2,0,0,1,.7,1.7,2.172,2.172,0,0,1-.7,1.673,2.528,2.528,0,0,1-1.786.643,2.508,2.508,0,0,1-1.771-.643A2.172,2.172,0,0,1,100.523-2.149Z" transform="translate(1192.859 14318.854)" fill="#d6a113"/>
    </g>
    <g id="Grupo_60722" data-name="Grupo 60722" transform="translate(878.765 14117.75)">
      <path id="Trazado_132490" data-name="Trazado 132490" d="M342.91,63.92V198.954l21.75-22.57H467.813V63.92Z" transform="translate(0)" fill="#f5ca56"/>
      <path id="Trazado_132491" data-name="Trazado 132491" d="M466.982,82.2c0,.187-27.536.34-61.491.34S344,82.387,344,82.2s27.525-.34,61.491-.34S466.982,82.024,466.982,82.2Z" transform="translate(0.187 3.072)" fill="#fff"/>
      <path id="Trazado_132492" data-name="Trazado 132492" d="M355.718,75.452A3.1,3.1,0,1,1,352.6,72.36h.012A3.1,3.1,0,0,1,355.718,75.452Z" transform="translate(1.13 1.445)" fill="#fff"/>
      <path id="Trazado_132493" data-name="Trazado 132493" d="M363.538,75.454a3.1,3.1,0,1,1-3.1-3.1h.023A3.1,3.1,0,0,1,363.538,75.454Z" transform="translate(2.47 1.444)" fill="#fff"/>
      <path id="Trazado_132494" data-name="Trazado 132494" d="M371.344,75.452a3.092,3.092,0,1,1-3.092-3.092A3.092,3.092,0,0,1,371.344,75.452Z" transform="translate(3.81 1.445)" fill="#fff"/>
      <path id="Trazado_132495" data-name="Trazado 132495" d="M383.721,126.575H375.44l-1.534,3.795H368.26l8.632-19.56h5.458l8.667,19.56h-5.763Zm-1.628-4.088-2.518-6.255-2.506,6.255Z" transform="translate(4.341 8.03)" fill="#fff"/>
      <path id="Trazado_132496" data-name="Trazado 132496" d="M389,110.81h9.253c6.489,0,10.928,3.771,10.928,9.78s-4.439,9.78-10.928,9.78H389Zm9.03,15.144c3.326,0,5.564-1.979,5.564-5.364s-2.237-5.364-5.564-5.364h-3.514v10.729Z" transform="translate(7.893 8.03)" fill="#fff"/>
      <path id="Trazado_132497" data-name="Trazado 132497" d="M407.56,128.662l1.815-4.088a12.336,12.336,0,0,0,6.465,1.933c2.284,0,3.186-.644,3.186-1.593,0-3.1-11.127-.832-11.127-8.105,0-3.514,2.846-6.348,8.667-6.348a14.594,14.594,0,0,1,7.1,1.71l-1.71,4.111a11.532,11.532,0,0,0-5.423-1.511c-2.343,0-3.151.785-3.151,1.757,0,3,11.092.761,11.092,7.965,0,3.408-2.846,6.325-8.667,6.325A15.406,15.406,0,0,1,407.56,128.662Z" transform="translate(11.072 7.97)" fill="#fff"/>
    </g>
    <g id="Grupo_60725" data-name="Grupo 60725">
      <g id="Grupo_60724" data-name="Grupo 60724" transform="translate(1044.684 13878.572)">
        <rect id="Rectángulo_31360" data-name="Rectángulo 31360" width="104.208" height="93.822" transform="translate(30.78 308.06)" fill="#aee6e6"/>
        <rect id="Rectángulo_31361" data-name="Rectángulo 31361" width="77.028" height="28.696" rx="7.53" transform="translate(44.376 348.034)" fill="#fff"/>
        <path id="Trazado_132498" data-name="Trazado 132498" d="M134.3,324.029c0,.156-22.968.279-51.263.279s-51.263-.123-51.263-.279,22.968-.279,51.263-.279S134.3,323.917,134.3,324.029Z" transform="translate(0.113 1.795)" fill="#fff"/>
        <path id="Trazado_132499" data-name="Trazado 132499" d="M41.751,318.035a2.585,2.585,0,1,1-2.585-2.585,2.586,2.586,0,0,1,2.585,2.585Z" transform="translate(0.664 0.845)" fill="#fff"/>
        <path id="Trazado_132500" data-name="Trazado 132500" d="M48.6,318.035a2.585,2.585,0,1,1-2.585-2.585h.011a2.574,2.574,0,0,1,2.574,2.574Z" transform="translate(1.447 0.845)" fill="#fff"/>
        <path id="Trazado_132501" data-name="Trazado 132501" d="M55.461,318.035a2.585,2.585,0,1,1-2.585-2.585,2.586,2.586,0,0,1,2.585,2.585Z" transform="translate(2.232 0.845)" fill="#fff"/>
      </g>
    </g>
  </g>
</svg>
