<svg xmlns="http://www.w3.org/2000/svg" xmlns:xlink="http://www.w3.org/1999/xlink" width="400" height="452" viewBox="0 0 400 452">
  <defs>
    <filter id="Rectángulo_31291" x="182.225" y="136.663" width="207.479" height="265.199" filterUnits="userSpaceOnUse">
      <feOffset dy="7" input="SourceAlpha"/>
      <feGaussianBlur stdDeviation="2.5" result="blur"/>
      <feFlood flood-opacity="0.161"/>
      <feComposite operator="in" in2="blur"/>
      <feComposite in="SourceGraphic"/>
    </filter>
    <filter id="Rectángulo_31326" x="43.127" y="12.903" width="150.355" height="51.77" filterUnits="userSpaceOnUse">
      <feOffset dy="7" input="SourceAlpha"/>
      <feGaussianBlur stdDeviation="2.5" result="blur-2"/>
      <feFlood flood-color="#163159" flood-opacity="0.2"/>
      <feComposite operator="in" in2="blur-2"/>
      <feComposite in="SourceGraphic"/>
    </filter>
    <filter id="Rectángulo_31326-2" x="20.127" y="371.903" width="150.355" height="51.77" filterUnits="userSpaceOnUse">
      <feOffset dy="7" input="SourceAlpha"/>
      <feGaussianBlur stdDeviation="2.5" result="blur-3"/>
      <feFlood flood-color="#163159" flood-opacity="0.2"/>
      <feComposite operator="in" in2="blur-3"/>
      <feComposite in="SourceGraphic"/>
    </filter>
  </defs>
  <g id="Grupo_61395" data-name="Grupo 61395" transform="translate(-1020 -9962)">
    <rect id="Rectángulo_31044" data-name="Rectángulo 31044" width="400" height="452" transform="translate(1020 9962)" fill="#f3f9ff"/>
    <g id="Grupo_60639" data-name="Grupo 60639" transform="translate(1015.878 9762.52)">
      <rect id="Rectángulo_31290" data-name="Rectángulo 31290" width="192.48" height="342.19" transform="translate(193.847 244.653)" fill="#fff"/>
      <g transform="matrix(1, 0, 0, 1, 4.12, 199.48)" filter="url(#Rectángulo_31291)">
        <rect id="Rectángulo_31291-2" data-name="Rectángulo 31291" width="192.48" height="250.2" transform="translate(189.73 137.16)" fill="#f6f7f8"/>
      </g>
      <g id="Grupo_60616" data-name="Grupo 60616" transform="translate(193.846 244.653)">
        <rect id="Rectángulo_31292" data-name="Rectángulo 31292" width="192.483" height="16.344" fill="#334b80"/>
        <g id="Grupo_60608" data-name="Grupo 60608" transform="translate(116.491 2.819)">
          <path id="Trazado_131859" data-name="Trazado 131859" d="M264.418,250.774l1.088,1.364,1.081-1.364a2.092,2.092,0,0,0-2.17,0Z" transform="translate(-259.959 -243.319)" fill="#fff"/>
          <path id="Trazado_131860" data-name="Trazado 131860" d="M263.549,249.894l1.148,1.445a2.6,2.6,0,0,1,2.852,0L268.7,249.9a4.479,4.479,0,0,0-5.152,0Z" transform="translate(-260.579 -244.312)" fill="#fff"/>
          <path id="Trazado_131861" data-name="Trazado 131861" d="M267.364,246.3a9.151,9.151,0,0,0-5.548,1.853l1.141,1.436a7.4,7.4,0,0,1,8.811,0l1.135-1.436A9.134,9.134,0,0,0,267.364,246.3Z" transform="translate(-261.816 -246.298)" fill="#fff"/>
          <path id="Trazado_131862" data-name="Trazado 131862" d="M262.682,249.028l1.141,1.429a5.027,5.027,0,0,1,5.837,0l1.141-1.429a6.827,6.827,0,0,0-8.12,0Z" transform="translate(-261.198 -245.305)" fill="#fff"/>
          <path id="Trazado_131863" data-name="Trazado 131863" d="M262.012,252.272H264.3l-1.145-1.988Z" transform="translate(-261.676 -243.452)" fill="#fff"/>
        </g>
        <g id="Grupo_60613" data-name="Grupo 60613" transform="translate(103.373 3.124)">
          <g id="Grupo_60609" data-name="Grupo 60609" transform="translate(0 0.001)">
            <path id="Trazado_131864" data-name="Trazado 131864" d="M254.638,248.656l-.475-.479,1.7-1.7.479.475Z" transform="translate(-254.162 -246.477)" fill="#fff"/>
          </g>
          <g id="Grupo_60610" data-name="Grupo 60610" transform="translate(6.028)">
            <rect id="Rectángulo_31293" data-name="Rectángulo 31293" width="0.673" height="2.406" transform="translate(0 0.476) rotate(-44.945)" fill="#fff"/>
          </g>
          <g id="Grupo_60611" data-name="Grupo 60611" transform="translate(0.485 0.49)">
            <path id="Trazado_131865" data-name="Trazado 131865" d="M258.065,253.991a3.615,3.615,0,1,1,3.614-3.613A3.622,3.622,0,0,1,258.065,253.991Zm0-6.554A2.939,2.939,0,1,0,261,250.378,2.946,2.946,0,0,0,258.065,247.437Z" transform="translate(-254.445 -246.762)" fill="#fff"/>
          </g>
          <g id="Grupo_60612" data-name="Grupo 60612" transform="translate(3.849 1.941)">
            <path id="Trazado_131866" data-name="Trazado 131866" d="M258.012,251.479c-1.3-1.292-1.573-1.573-1.6-1.705l0-.017v-2.147h.506v2.058c.305.3,1.457,1.457,1.457,1.457Z" transform="translate(-256.408 -247.609)" fill="#fff"/>
          </g>
        </g>
        <path id="Trazado_131867" data-name="Trazado 131867" d="M275.122,247.785l-1.436,1.436v4.559h1.436Z" transform="translate(-136.852 -242.418)" fill="#fff"/>
        <path id="Trazado_131868" data-name="Trazado 131868" d="M272.453,252.9h1.436v-3.885l-1.436,1.438Z" transform="translate(-137.732 -241.539)" fill="#fff"/>
        <path id="Trazado_131869" data-name="Trazado 131869" d="M274.916,248.132V254.8h1.774v-8.442Z" transform="translate(-135.974 -243.437)" fill="#243559"/>
        <g id="Grupo_60614" data-name="Grupo 60614" transform="translate(148.891 3.59)">
          <path id="Trazado_131870" data-name="Trazado 131870" d="M282.579,246.748a.429.429,0,0,0-.428.423v1.352h-1a.424.424,0,0,0-.425.428v2.7a.422.422,0,0,0,.425.425h1v1.352a.432.432,0,0,0,.428.427h1.707v-7.106Z" transform="translate(-280.721 -246.748)" fill="#243559"/>
          <path id="Trazado_131871" data-name="Trazado 131871" d="M294.037,253.427v-6.256a.422.422,0,0,0-.428-.423H282.8v7.106h10.807A.425.425,0,0,0,294.037,253.427Z" transform="translate(-279.236 -246.748)" fill="#fff"/>
        </g>
        <g id="Grupo_60615" data-name="Grupo 60615" transform="translate(168.398 4.483)">
          <path id="Trazado_131872" data-name="Trazado 131872" d="M293.875,252.379h-.543V248.77c0-.3.007-.584.024-.852a1.7,1.7,0,0,1-.158.153c-.057.051-.324.279-.8.675l-.295-.394,1.3-1.037h.47Z" transform="translate(-292.103 -247.236)" fill="#fff"/>
          <path id="Trazado_131873" data-name="Trazado 131873" d="M297.481,249.874a3.8,3.8,0,0,1-.4,1.962,1.352,1.352,0,0,1-1.229.65,1.332,1.332,0,0,1-1.2-.665,3.687,3.687,0,0,1-.416-1.947,3.771,3.771,0,0,1,.4-1.962,1.457,1.457,0,0,1,2.434.026A3.7,3.7,0,0,1,297.481,249.874Zm-2.686,0a3.822,3.822,0,0,0,.252,1.611.894.894,0,0,0,1.613-.009,5.28,5.28,0,0,0,0-3.2.9.9,0,0,0-1.613-.007A3.789,3.789,0,0,0,294.8,249.874Z" transform="translate(-290.585 -247.269)" fill="#fff"/>
          <path id="Trazado_131874" data-name="Trazado 131874" d="M296.625,248.469c0-.314.134-.471.4-.471s.413.158.413.471a.5.5,0,0,1-.111.344.429.429,0,0,1-.586.012A.491.491,0,0,1,296.625,248.469Zm0,3.058a.534.534,0,0,1,.1-.351.368.368,0,0,1,.295-.122.383.383,0,0,1,.3.122.5.5,0,0,1,.111.351.494.494,0,0,1-.111.346.429.429,0,0,1-.586.012A.487.487,0,0,1,296.625,251.527Z" transform="translate(-288.875 -246.749)" fill="#fff"/>
          <path id="Trazado_131875" data-name="Trazado 131875" d="M301.132,251.228h-.73v1.162h-.535v-1.162H297.48v-.5l2.331-3.426h.591v3.405h.73Zm-1.265-.523v-1.683c0-.332.01-.7.034-1.121h-.027a5.43,5.43,0,0,1-.3.552l-1.532,2.252Z" transform="translate(-288.265 -247.247)" fill="#fff"/>
          <path id="Trazado_131876" data-name="Trazado 131876" d="M303.14,249.874a3.8,3.8,0,0,1-.4,1.962,1.458,1.458,0,0,1-2.437-.015,3.741,3.741,0,0,1-.411-1.947,3.812,3.812,0,0,1,.4-1.962,1.46,1.46,0,0,1,2.437.026A3.7,3.7,0,0,1,303.14,249.874Zm-2.684,0a3.826,3.826,0,0,0,.25,1.611.893.893,0,0,0,1.611-.009,5.179,5.179,0,0,0,0-3.2.9.9,0,0,0-1.611-.007A3.794,3.794,0,0,0,300.457,249.874Z" transform="translate(-286.544 -247.269)" fill="#fff"/>
        </g>
      </g>
      <g id="Grupo_60621" data-name="Grupo 60621" transform="translate(200.9 323.925)">
        <g id="Grupo_60617" data-name="Grupo 60617" transform="translate(0 1.572)">
          <circle id="Elipse_4359" data-name="Elipse 4359" cx="16.21" cy="16.21" r="16.21" fill="#b1bacc"/>
          <rect id="Rectángulo_31294" data-name="Rectángulo 31294" width="18.959" height="3.106" transform="translate(6.73 38.428)" fill="#b1bacc"/>
          <circle id="Elipse_4360" data-name="Elipse 4360" cx="4.177" cy="4.177" r="4.177" transform="translate(24.493 22.958)" fill="#3578e5"/>
          <path id="Trazado_131877" data-name="Trazado 131877" d="M215.221,309.939a.375.375,0,0,1-.375.375h0a.374.374,0,0,1-.374-.375v-3a.372.372,0,0,1,.374-.374h0a.374.374,0,0,1,.375.374Z" transform="translate(-186.176 -281.303)" fill="#fff"/>
          <path id="Trazado_131878" data-name="Trazado 131878" d="M213.97,308.188a.374.374,0,0,1-.374-.375h0a.372.372,0,0,1,.374-.374h3a.374.374,0,0,1,.375.374h0a.375.375,0,0,1-.375.375Z" transform="translate(-186.802 -280.678)" fill="#fff"/>
        </g>
        <g id="Grupo_60618" data-name="Grupo 60618" transform="translate(46.212)">
          <circle id="Elipse_4361" data-name="Elipse 4361" cx="16.21" cy="16.21" r="16.21" transform="translate(1.572 1.572)" fill="#b1bacc"/>
          <circle id="Elipse_4362" data-name="Elipse 4362" cx="17.781" cy="17.781" r="17.781" fill="none" stroke="#3578e5" stroke-miterlimit="10" stroke-width="0.5"/>
          <rect id="Rectángulo_31295" data-name="Rectángulo 31295" width="18.959" height="3.106" transform="translate(8.301 39.999)" fill="#b1bacc"/>
          <path id="Trazado_131879" data-name="Trazado 131879" d="M253.535,311.684a7.985,7.985,0,1,1-7.983-7.983A7.984,7.984,0,0,1,253.535,311.684Z" transform="translate(-215.903 -281.774)" fill="#fff"/>
          <path id="Trazado_131880" data-name="Trazado 131880" d="M251.816,311.179a6.771,6.771,0,1,1-6.77-6.77A6.771,6.771,0,0,1,251.816,311.179Z" transform="translate(-215.398 -281.269)" fill="#b1bacc"/>
        </g>
        <g id="Grupo_60619" data-name="Grupo 60619" transform="translate(93.477)">
          <circle id="Elipse_4363" data-name="Elipse 4363" cx="16.21" cy="16.21" r="16.21" transform="translate(1.572 1.572)" fill="#b1bacc"/>
          <circle id="Elipse_4364" data-name="Elipse 4364" cx="17.781" cy="17.781" r="17.781" fill="none" stroke="#3578e5" stroke-miterlimit="10" stroke-width="0.5"/>
          <rect id="Rectángulo_31296" data-name="Rectángulo 31296" width="18.959" height="3.106" transform="translate(8.302 39.999)" fill="#b1bacc"/>
          <path id="Trazado_131881" data-name="Trazado 131881" d="M281.112,311.684a7.984,7.984,0,1,1-7.983-7.983A7.984,7.984,0,0,1,281.112,311.684Z" transform="translate(-243.481 -281.774)" fill="#fff"/>
          <path id="Trazado_131882" data-name="Trazado 131882" d="M279.393,311.179a6.771,6.771,0,1,1-6.77-6.77A6.771,6.771,0,0,1,279.393,311.179Z" transform="translate(-242.975 -281.269)" fill="#b1bacc"/>
        </g>
        <g id="Grupo_60620" data-name="Grupo 60620" transform="translate(140.741)">
          <circle id="Elipse_4365" data-name="Elipse 4365" cx="16.21" cy="16.21" r="16.21" transform="translate(1.572 1.572)" fill="#b1bacc"/>
          <circle id="Elipse_4366" data-name="Elipse 4366" cx="17.781" cy="17.781" r="17.781" fill="none" stroke="#3578e5" stroke-miterlimit="10" stroke-width="0.5"/>
          <rect id="Rectángulo_31297" data-name="Rectángulo 31297" width="18.959" height="3.106" transform="translate(8.301 39.999)" fill="#b1bacc"/>
          <path id="Trazado_131883" data-name="Trazado 131883" d="M308.69,311.684a7.984,7.984,0,1,1-7.983-7.983A7.984,7.984,0,0,1,308.69,311.684Z" transform="translate(-271.059 -281.774)" fill="#fff"/>
          <path id="Trazado_131884" data-name="Trazado 131884" d="M306.971,311.179a6.771,6.771,0,1,1-6.77-6.77A6.771,6.771,0,0,1,306.971,311.179Z" transform="translate(-270.554 -281.269)" fill="#b1bacc"/>
        </g>
      </g>
      <text id="MESSAGES" transform="translate(223.833 302.432)" fill="#3578e5" font-size="6" font-family="OpenSans-Semibold, Open Sans" font-weight="600"><tspan x="-15.227" y="0">MESSAGES</tspan></text>
      <text id="ACTIVE" transform="translate(289.005 302.432)" fill="#606770" font-size="6" font-family="OpenSans-Semibold, Open Sans" font-weight="600"><tspan x="-10.039" y="0">ACTIVE</tspan></text>
      <text id="GROUPS" transform="translate(352.275 302.432)" fill="#606770" font-size="6" font-family="OpenSans-Semibold, Open Sans" font-weight="600"><tspan x="-12.179" y="0">GROUPS</tspan></text>
      <path id="Trazado_131885" data-name="Trazado 131885" d="M204.5,261.141a2.825,2.825,0,1,1-2.824-2.826A2.825,2.825,0,0,1,204.5,261.141Z" transform="translate(3.574 9.752)" fill="none" stroke="#7d8691" stroke-miterlimit="10" stroke-width="0.5"/>
      <line id="Línea_273" data-name="Línea 273" x2="3.305" y2="3.305" transform="translate(207.248 272.89)" fill="none" stroke="#7d8691" stroke-miterlimit="10" stroke-width="0.5"/>
      <line id="Línea_274" data-name="Línea 274" x1="192.483" transform="translate(193.846 287.496)" fill="none" stroke="#a2aebd" stroke-miterlimit="10" stroke-width="0.25"/>
      <line id="Línea_275" data-name="Línea 275" x1="192.483" transform="translate(193.846 312.991)" fill="none" stroke="#a2aebd" stroke-miterlimit="10" stroke-width="0.25"/>
      <rect id="Rectángulo_31298" data-name="Rectángulo 31298" width="64.249" height="1.357" transform="translate(193.846 311.848)" fill="#3578e5"/>
      <circle id="Elipse_4367" data-name="Elipse 4367" cx="6.427" cy="6.427" r="6.427" transform="translate(367.138 266.289)" fill="#c1ceeb"/>
      <path id="Trazado_131886" data-name="Trazado 131886" d="M290.6,259.372l-2.312,1.575v-1.41a.51.51,0,0,0-.511-.511h-6.348a.511.511,0,0,0-.511.511v5.316a.512.512,0,0,0,.511.511h6.348a.511.511,0,0,0,.511-.511v-1.41l2.312,1.575Z" transform="translate(62.158 10.26)" fill="#606770"/>
      <g id="Grupo_60622" data-name="Grupo 60622" transform="translate(200.9 377.548)">
        <circle id="Elipse_4368" data-name="Elipse 4368" cx="13.025" cy="13.025" r="13.025" fill="#c1ceeb"/>
        <rect id="Rectángulo_31299" data-name="Rectángulo 31299" width="47.882" height="6.141" transform="translate(37.731 3.714)" fill="#b1bacc"/>
        <rect id="Rectángulo_31300" data-name="Rectángulo 31300" width="25.463" height="2.713" transform="translate(37.731 16.71)" fill="#d2ddf2"/>
        <rect id="Rectángulo_31301" data-name="Rectángulo 31301" width="25.463" height="2.713" transform="translate(150.885 5.428)" fill="#b1bacc"/>
      </g>
      <g id="Grupo_60623" data-name="Grupo 60623" transform="translate(200.9 415.36)">
        <circle id="Elipse_4369" data-name="Elipse 4369" cx="13.025" cy="13.025" r="13.025" fill="#c1ceeb"/>
        <rect id="Rectángulo_31302" data-name="Rectángulo 31302" width="47.882" height="6.141" transform="translate(37.731 3.714)" fill="#b1bacc"/>
        <rect id="Rectángulo_31303" data-name="Rectángulo 31303" width="25.463" height="2.713" transform="translate(37.731 16.71)" fill="#d2ddf2"/>
        <rect id="Rectángulo_31304" data-name="Rectángulo 31304" width="25.463" height="2.713" transform="translate(150.885 5.428)" fill="#b1bacc"/>
      </g>
      <g id="Grupo_60624" data-name="Grupo 60624" transform="translate(200.9 453.173)">
        <circle id="Elipse_4370" data-name="Elipse 4370" cx="13.025" cy="13.025" r="13.025" fill="#c1ceeb"/>
        <rect id="Rectángulo_31305" data-name="Rectángulo 31305" width="47.882" height="6.142" transform="translate(37.731 3.712)" fill="#b1bacc"/>
        <rect id="Rectángulo_31306" data-name="Rectángulo 31306" width="25.463" height="2.711" transform="translate(37.731 16.71)" fill="#d2ddf2"/>
        <rect id="Rectángulo_31307" data-name="Rectángulo 31307" width="25.463" height="2.715" transform="translate(150.885 5.426)" fill="#b1bacc"/>
      </g>
      <g id="Grupo_60625" data-name="Grupo 60625" transform="translate(200.9 490.985)">
        <circle id="Elipse_4371" data-name="Elipse 4371" cx="13.025" cy="13.025" r="13.025" fill="#c1ceeb"/>
        <rect id="Rectángulo_31308" data-name="Rectángulo 31308" width="47.882" height="6.141" transform="translate(37.731 3.714)" fill="#b1bacc"/>
        <rect id="Rectángulo_31309" data-name="Rectángulo 31309" width="25.463" height="2.713" transform="translate(37.731 16.71)" fill="#d2ddf2"/>
        <rect id="Rectángulo_31310" data-name="Rectángulo 31310" width="25.463" height="2.713" transform="translate(150.885 5.428)" fill="#b1bacc"/>
      </g>
      <g id="Grupo_60626" data-name="Grupo 60626" transform="translate(200.9 528.797)">
        <circle id="Elipse_4372" data-name="Elipse 4372" cx="13.025" cy="13.025" r="13.025" transform="translate(0 0)" fill="#c1ceeb"/>
        <rect id="Rectángulo_31311" data-name="Rectángulo 31311" width="47.882" height="6.141" transform="translate(37.731 3.714)" fill="#b1bacc"/>
        <rect id="Rectángulo_31312" data-name="Rectángulo 31312" width="25.463" height="2.713" transform="translate(37.731 16.71)" fill="#d2ddf2"/>
        <rect id="Rectángulo_31313" data-name="Rectángulo 31313" width="25.463" height="2.713" transform="translate(150.885 5.428)" fill="#b1bacc"/>
      </g>
      <g id="Grupo_60628" data-name="Grupo 60628" transform="translate(347.903 525.538)">
        <circle id="Elipse_4373" data-name="Elipse 4373" cx="15.117" cy="15.117" r="15.117" transform="translate(0.643 1.167)" fill="#cdd5e6" style="mix-blend-mode: multiply;isolation: isolate"/>
        <circle id="Elipse_4374" data-name="Elipse 4374" cx="15.117" cy="15.117" r="15.117" transform="translate(0 0)" fill="#3578e5"/>
        <g id="Grupo_60627" data-name="Grupo 60627" transform="translate(9.112 9.79)">
          <path id="Trazado_131887" data-name="Trazado 131887" d="M300.214,414.257H289.9a.848.848,0,0,0-.847.848v10.664l2.694-2.192h8.468a.847.847,0,0,0,.848-.847v-7.625A.847.847,0,0,0,300.214,414.257Z" transform="translate(-289.052 -414.257)" fill="#fff"/>
          <rect id="Rectángulo_31314" data-name="Rectángulo 31314" width="7.036" height="1.128" transform="translate(2.487 2.366)" fill="#3578e5"/>
          <rect id="Rectángulo_31315" data-name="Rectángulo 31315" width="7.036" height="1.128" transform="translate(2.487 4.147)" fill="#3578e5"/>
          <rect id="Rectángulo_31316" data-name="Rectángulo 31316" width="7.036" height="1.128" transform="translate(2.487 5.93)" fill="#3578e5"/>
        </g>
      </g>
      <g id="Grupo_60638" data-name="Grupo 60638" transform="translate(193.846 561.4)">
        <g id="Grupo_60629" data-name="Grupo 60629">
          <rect id="Rectángulo_31317" data-name="Rectángulo 31317" width="192.483" height="25.443" fill="#fff"/>
          <line id="Línea_276" data-name="Línea 276" x2="192.083" transform="translate(0.4)" fill="none" stroke="#dfe5eb" stroke-miterlimit="10" stroke-width="0.25"/>
        </g>
        <g id="Grupo_60637" data-name="Grupo 60637" transform="translate(14.084 2.304)">
          <path id="Trazado_131888" data-name="Trazado 131888" d="M213.09,439.141l-5.513-4.921-5.513,4.921h1.911v4.238h2.276v-3.106H208.9v3.106h2.276v-4.238Z" transform="translate(-202.063 -428.382)" fill="#3578e5"/>
          <g id="Grupo_60632" data-name="Grupo 60632" transform="translate(38.331 6.682)">
            <path id="Trazado_131889" data-name="Trazado 131889" d="M224.429,438.689v1.74h7.306v-1.74A5.159,5.159,0,0,0,224.429,438.689Z" transform="translate(-224.429 -432.957)" fill="#606770"/>
            <circle id="Elipse_4375" data-name="Elipse 4375" cx="1.607" cy="1.607" r="1.607" transform="translate(2.045)" fill="#606770"/>
            <g id="Grupo_60631" data-name="Grupo 60631" transform="translate(6.449 0)">
              <g id="Grupo_60630" data-name="Grupo 60630">
                <path id="Trazado_131890" data-name="Trazado 131890" d="M228.206,436.319a.486.486,0,0,1-.014.069,1.607,1.607,0,1,0,0-.135A.519.519,0,0,1,228.206,436.319Z" transform="translate(-228.192 -434.713)" fill="#606770"/>
                <path id="Trazado_131891" data-name="Trazado 131891" d="M228.229,437.439a4.824,4.824,0,0,1,2,1.242v1.74h3.188v-1.74A5,5,0,0,0,228.229,437.439Z" transform="translate(-228.166 -432.95)" fill="#606770"/>
              </g>
            </g>
          </g>
          <g id="Grupo_60634" data-name="Grupo 60634" transform="translate(72.179)">
            <path id="Trazado_131892" data-name="Trazado 131892" d="M265.012,441.234a10.417,10.417,0,1,1-10.417-10.42A10.418,10.418,0,0,1,265.012,441.234Z" transform="translate(-244.179 -430.814)" fill="#606770"/>
            <g id="Grupo_60633" data-name="Grupo 60633" transform="translate(4.271 4.813)">
              <path id="Trazado_131893" data-name="Trazado 131893" d="M251.274,435.878a2.442,2.442,0,1,0,2.444,2.441A2.439,2.439,0,0,0,251.274,435.878Z" transform="translate(-245.128 -432.012)" fill="#fff"/>
              <path id="Trazado_131894" data-name="Trazado 131894" d="M257.316,435.075h-1.169l-.811-1.1a1.186,1.186,0,0,0-.872-.358h-3.287a1.223,1.223,0,0,0-.888.358l-.807,1.1h-1.16a1.65,1.65,0,0,0-1.65,1.654v6.453a1.65,1.65,0,0,0,1.65,1.65h8.994a1.652,1.652,0,0,0,1.65-1.65v-6.453A1.652,1.652,0,0,0,257.316,435.075Zm-4.5,8.24a3.386,3.386,0,1,1,3.387-3.387A3.386,3.386,0,0,1,252.817,443.316Zm4.074-5.462a.75.75,0,1,1,.749-.751A.749.749,0,0,1,256.891,437.853Z" transform="translate(-246.671 -433.622)" fill="#fff"/>
            </g>
          </g>
          <g id="Grupo_60635" data-name="Grupo 60635" transform="translate(115.195 5.94)">
            <path id="Trazado_131895" data-name="Trazado 131895" d="M280.622,436.4c-.144-.727-.98-2.12-1.553-2.12H277.65a6.014,6.014,0,0,1-4.89,0H271.34c-.572,0-1.409,1.393-1.553,2.12a36.157,36.157,0,0,0-.509,4.545c0,1.165.871,2.29,1.674,2.29a5.818,5.818,0,0,0,2.581-1.453,2.457,2.457,0,0,1,3.344,0,5.809,5.809,0,0,0,2.581,1.453c.8,0,1.673-1.124,1.673-2.29A36.163,36.163,0,0,0,280.622,436.4Z" transform="translate(-269.278 -434.28)" fill="#606770"/>
            <path id="Trazado_131896" data-name="Trazado 131896" d="M275.037,435.94a.562.562,0,1,1-.562-.562A.56.56,0,0,1,275.037,435.94Z" transform="translate(-265.969 -433.496)" fill="#fff"/>
            <circle id="Elipse_4376" data-name="Elipse 4376" cx="0.562" cy="0.562" r="0.562" transform="translate(7.944 4.051)" fill="#fff"/>
            <path id="Trazado_131897" data-name="Trazado 131897" d="M275.108,437.135a.562.562,0,1,1,.562-.562A.56.56,0,0,1,275.108,437.135Z" transform="translate(-265.517 -433.044)" fill="#fff"/>
            <path id="Trazado_131898" data-name="Trazado 131898" d="M273.842,437.135a.562.562,0,1,1,.562-.562A.561.561,0,0,1,273.842,437.135Z" transform="translate(-266.421 -433.044)" fill="#fff"/>
            <path id="Trazado_131899" data-name="Trazado 131899" d="M273.067,436.592H272.01v-1.058h-.562v1.058H270.39v.562h1.058v1.058h.562v-1.058h1.058Z" transform="translate(-268.485 -433.385)" fill="#fff"/>
          </g>
          <g id="Grupo_60636" data-name="Grupo 60636" transform="translate(154.698 5.007)">
            <path id="Trazado_131900" data-name="Trazado 131900" d="M292.327,436.849a.905.905,0,0,1,.418-.713l3.978-2.3a.9.9,0,0,1,.826,0l3.98,2.3a.91.91,0,0,1,.415.713v4.595a.917.917,0,0,1-.415.716l-3.98,2.3a.9.9,0,0,1-.826,0l-3.978-2.3a.911.911,0,0,1-.418-.716Z" transform="translate(-292.327 -433.736)" fill="#606770"/>
            <path id="Trazado_131901" data-name="Trazado 131901" d="M298.421,437.721H296.75V435.3c0-.173-.089-.207-.2-.077l-2.775,3.181c-.117.123-.067.231.1.231h1.669v2.417c0,.17.094.207.2.077l2.778-3.181C298.642,437.825,298.6,437.721,298.421,437.721Z" transform="translate(-291.341 -432.727)" fill="#fff"/>
          </g>
        </g>
      </g>
    </g>
    <g id="freepik--Character--inject-105" transform="translate(896.406 9945.301)">
      <path id="Trazado_131773" data-name="Trazado 131773" d="M228.71,430.06S187,441.62,185.27,442.21c-2.51.88-2.09,10.1,1.83,10,1.85-.07,32.07,1.12,35.89.88s14.1-4.29,14.1-4.29Z" fill="#455a64"/>
      <path id="Trazado_131774" data-name="Trazado 131774" d="M211.31,446c-.21,0-.49-2.18-1.84-4.48s-3.08-3.68-2.95-3.84,2.15,1,3.56,3.49S211.49,446,211.31,446Z" fill="#263238"/>
      <path id="Trazado_131775" data-name="Trazado 131775" d="M215.67,444c-.21,0-.63-1.94-1.74-4.12s-2.43-3.71-2.28-3.85,1.75,1.23,2.9,3.54S215.85,444,215.67,444Z" fill="#263238"/>
      <path id="Trazado_131776" data-name="Trazado 131776" d="M219.75,442.93c-.21,0-.05-2.1-1-4.42s-2.43-3.75-2.28-3.9,2,1.13,2.93,3.65S219.92,443,219.75,442.93Z" fill="#263238"/>
      <path id="Trazado_131777" data-name="Trazado 131777" d="M219,437.53a7.54,7.54,0,0,1-.45-3.1A14.974,14.974,0,0,1,219,431a13.19,13.19,0,0,1,.62-1.94,2.287,2.287,0,0,1,.67-1,1.11,1.11,0,0,1,1.43.07,1.88,1.88,0,0,1,.56,1.18,8.411,8.411,0,0,1,0,1.1,9,9,0,0,1-.26,2,12.527,12.527,0,0,1-1.28,3.19,8.479,8.479,0,0,1-1.88,2.51c-.09-.06.61-1,1.44-2.74a13.518,13.518,0,0,0,1.09-3.1,9.161,9.161,0,0,0,.21-1.91c0-.64,0-1.44-.39-1.75a.4.4,0,0,0-.55-.05,1.728,1.728,0,0,0-.46.73,14.357,14.357,0,0,0-.63,1.84,16.3,16.3,0,0,0-.55,3.26C218.93,436.33,219.12,437.52,219,437.53Z" fill="#263238"/>
      <path id="Trazado_131778" data-name="Trazado 131778" d="M219.06,437.11a5.887,5.887,0,0,1,2.7-.44,12.041,12.041,0,0,1,3,.37,6.183,6.183,0,0,1,1.71.63,1.749,1.749,0,0,1,.94,1.9,2.089,2.089,0,0,1-1.51,1.49,3.818,3.818,0,0,1-1.87,0,8.912,8.912,0,0,1-4.65-3.25,18.778,18.778,0,0,1,2.22,1.51,7.438,7.438,0,0,0,2.56,1.11,3.25,3.25,0,0,0,1.55,0,1.433,1.433,0,0,0,1-1,1.071,1.071,0,0,0-.62-1.16,6.062,6.062,0,0,0-1.52-.59,13.672,13.672,0,0,0-2.81-.49C220.1,437.05,219.08,437.22,219.06,437.11Z" fill="#263238"/>
      <path id="Trazado_131779" data-name="Trazado 131779" d="M204.9,446.44c-.21,0,0-1.81-.83-3.76s-2.17-3.11-2-3.27,1.81.82,2.69,3S205.07,446.52,204.9,446.44Z" fill="#263238"/>
      <path id="Trazado_131780" data-name="Trazado 131780" d="M234,448.37a9.88,9.88,0,0,1-1.62.76,36.822,36.822,0,0,1-4.65,1.44,65.836,65.836,0,0,1-15.94,1.51c-6.26-.07-11.9-.35-16-.52l-4.84-.25a8.92,8.92,0,0,1-1.77-.19A8.1,8.1,0,0,1,191,451h4.85l16,.31a74.441,74.441,0,0,0,15.83-1.29C231.66,449.27,234,448.24,234,448.37Z" fill="#263238"/>
      <path id="Trazado_131781" data-name="Trazado 131781" d="M235.27,449.32a33.747,33.747,0,0,1-3.13-1.42,14.643,14.643,0,0,0-7.9-1.31c-3.15.48-5.38,2.6-6.83,4.06a23.418,23.418,0,0,1-2.41,2.46,13.08,13.08,0,0,1,2.05-2.79,16.378,16.378,0,0,1,2.77-2.59,9.919,9.919,0,0,1,4.31-1.83,13.818,13.818,0,0,1,8.22,1.56A11.079,11.079,0,0,1,235.27,449.32Z" fill="#263238"/>
      <path id="Trazado_131782" data-name="Trazado 131782" d="M193.38,451.13a14.892,14.892,0,0,1,.61-1.58,7.689,7.689,0,0,0-1.38-7.48c-.66-.8-1.19-1.18-1.14-1.26s.66.22,1.43,1a7.12,7.12,0,0,1,1.46,7.9C193.91,450.69,193.43,451.17,193.38,451.13Z" fill="#263238"/>
      <path id="Trazado_131783" data-name="Trazado 131783" d="M272.28,431.3s42.84,6.51,44.57,6.9c2.61.58,3.28,9.78-.62,10.1-1.85.15-31.72,4.93-35.54,5.15s-15.8-2.92-15.8-2.92Z" fill="#455a64"/>
      <path id="Trazado_131784" data-name="Trazado 131784" d="M291.45,445.05c.21,0,.23-2.22,1.29-4.67s2.63-4,2.48-4.17-2,1.27-3.12,3.9S291.28,445.09,291.45,445.05Z" fill="#263238"/>
      <path id="Trazado_131785" data-name="Trazado 131785" d="M286.89,443.61c.21,0,.39-2,1.24-4.3s2-4,1.8-4.09-1.59,1.42-2.46,3.85S286.71,443.62,286.89,443.61Z" fill="#263238"/>
      <path id="Trazado_131786" data-name="Trazado 131786" d="M282.71,443c.2,0-.2-2.09.44-4.5s2-4,1.8-4.15-1.81,1.36-2.47,4S282.55,443.09,282.71,443Z" fill="#263238"/>
      <path id="Trazado_131787" data-name="Trazado 131787" d="M282.8,437.56a7.218,7.218,0,0,0,.08-3.13,14.426,14.426,0,0,0-.83-3.33,13.806,13.806,0,0,0-.85-1.86,2.3,2.3,0,0,0-.78-.93,1.12,1.12,0,0,0-1.42.24,1.871,1.871,0,0,0-.41,1.24,7.937,7.937,0,0,0,.08,1.1,8.947,8.947,0,0,0,.5,2,12.514,12.514,0,0,0,1.65,3,8.664,8.664,0,0,0,2.16,2.28,27.839,27.839,0,0,0-1.75-2.55,13.832,13.832,0,0,1-1.46-3,9.152,9.152,0,0,1-.42-1.87c-.06-.64-.16-1.43.17-1.78a.4.4,0,0,1,.54-.11,1.739,1.739,0,0,1,.55.67,13.989,13.989,0,0,1,.84,1.75,16.907,16.907,0,0,1,.94,3.17C282.73,436.37,282.69,437.56,282.8,437.56Z" fill="#263238"/>
      <path id="Trazado_131788" data-name="Trazado 131788" d="M282.7,437.15A5.847,5.847,0,0,0,280,437a12.382,12.382,0,0,0-2.9.71,6.547,6.547,0,0,0-1.62.83,1.761,1.761,0,0,0-.71,2,2.119,2.119,0,0,0,1.68,1.31,3.918,3.918,0,0,0,1.86-.23,9,9,0,0,0,4.23-3.78,18.89,18.89,0,0,0-2,1.76,7.37,7.37,0,0,1-2.41,1.41,3.371,3.371,0,0,1-1.54.16,1.45,1.45,0,0,1-1.13-.86,1.1,1.1,0,0,1,.48-1.24,6.517,6.517,0,0,1,1.43-.76,13.3,13.3,0,0,1,2.74-.82C281.66,437.22,282.7,437.26,282.7,437.15Z" fill="#263238"/>
      <path id="Trazado_131789" data-name="Trazado 131789" d="M297.87,444.73c.21-.05-.21-1.79.37-3.84s1.8-3.34,1.65-3.48-1.71,1-2.32,3.3S297.72,444.83,297.87,444.73Z" fill="#263238"/>
      <path id="Trazado_131790" data-name="Trazado 131790" d="M269.17,450.11a8.771,8.771,0,0,0,1.7.56,35.542,35.542,0,0,0,4.78.88,65.955,65.955,0,0,0,16-.39c6.21-.82,11.77-1.77,15.81-2.42l4.78-.83a8.23,8.23,0,0,0,1.73-.4,8.333,8.333,0,0,0-1.77.13l-4.81.61-15.83,2.21a74.492,74.492,0,0,1-15.87.6C271.64,450.72,269.2,450,269.17,450.11Z" fill="#263238"/>
      <path id="Trazado_131791" data-name="Trazado 131791" d="M268.06,451.2c.07.09,1.12-.71,2.94-1.78a14.482,14.482,0,0,1,7.69-2.24c3.18.1,5.64,1.94,7.26,3.22a25.86,25.86,0,0,0,2.68,2.16,12.537,12.537,0,0,0-2.36-2.53,16.377,16.377,0,0,0-3.06-2.25,10.006,10.006,0,0,0-4.5-1.3,13.833,13.833,0,0,0-8,2.52A11.05,11.05,0,0,0,268.06,451.2Z" fill="#263238"/>
      <path id="Trazado_131792" data-name="Trazado 131792" d="M405.51,255.29a2.632,2.632,0,0,0-1.25-1.23l1-2a5.842,5.842,0,0,0-.59-2.06c-.5-.86-2.25-.79-2.25-.79l.27-.57a2.58,2.58,0,0,0-.22-2.52c-.08-.11-.16-.22-.26-.34a4.168,4.168,0,0,0-2.21-1.12s1-1.92.55-2.73a4.161,4.161,0,0,0-4.26-1.68,60.344,60.344,0,0,0-7.75,3.7,1.83,1.83,0,0,1-2.482-.734,1.8,1.8,0,0,1-.118-.266,26.3,26.3,0,0,0-3.79-7.12c-1.88-2.26-3.64-2.08-4.67-1.68a.851.851,0,0,0-.484,1.1.912.912,0,0,0,.064.129,45.574,45.574,0,0,1,2.72,5c.49,1.31,1,11.17,1,11.17l-2.7,5.14L350.85,299.7s-41.15-27.73-41-28.42l-1.94,31.8,31,20.6A21.842,21.842,0,0,0,371,314.24l20.87-45.3,2.53-3.7,9.83-6.3S405.86,256.12,405.51,255.29Z" fill="#ffbe9d"/>
      <path id="Trazado_131793" data-name="Trazado 131793" d="M401,244.67a1.825,1.825,0,0,1-.19.18l-.59.48c-.55.42-1.3,1-2.2,1.71l-3.29,2.5a20.655,20.655,0,0,1-2,1.44,2.889,2.889,0,0,1-2.61.35,2,2,0,0,1-1-1,2.872,2.872,0,0,1-.23-1.31,3.781,3.781,0,0,1,1-2.24,13.951,13.951,0,0,1,1.64-1.5l1.48-1.23,2.16-1.77.59-.47c.14-.1.21-.16.22-.15l-.19.19-.56.51-2.1,1.82-1.46,1.25a13.924,13.924,0,0,0-1.6,1.5,3.513,3.513,0,0,0-1,2.1,2.07,2.07,0,0,0,1.05,2.07,2.148,2.148,0,0,0,1.23.12,3.5,3.5,0,0,0,1.16-.45c.7-.43,1.34-1,2-1.41l3.31-2.47,2.25-1.64.62-.44Z" fill="#eb996e"/>
      <path id="Trazado_131794" data-name="Trazado 131794" d="M403.18,249.3a2.619,2.619,0,0,1-.46.38c-.3.23-.75.56-1.31.95-1.11.77-2.68,1.81-4.47,2.86-.45.26-.88.53-1.34.74a2.9,2.9,0,0,1-1.43.27,2.24,2.24,0,0,1-1.85-1.49,2.2,2.2,0,0,1,.12-1.62,2.108,2.108,0,0,1,.25-.37c.07-.08.11-.11.12-.11a4.429,4.429,0,0,0-.28.52,2.2,2.2,0,0,0,0,1.52,2,2,0,0,0,1.7,1.32,2.709,2.709,0,0,0,1.31-.27,14.236,14.236,0,0,0,1.31-.72c1.79-1.05,3.37-2.06,4.51-2.8l1.34-.88A3.5,3.5,0,0,1,403.18,249.3Z" fill="#eb996e"/>
      <path id="Trazado_131795" data-name="Trazado 131795" d="M404.45,253.82a2.58,2.58,0,0,1-.47.27l-1.33.67c-1.13.56-2.7,1.31-4.43,2.13a12.041,12.041,0,0,1-1.3.56,2.5,2.5,0,0,1-1.35.11,1.448,1.448,0,0,1-1-.72,1.691,1.691,0,0,1-.16-1.06,2.291,2.291,0,0,1,.79-1.29c.27-.23.45-.32.46-.3a5.132,5.132,0,0,1-.4.37,2.343,2.343,0,0,0-.67,1.25,1.48,1.48,0,0,0,.16.93,1.27,1.27,0,0,0,.87.6,2.258,2.258,0,0,0,1.22-.12,11.573,11.573,0,0,0,1.27-.56c1.74-.81,3.31-1.54,4.46-2.06l1.37-.59A1.868,1.868,0,0,1,404.45,253.82Z" fill="#eb996e"/>
      <path id="Trazado_131796" data-name="Trazado 131796" d="M405.16,258a10.381,10.381,0,0,1-1.56.41c-1,.22-2.32.51-3.81.81l-1.09.22a4.169,4.169,0,0,1-1.05.12,1.478,1.478,0,0,1-.93-.33,1,1,0,0,1-.36-.79,1.431,1.431,0,0,1,.6-1.05.755.755,0,0,1,.4-.18,2.222,2.222,0,0,0-.34.26,1.362,1.362,0,0,0-.48,1,.8.8,0,0,0,.31.63,1.283,1.283,0,0,0,.8.26,4.493,4.493,0,0,0,1-.13l1.09-.23c1.49-.3,2.84-.56,3.82-.74A11.544,11.544,0,0,1,405.16,258Z" fill="#eb996e"/>
      <path id="Trazado_131797" data-name="Trazado 131797" d="M394.49,256a14.388,14.388,0,0,0-2.8-.28,13.432,13.432,0,0,0-2.75.55,5.123,5.123,0,0,1,2.74-.8A5.26,5.26,0,0,1,394.49,256Z" fill="#eb996e"/>
      <path id="Trazado_131798" data-name="Trazado 131798" d="M247.56,246.58s-13.84-11.67-10.64-19.71,12.09-12,16.46-26.65C256.87,188.54,277.66,166,302.3,183c0,0,8.34-1.31,13.08,2.49s5.89,11.38,7.9,20.13c3.1,13.49,4.8,23.86-1.2,30.46s-8.2,8.37-7.88,15.87c.42,9.79,4.74,8.48,1,15.62l-20.66-6.74-.22-5.69-2.09,5.35-12-4.32Z" fill="#263238"/>
      <path id="Trazado_131799" data-name="Trazado 131799" d="M316.37,197.36c-1.34,3.08-.24,6.64,1,9.76s2.75,6.41,2.11,9.71c-1.14,5.85-8.41,9.11-9.21,15-.43,3.16,1.15,6.38.54,9.52s-3.13,5.32-5.82,6.84-5.66,2.54-8.19,4.32c0,0-5.56,4.56-15.14-2.95" fill="#263238"/>
      <path id="Trazado_131800" data-name="Trazado 131800" d="M277.12,189.71a5.1,5.1,0,0,0-6,3.39h0L251.27,259c-2.57,7.71,7.13,15.94,15.4,18.62h0c8.36,2.71,10.05-1.26,12.7-8.52,4.44-12.12,6-16.7,6-16.63s11.08,1.9,18-11c3.44-6.43,7-17.7,9.57-27,2.34-8.38.4-20.34-8.07-22.31Z" fill="#ffbe9d"/>
      <path id="Trazado_131801" data-name="Trazado 131801" d="M305.94,221.35a1.849,1.849,0,0,1-2.31,1.18,1.78,1.78,0,0,1-1.27-2.173l.01-.037a1.86,1.86,0,0,1,2.31-1.18,1.78,1.78,0,0,1,1.27,2.173Z" fill="#263238"/>
      <path id="Trazado_131802" data-name="Trazado 131802" d="M308.68,219c-.29.15-1.28-1.29-3.17-1.94s-3.6-.19-3.72-.49c-.07-.14.3-.48,1-.71a5.125,5.125,0,0,1,3.08.11,4.941,4.941,0,0,1,2.43,1.84C308.77,218.41,308.83,218.9,308.68,219Z" fill="#263238"/>
      <path id="Trazado_131803" data-name="Trazado 131803" d="M287.22,215.37a1.86,1.86,0,0,1-2.3,1.19,1.78,1.78,0,0,1-1.27-2.173l.01-.037a1.86,1.86,0,0,1,2.3-1.19,1.78,1.78,0,0,1,1.27,2.173Z" fill="#263238"/>
      <path id="Trazado_131804" data-name="Trazado 131804" d="M289.86,213.31c-.3.16-1.29-1.29-3.18-1.94s-3.6-.19-3.72-.49c-.07-.14.3-.47,1.05-.7a5.049,5.049,0,0,1,3.08.11,4.869,4.869,0,0,1,2.43,1.83C289.94,212.76,290,213.25,289.86,213.31Z" fill="#263238"/>
      <path id="Trazado_131805" data-name="Trazado 131805" d="M291.84,229.69a13,13,0,0,1,3.26.51c.5.12,1,.18,1.18-.12a2.632,2.632,0,0,0,.17-1.54c0-1.32-.09-2.71-.14-4.16-.17-5.92-.11-10.71.13-10.72s.57,4.79.73,10.7c0,1.45.05,2.84.08,4.17a2.922,2.922,0,0,1-.41,2,1.248,1.248,0,0,1-1,.43,3.2,3.2,0,0,1-.85-.17A13.033,13.033,0,0,1,291.84,229.69Z" fill="#263238"/>
      <path id="Trazado_131806" data-name="Trazado 131806" d="M285.38,252.47a36.726,36.726,0,0,1-16.61-11.25s1.35,11,15.48,14.49Z" fill="#eb996e"/>
      <path id="Trazado_131807" data-name="Trazado 131807" d="M289.46,234a3.57,3.57,0,0,0-2.61-2.32,3.282,3.282,0,0,0-2.54.4,2.059,2.059,0,0,0-.93,2.2,2.4,2.4,0,0,0,2.25,1.48,7.388,7.388,0,0,0,2.91-.6,2.247,2.247,0,0,0,.74-.37.681.681,0,0,0,.24-.7" fill="#eb996e"/>
      <path id="Trazado_131808" data-name="Trazado 131808" d="M291.26,207.91c-.29.5-2.2-.13-4.56-.29s-4.33.11-4.55-.42c-.09-.26.33-.7,1.18-1.07a7.49,7.49,0,0,1,3.53-.53,7.585,7.585,0,0,1,3.41,1.07C291.05,207.17,291.4,207.67,291.26,207.91Z" fill="#263238"/>
      <path id="Trazado_131809" data-name="Trazado 131809" d="M311.4,212.7c-.52.32-2-.58-3.89-1.14s-3.61-.7-3.86-1.26c-.1-.27.28-.64,1.1-.85a6.89,6.89,0,0,1,6.25,1.93C311.55,212,311.64,212.53,311.4,212.7Z" fill="#263238"/>
      <path id="Trazado_131810" data-name="Trazado 131810" d="M254,233q5.58-18.69,11.17-37.4c.76-2.56,1.64-5.29,3.77-6.9s4.71-1.7,7.23-1.75a136.878,136.878,0,0,1,32.4,3.2c.5,2.53-1.69,4.94-4.15,5.77s-5.12.53-7.7.56-5.41.49-7.16,2.4-2.05,5.16-3.81,7.28c-3,3.64-9.37,2.87-12.38,6.53-2.27,2.77-1.66,6.82-2.41,10.32-.85,4-.85,4-4,9.82-1.91,3.58,2.89,10.42-1.89,19.29l-9.28-2.64,4.07-13.7-5.52,12.85Z" fill="#263238"/>
      <path id="Trazado_131811" data-name="Trazado 131811" d="M286.24,229.46c.19.11.09.61.08,1.33a4.83,4.83,0,0,0,2.35,4.48c.59.4,1.06.6,1,.82s-.57.41-1.46.2a4.39,4.39,0,0,1-3.116-5.37c.033-.125.072-.248.116-.37C285.58,229.69,286.07,229.35,286.24,229.46Z" fill="#263238"/>
      <path id="Trazado_131812" data-name="Trazado 131812" d="M283.48,199.4a2,2,0,0,1-.52.29,15.3,15.3,0,0,0-1.47.82,17.783,17.783,0,0,0-8.19,12.35,20.2,20.2,0,0,0,0,5.37,32.22,32.22,0,0,1,.35,5.88,10.625,10.625,0,0,1-.63,3,18.786,18.786,0,0,1-1.33,2.61,13,13,0,0,0-2.1,4.89,16.568,16.568,0,0,0,.13,4.84c.21,1.53.48,3,.58,4.27a11.288,11.288,0,0,1-.91,6.16,6.434,6.434,0,0,1-1,1.39c-.29.27-.45.4-.46.38a8.974,8.974,0,0,0,1.27-1.86,11.584,11.584,0,0,0,.73-6c-.13-1.3-.42-2.71-.65-4.24a16.77,16.77,0,0,1-.17-5c.39-3.68,3.94-6.38,4-10.42a32.6,32.6,0,0,0-.33-5.79,20.26,20.26,0,0,1,0-5.5,17.619,17.619,0,0,1,3.79-8.42,16.675,16.675,0,0,1,4.77-4,10.833,10.833,0,0,1,1.53-.73A2.165,2.165,0,0,1,283.48,199.4Z" fill="#263238"/>
      <path id="Trazado_131813" data-name="Trazado 131813" d="M328.3,255.63l-.17.14c-.12.08-.29.22-.53.36a8.394,8.394,0,0,1-2.27.92,9.448,9.448,0,0,1-3.89.14,8.568,8.568,0,0,1-4.6-2.29,9.358,9.358,0,0,1-2.75-5.57,8.578,8.578,0,0,1,.23-3.51,10.83,10.83,0,0,1,1.64-3.34,44.448,44.448,0,0,1,5.53-5.64,20.935,20.935,0,0,0,2.72-3.07,15.163,15.163,0,0,0,1.87-3.76,24.431,24.431,0,0,0,1.05-8.25,59.693,59.693,0,0,0-.81-7.79A72.813,72.813,0,0,0,323,201.14a77.351,77.351,0,0,0-3.5-8.25c-.47-.95-.85-1.68-1.11-2.17A4.592,4.592,0,0,1,318,190a5.167,5.167,0,0,1,.46.72c.29.47.7,1.19,1.2,2.13a67.359,67.359,0,0,1,3.67,8.21,70.675,70.675,0,0,1,3.46,12.88,58.588,58.588,0,0,1,.85,7.86,24.566,24.566,0,0,1-1.07,8.42,15.224,15.224,0,0,1-1.93,3.89,21.763,21.763,0,0,1-2.8,3.15,44.834,44.834,0,0,0-5.49,5.55,10.318,10.318,0,0,0-1.59,3.18,8.463,8.463,0,0,0-.25,3.34,9.1,9.1,0,0,0,2.59,5.36,8.441,8.441,0,0,0,4.39,2.27,9.306,9.306,0,0,0,3.79-.06A10.735,10.735,0,0,0,328.3,255.63Z" fill="#263238"/>
      <path id="Trazado_131814" data-name="Trazado 131814" d="M243.23,242.07a8.64,8.64,0,0,0,3.21-1.6,12.791,12.791,0,0,0,4.26-8.59,50.077,50.077,0,0,0,.18-6.83,30.151,30.151,0,0,1,.61-7.9,14.71,14.71,0,0,1,1.61-4,9.5,9.5,0,0,1,3.16-3.24c2.71-1.66,6-1.58,9-2.61a9.509,9.509,0,0,0,3.83-2.51,23.845,23.845,0,0,0,2.7-3.65c1.6-2.52,3.14-5.17,5.58-6.74a9.551,9.551,0,0,1,3.87-1.41,21,21,0,0,1,3.85-.16,39.542,39.542,0,0,0,6.83-.06,20.305,20.305,0,0,0,9.08-3.62,25.267,25.267,0,0,0,2.08-1.7l.51-.48.19-.16a14.012,14.012,0,0,1-2.66,2.5,20.176,20.176,0,0,1-9.15,3.83,40.039,40.039,0,0,1-6.89.12c-2.42,0-5.17,0-7.45,1.55s-3.81,4.06-5.41,6.6a24.206,24.206,0,0,1-2.76,3.74,10,10,0,0,1-4,2.64c-3.08,1.06-6.36,1-8.89,2.56a10.892,10.892,0,0,0-4.57,6.92,29.869,29.869,0,0,0-.65,7.77,47.757,47.757,0,0,1-.24,6.89,12.872,12.872,0,0,1-4.5,8.7,7.2,7.2,0,0,1-2.41,1.25,6.51,6.51,0,0,1-.69.16A.739.739,0,0,1,243.23,242.07Z" fill="#455a64"/>
      <path id="Trazado_131815" data-name="Trazado 131815" d="M253.25,200.65a13.15,13.15,0,0,0,2,.53,9.733,9.733,0,0,0,5.4-.89,22.581,22.581,0,0,0,6.46-5.09c1.1-1.12,2.25-2.32,3.55-3.45a16.168,16.168,0,0,1,4.51-2.88,14.6,14.6,0,0,1,5.27-1,43.547,43.547,0,0,1,4.95.27c1.56.15,3,.31,4.42.32a19.828,19.828,0,0,0,3.83-.31,10.54,10.54,0,0,0,5-2.22,19.189,19.189,0,0,0,1.41-1.47,2.412,2.412,0,0,1-.27.46,4.1,4.1,0,0,1-.39.52,5.138,5.138,0,0,1-.62.64,10.4,10.4,0,0,1-5.09,2.43,19.569,19.569,0,0,1-3.9.38c-1.41,0-2.9-.14-4.47-.27a42.943,42.943,0,0,0-4.89-.24,14.147,14.147,0,0,0-5.09.94c-3.31,1.37-5.69,4-7.91,6.19a22.044,22.044,0,0,1-6.65,5.08,9.589,9.589,0,0,1-5.58.76,6.474,6.474,0,0,1-1.48-.47A2.534,2.534,0,0,1,253.25,200.65Z" fill="#455a64"/>
      <path id="Trazado_131816" data-name="Trazado 131816" d="M325.6,228.69a7.559,7.559,0,0,0,.49-1.91,8.2,8.2,0,0,0-1.42-5.05c-1.16-2-3.31-3.68-5.49-5.81a14.749,14.749,0,0,1-2.91-3.84,13.48,13.48,0,0,1-1.24-5c-.23-3.55.38-6.87.3-9.88a12,12,0,0,0-2.2-7.46,7.43,7.43,0,0,0-4.39-2.81,8.525,8.525,0,0,0-2-.05,1.711,1.711,0,0,1,.51-.14,5.466,5.466,0,0,1,1.49,0,7.441,7.441,0,0,1,4.65,2.78c1.55,1.79,2.35,4.63,2.39,7.68s-.49,6.39-.26,9.85a13.1,13.1,0,0,0,1.18,4.84,14.177,14.177,0,0,0,2.79,3.73c2.12,2.12,4.31,3.9,5.46,6a8.168,8.168,0,0,1,1.31,5.27,4.766,4.766,0,0,1-.42,1.43A1.805,1.805,0,0,1,325.6,228.69Z" fill="#455a64"/>
      <path id="Trazado_131817" data-name="Trazado 131817" d="M237.1,234.68a5.837,5.837,0,0,1-.64-.35,7.425,7.425,0,0,1-1.55-1.4,9.063,9.063,0,0,1-1.92-7.3,8.831,8.831,0,0,1,.85-2.45A9.735,9.735,0,0,1,235.6,221a22.425,22.425,0,0,1,5.2-3.2,20.29,20.29,0,0,0,5.56-3.54,13.107,13.107,0,0,0,3.15-6.22c.6-2.37,1-4.77,1.79-7a30.272,30.272,0,0,1,2.91-6.09,31.743,31.743,0,0,1,7.6-8.45,29.611,29.611,0,0,1,6.62-3.88,18.584,18.584,0,0,1,1.95-.73,3.217,3.217,0,0,1,.7-.2c0,.06-.94.36-2.57,1.12a30.667,30.667,0,0,0-6.47,4,31.93,31.93,0,0,0-7.42,8.41,29.905,29.905,0,0,0-2.83,6c-.76,2.18-1.16,4.55-1.78,7a13.484,13.484,0,0,1-3.29,6.45,20.624,20.624,0,0,1-5.7,3.61,22.493,22.493,0,0,0-5.13,3.09,9.586,9.586,0,0,0-1.7,2.06,8.3,8.3,0,0,0-.84,2.32,9.325,9.325,0,0,0,.23,4.23,8.561,8.561,0,0,0,1.48,2.87A10.692,10.692,0,0,0,237.1,234.68Z" fill="#263238"/>
      <path id="Trazado_131818" data-name="Trazado 131818" d="M328.42,229.62c-.05,0,.42-.48,1.06-1.43a12.093,12.093,0,0,0,1.78-4.43,16.8,16.8,0,0,0-.25-7.06,28.419,28.419,0,0,0-3.58-7.95c-1.65-2.65-3.43-5.05-4.93-7.32a41.28,41.28,0,0,1-3.53-6.32,20.812,20.812,0,0,1-1.45-4.67,11.952,11.952,0,0,1-.16-1.32,1.613,1.613,0,0,1,0-.46s.12.63.37,1.74a23.51,23.51,0,0,0,1.57,4.6,45.009,45.009,0,0,0,3.6,6.2c1.51,2.25,3.31,4.64,5,7.32a28.211,28.211,0,0,1,3.61,8.11,16.855,16.855,0,0,1,.14,7.25,11.607,11.607,0,0,1-2,4.47,7.815,7.815,0,0,1-.88,1A1.669,1.669,0,0,1,328.42,229.62Z" fill="#263238"/>
      <path id="Trazado_131819" data-name="Trazado 131819" d="M224.55,369l-8.21,14.29s-40.81-14.93-64.7-10.58c-9.09,1.65-18.81,22.26-5.57,35.5,12.91,12.91,36,31.17,79.33,37.08,1.08.14,18.83,3.95,17.73,3.82s24.88,4,24.88,4l6.1-23.06,48.39,7.59c28.52-1.94,42.48-32.44,25.3-42.26-16-9.15-46.14-9.89-46.14-9.89l-10.92-17.12Z" fill="#263238"/>
      <path id="Trazado_131820" data-name="Trazado 131820" d="M269,454c.12-.78.47-2.88,1.17-7.19.39-2.3.86-5.1,1.47-8.32.31-1.62.65-3.33,1.06-5.14.21-.91.43-1.83.7-2.78.13-.47.27-.94.44-1.42a4.229,4.229,0,0,1,.74-1.42l.07.35c-10.3-3.66-23.18-8.49-36.9-14.28-8.44-3.59-16.4-7.21-23.41-11a76.032,76.032,0,0,1-9.6-5.95c-2.84-2.1-5.38-4.2-7.76-6-4.7-3.72-9-6.12-12.17-7.14a20.737,20.737,0,0,0-2.13-.63,12.856,12.856,0,0,0-1.59-.34l-1-.18-.34-.08a1.575,1.575,0,0,1,.35,0l1,.13a11.731,11.731,0,0,1,1.62.29,18.54,18.54,0,0,1,2.16.59,29.183,29.183,0,0,1,5.6,2.49,57.923,57.923,0,0,1,6.73,4.55c2.4,1.81,4.94,3.89,7.79,6a75.828,75.828,0,0,0,9.57,5.88c7,3.74,14.95,7.35,23.38,10.93,13.71,5.78,26.57,10.65,36.84,14.36l.29.11-.22.24a4.117,4.117,0,0,0-.63,1.26c-.17.46-.31.93-.45,1.39-.27.93-.5,1.86-.71,2.75-.42,1.8-.78,3.51-1.1,5.12-.64,3.22-1.14,6-1.56,8.3s-.76,4.05-1,5.3c-.12.61-.21,1.08-.29,1.39A3.369,3.369,0,0,1,269,454Z" fill="#455a64"/>
      <path id="Trazado_131821" data-name="Trazado 131821" d="M338.42,398.18h-.27l-.75-.12c-.66-.09-1.62-.33-2.89-.46a56.267,56.267,0,0,0-10.73-.38,80.107,80.107,0,0,0-15.72,2.6c-2.9.77-5.92,1.69-9,2.76s-6.24,2.3-9.47,3.59a87.042,87.042,0,0,1-9.65,3.19c-3.17.87-6.26,1.55-9.22,2.12-5.92,1.16-11.31,1.87-15.83,2.42s-8.19.92-10.72,1.18l-2.92.29-.76.06a.872.872,0,0,1-.26,0h.25l.76-.11,2.9-.39,10.7-1.34c4.52-.6,9.89-1.35,15.78-2.53,2.95-.58,6-1.27,9.18-2.15a89.7,89.7,0,0,0,9.6-3.17c3.22-1.29,6.39-2.53,9.5-3.59s6.13-2,9.05-2.75a77.9,77.9,0,0,1,15.82-2.49,52.908,52.908,0,0,1,10.78.54c1.27.16,2.22.44,2.88.56l.75.17A.878.878,0,0,1,338.42,398.18Z" fill="#455a64"/>
      <path id="Trazado_131822" data-name="Trazado 131822" d="M263.86,389.88c0,.34-2.16.89-5.79,1.23a75.714,75.714,0,0,1-28.12-3c-3.47-1.1-5.5-2.11-5.4-2.44.23-.72,8.8,1.56,19.6,2.68S263.79,389.12,263.86,389.88Z" fill="#263238"/>
      <path id="Trazado_131823" data-name="Trazado 131823" d="M302.12,385.83a11.076,11.076,0,0,1-1.6.43,18.576,18.576,0,0,0-1.87.48c-.72.21-1.55.43-2.44.75a60.694,60.694,0,0,0-6.18,2.45c-2.26,1.08-4.7,2.36-7.19,3.84a113.372,113.372,0,0,0-12.11,8.52c-1.48,1.18-2.67,2.16-3.48,2.84a9.492,9.492,0,0,1-1.31,1,10.952,10.952,0,0,1,1.17-1.17c.78-.73,1.93-1.75,3.39-3a96.262,96.262,0,0,1,12.08-8.69,76.577,76.577,0,0,1,7.25-3.82,52.759,52.759,0,0,1,6.27-2.37c.9-.3,1.74-.5,2.48-.68a16.4,16.4,0,0,1,1.9-.4A9.616,9.616,0,0,1,302.12,385.83Z" fill="#455a64"/>
      <path id="Trazado_131824" data-name="Trazado 131824" d="M256.75,406.16a11.561,11.561,0,0,1-2.87-.82,61.55,61.55,0,0,1-6.55-2.95L241,399.06a22.551,22.551,0,0,1-2.61-1.42,14.522,14.522,0,0,1,2.78,1.09c1.67.76,3.93,1.92,6.42,3.19s4.76,2.37,6.45,3.08A24.3,24.3,0,0,1,256.75,406.16Z" fill="#455a64"/>
      <path id="Trazado_131825" data-name="Trazado 131825" d="M261.16,370.72c.08,0-.06,1.5-.21,3.91s-.29,5.74-.22,9.42.34,7,.58,9.42a38.909,38.909,0,0,1,.37,3.9,3.8,3.8,0,0,1-.26-1c-.14-.66-.3-1.63-.47-2.83a79.7,79.7,0,0,1-.74-9.45,82.089,82.089,0,0,1,.37-9.46c.13-1.21.25-2.18.36-2.85A4.463,4.463,0,0,1,261.16,370.72Z" fill="#455a64"/>
      <path id="Trazado_131826" data-name="Trazado 131826" d="M265.71,372.2a4.666,4.666,0,0,0-.43.46,2.843,2.843,0,0,0-.64,1.47,2.771,2.771,0,0,0,.63,2.19,2.58,2.58,0,0,0,4.27-1.58,2.789,2.789,0,0,0-1-2.07,2.835,2.835,0,0,0-1.44-.7c-.39-.06-.61,0-.62-.07s.21-.13.64-.13a2.752,2.752,0,0,1,1.66.62,2.891,2.891,0,1,1-3.91,4.25,3.06,3.06,0,0,1-.63-2.57,2.759,2.759,0,0,1,.86-1.56C265.46,372.24,265.7,372.18,265.71,372.2Z" fill="#455a64"/>
      <path id="Trazado_131827" data-name="Trazado 131827" d="M278.13,355.73a5.722,5.722,0,0,1-.78,1,30.473,30.473,0,0,1-2.4,2.54,37.351,37.351,0,0,1-4,3.31,43.388,43.388,0,0,1-5.45,3.29,42.6,42.6,0,0,1-5.9,2.37,38,38,0,0,1-5.06,1.2,28.469,28.469,0,0,1-3.47.39,6.673,6.673,0,0,1-1.28,0c0-.1,1.81-.2,4.69-.76a43.971,43.971,0,0,0,5-1.3A42.729,42.729,0,0,0,274.7,359C276.88,357.06,278.05,355.67,278.13,355.73Z" fill="#263238"/>
      <path id="Trazado_131828" data-name="Trazado 131828" d="M296.38,366.83c0,.15-1.8.15-3.92.69s-3.72,1.34-3.8,1.21A10.391,10.391,0,0,1,296.38,366.83Z" fill="#263238"/>
      <g id="Grupo_60603" data-name="Grupo 60603" opacity="0.3">
        <path id="Trazado_131829" data-name="Trazado 131829" d="M254.41,369.33a38.3,38.3,0,0,0,22.29-12.88,9,9,0,0,1-2.19,9.18c2.54,1.2,5.52.4,8.3,0s6.18,0,7.51,2.47a293.976,293.976,0,0,1-37.42,1.07"/>
      </g>
      <path id="Trazado_131830" data-name="Trazado 131830" d="M229.58,349.73a14.036,14.036,0,0,0-4.31-2.79,13.85,13.85,0,0,0-5.47-.93,15,15,0,0,0-6.53,1.76c-4.36,2.26-7,6.12-8.92,8.59a26.731,26.731,0,0,0-2,3.26,8.05,8.05,0,0,1-.69,1.22,6.973,6.973,0,0,1,.51-1.31,21.977,21.977,0,0,1,1.84-3.38c.93-1.34,2.13-2.84,3.51-4.48A19.466,19.466,0,0,1,213,347.3a15.159,15.159,0,0,1,6.77-1.77,13.837,13.837,0,0,1,5.62,1.07,10.7,10.7,0,0,1,3.24,2.07,5.686,5.686,0,0,1,.72.76C229.52,349.62,229.6,349.72,229.58,349.73Z" fill="#263238"/>
      <path id="Trazado_131831" data-name="Trazado 131831" d="M255.76,253.81l-13.96,2.97,6.98,26.13,24.72,5.31,16.96-12.03,2.33-14.41-14.54-5.5Z" fill="#ffbe9d"/>
      <path id="Trazado_131832" data-name="Trazado 131832" d="M245.93,255.71s9.45,27.44,26.91,24.9,16-20.32,16-20.32,18.22,5.56,23.85,11.47S315,290.52,315,290.52l-4.72,23.22L300,358.22s3.93,12.14-6.12,15.14l-3.17-5-60.27,1.7s-12.89,14.86-16.91,9.74-7.88-15.12-7.88-15.12L233.34,259Z" fill="#f5ca56"/>
      <path id="Trazado_131833" data-name="Trazado 131833" d="M307.93,268.25c.49.28,42.79,31,42.79,31s-3.32,25.28,17,21.26c0,0-8.2,21.14-19.3,16.7-3.16-1.26-42.15-25.93-42.15-25.93L298,293.67Z" fill="#f5ca56"/>
      <path id="Trazado_131834" data-name="Trazado 131834" d="M245.93,257.06a25,25,0,0,0-2.57.18c-8.28.8-38.84,7.13-41.67,28.7-1.48,11.28-1.9,44.27-3.5,58.1,0,0,2.55,19.22,3.5,22.78C203.38,373.16,234,363,234,363l.06-61L245,257.09" fill="#f5ca56"/>
      <path id="Trazado_131835" data-name="Trazado 131835" d="M226.59,312.48a1.492,1.492,0,0,1,0,.49,13.216,13.216,0,0,0,.1,1.42,20.486,20.486,0,0,0,1.29,5c.78,2.06,2,4.4,3.16,7.08a32.064,32.064,0,0,1,1.6,4.34,26.577,26.577,0,0,1,.83,4.89,58.125,58.125,0,0,1-.25,9.54c-.25,2.92-.49,5.55-.85,7.74a34.438,34.438,0,0,1-1.21,5.11c-.2.59-.37,1-.5,1.34a1.709,1.709,0,0,1-.22.45s.19-.66.53-1.85a38.933,38.933,0,0,0,1-5.11c.32-2.18.52-4.8.75-7.71a62.514,62.514,0,0,0,.2-9.47,26.365,26.365,0,0,0-.8-4.8,32.534,32.534,0,0,0-1.55-4.28c-1.16-2.67-2.32-5.05-3.07-7.14a18.579,18.579,0,0,1-1.14-5.14,8.328,8.328,0,0,1,0-1.43A2.752,2.752,0,0,1,226.59,312.48Z" fill="#263238"/>
      <path id="Trazado_131836" data-name="Trazado 131836" d="M228,304.78c.09,0,.16,1.55.51,4a53.657,53.657,0,0,0,2.23,9.49c.31.91.63,1.78,1,2.62a5.558,5.558,0,0,0,.25.57l.36.55a12.955,12.955,0,0,1,.64,1.13,9.467,9.467,0,0,1,1.13,4.32,7.7,7.7,0,0,1-.59,3,4.291,4.291,0,0,1-.55,1,10.391,10.391,0,0,0,.77-3.9,9.408,9.408,0,0,0-1.18-4.11c-.19-.36-.41-.72-.64-1.08l-.36-.55a3.612,3.612,0,0,1-.3-.65c-.35-.84-.67-1.73-1-2.64a44.982,44.982,0,0,1-2.1-9.62c-.14-1.25-.18-2.28-.19-3A4.855,4.855,0,0,1,228,304.78Z" fill="#263238"/>
      <path id="Trazado_131837" data-name="Trazado 131837" d="M229.22,295.62c-.08,0-.54-1.25-1.44-3.22a45.236,45.236,0,0,0-4.23-7.34,46.056,46.056,0,0,0-5.55-6.39c-1.57-1.5-2.63-2.35-2.57-2.42a3.58,3.58,0,0,1,.8.52,24.776,24.776,0,0,1,2,1.63,37.877,37.877,0,0,1,9.87,13.85,25.424,25.424,0,0,1,.88,2.44A3.88,3.88,0,0,1,229.22,295.62Z" fill="#263238"/>
      <path id="Trazado_131838" data-name="Trazado 131838" d="M315.89,277.7a11.224,11.224,0,0,1-.2,2.42c-.18,1.49-.44,3.54-.67,5.81s-.42,4.33-.55,5.83a11.578,11.578,0,0,1-.3,2.41,10.854,10.854,0,0,1-.07-2.43c0-1.51.16-3.58.4-5.86s.55-4.34.82-5.81A10.849,10.849,0,0,1,315.89,277.7Z" fill="#263238"/>
      <path id="Trazado_131839" data-name="Trazado 131839" d="M324.59,303.38c0,.09-1.32.22-3.37.8a15.929,15.929,0,0,0-7.05,4.13,19.491,19.491,0,0,0-2.69,3.66,28.073,28.073,0,0,0-1.54,3.4l-.49,1.36c-.12.37-.22.72-.32,1a3.609,3.609,0,0,1-.33.88,2.8,2.8,0,0,1,.14-.93l.23-1.07.42-1.4a24.237,24.237,0,0,1,1.47-3.51,18.444,18.444,0,0,1,2.74-3.7,15.14,15.14,0,0,1,7.32-4.12,10.553,10.553,0,0,1,1.44-.29,8.874,8.874,0,0,1,1.09-.14A3,3,0,0,1,324.59,303.38Z" fill="#263238"/>
      <path id="Trazado_131840" data-name="Trazado 131840" d="M352.6,331.21a6.015,6.015,0,0,1-.67-1.12c-.21-.36-.45-.82-.7-1.37s-.55-1.15-.81-1.86a36.332,36.332,0,0,1-1.61-5.05,41.341,41.341,0,0,1-1-6.43,40.766,40.766,0,0,1,.11-6.49,37.372,37.372,0,0,1,.92-5.22c.16-.74.39-1.39.56-2a12.6,12.6,0,0,1,.5-1.45,6.255,6.255,0,0,1,.52-1.2c.1,0-.57,1.77-1.22,4.69a42.554,42.554,0,0,0-.8,5.18,45.255,45.255,0,0,0-.08,6.42,44.75,44.75,0,0,0,.94,6.35,41.8,41.8,0,0,0,1.48,5C351.8,329.53,352.69,331.17,352.6,331.21Z" fill="#263238"/>
      <path id="Trazado_131841" data-name="Trazado 131841" d="M341.61,323.7a4.224,4.224,0,0,1-.4-1.07,21.155,21.155,0,0,1-.62-3,23.658,23.658,0,0,1,.94-10.16,23,23,0,0,1,5.11-8.84,4.385,4.385,0,0,1,2.75-1.48,1.942,1.942,0,0,1,.85.17c.17.09.26.15.25.17a3.006,3.006,0,0,0-1.09-.14,4.446,4.446,0,0,0-2.49,1.53,24.328,24.328,0,0,0-4.88,8.74,25.516,25.516,0,0,0-1.08,10C341.21,322.12,341.7,323.67,341.61,323.7Z" fill="#263238"/>
      <path id="Trazado_131842" data-name="Trazado 131842" d="M272.84,318.72a4.742,4.742,0,0,1-.25,1.19,11.9,11.9,0,0,1-.4,1.36,18.4,18.4,0,0,1-.67,1.76,27.862,27.862,0,0,1-2.28,4.34,29.591,29.591,0,0,1-8.37,8.56,28.157,28.157,0,0,1-4.29,2.39,16.7,16.7,0,0,1-1.75.7,9.017,9.017,0,0,1-1.35.44,5.977,5.977,0,0,1-1.18.28c0-.1,1.64-.55,4.12-1.75a31.445,31.445,0,0,0,4.18-2.45,35.6,35.6,0,0,0,4.52-3.82,34.616,34.616,0,0,0,3.71-4.61,30.739,30.739,0,0,0,2.35-4.23C272.33,320.37,272.74,318.69,272.84,318.72Z" fill="#263238"/>
      <g id="Grupo_60604" data-name="Grupo 60604" opacity="0.3">
        <path id="Trazado_131843" data-name="Trazado 131843" d="M238.21,328.62l-5.76-21c-.28-1-.75-2.23-1.8-2.42a2,2,0,0,0-2.05,1.72,11.272,11.272,0,0,0,0,3.07c.45,4.57.81,7.67,2.94,11.21,4.15,6.9,1.42,10.25,1.42,10.25.33,8.4-.38,19.86-3,28.49l2.47,10.41c2.34-7.74,7.69-14.19,8.59-22.23C241.71,341.53,240,335,238.21,328.62Z"/>
      </g>
      <g id="Grupo_60605" data-name="Grupo 60605" opacity="0.3">
        <path id="Trazado_131844" data-name="Trazado 131844" d="M310.3,313.88c6.85,3.56,12.94,8.48,19.61,12.29-2.61-5.45-7-10.84-12.28-13.73a7.773,7.773,0,0,0-4.64-1.23c-1.62.23-2.78,1.14-2.53,2.75"/>
      </g>
      <g id="Grupo_60606" data-name="Grupo 60606" opacity="0.3">
        <path id="Trazado_131845" data-name="Trazado 131845" d="M349.55,298.81c-2.34-.06-4.1,2.07-5.25,4.11A31.61,31.61,0,0,0,340.52,322c.14,1.18.58,2.6,1.75,2.83a2,2,0,0,0,2.07-1.23,5.681,5.681,0,0,0,.39-2.53c0-4-.28-8.05.3-12s2.07-7.95,5-10.66"/>
      </g>
      <path id="Trazado_131846" data-name="Trazado 131846" d="M243.78,306.32h.24l.69-.05,2.71-.14,10.24-.47,36.27-1.54h.24v.23c.3,12.2.65,26.24,1,41.1v1.75H295a354.986,354.986,0,0,0-44.66,3.34h-.19l-.05-.19a159.692,159.692,0,0,1-5.33-32.16c-.24-3.94-.28-7-.28-9.14v-3.23a.821.821,0,0,1,0,.21v3.02c0,2.11.13,5.2.4,9.12a164.157,164.157,0,0,0,5.5,32.07l-.25-.17A347.507,347.507,0,0,1,295,346.64l-.26.27v-1.49c-.35-14.86-.67-28.9-1-41.1l.24.23L257.7,305.9l-10.25.34-2.71.08h-.96Z" fill="#fff"/>
      <path id="Trazado_131847" data-name="Trazado 131847" d="M257,336.63c-.14,0-1.39-6.73-2.79-15.09s-2.42-15.15-2.28-15.18,1.39,6.73,2.79,15.1S257.1,336.61,257,336.63Z" fill="#fff"/>
      <path id="Trazado_131848" data-name="Trazado 131848" d="M258.46,349.53a30.057,30.057,0,0,1-1.11-5.45,30.513,30.513,0,0,1-.6-5.54,30.077,30.077,0,0,1,1.11,5.46A28.384,28.384,0,0,1,258.46,349.53Z" fill="#fff"/>
      <path id="Trazado_131849" data-name="Trazado 131849" d="M267.08,329.94a3.059,3.059,0,0,1-.28-.93c-.15-.6-.34-1.49-.55-2.58-.42-2.19-.89-5.23-1.23-8.61s-.47-6.46-.5-8.68V306.5a4.305,4.305,0,0,1,.09-1,27.627,27.627,0,0,1,.25,3.59c.12,2.22.31,5.28.65,8.65s.75,6.4,1.07,8.6A30.521,30.521,0,0,1,267.08,329.94Z" fill="#fff"/>
      <path id="Trazado_131850" data-name="Trazado 131850" d="M265.94,348.19a49.677,49.677,0,0,1-1.13-7.07,47.322,47.322,0,0,1-.62-7.13,49.987,49.987,0,0,1,1.13,7.07A47.322,47.322,0,0,1,265.94,348.19Z" fill="#fff"/>
      <path id="Trazado_131851" data-name="Trazado 131851" d="M277.24,347.38a11.894,11.894,0,0,1-.2-1.65l-.39-4.5c-.33-3.79-.82-9-1.48-14.81s-1.38-11-1.92-14.77c-.26-1.82-.48-3.33-.64-4.47a10.887,10.887,0,0,1-.18-1.65,9.3,9.3,0,0,1,.38,1.62c.21,1,.48,2.56.8,4.44.64,3.77,1.41,9,2.08,14.77s1.09,11,1.33,14.85c.11,1.9.19,3.44.22,4.51A8.851,8.851,0,0,1,277.24,347.38Z" fill="#fff"/>
      <path id="Trazado_131852" data-name="Trazado 131852" d="M286.86,347.92a10.369,10.369,0,0,1-.08-1.68v-4.58c0-3.86-.14-9.2-.41-15.08s-.69-11.21-1-15.06c-.16-1.85-.29-3.39-.39-4.55a11.784,11.784,0,0,1-.09-1.68,9.139,9.139,0,0,1,.29,1.65c.16,1.07.35,2.63.56,4.55.42,3.84.88,9.17,1.17,15.06s.32,11.24.26,15.11c0,1.93-.07,3.5-.12,4.58A11.563,11.563,0,0,1,286.86,347.92Z" fill="#fff"/>
      <g id="Grupo_60607" data-name="Grupo 60607" opacity="0.3">
        <path id="Trazado_131853" data-name="Trazado 131853" d="M253.09,339.81a8.4,8.4,0,0,0,5.27,1.28,16.754,16.754,0,0,0,5.32-1.39,16.076,16.076,0,0,0,6.05-4,14.068,14.068,0,0,0,3-7.08,41.523,41.523,0,0,0,.26-7.81.509.509,0,0,0-.08-.32.39.39,0,0,0-.551-.009l-.009.009a1.251,1.251,0,0,0-.31.55,29,29,0,0,1-19.29,18.24"/>
      </g>
      <path id="Trazado_131854" data-name="Trazado 131854" d="M246.9,423.57l-6.11-11.46L227.05,347.8s-12.64-7.26-23,8.65c-.41.64,14.24,46.7,18.33,59.51l.57,12.26s-.72,14.51,0,15.78a5.9,5.9,0,0,0,2.54,2s-.54,3.63,3.63,4c0,0,.36,4,3.44,3.45a5.929,5.929,0,0,0,4.18-2.54s0,5.07,2.72,4.53,3.16-2.72,3.66-3.44,1.08-8.17,1.08-8.17l-.05-12.28,7.08,5.74c2,1,5.05,2.28,6.75.75Z" fill="#ffbe9d"/>
      <path id="Trazado_131855" data-name="Trazado 131855" d="M244.16,430.92a22.1,22.1,0,0,1,.4,6.62c-.08,1.7-.15,3.25-.22,4.67a7.636,7.636,0,0,1-.18,1.93,30.656,30.656,0,0,1-.12-6.62C244.22,433.88,244,430.94,244.16,430.92Z" fill="#eb996e"/>
      <path id="Trazado_131856" data-name="Trazado 131856" d="M236.36,439.48a71.143,71.143,0,0,1,.16,12.15A71.142,71.142,0,0,1,236.36,439.48Z" fill="#eb996e"/>
      <path id="Trazado_131857" data-name="Trazado 131857" d="M229.82,441.71a16.536,16.536,0,0,1-.81,8.4c-.14,0,.22-1.89.43-4.2A38.614,38.614,0,0,1,229.82,441.71Z" fill="#eb996e"/>
      <path id="Trazado_131858" data-name="Trazado 131858" d="M225.61,440.29a14.593,14.593,0,0,1-.54,5.47,7.279,7.279,0,0,1,0-2.76A7.6,7.6,0,0,1,225.61,440.29Z" fill="#eb996e"/>
    </g>
    <g id="Grupo_60664" data-name="Grupo 60664" transform="translate(946.456 9974.709)">
      <g id="Grupo_60640" data-name="Grupo 60640" transform="translate(390.992 104.419)">
        <circle id="Elipse_4377" data-name="Elipse 4377" cx="23.936" cy="23.936" r="23.936" transform="translate(0)" fill="#ff3e6c"/>
        <path id="Trazado_131903" data-name="Trazado 131903" d="M390.174,114.485c0-4.7-3.621-8.051-7.315-8.051a6.969,6.969,0,0,0-6.691,4.933,6.97,6.97,0,0,0-6.691-4.933c-3.694,0-7.316,3.356-7.316,8.051,0,7.115,10.915,15.259,13.607,16.113a1.411,1.411,0,0,0,.159.046,1.042,1.042,0,0,0,.222.032l.019,0,.018,0a1.062,1.062,0,0,0,.223-.032,1.394,1.394,0,0,0,.158-.046C379.259,129.745,390.174,121.6,390.174,114.485Z" transform="translate(-352.232 -93.902)" fill="#fefefe"/>
      </g>
      <g id="Grupo_60641" data-name="Grupo 60641" transform="translate(308.634 287.635)">
        <circle id="Elipse_4378" data-name="Elipse 4378" cx="16.073" cy="16.073" r="16.073" transform="translate(0 12.526) rotate(-22.934)" fill="#ff3e6c"/>
        <path id="Trazado_131904" data-name="Trazado 131904" d="M289.067,265.5a5.221,5.221,0,0,0-3.343-6.494,4.679,4.679,0,0,0-5.2,2.035,4.683,4.683,0,0,0-3.481-4.364,5.223,5.223,0,0,0-6.145,3.949c-1.239,4.614,4.423,11.8,6.02,12.818a.654.654,0,0,0,.095.057.612.612,0,0,0,.138.059l.013,0,.011,0a.671.671,0,0,0,.15.018.715.715,0,0,0,.111,0C279.334,273.5,287.829,270.119,289.067,265.5Z" transform="translate(-258.335 -244.177)" fill="#fefefe"/>
      </g>
      <g id="Grupo_60642" data-name="Grupo 60642" transform="translate(130.902 81.199)">
        <circle id="Elipse_4379" data-name="Elipse 4379" cx="23.936" cy="23.936" r="23.936" transform="matrix(0.924, -0.383, 0.383, 0.924, 0, 18.32)" fill="#ff3e6c"/>
        <path id="Trazado_131905" data-name="Trazado 131905" d="M168.885,100.579c0-4.694-3.622-8.051-7.316-8.051a6.971,6.971,0,0,0-6.691,4.933,6.97,6.97,0,0,0-6.691-4.933c-3.694,0-7.316,3.357-7.316,8.051,0,7.116,10.915,15.261,13.608,16.113a1.043,1.043,0,0,0,.158.046.983.983,0,0,0,.223.032l.018,0,.019,0a.974.974,0,0,0,.222-.032,1.057,1.057,0,0,0,.159-.046C157.97,115.84,168.885,107.695,168.885,100.579Z" transform="translate(-123.605 -72.659)" fill="#fefefe"/>
      </g>
      <g id="Grupo_60643" data-name="Grupo 60643" transform="translate(340.671 32.463)">
        <circle id="Elipse_4380" data-name="Elipse 4380" cx="15.466" cy="15.466" r="15.466" transform="translate(0 3.748) rotate(-6.959)" fill="#ff3e6c"/>
        <path id="Trazado_131906" data-name="Trazado 131906" d="M334.784,49.386a5.027,5.027,0,0,0-2.861-6.421,4.5,4.5,0,0,0-5.1,1.674,4.5,4.5,0,0,0-3.109-4.38,5.026,5.026,0,0,0-6.117,3.461c-1.439,4.367,3.612,11.573,5.092,12.64a.59.59,0,0,0,.088.059.647.647,0,0,0,.129.065l.013,0,.011.006a.7.7,0,0,0,.143.025.825.825,0,0,0,.106,0C325,56.543,333.345,53.751,334.784,49.386Z" transform="translate(-308.284 -31.384)" fill="#fefefe"/>
      </g>
      <g id="Grupo_60644" data-name="Grupo 60644" transform="translate(89.544 174.46)">
        <circle id="Elipse_4381" data-name="Elipse 4381" cx="15.466" cy="15.466" r="15.466" transform="translate(0 30.926) rotate(-88.824)" fill="#ff3e6c"/>
        <path id="Trazado_131907" data-name="Trazado 131907" d="M112.874,167.495a5.027,5.027,0,0,0-5.769-4.016,4.5,4.5,0,0,0-3.5,4.072,4.5,4.5,0,0,0-4.925-2.142,5.027,5.027,0,0,0-3.447,6.127c1.027,4.481,9.076,8.038,10.9,8.185a.647.647,0,0,0,.106.007.655.655,0,0,0,.144-.013l.011,0h.013a.645.645,0,0,0,.135-.053.817.817,0,0,0,.094-.051C108.2,178.681,113.9,171.976,112.874,167.495Z" transform="translate(-88.756 -155.847)" fill="#fefefe"/>
      </g>
      <g id="Grupo_60645" data-name="Grupo 60645" transform="translate(180.261 40.432)">
        <circle id="Elipse_4382" data-name="Elipse 4382" cx="15.466" cy="15.466" r="15.466" transform="translate(0 15.694) rotate(-30.488)" fill="#ff3e6c"/>
        <path id="Trazado_131908" data-name="Trazado 131908" d="M197.54,56.176a5.026,5.026,0,0,0-5.059-4.882,4.5,4.5,0,0,0-4.1,3.464,4.5,4.5,0,0,0-4.523-2.9,5.025,5.025,0,0,0-4.375,5.5c.3,4.587,7.683,9.376,9.456,9.811a.611.611,0,0,0,.1.023.7.7,0,0,0,.145.011l.013,0h.011a.656.656,0,0,0,.142-.03.87.87,0,0,0,.1-.037C191.148,66.477,197.841,60.763,197.54,56.176Z" transform="translate(-167.476 -37.756)" fill="#fefefe"/>
      </g>
      <g id="Grupo_60647" data-name="Grupo 60647" transform="translate(400.325 156.458)">
        <circle id="Elipse_4383" data-name="Elipse 4383" cx="22.976" cy="22.976" r="22.976" transform="matrix(0.921, -0.389, 0.389, 0.921, 0, 17.892)" fill="#fff"/>
        <g id="Grupo_60646" data-name="Grupo 60646" transform="translate(14.893 16.551)">
          <path id="Rectángulo_31318" data-name="Rectángulo 31318" d="M1.166,0H12.447a1.165,1.165,0,0,1,1.165,1.165V5.447a1.166,1.166,0,0,1-1.166,1.166H1.166A1.166,1.166,0,0,1,0,5.447V1.166A1.166,1.166,0,0,1,1.166,0Z" transform="matrix(0.296, -0.955, 0.955, 0.296, 0, 20.438)" fill="#3e6dc1"/>
          <path id="Trazado_131909" data-name="Trazado 131909" d="M399.312,171.029l-.225-.071a2.1,2.1,0,0,0,1.246-4.019l-6.446-2c1.183-1.005,2.881-2.668,3.387-4.3.8-2.585-.169-4.459-1.04-4.909a1.659,1.659,0,0,0-2.21.529c-.507.7-.493,2.32-.84,2.79-.533.725-2.293,1.373-4.989,3.247a7.8,7.8,0,0,0-2.971,4.362l-1.106,3.568L383.01,173.8l-.515,1.662a1.312,1.312,0,0,0,.863,1.638l11.976,3.714a1.525,1.525,0,0,0,.9-2.913l.2.064a1.868,1.868,0,1,0,1.107-3.568l.657.2a1.868,1.868,0,1,0,1.106-3.568Z" transform="translate(-373.576 -155.514)" fill="#3e6dc1"/>
        </g>
      </g>
      <g id="Grupo_60649" data-name="Grupo 60649" transform="translate(336.99 219.141)">
        <circle id="Elipse_4384" data-name="Elipse 4384" cx="17.927" cy="17.927" r="17.927" transform="translate(0 32.138) rotate(-63.683)" fill="#3e6dc1"/>
        <g id="Grupo_60648" data-name="Grupo 60648" transform="translate(14.16 12.183)">
          <rect id="Rectángulo_31319" data-name="Rectángulo 31319" width="5.16" height="10.621" rx="0.909" transform="translate(0 13.18) rotate(-19.245)" fill="#fff"/>
          <path id="Trazado_131910" data-name="Trazado 131910" d="M335.2,214.753l-.174.061a1.642,1.642,0,1,0-1.083-3.1l-4.972,1.736a8.6,8.6,0,0,0,.131-4.269c-.7-1.993-2.174-2.718-2.93-2.6a1.3,1.3,0,0,0-1.141,1.357c0,.673.766,1.685.768,2.14,0,.7-.8,1.925-1.624,4.352a6.079,6.079,0,0,0,.159,4.114l.961,2.752.961,2.753.448,1.28a1.024,1.024,0,0,0,1.3.628l9.237-3.224a1.189,1.189,0,1,0-.784-2.246l.158-.056a1.457,1.457,0,1,0-.961-2.751l.506-.177a1.457,1.457,0,1,0-.961-2.752Z" transform="translate(-317.832 -206.57)" fill="#fff"/>
        </g>
      </g>
      <g id="Grupo_60651" data-name="Grupo 60651" transform="translate(381.039 71.751)">
        <circle id="Elipse_4385" data-name="Elipse 4385" cx="17.643" cy="17.643" r="17.643" transform="translate(0 33.487) rotate(-71.629)" fill="#fff"/>
        <g id="Grupo_60650" data-name="Grupo 60650" transform="translate(12.688 10.743)">
          <rect id="Rectángulo_31320" data-name="Rectángulo 31320" width="5.078" height="10.452" rx="0.895" transform="translate(0 13.401) rotate(-22.303)" fill="#3e6dc1"/>
          <path id="Trazado_131911" data-name="Trazado 131911" d="M371.948,83.844l-.167.069a1.616,1.616,0,0,0-1.227-2.99l-4.795,1.968a8.474,8.474,0,0,0-.1-4.2c-.788-1.922-2.279-2.558-3.015-2.4a1.272,1.272,0,0,0-1.05,1.393c.039.66.841,1.615.866,2.063.039.691-.688,1.934-1.367,4.361a5.985,5.985,0,0,0,.372,4.035l1.089,2.654,1.089,2.653.507,1.236a1.01,1.01,0,0,0,1.312.549l8.908-3.655a1.17,1.17,0,1,0-.889-2.166l.153-.063a1.434,1.434,0,1,0-1.09-2.653l.489-.2a1.434,1.434,0,1,0-1.09-2.653Z" transform="translate(-355.146 -76.266)" fill="#3e6dc1"/>
        </g>
      </g>
      <g id="Grupo_60653" data-name="Grupo 60653" transform="translate(199.557 69.583)">
        <circle id="Elipse_4386" data-name="Elipse 4386" cx="17.643" cy="17.643" r="17.643" transform="matrix(0.386, -0.923, 0.923, 0.386, 0, 32.553)" fill="#fff"/>
        <g id="Grupo_60652" data-name="Grupo 60652" transform="translate(13.468 11.523)">
          <rect id="Rectángulo_31321" data-name="Rectángulo 31321" width="5.078" height="10.452" rx="0.895" transform="matrix(0.925, -0.38, 0.38, 0.925, 0, 13.401)" fill="#3e6dc1"/>
          <path id="Trazado_131912" data-name="Trazado 131912" d="M213.74,82.629l-.168.069a1.616,1.616,0,0,0-1.226-2.99l-4.795,1.968a8.474,8.474,0,0,0-.1-4.2c-.788-1.922-2.279-2.558-3.015-2.4a1.272,1.272,0,0,0-1.05,1.393c.039.66.841,1.615.866,2.063.039.691-.688,1.934-1.367,4.361a5.985,5.985,0,0,0,.372,4.035l1.089,2.654,1.089,2.653.507,1.236a1.01,1.01,0,0,0,1.312.549l8.908-3.655a1.17,1.17,0,1,0-.889-2.166l.152-.063a1.434,1.434,0,1,0-1.088-2.653l.489-.2a1.434,1.434,0,1,0-1.09-2.653Z" transform="translate(-196.938 -75.051)" fill="#3e6dc1"/>
        </g>
      </g>
      <g id="Grupo_60655" data-name="Grupo 60655" transform="translate(127.643 318.311)">
        <path id="Trazado_131913" data-name="Trazado 131913" d="M158.911,289.768a11.723,11.723,0,1,1-15.295-6.4A11.724,11.724,0,0,1,158.911,289.768Z" transform="translate(-136.339 -282.491)" fill="#3e6dc1"/>
        <g id="Grupo_60654" data-name="Grupo 60654" transform="translate(5.336 4.045)">
          <rect id="Rectángulo_31322" data-name="Rectángulo 31322" width="3.374" height="6.945" rx="0.595" transform="translate(0 8.905) rotate(-22.304)" fill="#fff"/>
          <path id="Trazado_131914" data-name="Trazado 131914" d="M151.7,291.067l-.112.046a1.073,1.073,0,0,0-.814-1.986l-3.187,1.307a5.631,5.631,0,0,0-.063-2.791c-.524-1.277-1.515-1.7-2-1.594a.846.846,0,0,0-.7.926c.026.439.559,1.074.576,1.371a25.292,25.292,0,0,1-.909,2.9,3.975,3.975,0,0,0,.248,2.682l.723,1.764.723,1.762.337.821a.67.67,0,0,0,.873.364l5.919-2.427a.778.778,0,0,0-.591-1.439l.1-.042a.953.953,0,0,0-.724-1.764l.324-.132a.953.953,0,0,0-.723-1.764Z" transform="translate(-140.535 -286.032)" fill="#fff"/>
        </g>
      </g>
      <g id="Grupo_60657" data-name="Grupo 60657" transform="translate(115.81 118.544)">
        <circle id="Elipse_4387" data-name="Elipse 4387" cx="17.643" cy="17.643" r="17.643" transform="translate(0 0)" fill="#fff"/>
        <g id="Grupo_60656" data-name="Grupo 60656" transform="translate(7.484 6.313)">
          <rect id="Rectángulo_31323" data-name="Rectángulo 31323" width="10.452" height="5.078" rx="0.895" transform="translate(0 19.154) rotate(-86.047)" fill="#3e6dc1"/>
          <path id="Trazado_131915" data-name="Trazado 131915" d="M136.639,124.293l-.18-.013a1.615,1.615,0,1,0,.223-3.223l-5.171-.357a8.475,8.475,0,0,0,1.774-3.811c.143-2.072-.913-3.3-1.644-3.485a1.273,1.273,0,0,0-1.558.785c-.257.611.04,1.822-.136,2.234-.271.636-1.472,1.43-3.156,3.307a5.974,5.974,0,0,0-1.451,3.783l-.2,2.862-.2,2.861-.091,1.333a1.008,1.008,0,0,0,.933,1.073l9.606.664a1.171,1.171,0,1,0,.161-2.336l.164.011a1.434,1.434,0,1,0,.2-2.861l.527.037a1.435,1.435,0,0,0,.2-2.862Z" transform="translate(-118.274 -113.356)" fill="#3e6dc1"/>
        </g>
      </g>
      <g id="Grupo_60658" data-name="Grupo 60658" transform="translate(338.266 122.767)">
        <circle id="Elipse_4388" data-name="Elipse 4388" cx="15.466" cy="15.466" r="15.466" transform="translate(0 13.927) rotate(-26.759)" fill="#ff3e6c"/>
        <path id="Trazado_131916" data-name="Trazado 131916" d="M335.784,131.554a5.026,5.026,0,0,0-2.861-6.42,4.5,4.5,0,0,0-5.1,1.674,4.505,4.505,0,0,0-3.109-4.381,5.026,5.026,0,0,0-6.117,3.462c-1.439,4.367,3.612,11.573,5.092,12.639a.7.7,0,0,0,.088.061.648.648,0,0,0,.129.065l.013,0,.011,0a.631.631,0,0,0,.143.025.827.827,0,0,0,.106,0C326,138.712,334.345,135.92,335.784,131.554Z" transform="translate(-305.736 -110.006)" fill="#fefefe"/>
      </g>
      <g id="Grupo_60659" data-name="Grupo 60659" transform="translate(212.212 118.544)">
        <path id="Trazado_131917" data-name="Trazado 131917" d="M219.979,171.8a10.466,10.466,0,1,1-12.663-7.663A10.465,10.465,0,0,1,219.979,171.8Z" transform="translate(-199.348 -163.828)" fill="#ff3e6c"/>
        <path id="Trazado_131918" data-name="Trazado 131918" d="M214.907,170.805a3.4,3.4,0,0,0-3.947-2.654,3.05,3.05,0,0,0-2.325,2.794,3.048,3.048,0,0,0-3.356-1.4,3.4,3.4,0,0,0-2.265,4.183c.744,3.021,6.228,5.339,7.461,5.42.023,0,.047,0,.071,0a.463.463,0,0,0,.1-.01l.008,0h.008a.431.431,0,0,0,.091-.038.542.542,0,0,0,.062-.035C211.867,178.425,215.651,173.826,214.907,170.805Z" transform="translate(-198.843 -163.224)" fill="#fefefe"/>
      </g>
      <g id="Grupo_60661" data-name="Grupo 60661" transform="translate(115.471 207.986)">
        <circle id="Elipse_4389" data-name="Elipse 4389" cx="17.643" cy="17.643" r="17.643" transform="matrix(0.45, -0.893, 0.893, 0.45, 0, 31.516)" fill="#3e6dc1"/>
        <g id="Grupo_60660" data-name="Grupo 60660" transform="translate(12.395 12.958)">
          <rect id="Rectángulo_31324" data-name="Rectángulo 31324" width="10.452" height="5.078" rx="0.895" transform="translate(0 16.8) rotate(-76.678)" fill="#fff"/>
          <path id="Trazado_131919" data-name="Trazado 131919" d="M141.71,209.165l-.176-.042a1.616,1.616,0,0,0,.745-3.144l-5.044-1.194a8.478,8.478,0,0,0,2.37-3.471c.479-2.022-.362-3.407-1.054-3.706a1.272,1.272,0,0,0-1.664.521c-.353.56-.258,1.8-.5,2.182-.371.584-1.686,1.172-3.652,2.749a5.978,5.978,0,0,0-2.048,3.5l-.661,2.791-.661,2.791-.307,1.3a1.008,1.008,0,0,0,.747,1.211l9.369,2.219a1.171,1.171,0,0,0,.539-2.279l.16.038a1.434,1.434,0,1,0,.661-2.791l.514.122a1.434,1.434,0,0,0,.66-2.791Z" transform="translate(-122.252 -197.482)" fill="#fff"/>
        </g>
      </g>
      <g id="Grupo_60663" data-name="Grupo 60663" transform="translate(222.681 326.906)">
        <path id="Trazado_131920" data-name="Trazado 131920" d="M235.685,303.092a14.857,14.857,0,1,1-16.737-12.7A14.857,14.857,0,0,1,235.685,303.092Z" transform="translate(-206.108 -290.254)" fill="#3e6dc1"/>
        <g id="Grupo_60662" data-name="Grupo 60662" transform="translate(6.631 5.005)">
          <rect id="Rectángulo_31325" data-name="Rectángulo 31325" width="4.276" height="8.802" rx="0.754" transform="matrix(0.991, -0.136, 0.136, 0.991, 0, 9.327)" fill="#fff"/>
          <path id="Trazado_131921" data-name="Trazado 131921" d="M226.168,302.756l-.151.021a1.36,1.36,0,1,0-.37-2.7l-4.323.593a7.125,7.125,0,0,0,.806-3.446c-.238-1.733-1.318-2.565-1.952-2.59a1.073,1.073,0,0,0-1.15.915c-.107.547.345,1.494.272,1.865-.114.57-.969,1.431-2.034,3.267a5.037,5.037,0,0,0-.546,3.368l.328,2.393.328,2.393.153,1.115a.851.851,0,0,0,.955.724l8.032-1.1a.986.986,0,1,0-.268-1.953l.138-.019a1.208,1.208,0,1,0-.329-2.393l.441-.061a1.208,1.208,0,1,0-.329-2.393Z" transform="translate(-211.242 -294.636)" fill="#fff"/>
        </g>
      </g>
    </g>
    <g id="Grupo_60666" data-name="Grupo 60666" transform="translate(764.909 9724.19)">
      <g transform="matrix(1, 0, 0, 1, 255.09, 237.81)" filter="url(#Rectángulo_31326)">
        <path id="Rectángulo_31326-3" data-name="Rectángulo 31326" d="M8.2,0H127.153a8.2,8.2,0,0,1,8.2,8.2V28.567a8.2,8.2,0,0,1-8.2,8.2H0a0,0,0,0,1,0,0V8.2A8.2,8.2,0,0,1,8.2,0Z" transform="translate(50.63 13.4)" fill="#fff"/>
      </g>
      <path id="Trazado_131922" data-name="Trazado 131922" d="M382.947,262.292H347.814a2.407,2.407,0,0,1-2.407-2.407h0a2.407,2.407,0,0,1,2.407-2.407h35.133a2.407,2.407,0,0,1,2.407,2.407h0A2.407,2.407,0,0,1,382.947,262.292Z" fill="#dbe2e8"/>
      <path id="Trazado_131923" data-name="Trazado 131923" d="M427.333,272.005H347.814a2.408,2.408,0,0,1-2.407-2.408h0a2.407,2.407,0,0,1,2.407-2.407h79.519a2.407,2.407,0,0,1,2.407,2.407h0A2.408,2.408,0,0,1,427.333,272.005Z" fill="#dbe2e8"/>
      <path id="Trazado_131924" data-name="Trazado 131924" d="M406.333,281.717H347.814a2.407,2.407,0,0,1-2.407-2.407h0a2.407,2.407,0,0,1,2.407-2.407h58.519a2.407,2.407,0,0,1,2.407,2.407h0A2.407,2.407,0,0,1,406.333,281.717Z" fill="#dbe2e8"/>
      <g id="Grupo_60665" data-name="Grupo 60665">
        <rect id="Rectángulo_31327" data-name="Rectángulo 31327" width="26.28" height="26.28" transform="translate(312.913 256.458)" fill="#dbe2e8"/>
        <path id="Trazado_131925" data-name="Trazado 131925" d="M326.053,260.193a4.817,4.817,0,0,0-2.373.547c-2.543,1.367-2.416,2.543-2.416,3.688s-.1,3.4-.1,3.4c-.637-.291-.318.381-.318,1.462a1.594,1.594,0,0,0,.6,1.431c.1,2.225,1.187,2.839,1.187,2.839l-.212,2.268c-.954.021-.424.8-.742.975s-.36,1.038-.36,1.038c-9.282,3.5-8.392,4.895-8.392,4.895H339.17s.89-1.4-8.392-4.895c0,0-.043-.869-.36-1.038s.211-.954-.742-.975l-.212-2.268s1.091-.614,1.187-2.839a1.594,1.594,0,0,0,.6-1.431c0-1.081.318-1.753-.318-1.462,0,0-.1-2.257-.1-3.4s.128-2.321-2.415-3.688A4.817,4.817,0,0,0,326.053,260.193Z" fill="#f6f7f9"/>
      </g>
    </g>
    <g id="Grupo_60667" data-name="Grupo 60667" transform="translate(741.909 10083.19)">
      <g transform="matrix(1, 0, 0, 1, 278.09, -121.19)" filter="url(#Rectángulo_31326-2)">
        <path id="Rectángulo_31326-4" data-name="Rectángulo 31326" d="M8.2,0H127.153a8.2,8.2,0,0,1,8.2,8.2V28.567a8.2,8.2,0,0,1-8.2,8.2H0a0,0,0,0,1,0,0V8.2A8.2,8.2,0,0,1,8.2,0Z" transform="translate(27.63 372.4)" fill="#fff"/>
      </g>
      <path id="Trazado_131922-2" data-name="Trazado 131922" d="M382.947,262.292H347.814a2.407,2.407,0,0,1-2.407-2.407h0a2.407,2.407,0,0,1,2.407-2.407h35.133a2.407,2.407,0,0,1,2.407,2.407h0A2.407,2.407,0,0,1,382.947,262.292Z" fill="#dbe2e8"/>
      <path id="Trazado_131923-2" data-name="Trazado 131923" d="M427.333,272.005H347.814a2.408,2.408,0,0,1-2.407-2.408h0a2.407,2.407,0,0,1,2.407-2.407h79.519a2.407,2.407,0,0,1,2.407,2.407h0A2.408,2.408,0,0,1,427.333,272.005Z" fill="#dbe2e8"/>
      <path id="Trazado_131924-2" data-name="Trazado 131924" d="M406.333,281.717H347.814a2.407,2.407,0,0,1-2.407-2.407h0a2.407,2.407,0,0,1,2.407-2.407h58.519a2.407,2.407,0,0,1,2.407,2.407h0A2.407,2.407,0,0,1,406.333,281.717Z" fill="#dbe2e8"/>
      <g id="Grupo_60665-2" data-name="Grupo 60665">
        <rect id="Rectángulo_31327-2" data-name="Rectángulo 31327" width="26.28" height="26.28" transform="translate(312.913 256.458)" fill="#dbe2e8"/>
        <path id="Trazado_131925-2" data-name="Trazado 131925" d="M326.053,260.193a4.817,4.817,0,0,0-2.373.547c-2.543,1.367-2.416,2.543-2.416,3.688s-.1,3.4-.1,3.4c-.637-.291-.318.381-.318,1.462a1.594,1.594,0,0,0,.6,1.431c.1,2.225,1.187,2.839,1.187,2.839l-.212,2.268c-.954.021-.424.8-.742.975s-.36,1.038-.36,1.038c-9.282,3.5-8.392,4.895-8.392,4.895H339.17s.89-1.4-8.392-4.895c0,0-.043-.869-.36-1.038s.211-.954-.742-.975l-.212-2.268s1.091-.614,1.187-2.839a1.594,1.594,0,0,0,.6-1.431c0-1.081.318-1.753-.318-1.462,0,0-.1-2.257-.1-3.4s.128-2.321-2.415-3.688A4.817,4.817,0,0,0,326.053,260.193Z" fill="#f6f7f9"/>
      </g>
    </g>
  </g>
</svg>
