<svg xmlns="http://www.w3.org/2000/svg" width="90.306" height="90.313" viewBox="0 0 90.306 90.313">
  <g id="Grupo_60672" data-name="Grupo 60672" transform="translate(-2039.807 -40.613)">
    <path id="Trazado_131982" data-name="Trazado 131982" d="M2133.724,515c0,.19-.006.381-.006.571,0,.066,0,.132,0,.2,0-.066,0-.132,0-.2C2133.718,515.383,2133.721,515.192,2133.724,515Z" transform="translate(-77.349 -390.732)" fill="#0d585f"/>
    <path id="Trazado_131983" data-name="Trazado 131983" d="M2042.269,336.473c.424-.01.567.124.548.547-.03.674.007,1.35-.014,2.024-.011.345.117.427.452.457,2.521.224,2.52.233,2.562-2.3a1.176,1.176,0,0,0,0-.176c-.058-.422.122-.569.544-.55.644.029,1.291.009,1.937.007.257,0,.543.063.529-.364-.028-.848.23-1.844-.135-2.5-.273-.488-1.359-.089-2.079-.155a.332.332,0,0,0-.088,0c-.584.1-.733-.15-.724-.718.012-.747.355-1.8-.155-2.166-.529-.378-1.52-.088-2.307-.13-.436-.023-.53.143-.541.552-.021.809.376,1.949-.159,2.34-.559.408-1.632.112-2.48.121-.117,0-.234-.011-.351-.017v3C2040.627,336.458,2041.449,336.494,2042.269,336.473Z" transform="translate(0 -238.673)" fill="#0d585f"/>
    <path id="Trazado_131984" data-name="Trazado 131984" d="M2318.48,507.828c-.013-.427.126-.563.547-.544.674.03,1.351-.007,2.025.014.343.011.429-.112.459-.449.227-2.527.235-2.526-2.3-2.564a1.179,1.179,0,0,0-.176,0c-.417.057-.573-.109-.553-.538.031-.645-.017-1.293.017-1.938.022-.428-.122-.561-.544-.539-.788.041-1.786-.248-2.309.133-.5.362-.167,1.424-.147,2.173.016.585-.164.736-.734.725-.748-.014-1.805-.353-2.167.152-.378.527-.087,1.521-.129,2.309-.023.432.133.533.547.543.81.018,1.95-.376,2.341.157.409.558.113,1.632.124,2.48,0,.117-.007.235-.01.352h3C2318.475,509.471,2318.505,508.649,2318.48,507.828Z" transform="translate(-224.522 -379.367)" fill="#0d585f"/>
    <path id="Trazado_131985" data-name="Trazado 131985" d="M2043.494,188.7c.752-.012,1.739.328,2.191-.134s.068-1.446.14-2.2c.05-.528-.1-.7-.663-.687-1.784.039-3.57.012-5.355.011v3C2041.036,188.7,2042.265,188.721,2043.494,188.7Z" transform="translate(0 -119.488)" fill="#0d585f"/>
    <path id="Trazado_131986" data-name="Trazado 131986" d="M2166.472,173.192q-1.887-13.161-3.78-26.322-2.564-17.913-5.118-35.827c-.261-1.825-.6-2.114-2.441-2.114h-34.209q-9.3,0-18.6,0c-1.408,0-1.91.457-2.087,1.825-.1.757-.223,1.51-.331,2.265q-2.061,14.516-4.121,29.031-2.191,15.386-4.393,30.771c-.251,1.763.278,2.347,2.1,2.347H2146.3c1.616,0,2.029-.413,2.257-2.039.724-5.174,1.475-10.344,2.214-15.516q1.362-9.545,2.722-19.091c.795-5.571,1.591-11.142,2.413-16.9a2.011,2.011,0,0,1,.208.383q1.249,8.716,2.491,17.434,1.284,8.978,2.571,17.956c.666,4.649,1.321,9.3,2.009,13.945.1.682-.084.836-.756.827-2.88-.038-5.76-.016-8.64-.016-2.492,0-2.481,0-2.329,2.477.026.421.149.558.567.545.852-.028,1.7-.008,2.557-.008,3.321,0,6.642.007,9.963,0C2165.974,175.163,2166.654,174.459,2166.472,173.192Zm-12.337-60.361c-1,6.854-1.969,13.712-2.952,20.568q-1.461,10.2-2.928,20.393c-.841,5.869-1.694,11.736-2.491,17.61-.095.7-.366.766-.948.765q-6.171-.011-12.342-.011h-12.343c-6.171,0-12.343-.01-18.514,0q-3.085.006-6.171.021c-.894,0-.919-.308-.818-1.008q1.767-12.2,3.5-24.4,1.638-11.417,3.284-22.833c.539-3.748,1.1-7.492,1.585-11.246.09-.7.368-.76.946-.759q18.073.021,36.146.01c4.438,0,8.875.02,13.312-.019C2154.183,111.916,2154.231,112.173,2154.135,112.832Z" transform="translate(-42.436 -56.268)" fill="#0d585f"/>
    <path id="Trazado_131987" data-name="Trazado 131987" d="M2143.58,46.753c1.569,0,1.569,0,1.569,1.54,0,1.466,0,1.466,1.471,1.466,1.554,0,1.554,0,1.554-1.559,0-1.447,0-1.447,1.486-1.447,1.529,0,1.529,0,1.529-1.495,0-1.513,0-1.513-1.511-1.513s-1.5,0-1.5-1.5,0-1.5-1.515-1.5-1.51,0-1.51,1.508,0,1.5-1.51,1.5-1.505,0-1.505,1.519C2142.134,46.753,2142.134,46.753,2143.58,46.753Z" transform="translate(-84.282 -0.106)" fill="#0d585f"/>
    <path id="Trazado_131988" data-name="Trazado 131988" d="M2502.121,208.831c1.567,0,1.567,0,1.567,1.543,0,1.467,0,1.467,1.448,1.467,1.56,0,1.56,0,1.56-1.536,0-1.474,0-1.474,1.452-1.474,1.551,0,1.551,0,1.551-1.537,0-1.479,0-1.479-1.441-1.479-1.562,0-1.562,0-1.562-1.526,0-1.48,0-1.48-1.441-1.48-1.567,0-1.567,0-1.567,1.528,0,1.478,0,1.478-1.443,1.478-1.563,0-1.563,0-1.563,1.538C2500.683,208.831,2500.683,208.831,2502.121,208.831Z" transform="translate(-379.602 -133.594)" fill="#0d585f"/>
    <path id="Trazado_131989" data-name="Trazado 131989" d="M2522.669,509.5c-1,.03-2-.007-3,.015-.757.017-1.758-.33-2.206.13-.485.5-.092,1.505-.162,2.286-.04.447.085.631.573.606.791-.041,1.586-.011,2.379-.011.823,0,1.646-.021,2.467.009.437.016.641-.079.607-.572a12.808,12.808,0,0,1,0-1.849C2523.373,509.577,2523.139,509.487,2522.669,509.5Z" transform="translate(-393.224 -386.124)" fill="#0d585f"/>
    <path id="Trazado_131990" data-name="Trazado 131990" d="M2457.6,46.523c.467.376,1.455.069,2.208.137.592.053.663-.2.647-.7-.032-1.111-.01-2.224-.01-3.337,0-1.986,0-1.944-1.971-2.006-.808-.025-1.175.122-1.055,1.016a14.528,14.528,0,0,1,.017,1.93c0,.263-.013.528,0,.79C2457.48,45.1,2457.107,46.128,2457.6,46.523Z" transform="translate(-343.904)" fill="#0d585f"/>
    <path id="Trazado_131991" data-name="Trazado 131991" d="M2136.164,501.358c-.482-.451-1.448-.075-2.2-.146-.517-.049-.735.08-.692.655s.029,1.14.019,1.711c0,.19-.006.381-.006.571,0,.066,0,.132,0,.2,0,.2-.009.4,0,.592.05.748-.337,1.772.161,2.169.47.375,1.455.069,2.207.137.595.053.663-.211.648-.705-.033-1.024.007-2.049-.016-3.073C2136.275,502.743,2136.612,501.777,2136.164,501.358Z" transform="translate(-76.92 -379.308)" fill="#0d585f"/>
    <path id="Trazado_131992" data-name="Trazado 131992" d="M2168.624,125.91c-4.437.04-8.875.019-13.312.019q-18.073,0-36.146-.01c-.579,0-.856.063-.946.759-.487,3.754-1.047,7.5-1.585,11.246q-1.641,11.417-3.284,22.833-1.75,12.2-3.5,24.4c-.1.7-.077,1.013.818,1.008q3.086-.016,6.171-.021c6.171-.013,12.343,0,18.513,0H2147.7q6.171,0,12.343.011c.581,0,.853-.066.948-.765.8-5.874,1.651-11.741,2.491-17.61q1.461-10.2,2.928-20.393c.982-6.856,1.952-13.714,2.951-20.568C2169.453,126.16,2169.405,125.9,2168.624,125.91Zm-36.572,6.052a9.032,9.032,0,1,1-9.009,9.049A9.089,9.089,0,0,1,2132.052,131.962Zm16.568,48.149a9.032,9.032,0,1,1,9.022-9.021A9.091,9.091,0,0,1,2148.619,180.111Zm14.343-42.3c-.12.129-.248.25-.373.375q-21.166,21.166-42.319,42.345c-.533.534-.844.645-1.336.007-.409-.531-1.248-.955-1.294-1.48-.048-.544.808-.986,1.281-1.459q20.754-20.767,41.5-41.537c.535-.537.852-.644,1.337-.007a12.477,12.477,0,0,0,1.111,1.131c.1.1.19.215.311.353C2163.1,137.644,2163.036,137.734,2162.962,137.813Z" transform="translate(-57.657 -70.255)" fill="#aee6e6"/>
    <path id="Trazado_131993" data-name="Trazado 131993" d="M2149.674,467.464c6.171-.013,12.342,0,18.514,0h0C2162.016,467.461,2155.845,467.451,2149.674,467.464Z" transform="translate(-90.492 -351.572)" fill="#0d585f"/>
    <path id="Trazado_131994" data-name="Trazado 131994" d="M2198.327,181.4c-.485-.637-.8-.53-1.337.007q-20.735,20.785-41.5,41.537c-.472.473-1.329.915-1.281,1.459.046.525.885.949,1.294,1.48.492.638.8.527,1.336-.007q21.142-21.19,42.319-42.345c.125-.125.252-.246.373-.375.074-.079.138-.169.221-.272-.12-.138-.21-.251-.311-.353A12.5,12.5,0,0,1,2198.327,181.4Z" transform="translate(-94.223 -115.602)" fill="#0d585f"/>
    <path id="Trazado_131995" data-name="Trazado 131995" d="M2193.9,178.294a9.032,9.032,0,1,0-9.053-9.015A9.112,9.112,0,0,0,2193.9,178.294Zm-.022-15.036a6.012,6.012,0,0,1,.051,12.024,6.012,6.012,0,1,1-.051-12.024Z" transform="translate(-119.465 -98.522)" fill="#0d585f"/>
    <path id="Trazado_131996" data-name="Trazado 131996" d="M2287.811,330.834a9.032,9.032,0,1,0,9.008,9.043A9.125,9.125,0,0,0,2287.811,330.834Zm0,15.034a6.01,6.01,0,1,1,6-5.976A6.041,6.041,0,0,1,2287.808,345.868Z" transform="translate(-196.835 -239.041)" fill="#0d585f"/>
    <path id="Trazado_131997" data-name="Trazado 131997" d="M2207.986,189.428a6.012,6.012,0,1,0-6.072-6.046A6.063,6.063,0,0,0,2207.986,189.428Z" transform="translate(-133.52 -112.668)" fill="#aee6e6"/>
    <path id="Trazado_131998" data-name="Trazado 131998" d="M2301.8,347.919a6.01,6.01,0,0,0,.046,12.02,6.01,6.01,0,1,0-.046-12.02Z" transform="translate(-210.875 -253.113)" fill="#aee6e6"/>
  </g>
</svg>
