<svg xmlns="http://www.w3.org/2000/svg" width="96" height="96" viewBox="0 0 96 96">
  <g id="Grupo_60671" data-name="Grupo 60671" transform="translate(-390 -11569)">
    <g id="Grupo_60669" data-name="Grupo 60669" transform="translate(-849.181 11576.729)">
      <path id="Trazado_131957" data-name="Trazado 131957" d="M1314.425,81.64a5.764,5.764,0,0,0-7.574-8.543,1.069,1.069,0,0,1-1.269.068q-4.712-2.3-9.442-4.564a.9.9,0,0,1-.619-.94,14.916,14.916,0,0,0-.68-4.507.676.676,0,0,1,.3-.9q2.46-1.805,4.88-3.666c.387-.3.548-.273.814.148a15.851,15.851,0,0,0,26.8.389,15.871,15.871,0,0,0-10.317-24.393,12.664,12.664,0,0,0-3.033-.265A1.013,1.013,0,0,1,1313.3,34q-3.331-4.5-6.709-8.957c-.237-.315-.412-.506-.016-.891a15.781,15.781,0,0,0,4.864-10.55c.2.08.386.138.558.221,2.668,1.284,5.331,2.577,8,3.85a.586.586,0,0,1,.386.823,5.762,5.762,0,0,0,11.069,3.191c.059-.168.046-.409.3-.467V18.841c-.138-.022-.152-.125-.18-.24a5.768,5.768,0,0,0-9-3.317c-.368.265-.616.126-.92-.02q-4.914-2.373-9.831-4.738a1.06,1.06,0,0,1-.652-.869,15.922,15.922,0,0,0-31.511,1.915,1.13,1.13,0,0,1-.48.829c-2.539,2.166-5.088,4.321-7.6,6.515a.708.708,0,0,1-1.109.033,14.88,14.88,0,0,0-7.553-3.164c-.586-.071-.729-.306-.721-.863.031-2.037.028-4.074,0-6.111a.735.735,0,0,1,.579-.846,5.719,5.719,0,0,0,3.675-6.422,5.817,5.817,0,0,0-5.681-4.77,5.872,5.872,0,0,0-5.7,4.76,5.771,5.771,0,0,0,3.688,6.427c.487.176.563.419.559.86-.019,1.811-.008,3.622-.008,5.433,0,1.362,0,1.362-1.3,1.6a15.927,15.927,0,1,0,14.467,26.485,16.4,16.4,0,0,0,3.969-7.881c.243-.041.347.124.474.222,1.787,1.386,3.55,2.8,5.365,4.154a1.063,1.063,0,0,1,.444,1.4,5.754,5.754,0,0,0,2.332,6.253,5.872,5.872,0,0,0,6.738-.2,5.764,5.764,0,0,0-6.406-9.562.911.911,0,0,1-1.24-.058c-2.3-1.835-4.625-3.632-6.952-5.43a1.338,1.338,0,0,1-.586-1.048,15.2,15.2,0,0,0-3.121-8.188c-.316-.419-.36-.631.087-1,1.915-1.589,3.789-3.229,5.686-4.84.178-.151.315-.419.634-.352.023.082.049.16.068.239a15.571,15.571,0,0,0,8.413,10.884,15.461,15.461,0,0,0,15.049-.357c.283-.153.463-.33.745.052,2.05,2.769,4.125,5.519,6.216,8.3-.244.083-.429.149-.616.208A15.963,15.963,0,0,0,1299.1,54.876c.1.345.242.65-.175.954-1.827,1.33-3.628,2.7-5.461,4.066-.154-.244-.291-.457-.424-.672a15.9,15.9,0,0,0-29.2,6.421c-.077.518-.253.7-.8.692-2.065-.036-4.131-.033-6.2,0-.493.007-.661-.177-.819-.612a5.744,5.744,0,0,0-6.448-3.639A5.781,5.781,0,1,0,1256,69.828a.779.779,0,0,1,.906-.611c1.98.021,3.963.053,5.941-.014.764-.026.928.249,1.015.931a16.048,16.048,0,0,0,11.746,13.074,4.883,4.883,0,0,1,1.814.491h3.905a38.284,38.284,0,0,0,3.771-.976,15.8,15.8,0,0,0,9.806-10.664c.183-.62.339-.707.921-.418,2.724,1.354,5.473,2.658,8.211,3.984.284.138.578.174.448.706a5.7,5.7,0,0,0,3.94,7.127c.146.051.352.026.407.241h2.037A6.87,6.87,0,0,0,1314.425,81.64Zm11.569-64.57a2.886,2.886,0,1,1-2.911,2.892A2.9,2.9,0,0,1,1325.994,17.07ZM1288.339,38.8a2.887,2.887,0,1,1-2.937,2.877A2.882,2.882,0,0,1,1288.339,38.8ZM1257.885,2.535a2.9,2.9,0,0,1,2.841-2.868,2.934,2.934,0,0,1,2.932,2.882,2.88,2.88,0,0,1-2.9,2.882A2.837,2.837,0,0,1,1257.885,2.535Zm6.975,41.323a13.107,13.107,0,0,1-9.323-.408.768.768,0,0,1-.57-.874c.044-.676,0-1.357.014-2.036A1.543,1.543,0,0,1,1256.7,38.8c1.357-.046,2.715-.011,4.073-.011v0c1.245,0,2.49-.009,3.734,0,1.516.014,2.045.547,2.049,2.032,0,.255,0,.509,0,.764C1266.556,43.3,1266.559,43.309,1264.861,43.858Zm4.581-2.692a4.879,4.879,0,0,0-.982-3.619,4.072,4.072,0,0,0-2.892-1.575,77.191,77.191,0,0,0-9.235-.026c-2.7.151-4.191,1.9-4.254,4.628,0,.139,0,.279,0,.426-2.358-.866-4.728-6.73-4.308-10.61a13.039,13.039,0,0,1,25.02-3.875A12.912,12.912,0,0,1,1269.441,41.166ZM1300,24.915a13.215,13.215,0,0,1-9.645-.288.819.819,0,0,1-.619-.929c.046-.619,0-1.244.013-1.866.021-1.31.534-1.843,1.855-1.868q.488-.009.976-.011c.976,0,1.952.006,2.928.006s1.952-.009,2.928,0q.488,0,.976.009c1.4.022,1.924.568,1.933,1.979,0,.339,0,.679,0,1.018C1301.343,24.427,1301.352,24.456,1300,24.915Zm4.282-2.632c-.018-.349-.031-.641-.049-.933a4.306,4.306,0,0,0-4.066-4.223,80.394,80.394,0,0,0-8.985-.025c-2.663.126-4.188,1.811-4.343,4.48-.011.194,0,.39,0,.717a12.99,12.99,0,1,1,17.444-.015Zm14.53,40.311a13.2,13.2,0,0,1-9.568-.268.91.91,0,0,1-.683-1.063c.052-.59,0-1.187.014-1.781.028-1.281.568-1.833,1.885-1.862,1.3-.028,2.6-.006,3.9-.006.955,0,1.91-.008,2.865,0q.478,0,.955.008c1.438.02,1.985.586,1.995,2.016,0,.339,0,.679,0,1.018C1320.176,62.1,1320.184,62.125,1318.81,62.593Zm-16.92-16.03a13.047,13.047,0,0,1,24.891-.165,12.732,12.732,0,0,1-3.677,13.51c-.017-.361-.017-.69-.051-1.016a4.263,4.263,0,0,0-4.016-4.092,69.514,69.514,0,0,0-9.154-.02c-2.543.15-4.02,1.807-4.213,4.347-.019.248-.026.5-.04.768C1302.523,57.487,1300.256,52.045,1301.891,46.563ZM1250.55,70.638a2.9,2.9,0,0,1-2.827-2.881,2.933,2.933,0,0,1,2.922-2.891,2.88,2.88,0,0,1,2.842,2.943A2.838,2.838,0,0,1,1250.55,70.638Zm34.013,9.139c-.193.076-.431.156-.724.254a13.016,13.016,0,0,1-9.4-.341c-.452-.187-.67-.4-.633-.919.049-.7,0-1.414.018-2.121a1.47,1.47,0,0,1,1.571-1.611q4.2-.04,8.4,0a1.509,1.509,0,0,1,1.6,1.609q.007.148.009.3c0,.3-.005.595-.005.892C1285.4,79.184,1285.4,79.446,1284.563,79.777Zm3.719-2.4a4.583,4.583,0,0,0-2.506-4.806,4.883,4.883,0,0,0-2.3-.453c-2.518.006-5.039.081-7.553-.019a4.563,4.563,0,0,0-5.01,4.881,1.112,1.112,0,0,1-.039.243c-2.617-1.761-5.054-6.814-4.1-11.853a13.128,13.128,0,0,1,11.283-10.543,12.977,12.977,0,0,1,13.682,8.238C1293.7,68,1292.214,74.317,1288.282,77.378Zm21.7,3.424a2.916,2.916,0,0,1-2.846-2.873,2.886,2.886,0,1,1,5.771,0A2.916,2.916,0,0,1,1309.982,80.8Z" transform="translate(0 0)" fill="#0d585f"/>
      <path id="Trazado_131958" data-name="Trazado 131958" d="M1385.815,352.733a5.794,5.794,0,1,1,5.843-5.816A5.827,5.827,0,0,1,1385.815,352.733Z" transform="translate(-106.264 -283.519)" fill="#0d585f"/>
      <path id="Trazado_131962" data-name="Trazado 131962" d="M1629.772,355.062q-.477-.007-.955-.008c-.955,0-1.91,0-2.865,0-1.3,0-2.6-.022-3.9.006-1.316.029-1.856.581-1.884,1.862-.013.594.038,1.192-.014,1.781a.91.91,0,0,0,.683,1.063,13.2,13.2,0,0,0,9.568.268c1.374-.469,1.365-.493,1.365-1.943,0-.339,0-.679,0-1.018C1631.757,355.649,1631.21,355.082,1629.772,355.062Z" transform="translate(-311.592 -297.446)" fill="#aee6e6"/>
      <path id="Trazado_131963" data-name="Trazado 131963" d="M1635.271,355.059c.955,0,1.91-.008,2.865,0-.955,0-1.91,0-2.865,0-1.3,0-2.6-.022-3.9.006C1632.668,355.037,1633.969,355.059,1635.271,355.059Z" transform="translate(-320.91 -297.446)" fill="#0d585f"/>
      <path id="Trazado_131964" data-name="Trazado 131964" d="M1314.074,244.155c-1.245-.012-2.49,0-3.734,0v0c-1.358,0-2.717-.035-4.073.011a1.543,1.543,0,0,0-1.718,1.743c-.013.679.03,1.36-.014,2.036a.768.768,0,0,0,.57.874,13.107,13.107,0,0,0,9.323.408c1.7-.549,1.7-.558,1.7-2.277,0-.255,0-.509,0-.764C1316.119,244.7,1315.59,244.169,1314.074,244.155Z" transform="translate(-49.568 -205.37)" fill="#aee6e6"/>
      <path id="Trazado_131965" data-name="Trazado 131965" d="M1427.058,460.43c0-.3.009-.595.005-.892,0-.1,0-.2-.009-.3a1.509,1.509,0,0,0-1.6-1.609q-4.2-.038-8.4,0a1.47,1.47,0,0,0-1.571,1.611c-.023.707.031,1.417-.018,2.121-.036.518.181.731.633.919a13.017,13.017,0,0,0,9.4.341c.293-.1.531-.178.724-.254C1427.062,462.041,1427.059,461.78,1427.058,460.43Z" transform="translate(-141.662 -382.595)" fill="#aee6e6"/>
      <path id="Trazado_131966" data-name="Trazado 131966" d="M1479.7,468.951c0,.3-.005.595-.005.892,0,1.349,0,1.611-.833,1.942.837-.331.834-.593.833-1.942C1479.691,469.546,1479.7,469.248,1479.7,468.951Z" transform="translate(-194.295 -392.008)" fill="#0d585f"/>
      <path id="Trazado_131967" data-name="Trazado 131967" d="M1518.97,133.294q-.488-.007-.976-.009c-.976,0-1.952,0-2.928.005s-1.952-.011-2.928-.006q-.488,0-.976.011c-1.321.025-1.833.557-1.855,1.867-.01.622.033,1.247-.013,1.866a.818.818,0,0,0,.619.929,13.215,13.215,0,0,0,9.645.288c1.354-.459,1.344-.487,1.344-1.956,0-.339,0-.679,0-1.018C1520.893,133.862,1520.374,133.315,1518.97,133.294Z" transform="translate(-219.561 -113.332)" fill="#aee6e6"/>
      <path id="Trazado_131968" data-name="Trazado 131968" d="M1528.991,133.29c.976,0,1.952-.009,2.928-.005-.976,0-1.952,0-2.928,0s-1.952-.011-2.928-.006C1527.039,133.279,1528.015,133.29,1528.991,133.29Z" transform="translate(-233.485 -113.332)" fill="#0d585f"/>
      <path id="Trazado_131969" data-name="Trazado 131969" d="M1327.508,16.7a2.934,2.934,0,0,0-2.932-2.882,2.9,2.9,0,0,0-2.841,2.868,2.837,2.837,0,0,0,2.87,2.9A2.88,2.88,0,0,0,1327.508,16.7Z" transform="translate(-63.85 -14.149)" fill="#aee6e6"/>
      <path id="Trazado_131970" data-name="Trazado 131970" d="M1264.8,397.817a2.933,2.933,0,0,0-2.922,2.891,2.9,2.9,0,0,0,2.827,2.881,2.838,2.838,0,0,0,2.936-2.83A2.88,2.88,0,0,0,1264.8,397.817Z" transform="translate(-14.156 -332.952)" fill="#aee6e6"/>
      <path id="Trazado_131971" data-name="Trazado 131971" d="M1486.722,250.079a2.887,2.887,0,1,0-2.924-2.9A2.9,2.9,0,0,0,1486.722,250.079Z" transform="translate(-198.396 -205.504)" fill="#aee6e6"/>
      <path id="Trazado_131972" data-name="Trazado 131972" d="M1614.7,457.677a2.881,2.881,0,0,0-2.884,2.9,2.886,2.886,0,0,0,5.771,0A2.872,2.872,0,0,0,1614.7,457.677Z" transform="translate(-304.674 -382.648)" fill="#aee6e6"/>
      <path id="Trazado_131973" data-name="Trazado 131973" d="M1708.573,122.087a2.886,2.886,0,1,0,.064-5.772,2.886,2.886,0,0,0-.064,5.772Z" transform="translate(-382.643 -99.245)" fill="#aee6e6"/>
      <path id="Trazado_131974" data-name="Trazado 131974" d="M1421.369,355.174a5.794,5.794,0,1,0,5.8,5.773A5.814,5.814,0,0,0,1421.369,355.174Zm.025,8.682a2.888,2.888,0,1,1,2.875-2.875A2.937,2.937,0,0,1,1421.395,363.856Z" transform="translate(-141.771 -297.549)" fill="#0d585f"/>
      <path id="Trazado_131975" data-name="Trazado 131975" d="M1310.443,141.814a5.784,5.784,0,1,0,5.776,5.791A5.827,5.827,0,0,0,1310.443,141.814Zm-.02,8.672a2.852,2.852,0,0,1-2.871-2.9,2.909,2.909,0,0,1,2.841-2.873,2.948,2.948,0,0,1,2.932,2.886A2.9,2.9,0,0,1,1310.423,150.485Z" transform="translate(-49.667 -120.415)" fill="#0d585f"/>
      <path id="Trazado_131976" data-name="Trazado 131976" d="M1625.937,264.335a5.779,5.779,0,1,0-5.58-5.859A5.81,5.81,0,0,0,1625.937,264.335Zm.224-8.664a2.888,2.888,0,1,1-.051,5.776,2.856,2.856,0,0,1-2.851-2.862A2.892,2.892,0,0,1,1626.161,255.67Z" transform="translate(-311.767 -212.538)" fill="#0d585f"/>
      <path id="Trazado_131977" data-name="Trazado 131977" d="M1515.24,30.854a5.787,5.787,0,1,0,5.778,5.807A5.839,5.839,0,0,0,1515.24,30.854Zm-.014,8.675a2.848,2.848,0,0,1-2.888-2.822,2.907,2.907,0,0,1,2.865-2.958,2.958,2.958,0,0,1,2.912,2.935A2.907,2.907,0,0,1,1515.226,39.529Z" transform="translate(-219.681 -28.294)" fill="#0d585f"/>
      <path id="Trazado_131978" data-name="Trazado 131978" d="M1435.508,372.293a2.888,2.888,0,0,0,.054,5.775,2.888,2.888,0,1,0-.054-5.775Z" transform="translate(-155.939 -311.761)" fill="#aee6e6"/>
      <path id="Trazado_131979" data-name="Trazado 131979" d="M1324.576,158.86a2.909,2.909,0,0,0-2.841,2.873,2.851,2.851,0,0,0,2.871,2.9,2.9,2.9,0,0,0,2.9-2.892A2.948,2.948,0,0,0,1324.576,158.86Z" transform="translate(-63.85 -134.566)" fill="#aee6e6"/>
      <path id="Trazado_131980" data-name="Trazado 131980" d="M1640.316,275.59a2.888,2.888,0,1,0-2.851-2.862A2.856,2.856,0,0,0,1640.316,275.59Z" transform="translate(-325.972 -226.682)" fill="#aee6e6"/>
      <path id="Trazado_131981" data-name="Trazado 131981" d="M1529.4,47.9a2.907,2.907,0,0,0-2.865,2.958,2.848,2.848,0,0,0,2.888,2.822,2.907,2.907,0,0,0,2.89-2.846A2.958,2.958,0,0,0,1529.4,47.9Z" transform="translate(-233.875 -42.449)" fill="#aee6e6"/>
    </g>
    <rect id="Rectángulo_31329" data-name="Rectángulo 31329" width="96" height="96" transform="translate(390 11569)" fill="none"/>
  </g>
</svg>
