<svg xmlns="http://www.w3.org/2000/svg" width="96" height="96" viewBox="0 0 96 96">
  <g id="Grupo_60670" data-name="Grupo 60670" transform="translate(-390 -11717)">
    <g id="Grupo_60668" data-name="Grupo 60668" transform="translate(-265.803 11723.028)">
      <path id="Trazado_131926" data-name="Trazado 131926" d="M677.764,155.8q19.409-.039,38.818-.018,19.453,0,38.907.018c.792,0,1.027-.172,1.025-1q-.043-19.854-.021-39.708c0-1.645-.406-2.058-2.039-2.051-.708,0-1.641-.231-2.063.126-.5.423-.151,1.39-.163,2.119-.031,1.77-.741,2.318-2.409,1.8-4.867-1.5-9.731-3.02-14.605-4.5a22.656,22.656,0,0,0-3.5-.983c-.8-.109-1.131.145-1.232.993-.3,2.53-.694,5.049-1.06,7.571a1.442,1.442,0,0,1-1.61,1.415c-1.246.015-2.493.009-3.739,0-1.28-.007-1.773-.5-1.778-1.778-.007-1.989-.021-3.977.01-5.965.009-.577-.081-.831-.753-.822-2.849.039-5.7.03-8.547,0-.543,0-.709.138-.7.693.033,2.047.02,4.1.01,6.143-.006,1.218-.514,1.723-1.743,1.724q-13.934.006-27.867,0c-1.225,0-1.727-.508-1.734-1.731-.009-1.543,0-3.086,0-4.63,0-2.188,0-2.188-2.208-2.186-1.656,0-2.066.4-2.066,2.026q0,19.854-.024,39.708C676.672,155.669,676.952,155.8,677.764,155.8ZM722.3,125.961a1.4,1.4,0,0,1,1.572-1.527q12.685-.013,25.371,0a1.41,1.41,0,0,1,1.543,1.559c.021,1.009.06,2.022-.012,3.025-.06.848.126,1.31,1.077,1.11a.77.77,0,0,1,.178,0,1.437,1.437,0,0,1,1.607,1.59q.016,8.368,0,16.736c0,1.12-.558,1.619-1.754,1.621q-2.96,0-5.92,0h-5.92q-5.786,0-11.573,0c-1.45,0-1.9-.457-1.9-1.922,0-.653,0-1.306,0-1.959,0-1.818,0-1.818-1.863-1.818-.3,0-.594.01-.89,0a1.4,1.4,0,0,1-1.513-1.5Q722.283,134.419,722.3,125.961Zm-42.755,3.221c0-1.453.454-1.9,1.919-1.9q18.023,0,36.047,0c1.469,0,1.93.45,1.93,1.893q0,10.947,0,21.895c0,1.391-.473,1.859-1.876,1.859q-9.034,0-18.068,0H681.523c-1.531,0-1.974-.435-1.974-1.939Q679.547,140.086,679.549,129.183Z" transform="translate(-13.045 -91.724)" fill="#fff"/>
      <path id="Trazado_131927" data-name="Trazado 131927" d="M781.157,84.939V88.8l3.869-1.944Z" transform="translate(-98.917 -69.833)" fill="#aee6e6"/>
      <path id="Trazado_131928" data-name="Trazado 131928" d="M731.185,216.419c3.987,2.459,7.986,4.9,11.961,7.378a1.156,1.156,0,0,0,1.432,0c2.989-1.874,6-3.709,9.006-5.559,1.17-.72,2.337-1.446,3.685-2.281H730.641C730.751,216.244,731,216.3,731.185,216.419Z" transform="translate(-57.399 -177.515)" fill="#aee6e6"/>
      <path id="Trazado_131929" data-name="Trazado 131929" d="M766.766,63.742a1.463,1.463,0,0,1,.816.218,1.473,1.473,0,0,0-.815-.219,1.3,1.3,0,0,0-1.285.889A1.3,1.3,0,0,1,766.766,63.742Z" transform="translate(-86.033 -52.407)" fill="#0d585f"/>
      <path id="Trazado_131930" data-name="Trazado 131930" d="M1030.523,263.722c1.068-.006,2.137,0,3.205,0h0C1032.66,263.725,1031.591,263.716,1030.523,263.722Z" transform="translate(-303.867 -216.771)" fill="#0d585f"/>
      <path id="Trazado_131931" data-name="Trazado 131931" d="M853.5,447.752l-2.983,0h0Z" transform="translate(-146.917 -368.022)" fill="#0d585f"/>
      <path id="Trazado_131932" data-name="Trazado 131932" d="M924.766,69.582c0,.267-.02.536,0,.8-.023-.265,0-.534,0-.8,0-.178,0-.356,0-.534C924.763,69.226,924.766,69.4,924.766,69.582Z" transform="translate(-216.94 -56.773)" fill="#0d585f"/>
      <path id="Trazado_131933" data-name="Trazado 131933" d="M746.3,43.925q0-10.507,0-21.013a4.276,4.276,0,0,0-4.415-4.454c-.623-.006-1.248-.022-1.87.006-.527.024-.868.011-.866-.714s.316-.771.857-.721a4.536,4.536,0,0,0,.8,0,4.142,4.142,0,0,0,3.751-2.7,4.031,4.031,0,0,0-.893-4.523A4.018,4.018,0,0,0,740.2,8.5c-.889.085-1.083-.228-1.051-1.07.069-1.808.022-3.62.021-5.431,0-1.837-.709-2.364-2.445-1.827Q728.537,2.7,720.345,5.24a8.614,8.614,0,0,1-2.7.4c-2.7-.034-5.4-.018-8.1-.009-1.179,0-1.687.51-1.711,1.665a3.639,3.639,0,0,0,0,.534c.063.492-.116.687-.634.658-.71-.04-1.425-.028-2.136,0a1.4,1.4,0,0,0-1.5,1.51q-.034,2.76,0,5.521a1.4,1.4,0,0,0,1.5,1.508,18.942,18.942,0,0,0,1.958,0c.58-.04.833.079.832.75,0,.653-.282.7-.8.693-2.285-.019-4.572-.038-6.856.009-.719.015-.951-.14-.943-.908.043-3.828.022-7.658.019-11.487,0-1.4-.467-1.871-1.864-1.871q-13.8,0-27.6,0c-1.408,0-1.878.463-1.879,1.855,0,3.324.011,6.649-.01,9.973-.005.787.358,1.837-.173,2.289-.454.387-1.47.127-2.237.129-2.956.011-4.7,1.75-4.7,4.7q0,11.175,0,22.35,0,11.219,0,22.439a4.314,4.314,0,0,0,4.661,4.657q8.148,0,16.3,0c5.105,0,10.21.011,15.316-.014.62,0,.83.152.789.785a18.61,18.61,0,0,0,0,2.58c.054.722-.137.96-.906.944-2.463-.054-4.927-.027-7.39-.017-1.168,0-1.683.519-1.691,1.683q-.017,2.582,0,5.164c.007,1.171.518,1.7,1.679,1.7q13.98.009,27.96,0c1.2,0,1.7-.526,1.7-1.762.008-1.6,0-3.206,0-4.808,0-1.532-.435-1.975-1.938-1.976-2.434,0-4.868-.018-7.3.012-.574.007-.782-.141-.747-.736a16.653,16.653,0,0,0,0-2.491c-.075-.831.145-1.087,1.037-1.084,10.359.037,20.718-.034,31.076.06a4.7,4.7,0,0,0,4.989-5.031C746.224,59.716,746.3,51.82,746.3,43.925Zm-6.166-32.615c1.224.1,1.861.481,1.888,1.4.028.958-.64,1.387-1.892,1.49-1.354.112-.867-.82-.958-1.44C739.254,12.119,738.787,11.2,740.134,11.309Zm-32.307,1.5c0,.267-.021.536,0,.8.053.6-.34.572-.746.575-.389,0-.719-.009-.686-.546.027-.444,0-.89.005-1.336,0-.485-.151-1,.7-1,.816,0,.739.459.727.97C707.823,12.453,707.826,12.631,707.826,12.81Zm12.812-3.843A.914.914,0,0,1,721.4,7.9q7.138-2.163,14.254-4.4c.6-.187.69-.015.686.541q-.016,2.182-.013,4.364t0,4.364q0,1.08,0,2.159c0,2.16-.009,4.319.017,6.479.008.672-.149.8-.787.6q-7.032-2.206-14.083-4.352a.966.966,0,0,1-.834-1.108C720.675,14.013,720.668,11.489,720.638,8.966Zm-9.968.14c0-.449.132-.636.608-.631q2.938.028,5.876,0c.515-.006.665.187.654.677-.025,1.216-.008,2.434-.008,3.65,0,1.187-.017,2.375.008,3.561.01.49-.139.683-.654.678q-2.938-.034-5.876,0c-.476,0-.61-.182-.608-.631Q710.691,12.756,710.67,9.106ZM712.1,23.447c0-.709.011-1.419,0-2.128q0-.355-.013-.709c-.015-.5.1-.73.677-.744,1.962-.048,1.951-.073,1.671,1.891-.208,1.456-.382,2.916-.578,4.374a1.037,1.037,0,0,1-1.528.847c-.3-.135-.226-.386-.229-.6C712.1,25.4,712.1,24.422,712.1,23.447Zm-40.367-16.4c3.978.03,7.955.014,11.933.014,3.948,0,7.9.02,11.844-.017.755-.007.935.224.931.951q-.042,9.039,0,18.077c0,.723-.168.957-.927.955q-11.933-.041-23.866,0c-.721,0-.888-.22-.885-.906q.036-9.083,0-18.166C670.755,7.161,671.038,7.037,671.735,7.042Zm-8.081,16.289c0-1.625.41-2.024,2.066-2.026,2.208,0,2.208,0,2.208,2.186,0,1.543-.007,3.087,0,4.63.007,1.224.509,1.731,1.734,1.731q13.934.006,27.867,0c1.229,0,1.737-.506,1.743-1.724.01-2.048.023-4.1-.01-6.143-.009-.555.157-.7.7-.693,2.849.026,5.7.035,8.547,0,.672-.009.762.245.753.822-.031,1.988-.017,3.977-.01,5.965,0,1.28.5,1.771,1.778,1.778,1.246.007,2.493.013,3.739,0a1.442,1.442,0,0,0,1.61-1.415c.366-2.522.759-5.041,1.06-7.571.1-.848.432-1.1,1.232-.993a22.657,22.657,0,0,1,3.5.983c4.875,1.481,9.738,3,14.605,4.5,1.667.515,2.378-.033,2.409-1.8.013-.729-.338-1.7.163-2.119.422-.357,1.356-.123,2.063-.126,1.633-.007,2.039.406,2.039,2.051q0,19.854.021,39.708c0,.831-.233,1-1.025,1q-19.454-.037-38.907-.018-19.409,0-38.818.018c-.812,0-1.092-.127-1.09-1.032Q663.682,43.186,663.654,23.332Zm51.874,56.383c.649,0,.871.152.866.837-.017,2.026.014,2.027-1.977,2.027-7.569,0-15.138-.011-22.707.017-.764,0-1.027-.162-1-.974.057-1.891.012-1.892,1.936-1.892H703.6l2.983,0C709.562,79.733,712.545,79.735,715.527,79.715ZM700.7,73.224c-.01-.453.139-.634.611-.628,1.484.021,2.968.017,4.451,0,.428,0,.662.093.65.588q-.039,1.557,0,3.116c.012.5-.235.591-.656.581-.371-.009-.742-.011-1.113-.009s-.742,0-1.113,0c-.534,0-1.069-.011-1.6,0-.178,0-.356.005-.534.012-.469.017-.714-.1-.7-.634C700.726,75.243,700.718,74.233,700.7,73.224Zm41.807-3.6a2.064,2.064,0,0,1-.87.131q-38.1,0-76.192,0a1.857,1.857,0,0,1-1.768-2.578.379.379,0,0,1,.4-.263c.267,0,.534-.006.8-.006H703.6q19.271,0,38.541.023c.425,0,1.14-.44,1.3.424A1.9,1.9,0,0,1,742.5,69.622Z" transform="translate(0 0)" fill="#0d585f"/>
      <path id="Trazado_131934" data-name="Trazado 131934" d="M716.708,58.728c0,.686.164.908.885.906q11.933-.039,23.866,0c.759,0,.931-.232.927-.955q-.041-9.039,0-18.077c0-.728-.176-.959-.931-.951-3.948.037-7.9.017-11.844.017-3.978,0-7.955.015-11.933-.014-.7-.005-.979.119-.975.907Q716.754,49.645,716.708,58.728Zm8.567-13.184a2.45,2.45,0,0,1,.026-.353,1.939,1.939,0,0,1,.048-.221q.019-.07.043-.136a1.3,1.3,0,0,1,1.285-.889,1.473,1.473,0,0,1,.815.219l.109.055q4.019,2.007,8.039,4.012a1.484,1.484,0,0,1-.007,2.828c-2.684,1.329-5.356,2.68-8.04,4.009-1.337.662-2.314.059-2.319-1.423Q725.261,49.594,725.275,45.544Z" transform="translate(-45.944 -32.612)" fill="#aee6e6"/>
      <path id="Trazado_131935" data-name="Trazado 131935" d="M754.726,375.364q-19.271-.042-38.541-.023H677.466c-.267,0-.534,0-.8.006a.379.379,0,0,0-.4.263,1.857,1.857,0,0,0,1.768,2.578q38.1.006,76.192,0a2.063,2.063,0,0,0,.87-.131,1.9,1.9,0,0,0,.937-2.271C755.866,374.925,755.151,375.365,754.726,375.364Z" transform="translate(-12.59 -308.437)" fill="#aee6e6"/>
      <path id="Trazado_131936" data-name="Trazado 131936" d="M997.548,33.561q7.052,2.142,14.083,4.352c.638.2.8.076.787-.6-.025-2.159-.021-4.319-.017-6.479q0-1.08,0-2.159,0-2.182,0-4.364t.013-4.364c0-.556-.089-.728-.686-.541q-7.117,2.231-14.254,4.4a.914.914,0,0,0-.757,1.071c.03,2.523.037,5.047,0,7.569A.966.966,0,0,0,997.548,33.561Z" transform="translate(-276.079 -15.917)" fill="#aee6e6"/>
      <path id="Trazado_131937" data-name="Trazado 131937" d="M841.572,447.686H830.619c-1.924,0-1.879,0-1.936,1.893-.024.812.239.977,1,.974,7.569-.028,15.138-.017,22.707-.017,1.991,0,1.96,0,1.977-2.027.006-.685-.217-.841-.866-.837-2.983.02-5.966.018-8.949.015Z" transform="translate(-137.977 -367.958)" fill="#aee6e6"/>
      <path id="Trazado_131938" data-name="Trazado 131938" d="M941.382,56.265q2.938-.028,5.876,0c.515.006.665-.188.654-.678-.025-1.187-.008-2.374-.008-3.561,0-1.217-.017-2.434.008-3.651.01-.49-.139-.683-.654-.677q-2.938.034-5.876,0c-.476,0-.61.183-.608.631q.021,3.65,0,7.3C940.771,56.083,940.906,56.27,941.382,56.265Z" transform="translate(-230.103 -39.227)" fill="#aee6e6"/>
      <path id="Trazado_131939" data-name="Trazado 131939" d="M885.451,412c.178-.007.356-.01.534-.012.534-.006,1.069.005,1.6.005.371,0,.742,0,1.113,0s.742,0,1.112.009c.422.01.669-.08.657-.581q-.039-1.557,0-3.116c.012-.5-.222-.592-.65-.588-1.483.015-2.968.019-4.451,0-.472-.007-.621.175-.611.628.022,1.009.03,2.019,0,3.027C884.737,411.9,884.982,412.014,885.451,412Z" transform="translate(-184.061 -335.113)" fill="#aee6e6"/>
      <path id="Trazado_131940" data-name="Trazado 131940" d="M891.666,431.71c.534-.006,1.068.005,1.6,0,.371,0,.742,0,1.113,0-.371,0-.742,0-1.113,0C892.734,431.715,892.2,431.7,891.666,431.71Z" transform="translate(-189.743 -354.837)" fill="#0d585f"/>
      <path id="Trazado_131941" data-name="Trazado 131941" d="M949,118.718a1.037,1.037,0,0,0,1.528-.847c.2-1.458.37-2.918.578-4.374.28-1.964.291-1.938-1.671-1.891-.576.014-.692.24-.677.744.007.236.011.473.013.709.006.709-.005,1.419,0,2.128,0,.975-.006,1.951,0,2.926C948.773,118.332,948.7,118.582,949,118.718Z" transform="translate(-236.665 -91.74)" fill="#aee6e6"/>
      <path id="Trazado_131942" data-name="Trazado 131942" d="M948.8,121.952c0-.709.011-1.419,0-2.128.006.709-.005,1.419,0,2.128,0,.975-.006,1.951,0,2.926C948.8,123.9,948.8,122.927,948.8,121.952Z" transform="translate(-236.701 -98.505)" fill="#0d585f"/>
      <path id="Trazado_131943" data-name="Trazado 131943" d="M1100.722,65.035c.091.621-.4,1.552.958,1.44,1.252-.1,1.92-.532,1.892-1.49-.027-.923-.664-1.3-1.888-1.4C1100.337,63.468,1100.8,64.391,1100.722,65.035Z" transform="translate(-361.55 -52.272)" fill="#aee6e6"/>
      <path id="Trazado_131944" data-name="Trazado 131944" d="M918.2,65.105c0-.178,0-.356,0-.534.012-.512.088-.973-.727-.97-.848,0-.693.513-.7,1,0,.445.022.892-.005,1.336-.033.537.3.549.686.546.407,0,.8.024.746-.575C918.177,65.641,918.2,65.373,918.2,65.105Z" transform="translate(-210.371 -52.296)" fill="#aee6e6"/>
      <path id="Trazado_131945" data-name="Trazado 131945" d="M694.779,225.4h17.979q9.034,0,18.068,0c1.4,0,1.875-.468,1.876-1.859q0-10.947,0-21.895c0-1.443-.461-1.893-1.93-1.893q-18.023,0-36.047,0c-1.465,0-1.919.449-1.919,1.9q0,10.9,0,21.806C692.805,224.961,693.248,225.4,694.779,225.4Zm31.393-22.762c-1.348.835-2.515,1.56-3.685,2.281-3,1.85-6.017,3.685-9.006,5.559a1.156,1.156,0,0,1-1.432,0c-3.975-2.479-7.974-4.919-11.961-7.378-.187-.115-.434-.175-.544-.462Zm-30.516,2.1c0-.96.016-.978.86-.461,5.052,3.094,10.109,6.181,15.138,9.312a1.884,1.884,0,0,0,2.22.02q7.291-4.512,14.595-9c.412-.253.872-.812,1.277-.586.318.177.1.88.1,1.348q.012,8.01,0,16.02c0,1.165,0,1.166-1.127,1.166h-16.02c-5.37,0-10.74-.013-16.109.015-.714,0-.965-.153-.961-.921C695.669,216,695.654,210.367,695.655,204.731Z" transform="translate(-26.301 -164.192)" fill="#0d585f"/>
      <path id="Trazado_131946" data-name="Trazado 131946" d="M934.318,203.689c.3.014.593,0,.89,0,1.863,0,1.863,0,1.863,1.818,0,.653,0,1.306,0,1.959,0,1.465.452,1.921,1.9,1.922q5.786,0,11.573,0h5.92q2.96,0,5.92,0c1.2,0,1.752-.5,1.754-1.621q.015-8.368,0-16.736a1.437,1.437,0,0,0-1.607-1.59.77.77,0,0,0-.178,0c-.951.2-1.137-.263-1.077-1.11.071-1,.032-2.017.012-3.025a1.41,1.41,0,0,0-1.543-1.559q-12.685-.015-25.371,0a1.4,1.4,0,0,0-1.572,1.527q-.019,8.457,0,16.914A1.4,1.4,0,0,0,934.318,203.689Zm26.2-11.409c.638,0,.8.206.792.815-.023,4.215-.029,8.43,0,12.645.006.715-.266.819-.886.815-2.449-.019-4.9-.017-7.346-.014l-2.449,0q-2.449,0-4.9,0t-4.9.015c-.646,0-.94-.1-.933-.858.039-4.185.032-8.371,0-12.556,0-.651.156-.864.838-.862Q950.63,192.315,960.514,192.28Zm-23.974-5.7c3.5.03,7,.014,10.5.014s7,.014,10.5-.013c.663-.005.935.124.922.87-.035,1.992,0,1.992-2.011,1.992q-8.766,0-17.532,0c-1.406,0-1.849.448-1.85,1.866,0,2.907-.007,5.814.005,8.721,0,.5-.015.83-.685.834s-.757-.3-.755-.858c.017-4.183.028-8.366-.008-12.548C935.623,186.729,935.862,186.573,936.54,186.579Z" transform="translate(-223.545 -151.037)" fill="#0d585f"/>
      <path id="Trazado_131947" data-name="Trazado 131947" d="M767.109,74.867c2.684-1.328,5.357-2.68,8.04-4.009a1.485,1.485,0,0,0,.007-2.828q-4.025-1.995-8.039-4.012l-.109-.055a1.463,1.463,0,0,0-.816-.218,1.3,1.3,0,0,0-1.285.887c-.016.044-.03.089-.043.136a1.926,1.926,0,0,0-.048.221,2.441,2.441,0,0,0-.026.353q-.015,4.05,0,8.1C764.8,74.926,765.772,75.529,767.109,74.867Zm.591-7.35,3.869,1.92L767.7,71.381Z" transform="translate(-85.46 -52.412)" fill="#0d585f"/>
      <path id="Trazado_131948" data-name="Trazado 131948" d="M709.668,241.871c5.369-.028,10.739-.015,16.109-.015H741.8c1.126,0,1.127,0,1.127-1.166q0-8.01,0-16.02c0-.468.215-1.171-.1-1.348-.405-.225-.865.333-1.277.586q-7.3,4.49-14.595,9a1.884,1.884,0,0,1-2.22-.02c-5.029-3.131-10.086-6.218-15.138-9.312-.845-.517-.86-.5-.86.461,0,5.637.014,11.273-.018,16.91C708.7,241.718,708.954,241.874,709.668,241.871Z" transform="translate(-39.372 -183.502)" fill="#aee6e6"/>
      <path id="Trazado_131949" data-name="Trazado 131949" d="M973.545,231.666c-.682,0-.842.211-.838.862.027,4.185.034,8.371,0,12.556-.007.762.287.863.933.858q2.449-.019,4.9-.015t4.9,0l2.449,0c2.449,0,4.9-.006,7.346.014.62,0,.891-.1.886-.815-.034-4.215-.027-8.43,0-12.645,0-.608-.155-.817-.792-.815Q983.43,231.7,973.545,231.666Zm3.766,2.869c1.31-.007,1.088-.133,1.11,1.446,0,1.4,0,1.4-1.607,1.4-1.244,0-1.257,0-1.239-1.674C975.589,234.293,975.346,234.546,977.311,234.535Zm3.939,7.731c.114.374.116.852-.562.821-.193-.009-.385-.014-.578-.016-.579-.007-1.158.008-1.737.009h-.712c-2.242,0-2.233,0-2.1-2.252.023-.389.1-.607.546-.6a35.638,35.638,0,0,1,4.622.059C981.886,240.448,981.044,241.594,981.25,242.266Zm9.972-.1c.088.367.217.939-.551.919q-.378-.01-.756-.012c-.757-.006-1.514.006-2.271.006h-2.582a1.3,1.3,0,0,1-.443-.009c-1.079-.418-.289-1.319-.475-1.974-.094-.332-.206-.875.505-.87,2.018.013,4.048-.126,6.05.056C991.822,240.385,991.066,241.52,991.221,242.167Zm-.772-7.65c.617-.008.811.17.811.8,0,2.064.026,2.064-2.026,2.064h-3.027c-1.068,0-2.137-.009-3.205,0q-.534,0-1.068.012c-.5.009-.656-.157-.674-.66-.081-2.2-.1-2.2,2.068-2.2C985.7,234.53,988.075,234.549,990.449,234.518Z" transform="translate(-256.345 -190.426)" fill="#aee6e6"/>
      <path id="Trazado_131950" data-name="Trazado 131950" d="M948.718,213.1c0,.562.071.863.755.858s.687-.337.685-.834c-.012-2.907-.008-5.814-.005-8.721,0-1.418.443-1.865,1.85-1.866q8.766,0,17.532,0c2.014,0,1.976,0,2.011-1.992.013-.746-.259-.875-.922-.87-3.5.027-7,.013-10.5.013s-7,.016-10.5-.014c-.678-.006-.917.15-.911.88C948.746,204.734,948.736,208.916,948.718,213.1Z" transform="translate(-236.626 -164.13)" fill="#aee6e6"/>
      <path id="Trazado_131951" data-name="Trazado 131951" d="M1020.621,249.886c.019.5.177.669.674.66q.534-.009,1.068-.012c1.068-.006,2.137,0,3.205,0h3.027c2.052,0,2.027,0,2.026-2.064,0-.629-.194-.807-.811-.8-2.374.031-4.749.013-7.123.013C1020.524,247.688,1020.54,247.688,1020.621,249.886Z" transform="translate(-295.708 -203.584)" fill="#0d585f"/>
      <path id="Trazado_131952" data-name="Trazado 131952" d="M1043,279.608c-2-.182-4.032-.043-6.05-.056-.711,0-.6.539-.505.87.185.656-.6,1.557.475,1.974a1.3,1.3,0,0,0,.443.009h2.582c.757,0,1.514-.011,2.271-.006q.378,0,.756.012c.767.02.639-.552.551-.919C1043.371,280.845,1044.126,279.71,1043,279.608Z" transform="translate(-308.65 -229.751)" fill="#0d585f"/>
      <path id="Trazado_131953" data-name="Trazado 131953" d="M1044.674,295.709h0c.757,0,1.514-.012,2.271-.006C1046.188,295.7,1045.431,295.709,1044.674,295.709Z" transform="translate(-313.375 -243.056)" fill="#0d585f"/>
      <path id="Trazado_131954" data-name="Trazado 131954" d="M993.7,279.549a35.643,35.643,0,0,0-4.622-.059c-.449,0-.523.214-.546.6-.136,2.253-.145,2.252,2.1,2.252h.712c.579,0,1.158-.015,1.737-.008.193,0,.385.007.578.016.678.031.676-.448.562-.821C994.018,280.859,994.859,279.713,993.7,279.549Z" transform="translate(-269.318 -229.69)" fill="#0d585f"/>
      <path id="Trazado_131955" data-name="Trazado 131955" d="M1001.252,295.7h0c.579,0,1.158-.016,1.736-.009C1002.41,295.683,1001.831,295.7,1001.252,295.7Z" transform="translate(-279.224 -243.045)" fill="#0d585f"/>
      <path id="Trazado_131956" data-name="Trazado 131956" d="M990.053,250.569c1.607,0,1.607,0,1.607-1.4-.022-1.58.2-1.454-1.11-1.446-1.965.011-1.722-.242-1.737,1.172C988.8,250.569,988.809,250.569,990.053,250.569Z" transform="translate(-269.584 -203.614)" fill="#0d585f"/>
    </g>
    <rect id="Rectángulo_31328" data-name="Rectángulo 31328" width="96" height="96" transform="translate(390 11717)" fill="none"/>
  </g>
</svg>
