<svg xmlns="http://www.w3.org/2000/svg" width="96" height="96" viewBox="0 0 96 96">
  <g id="Grupo_60675" data-name="Grupo 60675" transform="translate(-390 -11865)">
    <path id="Trazado_132009" data-name="Trazado 132009" d="M0,0H96V96H0Z" transform="translate(390 11865)" fill="none"/>
    <g id="Grupo_60674" data-name="Grupo 60674" transform="translate(-2470.807 11069.035)">
      <path id="Trazado_131999" data-name="Trazado 131999" d="M2922.589,999.123c.233-.2.468-.4.7-.6-.135-.3-.386-.174-.573-.174-5.609-.008-11.219.009-16.828-.025-.741,0-.85.244-.848.9.022,7.915.011,15.831.016,23.746,0,2.466,1.27,3.728,3.747,3.742,1.807.01,3.616-.027,5.422.016a1.431,1.431,0,0,1,1.52,1.39h2.827c0-.844.589-1.385,1.607-1.4,1.651-.022,3.3-.006,4.955-.006,1.593,0,1.593,0,1.593-1.605v-25.4c-.366-.113-.509.15-.687.284a24.173,24.173,0,0,0-9.106,12.209c-.327,1.051-1.037,1.493-1.857,1.221-.863-.285-1.164-1-.836-2.062A26.157,26.157,0,0,1,2922.589,999.123Z" transform="translate(-35.964 -158.016)" fill="#aee6e6"/>
      <path id="Trazado_132000" data-name="Trazado 132000" d="M2860.957,851.693a6.557,6.557,0,0,0,4.738,4.59c.549.169.592.508.589.982-.015,2.68-.038,5.36,0,8.04a6.039,6.039,0,0,0,6.027,6.2c1.961.063,3.926.013,5.889.016a1.441,1.441,0,0,0,1.406-.741,1.393,1.393,0,0,0-1.344-2.056c-1.806-.043-3.615-.006-5.422-.016-2.477-.013-3.745-1.276-3.747-3.742,0-7.915.006-15.831-.016-23.746,0-.66.107-.909.848-.9,5.609.034,11.219.017,16.828.025.187,0,.438-.125.573.174-.235.2-.47.4-.7.6a26.157,26.157,0,0,0-8.345,12.249c-.328,1.065-.027,1.777.836,2.062.82.271,1.53-.171,1.857-1.221a24.173,24.173,0,0,1,9.106-12.209c.178-.133.321-.4.687-.284v25.4c0,1.605,0,1.605-1.593,1.605-1.651,0-3.3-.016-4.955.006-1.027.014-1.617.563-1.608,1.42s.6,1.351,1.641,1.384c.218.007.436,0,.654,0q8.694,0,17.389-.009a4.877,4.877,0,0,1,1.9.377q6.382,2.6,12.777,5.177c1,.4,1.787.121,2.1-.7.293-.771-.086-1.5-1.035-1.893-1.29-.538-2.594-1.042-3.888-1.568-.954-.388-1.9-.787-2.856-1.182l.049-.153H2940.1c-.924,2.288-1.81,4.5-2.71,6.706-.934,2.288-2.591,2.993-4.863,2.077-2.908-1.173-5.812-2.358-8.723-3.526-1.038-.417-1.775-.176-2.121.652-.333.794.059,1.541,1.062,1.949,2.992,1.216,5.981,2.44,8.986,3.622a6.044,6.044,0,0,0,8.179-3.511c.946-2.3,1.918-4.586,2.778-6.915a1.468,1.468,0,0,1,1.678-1.124c4.232.051,6.707-2.469,6.709-6.728,0-3.958.008-7.916-.007-11.873a4.571,4.571,0,0,1,.365-1.8c1.512-3.676,2.993-7.364,4.489-11.046a6.5,6.5,0,0,0,.54-3.732,6.077,6.077,0,0,0-3.827-4.707c-1.561-.658-1.56-.661-1.56-2.362q0-3.366,0-6.731a7.506,7.506,0,0,0-.242-2.033A6.077,6.077,0,0,0,2944.6,816q-14.818-.012-29.636,0a4.217,4.217,0,0,1-1.63-.313q-8.283-3.368-16.575-6.715c-1.1-.444-1.875-.217-2.215.62s.09,1.555,1.158,1.987q4.835,1.957,9.669,3.916c.238.1.543.1.693.454h-28.689a1.079,1.079,0,0,1,.169-.734q1.239-3.066,2.492-6.127a3.276,3.276,0,0,1,4.685-1.964c1.7.679,3.394,1.381,5.1,2.058,1.03.409,1.774.163,2.117-.666.327-.791-.062-1.526-1.076-1.942-1.752-.72-3.5-1.44-5.272-2.117a6.043,6.043,0,0,0-8.156,3.56c-.934,2.268-1.9,4.526-2.747,6.826a1.523,1.523,0,0,1-1.734,1.178c-4.177-.057-6.668,2.476-6.671,6.667q0,6.03.007,12.06a3.938,3.938,0,0,1-.3,1.538c-1.527,3.737-3.038,7.48-4.574,11.213-.181.441-.177.976-.6,1.3v2.8C2860.858,851.637,2860.946,851.654,2860.957,851.693Zm90.2-17.6c2.288.794,3.093,2.509,2.227,4.7-.691,1.747-1.406,3.485-2.227,5.21Zm-69.968.864a7.29,7.29,0,0,1-2.46-1.956,2.191,2.191,0,0,1-.081-2.9,2.69,2.69,0,0,1,3.082-1.355,5.976,5.976,0,0,1,2.158,1.249,29.118,29.118,0,0,1,5.841,7.4A23.441,23.441,0,0,1,2881.185,834.953Zm67.079,29.839c0,2.7-1.221,3.912-3.954,3.912q-24.868,0-49.735.006c-.6,0-1.021.054-1.017-.836.04-8.6.024-17.2.024-25.8v-.638c4.54,3.335,8.019,7.209,9.72,12.466.048.148.1.295.152.44.332.91,1,1.323,1.773,1.091a1.417,1.417,0,0,0,.9-1.938,23.2,23.2,0,0,0-3-6.386,28.612,28.612,0,0,0-5.339-5.971c-.248-.211-.492-.426-.771-.667a1.539,1.539,0,0,1,.974-.134q24.634-.008,49.268-.024c.811,0,1.029.181,1.025,1.016C2948.249,849.149,2948.265,856.971,2948.264,864.792Zm-53.615-27.4a29.053,29.053,0,0,1,5.907-7.455,8.173,8.173,0,0,1,1.07-.745,2.9,2.9,0,0,1,4.5,1.636,2.144,2.144,0,0,1-.466,2.167,7.4,7.4,0,0,1-2.467,1.957A23.473,23.473,0,0,1,2894.648,837.392Zm-1.081-17.642c0-.679.094-.965.893-.964q25.044.04,50.088.023c2.426,0,3.708,1.276,3.713,3.677.01,4.735-.008,9.469.016,14.2,0,.642-.161.845-.828.844q-21.026-.028-42.052-.016c-.207,0-.414-.028-.9-.062a12.807,12.807,0,0,0,2.961-2.246,5.015,5.015,0,0,0,.583-6.714c-1.711-2.472-4.24-3.306-6.828-2.235a11.74,11.74,0,0,0-3.644,2.559,29.931,29.931,0,0,0-3.4,4.084c-.135.189-.195.459-.484.534-.213-.245-.1-.534-.1-.793C2893.578,828.347,2893.593,824.048,2893.567,819.749Zm-24.469,2.6a3.263,3.263,0,0,1,3.57-3.535c5.8-.017,11.592,0,17.387-.019.577,0,.728.149.724.725-.025,4.518-.013,9.037-.015,13.555,0,.113-.016.227-.042.573a29.269,29.269,0,0,0-4.6-5.446,9.206,9.206,0,0,0-4.021-2.26,5.484,5.484,0,0,0-5.867,2.707,4.913,4.913,0,0,0,.14,5.917,16.434,16.434,0,0,0,3.249,2.957h-3.6c-2.057,0-4.114-.023-6.17.014-.622.011-.784-.179-.78-.791C2869.1,831.944,2869.081,827.146,2869.1,822.347Zm-5.12,26.38c.692-1.747,1.4-3.487,2.225-5.214v9.9C2863.922,852.639,2863.112,850.914,2863.978,848.727Z" transform="translate(0 0)" fill="#0d585f"/>
      <path id="Trazado_132001" data-name="Trazado 132001" d="M3089.65,998.33q-24.634.038-49.268.024a1.539,1.539,0,0,0-.974.134c.279.242.523.456.771.667a28.611,28.611,0,0,1,5.339,5.971,23.205,23.205,0,0,1,3,6.386,1.417,1.417,0,0,1-.9,1.938c-.769.232-1.442-.181-1.773-1.091-.053-.146-.1-.293-.152-.44-1.7-5.257-5.181-9.131-9.72-12.466v.638c0,8.6.016,17.2-.024,25.8,0,.89.418.836,1.017.836q24.868-.01,49.735-.006c2.733,0,3.953-1.21,3.954-3.912,0-7.822-.014-15.643.022-23.465C3090.678,998.511,3090.46,998.329,3089.65,998.33Zm-11.368,21.3a.522.522,0,0,0-.454.658,3.487,3.487,0,0,1,0,.56c-.025,1-.575,1.636-1.41,1.625a1.423,1.423,0,0,1-1.378-1.656,1.211,1.211,0,0,0-.982-1.456,4.34,4.34,0,0,1-2.575-2.556,1.458,1.458,0,0,1,.706-2.038,1.329,1.329,0,0,1,1.85.906c.494,1.358,2.772,1.756,3.882,1.056a1.77,1.77,0,0,0,.81-1.391,1.625,1.625,0,0,0-1-1.737,5.942,5.942,0,0,0-1.719-.409,4.425,4.425,0,0,1-4.1-3.716,4.547,4.547,0,0,1,2.666-4.768c.321-.16.483-.319.444-.689a4.353,4.353,0,0,1,.006-.933,1.4,1.4,0,0,1,1.427-1.317,1.281,1.281,0,0,1,1.341,1.364,1.627,1.627,0,0,0,1.182,1.938,3.188,3.188,0,0,1,1.608,1.634,1.466,1.466,0,0,1-.5,1.961,1.351,1.351,0,0,1-1.916-.564,1.985,1.985,0,0,0-2-.92,1.518,1.518,0,0,0-1.456,1.443,1.324,1.324,0,0,0,.99,1.58,9.327,9.327,0,0,0,1.45.327c2.508.429,4.11,1.855,4.364,3.947A4.659,4.659,0,0,1,3078.281,1019.628Z" transform="translate(-142.388 -158.019)" fill="#aee6e6"/>
      <path id="Trazado_132002" data-name="Trazado 132002" d="M3036.069,897.873c.289-.075.349-.344.484-.534a29.949,29.949,0,0,1,3.4-4.084,11.74,11.74,0,0,1,3.644-2.559c2.588-1.071,5.116-.237,6.828,2.235a5.015,5.015,0,0,1-.583,6.714,12.813,12.813,0,0,1-2.961,2.246c.484.035.691.062.9.062q21.026,0,42.052.016c.667,0,.831-.2.828-.844-.024-4.734-.006-9.469-.016-14.2-.005-2.4-1.287-3.676-3.713-3.677q-25.044-.009-50.088-.023c-.8,0-.9.284-.892.964.026,4.3.01,8.6.019,12.9C3035.971,897.338,3035.857,897.628,3036.069,897.873Z" transform="translate(-142.383 -64.434)" fill="#aee6e6"/>
      <path id="Trazado_132003" data-name="Trazado 132003" d="M2905.823,902c2.056-.037,4.113-.014,6.17-.014h3.6a16.434,16.434,0,0,1-3.249-2.957,4.913,4.913,0,0,1-.14-5.917,5.484,5.484,0,0,1,5.867-2.707,9.206,9.206,0,0,1,4.021,2.26,29.269,29.269,0,0,1,4.6,5.446c.026-.346.042-.46.042-.573,0-4.518-.01-9.037.015-13.555,0-.576-.148-.727-.724-.725-5.8.022-11.592,0-17.387.019a3.263,3.263,0,0,0-3.57,3.535c-.017,4.8.005,9.6-.019,14.4C2905.04,901.817,2905.2,902.008,2905.823,902Z" transform="translate(-35.964 -64.463)" fill="#aee6e6"/>
      <path id="Trazado_132004" data-name="Trazado 132004" d="M2959.208,937.213a5.976,5.976,0,0,0-2.158-1.249,2.69,2.69,0,0,0-3.082,1.355,2.191,2.191,0,0,0,.081,2.9,7.29,7.29,0,0,0,2.46,1.956,23.441,23.441,0,0,0,8.54,2.438A29.118,29.118,0,0,0,2959.208,937.213Z" transform="translate(-75.325 -107.226)" fill="#fff"/>
      <path id="Trazado_132005" data-name="Trazado 132005" d="M3052.79,940.357a2.144,2.144,0,0,0,.466-2.167,2.9,2.9,0,0,0-4.5-1.636,8.173,8.173,0,0,0-1.07.745,29.053,29.053,0,0,0-5.907,7.455,23.473,23.473,0,0,0,8.544-2.439A7.4,7.4,0,0,0,3052.79,940.357Z" transform="translate(-147.131 -107.362)" fill="#fff"/>
      <path id="Trazado_132006" data-name="Trazado 132006" d="M3343.94,965.059v9.909c.821-1.725,1.535-3.463,2.227-5.21C3347.033,967.568,3346.228,965.853,3343.94,965.059Z" transform="translate(-392.787 -130.969)" fill="#fff"/>
      <path id="Trazado_132007" data-name="Trazado 132007" d="M2878.515,1025.357v-9.9c-.82,1.727-1.532,3.466-2.225,5.214C2875.424,1022.855,2876.235,1024.58,2878.515,1025.357Z" transform="translate(-12.312 -171.94)" fill="#fff"/>
      <path id="Trazado_132008" data-name="Trazado 132008" d="M3230.976,1025.476a9.32,9.32,0,0,1-1.45-.327,1.324,1.324,0,0,1-.99-1.58,1.519,1.519,0,0,1,1.456-1.443,1.986,1.986,0,0,1,2,.92,1.351,1.351,0,0,0,1.916.564,1.466,1.466,0,0,0,.5-1.961,3.188,3.188,0,0,0-1.608-1.634,1.627,1.627,0,0,1-1.182-1.938,1.281,1.281,0,0,0-1.341-1.364,1.4,1.4,0,0,0-1.427,1.317,4.353,4.353,0,0,0-.006.933c.039.37-.123.528-.444.689a4.547,4.547,0,0,0-2.666,4.768,4.424,4.424,0,0,0,4.1,3.715,5.944,5.944,0,0,1,1.719.409,1.625,1.625,0,0,1,1,1.737,1.77,1.77,0,0,1-.81,1.391c-1.109.7-3.388.3-3.882-1.056a1.329,1.329,0,0,0-1.85-.906,1.458,1.458,0,0,0-.706,2.038,4.34,4.34,0,0,0,2.575,2.556,1.211,1.211,0,0,1,.982,1.456,1.423,1.423,0,0,0,1.378,1.656c.835.011,1.385-.621,1.41-1.625a3.487,3.487,0,0,0,0-.56.522.522,0,0,1,.454-.658,4.659,4.659,0,0,0,3.241-5.15C3235.086,1027.332,3233.484,1025.9,3230.976,1025.476Z" transform="translate(-296.205 -172.963)" fill="#0d585f"/>
    </g>
  </g>
</svg>
