<svg xmlns="http://www.w3.org/2000/svg" xmlns:xlink="http://www.w3.org/1999/xlink" width="91.737" height="90.396" viewBox="0 0 91.737 90.396">
  <defs>
    <clipPath id="clip-path">
      <rect id="Rectángulo_401797" data-name="Rectángulo 401797" width="82" height="82" transform="translate(214 9746)" fill="#fff" stroke="#707070" stroke-width="1"/>
    </clipPath>
  </defs>
  <g id="Grupo_1101626" data-name="Grupo 1101626" transform="translate(-630.5 -9746)">
    <g id="Grupo_1100501" data-name="Grupo 1100501" transform="translate(421.5)">
      <path id="_12068" data-name="12068" d="M78.931,72.011c-9.394-1.3-19.317-.98-27.865,3.126-11.854,5.694-19.64,18.6-19.938,31.75s6.551,26.066,17.132,33.876S72.8,151.341,85.735,149c13.048-2.365,25.295-10.031,32.1-21.411,4.364-7.3,6.4-16.309,3.993-24.463A33.421,33.421,0,0,0,113.9,90.084,58.6,58.6,0,0,0,78.931,72.011Z" transform="translate(177.881 9686.594)" fill="#ffd947"/>
      <g id="Enmascarar_grupo_1098755" data-name="Enmascarar grupo 1098755" clip-path="url(#clip-path)">
        <g id="palabra-clave" transform="translate(214 9746)">
          <g id="Grupo_1100516" data-name="Grupo 1100516">
            <path id="Trazado_875831" data-name="Trazado 875831" d="M20.82,44.2a19.216,19.216,0,0,0,5.716-.864,27.269,27.269,0,0,1,13.5-18.185c0-.057,0-.113,0-.17A19.219,19.219,0,1,0,4.425,35.016q-.831,3.1-1.661,6.193a1.5,1.5,0,0,0,1.849,1.824l6.173-1.656A19.13,19.13,0,0,0,20.82,44.2Z" fill="#ff5d7d" fill-rule="evenodd"/>
            <path id="Trazado_875832" data-name="Trazado 875832" d="M40.037,25.154A27.23,27.23,0,1,0,67.386,72.233l8.745,2.345a2.121,2.121,0,0,0,2.62-2.585Q77.575,67.6,76.4,63.22A27.233,27.233,0,0,0,40.037,25.154Z" fill="#ccf5fc" fill-rule="evenodd"/>
            <path id="Trazado_875833" data-name="Trazado 875833" d="M37.157,49.008a6.406,6.406,0,0,0,11.407,4h3.662l1.6-1.6,3.2,1.6h3.109l1.6-1.6,3.2,1.6h2.642l1.6-4-1.6-4H48.563a6.406,6.406,0,0,0-11.407,4Z" fill="#ffcd69" fill-rule="evenodd"/>
          </g>
          <g id="Grupo_1100517" data-name="Grupo 1100517">
            <path id="Trazado_875834" data-name="Trazado 875834" d="M78.12,63.459a28.85,28.85,0,0,0-36.614-40.83A20.82,20.82,0,1,0,2.7,35.251Q1.961,38.022,1.217,40.8a3.059,3.059,0,0,0,.817,3,3.1,3.1,0,0,0,3,.782l4.622-1.239.894-.24a20.847,20.847,0,0,0,14.008,2.367A28.84,28.84,0,0,0,53.172,77.836a28.776,28.776,0,0,0,14.453-3.881l8.082,2.167a3.729,3.729,0,0,0,3.61-.939,3.674,3.674,0,0,0,.981-3.6q-1.089-4.063-2.178-8.121ZM77.068,72.9a.511.511,0,0,1-.5.135l-.02-.006L67.8,70.686a1.6,1.6,0,0,0-1.252.182A25.64,25.64,0,0,1,28.1,43.68c0-.014.007-.028.009-.043a25.445,25.445,0,0,1,1.16-3.886,1.6,1.6,0,1,0-2.986-1.158,28.666,28.666,0,0,0-1.094,3.459,17.643,17.643,0,0,1-13.567-2.039,1.6,1.6,0,0,0-1.252-.182l-1.543.414-4.469,1.2q.806-3.008,1.612-6.012a1.6,1.6,0,0,0-.181-1.252A17.618,17.618,0,1,1,38.42,24.232a29.3,29.3,0,0,0-3.158,2.186,1.6,1.6,0,0,0,1.992,2.509,25.353,25.353,0,0,1,15.918-5.544,25.629,25.629,0,0,1,21.861,39,1.6,1.6,0,0,0-.182,1.252q1.177,4.385,2.352,8.771a.488.488,0,0,1-.135.5Z"/>
            <path id="Trazado_875835" data-name="Trazado 875835" d="M69.073,44.409A1.6,1.6,0,0,0,67.586,43.4h-18.3a8.008,8.008,0,1,0,0,11.211h2.944a1.6,1.6,0,0,0,1.132-.469l.785-.785,2.171,1.085a1.6,1.6,0,0,0,.716.169h3.109a1.6,1.6,0,0,0,1.132-.469l.785-.785,2.171,1.085a1.6,1.6,0,0,0,.716.169h2.642a1.6,1.6,0,0,0,1.487-1.007l1.6-4a1.6,1.6,0,0,0,0-1.19Zm-2.571,7h-1.18l-2.865-1.432a1.6,1.6,0,0,0-1.849.3L59.475,51.41H57.408l-2.865-1.432a1.6,1.6,0,0,0-1.849.3L51.562,51.41h-3a1.6,1.6,0,0,0-1.25.6,4.8,4.8,0,1,1,0-6,1.6,1.6,0,0,0,1.25.6H66.5l.961,2.4Z"/>
            <path id="Trazado_875836" data-name="Trazado 875836" d="M43.564,47.406h0a1.6,1.6,0,1,0,1.6,1.6A1.6,1.6,0,0,0,43.563,47.406Z"/>
            <path id="Trazado_875837" data-name="Trazado 875837" d="M27.227,23.383H14.414a1.6,1.6,0,1,0,0,3.2H27.227a1.6,1.6,0,1,0,0-3.2Z"/>
            <path id="Trazado_875838" data-name="Trazado 875838" d="M27.227,16.976H14.414a1.6,1.6,0,1,0,0,3.2H27.227a1.6,1.6,0,1,0,0-3.2Z"/>
            <path id="Trazado_875839" data-name="Trazado 875839" d="M20.82,29.789H14.414a1.6,1.6,0,1,0,0,3.2H20.82a1.6,1.6,0,0,0,0-3.2Z"/>
            <path id="Trazado_875840" data-name="Trazado 875840" d="M31.252,31.255h0a1.6,1.6,0,1,0,1.6,1.6A1.6,1.6,0,0,0,31.251,31.255Z"/>
          </g>
        </g>
      </g>
    </g>
  </g>
</svg>
