<svg xmlns="http://www.w3.org/2000/svg" xmlns:xlink="http://www.w3.org/1999/xlink" width="91.737" height="90.396" viewBox="0 0 91.737 90.396">
  <defs>
    <clipPath id="clip-path">
      <rect id="Rectángulo_401797" data-name="Rectángulo 401797" width="82" height="82" transform="translate(214 9746)" fill="#fff" stroke="#707070" stroke-width="1"/>
    </clipPath>
  </defs>
  <g id="Grupo_1101627" data-name="Grupo 1101627" transform="translate(-1050.5 -9746)">
    <g id="Grupo_1100502" data-name="Grupo 1100502" transform="translate(841.5)">
      <path id="_12068" data-name="12068" d="M78.931,72.011c-9.394-1.3-19.317-.98-27.865,3.126-11.854,5.694-19.64,18.6-19.938,31.75s6.551,26.066,17.132,33.876S72.8,151.341,85.735,149c13.048-2.365,25.295-10.031,32.1-21.411,4.364-7.3,6.4-16.309,3.993-24.463A33.421,33.421,0,0,0,113.9,90.084,58.6,58.6,0,0,0,78.931,72.011Z" transform="translate(177.881 9686.594)" fill="#ffd947"/>
      <g id="Enmascarar_grupo_1098756" data-name="Enmascarar grupo 1098756" clip-path="url(#clip-path)">
        <g id="empieza-aqui" transform="translate(214.001 9746)">
          <g id="Grupo_1100521" data-name="Grupo 1100521">
            <path id="Trazado_875841" data-name="Trazado 875841" d="M55.556,36.851H13.044A6.541,6.541,0,0,1,6.5,30.31V7.742A6.541,6.541,0,0,1,13.044,1.2H55.557A6.541,6.541,0,0,1,62.1,7.742V30.31A6.541,6.541,0,0,1,55.556,36.851Z" fill="#d9b1ee"/>
            <path id="Trazado_875842" data-name="Trazado 875842" d="M55.246,36.541l-.656.31H13.044A6.541,6.541,0,0,1,6.5,30.31V7.742A6.541,6.541,0,0,1,13.044,1.2H51.786l3.294.379a6.541,6.541,0,0,1,6.541,6.541l.09,21.909A6.453,6.453,0,0,1,55.246,36.541Z" fill="#947df6"/>
            <path id="Trazado_875843" data-name="Trazado 875843" d="M62.1,7.742V30.31a6.541,6.541,0,0,1-6.541,6.541H50.875a6.54,6.54,0,0,0,6.541-6.541V7.742A6.541,6.541,0,0,0,50.875,1.2h4.681A6.542,6.542,0,0,1,62.1,7.742Z" fill="#8769ef"/>
            <g id="Grupo_1100520" data-name="Grupo 1100520">
              <g id="Grupo_1100519" data-name="Grupo 1100519">
                <path id="Trazado_875844" data-name="Trazado 875844" d="M75.405,50.025l-.339,10.192a13.658,13.658,0,0,1-1.856,6.875,16.061,16.061,0,0,0-1.944,8.287v.038L71.239,79a.657.657,0,0,1-.657.659l-2.735.586H53.571a.662.662,0,0,1-.657-.626,9.863,9.863,0,0,0-5.7-8.294,19.122,19.122,0,0,1-3.744-2.408L40.208,66.4a6.189,6.189,0,0,0-3.282-1.272l-2.6-.212a1.241,1.241,0,0,1-1.065-.815,1.443,1.443,0,0,1-.074-.5,4.149,4.149,0,0,1,2.881-3.872,6.89,6.89,0,0,1,1.808-.3,16.379,16.379,0,0,1,7.656,1.248l.069.026a3.757,3.757,0,0,0,5.021-3.549V31.486a3.133,3.133,0,0,1,1.492-2.67c.479-.3,1.042-.075,1.645-.075a2.425,2.425,0,0,1,1.894.923,4,4,0,0,1,.615,2.624l.627,13.729a3.15,3.15,0,0,1,1.649-2.763c.444-.238.914.018,1.452.018a2.563,2.563,0,0,1,1.936.977c.564.564.395,1.167.4,2.027l.831,1.254a3.123,3.123,0,0,1,.927-2.211,3.174,3.174,0,0,1,.559-.444c.02-.013.209,0,.23-.01a2.316,2.316,0,0,1,1.384-.314,2.844,2.844,0,0,1,2.11.874,2.923,2.923,0,0,1,.957,1.951c0,.034,0,.069,0,.105,0,.018,0,.038,0,.056l.1,2.369a3.129,3.129,0,0,1,1.5-2.665,3.571,3.571,0,0,1,1.788-.16c.866,0,1.2.464,1.764,1.031A2.463,2.463,0,0,1,75.405,50.025Z" fill="#feb3a7"/>
                <g id="Grupo_1100518" data-name="Grupo 1100518">
                  <path id="Trazado_875845" data-name="Trazado 875845" d="M53.6,31.486V49.447a2.8,2.8,0,0,0,2.8,2.8h0a.493.493,0,0,0,.492-.492V31.486a3.137,3.137,0,0,0-3.137-3.137h0a3.121,3.121,0,0,0-1.645.466A3.137,3.137,0,0,1,53.6,31.486Z" fill="#f99b8c"/>
                  <path id="Trazado_875846" data-name="Trazado 875846" d="M69.437,52.622v0a.475.475,0,0,1-.475.473,2.812,2.812,0,0,1-2.811-2.812v-2.75a3.135,3.135,0,0,0-1.507-2.662c.016-.01.048-.027.063-.038a3.137,3.137,0,0,1,4.729,2.539c0,.034,0,.319,0,.431C69.423,47.806,69.433,51.322,69.437,52.622Z" fill="#f99b8c"/>
                  <path id="Trazado_875847" data-name="Trazado 875847" d="M63.166,46.07c-.015,0,0,4.4,0,5.7v0a.475.475,0,0,1-.475.473,2.812,2.812,0,0,1-2.811-2.812V45.8a3.125,3.125,0,0,0-1.338-2.548A3.139,3.139,0,0,1,63.166,46Z" fill="#f99b8c"/>
                  <path id="Trazado_875848" data-name="Trazado 875848" d="M72.576,46.774h0a3.116,3.116,0,0,0-1.644.467,3.134,3.134,0,0,1,1.494,2.668V60.363a13.674,13.674,0,0,1-1.855,6.877h0a16.638,16.638,0,0,0-2.257,8.412l.01,3.935a.658.658,0,0,1-.657.659h3.288a.657.657,0,0,0,.657-.659l-.01-3.935a16.638,16.638,0,0,1,2.257-8.412h0a13.674,13.674,0,0,0,1.855-6.877V49.909A3.137,3.137,0,0,0,72.576,46.774Z" fill="#f99b8c"/>
                </g>
              </g>
            </g>
          </g>
          <g id="Grupo_1100534" data-name="Grupo 1100534">
            <path id="Trazado_875849" data-name="Trazado 875849" d="M56.77,45.925a3.12,3.12,0,0,1,3.12-3.12h0a3.12,3.12,0,0,1,3.12,3.12V52.12" fill="none" stroke="#000" stroke-linecap="round" stroke-linejoin="round" stroke-miterlimit="10" stroke-width="2.402"/>
            <g id="Grupo_1100533" data-name="Grupo 1100533">
              <g id="Grupo_1100527" data-name="Grupo 1100527">
                <g id="Grupo_1100522" data-name="Grupo 1100522">
                  <path id="Trazado_875850" data-name="Trazado 875850" d="M30.419,17.1l3.2-8.4a.264.264,0,0,1,.247-.17h0a.264.264,0,0,1,.247.171l3.171,8.4" fill="none" stroke="#000" stroke-linecap="round" stroke-linejoin="round" stroke-miterlimit="10" stroke-width="2.402"/>
                  <line id="Línea_1722" data-name="Línea 1722" x2="4.845" transform="translate(31.437 14.96)" fill="none" stroke="#000" stroke-linecap="round" stroke-linejoin="round" stroke-miterlimit="10" stroke-width="2.402"/>
                </g>
                <g id="Grupo_1100523" data-name="Grupo 1100523">
                  <path id="Trazado_875851" data-name="Trazado 875851" d="M17.669,9.4a3.91,3.91,0,0,0-3.353-.747,1.791,1.791,0,0,0-.694,3.208,11.538,11.538,0,0,0,2.494,1.011c3,1.023,1.8,4.219-.745,4.219a4.048,4.048,0,0,1-2.988-1.271" fill="none" stroke="#000" stroke-linecap="round" stroke-linejoin="round" stroke-miterlimit="10" stroke-width="2.402"/>
                </g>
                <g id="Grupo_1100524" data-name="Grupo 1100524">
                  <line id="Línea_1723" data-name="Línea 1723" x2="4.735" transform="translate(22.271 8.522)" fill="none" stroke="#000" stroke-linecap="round" stroke-linejoin="round" stroke-miterlimit="10" stroke-width="2.402"/>
                  <line id="Línea_1724" data-name="Línea 1724" y2="8.299" transform="translate(24.628 8.796)" fill="none" stroke="#000" stroke-linecap="round" stroke-linejoin="round" stroke-miterlimit="10" stroke-width="2.402"/>
                </g>
                <g id="Grupo_1100525" data-name="Grupo 1100525">
                  <line id="Línea_1725" data-name="Línea 1725" x2="4.735" transform="translate(51.481 8.522)" fill="none" stroke="#000" stroke-linecap="round" stroke-linejoin="round" stroke-miterlimit="10" stroke-width="2.402"/>
                  <line id="Línea_1726" data-name="Línea 1726" y2="8.299" transform="translate(53.839 8.796)" fill="none" stroke="#000" stroke-linecap="round" stroke-linejoin="round" stroke-miterlimit="10" stroke-width="2.402"/>
                </g>
                <g id="Grupo_1100526" data-name="Grupo 1100526">
                  <line id="Línea_1727" data-name="Línea 1727" x2="3.601" y2="4.106" transform="translate(43.268 12.989)" fill="none" stroke="#000" stroke-linecap="round" stroke-linejoin="round" stroke-miterlimit="10" stroke-width="2.402"/>
                  <line id="Línea_1728" data-name="Línea 1728" y2="4.106" transform="translate(42.239 12.989)" fill="none" stroke="#000" stroke-linecap="round" stroke-linejoin="round" stroke-miterlimit="10" stroke-width="2.402"/>
                  <path id="Trazado_875852" data-name="Trazado 875852" d="M46.869,10.75a2.319,2.319,0,0,1-2.354,2.239H42.239V8.522h2.276A2.31,2.31,0,0,1,46.869,10.75Z" fill="none" stroke="#000" stroke-linecap="round" stroke-linejoin="round" stroke-miterlimit="10" stroke-width="2.402"/>
                </g>
              </g>
              <g id="Grupo_1100532" data-name="Grupo 1100532">
                <g id="Grupo_1100528" data-name="Grupo 1100528">
                  <line id="Línea_1729" data-name="Línea 1729" y2="8.573" transform="translate(17.866 20.957)" fill="none" stroke="#000" stroke-linecap="round" stroke-linejoin="round" stroke-miterlimit="10" stroke-width="2.402"/>
                  <line id="Línea_1730" data-name="Línea 1730" y2="8.573" transform="translate(23.799 20.957)" fill="none" stroke="#000" stroke-linecap="round" stroke-linejoin="round" stroke-miterlimit="10" stroke-width="2.402"/>
                  <line id="Línea_1731" data-name="Línea 1731" x2="5.933" transform="translate(17.866 25.097)" fill="none" stroke="#000" stroke-linecap="round" stroke-linejoin="round" stroke-miterlimit="10" stroke-width="2.402"/>
                </g>
                <g id="Grupo_1100529" data-name="Grupo 1100529">
                  <path id="Trazado_875853" data-name="Trazado 875853" d="M32.553,20.957H28.94V29.53h3.613" fill="none" stroke="#000" stroke-linecap="round" stroke-linejoin="round" stroke-miterlimit="10" stroke-width="2.402"/>
                  <line id="Línea_1732" data-name="Línea 1732" x1="3.188" transform="translate(28.961 25.244)" fill="none" stroke="#000" stroke-linecap="round" stroke-linejoin="round" stroke-miterlimit="10" stroke-width="2.402"/>
                </g>
                <g id="Grupo_1100530" data-name="Grupo 1100530">
                  <path id="Trazado_875854" data-name="Trazado 875854" d="M50.734,20.957H47.121V29.53h3.612" fill="none" stroke="#000" stroke-linecap="round" stroke-linejoin="round" stroke-miterlimit="10" stroke-width="2.402"/>
                  <line id="Línea_1733" data-name="Línea 1733" x1="3.188" transform="translate(47.142 25.244)" fill="none" stroke="#000" stroke-linecap="round" stroke-linejoin="round" stroke-miterlimit="10" stroke-width="2.402"/>
                </g>
                <g id="Grupo_1100531" data-name="Grupo 1100531">
                  <line id="Línea_1734" data-name="Línea 1734" x2="3.601" y2="4.106" transform="translate(38.536 25.424)" fill="none" stroke="#000" stroke-linecap="round" stroke-linejoin="round" stroke-miterlimit="10" stroke-width="2.402"/>
                  <line id="Línea_1735" data-name="Línea 1735" y2="4.106" transform="translate(37.507 25.424)" fill="none" stroke="#000" stroke-linecap="round" stroke-linejoin="round" stroke-miterlimit="10" stroke-width="2.402"/>
                  <path id="Trazado_875855" data-name="Trazado 875855" d="M42.137,23.185a2.319,2.319,0,0,1-2.354,2.239H37.507V20.957h2.276A2.31,2.31,0,0,1,42.137,23.185Z" fill="none" stroke="#000" stroke-linecap="round" stroke-linejoin="round" stroke-miterlimit="10" stroke-width="2.402"/>
                </g>
              </g>
            </g>
            <path id="Trazado_875856" data-name="Trazado 875856" d="M6.5,16.223V7.742A6.542,6.542,0,0,1,13.043,1.2H39.436" fill="none" stroke="#000" stroke-linecap="round" stroke-linejoin="round" stroke-miterlimit="10" stroke-width="2.402"/>
            <path id="Trazado_875857" data-name="Trazado 875857" d="M45.041,1.2H55.557A6.542,6.542,0,0,1,62.1,7.742V30.31A6.542,6.542,0,0,1,56.964,36.7" fill="none" stroke="#000" stroke-linecap="round" stroke-linejoin="round" stroke-miterlimit="10" stroke-width="2.402"/>
            <path id="Trazado_875858" data-name="Trazado 875858" d="M6.5,21.829V30.31a6.541,6.541,0,0,0,6.541,6.541H50.227" fill="none" stroke="#000" stroke-linecap="round" stroke-linejoin="round" stroke-miterlimit="10" stroke-width="2.402"/>
            <path id="Trazado_875859" data-name="Trazado 875859" d="M63.011,47.437a3.12,3.12,0,0,1,3.12-3.12h0a3.12,3.12,0,0,1,3.12,3.12v5.534" fill="none" stroke="#000" stroke-linecap="round" stroke-linejoin="round" stroke-miterlimit="10" stroke-width="2.402"/>
            <path id="Trazado_875860" data-name="Trazado 875860" d="M69.252,49.8a3.121,3.121,0,0,1,3.122-3.122h0A3.121,3.121,0,0,1,75.5,49.8V60.2A13.6,13.6,0,0,1,73.65,67.04h0A16.553,16.553,0,0,0,71.4,75.408l.012,5.388" fill="none" stroke="#000" stroke-linecap="round" stroke-linejoin="round" stroke-miterlimit="10" stroke-width="2.402"/>
            <path id="Trazado_875861" data-name="Trazado 875861" d="M56.771,52.12V31.47a3.121,3.121,0,0,0-6.241,0V43.877" fill="none" stroke="#000" stroke-linecap="round" stroke-linejoin="round" stroke-miterlimit="10" stroke-width="2.402"/>
            <path id="Trazado_875862" data-name="Trazado 875862" d="M50.53,49.482v7.524a3.738,3.738,0,0,1-5.01,3.525l-.056-.021a16.31,16.31,0,0,0-7.617-1.241,6.9,6.9,0,0,0-1.8.3,4.128,4.128,0,0,0-2.867,3.853,1.461,1.461,0,0,0,.074.5,1.24,1.24,0,0,0,1.06.812l2.59.21a6.163,6.163,0,0,1,3.267,1.265l3.24,2.5a18.921,18.921,0,0,0,3.725,2.4,9.86,9.86,0,0,1,5.693,8.916V80.8" fill="none" stroke="#000" stroke-linecap="round" stroke-linejoin="round" stroke-miterlimit="10" stroke-width="2.402"/>
          </g>
        </g>
      </g>
    </g>
  </g>
</svg>
