<svg xmlns="http://www.w3.org/2000/svg" xmlns:xlink="http://www.w3.org/1999/xlink" width="91.737" height="90.396" viewBox="0 0 91.737 90.396">
  <defs>
    <clipPath id="clip-path">
      <rect id="Rectángulo_401797" data-name="Rectángulo 401797" width="82" height="82" transform="translate(214 9746)" fill="#fff" stroke="#707070" stroke-width="1"/>
    </clipPath>
  </defs>
  <g id="Grupo_1101628" data-name="Grupo 1101628" transform="translate(-209 -10113)">
    <g id="Grupo_1100505" data-name="Grupo 1100505" transform="translate(0 367)">
      <path id="_12068" data-name="12068" d="M78.931,72.011c-9.394-1.3-19.317-.98-27.865,3.126-11.854,5.694-19.64,18.6-19.938,31.75s6.551,26.066,17.132,33.876S72.8,151.341,85.735,149c13.048-2.365,25.295-10.031,32.1-21.411,4.364-7.3,6.4-16.309,3.993-24.463A33.421,33.421,0,0,0,113.9,90.084,58.6,58.6,0,0,0,78.931,72.011Z" transform="translate(177.881 9686.594)" fill="#ffd947"/>
      <g id="Enmascarar_grupo_1098757" data-name="Enmascarar grupo 1098757" clip-path="url(#clip-path)">
        <g id="ads" transform="translate(209.759 9741.759)">
          <path id="Trazado_875863" data-name="Trazado 875863" d="M35.345,66.448H55.138v8.483H35.345Z" fill="#47568c"/>
          <path id="Trazado_875864" data-name="Trazado 875864" d="M29.69,77.759h31.1v2.828H29.69Z" fill="#61729b"/>
          <path id="Trazado_875865" data-name="Trazado 875865" d="M7.069,63.621H83.414V9.9H7.069ZM29.69,59.379a1.414,1.414,0,0,1-1.414,1.414H22.621a1.414,1.414,0,0,1-1.414-1.414V48.069a1.414,1.414,0,0,1,1.414-1.414h5.655a1.414,1.414,0,0,1,1.414,1.414Zm11.31,0a1.414,1.414,0,0,1-1.414,1.414H33.931a1.414,1.414,0,0,1-1.414-1.414V45.241a1.414,1.414,0,0,1,1.414-1.414h5.655A1.414,1.414,0,0,1,41,45.241Zm11.31,0A1.414,1.414,0,0,1,50.9,60.793H45.241a1.414,1.414,0,0,1-1.414-1.414V42.414A1.414,1.414,0,0,1,45.241,41H50.9a1.414,1.414,0,0,1,1.414,1.414Zm8.483-45.241a1.414,1.414,0,0,1,1.414-1.414H79.172a1.414,1.414,0,0,1,1.414,1.414V36.759a1.414,1.414,0,0,1-1.414,1.414H62.207a1.414,1.414,0,0,1-1.414-1.414ZM62.207,41H79.172a1.414,1.414,0,1,1,0,2.828H62.207a1.414,1.414,0,0,1,0-2.828Zm0,5.655H79.172a1.414,1.414,0,1,1,0,2.828H62.207a1.414,1.414,0,0,1,0-2.828Zm0,5.655H79.172a1.414,1.414,0,1,1,0,2.828H62.207a1.414,1.414,0,0,1,0-2.828Zm0,5.655H79.172a1.414,1.414,0,1,1,0,2.828H62.207a1.414,1.414,0,0,1,0-2.828ZM9.9,14.138a1.414,1.414,0,0,1,1.414-1.414H50.9a1.414,1.414,0,0,1,1.414,1.414V36.759A1.414,1.414,0,0,1,50.9,38.172H11.31A1.414,1.414,0,0,1,9.9,36.759Zm0,39.586A1.414,1.414,0,0,1,11.31,52.31h5.655a1.414,1.414,0,0,1,1.414,1.414v5.655a1.414,1.414,0,0,1-1.414,1.414H11.31A1.414,1.414,0,0,1,9.9,59.379Z" fill="#f2f2fc"/>
          <path id="Trazado_875866" data-name="Trazado 875866" d="M84.828,7.069H5.655A1.414,1.414,0,0,0,4.241,8.483V65.034a1.414,1.414,0,0,0,1.414,1.414H32.517v8.483H28.276a1.414,1.414,0,0,0-1.414,1.414V82a1.414,1.414,0,0,0,1.414,1.414H62.207A1.414,1.414,0,0,0,63.621,82V76.345a1.414,1.414,0,0,0-1.414-1.414H57.966V66.448H84.828a1.414,1.414,0,0,0,1.414-1.414V8.483A1.414,1.414,0,0,0,84.828,7.069ZM60.793,80.586H29.69V77.759h31.1Zm-5.655-5.655H35.345V66.448H55.138Zm28.276-11.31H7.069V9.9H83.414Z"/>
          <g id="Grupo_1100535" data-name="Grupo 1100535">
            <path id="Trazado_875867" data-name="Trazado 875867" d="M18.9,25.758h1.434l-.717-2.15Z" fill="#4bb9ec"/>
            <path id="Trazado_875868" data-name="Trazado 875868" d="M49.483,15.552H12.724V35.345H49.483ZM24.077,32.53a1.414,1.414,0,0,1-1.788-.894l-1.017-3.051H17.955l-1.017,3.051a1.416,1.416,0,0,1-2.686-.895l4.017-12.053a1.414,1.414,0,0,1,2.686,0l4.017,12.053A1.414,1.414,0,0,1,24.077,32.53Zm4.985-.013H28.057A1.414,1.414,0,0,1,26.643,31.1V19.051a1.414,1.414,0,0,1,1.414-1.414h1.005a7.44,7.44,0,1,1,0,14.881Zm13.466-8.855A4.428,4.428,0,1,1,38.1,28.091a1.414,1.414,0,0,1,2.828,0,1.6,1.6,0,1,0,1.6-1.6,4.427,4.427,0,1,1,4.427-4.427,1.414,1.414,0,0,1-2.828,0,1.6,1.6,0,1,0-1.6,1.6Z" fill="#4bb9ec"/>
            <path id="Trazado_875869" data-name="Trazado 875869" d="M29.471,20.483v9.19a4.612,4.612,0,0,0,0-9.19Z" fill="#4bb9ec"/>
          </g>
          <path id="Trazado_875870" data-name="Trazado 875870" d="M11.31,38.172H50.9a1.414,1.414,0,0,0,1.414-1.414V14.138A1.414,1.414,0,0,0,50.9,12.724H11.31A1.414,1.414,0,0,0,9.9,14.138V36.759A1.414,1.414,0,0,0,11.31,38.172Zm1.414-22.621H49.483V35.345H12.724Z"/>
          <path id="Trazado_875871" data-name="Trazado 875871" d="M20.954,18.689a1.414,1.414,0,0,0-2.686,0L14.251,30.742a1.416,1.416,0,0,0,2.686.895l1.017-3.051h3.32l1.017,3.051a1.416,1.416,0,0,0,2.686-.895ZM18.9,25.758l.717-2.15.717,2.15Z"/>
          <path id="Trazado_875872" data-name="Trazado 875872" d="M29.062,17.637H28.057a1.414,1.414,0,0,0-1.414,1.414V31.1a1.414,1.414,0,0,0,1.414,1.414h1.005a7.44,7.44,0,1,0,0-14.881Zm.409,12.034v-9.19a4.612,4.612,0,0,1,0,9.19Z"/>
          <path id="Trazado_875873" data-name="Trazado 875873" d="M42.528,20.465a1.6,1.6,0,0,1,1.6,1.6,1.414,1.414,0,0,0,2.828,0,4.428,4.428,0,1,0-4.427,4.427,1.6,1.6,0,1,1-1.6,1.6,1.414,1.414,0,0,0-2.828,0,4.428,4.428,0,1,0,4.428-4.428,1.6,1.6,0,0,1,0-3.2Z"/>
          <path id="Trazado_875874" data-name="Trazado 875874" d="M24.034,49.483h2.828v8.483H24.034Z" fill="#4bb9ec"/>
          <path id="Trazado_875875" data-name="Trazado 875875" d="M28.276,46.655H22.621a1.414,1.414,0,0,0-1.414,1.414v11.31a1.414,1.414,0,0,0,1.414,1.414h5.655a1.414,1.414,0,0,0,1.414-1.414V48.069A1.414,1.414,0,0,0,28.276,46.655Zm-1.414,11.31H24.034V49.483h2.828Z"/>
          <path id="Trazado_875876" data-name="Trazado 875876" d="M12.724,55.138h2.828v2.828H12.724Z" fill="#ffcebf"/>
          <path id="Trazado_875877" data-name="Trazado 875877" d="M11.31,60.793h5.655a1.414,1.414,0,0,0,1.414-1.414V53.724a1.414,1.414,0,0,0-1.414-1.414H11.31A1.414,1.414,0,0,0,9.9,53.724v5.655A1.414,1.414,0,0,0,11.31,60.793Zm1.414-5.655h2.828v2.828H12.724Z"/>
          <path id="Trazado_875878" data-name="Trazado 875878" d="M35.345,46.655h2.828v11.31H35.345Z" fill="#fdbf00"/>
          <path id="Trazado_875879" data-name="Trazado 875879" d="M39.586,43.828H33.931a1.414,1.414,0,0,0-1.414,1.414V59.379a1.414,1.414,0,0,0,1.414,1.414h5.655A1.414,1.414,0,0,0,41,59.379V45.241A1.414,1.414,0,0,0,39.586,43.828ZM38.172,57.966H35.345V46.655h2.828Z"/>
          <path id="Trazado_875880" data-name="Trazado 875880" d="M46.655,43.828h2.828V57.966H46.655Z" fill="#f03800"/>
          <path id="Trazado_875881" data-name="Trazado 875881" d="M50.9,41H45.241a1.414,1.414,0,0,0-1.414,1.414V59.379a1.414,1.414,0,0,0,1.414,1.414H50.9a1.414,1.414,0,0,0,1.414-1.414V42.414A1.414,1.414,0,0,0,50.9,41ZM49.483,57.966H46.655V43.828h2.828Z"/>
          <path id="Trazado_875882" data-name="Trazado 875882" d="M63.621,15.552H77.759V35.345H63.621Z" fill="#f03800"/>
          <path id="Trazado_875883" data-name="Trazado 875883" d="M62.207,38.172H79.172a1.414,1.414,0,0,0,1.414-1.414V14.138a1.414,1.414,0,0,0-1.414-1.414H62.207a1.414,1.414,0,0,0-1.414,1.414V36.759A1.414,1.414,0,0,0,62.207,38.172Zm1.414-22.621H77.759V35.345H63.621Z"/>
          <path id="Trazado_875884" data-name="Trazado 875884" d="M62.207,43.828H79.172a1.414,1.414,0,1,0,0-2.828H62.207a1.414,1.414,0,0,0,0,2.828Z"/>
          <path id="Trazado_875885" data-name="Trazado 875885" d="M62.207,49.483H79.172a1.414,1.414,0,1,0,0-2.828H62.207a1.414,1.414,0,0,0,0,2.828Z"/>
          <path id="Trazado_875886" data-name="Trazado 875886" d="M62.207,55.138H79.172a1.414,1.414,0,1,0,0-2.828H62.207a1.414,1.414,0,0,0,0,2.828Z"/>
          <path id="Trazado_875887" data-name="Trazado 875887" d="M62.207,60.793H79.172a1.414,1.414,0,1,0,0-2.828H62.207a1.414,1.414,0,0,0,0,2.828Z"/>
        </g>
      </g>
    </g>
  </g>
</svg>
