<svg xmlns="http://www.w3.org/2000/svg" xmlns:xlink="http://www.w3.org/1999/xlink" width="91.737" height="90.396" viewBox="0 0 91.737 90.396">
  <defs>
    <clipPath id="clip-path">
      <rect id="Rectángulo_401797" data-name="Rectángulo 401797" width="82" height="82" transform="translate(214 9746)" fill="#fff" stroke="#707070" stroke-width="1"/>
    </clipPath>
  </defs>
  <g id="Grupo_1101630" data-name="Grupo 1101630" transform="translate(-1050.5 -10113)">
    <g id="Grupo_1100503" data-name="Grupo 1100503" transform="translate(841.5 367)">
      <path id="_12068" data-name="12068" d="M78.931,72.011c-9.394-1.3-19.317-.98-27.865,3.126-11.854,5.694-19.64,18.6-19.938,31.75s6.551,26.066,17.132,33.876S72.8,151.341,85.735,149c13.048-2.365,25.295-10.031,32.1-21.411,4.364-7.3,6.4-16.309,3.993-24.463A33.421,33.421,0,0,0,113.9,90.084,58.6,58.6,0,0,0,78.931,72.011Z" transform="translate(177.881 9686.594)" fill="#ffd947"/>
      <g id="Enmascarar_grupo_1098759" data-name="Enmascarar grupo 1098759" clip-path="url(#clip-path)">
        <g id="www" transform="translate(214 9746)">
          <g id="Grupo_1100537" data-name="Grupo 1100537">
            <path id="Trazado_875907" data-name="Trazado 875907" d="M67.622,19.905H14.378a12.773,12.773,0,0,0,0,25.547H67.622a12.773,12.773,0,0,0,0-25.547Z" fill="#ff7d97"/>
            <path id="Trazado_875908" data-name="Trazado 875908" d="M54.259,50.7l-6.328-3.9L41.6,42.9l.635,7.408.635,7.408,2.961-1.823,3.82,6.205,5.466-3.365L51.3,52.524Z" fill="#bfdbff"/>
          </g>
          <g id="Grupo_1100539" data-name="Grupo 1100539">
            <circle id="Elipse_11630" data-name="Elipse 11630" cx="1.602" cy="1.602" r="1.602" transform="translate(39.398 18.304)"/>
            <g id="Grupo_1100538" data-name="Grupo 1100538">
              <circle id="Elipse_11631" data-name="Elipse 11631" cx="1.839" cy="1.839" r="1.839" transform="translate(68.864 35.208)"/>
              <path id="Trazado_875909" data-name="Trazado 875909" d="M26.052,27.609l-1.587,4.528L22.9,27.554a1.605,1.605,0,0,0-3.03-.021l-1.659,4.656-1.567-4.561a1.6,1.6,0,0,0-3.035,1.043l3.057,8.9a1.6,1.6,0,0,0,1.509,1.083h.009A1.6,1.6,0,0,0,19.7,37.585l1.654-4.641,1.576,4.62a1.6,1.6,0,0,0,1.512,1.087h.007a1.6,1.6,0,0,0,1.514-1.074l3.122-8.907a1.6,1.6,0,1,0-3.029-1.062Z"/>
              <path id="Trazado_875910" data-name="Trazado 875910" d="M33.177,26.632a1.6,1.6,0,0,0-1,2.039l3.057,8.9a1.6,1.6,0,0,0,1.509,1.083h.009a1.6,1.6,0,0,0,1.512-1.066l1.654-4.64,1.576,4.62a1.6,1.6,0,0,0,1.512,1.087h.007a1.605,1.605,0,0,0,1.514-1.074l3.122-8.907a1.6,1.6,0,0,0-3.029-1.062l-1.587,4.528-1.563-4.583a1.605,1.605,0,0,0-3.03-.021l-1.659,4.656-1.567-4.561a1.6,1.6,0,0,0-2.039-1Z"/>
              <path id="Trazado_875911" data-name="Trazado 875911" d="M55.318,38.652h.009a1.6,1.6,0,0,0,1.512-1.066l1.654-4.64,1.576,4.62a1.6,1.6,0,0,0,1.512,1.087h.007A1.605,1.605,0,0,0,63.1,37.578l3.122-8.907A1.6,1.6,0,0,0,63.2,27.609l-1.587,4.528-1.563-4.583a1.605,1.605,0,0,0-3.03-.021L55.355,32.19l-1.567-4.561a1.6,1.6,0,0,0-3.035,1.043l3.057,8.9a1.606,1.606,0,0,0,1.509,1.083Z"/>
            </g>
            <path id="Trazado_875912" data-name="Trazado 875912" d="M67.622,18.3H48.194a1.6,1.6,0,0,0,0,3.21H67.622a11.169,11.169,0,0,1,0,22.337H46.2l-3.756-2.316A1.6,1.6,0,0,0,40,43.034l.07.813h-25.7a11.169,11.169,0,0,1,0-22.337H33.806a1.6,1.6,0,0,0,0-3.21H14.378a14.378,14.378,0,0,0,0,28.756h25.97l.924,10.792a1.6,1.6,0,0,0,2.44,1.23l1.594-.982,2.979,4.839a1.6,1.6,0,0,0,2.208.525L55.96,60.1a1.6,1.6,0,0,0,.525-2.208l-2.979-4.839,1.594-.982a1.6,1.6,0,0,0,0-2.732l-3.7-2.279H67.622a14.378,14.378,0,1,0,0-28.756ZM50.178,59.887,47.2,55.048a1.6,1.6,0,0,0-2.208-.525l-.743.457-.775-9.044L51.2,50.7l-.743.457a1.6,1.6,0,0,0-.525,2.208L52.911,58.2Z"/>
          </g>
        </g>
      </g>
    </g>
  </g>
</svg>
