<svg xmlns="http://www.w3.org/2000/svg" xmlns:xlink="http://www.w3.org/1999/xlink" width="78.501" height="78.271" viewBox="0 0 78.501 78.271">
  <defs>
    <clipPath id="clip-path">
      <rect id="Rectángulo_401798" data-name="Rectángulo 401798" width="68" height="68" transform="translate(290 10749)" fill="#fff" stroke="#707070" stroke-width="1"/>
    </clipPath>
  </defs>
  <g id="Grupo_1101623" data-name="Grupo 1101623" transform="translate(-285 -10749)">
    <g id="Grupo_1100540" data-name="Grupo 1100540">
      <path id="_12068" data-name="12068" d="M72.033,71.913c-8.038-1.11-16.53-.839-23.844,2.675C38.045,79.46,31.382,90.507,31.127,101.757s5.606,22.305,14.66,28.988,21,9.051,32.068,7.045c11.165-2.023,21.645-8.583,27.469-18.322,3.735-6.245,5.48-13.956,3.417-20.934a28.6,28.6,0,0,0-6.787-11.156A50.145,50.145,0,0,0,72.033,71.913Z" transform="translate(253.881 10688.789)" fill="#26aab7"/>
      <g id="Enmascarar_grupo_1098760" data-name="Enmascarar grupo 1098760" clip-path="url(#clip-path)">
        <g id="imagen" transform="translate(288.903 10747.903)">
          <rect id="Rectángulo_401799" data-name="Rectángulo 401799" width="65.806" height="59.181" rx="4.387" transform="translate(2.194 5.484)" fill="#ccc"/>
          <path id="Trazado_875913" data-name="Trazado 875913" d="M4.387,18.645H65.806V59.181a3.29,3.29,0,0,1-3.29,3.29H7.677a3.29,3.29,0,0,1-3.29-3.29Z" fill="#fff"/>
          <rect id="Rectángulo_401800" data-name="Rectángulo 401800" width="52.645" height="30.71" rx="2.194" transform="translate(8.774 23.032)" fill="#bce4f8"/>
          <path id="Trazado_875914" data-name="Trazado 875914" d="M10.968,23.032a2.194,2.194,0,0,0-2.194,2.194V43.871H52.645a3.29,3.29,0,0,0,3.29-3.29V23.032Z" fill="#e4f5fd"/>
          <path id="Trazado_875915" data-name="Trazado 875915" d="M28.516,47.161,44.968,30.71,61.419,47.161Z" fill="#559b38"/>
          <path id="Trazado_875916" data-name="Trazado 875916" d="M52.645,38.387,44.968,30.71,31.806,43.871H49.355a3.29,3.29,0,0,0,3.29-3.29Z" fill="#6bc148"/>
          <path id="Trazado_875917" data-name="Trazado 875917" d="M8.774,47.161,25.226,30.71,41.677,47.161Z" fill="#559b38"/>
          <path id="Trazado_875918" data-name="Trazado 875918" d="M32.9,38.387,25.226,30.71,12.065,43.871H29.613a3.29,3.29,0,0,0,3.29-3.29Z" fill="#6bc148"/>
          <path id="Trazado_875919" data-name="Trazado 875919" d="M63.613,5.484H6.581A4.387,4.387,0,0,0,2.194,9.871v8.774H68V9.871A4.387,4.387,0,0,0,63.613,5.484Z" fill="#62529b"/>
          <path id="Trazado_875920" data-name="Trazado 875920" d="M59.226,15.355a3.29,3.29,0,0,0,3.29-3.29V5.484H6.581A4.387,4.387,0,0,0,2.194,9.871v5.484Z" fill="#7d6eb2"/>
          <g id="Grupo_1100544" data-name="Grupo 1100544">
            <circle id="Elipse_11632" data-name="Elipse 11632" cx="2.194" cy="2.194" r="2.194" transform="translate(6.581 9.871)" fill="#fff"/>
            <circle id="Elipse_11633" data-name="Elipse 11633" cx="2.194" cy="2.194" r="2.194" transform="translate(14.258 9.871)" fill="#fff"/>
            <circle id="Elipse_11634" data-name="Elipse 11634" cx="2.194" cy="2.194" r="2.194" transform="translate(21.935 9.871)" fill="#fff"/>
            <rect id="Rectángulo_401801" data-name="Rectángulo 401801" width="24.129" height="4.387" rx="2.194" transform="translate(30.71 9.871)" fill="#fff"/>
          </g>
          <circle id="Elipse_11635" data-name="Elipse 11635" cx="3.29" cy="3.29" r="3.29" transform="translate(31.806 26.323)" fill="#f3a845"/>
          <path id="Trazado_875921" data-name="Trazado 875921" d="M8.774,51.548a2.194,2.194,0,0,0,2.194,2.194H59.226a2.194,2.194,0,0,0,2.194-2.194V47.161H8.774Z" fill="#2763bb"/>
          <path id="Trazado_875922" data-name="Trazado 875922" d="M35.1,26.323a3.29,3.29,0,0,0-3.29,3.29,3.249,3.249,0,0,0,.2,1.1H35.1a2.194,2.194,0,0,0,2.194-2.194V27.177a3.266,3.266,0,0,0-2.194-.854Z" fill="#eecc61"/>
          <path id="Trazado_875923" data-name="Trazado 875923" d="M8.774,50.452H52.645a3.29,3.29,0,0,0,3.29-3.29H8.774Z" fill="#3079e6"/>
          <path id="Trazado_875924" data-name="Trazado 875924" d="M46.065,60.323l-2.194-8.774,8.774,2.192-4.387,2.195Z" fill="#bce4f8"/>
          <path id="Trazado_875925" data-name="Trazado 875925" d="M63.613,4.387H6.581A5.49,5.49,0,0,0,1.1,9.871V60.323a5.49,5.49,0,0,0,5.484,5.484H63.613A5.49,5.49,0,0,0,69.1,60.323V9.871a5.49,5.49,0,0,0-5.484-5.484ZM6.581,6.581H63.613a3.29,3.29,0,0,1,3.29,3.29v7.677H3.29V9.871a3.29,3.29,0,0,1,3.29-3.29ZM63.613,63.613H6.581a3.29,3.29,0,0,1-3.29-3.29V19.742H66.9V60.323A3.29,3.29,0,0,1,63.613,63.613Z"/>
          <path id="Trazado_875926" data-name="Trazado 875926" d="M8.774,15.355a3.29,3.29,0,1,0-3.29-3.29,3.29,3.29,0,0,0,3.29,3.29Zm0-4.387a1.1,1.1,0,1,1-1.1,1.1A1.1,1.1,0,0,1,8.774,10.968Z"/>
          <path id="Trazado_875927" data-name="Trazado 875927" d="M16.452,15.355a3.29,3.29,0,1,0-3.29-3.29,3.29,3.29,0,0,0,3.29,3.29Zm0-4.387a1.1,1.1,0,1,1-1.1,1.1A1.1,1.1,0,0,1,16.452,10.968Z"/>
          <path id="Trazado_875928" data-name="Trazado 875928" d="M24.129,15.355a3.29,3.29,0,1,0-3.29-3.29,3.29,3.29,0,0,0,3.29,3.29Zm0-4.387a1.1,1.1,0,1,1-1.1,1.1A1.1,1.1,0,0,1,24.129,10.968Z"/>
          <path id="Trazado_875929" data-name="Trazado 875929" d="M59.226,21.935H10.968a3.29,3.29,0,0,0-3.29,3.29V51.548a3.29,3.29,0,0,0,3.29,3.29h30.71V52.645H10.968a1.1,1.1,0,0,1-1.1-1.1v-3.29H60.323v3.29a1.1,1.1,0,0,1-1.1,1.1H54.839v2.194h4.387a3.29,3.29,0,0,0,3.29-3.29V25.226A3.29,3.29,0,0,0,59.226,21.935Zm-47.8,24.129,13.8-13.8,13.8,13.8Zm30.71,0-5.484-5.484,8.32-8.32,13.8,13.8Zm3.612-16.13a1.1,1.1,0,0,0-1.551,0l-9.1,9.1-9.1-9.1a1.1,1.1,0,0,0-1.551,0L9.871,44.514V25.226a1.1,1.1,0,0,1,1.1-1.1H59.226a1.1,1.1,0,0,1,1.1,1.1V44.514Z"/>
          <path id="Trazado_875930" data-name="Trazado 875930" d="M52.911,52.677l-8.774-2.194a1.1,1.1,0,0,0-1.329,1.329L45,60.587a1.1,1.1,0,0,0,2.045.225l2.029-4.058,4.058-2.03a1.1,1.1,0,0,0-.225-2.045Zm-5.143,2.277a1.1,1.1,0,0,0-.491.491l-.868,1.735-1.031-4.125,4.126,1.03Z"/>
          <path id="Trazado_875931" data-name="Trazado 875931" d="M61.419,15.355a3.237,3.237,0,0,0,1.409-.329l1.106,1.106,1.551-1.551-1.1-1.107a3.237,3.237,0,0,0,.329-1.409,3.29,3.29,0,1,0-3.29,3.29Zm0-4.387a1.1,1.1,0,1,1-1.1,1.1A1.1,1.1,0,0,1,61.419,10.968Z"/>
          <path id="Trazado_875932" data-name="Trazado 875932" d="M32.9,15.355H52.645a3.29,3.29,0,0,0,0-6.581H32.9a3.29,3.29,0,0,0,0,6.581Zm0-4.387H52.645a1.1,1.1,0,0,1,0,2.194H32.9a1.1,1.1,0,0,1,0-2.194Z"/>
          <path id="Trazado_875933" data-name="Trazado 875933" d="M35.1,25.226a4.387,4.387,0,1,0,4.387,4.387A4.387,4.387,0,0,0,35.1,25.226Zm0,6.581a2.194,2.194,0,1,1,2.194-2.194A2.194,2.194,0,0,1,35.1,31.806Z"/>
        </g>
      </g>
    </g>
  </g>
</svg>
