<svg xmlns="http://www.w3.org/2000/svg" xmlns:xlink="http://www.w3.org/1999/xlink" width="78.501" height="78.271" viewBox="0 0 78.501 78.271">
  <defs>
    <clipPath id="clip-path">
      <rect id="Rectángulo_401798" data-name="Rectángulo 401798" width="68" height="68" transform="translate(290 10749)" fill="#fff" stroke="#707070" stroke-width="1"/>
    </clipPath>
  </defs>
  <g id="Grupo_1101624" data-name="Grupo 1101624" transform="translate(-285 -10984.946)">
    <g id="Grupo_1100543" data-name="Grupo 1100543" transform="translate(0 235.946)">
      <path id="_12068" data-name="12068" d="M72.033,71.913c-8.038-1.11-16.53-.839-23.844,2.675C38.045,79.46,31.382,90.507,31.127,101.757s5.606,22.305,14.66,28.988,21,9.051,32.068,7.045c11.165-2.023,21.645-8.583,27.469-18.322,3.735-6.245,5.48-13.956,3.417-20.934a28.6,28.6,0,0,0-6.787-11.156A50.145,50.145,0,0,0,72.033,71.913Z" transform="translate(253.881 10688.789)" fill="#26aab7"/>
      <g id="Enmascarar_grupo_1098762" data-name="Enmascarar grupo 1098762" clip-path="url(#clip-path)">
        <g id="sitio-web" transform="translate(287.733 10746.733)">
          <rect id="Rectángulo_401802" data-name="Rectángulo 401802" width="65.733" height="63.467" rx="2.267" transform="translate(69.133 68) rotate(180)" fill="#e9eef2"/>
          <path id="Trazado_875947" data-name="Trazado 875947" d="M69.133,6.8v6.8H3.4V6.8A2.267,2.267,0,0,1,5.667,4.533h61.2A2.267,2.267,0,0,1,69.133,6.8Z" fill="#7d6eb2"/>
          <path id="Trazado_875948" data-name="Trazado 875948" d="M10.2,20.4H62.333V47.6H10.2Z" fill="#26aab7"/>
          <rect id="Rectángulo_401803" data-name="Rectángulo 401803" width="9.067" height="4.533" rx="2.267" transform="translate(31.733 29.467)" fill="#ffd947"/>
          <path id="Trazado_875949" data-name="Trazado 875949" d="M34,47.6H18.133l7.933-11.333Z" fill="#75ab7d"/>
          <path id="Trazado_875950" data-name="Trazado 875950" d="M54.4,47.6H40.8l6.8-6.8Z" fill="#75ab7d"/>
          <path id="Trazado_875951" data-name="Trazado 875951" d="M44.2,47.6H30.6l6.8-9.067Z" fill="#88c791"/>
          <path id="Trazado_875952" data-name="Trazado 875952" d="M66.867,3.4H5.667a3.4,3.4,0,0,0-3.4,3.4V65.733a3.4,3.4,0,0,0,3.4,3.4h61.2a3.4,3.4,0,0,0,3.4-3.4V6.8A3.4,3.4,0,0,0,66.867,3.4ZM5.667,5.667h61.2A1.135,1.135,0,0,1,68,6.8v5.667H4.533V6.8A1.135,1.135,0,0,1,5.667,5.667Zm61.2,61.2H5.667a1.135,1.135,0,0,1-1.133-1.133v-51H68v51A1.135,1.135,0,0,1,66.867,66.867Z"/>
          <circle id="Elipse_11640" data-name="Elipse 11640" cx="1.133" cy="1.133" r="1.133" transform="translate(15.867 7.933)"/>
          <circle id="Elipse_11641" data-name="Elipse 11641" cx="1.133" cy="1.133" r="1.133" transform="translate(11.333 7.933)"/>
          <circle id="Elipse_11642" data-name="Elipse 11642" cx="1.133" cy="1.133" r="1.133" transform="translate(6.8 7.933)"/>
          <path id="Trazado_875953" data-name="Trazado 875953" d="M62.333,19.267H10.2A1.133,1.133,0,0,0,9.067,20.4V47.6A1.133,1.133,0,0,0,10.2,48.733H62.333A1.133,1.133,0,0,0,63.467,47.6V20.4A1.133,1.133,0,0,0,62.333,19.267Zm-18.094,26.5L47.6,42.4l4.064,4.064h-6.9ZM37.4,40.422l4.533,6.044H32.867Zm-7.367,6.044H20.31l5.757-8.224,4.892,6.989Zm31.167,0H54.869L48.4,40a1.133,1.133,0,0,0-1.6,0l-3.933,3.933-4.559-6.078a1.133,1.133,0,0,0-1.813,0l-4.1,5.471L27,35.617a1.133,1.133,0,0,0-1.857,0L17.543,46.467h-6.21V21.533H61.2Z"/>
          <path id="Trazado_875954" data-name="Trazado 875954" d="M29.467,26.067h13.6a1.133,1.133,0,1,0,0-2.267h-13.6a1.133,1.133,0,0,0,0,2.267Z"/>
          <path id="Trazado_875955" data-name="Trazado 875955" d="M38.533,28.333H34a3.4,3.4,0,0,0,0,6.8h4.533a3.4,3.4,0,1,0,0-6.8Zm0,4.533H34A1.133,1.133,0,1,1,34,30.6h4.533a1.133,1.133,0,1,1,0,2.267Z"/>
          <circle id="Elipse_11643" data-name="Elipse 11643" cx="1.133" cy="1.133" r="1.133" transform="translate(41.933 36.267)"/>
          <path id="Trazado_875956" data-name="Trazado 875956" d="M19.267,53.267a1.133,1.133,0,1,0,0-2.267H14.733a1.133,1.133,0,1,0,0,2.267Z"/>
          <path id="Trazado_875957" data-name="Trazado 875957" d="M32.867,51H23.8a1.133,1.133,0,1,0,0,2.267h9.067a1.133,1.133,0,1,0,0-2.267Z"/>
          <path id="Trazado_875958" data-name="Trazado 875958" d="M9.067,56.667A1.133,1.133,0,0,0,10.2,57.8H21.533a1.133,1.133,0,1,0,0-2.267H10.2A1.133,1.133,0,0,0,9.067,56.667Z"/>
          <path id="Trazado_875959" data-name="Trazado 875959" d="M12.467,60.067H10.2a1.133,1.133,0,1,0,0,2.267h2.267a1.133,1.133,0,1,0,0-2.267Z"/>
          <path id="Trazado_875960" data-name="Trazado 875960" d="M32.867,60.067H17a1.133,1.133,0,1,0,0,2.267H32.867a1.133,1.133,0,1,0,0-2.267Z"/>
          <path id="Trazado_875961" data-name="Trazado 875961" d="M41.933,53.267h6.8a1.133,1.133,0,0,0,0-2.267h-6.8a1.133,1.133,0,1,0,0,2.267Z"/>
          <path id="Trazado_875962" data-name="Trazado 875962" d="M62.333,51H53.267a1.133,1.133,0,1,0,0,2.267h9.067a1.133,1.133,0,1,0,0-2.267Z"/>
          <path id="Trazado_875963" data-name="Trazado 875963" d="M41.933,57.8H51a1.133,1.133,0,0,0,0-2.267H41.933a1.133,1.133,0,1,0,0,2.267Z"/>
          <path id="Trazado_875964" data-name="Trazado 875964" d="M44.2,60.067H41.933a1.133,1.133,0,1,0,0,2.267H44.2a1.133,1.133,0,0,0,0-2.267Z"/>
          <path id="Trazado_875965" data-name="Trazado 875965" d="M57.8,60.067H48.733a1.133,1.133,0,1,0,0,2.267H57.8a1.133,1.133,0,1,0,0-2.267Z"/>
          <path id="Trazado_875966" data-name="Trazado 875966" d="M32.867,55.533h-6.8a1.133,1.133,0,1,0,0,2.267h6.8a1.133,1.133,0,1,0,0-2.267Z"/>
          <path id="Trazado_875967" data-name="Trazado 875967" d="M62.333,55.533h-6.8a1.133,1.133,0,0,0,0,2.267h6.8a1.133,1.133,0,1,0,0-2.267Z"/>
          <path id="Trazado_875968" data-name="Trazado 875968" d="M37.4,51a1.133,1.133,0,0,0-1.133,1.133V61.2a1.133,1.133,0,0,0,2.267,0V52.133A1.133,1.133,0,0,0,37.4,51Z"/>
        </g>
      </g>
    </g>
  </g>
</svg>
