<svg xmlns="http://www.w3.org/2000/svg" xmlns:xlink="http://www.w3.org/1999/xlink" width="78.501" height="78.271" viewBox="0 0 78.501 78.271">
  <defs>
    <clipPath id="clip-path">
      <rect id="Rectángulo_401798" data-name="Rectángulo 401798" width="68" height="68" transform="translate(290 10749)" fill="#fff" stroke="#707070" stroke-width="1"/>
    </clipPath>
  </defs>
  <g id="Grupo_1101625" data-name="Grupo 1101625" transform="translate(-831.2 -10749)">
    <g id="Grupo_1100541" data-name="Grupo 1100541" transform="translate(546.2)">
      <path id="_12068" data-name="12068" d="M72.033,71.913c-8.038-1.11-16.53-.839-23.844,2.675C38.045,79.46,31.382,90.507,31.127,101.757s5.606,22.305,14.66,28.988,21,9.051,32.068,7.045c11.165-2.023,21.645-8.583,27.469-18.322,3.735-6.245,5.48-13.956,3.417-20.934a28.6,28.6,0,0,0-6.787-11.156A50.145,50.145,0,0,0,72.033,71.913Z" transform="translate(253.881 10688.789)" fill="#26aab7"/>
      <g id="Enmascarar_grupo_1098761" data-name="Enmascarar grupo 1098761" clip-path="url(#clip-path)">
        <g id="diseno-de-paginas-web" transform="translate(286.483 10745.482)">
          <g id="ICON">
            <path id="Trazado_875934" data-name="Trazado 875934" d="M70.345,17.586A2.344,2.344,0,0,0,68,15.241H7.034A2.344,2.344,0,0,0,4.69,17.586V57.448a2.344,2.344,0,0,0,2.345,2.345H68a2.344,2.344,0,0,0,2.345-2.345Z" fill="#dee6f6" fill-rule="evenodd"/>
            <path id="Trazado_875935" data-name="Trazado 875935" d="M4.69,25.207H21.565a3.517,3.517,0,0,0,2.928-1.566L25.921,21.5a3.517,3.517,0,0,1,2.928-1.566h41.5V17.586A2.344,2.344,0,0,0,68,15.241H7.034A2.344,2.344,0,0,0,4.69,17.586Z" fill="#7d6eb2" fill-rule="evenodd"/>
            <path id="Trazado_875936" data-name="Trazado 875936" d="M65.655,31.655A1.759,1.759,0,0,0,63.9,29.9H11.138a1.759,1.759,0,0,0-1.759,1.759v5.276a1.759,1.759,0,0,0,1.759,1.759H63.9a1.759,1.759,0,0,0,1.759-1.759Z" fill="#ffd947" fill-rule="evenodd"/>
            <path id="Trazado_875937" data-name="Trazado 875937" d="M23.448,45.138a1.757,1.757,0,0,0-1.759-1.759H11.138a1.757,1.757,0,0,0-1.759,1.759v8.207A1.757,1.757,0,0,0,11.138,55.1H21.69a1.757,1.757,0,0,0,1.759-1.759Z" fill="#aee6e6" fill-rule="evenodd"/>
          </g>
          <g id="Layer1">
            <circle id="Elipse_11636" data-name="Elipse 11636" cx="1.172" cy="1.172" r="1.172" transform="translate(11.724 58.621)"/>
            <circle id="Elipse_11637" data-name="Elipse 11637" cx="1.466" cy="1.466" r="1.466" transform="translate(8.207 18.759)"/>
            <circle id="Elipse_11638" data-name="Elipse 11638" cx="1.466" cy="1.466" r="1.466" transform="translate(13.483 18.759)"/>
            <circle id="Elipse_11639" data-name="Elipse 11639" cx="1.466" cy="1.466" r="1.466" transform="translate(18.759 18.759)"/>
            <path id="Trazado_875938" data-name="Trazado 875938" d="M5.862,26.379h15.7a4.69,4.69,0,0,0,3.9-2.088L26.9,22.148A2.345,2.345,0,0,1,28.848,21.1H69.172V57.448A1.173,1.173,0,0,1,68,58.621H16.414a1.172,1.172,0,1,0,0,2.345H68a3.517,3.517,0,0,0,3.517-3.517V17.586A3.517,3.517,0,0,0,68,14.069H65.655a1.172,1.172,0,1,0,0,2.345H68a1.173,1.173,0,0,1,1.172,1.172v1.172H28.848a4.69,4.69,0,0,0-3.9,2.088L23.517,22.99a2.345,2.345,0,0,1-1.952,1.045H5.862V17.586a1.173,1.173,0,0,1,1.172-1.172h55.1a1.172,1.172,0,0,0,0-2.345H7.034a3.517,3.517,0,0,0-3.517,3.517V57.448a3.517,3.517,0,0,0,3.517,3.517H9.379a1.172,1.172,0,1,0,0-2.345H7.034a1.173,1.173,0,0,1-1.172-1.172Z" fill-rule="evenodd"/>
            <path id="Trazado_875939" data-name="Trazado 875939" d="M61.552,39.862H63.9a2.931,2.931,0,0,0,2.931-2.931V31.655A2.931,2.931,0,0,0,63.9,28.724H11.138a2.931,2.931,0,0,0-2.931,2.931v5.276a2.931,2.931,0,0,0,2.931,2.931h46.9a1.172,1.172,0,1,0,0-2.345h-46.9a.586.586,0,0,1-.586-.586V31.655a.586.586,0,0,1,.586-.586H63.9a.586.586,0,0,1,.586.586v5.276a.586.586,0,0,1-.586.586H61.552a1.172,1.172,0,0,0,0,2.345Z" fill-rule="evenodd"/>
            <path id="Trazado_875940" data-name="Trazado 875940" d="M24.621,45.138a2.93,2.93,0,0,0-2.931-2.931H11.138a2.93,2.93,0,0,0-2.931,2.931v8.207a2.93,2.93,0,0,0,2.931,2.931H21.69a2.93,2.93,0,0,0,2.931-2.931Zm-2.345,0v8.207a.584.584,0,0,1-.586.586H11.138a.584.584,0,0,1-.586-.586V45.138a.584.584,0,0,1,.586-.586H21.69a.584.584,0,0,1,.586.586Z" fill-rule="evenodd"/>
            <path id="Trazado_875941" data-name="Trazado 875941" d="M28.138,45.724H39.862a1.172,1.172,0,1,0,0-2.345H28.138a1.172,1.172,0,0,0,0,2.345Z" fill-rule="evenodd"/>
            <path id="Trazado_875942" data-name="Trazado 875942" d="M44.552,45.724H62.138a1.172,1.172,0,0,0,0-2.345H44.552a1.172,1.172,0,0,0,0,2.345Z" fill-rule="evenodd"/>
            <path id="Trazado_875943" data-name="Trazado 875943" d="M28.138,50.414H39.862a1.172,1.172,0,1,0,0-2.345H28.138a1.172,1.172,0,0,0,0,2.345Z" fill-rule="evenodd"/>
            <path id="Trazado_875944" data-name="Trazado 875944" d="M44.552,50.414H64.483a1.172,1.172,0,0,0,0-2.345H44.552a1.172,1.172,0,0,0,0,2.345Z" fill-rule="evenodd"/>
            <path id="Trazado_875945" data-name="Trazado 875945" d="M28.138,55.1H39.862a1.172,1.172,0,1,0,0-2.345H28.138a1.172,1.172,0,1,0,0,2.345Z" fill-rule="evenodd"/>
            <path id="Trazado_875946" data-name="Trazado 875946" d="M44.552,55.1H56.276a1.172,1.172,0,1,0,0-2.345H44.552a1.172,1.172,0,1,0,0,2.345Z" fill-rule="evenodd"/>
          </g>
        </g>
      </g>
    </g>
  </g>
</svg>
