<svg xmlns="http://www.w3.org/2000/svg" xmlns:xlink="http://www.w3.org/1999/xlink" width="63" height="63" viewBox="0 0 63 63">
  <defs>
    <clipPath id="clip-path">
      <rect id="Rectángulo_401533" data-name="Rectángulo 401533" width="63" height="63" transform="translate(1284 615)" fill="#fff" stroke="#707070" stroke-width="1"/>
    </clipPath>
  </defs>
  <g id="Enmascarar_grupo_1098721" data-name="Enmascarar grupo 1098721" transform="translate(-1284 -615)" clip-path="url(#clip-path)">
    <g id="youtube" transform="translate(1284 624.445)">
      <path id="Trazado_874107" data-name="Trazado 874107" d="M61.7,6.9A7.893,7.893,0,0,0,56.15,1.349C51.219,0,31.5,0,31.5,0S11.78,0,6.85,1.3A8.054,8.054,0,0,0,1.3,6.9C0,11.832,0,22.055,0,22.055S0,32.33,1.3,37.208A7.9,7.9,0,0,0,6.85,42.761C11.832,44.11,31.5,44.11,31.5,44.11s19.72,0,24.65-1.3A7.893,7.893,0,0,0,61.7,37.26C63,32.33,63,22.107,63,22.107s.052-10.275-1.3-15.2Zm0,0" fill="red"/>
      <path id="Trazado_874108" data-name="Trazado 874108" d="M25.221,31.5l16.4-9.445-16.4-9.445Zm0,0" fill="#fff"/>
    </g>
  </g>
</svg>
