<svg xmlns="http://www.w3.org/2000/svg" xmlns:xlink="http://www.w3.org/1999/xlink" width="78.501" height="67.148" viewBox="0 0 78.501 67.148">
  <defs>
    <clipPath id="clip-path">
      <rect id="Rectángulo_401558" data-name="Rectángulo 401558" width="58" height="58" transform="translate(421 2294)" fill="#fff" stroke="#707070" stroke-width="1"/>
    </clipPath>
  </defs>
  <g id="Grupo_1099947" data-name="Grupo 1099947" transform="translate(-410 -2293.676)">
    <path id="_12068" data-name="12068" d="M72.033,71.913c-8.038-1.11-16.53-.839-23.844,2.675C38.045,79.46,31.382,90.507,31.127,101.757s5.606,22.305,14.66,28.988,21,9.051,32.068,7.045c11.165-2.023,21.645-8.583,27.469-18.322,3.735-6.245,5.48-13.956,3.417-20.934a28.6,28.6,0,0,0-6.787-11.156A50.145,50.145,0,0,0,72.033,71.913Z" transform="translate(378.881 2222.343)" fill="#26aab7"/>
    <g id="Enmascarar_grupo_1098730" data-name="Enmascarar grupo 1098730" clip-path="url(#clip-path)">
      <g id="interaccion" transform="translate(421 2294)">
        <g id="Grupo_1099971" data-name="Grupo 1099971">
          <path id="Trazado_874277" data-name="Trazado 874277" d="M32.211,56.42c.472-.343-.547-3.486-.411-3.9.095-.292,1.712-2.851,1.712-2.851a15.114,15.114,0,0,1-2.434-.345c-.364-.265-1.344-3.416-2.013-3.416s-1.649,3.152-2.013,3.416-3.664.223-3.871.859,2.488,2.542,2.627,2.97a15.124,15.124,0,0,1-.424,2.421s2.934-.748,3.241-.748c.439,0,3.113,1.94,3.585,1.6Z" fill="#f8e883"/>
          <path id="Trazado_874278" data-name="Trazado 874278" d="M33.512,49.666c-.73.805-2.078,1.828-2.175,2.127-.139.428.92,3.554.379,3.947s-3.186-1.581-3.636-1.581c-.315,0-1.7.965-2.7,1.411-.128.721-.182,1.361.044,1.525.541.393,3.186-1.581,3.636-1.581s3.1,1.974,3.636,1.581-.519-3.519-.379-3.947,2.834-2.334,2.627-2.97c-.086-.265-.712-.413-1.437-.513Z" fill="#ffd064"/>
          <path id="Trazado_874279" data-name="Trazado 874279" d="M19.933,22.375a5.2,5.2,0,0,0-1.577-3.72,12.33,12.33,0,0,0-7.012-1.768c-6.415,0-9.608,2.914-9.608,6.508a5.459,5.459,0,0,0,.9,3.04c1.784,1.784,4.612,2.448,7.692,2.448,6.415,0,9.608-2.913,9.608-6.508Z" fill="#fbfeff"/>
          <path id="Trazado_874280" data-name="Trazado 874280" d="M20.952,23.395a5.615,5.615,0,0,0-2.6-4.739,5.459,5.459,0,0,1,.9,3.04c0,3.594-3.193,6.508-9.608,6.508a12.33,12.33,0,0,1-7.012-1.768A7.294,7.294,0,0,0,6.576,29.22v3.116a.967.967,0,0,0,1.65.684L11.344,29.9C17.759,29.9,20.952,26.989,20.952,23.395Z" fill="#d3effd"/>
          <path id="Trazado_874281" data-name="Trazado 874281" d="M44.807,39.212A3.227,3.227,0,0,0,43.7,36.754a8.941,8.941,0,0,0-4.476-1c-4.412,0-6.608,2-6.608,4.475a3.778,3.778,0,0,0,.432,1.778A7.351,7.351,0,0,0,38.2,43.687C42.611,43.687,44.807,41.684,44.807,39.212Z" fill="#fbfeff"/>
          <path id="Trazado_874282" data-name="Trazado 874282" d="M43.7,36.754a3.777,3.777,0,0,1,.432,1.778c0,2.472-2.2,4.475-6.608,4.475a8.941,8.941,0,0,1-4.476-1,4.831,4.831,0,0,0,2.9,2.228v2.143a.665.665,0,0,0,1.135.47l2.144-2.144c4.412,0,6.608-2,6.608-4.475A3.934,3.934,0,0,0,43.7,36.754Z" fill="#d3effd"/>
          <path id="Trazado_874283" data-name="Trazado 874283" d="M12.581,7.826a6.942,6.942,0,0,0,1.268,4.009,6.742,6.742,0,0,0,4.689,1.948,6.977,6.977,0,0,0,6.977-6.977,5.943,5.943,0,0,0-1.948-4.689A6.975,6.975,0,0,0,12.581,7.826Z" fill="#f8e883"/>
          <path id="Trazado_874284" data-name="Trazado 874284" d="M17.858,13.1a6.943,6.943,0,0,1-4.009-1.268,6.976,6.976,0,1,0,9.717-9.717A6.975,6.975,0,0,1,17.858,13.1Z" fill="#ffd064"/>
          <path id="Trazado_874285" data-name="Trazado 874285" d="M24.411,22.453a10.281,10.281,0,0,0,2.224,6.4,9.392,9.392,0,0,0,7.082,2.9A10.325,10.325,0,0,0,44.042,21.433a9.86,9.86,0,0,0-2.9-7.082,10.325,10.325,0,0,0-16.727,8.1Z" fill="#f8e883"/>
          <path id="Trazado_874286" data-name="Trazado 874286" d="M33.037,31.079a10.281,10.281,0,0,1-6.4-2.224,10.325,10.325,0,1,0,14.5-14.5,10.325,10.325,0,0,1-8.1,16.727Z" fill="#ffd064"/>
          <path id="Trazado_874287" data-name="Trazado 874287" d="M33.966,1.665a2.436,2.436,0,0,0-4.255,1.62c0,1.35.77,2.609,2.561,4.067.087.058.882.5.968.437,2.906-1.972,4.3-3.494,4.3-5.184a2.818,2.818,0,0,0-.854-1.582,2.43,2.43,0,0,0-2.721.641Z" fill="#e279b3"/>
          <path id="Trazado_874288" data-name="Trazado 874288" d="M32.56,7.352a.257.257,0,0,1-.288,0c.451.367.965.746,1.549,1.142a.257.257,0,0,0,.289,0c2.906-1.972,4.11-3.519,4.11-5.209a2.435,2.435,0,0,0-1.534-2.261,2.427,2.427,0,0,1,.175.9c0,1.69-1.4,3.454-4.3,5.425Z" fill="#de5791"/>
          <path id="Trazado_874289" data-name="Trazado 874289" d="M17.774,56.731c1.918-1.3,2.731-2.416,2.731-3.531a1.552,1.552,0,0,0-.568-1.036,1.6,1.6,0,0,0-1.735.446,1.608,1.608,0,0,0-2.809,1.07,3.411,3.411,0,0,0,1.516,2.54A5.033,5.033,0,0,0,17.774,56.731Z" fill="#e279b3"/>
          <path id="Trazado_874290" data-name="Trazado 874290" d="M19.938,52.164a1.419,1.419,0,0,1,.055.383c0,1.116-.974,2.37-2.892,3.672a.17.17,0,0,1-.19,0,13.826,13.826,0,0,0,1.2.9.17.17,0,0,0,.191,0c1.918-1.3,2.714-2.324,2.714-3.439a1.607,1.607,0,0,0-1.074-1.516Z" fill="#de5791"/>
          <path id="Trazado_874291" data-name="Trazado 874291" d="M20.155,34.3a4.859,4.859,0,0,0-8.488,3.232c0,2.941,1.831,5.667,6.147,8.926.173.117,1.192.721,1.365.6,5.8-3.934,8.445-7.178,8.445-10.549a4.807,4.807,0,0,0-1.36-3.16,4.859,4.859,0,0,0-6.109.947Z" fill="#e279b3"/>
          <path id="Trazado_874292" data-name="Trazado 874292" d="M18.388,46.462a.513.513,0,0,1-.574,0q.946.714,2.053,1.466a.513.513,0,0,0,.576,0c5.8-3.934,8.2-7.021,8.2-10.392a4.857,4.857,0,0,0-2.38-4.179,4.836,4.836,0,0,1,.681,2.48C26.944,39.209,24.185,42.529,18.388,46.462Z" fill="#de5791"/>
        </g>
        <g id="Grupo_1099972" data-name="Grupo 1099972">
          <path id="Trazado_874293" data-name="Trazado 874293" d="M32.519,58a6.428,6.428,0,0,1-2.66-1.138c-.257-.15-.587-.342-.793-.447-.206.1-.535.3-.793.447-1.586.925-2.6,1.464-3.343.921s-.546-1.67-.157-3.464c.063-.291.144-.664.18-.892-.163-.163-.448-.418-.67-.616-1.37-1.223-2.195-2.017-1.909-2.895s1.419-1.035,3.246-1.219c.3-.03.676-.068.9-.1.105-.206.259-.555.379-.828.74-1.68,1.24-2.71,2.163-2.71s1.423,1.03,2.163,2.71c.12.273.274.622.379.828.228.036.608.075.9.1,1.827.184,2.961.342,3.246,1.22s-.54,1.672-1.909,2.894c-.222.2-.507.453-.67.616.036.228.117.6.18.892.389,1.794.59,2.921-.157,3.464a1.122,1.122,0,0,1-.683.217Zm-3.453-3.334c.385,0,.76.21,1.649.728.31.181.835.487,1.254.693-.066-.462-.195-1.056-.271-1.407a3.754,3.754,0,0,1-.183-1.793c.119-.366.435-.658,1.2-1.343.268-.239.721-.644,1.046-.979-.46-.08-1.064-.141-1.422-.177a3.756,3.756,0,0,1-1.762-.38c-.311-.226-.492-.617-.906-1.558-.145-.329-.389-.885-.608-1.3-.218.413-.463.969-.608,1.3-.414.941-.595,1.332-.906,1.558a3.755,3.755,0,0,1-1.762.38c-.358.036-.962.1-1.422.177.325.335.778.74,1.046.979.767.685,1.083.977,1.2,1.343a3.753,3.753,0,0,1-.183,1.793c-.076.351-.205.945-.271,1.407.419-.206.944-.512,1.254-.693.889-.518,1.265-.728,1.649-.728ZM18.2,58a1.017,1.017,0,0,1-.573-.177c-2.163-1.468-3.086-2.707-3.086-4.142A2.457,2.457,0,0,1,18.2,51.535a2.457,2.457,0,0,1,3.659,2.144c0,1.435-.923,2.674-3.086,4.142A1.017,1.017,0,0,1,18.2,58ZM17,52.921a.76.76,0,0,0-.759.759c0,.5.233,1.226,1.96,2.47,1.727-1.244,1.96-1.97,1.96-2.47a.76.76,0,0,0-.759-.759.749.749,0,0,0-.567.254.85.85,0,0,1-1.268,0A.749.749,0,0,0,17,52.921Zm3.153-4.052a1.36,1.36,0,0,1-.765-.237c-6.009-4.078-8.573-7.4-8.573-11.095a5.709,5.709,0,0,1,9.338-4.407,5.709,5.709,0,0,1,9.338,4.407,8.257,8.257,0,0,1-1.461,4.61.85.85,0,0,1-1.423-.929,6.613,6.613,0,0,0,1.184-3.682,4.01,4.01,0,0,0-7-2.667.85.85,0,0,1-1.268,0,4.01,4.01,0,0,0-7,2.667c0,3.032,2.287,5.9,7.639,9.56a35.023,35.023,0,0,0,4.31-3.387.85.85,0,0,1,1.169,1.233,37.311,37.311,0,0,1-4.714,3.689,1.359,1.359,0,0,1-.765.237ZM36.606,47.9a1.517,1.517,0,0,1-1.516-1.515V44.825a4.975,4.975,0,0,1-3.328-4.594c0-2.456,1.953-5.325,7.457-5.325s7.457,2.868,7.457,5.325c0,2.4-1.868,5.2-7.1,5.321l-1.9,1.9A1.51,1.51,0,0,1,36.606,47.9Zm2.613-11.29c-3.552,0-5.758,1.389-5.758,3.626,0,1.478.975,2.615,2.745,3.2a.85.85,0,0,1,.583.807v1.7l1.829-1.829a.849.849,0,0,1,.6-.249c3.552,0,5.758-1.389,5.758-3.626S42.771,36.606,39.219,36.606Zm12.617,9.7a.85.85,0,0,1-.85-.85V10.98l-2.978,2.978a.85.85,0,1,1-1.2-1.2l4.428-4.428a.85.85,0,0,1,1.2,0l4.428,4.428a.85.85,0,0,1-1.2,1.2L52.686,10.98V45.458a.85.85,0,0,1-.85.85ZM7.544,34.154a1.819,1.819,0,0,1-1.818-1.817v-2.52c-3.086-1.21-4.84-3.523-4.84-6.422,0-3.078,1.977-5.5,5.423-6.634a.85.85,0,1,1,.533,1.613c-2.745.906-4.257,2.689-4.257,5.02S4.1,27.507,6.842,28.413a.85.85,0,0,1,.583.807v3.117a.117.117,0,0,0,.2.083L10.743,29.3a.849.849,0,0,1,.6-.249,11.364,11.364,0,0,0,6.706-1.741,4.764,4.764,0,0,0,0-7.835,11.364,11.364,0,0,0-6.706-1.741c-.5,0-.983.018-1.446.055A.85.85,0,0,1,9.765,16.1c.507-.04,1.039-.06,1.579-.06a13,13,0,0,1,7.713,2.071,6.462,6.462,0,0,1,0,10.572A12.752,12.752,0,0,1,11.7,30.749L8.827,33.621A1.812,1.812,0,0,1,7.544,34.154Zm27.192-.527a11.175,11.175,0,1,1,0-22.35.85.85,0,0,1,0,1.7,9.465,9.465,0,1,0,2.987.48.85.85,0,1,1,.535-1.613,11.177,11.177,0,0,1-3.522,21.783Zm0-5.539a7.346,7.346,0,0,1-5.761-2.973A.85.85,0,1,1,30.3,24.058a5.377,5.377,0,0,0,8.863,0A.85.85,0,1,1,40.5,25.116a7.347,7.347,0,0,1-5.761,2.972Zm2.33-6.309a.85.85,0,0,1-.85-.85V18.95a.85.85,0,0,1,1.7,0v1.98A.85.85,0,0,1,37.065,21.779Zm-4.659,0a.85.85,0,0,1-.85-.85V18.95a.85.85,0,0,1,1.7,0v1.98A.85.85,0,0,1,32.406,21.779ZM19.557,15.652a7.826,7.826,0,1,1,7.826-7.826A7.835,7.835,0,0,1,19.557,15.652Zm0-13.953a6.127,6.127,0,1,0,6.127,6.127A6.134,6.134,0,0,0,19.557,1.7Zm0,10.211A5.234,5.234,0,0,1,15.449,9.8a.85.85,0,1,1,1.329-1.058,3.571,3.571,0,0,0,2.779,1.471,3.571,3.571,0,0,0,2.779-1.471A.85.85,0,1,1,23.665,9.8a5.233,5.233,0,0,1-4.108,2.112ZM33.966,9.39a1.1,1.1,0,0,1-.621-.192C30.2,7.065,28.862,5.3,28.862,3.286A3.285,3.285,0,0,1,33.966.55a3.285,3.285,0,0,1,5.1,2.736c0,2.012-1.341,3.78-4.483,5.912h0a1.105,1.105,0,0,1-.621.192ZM32.147,1.7a1.588,1.588,0,0,0-1.586,1.586c0,1.32,1.023,2.611,3.405,4.277,2.382-1.666,3.405-2.956,3.405-4.277A1.586,1.586,0,0,0,34.6,2.231a.85.85,0,0,1-1.268,0A1.588,1.588,0,0,0,32.147,1.7ZM21.131,7.647a.85.85,0,0,1-.85-.85V5.46a.85.85,0,1,1,1.7,0V6.8A.85.85,0,0,1,21.131,7.647Zm-3.148,0a.85.85,0,0,1-.85-.85V5.46a.85.85,0,1,1,1.7,0V6.8A.85.85,0,0,1,17.983,7.647Z"/>
        </g>
      </g>
    </g>
  </g>
</svg>
