<svg xmlns="http://www.w3.org/2000/svg" xmlns:xlink="http://www.w3.org/1999/xlink" width="78.501" height="67.148" viewBox="0 0 78.501 67.148">
  <defs>
    <clipPath id="clip-path">
      <rect id="Rectángulo_401558" data-name="Rectángulo 401558" width="58" height="58" transform="translate(421 2294)" fill="#fff" stroke="#707070" stroke-width="1"/>
    </clipPath>
  </defs>
  <g id="Grupo_1099946" data-name="Grupo 1099946" transform="translate(-410 -2293.676)">
    <path id="_12068" data-name="12068" d="M72.033,71.913c-8.038-1.11-16.53-.839-23.844,2.675C38.045,79.46,31.382,90.507,31.127,101.757s5.606,22.305,14.66,28.988,21,9.051,32.068,7.045c11.165-2.023,21.645-8.583,27.469-18.322,3.735-6.245,5.48-13.956,3.417-20.934a28.6,28.6,0,0,0-6.787-11.156A50.145,50.145,0,0,0,72.033,71.913Z" transform="translate(378.881 2222.343)" fill="#26aab7"/>
    <g id="Enmascarar_grupo_1098731" data-name="Enmascarar grupo 1098731" clip-path="url(#clip-path)">
      <g id="computer" transform="translate(419.067 2292.066)">
        <path id="Trazado_874294" data-name="Trazado 874294" d="M58.967,16.433V43.5H2.9V16.433A1.939,1.939,0,0,1,4.833,14.5h52.2A1.939,1.939,0,0,1,58.967,16.433Z" fill="#57a4ff"/>
        <path id="Trazado_874295" data-name="Trazado 874295" d="M58.967,16.433V43.5H2.9V39.633H43.5a11.6,11.6,0,0,0,11.6-11.6v-11.6A1.939,1.939,0,0,0,53.167,14.5h3.867A1.939,1.939,0,0,1,58.967,16.433Z" fill="#2488ff"/>
        <path id="Trazado_874296" data-name="Trazado 874296" d="M51.233,26.1H55.1V39.633H51.233Z" fill="#ff7956"/>
        <path id="Trazado_874297" data-name="Trazado 874297" d="M43.5,28.033h3.867v11.6H43.5Z" fill="#ffde55"/>
        <path id="Trazado_874298" data-name="Trazado 874298" d="M42.533,58.967h-23.2l2.9-3.867h17.4Z" fill="#c6c5ca"/>
        <path id="Trazado_874299" data-name="Trazado 874299" d="M35.767,31.9h3.867v7.733H35.767Z" fill="#00ddc2"/>
        <path id="Trazado_874300" data-name="Trazado 874300" d="M37.893,6.38a8.665,8.665,0,0,1,1.74,5.22,7.987,7.987,0,0,1-.058.967H30.933V2.9a8.692,8.692,0,0,1,6.96,3.48Z" fill="#ff7956"/>
        <path id="Trazado_874301" data-name="Trazado 874301" d="M24.959,17.922A8.7,8.7,0,0,1,30.933,2.9v9.667h8.642a8.15,8.15,0,0,1-.445,1.933,8.693,8.693,0,0,1-14.171,3.422Z" fill="#ffde55"/>
        <path id="Trazado_874302" data-name="Trazado 874302" d="M39.575,15.467a8.15,8.15,0,0,1-.445,1.933,8.7,8.7,0,0,1-16.9-2.9,8.984,8.984,0,0,1,.116-1.45,8.88,8.88,0,0,0,.387,1.45,8.542,8.542,0,0,0,2.223,3.422,8.686,8.686,0,0,0,13.756-2.455Z" fill="#2488ff"/>
        <path id="Trazado_874303" data-name="Trazado 874303" d="M37.7,55.1H24.167l.967-5.8h11.6Z" fill="#57a4ff"/>
        <path id="Trazado_874304" data-name="Trazado 874304" d="M58.967,43.5v3.867A1.939,1.939,0,0,1,57.033,49.3H4.833A1.939,1.939,0,0,1,2.9,47.367V43.5Z" fill="#c6c5ca"/>
        <path id="Trazado_874305" data-name="Trazado 874305" d="M25.133,49.3h11.6v2.9h-11.6Z" fill="#2488ff"/>
        <path id="Trazado_874306" data-name="Trazado 874306" d="M11.6,23.2h4.833A4.833,4.833,0,1,1,11.6,18.367Z" fill="#ffde55"/>
        <path id="Trazado_874307" data-name="Trazado 874307" d="M35.767,31.9h3.867v7.733H35.767Z" fill="#00d7df"/>
        <path id="Trazado_874308" data-name="Trazado 874308" d="M51.233,26.1H55.1v1.933H51.233Z" fill="#ff5023"/>
        <path id="Trazado_874309" data-name="Trazado 874309" d="M43.5,28.033h3.867v1.933H43.5Z" fill="#ebbf00"/>
        <path id="Trazado_874310" data-name="Trazado 874310" d="M35.767,31.9h3.867v1.933H35.767Z" fill="#009698"/>
        <path id="Trazado_874311" data-name="Trazado 874311" d="M57.033,13.533H40.407A9.86,9.86,0,0,0,40.6,11.6a9.632,9.632,0,0,0-1.4-4.988l3.654-2.745h7.414V1.933H42.533a.951.951,0,0,0-.58.193L38.038,5.065a9.625,9.625,0,0,0-14.21,0L19.913,2.127a.951.951,0,0,0-.58-.193H11.6V3.867h7.414l3.654,2.745a9.632,9.632,0,0,0-1.4,4.988,9.86,9.86,0,0,0,.193,1.933H4.833a2.909,2.909,0,0,0-2.9,2.9V47.367a2.909,2.909,0,0,0,2.9,2.9H24.167v3.867h-2.9a.98.98,0,0,0-.773.387l-2.9,3.867a.967.967,0,0,0,.773,1.547H43.5a.967.967,0,0,0,.773-1.547l-2.9-3.867a.98.98,0,0,0-.773-.387H37.7V50.267H57.033a2.909,2.909,0,0,0,2.9-2.9V16.433a2.909,2.909,0,0,0-2.9-2.9ZM31.9,3.934a7.712,7.712,0,0,1,4.582,2.291l-2.262,1.7,1.16,1.547,2.262-1.7A7.68,7.68,0,0,1,38.667,11.6H31.9ZM24.225,7.772l2.262,1.7,1.16-1.547-2.262-1.7a7.712,7.712,0,0,1,4.582-2.291v8.632a.967.967,0,0,0,.967.967h7.482A7.728,7.728,0,1,1,24.225,7.772ZM40.117,56.067,41.567,58H20.3l1.45-1.933ZM26.1,54.133V50.267h9.667v3.867ZM58,47.367a.967.967,0,0,1-.967.967H4.833a.967.967,0,0,1-.967-.967v-2.9H58Zm0-4.833H3.867v-26.1a.967.967,0,0,1,.967-.967H22.079a9.659,9.659,0,0,0,17.709,0H57.033a.967.967,0,0,1,.967.967Z"/>
        <path id="Trazado_874312" data-name="Trazado 874312" d="M52.2,1.933h3.867V3.867H52.2Z"/>
        <path id="Trazado_874313" data-name="Trazado 874313" d="M42.533,5.8h1.933V7.733H42.533Z"/>
        <path id="Trazado_874314" data-name="Trazado 874314" d="M46.4,5.8h9.667V7.733H46.4Z"/>
        <path id="Trazado_874315" data-name="Trazado 874315" d="M42.533,9.667h7.733V11.6H42.533Z"/>
        <path id="Trazado_874316" data-name="Trazado 874316" d="M52.2,9.667h3.867V11.6H52.2Z"/>
        <path id="Trazado_874317" data-name="Trazado 874317" d="M5.8,1.933H9.667V3.867H5.8Z"/>
        <path id="Trazado_874318" data-name="Trazado 874318" d="M17.4,5.8h1.933V7.733H17.4Z"/>
        <path id="Trazado_874319" data-name="Trazado 874319" d="M5.8,5.8h9.667V7.733H5.8Z"/>
        <path id="Trazado_874320" data-name="Trazado 874320" d="M11.6,9.667h7.733V11.6H11.6Z"/>
        <path id="Trazado_874321" data-name="Trazado 874321" d="M5.8,9.667H9.667V11.6H5.8Z"/>
        <path id="Trazado_874322" data-name="Trazado 874322" d="M5.8,30.933h4.833v1.933H5.8Z"/>
        <path id="Trazado_874323" data-name="Trazado 874323" d="M12.567,30.933H30.933v1.933H12.567Z"/>
        <path id="Trazado_874324" data-name="Trazado 874324" d="M5.8,34.8H21.267v1.933H5.8Z"/>
        <path id="Trazado_874325" data-name="Trazado 874325" d="M23.2,34.8h7.733v1.933H23.2Z"/>
        <path id="Trazado_874326" data-name="Trazado 874326" d="M5.8,38.667h9.667V40.6H5.8Z"/>
        <path id="Trazado_874327" data-name="Trazado 874327" d="M17.4,38.667H30.933V40.6H17.4Z"/>
        <path id="Trazado_874328" data-name="Trazado 874328" d="M35.767,40.6h3.867a.967.967,0,0,0,.967-.967V31.9a.967.967,0,0,0-.967-.967H35.767a.967.967,0,0,0-.967.967v7.733A.967.967,0,0,0,35.767,40.6Zm.967-7.733h1.933v5.8H36.733Z"/>
        <path id="Trazado_874329" data-name="Trazado 874329" d="M47.367,27.067H43.5a.967.967,0,0,0-.967.967v11.6a.967.967,0,0,0,.967.967h3.867a.967.967,0,0,0,.967-.967v-11.6A.967.967,0,0,0,47.367,27.067Zm-.967,11.6H44.467V29H46.4Z"/>
        <path id="Trazado_874330" data-name="Trazado 874330" d="M55.1,25.133H51.233a.967.967,0,0,0-.967.967V39.633a.967.967,0,0,0,.967.967H55.1a.967.967,0,0,0,.967-.967V26.1A.967.967,0,0,0,55.1,25.133Zm-.967,13.533H52.2v-11.6h1.933Z"/>
        <path id="Trazado_874331" data-name="Trazado 874331" d="M11.6,29a5.806,5.806,0,0,0,5.8-5.8.967.967,0,0,0-.967-.967H12.567V18.367A.967.967,0,0,0,11.6,17.4a5.8,5.8,0,1,0,0,11.6Zm-.967-9.545V23.2a.967.967,0,0,0,.967.967h3.744a3.867,3.867,0,1,1-4.711-4.712Z"/>
        <path id="Trazado_874332" data-name="Trazado 874332" d="M19.333,23.2h1.933v1.933H19.333Z"/>
        <path id="Trazado_874333" data-name="Trazado 874333" d="M23.2,23.2h7.733v1.933H23.2Z"/>
        <path id="Trazado_874334" data-name="Trazado 874334" d="M19.333,27.067h11.6V29h-11.6Z"/>
        <path id="Trazado_874335" data-name="Trazado 874335" d="M40.5,28.465l1.661-3.332h5.2a.967.967,0,0,0,.743-.348l4.543-5.452h3.413V17.4H52.2a.967.967,0,0,0-.743.348L46.913,23.2H41.567a.967.967,0,0,0-.87.535l-1.661,3.332H34.8V29h4.833a.967.967,0,0,0,.87-.535Z"/>
      </g>
    </g>
  </g>
</svg>
