<svg xmlns="http://www.w3.org/2000/svg" xmlns:xlink="http://www.w3.org/1999/xlink" width="78.501" height="67.149" viewBox="0 0 78.501 67.149">
  <defs>
    <clipPath id="clip-path">
      <rect id="Rectángulo_401558" data-name="Rectángulo 401558" width="58" height="58" transform="translate(421 2294)" fill="#fff" stroke="#707070" stroke-width="1"/>
    </clipPath>
  </defs>
  <g id="Grupo_1099944" data-name="Grupo 1099944" transform="translate(-410 -2293.675)">
    <path id="_12068" data-name="12068" d="M72.033,71.913c-8.038-1.11-16.53-.839-23.844,2.675C38.045,79.46,31.382,90.507,31.127,101.757s5.606,22.305,14.66,28.988,21,9.051,32.068,7.045c11.165-2.023,21.645-8.583,27.469-18.322,3.735-6.245,5.48-13.956,3.417-20.934a28.6,28.6,0,0,0-6.787-11.156A50.145,50.145,0,0,0,72.033,71.913Z" transform="translate(378.881 2222.343)" fill="#26aab7"/>
    <g id="Enmascarar_grupo_1098728" data-name="Enmascarar grupo 1098728" clip-path="url(#clip-path)">
      <g id="red" transform="translate(421 2294)">
        <g id="Grupo_1099964" data-name="Grupo 1099964">
          <g id="Grupo_1099963" data-name="Grupo 1099963">
            <path id="Trazado_874238" data-name="Trazado 874238" d="M15.219,15.26A14.371,14.371,0,0,0,8.1,42.114l.976-.533L21.383,41.4l.937.722a14.371,14.371,0,0,0-7.1-26.864Z" fill="#98bce5"/>
            <path id="Trazado_874239" data-name="Trazado 874239" d="M10.687,38.067A14.373,14.373,0,0,1,18.769,15.7,14.373,14.373,0,0,0,8.1,42.114Z" fill="#7bacdf"/>
            <circle id="Elipse_11579" data-name="Elipse 11579" cx="10.974" cy="10.974" r="10.974" transform="translate(4.245 18.656)" fill="#5f99d7"/>
            <path id="Trazado_874240" data-name="Trazado 874240" d="M12.714,18.944a10.975,10.975,0,0,0,0,21.37,14.366,14.366,0,0,1,0-21.37Z" fill="#3c87d0"/>
            <g id="XMLID_171_">
              <g id="Grupo_1099955" data-name="Grupo 1099955">
                <path id="Trazado_874241" data-name="Trazado 874241" d="M22.266,38.77a2.662,2.662,0,0,0-.961-2.048L17.27,33.371l-.835-.856H14l-.857.856L9.108,36.722a2.666,2.666,0,0,0-.961,2.048L8.1,42.114a14.392,14.392,0,0,0,14.223.01Z" fill="#ade194"/>
                <path id="Trazado_874242" data-name="Trazado 874242" d="M17.854,33.856l-.584-.485-.835-.856H14l-.857.856L9.108,36.722a2.666,2.666,0,0,0-.961,2.048L8.1,42.114a14.311,14.311,0,0,0,2.709,1.193l.047-3.2a2.666,2.666,0,0,1,.961-2.048l1.069-.888a2,2,0,0,1,1.634-.446,3.782,3.782,0,0,0,.689.063,3.763,3.763,0,0,0,3.452-2.269Z" fill="#97da7b"/>
                <path id="Trazado_874243" data-name="Trazado 874243" d="M17.27,29.62v3.413a2.025,2.025,0,0,1-.027.334,2.063,2.063,0,0,1-4.072,0,2.025,2.025,0,0,1-.027-.334V29.609l.043-.093a4.809,4.809,0,0,0,4.04.011Z" fill="#fed2a4"/>
                <path id="Trazado_874244" data-name="Trazado 874244" d="M18.075,19.646H12.613l-1.695-.557a.381.381,0,0,0-.5.362v4.7l1.631,1.745h7.08l.89-1.745V21.59a1.945,1.945,0,0,0-1.945-1.945Z" fill="#a79ba7"/>
                <path id="Trazado_874245" data-name="Trazado 874245" d="M13.143,21.633a.381.381,0,0,1,.5-.362l1.695.557h4.682V21.59a1.945,1.945,0,0,0-1.945-1.945H12.613l-1.695-.557a.381.381,0,0,0-.5.362v4.7l1.631,1.745h1.094Z" fill="#918291"/>
                <path id="Trazado_874246" data-name="Trazado 874246" d="M20.019,24.149V27.2a4.8,4.8,0,1,1-9.6,0V24.149Z" fill="#fed2a4"/>
                <path id="Trazado_874247" data-name="Trazado 874247" d="M15.911,31.553A4.8,4.8,0,0,1,13.143,27.2V24.149H10.419V27.2a4.8,4.8,0,0,0,6.162,4.6,4.8,4.8,0,0,1-.67-.253Z" fill="#ffbd86"/>
              </g>
            </g>
            <g id="XMLID_172_">
              <g id="Grupo_1099956" data-name="Grupo 1099956">
                <path id="Trazado_874248" data-name="Trazado 874248" d="M46.148.9a11,11,0,0,0-6.462,19.908l.97-.907,10.845.169,1.108.741A11,11,0,0,0,46.148.9Z" fill="#98bce5"/>
                <path id="Trazado_874249" data-name="Trazado 874249" d="M42.753,17.171A11.006,11.006,0,0,1,49.279,1.352a11,11,0,0,0-9.595,19.455Z" fill="#7bacdf"/>
                <path id="Trazado_874250" data-name="Trazado 874250" d="M46.147,19.508A7.607,7.607,0,1,1,53.754,11.9a7.615,7.615,0,0,1-7.607,7.606Z" fill="#5f99d7"/>
                <path id="Trazado_874251" data-name="Trazado 874251" d="M44.239,19.265a11,11,0,0,1,0-14.728,7.608,7.608,0,0,0,0,14.728Z" fill="#3c87d0"/>
              </g>
            </g>
            <g id="XMLID_173_">
              <g id="Grupo_1099958" data-name="Grupo 1099958">
                <g id="Grupo_1099957" data-name="Grupo 1099957">
                  <path id="Trazado_874252" data-name="Trazado 874252" d="M46.147,13.771A6.455,6.455,0,0,1,52.6,20.226l.006.582a11.009,11.009,0,0,1-12.924,0l.007-.58a6.456,6.456,0,0,1,6.456-6.456Z" fill="#f37c7c"/>
                  <path id="Trazado_874253" data-name="Trazado 874253" d="M46.147,4.294A4.738,4.738,0,1,1,41.41,9.032a4.738,4.738,0,0,1,4.737-4.737Z" fill="#ffe5c2"/>
                </g>
              </g>
            </g>
            <g id="XMLID_210_">
              <g id="Grupo_1099960" data-name="Grupo 1099960">
                <g id="Grupo_1099959" data-name="Grupo 1099959">
                  <path id="Trazado_874254" data-name="Trazado 874254" d="M42.22,21.886a6.461,6.461,0,0,1,8.634-6.079,6.456,6.456,0,0,0-11.162,4.419l-.007.58A10.5,10.5,0,0,0,42.216,22.2Z" fill="#ee6161"/>
                  <path id="Trazado_874255" data-name="Trazado 874255" d="M44.706,8.906A4.742,4.742,0,0,1,47.629,4.53a4.738,4.738,0,1,0,.338,8.878,4.74,4.74,0,0,1-3.26-4.5Z" fill="#fed2a4"/>
                </g>
              </g>
            </g>
            <g id="XMLID_191_">
              <path id="Trazado_874256" data-name="Trazado 874256" d="M46.148,35.1a11,11,0,0,0-6.455,19.914l1.049-.449,11.2.227.657.222A11,11,0,0,0,46.148,35.1Z" fill="#98bce5"/>
              <path id="Trazado_874257" data-name="Trazado 874257" d="M42.506,51.386a11.008,11.008,0,0,1,6.645-15.875,11,11,0,0,0-9.46,19.5Z" fill="#7bacdf"/>
              <g id="Grupo_1099961" data-name="Grupo 1099961">
                <path id="Trazado_874258" data-name="Trazado 874258" d="M46.147,53.706A7.607,7.607,0,1,1,53.754,46.1a7.615,7.615,0,0,1-7.607,7.607Z" fill="#5f99d7"/>
              </g>
              <path id="Trazado_874259" data-name="Trazado 874259" d="M43.9,53.366a11,11,0,0,1,0-14.534,7.608,7.608,0,0,0,0,14.534Z" fill="#3c87d0"/>
            </g>
            <circle id="Elipse_11580" data-name="Elipse 11580" cx="4.738" cy="4.738" r="4.738" transform="translate(41.41 38.492)" fill="#ffe5c2"/>
            <path id="Trazado_874260" data-name="Trazado 874260" d="M44.317,43.23A4.742,4.742,0,0,1,47.6,38.72a4.738,4.738,0,1,0,0,9.021A4.742,4.742,0,0,1,44.317,43.23Z" fill="#fed2a4"/>
            <g id="XMLID_192_">
              <g id="Grupo_1099962" data-name="Grupo 1099962">
                <path id="Trazado_874261" data-name="Trazado 874261" d="M52.6,55.01a11.008,11.008,0,0,1-12.912,0v-.585a6.456,6.456,0,1,1,12.912,0Z" fill="#fee97d"/>
              </g>
            </g>
            <path id="Trazado_874262" data-name="Trazado 874262" d="M42.149,56.03a6.461,6.461,0,0,1,8.663-6.069,6.456,6.456,0,0,0-11.12,4.463v.585a11.013,11.013,0,0,0,2.459,1.343Z" fill="#fee45a"/>
          </g>
        </g>
        <g id="Grupo_1099965" data-name="Grupo 1099965">
          <path id="Trazado_874263" data-name="Trazado 874263" d="M23.948,21.664a.849.849,0,0,0-1.254,1.145,10.125,10.125,0,0,1,1.847,2.88.849.849,0,0,0,1.563-.663,11.816,11.816,0,0,0-2.156-3.361Z"/>
          <path id="Trazado_874264" data-name="Trazado 874264" d="M47,34.278V32.948a.849.849,0,0,0-1.7,0v1.329A11.878,11.878,0,0,0,35.122,41.75l-6.859-4.289a15.189,15.189,0,0,0,.049-15.581l7.3-4.562a11.872,11.872,0,0,0,9.691,6.4v1.34a.849.849,0,1,0,1.7,0v-1.34a11.85,11.85,0,1,0-12.064-7.986L27.364,20.47a15.219,15.219,0,1,0-.059,18.4L34.6,43.426A11.853,11.853,0,1,0,47,34.278ZM49.3,13.639A5.581,5.581,0,0,0,51.63,7.956,6.734,6.734,0,0,1,51.8,15.6,7.351,7.351,0,0,0,49.3,13.639ZM42.259,9.032a3.889,3.889,0,1,1,3.889,3.889A3.894,3.894,0,0,1,42.259,9.032Zm.733,4.607A7.348,7.348,0,0,0,40.5,15.6a6.733,6.733,0,0,1,.167-7.645,5.58,5.58,0,0,0,2.326,5.684Zm-2.451,6.587a5.607,5.607,0,0,1,11.214,0v.136a10.132,10.132,0,0,1-11.214,0Zm5.607-18.48a10.149,10.149,0,0,1,7.208,17.3,7.242,7.242,0,0,0-.585-1.9,8.456,8.456,0,1,0-13.246,0,7.243,7.243,0,0,0-.585,1.9,10.149,10.149,0,0,1,7.208-17.3ZM9,41.631V38.769a1.807,1.807,0,0,1,.654-1.394l3.189-2.649a2.908,2.908,0,0,0,4.733,0l3.189,2.649a1.807,1.807,0,0,1,.654,1.394v2.874A13.5,13.5,0,0,1,9,41.631ZM19.17,23.3h-7.9V20.1l1.08.355a.847.847,0,0,0,.265.042h5.462a1.1,1.1,0,0,1,1.1,1.1V23.3Zm-7.9,1.7h7.9V27.2a3.951,3.951,0,1,1-7.9,0V25Zm3.951,7.856a5.642,5.642,0,0,0,1.2-.13v.309a1.214,1.214,0,1,1-2.429,0v-.315a5.643,5.643,0,0,0,1.226.136Zm7.9,7.745V38.769c0-.112-.006-.223-.017-.334a11.786,11.786,0,0,0,3.943-8.806c0-.218-.008-.446-.024-.718a.849.849,0,1,0-1.695.1c.014.236.021.432.021.615a10.087,10.087,0,0,1-2.9,7.082,3.518,3.518,0,0,0-.6-.642l-3.729-3.1V32.05A5.652,5.652,0,0,0,20.868,27.2V21.591A2.8,2.8,0,0,0,18.074,18.8H12.749l-1.565-.514a1.23,1.23,0,0,0-1.614,1.169V27.2a5.652,5.652,0,0,0,2.725,4.832v.937l-3.729,3.1a3.522,3.522,0,0,0-.589.627,10.1,10.1,0,0,1-.234-13.887.849.849,0,0,0-1.254-1.145,11.8,11.8,0,0,0,.827,16.752,3.523,3.523,0,0,0-.018.353V40.58a13.521,13.521,0,1,1,15.817.018Zm23.033,6.522a3.889,3.889,0,1,1,3.889-3.889A3.894,3.894,0,0,1,46.148,47.119Zm-3.156.718A7.349,7.349,0,0,0,40.5,49.8a6.734,6.734,0,0,1,.166-7.644,5.586,5.586,0,0,0,2.327,5.682ZM40.541,54.56v-.136a5.607,5.607,0,1,1,11.214,0v.136a10.132,10.132,0,0,1-11.214,0Zm12.815-1.317a7.246,7.246,0,0,0-.585-1.895,8.454,8.454,0,0,0,1.631-3.42.849.849,0,0,0-1.658-.367A6.743,6.743,0,0,1,51.8,49.8,7.348,7.348,0,0,0,49.3,47.837a5.58,5.58,0,0,0,2.326-5.683,6.727,6.727,0,0,1,1.044,2.192.849.849,0,0,0,1.64-.441,8.455,8.455,0,1,0-14.789,7.441,7.243,7.243,0,0,0-.585,1.9,10.154,10.154,0,1,1,14.416,0Z"/>
          <path id="Trazado_874265" data-name="Trazado 874265" d="M46.148,27.47a.849.849,0,0,0-.849.849v1.31a.849.849,0,1,0,1.7,0v-1.31a.849.849,0,0,0-.849-.849Z"/>
        </g>
      </g>
    </g>
  </g>
</svg>
