<svg xmlns="http://www.w3.org/2000/svg" xmlns:xlink="http://www.w3.org/1999/xlink" width="400.055" height="611.462" viewBox="0 0 400.055 611.462">
  <defs>
    <clipPath id="clip-path">
      <rect id="Rectángulo_401581" data-name="Rectángulo 401581" width="45.144" height="75.804" fill="none"/>
    </clipPath>
    <clipPath id="clip-path-2">
      <rect id="Rectángulo_401582" data-name="Rectángulo 401582" width="39.504" height="74.702" fill="none"/>
    </clipPath>
    <clipPath id="clip-path-3">
      <rect id="Rectángulo_401583" data-name="Rectángulo 401583" width="42.267" height="80.023" fill="none"/>
    </clipPath>
    <clipPath id="clip-path-4">
      <rect id="Rectángulo_401584" data-name="Rectángulo 401584" width="35.205" height="56.683" fill="none"/>
    </clipPath>
    <clipPath id="clip-path-5">
      <rect id="Rectángulo_401585" data-name="Rectángulo 401585" width="29.521" height="54.503" fill="none"/>
    </clipPath>
    <clipPath id="clip-path-6">
      <rect id="Rectángulo_401586" data-name="Rectángulo 401586" width="33.352" height="61.951" fill="none"/>
    </clipPath>
    <clipPath id="clip-path-7">
      <rect id="Rectángulo_401587" data-name="Rectángulo 401587" width="26.833" height="17.041" fill="none"/>
    </clipPath>
    <clipPath id="clip-path-8">
      <rect id="Rectángulo_401588" data-name="Rectángulo 401588" width="30.653" height="19.995" fill="none"/>
    </clipPath>
    <clipPath id="clip-path-9">
      <rect id="Rectángulo_401589" data-name="Rectángulo 401589" width="9.674" height="27.92" fill="none"/>
    </clipPath>
    <clipPath id="clip-path-10">
      <rect id="Rectángulo_401590" data-name="Rectángulo 401590" width="14.343" height="28.462" fill="none"/>
    </clipPath>
  </defs>
  <g id="Grupo_1101623" data-name="Grupo 1101623" transform="translate(-285 -3008.047)">
    <path id="Rectángulo_401560" data-name="Rectángulo 401560" d="M0,0H264.443a117,117,0,0,1,117,117V473.248a0,0,0,0,1,0,0H0a0,0,0,0,1,0,0V0A0,0,0,0,1,0,0Z" transform="translate(285 3099.752)" fill="#7d6eb2"/>
    <g id="Grupo_1100010" data-name="Grupo 1100010" transform="translate(300.116 3008.047)">
      <g id="Grupo_1100013" data-name="Grupo 1100013" transform="translate(0)">
        <g id="Grupo_1099974" data-name="Grupo 1099974" transform="translate(0 68.313)">
          <g id="Grupo_1100011" data-name="Grupo 1100011">
            <path id="Trazado_874338" data-name="Trazado 874338" d="M327.1,123.328s9.406,10.168,18.9,3.4c7.676-5.47-1.6-13.01-8.678-14.014-7.682-1.09-16.422,3.306-10.222,10.614" transform="translate(-38.965 1.513)" fill="#0053b3"/>
            <path id="Trazado_874343" data-name="Trazado 874343" d="M352.215,42.716V458.9a23.617,23.617,0,0,1-23.62,23.619H121.347A23.613,23.613,0,0,1,97.728,458.9V42.716A23.616,23.616,0,0,1,121.347,19.1H328.6a23.606,23.606,0,0,1,23.62,23.619" transform="translate(-89.087 -19.097)" fill="#193768"/>
            <path id="Trazado_874344" data-name="Trazado 874344" d="M99.288,135.418H97.571a6.922,6.922,0,0,1-6.923-6.923V87.358a6.922,6.922,0,0,1,6.923-6.922h1.717Z" transform="translate(-90.648 -5.57)" fill="#011142"/>
            <path id="Trazado_874345" data-name="Trazado 874345" d="M306.232,121.787h1.4a5.664,5.664,0,0,0,5.664-5.663V82.679a5.663,5.663,0,0,0-5.663-5.663h-1.4Z" transform="translate(-43.104 -6.324)" fill="#011142"/>
            <path id="Trazado_874346" data-name="Trazado 874346" d="M99.288,186.579H97.571a6.922,6.922,0,0,1-6.923-6.923V138.519a6.922,6.922,0,0,1,6.923-6.922h1.717Z" transform="translate(-90.648 5.713)" fill="#011142"/>
            <path id="Trazado_874347" data-name="Trazado 874347" d="M338.548,38.987V458.026a10.4,10.4,0,0,1-10.405,10.408H118.037a10.406,10.406,0,0,1-10.406-10.408V38.987a10.411,10.411,0,0,1,10.406-10.405H328.143a10.388,10.388,0,0,1,10.405,10.405" transform="translate(-86.903 -17.005)" fill="#fff"/>
            <path id="Trazado_874348" data-name="Trazado 874348" d="M314.274,94.281H123.123a3.956,3.956,0,0,1-3.956-3.956v-.958a3.955,3.955,0,0,1,3.956-3.955H314.274a3.955,3.955,0,0,1,3.956,3.955v.958a3.956,3.956,0,0,1-3.956,3.956" transform="translate(-84.359 -4.472)" fill="#d1e2e8"/>
            <path id="Trazado_874349" data-name="Trazado 874349" d="M314.274,109.62H123.123a3.956,3.956,0,0,1-3.956-3.956v-.958a3.955,3.955,0,0,1,3.956-3.955H314.274a3.955,3.955,0,0,1,3.956,3.955v.958a3.956,3.956,0,0,1-3.956,3.956" transform="translate(-84.359 -1.089)" fill="#d1e2e8"/>
            <path id="Trazado_874350" data-name="Trazado 874350" d="M314.274,125.105H123.123a3.956,3.956,0,0,1-3.956-3.956v-.958a3.955,3.955,0,0,1,3.956-3.955H314.274a3.955,3.955,0,0,1,3.956,3.955v.958a3.956,3.956,0,0,1-3.956,3.956" transform="translate(-84.359 2.326)" fill="#d1e2e8"/>
            <path id="Trazado_874351" data-name="Trazado 874351" d="M314.274,329.285H123.123a3.956,3.956,0,0,1-3.956-3.956v-.958a3.955,3.955,0,0,1,3.956-3.955H314.274a3.955,3.955,0,0,1,3.956,3.955v.958a3.956,3.956,0,0,1-3.956,3.956" transform="translate(-84.359 47.355)" fill="#d1e2e8"/>
            <path id="Trazado_874352" data-name="Trazado 874352" d="M314.274,344.7H123.123a3.956,3.956,0,0,1-3.956-3.956v-.958a3.955,3.955,0,0,1,3.956-3.955H314.274a3.955,3.955,0,0,1,3.956,3.955v.958a3.956,3.956,0,0,1-3.956,3.956" transform="translate(-84.359 50.754)" fill="#d1e2e8"/>
          </g>
        </g>
        <text id="LIVE" transform="translate(60.741 127.238)" fill="#193768" font-size="8" font-family="SegoeUI, Segoe UI"><tspan x="0" y="0">LI</tspan><tspan y="0" letter-spacing="-0.014em">V</tspan><tspan y="0">E</tspan></text>
        <text id="_1_583" data-name="1,583" transform="translate(195.612 127.238)" fill="#193768" font-size="8" font-family="SegoeUI, Segoe UI"><tspan x="0" y="0">1,583</tspan></text>
        <g id="Grupo_1100008" data-name="Grupo 1100008" transform="translate(15.497)">
          <g id="Grupo_1100014" data-name="Grupo 1100014">
            <path id="Trazado_874355" data-name="Trazado 874355" d="M247.9,66.717a3.223,3.223,0,1,1-3.223-3.223,3.223,3.223,0,0,1,3.223,3.223" transform="translate(-72.887 59.007)" fill="#f14149"/>
            <path id="Trazado_874356" data-name="Trazado 874356" d="M251.208,73.511H239.155a6.236,6.236,0,0,1,5.935-3.829l.09,0,.092,0a6.236,6.236,0,0,1,5.935,3.829" transform="translate(-73.394 60.372)" fill="#f14149"/>
            <path id="Trazado_874357" data-name="Trazado 874357" d="M338.3,39.154V58.667H107.381V39.154a10.411,10.411,0,0,1,10.406-10.405H327.893A10.384,10.384,0,0,1,338.3,39.154" transform="translate(-102.455 51.344)" fill="#d1e2e8"/>
            <path id="Trazado_874358" data-name="Trazado 874358" d="M298.186,350.522H139.209a20.042,20.042,0,0,1-20.042-20.042V156.67a20.041,20.041,0,0,1,20.042-20.041H298.186a20.041,20.041,0,0,1,20.042,20.041V330.48a20.042,20.042,0,0,1-20.042,20.042" transform="translate(-99.856 75.136)" fill="#d1e2e8"/>
            <path id="Trazado_874359" data-name="Trazado 874359" d="M153.746,28.5l5.747,5.748a30.694,30.694,0,0,0,21.7,8.989H244.01a30.7,30.7,0,0,0,21.7-8.989l5.7-5.7Z" transform="translate(-92.23 51.289)" fill="#193768"/>
            <path id="Trazado_874360" data-name="Trazado 874360" d="M251.711,35.254h-81.6a1.775,1.775,0,0,1-1.77-1.769v-.43a1.775,1.775,0,0,1,1.77-1.769h81.6a1.774,1.774,0,0,1,1.769,1.769v.43a1.774,1.774,0,0,1-1.769,1.769" transform="translate(-89.011 51.904)" fill="#011142"/>
            <rect id="Rectángulo_401578" data-name="Rectángulo 401578" width="238.18" height="45.292" transform="translate(0 477.103)" fill="#193768"/>
            <path id="Trazado_874361" data-name="Trazado 874361" d="M220.641,376.056a16.705,16.705,0,1,1-16.705-16.706,16.706,16.706,0,0,1,16.705,16.706" transform="translate(-84.845 124.254)" fill="#011142"/>
            <path id="Trazado_874363" data-name="Trazado 874363" d="M360.642,299.9c-8.588,1.552-11.114,4.079-12.667,12.667a.98.98,0,0,1-1.93,0c-1.552-8.588-4.079-11.114-12.667-12.667a.98.98,0,0,1,0-1.93c8.588-1.552,11.114-4.079,12.667-12.667a.98.98,0,0,1,1.93,0c1.553,8.588,4.079,11.114,12.667,12.667a.98.98,0,0,1,0,1.93" transform="translate(-52.793 107.746)" fill="#fff"/>
            <path id="Trazado_874364" data-name="Trazado 874364" d="M369.014,320.817c-4.294.776-5.557,2.04-6.333,6.333a.49.49,0,0,1-.964,0c-.777-4.294-2.041-5.557-6.335-6.333a.489.489,0,0,1,0-.964c4.294-.776,5.557-2.04,6.335-6.335a.49.49,0,0,1,.964,0c.776,4.3,2.039,5.558,6.333,6.335a.489.489,0,0,1,0,.964" transform="translate(-47.851 114.057)" fill="#fff"/>
            <path id="Trazado_874366" data-name="Trazado 874366" d="M359.295,108.016a195.994,195.994,0,0,1-22.116,30.513,173.4,173.4,0,0,1-28.646,25.753,14.3,14.3,0,0,1-14.28,1.367l-2.819-1.037-64.8-29.83c-7.36-3.662-22.47-14.756-22.165-23.715.073-2.234,1.684-5.944,3.881-9.3,3.21-4.882,11.7-14.256,26.791-3.076,9.545,7.091,57.89,30.294,64,33.211.415.2.635.305.635.305l.427.269,1.9-1.245c.391-.268.781-.525,1.172-.806a143.6,143.6,0,0,0,14.4-11.229,170.358,170.358,0,0,0,22.25-24.179l.037-.049a11.677,11.677,0,0,1,19.321,13.048" transform="translate(-81.044 64.937)" fill="#c81e37"/>
            <path id="Trazado_874367" data-name="Trazado 874367" d="M286.336,123.19c-3.1,5.541-4.371,14.012-4.371,14.012-1.172-6.31-.525-10.289.232-12.535.415.2.635.305.635.305l.427.269,1.9-1.245c.391-.269.781-.525,1.173-.806" transform="translate(-64.095 72.172)" fill="#9c1224"/>
            <path id="Trazado_874368" data-name="Trazado 874368" d="M328.552,70.7l.358-.773a8.048,8.048,0,0,0-.358.773" transform="translate(-53.679 60.426)" fill="#f7baa6"/>
            <path id="Trazado_874369" data-name="Trazado 874369" d="M319.5,109.086c4.454,3.741,13.819,4.717,15.8,1.856a15.686,15.686,0,0,1,3.862-3.955,9.094,9.094,0,0,1,1.617-.936,12.93,12.93,0,0,0,2.757-2.578,25.144,25.144,0,0,0,5.71-14.506c.387-6.034-5.629-12.983-10.561-17.2,2.423-4.272,6.853-12.9,4.855-15.563-2.384-3.175-10.222,13.061-12,16.837-.231.493-.358.776-.358.776s.013-1.258-.083-2.9c-.2-3.422-.885-8.494-3.172-7.24-3.387,1.858-4.543,17.741-7.467,22.143a16.569,16.569,0,0,0-2.1,4.269s-.024.077-.071.229a.99.99,0,0,1-.029.1c-.643,2.162-3.951,14.3,1.238,18.666" transform="translate(-56.309 57.309)" fill="#f7baa6"/>
            <path id="Trazado_874370" data-name="Trazado 874370" d="M335.087,97.907a11.389,11.389,0,0,0,1.617-.936,9.193,9.193,0,0,0-1.617.936" transform="translate(-52.237 66.39)" fill="#f7baa6"/>
            <path id="Trazado_874371" data-name="Trazado 874371" d="M329.445,78.952a16.685,16.685,0,0,0-5.04,4.423.752.752,0,1,1-1.2-.9c.906-1.109,3.614-4.2,6.442-5.178Z" transform="translate(-54.895 62.05)" fill="#ff8b81"/>
            <path id="Trazado_874372" data-name="Trazado 874372" d="M329.765,88.787a2.43,2.43,0,0,1-.393-.074,2.3,2.3,0,0,1-1.61-2.341c-.24-4.669,6.723-14.981,7.019-15.417a.784.784,0,1,1,1.3.881c-1.938,2.854-6.928,11.014-6.75,14.454.04.791.364.882.47.913a3.062,3.062,0,0,0,2.645-1.527c.146-.212.411-.673.718-1.207,1.271-2.209,3.635-6.321,6.2-8.041a.784.784,0,0,1,.874,1.3c-2.258,1.516-4.5,5.422-5.711,7.521-.35.61-.6,1.051-.787,1.317a4.715,4.715,0,0,1-3.969,2.219" transform="translate(-53.854 60.576)" fill="#ff8b81"/>
            <path id="Trazado_874373" data-name="Trazado 874373" d="M333.687,92.461q-.119-.013-.238-.037a2.521,2.521,0,0,1-1.886-1.837c-1.306-4.045,5.55-13.637,6.336-14.718a.785.785,0,0,1,1.268.924c-2.788,3.832-6.912,10.836-6.111,13.312.221.685.585.758.7.782a1.739,1.739,0,0,0,1.485-.631,18.948,18.948,0,0,0,1.516-2.348c1.29-2.19,2.9-4.916,5.091-6.388a.784.784,0,1,1,.874,1.3c-1.9,1.274-3.4,3.829-4.614,5.883a19.421,19.421,0,0,1-1.678,2.574,3.355,3.355,0,0,1-2.747,1.181" transform="translate(-53.051 61.665)" fill="#ff8b81"/>
            <path id="Trazado_874374" data-name="Trazado 874374" d="M337.49,93.615a2.55,2.55,0,0,1-.642-.15,2.239,2.239,0,0,1-1.434-1.767c-.542-3.165,4.3-9.971,4.859-10.736a.784.784,0,0,1,1.271.919c-1.944,2.688-4.908,7.656-4.584,9.552A.667.667,0,0,0,337.4,92a1.137,1.137,0,0,0,1.011-.12,9.742,9.742,0,0,0,1.614-2.495c.846-1.585,1.8-3.383,3.189-4.313a.785.785,0,0,1,.875,1.3c-1.061.712-1.921,2.325-2.68,3.749A9.961,9.961,0,0,1,339.4,93.1a2.666,2.666,0,0,1-1.908.515" transform="translate(-52.175 62.788)" fill="#ff8b81"/>
            <path id="Trazado_874375" data-name="Trazado 874375" d="M324.518,96.163a.7.7,0,0,1-.217-1.112c1.6-1.714,3.945-4.988,4.327-8.647l0-.045a.785.785,0,0,1,.858-.7h0a.787.787,0,0,1,.7.858c-.408,4.013-3.15,7.667-4.853,9.5a.7.7,0,0,1-.809.155l-.013-.006" transform="translate(-54.658 63.894)" fill="#ff8b81"/>
            <rect id="Rectángulo_401579" data-name="Rectángulo 401579" width="8.292" height="12.456" transform="matrix(0.58, -0.815, 0.815, 0.58, 289.418, 93.372)" fill="#d1e2e8"/>
            <rect id="Rectángulo_401580" data-name="Rectángulo 401580" width="8.292" height="12.456" transform="matrix(0.58, -0.815, 0.815, 0.58, 322.56, 116.939)" fill="#d1e2e8"/>
            <path id="Trazado_874376" data-name="Trazado 874376" d="M388.305,70.357,367.6,99.473a26.494,26.494,0,1,1-43.183-30.709l20.7-29.116,10,7.11-20.706,29.12a14.12,14.12,0,0,0-2.613,8.861c.016.36.046.723.089,1.08-1.336,2.7-2.411,5.5-2.313,7.381a2.22,2.22,0,0,0,2,2.417,4.173,4.173,0,0,0,2.978-1.12,6.882,6.882,0,0,0-.378,4.009,2.53,2.53,0,0,0,1.886,1.838q.119.022.238.037a3.356,3.356,0,0,0,2.652-1.072,4.107,4.107,0,0,0-.05,1.432,2.248,2.248,0,0,0,1.438,1.766,2.592,2.592,0,0,0,.641.15,2.661,2.661,0,0,0,1.908-.516,9.923,9.923,0,0,0,2.014-2.978c.145-.275.3-.558.45-.839a13.816,13.816,0,0,0,1.712-.028,14.186,14.186,0,0,0,10.53-5.932l20.706-29.116Z" transform="translate(-55.67 53.748)" fill="#f14149"/>
            <path id="Trazado_874377" data-name="Trazado 874377" d="M345.631,90.148c-.773,2.221-2.941,7.49-6.023,6.839-3.808-.809-2.938-3.046-2.9-3.14a3.016,3.016,0,0,1-4.129.677c-2.376-1.609-1.056-5.411-1.056-5.411s-3.585,3.051-5.187-1.628,4.03-10.895,4.03-10.895c.016.36.046.724.089,1.08-1.337,2.7-2.411,5.5-2.313,7.382a2.307,2.307,0,0,0,1.609,2.343,2.454,2.454,0,0,0,.393.073,4.173,4.173,0,0,0,2.978-1.12,6.882,6.882,0,0,0-.378,4.009,2.526,2.526,0,0,0,1.886,1.837q.119.024.238.037a3.351,3.351,0,0,0,2.652-1.07,4.109,4.109,0,0,0-.049,1.432,2.248,2.248,0,0,0,1.437,1.766,2.608,2.608,0,0,0,.641.15,2.661,2.661,0,0,0,1.908-.516,9.921,9.921,0,0,0,2.014-2.978c.146-.275.3-.558.452-.84a13.567,13.567,0,0,0,1.711-.027" transform="translate(-54.231 61.895)" fill="#c81e37"/>
            <path id="Trazado_874378" data-name="Trazado 874378" d="M370.446,0l-9.68,17.833-5.038-5.315-6.17,24.837,8.1-17.362,3.6,6.682Z" transform="translate(-49.046 45.004)" fill="#fdd14f"/>
            <path id="Trazado_874379" data-name="Trazado 874379" d="M411.169,27.99l-13.666,15L404.178,46,382.743,59.985l13.74-13.355-7.5-1.21Z" transform="translate(-41.728 51.177)" fill="#fdd14f"/>
            <path id="Trazado_874380" data-name="Trazado 874380" d="M204.151,326.612h54l-8.269-80.845-52.91,19.143,7.143,61.544Z" transform="translate(-82.698 99.205)" fill="#011142"/>
            <path id="Trazado_874381" data-name="Trazado 874381" d="M213.909,324.633l4.676-58.842-55.016-9.124-2.9-.478-8.2-1.448c1.539,13.748,3.26,41.595,4.764,69.892Z" transform="translate(-92.511 101.184)" fill="#193768"/>
            <path id="Trazado_874382" data-name="Trazado 874382" d="M165.736,324.371l-3.648-67.966-2.9-.478,3.675,68.444Z" transform="translate(-91.029 101.445)" fill="#011142"/>
            <path id="Trazado_874383" data-name="Trazado 874383" d="M172.581,311.2a12.418,12.418,0,0,1-9.77-4.625c-11.115-12.974-6.945-49.051-6.762-50.58a1.15,1.15,0,0,1,1.255-1.053,1.205,1.205,0,0,1,.967,1.367c-.044.364-4.219,36.466,6.177,48.6a10.3,10.3,0,0,0,8.992,3.82c19.87-1.327,20.018-47.27,20.017-47.734a1.174,1.174,0,0,1,1.118-1.223h0a1.173,1.173,0,0,1,1.12,1.218c0,1.988-.154,48.708-22.12,50.175q-.5.033-.995.033" transform="translate(-91.924 101.225)" fill="#fdd14f"/>
            <path id="Trazado_874384" data-name="Trazado 874384" d="M148.083,290.351c0,.433-.183,5.452-.171,5.881,42.436,14.362,83.64,15.639,120.683,0-.151-1.62-.306-7.832-.454-9.487-.1-.732-.15-1.465-.226-2.215-.187-1.992-.376-3.964-.561-5.975-.1-1.013-.207-2.026-.3-3.061-.094-1.07-.208-2.12-.3-3.19-.039-.583-.094-1.185-.153-1.786-.055-.543-.092-1.09-.149-1.632-.034-.373-.065-.745-.1-1.114-.079-.919-.162-1.831-.242-2.756-.017-.32-.055-.655-.092-.993-.021-.339-.039-.679-.076-1.017-.15-1.782-.281-3.531-.413-5.257-.057-.864-.112-1.728-.171-2.573-.055-.677-.112-1.371-.149-2.047-.018-.226-.018-.452-.037-.657-.022-.415-.059-.845-.077-1.261-.037-.692-.076-1.388-.112-2.083-.037-.583-.077-1.162-.1-1.764-.037-.7-.073-1.391-.092-2.065-.039-.6-.057-1.185-.076-1.786-.034-.738-.052-1.474-.071-2.2,0-.088,0-.175-.006-.262s-.018-.149-.018-.226c-.037-2.124-.076-4.19-.055-6.16.018-1.108.037-2.2.073-3.25,0-.336.018-.674.04-1.031,0-.714.018-1.465.018-2.234,0-1.129.018-2.309,0-3.511,0-1.767-.018-3.625-.077-5.542-.018-.45-.018-.9-.037-1.351,0-.338-.018-.677-.018-1.013V216.6c-.021-.507-.039-1.031-.039-1.577-.018-.205-.018-.413-.018-.62-.037-.787-.055-1.6-.1-2.423v-.092c0-.3-.018-.619-.037-.922-.018-.358-.018-.714-.037-1.07-.018-.339-.018-.675-.039-1.013-.037-1-.073-1.993-.11-3.006-.04-.995-.1-1.989-.114-3.006-.039-.655-.057-1.333-.094-1.988q-.088-2.651-.226-5.353v-.017c0-.358-.018-.714-.037-1.072,0-.3-.018-.619-.04-.922-.073-2.1-.167-4.223-.244-6.383,0-.1-.018-.171-.018-.262-.018-.714-.037-1.41-.073-2.124,0-.655-.039-1.294-.057-1.953-.018-.714-.055-1.406-.073-2.12v-.171c-.022-.583-.04-1.163-.059-1.745,0-.282-.018-.565-.018-.846-.018-.547-.018-1.089-.037-1.615-.039-1.107-.057-2.236-.094-3.343-.018-.864-.018-1.709-.037-2.573-.04-2.124-.059-4.263-.077-6.365v-4.266c0-.262.018-.543.018-.787,0-1.352,0-2.744-.018-4.15v-1.184c-.018-.565-.018-1.127-.018-1.69-.076-6.365-.262-12.958-.262-18.253a64.466,64.466,0,0,0-2.35-17.991c-.279-.94-.582-1.861-.918-2.761a9.533,9.533,0,0,0-.4-1.035,36.981,36.981,0,0,0-19.492-20.731c-1.184-.564-2.4-1.072-3.662-1.54-.677-.244-1.373-.489-2.085-.715l-15.1-4.9a21.849,21.849,0,0,0-16.075,1.052c-11.08,5.276-30.706,15.7-40.6,27.342-3.082,3.623-5.221,7.36-5.862,11.1-.222,1.257-.466,3.118-.751,5.52-.131,1.3-.3,2.761-.47,4.356-.222,2.142-.448,4.546-.692,7.174-.131,1.522-.262,3.1-.415,4.754-.828,9.689-1.727,21.8-2.555,35.21-.037.546-.073,1.089-.112,1.634-.073,1.221-.15,2.441-.226,3.68-.018.394-.037.809-.055,1.2-.055.638-.077,1.3-.132,1.954-.018.694-.076,1.41-.112,2.124-.055.9-.1,1.8-.15,2.7-.039.694-.076,1.388-.131,2.1-.018.659-.057,1.316-.1,1.953-.018.583-.057,1.147-.076,1.727-.055.921-.114,1.88-.15,2.819-.037.543-.055,1.09-.076,1.633q-.088,1.5-.165,3.035c-.065,1.306-.128,2.62-.193,3.93-.018.47-.037.922-.055,1.391-.094,2.029-.189,4.073-.281,6.1-.039,1.072-.076,2.124-.112,3.192-.018.283-.018.565-.04.845s-.017.565-.035.846c-.038.828-.056,1.672-.1,2.5,0,.088-.006.177-.012.265-.012.345-.027.687-.043,1.031-.059,2.008-.132,4-.208,6.009-.132,4.244-.262,8.525-.376,12.751q-.055,2.732-.112,5.466c-.018.452-.018.9-.037,1.369-.018,1.316-.037,2.63-.077,3.946v.751c-.018.881-.035,1.766-.055,2.63,0,.975-.018,1.935-.018,2.911-.017,1.013-.017,2.026-.039,3.042-.018,1.782-.018,3.53-.018,5.276v6.292c.018,2.8.04,5.54.076,8.245.02,1.5.055,3,.1,4.47" transform="translate(-93.516 63.3)" fill="#f14149"/>
            <path id="Trazado_874385" data-name="Trazado 874385" d="M252.824,239.158c-30.282.6-43.567-24.9-43.567-24.9l41.868-1.56c.018.723.037,1.459.07,2.2.018.6.037,1.184.077,1.786.018.674.055,1.369.092,2.065.018.6.057,1.18.094,1.764.037.7.077,1.391.114,2.085.018.415.055.845.076,1.26.018.205.018.431.037.657.037.677.1,1.369.15,2.047.057.845.112,1.709.17,2.573.132,1.726.264,3.475.413,5.257.037.338.055.677.077,1.017s.073.674.092.995c.079.924.161,1.836.24,2.755" transform="translate(-79.988 91.913)" fill="#c81e37"/>
            <path id="Trazado_874386" data-name="Trazado 874386" d="M242.747,219.082s-64.43,13.044-79.686,6.13c-8.123-3.682-10.411-11.152-14.344-21.478.006-.088.009-.177.012-.265.04-.827.059-1.672.1-2.5.017-.281.017-.561.035-.846s.022-.56.04-.845c.037-1.068.073-2.12.112-3.192.092-2.03.187-4.073.281-6.1.018-.47.037-.921.055-1.391.065-1.308.129-2.624.193-3.93,2.152,4.7,7.631,16.121,14.085,25.25,8.34,11.8,79.121,9.169,79.121,9.169" transform="translate(-93.339 85.729)" fill="#c81e37"/>
            <path id="Trazado_874387" data-name="Trazado 874387" d="M178.616,206.673s-2.229-44.719,9.113-85.493c0,0-25.429,38.593-9.113,85.493" transform="translate(-87.95 71.729)" fill="#c81e37"/>
            <path id="Trazado_874388" data-name="Trazado 874388" d="M256.081,146.189c0,.256,0,.527,0,.792q-.013,1.12-.013,2.248H178.892c.316-3.009.651-5.833.972-8.37h76.2c0,.4,0,.792.009,1.191.018,1.41.018,2.8,0,4.139" transform="translate(-86.684 76.069)" fill="#c81e37"/>
            <path id="Trazado_874389" data-name="Trazado 874389" d="M256.574,162.956H177.819c.138-2.821.321-5.628.541-8.37h78.022c.01.857.023,1.717.041,2.573.027,1.118.055,2.23.087,3.343.015.536.023,1.077.041,1.612,0,.28.013.563.023.842" transform="translate(-86.921 79.096)" fill="#c81e37"/>
            <path id="Trazado_874390" data-name="Trazado 874390" d="M257.217,176.687h-79.4c-.146-2.7-.2-5.5-.183-8.369h79.254q.13,3.228.256,6.383c.01.3.023.608.032.911.018.366.028.715.041,1.075" transform="translate(-86.963 82.124)" fill="#c81e37"/>
            <path id="Trazado_874391" data-name="Trazado 874391" d="M220.47,102.155c-12.608,0-27.97-5.824-28.788-6.138a1.374,1.374,0,0,1,.984-2.566c.244.094,24.6,9.329,36.1,4.637a1.374,1.374,0,1,1,1.037,2.544,25.043,25.043,0,0,1-9.333,1.523" transform="translate(-84.058 65.594)" fill="#c81e37"/>
            <path id="Trazado_874392" data-name="Trazado 874392" d="M209.978,109.206c-.871,0-1.766-.029-2.694-.093a1.373,1.373,0,1,1,.184-2.74c12.51.848,19.422-5.012,19.491-5.071a1.374,1.374,0,0,1,1.81,2.069c-.292.254-6.8,5.835-18.791,5.835" transform="translate(-80.705 67.271)" fill="#c81e37"/>
            <path id="Trazado_874393" data-name="Trazado 874393" d="M166.751,242.9h.032c22.732-.5,42.566-13.657,55.2-24.6a150.422,150.422,0,0,0,22.142-23.8,1.427,1.427,0,0,0-2.332-1.645,147.483,147.483,0,0,1-21.729,23.331c-12.27,10.621-31.485,23.382-53.345,23.864a1.427,1.427,0,0,0,.031,2.854" transform="translate(-89.676 87.402)" fill="#c81e37"/>
            <path id="Trazado_874394" data-name="Trazado 874394" d="M187.409,247.427a114.825,114.825,0,0,0,29.9-4.316,141.04,141.04,0,0,0,25.906-9.863A1.3,1.3,0,0,0,242,230.953c-.419.222-42.289,22.1-77.021,10.473a1.3,1.3,0,1,0-.824,2.464,73.281,73.281,0,0,0,23.257,3.536" transform="translate(-90.131 95.904)" fill="#c81e37"/>
            <path id="Trazado_874395" data-name="Trazado 874395" d="M188.393,34.9S178.03,38,178.025,41.79c-.007,6.018,10.331,3.055,13.466,1.324Z" transform="translate(-86.875 52.7)" fill="#f3970d"/>
            <path id="Trazado_874396" data-name="Trazado 874396" d="M193.22,93.831c12.619,8.76,29.846,6.654,29.846,6.654l-.751-31.945-24.925-7.608-4-1.222Z" transform="translate(-83.524 58.173)" fill="#f7baa6"/>
            <path id="Trazado_874397" data-name="Trazado 874397" d="M196.637,60.712s6.314,26.653,25.441,29.6l-.516-22Z" transform="translate(-82.771 58.393)" fill="#011142"/>
            <path id="Trazado_874398" data-name="Trazado 874398" d="M229.869,39.311s7.451-4.6,11.023,4.493S236.213,64.485,227.734,62.6c0,0-1.224-18.613,2.135-23.285" transform="translate(-75.961 53.417)" fill="#ff8b81"/>
            <path id="Trazado_874399" data-name="Trazado 874399" d="M246.963,59.69c-.01.132-.018.262-.028.394-.009.173-.021.348-.039.525-.12,1.54-.275,3.084-.47,4.62-1.214,9.559-3.985,18.826-9.575,25.076C226.7,101.653,211.1,92.252,200.424,78.56a67.144,67.144,0,0,1-7.913-12.824V65.73c-.509-1.1-.982-2.185-1.4-3.269a33.02,33.02,0,0,1-2.453-11.189c-.01-1.2-.01-2.359.009-3.464q.027-1.886.1-3.591.06-1.119.138-2.166a51.206,51.206,0,0,1,.976-7.067c1.831-8.273,5.877-12.233,13.19-15.547,5.334-2.413,14.314-3.225,22.671-2.291A23.675,23.675,0,0,1,246.685,38.7a140.758,140.758,0,0,1,.278,20.987" transform="translate(-84.532 48.702)" fill="#f7baa6"/>
            <path id="Trazado_874400" data-name="Trazado 874400" d="M218.8,53.955c.041,1.531-2.354,2.835-5.351,2.917s-5.458-1.095-5.5-2.624,2.353-2.837,5.35-2.917,5.458,1.095,5.5,2.624" transform="translate(-80.276 56.324)" fill="#ff8b81"/>
            <path id="Trazado_874401" data-name="Trazado 874401" d="M237.4,51.935c-.01.132-.018.262-.028.394-.009.173-.021.348-.039.525-.12,1.54-.275,3.084-.47,4.62-2.685-.1-4.8-1.206-4.837-2.622-.039-1.532,2.356-2.838,5.352-2.917Z" transform="translate(-74.967 56.458)" fill="#ff8b81"/>
            <path id="Trazado_874402" data-name="Trazado 874402" d="M190.667,54.2c.42,1.084.889,2.174,1.4,3.269v.007a17.1,17.1,0,0,0,8.706,2.581c.226,0,.367-.006.409-.012a.887.887,0,0,0-.112-1.77c-.029,0-.142,0-.314,0a15.443,15.443,0,0,1-10.087-4.08" transform="translate(-84.087 56.958)" fill="#ff8b81"/>
            <path id="Trazado_874403" data-name="Trazado 874403" d="M246.876,35.557S249.105,17.98,226.32,13.95s-37.7,8.8-40.621,23.057,1.116,28.235,9.554,32.962c0,0-3.121-55.231,51.623-34.412" transform="translate(-85.391 47.915)" fill="#011142"/>
            <path id="Trazado_874404" data-name="Trazado 874404" d="M186.8,38.063S175.51,41.4,175.845,47.841c.361,6.933,8.086,2.854,8.086,2.854s-5.594,4.307-4.476,10,9.385,1.522,9.385,1.522-3.485,5.7,2.008,10.069,8.359-7.815,8.359-7.815-5.261-24.416-12.4-26.405" transform="translate(-87.358 53.398)" fill="#011142"/>
            <path id="Trazado_874405" data-name="Trazado 874405" d="M244.957,55.03c-.868,11.125-3.559,22.444-10.045,29.7-10.154,11.35-25.748,1.948-36.428-11.743l-1.037-29.026s1.478-2.557,6.28-1.728l2.644,13.07s1.438,6.935,5.756,8.287,10.8-.372,17.349.776a52.7,52.7,0,0,1,11.79,3.6s3.247-7.9,3.692-12.934" transform="translate(-82.592 54.281)" fill="#193768"/>
            <path id="Trazado_874406" data-name="Trazado 874406" d="M223.613,74.035a8.25,8.25,0,0,1-5.031-2.286.793.793,0,1,1,1.1-1.142,7.077,7.077,0,0,0,6.343,1.723.793.793,0,0,1,.4,1.534,8.713,8.713,0,0,1-2.816.171" transform="translate(-77.985 60.526)" fill="#193768"/>
            <path id="Trazado_874407" data-name="Trazado 874407" d="M231.719,67.218s-9.783-.756-16.076-4.123c0,0,2.43,7.019,8.056,8.783s8.02-4.66,8.02-4.66" transform="translate(-78.579 58.919)" fill="#fff"/>
            <path id="Trazado_874408" data-name="Trazado 874408" d="M231.05,47.76c-.029,1.67.693,3.034,1.615,3.051s1.693-1.323,1.723-2.993-.694-3.034-1.616-3.05-1.693,1.323-1.722,2.992" transform="translate(-75.182 54.877)" fill="#011142"/>
            <path id="Trazado_874409" data-name="Trazado 874409" d="M214.347,47.76c-.029,1.67.693,3.034,1.616,3.051s1.692-1.323,1.722-2.993-.695-3.034-1.616-3.05-1.693,1.323-1.722,2.992" transform="translate(-78.865 54.877)" fill="#011142"/>
            <path id="Trazado_874410" data-name="Trazado 874410" d="M208.854,43.777a1.437,1.437,0,0,1-.434-2.4c2.055-1.869,7.267-4.488,12.285-1.033a1.437,1.437,0,0,1-1.629,2.367c-4.42-3.046-8.549.633-8.722.791a1.437,1.437,0,0,1-1.5.272" transform="translate(-80.276 53.53)" fill="#011142"/>
            <path id="Trazado_874411" data-name="Trazado 874411" d="M227.658,42.454a1.25,1.25,0,0,1-.416-.389,1.268,1.268,0,0,1,.341-1.76c2.031-1.371,6.916-3,10.859.655a1.268,1.268,0,0,1-1.723,1.86c-3.474-3.221-7.545-.53-7.716-.414a1.27,1.27,0,0,1-1.344.048" transform="translate(-76.069 53.546)" fill="#011142"/>
            <path id="Trazado_874412" data-name="Trazado 874412" d="M188.663,45.16c6.547,1.264,13.845,3.605,17,0,0,0-.554-4.461,6.293-8.617,4.362-2.649,2.418-7.768,2.418-7.768l-24.49,3.562a50.789,50.789,0,0,0-.976,7.066q-.081,1.049-.137,2.168-.079,1.706-.106,3.59" transform="translate(-84.529 51.35)" fill="#011142"/>
            <path id="Trazado_874413" data-name="Trazado 874413" d="M197.537,38.818S188.8,35,186.786,44.553s6.693,16.778,13.681,17.225c0,0,1.157-18.91-2.93-22.96" transform="translate(-85.008 53.398)" fill="#f7baa6"/>
            <path id="Trazado_874414" data-name="Trazado 874414" d="M195.237,55.609a2.009,2.009,0,1,1-2.009-2.009,2.009,2.009,0,0,1,2.009,2.009" transform="translate(-83.966 56.825)" fill="#fff"/>
            <path id="Trazado_874415" data-name="Trazado 874415" d="M197.157,53.975a.883.883,0,0,1-.847-.727,14.712,14.712,0,0,0-5.56-8.976.882.882,0,0,1,.983-1.466,16.237,16.237,0,0,1,6.315,10.132.883.883,0,0,1-.714,1.024.977.977,0,0,1-.177.013" transform="translate(-84.155 54.412)" fill="#ff8b81"/>
            <path id="Trazado_874416" data-name="Trazado 874416" d="M190.527,48.928a.882.882,0,0,1-.389-1.664c.12-.063,2.978-1.54,5.3-1.112a.883.883,0,0,1-.321,1.736,7.987,7.987,0,0,0-4.161.94.87.87,0,0,1-.428.1" transform="translate(-84.308 55.165)" fill="#ff8b81"/>
            <path id="Trazado_874417" data-name="Trazado 874417" d="M227.416,62.978a13.7,13.7,0,0,1-3-.416.955.955,0,0,1,.453-1.855,9.885,9.885,0,0,0,3.172.327c-.067-1.57-1.128-8.734-2.16-15.1a.955.955,0,0,1,1.885-.305c.55,3.393,2.334,14.571,2.17,15.878a1.494,1.494,0,0,1-.652,1.055,3.394,3.394,0,0,1-1.866.421" transform="translate(-76.805 54.889)" fill="#ff8b81"/>
            <path id="Trazado_874418" data-name="Trazado 874418" d="M246.961,35.846s-22.717-4.656-43.685.4q-.747.178-1.483.375A51.6,51.6,0,0,0,184.86,44.28S182.935,30.7,190.771,20.4A26.206,26.206,0,0,1,204.48,11.49q1.223-.361,2.475-.637c11.152-2.478,23.785-.043,29.714,4.9,11.449,9.551,10.292,20.09,10.292,20.09" transform="translate(-85.414 47.182)" fill="#fdb105"/>
            <path id="Trazado_874419" data-name="Trazado 874419" d="M200.755,15.963c-2.746,5.926-2.823,12.679-.236,20.106q-.745.178-1.483.375c-3.3-9.645-1.7-16.776.367-21.2a23.549,23.549,0,0,1,2.321-3.93c.814-.242,1.638-.452,2.474-.637a22.084,22.084,0,0,0-3.444,5.287" transform="translate(-82.659 47.359)" fill="#f3970d"/>
            <path id="Trazado_874420" data-name="Trazado 874420" d="M206.362,33.1s46.167-21.921,62.882-13.837S242.99,41.733,242.99,41.733a16.291,16.291,0,0,0-1.524-7.127s-23.747-3.532-35.1-1.5" transform="translate(-80.626 48.859)" fill="#f3970d"/>
            <path id="Trazado_874421" data-name="Trazado 874421" d="M220,132.958a10.4,10.4,0,0,0,3.908-.773c3.908-1.57,6.449-4.9,7.553-9.908.858-3.889.847-8.8-.032-14.6a103.048,103.048,0,0,0-5.03-19.018.755.755,0,1,0-1.409.546c.137.354,13.536,35.482-1.645,41.581-2.859,1.149-5.881.788-8.986-1.069-12.017-7.191-22.177-34.682-23.248-44.36a.756.756,0,1,0-1.5.166c1.128,10.188,11.353,37.939,23.974,45.492A12.475,12.475,0,0,0,220,132.958" transform="translate(-84.321 63.679)" fill="#fff"/>
            <path id="Trazado_874422" data-name="Trazado 874422" d="M293.807,186.879a44.019,44.019,0,0,1-59.332,54.178q-1.454-.63-2.86-1.365a44.06,44.06,0,0,1-11.17-8.292c-.64-.655-1.262-1.33-1.86-2.027a43.879,43.879,0,0,1-8.435-14.954c-.171-.516-.331-1.039-.477-1.564A44.061,44.061,0,0,1,254.921,156.7q1.595.108,3.167.331a44.091,44.091,0,0,1,13.12,4q1.36.661,2.673,1.412a43.839,43.839,0,0,1,19.382,22.89q.289.765.543,1.543" transform="translate(-80.28 79.54)" fill="#fdd14f"/>
            <g id="Grupo_1099979" data-name="Grupo 1099979" transform="translate(164.139 248.435)" opacity="0.2">
              <g id="Grupo_1099978" data-name="Grupo 1099978">
                <g id="Grupo_1099977" data-name="Grupo 1099977" clip-path="url(#clip-path)">
                  <path id="Trazado_874423" data-name="Trazado 874423" d="M282.97,175.465l-33.337,66.8a43.684,43.684,0,0,1-11.807-.449l38.081-75.146a43.738,43.738,0,0,1,7.063,8.792" transform="translate(-237.826 -166.673)" fill="#fff"/>
                </g>
              </g>
            </g>
            <g id="Grupo_1099982" data-name="Grupo 1099982" transform="translate(138.305 236.239)" opacity="0.2">
              <g id="Grupo_1099981" data-name="Grupo 1099981">
                <g id="Grupo_1099980" data-name="Grupo 1099980" clip-path="url(#clip-path-2)">
                  <path id="Trazado_874424" data-name="Trazado 874424" d="M256.164,157.012,218.52,231.383q-.959-.981-1.86-2.027L253,156.681q1.593.11,3.166.331" transform="translate(-216.66 -156.681)" fill="#fff"/>
                </g>
              </g>
            </g>
            <g id="Grupo_1099985" data-name="Grupo 1099985" transform="translate(151.334 240.574)" opacity="0.2">
              <g id="Grupo_1099984" data-name="Grupo 1099984">
                <g id="Grupo_1099983" data-name="Grupo 1099983" clip-path="url(#clip-path-3)">
                  <path id="Trazado_874425" data-name="Trazado 874425" d="M269.6,161.645,230.2,240.258q-1.454-.632-2.86-1.365l39.593-78.66q1.36.661,2.673,1.412" transform="translate(-227.335 -160.233)" fill="#fff"/>
                </g>
              </g>
            </g>
            <path id="Trazado_874426" data-name="Trazado 874426" d="M283.812,188.045c.168.514.323,1.031.472,1.545a35.2,35.2,0,0,1-66.8,21.993c-.186-.5-.369-1.011-.538-1.526a35.2,35.2,0,0,1,66.865-22.012" transform="translate(-78.681 81.139)" fill="#f3970d"/>
            <path id="Trazado_874427" data-name="Trazado 874427" d="M284.1,189.037a35.243,35.243,0,0,1-22.9,42.893c-.4.132-.8.253-1.2.37a35.028,35.028,0,0,1-23.654-1.462c-.922-.4-1.824-.828-2.713-1.3a35.263,35.263,0,0,1-10.6-8.665,33.258,33.258,0,0,1-2.011-2.688,34.958,34.958,0,0,1-3.717-7.157,35.206,35.206,0,0,1,29.743-44.418,34.363,34.363,0,0,1,3.494-.24,35.16,35.16,0,0,1,13.7,2.516q1.393.557,2.744,1.236A35.08,35.08,0,0,1,283.067,186.6c.375.791.721,1.607,1.036,2.44" transform="translate(-78.499 81.693)" fill="#fdb105"/>
            <g id="Grupo_1099988" data-name="Grupo 1099988" transform="translate(169.363 258.708)" opacity="0.2">
              <g id="Grupo_1099987" data-name="Grupo 1099987">
                <g id="Grupo_1099986" data-name="Grupo 1099986" clip-path="url(#clip-path-4)">
                  <path id="Trazado_874428" data-name="Trazado 874428" d="M277.311,184.671l-23.064,45.7a34.921,34.921,0,0,1-12.139,1.318l28.564-56.6a34.982,34.982,0,0,1,6.64,9.582" transform="translate(-242.106 -175.09)" fill="#fff"/>
                </g>
              </g>
            </g>
            <g id="Grupo_1099991" data-name="Grupo 1099991" transform="translate(142.521 248.064)" opacity="0.2">
              <g id="Grupo_1099990" data-name="Grupo 1099990">
                <g id="Grupo_1099989" data-name="Grupo 1099989" clip-path="url(#clip-path-5)">
                  <path id="Trazado_874429" data-name="Trazado 874429" d="M249.635,166.369l-27.508,54.5a33.563,33.563,0,0,1-2.013-2.688l26.028-51.575a34.292,34.292,0,0,1,3.493-.24" transform="translate(-220.114 -166.369)" fill="#fff"/>
                </g>
              </g>
            </g>
            <g id="Grupo_1099994" data-name="Grupo 1099994" transform="translate(155.136 250.579)" opacity="0.2">
              <g id="Grupo_1099993" data-name="Grupo 1099993">
                <g id="Grupo_1099992" data-name="Grupo 1099992" clip-path="url(#clip-path-6)">
                  <path id="Trazado_874430" data-name="Trazado 874430" d="M263.8,169.666l-30.64,60.714q-1.38-.591-2.712-1.3l30.607-60.652q1.4.557,2.745,1.236" transform="translate(-230.45 -168.43)" fill="#fff"/>
                </g>
              </g>
            </g>
            <path id="Trazado_874431" data-name="Trazado 874431" d="M258.005,214.473l1.828,5.555-7.056,2.323-1.745-5.3c-5.1,1.347-10.4,1.594-14.014.731l.97-9.858a25.3,25.3,0,0,0,12.613-.6c3.353-1.1,4.323-2.2,3.928-3.4-1.45-4.4-19.646,5.525-23.946-7.536-1.861-5.655.677-11.76,8.5-15.612l-1.8-5.455,7.056-2.323,1.762,5.355a27.508,27.508,0,0,1,11.114-.442l-.736,9.726a22.752,22.752,0,0,0-10.615.61c-3.453,1.136-4.224,2.5-3.829,3.7,1.384,4.2,19.6-5.674,23.847,7.235,1.78,5.4-.575,11.394-7.887,15.3" transform="translate(-75.413 83.155)" fill="#f3970d"/>
            <path id="Trazado_874432" data-name="Trazado 874432" d="M257.338,213.015l1.828,5.555-7.056,2.323-1.745-5.3c-5.1,1.348-10.4,1.594-14.014.731l.97-9.858a25.291,25.291,0,0,0,12.613-.6c3.353-1.1,4.323-2.2,3.928-3.4-1.45-4.4-19.646,5.525-23.946-7.536-1.861-5.655.677-11.759,8.5-15.612l-1.8-5.455,7.056-2.323,1.762,5.354a27.508,27.508,0,0,1,11.114-.442l-.736,9.726a22.752,22.752,0,0,0-10.615.61c-3.453,1.136-4.224,2.5-3.829,3.7,1.384,4.2,19.6-5.674,23.847,7.235,1.78,5.4-.576,11.394-7.887,15.3" transform="translate(-75.56 82.833)" fill="#fdd14f"/>
            <path id="Trazado_874433" data-name="Trazado 874433" d="M272.8,236.913c-14.814.8-35.9,1.6-49.535,1.847q-13.017.229-26.022.36c-8.687.082-17.326.149-26.061.165a15.246,15.246,0,0,1-13.222-7.628l-.869-1.515c-1.282-2.443-2.459-4.927-3.515-7.448s-1.983-5.065-2.8-7.634a104.182,104.182,0,0,1-3.613-15.47,133.008,133.008,0,0,1-1.022-30.394,182.447,182.447,0,0,1,4.634-28.9q1.7-7.039,3.879-13.932c.732-2.3,1.5-4.6,2.321-6.894.413-1.152.84-2.3,1.288-3.472l.693-1.766.372-.918.458-1.084a17.3,17.3,0,0,1,31.96,13.264l-.22.535-.433,1.062-.516,1.316c-.342.9-.686,1.817-1.016,2.746-.669,1.854-1.306,3.756-1.91,5.66-1.206,3.82-2.286,7.7-3.226,11.593a148.345,148.345,0,0,0-3.771,23.379,98.763,98.763,0,0,0,.705,22.466,69.632,69.632,0,0,0,1.7,7.952c.083.3.165.592.25.885q.216.742.449,1.474c.021.051.037.106.055.161.146.458.3.915.458,1.367l.055.156c.915.122,1.833.244,2.758.372q6.009.809,12.022,1.6c8.528,1.123,17.255,1.864,25.829,2.535,14.729,1.151,34.981,2.38,49.743,3.643,5.962,5.569,1.816,18.519-1.88,22.513" transform="translate(-93.999 67.416)" fill="#f14149"/>
            <path id="Trazado_874434" data-name="Trazado 874434" d="M179.952,187.915a41.289,41.289,0,0,0-14.628,5.663s4.785-7.647,13.416-9.551c.083.3.166.592.25.885q.216.742.449,1.473c.021.052.037.107.055.162.146.458.3.915.458,1.367" transform="translate(-89.676 85.589)" fill="#c81e37"/>
            <path id="Trazado_874435" data-name="Trazado 874435" d="M248.381,215.167c23.676,11.725,34.874,4.821,38.46,3.411s2.862-5.528,2.862-5.528a4.532,4.532,0,0,0,1.862-5.221c4.661-3.192,2.646-6.392,2.646-6.392s5.854-1.055,4.769-4.7-8.741-.572-13.318-1.28c-.217-.033-.445-.072-.692-.123,2.857-1.145,6.137-2.948,6.565-5.292.774-4.258-19.524,2.258-19.524,2.258a32.15,32.15,0,0,0-10.206,2.739,19.694,19.694,0,0,1-6.045,1.444l-4.2.364c-4.13,3.529-5.313,11.3-3.176,18.321" transform="translate(-71.59 86.597)" fill="#f7baa6"/>
            <path id="Trazado_874438" data-name="Trazado 874438" d="M392.984,148.607A24.887,24.887,0,1,1,379.26,116.2a24.888,24.888,0,0,1,13.724,32.409" transform="translate(-142.393 -114.371)" fill="#aee6e6"/>
            <path id="Trazado_874439" data-name="Trazado 874439" d="M381.43,133.666c-1.773-4.189-5.923-5.541-11.3-3.266a15.562,15.562,0,0,0-.969-1.925c-2.341-3.917-5.77-5.135-9.416-3.591a8.294,8.294,0,0,0-4.39,10.841l3.915,9.247,2.694,5.586h0l5.823-2.137,9.248-3.915a8.3,8.3,0,0,0,4.39-10.841" transform="translate(-140.257 -112.196)" fill="#f14149"/>
            <path id="Trazado_874440" data-name="Trazado 874440" d="M65.322,308.6l-23.057-9.3a10.222,10.222,0,0,1-5.655-13.305l8.352-20.7a10.223,10.223,0,0,1,13.305-5.655l23.057,9.305a10.222,10.222,0,0,1,5.655,13.305l-8.352,20.7A10.222,10.222,0,0,1,65.322,308.6" transform="translate(141.949 302.113)" fill="#009af9"/>
            <path id="Trazado_874441" data-name="Trazado 874441" d="M66.3,280.529h0l-3.26-1.293c.533-1.336,1.018-2.636,1.571-3.906a1.5,1.5,0,0,1,2.042-1.006c.583.155,1.152.364,1.721.57l1.792.722,2.018-5-1.886-.732v0c-.964-.361-1.928-.723-2.9-1.076a6.434,6.434,0,0,0-8.313,3.347c-.725,1.524-1.322,3.11-1.991,4.7a2.591,2.591,0,0,1-.437-.092q-1.739-.685-3.472-1.384c-.554-.223-1.046-.384-1.2.471a6.33,6.33,0,0,1-.416,1.037c-.388,1.017-.77,2.036-1.178,3.116,1.189.477,2.226.9,3.269,1.312,1.556.61,1.526.593.912,2.138q-1.562,3.933-3.088,7.88h0l-1.61,3.987.621.25v0c1.737.715,3.492,1.394,5.337,2.119,1.775-4.529,3.522-8.989,5.279-13.474,1.153.448,2.2.843,3.234,1.265a1.348,1.348,0,0,0,.2.066l.648.261,3.06-4.494Z" transform="translate(145.038 304.199)" fill="#fff"/>
            <path id="Trazado_874442" data-name="Trazado 874442" d="M365.988,201.441l-21.957,11.666a10.223,10.223,0,0,1-13.824-4.233l-10.471-19.709a10.223,10.223,0,0,1,4.232-13.824l21.957-11.666a10.223,10.223,0,0,1,13.824,4.232l10.471,19.71a10.223,10.223,0,0,1-4.232,13.824" transform="translate(-55.887 80.837)" fill="#009af9"/>
            <path id="Trazado_874443" data-name="Trazado 874443" d="M345.614,180.118h0c-1.02.549-2.032,1.094-3.088,1.664-.68-1.268-1.363-2.475-1.98-3.717a1.5,1.5,0,0,1,.544-2.209c.493-.348,1.019-.648,1.543-.952h0L344.34,174l-2.529-4.763-1.773.973v0q-1.344.758-2.686,1.523a6.435,6.435,0,0,0-2.786,8.518c.7,1.535,1.531,3.012,2.319,4.548a2.6,2.6,0,0,1-.352.276q-1.642.892-3.294,1.769c-.527.28-.967.553-.414,1.223a6.4,6.4,0,0,1,.527.987c.529.951,1.063,1.9,1.628,2.906,1.129-.6,2.122-1.123,3.106-1.659,1.468-.8,1.437-.786,2.224.677q2.007,3.728,4.046,7.436l0,0,2.018,3.8.591-.314v0c1.665-.87,3.313-1.777,5.055-2.723-2.325-4.273-4.615-8.48-6.918-12.711,1.085-.593,2.06-1.14,3.049-1.662a1.291,1.291,0,0,0,.181-.114l.619-.328-1.473-5.234Z" transform="translate(-52.793 82.327)" fill="#fff"/>
            <path id="Trazado_874444" data-name="Trazado 874444" d="M344.34,245.864,338.2,262.507l20.255,7.476s3.231-.039,2.831-3.978c0,0,3.5-.532,2.436-4.715,0,0,3.243-1.462,1.4-4.209,0,0,3.553-1.5,1.11-4.487l-9.5-3.506a13.316,13.316,0,0,0,6.576-8.189s.555-2.307-1.068-2.167c0,0-4.664,3.893-7.1,4.1-3.152.268-9.788.3-9.788.3Z" transform="translate(-72.112 109.849)" fill="#fff"/>
            <path id="Trazado_874445" data-name="Trazado 874445" d="M336.675,262.8l-6.292-2.322a1.852,1.852,0,0,1-1.1-2.379l5.657-15.33a2.6,2.6,0,0,1,3.336-1.537l5.593,2.064a.173.173,0,0,1,.1.223L336.9,262.7a.173.173,0,0,1-.222.1" transform="translate(-70.752 109.496)" fill="#009af9"/>
            <path id="Trazado_874446" data-name="Trazado 874446" d="M37.1,140.39l10.713,23.135,28.154-13.038s3.238-3.328-1.179-6.917c0,0,3.006-4.1-2.329-7.262,0,0,1.8-4.785-2.861-5.7,0,0,2.081-5.134-3.442-5.682l-13.2,6.114a19.132,19.132,0,0,0-1.668-15s-1.784-2.9-3.289-1.111c0,0-.767,8.7-3.032,11.391-2.923,3.48-9.62,10.271-9.62,10.271Z" transform="translate(-15.6 397.483)" fill="#fff"/>
            <path id="Trazado_874447" data-name="Trazado 874447" d="M49.443,159.627l-8.745,4.05a2.663,2.663,0,0,1-3.535-1.3L27.3,141.071a3.733,3.733,0,0,1,1.82-4.955l7.774-3.6a.247.247,0,0,1,.33.121L49.564,159.3a.249.249,0,0,1-.121.331" transform="translate(-17.451 401.485)" fill="#009af9"/>
            <path id="Trazado_874448" data-name="Trazado 874448" d="M409.053,231.241c-.352-3.529-2.917-6.165-5.773-8.284-3.272-2.423-6.928-4.166-8.088-5.785a1.477,1.477,0,0,1-.291-1.449c.41-1.073,1.681-1.622,4.555-.643h0c.187.063.376.132.577.21a21.469,21.469,0,0,1,7.785,5.439c.184.194.369.391.553.594l1.537-1.618,4.963-5.226a23.427,23.427,0,0,0-5.107-4.455,32.573,32.573,0,0,0-3.5-2.011l1.174-3.062.779-2.031-6.713-2.575-1.99,5.191c-8.228-1.9-13.866,1.131-15.927,6.51a9.152,9.152,0,0,0,1.782,9.946c2.143,2.484,5.257,4.362,7.725,5.961,2.53,1.639,4.385,2.984,3.846,4.389-.438,1.145-1.836,1.373-5.026.151a22.06,22.06,0,0,1-3.946-2.026,24.443,24.443,0,0,1-5.884-5.239l-6.757,6.8a20.056,20.056,0,0,0,3.072,3.128,34.994,34.994,0,0,0,7.887,4.893l-1.108,2.9-.826,2.149,6.714,2.573,2.025-5.285c7.872,1.543,13.3-1.509,15.273-6.652a9.762,9.762,0,0,0,.688-4.5" transform="translate(-147.28 102.698)" fill="#fdd14f"/>
            <g id="Grupo_1099997" data-name="Grupo 1099997" transform="translate(235.652 307.648)" opacity="0.5" style="mix-blend-mode: screen;isolation: isolate">
              <g id="Grupo_1099996" data-name="Grupo 1099996">
                <g id="Grupo_1099995" data-name="Grupo 1099995" clip-path="url(#clip-path-7)">
                  <path id="Trazado_874449" data-name="Trazado 874449" d="M408.392,209.192l-10.307,5.057h0c-2.873-.979-4.144-.43-4.555.643a1.481,1.481,0,0,0,.292,1.449l-9.82,4.82a9.768,9.768,0,0,1-2.44-5.019l24.508-12.022-1.174,3.062a32.379,32.379,0,0,1,3.5,2.011" transform="translate(-381.558 -204.118)" fill="#fdd14f"/>
                </g>
              </g>
            </g>
            <path id="Trazado_874450" data-name="Trazado 874450" d="M402.5,217.825c-.183-.2-.369-.4-.552-.594l2.088-1.024Z" transform="translate(-37.492 92.686)" fill="#fdd14f"/>
            <g id="Grupo_1100000" data-name="Grupo 1100000" transform="translate(231.12 325.655)" opacity="0.5" style="mix-blend-mode: screen;isolation: isolate">
              <g id="Grupo_1099999" data-name="Grupo 1099999">
                <g id="Grupo_1099998" data-name="Grupo 1099998" clip-path="url(#clip-path-8)">
                  <path id="Trazado_874451" data-name="Trazado 874451" d="M384.624,238.866l1.109-2.9a35.013,35.013,0,0,1-7.887-4.893l9.569-4.694a22,22,0,0,0,3.945,2.026c3.19,1.221,4.589.993,5.027-.153.538-1.4-1.317-2.75-3.847-4.388l10.184-5c2.856,2.118,5.422,4.755,5.773,8.284Z" transform="translate(-377.845 -218.871)" fill="#fdd14f"/>
                </g>
              </g>
            </g>
            <path id="Trazado_874452" data-name="Trazado 874452" d="M32.194,231.833c-3.094-1.733-6.725-1.14-10.1-.012-3.861,1.295-7.383,3.293-9.375,3.316a1.477,1.477,0,0,1-1.354-.591c-.644-.952-.367-2.308,2.081-4.1l0,0c.16-.116.323-.232.5-.353a21.473,21.473,0,0,1,8.917-3.266c.264-.039.532-.078.8-.112l-.447-2.187-1.44-7.061a23.365,23.365,0,0,0-6.576,1.634,32.317,32.317,0,0,0-3.654,1.717L9.719,218.1,8.5,216.3l-5.956,4.028,3.115,4.6c-6.267,5.657-7.014,12.014-3.786,16.784a9.749,9.749,0,0,0,3.664,3.361,9.765,9.765,0,0,0,5.51.876c3.265-.336,6.587-1.811,9.311-2.918,2.793-1.135,4.959-1.886,5.8-.64.687,1.016.073,2.292-2.756,4.207a21.988,21.988,0,0,1-3.919,2.074A24.443,24.443,0,0,1,11.82,250.5l1.706,9.436a20.057,20.057,0,0,0,4.324-.726,34.98,34.98,0,0,0,8.529-3.663l1.74,2.569,1.289,1.908,5.954-4.03L32.19,251.3c5.773-5.569,6.381-11.766,3.3-16.33a9.777,9.777,0,0,0-3.292-3.139" transform="translate(176.664 293.252)" fill="#fdd14f"/>
            <g id="Grupo_1100003" data-name="Grupo 1100003" transform="translate(182.201 511.35)" opacity="0.5" style="mix-blend-mode: screen;isolation: isolate">
              <g id="Grupo_1100002" data-name="Grupo 1100002">
                <g id="Grupo_1100001" data-name="Grupo 1100001" clip-path="url(#clip-path-9)">
                  <path id="Trazado_874453" data-name="Trazado 874453" d="M14.211,218.771l-1.759,11.346h0c-2.448,1.8-2.727,3.151-2.082,4.1a1.48,1.48,0,0,0,1.355.591l-1.675,10.812a9.757,9.757,0,0,1-5.511-.875L8.72,217.771l1.837,2.717a32.517,32.517,0,0,1,3.654-1.717" transform="translate(-4.536 -217.772)" fill="#fdd14f"/>
                </g>
              </g>
            </g>
            <g id="Grupo_1100006" data-name="Grupo 1100006" transform="translate(194.515 523.996)" opacity="0.5" style="mix-blend-mode: screen;isolation: isolate">
              <g id="Grupo_1100005" data-name="Grupo 1100005">
                <g id="Grupo_1100004" data-name="Grupo 1100004" clip-path="url(#clip-path-10)">
                  <path id="Trazado_874455" data-name="Trazado 874455" d="M24.894,255.5l-1.74-2.568a34.949,34.949,0,0,1-8.528,3.663l1.633-10.532a22.155,22.155,0,0,0,3.92-2.074c2.828-1.917,3.443-3.193,2.755-4.208-.842-1.246-3.009-.5-5.8.64l1.739-11.209c3.371-1.128,7-1.722,10.1.011Z" transform="translate(-14.625 -228.133)" fill="#fdd14f"/>
                </g>
              </g>
            </g>
            <path id="Trazado_874456" data-name="Trazado 874456" d="M356.94,357.68a28.456,28.456,0,1,1-16.129-36.87,28.455,28.455,0,0,1,16.129,36.87" transform="translate(-59.539 115.321)" fill="#fdd14f"/>
            <path id="Trazado_874457" data-name="Trazado 874457" d="M311.9,347.265a1.106,1.106,0,0,1-1.091-1.878L317,340.009l-7.289-1.516a1.106,1.106,0,0,1,.45-2.165l9.471,1.969a1.107,1.107,0,0,1,.5,1.917l-7.864,6.841a1.1,1.1,0,0,1-.361.21" transform="translate(-58.029 119.172)" fill="#011142"/>
            <path id="Trazado_874458" data-name="Trazado 874458" d="M340.562,337.663a1.107,1.107,0,0,1-.414.061l-10.412-.469a1.107,1.107,0,0,1-.8-1.814l6.193-7.431a1.106,1.106,0,0,1,1.7,1.416l-4.766,5.718,8.185.369a1.106,1.106,0,0,1,.314,2.149" transform="translate(-53.651 117.255)" fill="#011142"/>
            <path id="Trazado_874459" data-name="Trazado 874459" d="M344.951,352.44a16.592,16.592,0,0,0,.127-11.317L313.61,352.1a16.592,16.592,0,0,0,7.077,8.751s3.69-3.682,11.4-6.371c7.521-2.622,12.844-2.038,12.864-2.036" transform="translate(-56.974 120.234)" fill="#011142"/>
            <path id="Trazado_874460" data-name="Trazado 874460" d="M333.552,360.309a16.626,16.626,0,0,0,10.121-9.9c-.021,0-5.343-.586-12.863,2.036-7.71,2.689-11.4,6.37-11.4,6.371a16.63,16.63,0,0,0,14.144,1.5" transform="translate(-55.695 122.269)" fill="#f14149"/>
            <path id="Trazado_874461" data-name="Trazado 874461" d="M341.94,389.289a28.52,28.52,0,1,1-19.571-35.266,28.519,28.519,0,0,1,19.571,35.266" transform="translate(-63.064 122.835)" fill="#fdd14f"/>
            <path id="Trazado_874462" data-name="Trazado 874462" d="M315.232,391.241c-1.549,5.413-6.123,8.851-10.217,7.68s-6.156-6.509-4.606-11.922,6.123-8.851,10.217-7.68,6.155,6.509,4.606,11.922" transform="translate(-59.999 128.607)" fill="#011142"/>
            <path id="Trazado_874463" data-name="Trazado 874463" d="M304.774,372.687c-.806,2.815-3.156,4.61-5.25,4.011s-3.138-3.366-2.332-6.181,3.155-4.61,5.25-4.011,3.138,3.366,2.332,6.181" transform="translate(-60.655 125.807)" fill="#011142"/>
            <path id="Trazado_874464" data-name="Trazado 874464" d="M324.61,378.364c-.806,2.815-3.156,4.61-5.249,4.011s-3.138-3.366-2.332-6.181,3.155-4.61,5.25-4.011,3.138,3.366,2.332,6.181" transform="translate(-56.28 127.059)" fill="#011142"/>
            <path id="Trazado_874465" data-name="Trazado 874465" d="M297.238,363.849a1.2,1.2,0,0,1-.251-.1,1.217,1.217,0,0,1-.481-1.654,5.506,5.506,0,0,1,4.91-2.647,5.657,5.657,0,0,1,4.442,2.165,1.218,1.218,0,0,1-2.013,1.371,3.257,3.257,0,0,0-2.5-1.1,3.081,3.081,0,0,0-2.7,1.387,1.219,1.219,0,0,1-1.4.585" transform="translate(-60.779 124.274)" fill="#011142"/>
            <path id="Trazado_874466" data-name="Trazado 874466" d="M327.285,372.641a1.219,1.219,0,0,1-.88-1.225,3.069,3.069,0,0,0-1.56-2.618,3.259,3.259,0,0,0-2.725-.382,1.226,1.226,0,0,1-1.584-.654,1.209,1.209,0,0,1,.621-1.582,5.662,5.662,0,0,1,4.914.514,5.5,5.5,0,0,1,2.766,4.844,1.218,1.218,0,0,1-1.551,1.1" transform="translate(-55.468 125.686)" fill="#011142"/>
            <path id="Trazado_874467" data-name="Trazado 874467" d="M385.5,389.807a28.456,28.456,0,1,1-16.128-36.87,28.454,28.454,0,0,1,16.128,36.87" transform="translate(-53.24 122.406)" fill="#fdd14f"/>
            <path id="Trazado_874468" data-name="Trazado 874468" d="M340.466,379.393a1.106,1.106,0,0,1-1.091-1.878l6.182-5.378-7.289-1.516a1.106,1.106,0,0,1,.45-2.165l9.471,1.969a1.107,1.107,0,0,1,.5,1.917l-7.864,6.841a1.106,1.106,0,0,1-.361.21" transform="translate(-51.73 126.257)" fill="#011142"/>
            <path id="Trazado_874469" data-name="Trazado 874469" d="M369.124,369.79a1.108,1.108,0,0,1-.414.061l-10.412-.469a1.107,1.107,0,0,1-.8-1.814l6.193-7.431a1.106,1.106,0,0,1,1.7,1.416l-4.766,5.718,8.185.369a1.106,1.106,0,0,1,.314,2.149" transform="translate(-47.352 124.34)" fill="#011142"/>
            <path id="Trazado_874470" data-name="Trazado 874470" d="M373.514,384.567a16.592,16.592,0,0,0,.127-11.317l-31.468,10.973a16.592,16.592,0,0,0,7.077,8.751s3.69-3.682,11.4-6.371c7.521-2.622,12.844-2.038,12.864-2.036" transform="translate(-50.675 127.319)" fill="#011142"/>
            <path id="Trazado_874471" data-name="Trazado 874471" d="M362.115,392.436a16.627,16.627,0,0,0,10.119-9.9c-.021,0-5.344-.586-12.864,2.036-7.71,2.689-11.4,6.37-11.4,6.371a16.632,16.632,0,0,0,14.145,1.5" transform="translate(-49.396 129.354)" fill="#f14149"/>
            <g id="Grupo_1100012" data-name="Grupo 1100012" transform="translate(14.379 0)">
              <path id="Trazado_874472" data-name="Trazado 874472" d="M107.823,389.3a28.52,28.52,0,1,1-19.571-35.266A28.519,28.519,0,0,1,107.823,389.3" transform="translate(-51.877 -352.925)" fill="#fdd14f"/>
              <path id="Trazado_874473" data-name="Trazado 874473" d="M81.115,391.253c-1.55,5.413-6.123,8.851-10.217,7.68s-6.156-6.509-4.606-11.922,6.123-8.851,10.217-7.68,6.155,6.509,4.606,11.922" transform="translate(-48.812 -347.152)" fill="#011142"/>
              <path id="Trazado_874474" data-name="Trazado 874474" d="M70.657,372.7c-.806,2.815-3.155,4.61-5.25,4.011s-3.138-3.367-2.332-6.181,3.155-4.61,5.25-4.011,3.138,3.366,2.332,6.181" transform="translate(-49.467 -349.952)" fill="#011142"/>
              <path id="Trazado_874475" data-name="Trazado 874475" d="M90.493,378.375c-.806,2.815-3.155,4.61-5.25,4.011s-3.138-3.366-2.332-6.181,3.155-4.61,5.25-4.011,3.138,3.366,2.332,6.181" transform="translate(-45.093 -348.701)" fill="#011142"/>
              <path id="Trazado_874476" data-name="Trazado 874476" d="M63.121,363.86a1.273,1.273,0,0,1-.251-.1,1.217,1.217,0,0,1-.481-1.654,5.506,5.506,0,0,1,4.91-2.647,5.661,5.661,0,0,1,4.442,2.164,1.218,1.218,0,0,1-2.013,1.372,3.257,3.257,0,0,0-2.5-1.1,3.081,3.081,0,0,0-2.7,1.387,1.219,1.219,0,0,1-1.4.585" transform="translate(-49.592 -351.485)" fill="#011142"/>
              <path id="Trazado_874477" data-name="Trazado 874477" d="M93.168,372.652a1.22,1.22,0,0,1-.88-1.225,3.068,3.068,0,0,0-1.56-2.618A3.259,3.259,0,0,0,88,368.426a1.226,1.226,0,0,1-1.584-.654,1.209,1.209,0,0,1,.621-1.582,5.662,5.662,0,0,1,4.914.514,5.5,5.5,0,0,1,2.766,4.844,1.219,1.219,0,0,1-1.551,1.1" transform="translate(-44.281 -350.073)" fill="#011142"/>
            </g>
          </g>
        </g>
      </g>
    </g>
  </g>
</svg>
