<svg xmlns="http://www.w3.org/2000/svg" xmlns:xlink="http://www.w3.org/1999/xlink" width="78.501" height="70.574" viewBox="0 0 78.501 70.574">
  <defs>
    <clipPath id="clip-path">
      <rect id="Rectángulo_401729" data-name="Rectángulo 401729" width="59" height="59" transform="translate(303 5305)" fill="#fff" stroke="#707070" stroke-width="1"/>
    </clipPath>
  </defs>
  <g id="Grupo_1100227" data-name="Grupo 1100227" transform="translate(-291.499 -5305)">
    <path id="_12068" data-name="12068" d="M72.033,71.913c-8.038-1.11-16.53-.839-23.844,2.675C38.045,79.46,31.382,90.507,31.127,101.757s5.606,22.305,14.66,28.988,21,9.051,32.068,7.045c11.165-2.023,21.645-8.583,27.469-18.322,3.735-6.245,5.48-13.956,3.417-20.934a28.6,28.6,0,0,0-6.787-11.156A50.145,50.145,0,0,0,72.033,71.913Z" transform="translate(260.38 5237.093)" fill="#26aab7"/>
    <g id="Enmascarar_grupo_1098740" data-name="Enmascarar grupo 1098740" clip-path="url(#clip-path)">
      <g id="limite-de-tiempo" transform="translate(303.016 5305)">
        <g id="Grupo_1100244" data-name="Grupo 1100244">
          <g id="Grupo_1100232" data-name="Grupo 1100232">
            <path id="Trazado_874964" data-name="Trazado 874964" d="M52.964,35.627A24.389,24.389,0,0,0,35.441,3.972" fill="none" stroke="#000" stroke-linecap="round" stroke-linejoin="round" stroke-width="1.729" stroke-dasharray="12 30"/>
          </g>
          <path id="Trazado_874965" data-name="Trazado 874965" d="M5.621,29.638A24.369,24.369,0,0,0,29.913,52.078" fill="none" stroke="#000" stroke-linecap="round" stroke-linejoin="round" stroke-miterlimit="10" stroke-width="1.729"/>
          <path id="Trazado_874966" data-name="Trazado 874966" d="M29.913,3.342a24.285,24.285,0,0,0-16.788,6.706" fill="none" stroke="#000" stroke-linecap="round" stroke-linejoin="round" stroke-miterlimit="10" stroke-width="1.729"/>
          <path id="Trazado_874967" data-name="Trazado 874967" d="M36.636,44.85a10.694,10.694,0,0,1,12-10.612A19.826,19.826,0,0,0,15.667,13.925l6.947,12.032a2.377,2.377,0,0,1-2.058,3.565H10.172A19.839,19.839,0,0,0,36.739,46.328,10.728,10.728,0,0,1,36.636,44.85Z" fill="#fe646f"/>
          <path id="Trazado_874968" data-name="Trazado 874968" d="M48.676,34.127a19.854,19.854,0,0,0-3.138-18.619" fill="none" stroke="#000" stroke-linecap="round" stroke-linejoin="round" stroke-miterlimit="10" stroke-width="1.729"/>
          <path id="Trazado_874969" data-name="Trazado 874969" d="M42.743,12.6a19.82,19.82,0,0,0-26.992,1.241L22.714,25.9a2.492,2.492,0,0,1-2.158,3.738H10.182a19.837,19.837,0,0,0,26.446,16.73" fill="none" stroke="#000" stroke-linecap="round" stroke-linejoin="round" stroke-miterlimit="10" stroke-width="1.729"/>
          <g id="Grupo_1100233" data-name="Grupo 1100233">
            <path id="Trazado_874970" data-name="Trazado 874970" d="M47.328,34.043a10.8,10.8,0,0,0-3.264.5,15.821,15.821,0,0,1-7.091,7.2,10.808,10.808,0,1,0,10.355-7.706Z" fill="#05e39c"/>
            <path id="Trazado_874971" data-name="Trazado 874971" d="M47.328,34.043a10.837,10.837,0,0,0-2.416.271,10.81,10.81,0,0,1,0,21.072,10.808,10.808,0,1,0,2.416-21.343Z" fill="#0ed290"/>
            <path id="Trazado_874972" data-name="Trazado 874972" d="M41.32,53.834A10.805,10.805,0,1,0,44.22,34.5a15.9,15.9,0,0,1-7.292,7.409,10.829,10.829,0,0,0,1.518,9.1" fill="none" stroke="#000" stroke-linecap="round" stroke-linejoin="round" stroke-miterlimit="10" stroke-width="1.729"/>
            <path id="Trazado_874973" data-name="Trazado 874973" d="M42.28,43.784l4.266,4.622,6.328-7.323" fill="none" stroke="#000" stroke-linecap="round" stroke-linejoin="round" stroke-miterlimit="10" stroke-width="1.729"/>
          </g>
          <g id="Grupo_1100234" data-name="Grupo 1100234">
            <path id="Trazado_874974" data-name="Trazado 874974" d="M29.913,11.878a15.8,15.8,0,0,0-12.148,5.68l4.849,8.4a2.377,2.377,0,0,1-2.058,3.565H14.185A15.832,15.832,0,1,0,29.913,11.878Z" fill="#fff"/>
            <line id="Línea_1608" data-name="Línea 1608" x2="5.369" transform="translate(31.84 27.71)" fill="none" stroke="#000" stroke-linecap="round" stroke-linejoin="round" stroke-miterlimit="10" stroke-width="1.729"/>
            <path id="Trazado_874975" data-name="Trazado 874975" d="M29.913,11.878a15.954,15.954,0,0,0-2.419.184,15.835,15.835,0,0,1,0,31.3,15.833,15.833,0,1,0,2.419-31.481Z" fill="#f3f0f3"/>
            <path id="Trazado_874976" data-name="Trazado 874976" d="M29.913,11.878a15.8,15.8,0,0,0-12.069,5.586l4.87,8.435a2.492,2.492,0,0,1-2.158,3.738H14.2a15.833,15.833,0,1,0,15.715-17.76Z" fill="none" stroke="#000" stroke-linecap="round" stroke-linejoin="round" stroke-miterlimit="10" stroke-width="1.729"/>
          </g>
          <g id="Grupo_1100241" data-name="Grupo 1100241">
            <g id="Grupo_1100235" data-name="Grupo 1100235">
              <line id="Línea_1609" data-name="Línea 1609" y2="0.688" transform="translate(29.913 14.976)" fill="none" stroke="#000" stroke-linecap="round" stroke-linejoin="round" stroke-miterlimit="10" stroke-width="1.729"/>
              <line id="Línea_1610" data-name="Línea 1610" y2="0.688" transform="translate(29.913 39.757)" fill="none" stroke="#000" stroke-linecap="round" stroke-linejoin="round" stroke-miterlimit="10" stroke-width="1.729"/>
            </g>
            <g id="Grupo_1100236" data-name="Grupo 1100236">
              <line id="Línea_1611" data-name="Línea 1611" x2="0.688" transform="translate(41.959 27.71)" fill="none" stroke="#000" stroke-linecap="round" stroke-linejoin="round" stroke-miterlimit="10" stroke-width="1.729"/>
            </g>
            <g id="Grupo_1100237" data-name="Grupo 1100237">
              <line id="Línea_1612" data-name="Línea 1612" x2="0.344" y2="0.596" transform="translate(23.546 16.682)" fill="none" stroke="#000" stroke-linecap="round" stroke-linejoin="round" stroke-miterlimit="10" stroke-width="1.729"/>
              <line id="Línea_1613" data-name="Línea 1613" x2="0.344" y2="0.596" transform="translate(35.936 38.143)" fill="none" stroke="#000" stroke-linecap="round" stroke-linejoin="round" stroke-miterlimit="10" stroke-width="1.729"/>
            </g>
            <g id="Grupo_1100238" data-name="Grupo 1100238">
              <line id="Línea_1614" data-name="Línea 1614" y1="0.344" x2="0.596" transform="translate(18.884 33.733)" fill="none" stroke="#000" stroke-linecap="round" stroke-linejoin="round" stroke-miterlimit="10" stroke-width="1.729"/>
              <line id="Línea_1615" data-name="Línea 1615" y1="0.344" x2="0.596" transform="translate(40.345 21.343)" fill="none" stroke="#000" stroke-linecap="round" stroke-linejoin="round" stroke-miterlimit="10" stroke-width="1.729"/>
            </g>
            <g id="Grupo_1100239" data-name="Grupo 1100239">
              <line id="Línea_1616" data-name="Línea 1616" x2="0.596" y2="0.344" transform="translate(40.345 33.733)" fill="none" stroke="#000" stroke-linecap="round" stroke-linejoin="round" stroke-miterlimit="10" stroke-width="1.729"/>
            </g>
            <g id="Grupo_1100240" data-name="Grupo 1100240">
              <line id="Línea_1617" data-name="Línea 1617" y1="0.596" x2="0.344" transform="translate(23.546 38.143)" fill="none" stroke="#000" stroke-linecap="round" stroke-linejoin="round" stroke-miterlimit="10" stroke-width="1.729"/>
              <line id="Línea_1618" data-name="Línea 1618" y1="0.596" x2="0.344" transform="translate(35.936 16.682)" fill="none" stroke="#000" stroke-linecap="round" stroke-linejoin="round" stroke-miterlimit="10" stroke-width="1.729"/>
            </g>
          </g>
          <circle id="Elipse_11613" data-name="Elipse 11613" cx="1.927" cy="1.927" r="1.927" transform="translate(27.986 25.783)" fill="#fe646f"/>
          <circle id="Elipse_11614" data-name="Elipse 11614" cx="1.927" cy="1.927" r="1.927" transform="translate(27.986 25.783)" fill="none" stroke="#000" stroke-linecap="round" stroke-linejoin="round" stroke-miterlimit="10" stroke-width="1.729"/>
          <g id="Grupo_1100243" data-name="Grupo 1100243">
            <path id="Trazado_874977" data-name="Trazado 874977" d="M9.8,11.007,1.2,25.9A2.492,2.492,0,0,0,3.36,29.638h17.2A2.492,2.492,0,0,0,22.714,25.9l-8.6-14.892A2.492,2.492,0,0,0,9.8,11.007Z" fill="#ffd15b"/>
            <path id="Trazado_874978" data-name="Trazado 874978" d="M22.714,25.9l-8.6-14.892a2.492,2.492,0,0,0-4.316,0l-.233.4L17.932,25.9a2.492,2.492,0,0,1-2.158,3.738h4.782A2.492,2.492,0,0,0,22.714,25.9Z" fill="#ffc344"/>
            <path id="Trazado_874979" data-name="Trazado 874979" d="M4.507,20.174,1.2,25.9A2.492,2.492,0,0,0,3.36,29.638h17.2A2.492,2.492,0,0,0,22.714,25.9l-8.6-14.892a2.492,2.492,0,0,0-4.316,0L6.524,16.681" fill="none" stroke="#000" stroke-linecap="round" stroke-linejoin="round" stroke-miterlimit="10" stroke-width="1.729"/>
            <g id="Grupo_1100242" data-name="Grupo 1100242">
              <line id="Línea_1619" data-name="Línea 1619" y2="6.528" transform="translate(11.958 14.851)" fill="#fff" stroke="#000" stroke-linecap="round" stroke-linejoin="round" stroke-miterlimit="10" stroke-width="1.729"/>
              <line id="Línea_1620" data-name="Línea 1620" y2="0.796" transform="translate(11.958 24.789)" fill="#fff" stroke="#000" stroke-linecap="round" stroke-linejoin="round" stroke-miterlimit="10" stroke-width="1.729"/>
            </g>
          </g>
        </g>
        <line id="Línea_1621" data-name="Línea 1621" y2="7.159" transform="translate(29.913 18.624)" fill="none" stroke="#000" stroke-linecap="round" stroke-linejoin="round" stroke-miterlimit="10" stroke-width="1.729"/>
      </g>
    </g>
  </g>
</svg>
