<svg xmlns="http://www.w3.org/2000/svg" xmlns:xlink="http://www.w3.org/1999/xlink" width="78.501" height="70.574" viewBox="0 0 78.501 70.574">
  <defs>
    <clipPath id="clip-path">
      <rect id="Rectángulo_401729" data-name="Rectángulo 401729" width="59" height="59" transform="translate(303 5305)" fill="#fff" stroke="#707070" stroke-width="1"/>
    </clipPath>
  </defs>
  <g id="Grupo_1100230" data-name="Grupo 1100230" transform="translate(-291.499 -5305)">
    <path id="_12068" data-name="12068" d="M72.033,71.913c-8.038-1.11-16.53-.839-23.844,2.675C38.045,79.46,31.382,90.507,31.127,101.757s5.606,22.305,14.66,28.988,21,9.051,32.068,7.045c11.165-2.023,21.645-8.583,27.469-18.322,3.735-6.245,5.48-13.956,3.417-20.934a28.6,28.6,0,0,0-6.787-11.156A50.145,50.145,0,0,0,72.033,71.913Z" transform="translate(260.38 5237.093)" fill="#7d6eb2"/>
    <g id="Enmascarar_grupo_1098743" data-name="Enmascarar grupo 1098743" clip-path="url(#clip-path)">
      <g id="Layer_1" transform="translate(298.451 5300.384)">
        <path id="Trazado_875054" data-name="Trazado 875054" d="M37.082,25.292c0-.005.009-.009.012-.014A.088.088,0,0,1,37.082,25.292Zm4.806.216V16.93H19.308V30.084H37.32L36.776,26.2a1.084,1.084,0,0,1,.306-.9,1.079,1.079,0,0,0-.292.889l.827,6.026.353,2.575a1.062,1.062,0,0,0,1.806.611l1.447-1.447c5.057,4.9,4.885,5.217,5.654,5.217s.757-.451,3.783-3.344a1.067,1.067,0,0,0,0-1.5L45.75,29.408,47.2,27.96a1.069,1.069,0,0,0-.611-1.806L44.011,25.8Zm-2.8,1.774,2.055.286h.011l1.716.237,1.289.179-.69.69a1.067,1.067,0,0,0,0,1.5l4.911,4.911-1.5,1.5-4.911-4.911a1.054,1.054,0,0,0-1.5.014l-.69.69-.167-1.215-.536-3.882.014,0Zm-5.1-4.619a1.054,1.054,0,0,1,.4.836,1.075,1.075,0,0,1-.4.836l-5.482,4.328a1.068,1.068,0,0,1-1.725-.836V19.173a1.067,1.067,0,0,1,1.725-.836Z" fill="#ffeb3a" fill-rule="evenodd"/>
        <path id="Trazado_875055" data-name="Trazado 875055" d="M45.563,46H43.97a1.063,1.063,0,1,1,0-2.125h1.593a1.063,1.063,0,0,1,0,2.125Z" fill-rule="evenodd"/>
        <path id="Trazado_875056" data-name="Trazado 875056" d="M51.351,46H49.758a1.063,1.063,0,0,1,0-2.125h1.593a1.063,1.063,0,1,1,0,2.125Z" fill-rule="evenodd"/>
        <path id="Trazado_875057" data-name="Trazado 875057" d="M57.138,46H55.426a1.063,1.063,0,0,1,0-2.125h1.7a1.065,1.065,0,0,1,1.063,1.063A1.054,1.054,0,0,1,57.138,46Z" fill-rule="evenodd"/>
        <path id="Trazado_875058" data-name="Trazado 875058" d="M27.181,57.361a1.056,1.056,0,0,1-.783-1.273l1.925-8.016a1.057,1.057,0,1,1,2.057.49l-1.925,8.016A1.044,1.044,0,0,1,27.181,57.361Z" fill-rule="evenodd"/>
        <path id="Trazado_875059" data-name="Trazado 875059" d="M39.644,56.537l-1.633-8.016a1.057,1.057,0,0,1,2.071-.423l1.633,8.016a1.05,1.05,0,0,1-.824,1.247A1.038,1.038,0,0,1,39.644,56.537Z" fill-rule="evenodd"/>
        <path id="Trazado_875060" data-name="Trazado 875060" d="M45.258,57.388H22.786a1.063,1.063,0,0,1,0-2.125H45.258a1.063,1.063,0,0,1,0,2.125Z" fill-rule="evenodd"/>
        <path id="Trazado_875061" data-name="Trazado 875061" d="M60.5,49.37H7.6a2.957,2.957,0,0,1-3.053-3.053V13.944A3.048,3.048,0,0,1,7.6,10.839H60.5a3.081,3.081,0,0,1,3.053,3.105V46.317A3.019,3.019,0,0,1,60.5,49.37ZM7.616,12.975a.917.917,0,0,0-.929.982V46.331a.851.851,0,0,0,.929.929H60.509a.908.908,0,0,0,.929-.929V13.957a.97.97,0,0,0-.929-.982Z" fill-rule="evenodd"/>
        <path id="Trazado_875062" data-name="Trazado 875062" d="M62.486,42.614H5.624a1.063,1.063,0,0,1,0-2.125H62.486a1.063,1.063,0,0,1,0,2.125Z" fill-rule="evenodd"/>
        <path id="Trazado_875063" data-name="Trazado 875063" d="M38.541,32.208H18.247a1.065,1.065,0,0,1-1.063-1.063V15.868A1.065,1.065,0,0,1,18.247,14.8h24.7a1.066,1.066,0,0,1,1.063,1.063V26.752A1.062,1.062,0,0,1,42.8,27.8l-3.717-.518L39.606,31a1.089,1.089,0,0,1-1.064,1.208ZM19.3,30.084H37.32L36.776,26.2a1.076,1.076,0,0,1,1.208-1.208l3.9.544v-8.6H19.308V30.084Z" fill-rule="evenodd"/>
        <path id="Trazado_875064" data-name="Trazado 875064" d="M26.782,27.827V19.173a1.067,1.067,0,0,1,1.725-.836l5.482,4.328a1.054,1.054,0,0,1,.4.836,1.075,1.075,0,0,1-.4.836l-5.482,4.326a1.068,1.068,0,0,1-1.725-.836Zm2.124-6.464v4.273L31.614,23.5Z" fill-rule="evenodd"/>
        <path id="Trazado_875065" data-name="Trazado 875065" d="M46.877,39.163c-.769,0-.6-.318-5.654-5.217l-1.447,1.447a1.062,1.062,0,0,1-1.806-.611l-1.182-8.6A1.076,1.076,0,0,1,38,24.973l8.587,1.182A1.07,1.07,0,0,1,47.2,27.96l-1.447,1.447,4.911,4.911a1.067,1.067,0,0,1,0,1.5C47.634,38.712,47.634,39.163,46.877,39.163Zm-4.911-7.486,4.911,4.911,1.5-1.5-4.911-4.911a1.067,1.067,0,0,1,0-1.5l.69-.69-5.083-.7.7,5.1.69-.69a1.05,1.05,0,0,1,1.5-.012Z" fill-rule="evenodd"/>
        <path id="Trazado_875066" data-name="Trazado 875066" d="M28.905,25.637,31.614,23.5l-2.708-2.138Z" fill="#f44335" fill-rule="evenodd"/>
        <path id="Trazado_875067" data-name="Trazado 875067" d="M39.086,27.284,39.6,31a1.307,1.307,0,0,1,.005.165l.167,1.215.69-.69a1.054,1.054,0,0,1,1.5-.014l4.911,4.911,1.5-1.5-4.911-4.911a1.067,1.067,0,0,1,0-1.5l.69-.69-1.289-.179c-.021,0-.042,0-.063-.007l-1.656-.23Z" fill="#a4c400" fill-rule="evenodd"/>
        <path id="Trazado_875068" data-name="Trazado 875068" d="M44.011,25.8l2.575.355A1.07,1.07,0,0,1,47.2,27.96L45.75,29.408l4.911,4.911a1.067,1.067,0,0,1,0,1.5c-3.026,2.893-3.026,3.344-3.783,3.344s-.6-.318-5.654-5.217l-1.447,1.447a1.062,1.062,0,0,1-1.806-.611l-.353-2.575H18.247a1.065,1.065,0,0,1-1.063-1.063V15.868A1.065,1.065,0,0,1,18.247,14.8h24.7a1.066,1.066,0,0,1,1.063,1.063V25.8ZM6.687,40.491H61.44V13.957a.97.97,0,0,0-.929-.982H7.616a.917.917,0,0,0-.929.982Z" fill="#a6f5ff" fill-rule="evenodd"/>
        <path id="Trazado_875069" data-name="Trazado 875069" d="M61.438,42.614H6.687v3.717a.851.851,0,0,0,.929.929H29.288c.042,0,.083,0,.125,0h9.5a1.035,1.035,0,0,1,.276,0H60.509a.908.908,0,0,0,.929-.929ZM43.97,46a1.063,1.063,0,1,1,0-2.125h1.593a1.063,1.063,0,0,1,0,2.125Zm5.787,0a1.063,1.063,0,0,1,0-2.125h1.593a1.063,1.063,0,1,1,0,2.125Zm5.668,0a1.063,1.063,0,1,1,0-2.125h1.7a1.065,1.065,0,0,1,1.063,1.063A1.053,1.053,0,0,1,57.138,46Z" fill="#f44335" fill-rule="evenodd"/>
        <path id="Trazado_875070" data-name="Trazado 875070" d="M38.185,49.37h-8L28.77,55.264H39.384Z" fill="#f5f5f5" fill-rule="evenodd"/>
        <path id="Trazado_875071" data-name="Trazado 875071" d="M59.613,13.957V40.491h1.825V13.957a.97.97,0,0,0-.929-.982H58.684a.97.97,0,0,1,.929.982Z" fill="#86c7cf" fill-rule="evenodd"/>
        <path id="Trazado_875072" data-name="Trazado 875072" d="M61.438,42.614H59.613v3.717a.908.908,0,0,1-.929.929h1.825a.908.908,0,0,0,.929-.929Z" fill="#c6362b" fill-rule="evenodd"/>
      </g>
    </g>
  </g>
</svg>
