<svg id="Grupo_1100073" data-name="Grupo 1100073" xmlns="http://www.w3.org/2000/svg" xmlns:xlink="http://www.w3.org/1999/xlink" width="295" height="273.059" viewBox="0 0 295 273.059">
  <defs>
    <clipPath id="clip-path">
      <rect id="Rect치ngulo_401639" data-name="Rect치ngulo 401639" width="295" height="273.059" fill="none"/>
    </clipPath>
  </defs>
  <g id="Enmascarar_grupo_1100072" data-name="Enmascarar grupo 1100072" clip-path="url(#clip-path)">
    <path id="Trazado_874478" data-name="Trazado 874478" d="M321.041,180.61A128.219,128.219,0,0,1,193.982,308.955c-.219.006-.444.012-.664.006s-.421.006-.634.006A128.367,128.367,0,0,1,94.514,97.9q3.619-4.287,7.589-8.241,1.672-1.672,3.415-3.272,3.263-3.023,6.734-5.822c.136-.107.273-.219.415-.332s.279-.226.421-.332l.178-.142a128.384,128.384,0,0,1,159.007.142c.089.071.178.142.267.208.053.047.107.083.154.124.142.113.278.225.415.332q3.61,2.908,7.008,6.071c1.132,1.055,2.241,2.122,3.332,3.213q4.028,4.028,7.7,8.412a127.807,127.807,0,0,1,29.891,82.346" transform="translate(-44.206 -35.909)" fill="#7d6eb2"/>
    <path id="Trazado_874479" data-name="Trazado 874479" d="M434.624,721.038l-69.187-1.316.02-.1L378.5,709.037H432.05Z" transform="translate(-251.13 -487.254)" fill="#515696"/>
    <path id="Trazado_874480" data-name="Trazado 874480" d="M428.293,791.814a127.924,127.924,0,0,1-40.645,7c-.219.006-.445.012-.664.006s-.421.006-.634.006a128.061,128.061,0,0,1-40.207-6.427l4.826-27.318c8.1,2.359,40.242,10.606,72.262,3.166Z" transform="translate(-237.871 -525.769)" fill="#12263f"/>
    <path id="Trazado_874481" data-name="Trazado 874481" d="M433.833,753.209c-32.021,7.44-64.167-.8-72.265-3.165l1.21-6.848,69.187,1.316Z" transform="translate(-248.471 -510.728)" fill="#091c34"/>
    <path id="Trazado_874482" data-name="Trazado 874482" d="M475.628,846.473c-.219.006-.444.012-.664.006-.207-2.644-.563-8.092-.794-11.691a.332.332,0,0,1,.308-.356.336.336,0,0,1,.356.308c.249,3.853.6,9.225.795,11.732" transform="translate(-325.851 -573.427)" fill="#454a8a"/>
    <path id="Trazado_874483" data-name="Trazado 874483" d="M349.139,680.491l-2.38,21.968s38.627,14.279,82.379,0l-4.027-23.982Z" transform="translate(-238.295 -466.253)" fill="#fff"/>
    <path id="Trazado_874484" data-name="Trazado 874484" d="M163.34,118.122c-.542.271-5.189,7.448-5.912,11.375s2.956,27.624,2.956,27.624l15.143-5.146-6.906-23.02,6.906-7.989Z" transform="translate(-108.121 -81.174)" fill="#ffa890"/>
    <path id="Trazado_874485" data-name="Trazado 874485" d="M747.145,118.122c.542.271,5.189,7.448,5.912,11.375s-2.956,27.624-2.956,27.624l-15.143-5.146,6.906-23.02-6.906-7.989Z" transform="translate(-505.067 -81.174)" fill="#ffa890"/>
    <path id="Trazado_874486" data-name="Trazado 874486" d="M159.756,212.371c2.526-.239,9.856-1.122,14.681-3.661a1.483,1.483,0,0,1,1.642.179l1.17.977A5.71,5.71,0,0,1,179,212.411l12.131,35.672,55.076,29.58h10.774V377.11s-35.446-.144-42.922-10.112c0,0,1.5-25.918,1.993-26.665s-1-38.175-1-38.175-21.886-10.391-38.233-30.21A36.606,36.606,0,0,1,170,259.058L157.872,218.2a5.708,5.708,0,0,1,.189-3.786l.457-1.116a1.489,1.489,0,0,1,1.239-.922" transform="translate(-108.328 -143.311)" fill="#ffd947"/>
    <path id="Trazado_874487" data-name="Trazado 874487" d="M572.448,212.371c-2.525-.239-9.855-1.122-14.681-3.661a1.483,1.483,0,0,0-1.642.179l-1.17.977a5.711,5.711,0,0,0-1.747,2.545l-12.131,35.672L486,277.663H475.228V377.11s35.446-.144,42.922-10.112c0,0-1.5-25.918-1.993-26.665s1-38.175,1-38.175,21.886-10.391,38.233-30.21a36.606,36.606,0,0,0,6.818-12.89L574.333,218.2a5.707,5.707,0,0,0-.189-3.786l-.457-1.116a1.489,1.489,0,0,0-1.239-.922" transform="translate(-326.579 -143.311)" fill="#ffd947"/>
    <path id="Trazado_874488" data-name="Trazado 874488" d="M285.507,1.071H10.947a9.917,9.917,0,0,0-9.888,9.888V35.174a9.917,9.917,0,0,0,9.888,9.887h274.56a9.917,9.917,0,0,0,9.888-9.887V10.959a9.917,9.917,0,0,0-9.888-9.888" transform="translate(-0.728 -0.736)" fill="#fff"/>
    <path id="Trazado_874489" data-name="Trazado 874489" d="M233.522,44H63.772l-.285.332H233.812Zm0,0H63.772l-.285.332H233.812ZM291.846,9.219c-.083-.136-.172-.273-.261-.4a20.183,20.183,0,0,0-5.4-5.4c-.13-.089-.267-.178-.4-.261-.053-.035-.107-.065-.16-.095-.125-.083-.255-.16-.385-.231A19.692,19.692,0,0,0,275.027,0H19.973A19.753,19.753,0,0,0,9.758,2.828c-.13.071-.261.148-.385.231a1.382,1.382,0,0,0-.154.095A20.062,20.062,0,0,0,3.154,9.219c-.036.053-.071.107-.1.16-.083.124-.16.255-.231.385A19.8,19.8,0,0,0,0,19.973v4.713A19.8,19.8,0,0,0,2.822,34.9c.071.13.148.261.231.385a1.043,1.043,0,0,0,.1.16,20,20,0,0,0,6.065,6.065,1.383,1.383,0,0,0,.154.095c.124.083.255.16.385.231a19.753,19.753,0,0,0,10.215,2.828H275.027a19.82,19.82,0,0,0,10.754-3.154c.136-.083.273-.172.4-.261a20.093,20.093,0,0,0,5.4-5.4c.089-.13.178-.267.261-.4A19.807,19.807,0,0,0,295,24.686V19.973a19.805,19.805,0,0,0-3.154-10.754M275.027,44H19.973A19.33,19.33,0,0,1,.664,24.686V19.973A19.329,19.329,0,0,1,19.973.67H275.027a19.329,19.329,0,0,1,19.309,19.3v4.713A19.33,19.33,0,0,1,275.027,44m-41.505,0H63.772l-.285.332H233.812Z" fill="#7d6eb2"/>
    <path id="Trazado_874490" data-name="Trazado 874490" d="M743.141,117.534s-2.3-4.875-10.021-9.885c0,0-.271-9.749-2.166-9.885s-1.625,2.3-1.49,5.281-.734,6.229-.1,8.26,7.679,13.948,7.679,13.948Z" transform="translate(-501.063 -67.18)" fill="#ffa890"/>
    <path id="Trazado_874491" data-name="Trazado 874491" d="M176.536,117.534s2.3-4.875,10.021-9.885c0,0,.271-9.749,2.166-9.885s1.625,2.3,1.49,5.281.734,6.229.1,8.26-7.679,13.948-7.679,13.948Z" transform="translate(-121.317 -67.18)" fill="#ffa890"/>
    <path id="Trazado_874492" data-name="Trazado 874492" d="M406.851,251.585l-1.085,1.809a6.032,6.032,0,0,0-.787,4.053c.64,4.02,2.114,12.315,3.587,13.869,1.959,2.067,9.8,1.9,9.8,1.9l17,0,10.435-10.034s2.531-14.053,1.47-15.6a16.981,16.981,0,0,0-10.368-5.8s-4.741-7.266-11.838-7.021c-7.432.256-18.369,10.7-18.614,13.226a16.053,16.053,0,0,0,.408,3.592" transform="translate(-278.252 -161.329)" fill="#53372a"/>
    <path id="Trazado_874493" data-name="Trazado 874493" d="M468.345,384.128H452.13l.7-21.631.354-10.872h14.107l.522,16.121Z" transform="translate(-310.706 -241.639)" fill="#ffa890"/>
    <path id="Trazado_874494" data-name="Trazado 874494" d="M453.623,379.085s2.56,4.245,6.071,4.245,7.019-.113,9.227-6.823-9.689-4.039-9.689-4.039Z" transform="translate(-311.732 -255.601)" fill="#d98f7a"/>
    <path id="Trazado_874495" data-name="Trazado 874495" d="M442.552,258.933c-14.345,0-14.345,9.621-14.345,21.488s8.562,21.1,14.345,21.1,14.345-9.231,14.345-21.1,0-21.488-14.345-21.488" transform="translate(-294.266 -177.94)" fill="#ffa890"/>
    <path id="Trazado_874496" data-name="Trazado 874496" d="M516.813,322.892c-1.728,2.993-4.667,4.532-6.563,3.437s-2.033-4.409-.3-7.4,4.667-4.532,6.563-3.437,2.033,4.409.3,7.4" transform="translate(-349.604 -216.564)" fill="#ffa890"/>
    <path id="Trazado_874497" data-name="Trazado 874497" d="M520.126,330.345a.452.452,0,0,1-.387-.683c1.82-3.046.1-4.659.084-4.675a.451.451,0,1,1,.607-.668c.023.021,2.278,2.133.084,5.806a.45.45,0,0,1-.388.22" transform="translate(-357.123 -222.794)" fill="#e28065"/>
    <path id="Trazado_874498" data-name="Trazado 874498" d="M410.91,322.892c1.728,2.993,4.667,4.532,6.563,3.437s2.033-4.409.3-7.4-4.667-4.532-6.563-3.437-2.033,4.409-.3,7.4" transform="translate(-281.547 -216.564)" fill="#ffa890"/>
    <path id="Trazado_874499" data-name="Trazado 874499" d="M424.064,330.345a.451.451,0,0,1-.388-.22c-2.195-3.673.061-5.785.084-5.806a.451.451,0,0,1,.609.667c-.078.072-1.717,1.667.082,4.676a.452.452,0,0,1-.387.683" transform="translate(-290.493 -222.793)" fill="#e28065"/>
    <path id="Trazado_874500" data-name="Trazado 874500" d="M454.622,321.523c0,1.244-.559,2.252-1.249,2.252s-1.249-1.008-1.249-2.252.559-2.252,1.249-2.252,1.249,1.008,1.249,2.252" transform="translate(-310.703 -219.405)" fill="#371d14"/>
    <path id="Trazado_874501" data-name="Trazado 874501" d="M490.526,321.523c0,1.244-.559,2.252-1.249,2.252s-1.249-1.008-1.249-2.252.559-2.252,1.249-2.252,1.249,1.008,1.249,2.252" transform="translate(-335.376 -219.405)" fill="#371d14"/>
    <path id="Trazado_874502" data-name="Trazado 874502" d="M442.949,305.765a3.118,3.118,0,0,1,.62-.613,4.9,4.9,0,0,1,.679-.437,6.676,6.676,0,0,1,1.479-.564,10.233,10.233,0,0,1,1.539-.273c.515-.047,1.029-.063,1.543-.059a1.215,1.215,0,1,1-.015,2.43,1.255,1.255,0,0,1-.318-.044c-.415-.115-.834-.217-1.256-.292a8.414,8.414,0,0,0-1.263-.116,5.258,5.258,0,0,0-1.24.117,3.831,3.831,0,0,0-.581.18,2.894,2.894,0,0,0-.482.25l-.117.073a.446.446,0,0,1-.589-.65" transform="translate(-304.334 -208.786)" fill="#53372a"/>
    <path id="Trazado_874503" data-name="Trazado 874503" d="M488.751,306.343a2.866,2.866,0,0,0-.483-.249,3.775,3.775,0,0,0-.581-.18,5.237,5.237,0,0,0-1.24-.117,8.38,8.38,0,0,0-1.263.116c-.422.076-.84.177-1.256.292a1.215,1.215,0,1,1-.651-2.342,1.268,1.268,0,0,1,.318-.044c.515,0,1.028.012,1.543.059a10.182,10.182,0,0,1,1.539.274,6.653,6.653,0,0,1,1.479.564,4.944,4.944,0,0,1,.679.437,3.123,3.123,0,0,1,.62.613.446.446,0,0,1-.589.651Z" transform="translate(-331.5 -208.786)" fill="#53372a"/>
    <path id="Trazado_874504" data-name="Trazado 874504" d="M427.614,318.767l.934,11.523a9.81,9.81,0,0,0,1.42,4.344l3.275,5.329a7.794,7.794,0,0,0,1.85,2.067l.656.511a7.783,7.783,0,0,0,4.78,1.641h1.615V326.159L440,326.5a9.391,9.391,0,0,0-4.52,2.053l-1.911,1.589-2.146-3.059a10.3,10.3,0,0,1-1.781-4.574l-.493-3.744Z" transform="translate(-293.859 -219.058)" fill="#53372a"/>
    <path id="Trazado_874505" data-name="Trazado 874505" d="M488.6,318.767l-.934,11.523a9.811,9.811,0,0,1-1.42,4.344l-3.275,5.329a7.784,7.784,0,0,1-1.85,2.067l-.656.511a7.783,7.783,0,0,1-4.78,1.641h-1.615V326.159l2.145.343a9.391,9.391,0,0,1,4.52,2.053l1.911,1.589,2.146-3.059a10.306,10.306,0,0,0,1.782-4.574l.493-3.744Z" transform="translate(-325.783 -219.058)" fill="#53372a"/>
    <path id="Trazado_874506" data-name="Trazado 874506" d="M427.75,275.579l-.568-6.024,1.633-3.184s3.7-1.8,10.913-6.123c0,0,7.13.653,11.049,2.613,0,0,1.755,5.547,3.021,8.327l-.055,4.391h1.535l.186-6.187-1.748-7.184-4.735-5.344-8.736-.942-8.816,1.388-5.027,7.266-.822,6.368.637,4.636Z" transform="translate(-292.46 -175.87)" fill="#53372a"/>
    <path id="Trazado_874507" data-name="Trazado 874507" d="M468.821,328.226a.446.446,0,0,1-.155-.028l-1.937-.708a.451.451,0,0,1-.255-.613l2.3-4.97a.451.451,0,1,1,.819.379l-2.094,4.525,1.477.54a.451.451,0,0,1-.155.875" transform="translate(-320.535 -221.037)" fill="#e28065"/>
    <path id="Trazado_874508" data-name="Trazado 874508" d="M469.416,356.474a4.181,4.181,0,0,1-7.774,0l1.607.178a20.739,20.739,0,0,0,4.56,0Z" transform="translate(-317.243 -244.971)" fill="#fff"/>
    <path id="Trazado_874509" data-name="Trazado 874509" d="M378.836,639.638a.432.432,0,0,1-.388-.619l4.632-9.579V613.071a.431.431,0,0,1,.863,0v16.468a.437.437,0,0,1-.043.188l-4.675,9.668a.432.432,0,0,1-.388.243" transform="translate(-260.042 -421.01)" fill="#c95f47"/>
    <path id="Trazado_874510" data-name="Trazado 874510" d="M559.453,639.638a.431.431,0,0,1-.389-.243l-4.674-9.668a.436.436,0,0,1-.043-.188V613.071a.432.432,0,0,1,.863,0V629.44l4.631,9.579a.431.431,0,0,1-.2.576.427.427,0,0,1-.187.043" transform="translate(-380.95 -421.01)" fill="#c95f47"/>
    <path id="Trazado_874511" data-name="Trazado 874511" d="M514.356,282.1a.332.332,0,0,1-.3-.2l-3.869-8.549a.332.332,0,0,1,.606-.274l3.869,8.549a.332.332,0,0,1-.166.44.327.327,0,0,1-.137.03" transform="translate(-350.581 -187.528)" fill="#371d14"/>
    <path id="Trazado_874512" data-name="Trazado 874512" d="M507.391,258.266a.331.331,0,0,1-.278-.15l-.942-1.438a.332.332,0,1,1,.556-.364l.942,1.438a.332.332,0,0,1-.277.515" transform="translate(-347.806 -176.036)" fill="#371d14"/>
    <path id="Trazado_874513" data-name="Trazado 874513" d="M429.316,260.584a.333.333,0,0,1-.229-.573c.327-.311,8.036-7.61,11.149-7.676h.077c3.111,0,8.932,3.939,9.181,4.108a.332.332,0,1,1-.374.55c-.059-.04-5.9-3.993-8.8-3.993h-.066c-2.372.05-8.532,5.426-10.705,7.493a.331.331,0,0,1-.229.092" transform="translate(-294.8 -173.405)" fill="#371d14"/>
    <path id="Trazado_874514" data-name="Trazado 874514" d="M411.817,291.359a.333.333,0,0,1-.3-.2l-1.419-3.211a.332.332,0,0,1,.608-.269l1.419,3.211a.333.333,0,0,1-.17.439.329.329,0,0,1-.134.028" transform="translate(-281.8 -197.56)" fill="#371d14"/>
    <path id="Trazado_874515" data-name="Trazado 874515" d="M424.848,300.5a.333.333,0,0,1-.218-.584l1.6-1.388a.333.333,0,0,1,.436.5l-1.6,1.388a.332.332,0,0,1-.218.081" transform="translate(-291.729 -205.094)" fill="#371d14"/>
    <path id="Trazado_874516" data-name="Trazado 874516" d="M426.291,290.293a.333.333,0,0,1-.146-.631l2.785-1.361a.333.333,0,0,1,.292.6l-2.785,1.361a.334.334,0,0,1-.146.034" transform="translate(-292.721 -198.099)" fill="#371d14"/>
    <path id="Trazado_874517" data-name="Trazado 874517" d="M520.586,271.282a.334.334,0,0,1-.265-.132,31.33,31.33,0,0,0-5.712-5.264.332.332,0,1,1,.383-.543,31.409,31.409,0,0,1,5.859,5.405.333.333,0,0,1-.265.533" transform="translate(-353.546 -182.304)" fill="#371d14"/>
    <path id="Trazado_874518" data-name="Trazado 874518" d="M433.989,401.706l1.292,2.077,7.226,4.489,6.9-4.489,2.59-2.077,2.839,2.077,2.795,1.561-6.313,14.905H434.879l-1.422-5.589-5.843-8.251s3.093-2.058,3.8-2.626,2.573-2.077,2.573-2.077" transform="translate(-293.858 -276.055)" fill="#ffd947"/>
    <path id="Trazado_874519" data-name="Trazado 874519" d="M472.224,526.411a.431.431,0,0,1-.431-.422l-.91-43.128c-.066-3.155-.007-6.352.179-9.5l.822-13.979c.243-4.129.3-8.316.181-12.446l-.634-21.316a.431.431,0,1,1,.861-.025l.634,21.316c.124,4.155.063,8.369-.182,12.522l-.822,13.98c-.184,3.126-.244,6.3-.178,9.433l.91,43.129a.431.431,0,0,1-.421.44Z" transform="translate(-323.575 -292.181)" fill="#c95f47"/>
    <path id="Trazado_874520" data-name="Trazado 874520" d="M436.443,428.407a.432.432,0,0,1-.353-.182l-3.25-4.589a.431.431,0,1,1,.7-.5l3.021,4.266,8.11-4.785a.432.432,0,0,1,.476.025l.6.446,1.389-.505a.433.433,0,0,1,.41.063l6.314,4.848a11.187,11.187,0,0,0,5.572-5.062.431.431,0,0,1,.746.432c-2.605,4.5-6.141,5.488-6.289,5.527a.431.431,0,0,1-.374-.074l-6.307-4.843-1.384.5a.43.43,0,0,1-.4-.059l-.558-.414-8.206,4.841a.429.429,0,0,1-.218.06" transform="translate(-297.396 -290.15)" fill="#c95f47"/>
    <path id="Trazado_874521" data-name="Trazado 874521" d="M264.816,337.717a.431.431,0,0,1-.41-.3l-1.055-3.277a.431.431,0,1,1,.821-.265l1.055,3.277a.431.431,0,0,1-.278.543.436.436,0,0,1-.132.021" transform="translate(-180.962 -229.236)" fill="#c95f47"/>
    <path id="Trazado_874522" data-name="Trazado 874522" d="M682.558,337.385a.431.431,0,0,1-.42-.531l.7-2.947a.431.431,0,0,1,.839.2l-.7,2.947a.431.431,0,0,1-.419.331" transform="translate(-468.761 -229.235)" fill="#c95f47"/>
    <path id="Trazado_874523" data-name="Trazado 874523" d="M59.219,40.063a7.831,7.831,0,1,1-11.062.529,7.831,7.831,0,0,1,11.062-.529" transform="translate(-31.695 -26.133)" fill="#fff"/>
    <path id="Trazado_874524" data-name="Trazado 874524" d="M58.717,39.093a8.163,8.163,0,1,0,.35,11.744c.071-.065.136-.136.2-.208l.006-.006c.065-.071.13-.142.19-.22a8.166,8.166,0,0,0-.747-11.311m.066,11.086a7.508,7.508,0,1,1-.51-10.594,7.51,7.51,0,0,1,.51,10.594" transform="translate(-30.972 -25.41)" fill="#7d6eb2"/>
    <path id="Trazado_874525" data-name="Trazado 874525" d="M89.686,79.9l9.5,8.629Z" transform="translate(-61.633 -54.907)" fill="#fff"/>
    <path id="Trazado_874526" data-name="Trazado 874526" d="M89.271,79.085l9.775,8.323a.7.7,0,1,1-.9,1.06l-.033-.03L88.892,79.5a.282.282,0,0,1,.379-.417" transform="translate(-61.028 -54.302)" fill="#7d6eb2"/>
    <path id="Trazado_874527" data-name="Trazado 874527" d="M178.7,144.335a.452.452,0,0,1-.409-.641c1.275-2.748,4.653-5.09,4.8-5.188a.451.451,0,0,1,.511.744c-.033.023-3.319,2.3-4.488,4.824a.452.452,0,0,1-.409.262" transform="translate(-122.493 -95.127)" fill="#e28065"/>
    <path id="Trazado_874528" data-name="Trazado 874528" d="M760.278,144.811a.451.451,0,0,1-.369-.19,28.923,28.923,0,0,0-3.849-4.153.451.451,0,0,1,.594-.679,29.337,29.337,0,0,1,3.991,4.311.451.451,0,0,1-.368.712" transform="translate(-519.463 -95.986)" fill="#e28065"/>
    <path id="Trazado_874529" data-name="Trazado 874529" d="M473.623,425.745a.909.909,0,0,0-.806-.492.221.221,0,0,0-.065.006.88.88,0,0,0-.569.261.865.865,0,0,0-.172.243v.006a.839.839,0,0,0,.024.818.633.633,0,0,0,.16.213.612.612,0,0,0,.2.148.844.844,0,0,0,.421.113,1.056,1.056,0,0,0,.136-.012.685.685,0,0,0,.107-.024.713.713,0,0,0,.184-.077.822.822,0,0,0,.362-.362.846.846,0,0,0,.119-.433.872.872,0,0,0-.1-.409m-.9.409a.091.091,0,0,1,.089-.089.092.092,0,0,1,.1.089c0,.107-.184.107-.184,0" transform="translate(-324.303 -292.236)" fill="#371d14"/>
    <path id="Trazado_874530" data-name="Trazado 874530" d="M473.078,432.44l-.973-2.561-.047-.13a.33.33,0,0,0-.148-.172.294.294,0,0,0-.095-.047.3.3,0,0,0-.077-.012h-.113a.365.365,0,0,0-.32.231l-.048.13-.184.48-.788,2.081a.4.4,0,0,0,.047.373.414.414,0,0,0,.332.172H472.7a.413.413,0,0,0,.332-.172.42.42,0,0,0,.048-.373m-1.826-.261.427-1.144.136.362.16.427v.012l.136.344Z" transform="translate(-323.165 -295.166)" fill="#371d14"/>
    <path id="Trazado_874531" data-name="Trazado 874531" d="M378.51,695.325a.876.876,0,0,0-.706-.35.444.444,0,0,0-.089.006.9.9,0,0,0-.812.9.883.883,0,0,0,.474.789.866.866,0,0,0,.854,0,.883.883,0,0,0,.474-.789.871.871,0,0,0-.2-.551m-.706.463a.092.092,0,0,1,.095.089c0,.107-.19.107-.19,0a.092.092,0,0,1,.095-.089" transform="translate(-259.01 -477.591)" fill="#371d14"/>
    <path id="Trazado_874532" data-name="Trazado 874532" d="M378.059,702.143l-.967-2.567-.047-.125a.42.42,0,0,0-.759,0l-.048.125-.966,2.567a.4.4,0,0,0,.047.374.406.406,0,0,0,.332.172h2.028a.4.4,0,0,0,.332-.172.4.4,0,0,0,.048-.374m-1.82-.261.427-1.144.427,1.144Z" transform="translate(-257.871 -480.502)" fill="#371d14"/>
    <path id="Trazado_874533" data-name="Trazado 874533" d="M568.681,692.758a.727.727,0,0,0-.231.036.884.884,0,0,0-.64.652.662.662,0,0,0-.03.213.882.882,0,0,0,.48.789.123.123,0,0,0,.053.03.857.857,0,0,0,.367.083.884.884,0,0,0,.373-.083.123.123,0,0,0,.053-.03.889.889,0,0,0,.48-.789.906.906,0,0,0-.907-.9m-.089.9a.092.092,0,0,1,.089-.095.093.093,0,0,1,.095.095c0,.1-.184.1-.184,0" transform="translate(-390.182 -476.067)" fill="#371d14"/>
    <path id="Trazado_874534" data-name="Trazado 874534" d="M568.948,699.917l-.972-2.561-.018-.053-.029-.077a.419.419,0,0,0-.753,0l-.036.089-.012.042-.972,2.561a.416.416,0,0,0,.047.373.4.4,0,0,0,.332.178h2.033a.411.411,0,0,0,.379-.551m-1.826-.261.427-1.138.433,1.138Z" transform="translate(-389.049 -478.975)" fill="#371d14"/>
    <rect id="Rect치ngulo_401638" data-name="Rect치ngulo 401638" width="1.654" height="0.859" transform="translate(147.822 233.553)" fill="#53372a"/>
    <path id="Trazado_874535" data-name="Trazado 874535" d="M473.347,745.372h-1.654a.407.407,0,0,0-.4.4v.859a.4.4,0,0,0,.4.4h1.654a.405.405,0,0,0,.409-.4v-.859a.409.409,0,0,0-.409-.4m-.4.86H472.1v-.054h.842Z" transform="translate(-323.873 -512.224)" fill="#371d14"/>
    <path id="Trazado_874536" data-name="Trazado 874536" d="M163.525,212.259a.4.4,0,0,1-.011-.81,40.9,40.9,0,0,0,14.519-3.622.4.4,0,1,1,.346.732,41.794,41.794,0,0,1-14.843,3.7Z" transform="translate(-112.097 -142.793)" fill="#371d14"/>
    <path id="Trazado_874537" data-name="Trazado 874537" d="M752.9,212.259h-.018a39.639,39.639,0,0,1-14.85-3.706.4.4,0,1,1,.373-.718,38.785,38.785,0,0,0,14.512,3.616.4.4,0,0,1-.018.809" transform="translate(-507.027 -142.794)" fill="#371d14"/>
  </g>
</svg>
