<svg xmlns="http://www.w3.org/2000/svg" xmlns:xlink="http://www.w3.org/1999/xlink" width="78.501" height="70.574" viewBox="0 0 78.501 70.574">
  <defs>
    <clipPath id="clip-path">
      <rect id="Rectángulo_401729" data-name="Rectángulo 401729" width="59" height="59" transform="translate(303 5305)" fill="#fff" stroke="#707070" stroke-width="1"/>
    </clipPath>
  </defs>
  <g id="Grupo_1100228" data-name="Grupo 1100228" transform="translate(-291.499 -5305)">
    <path id="_12068" data-name="12068" d="M72.033,71.913c-8.038-1.11-16.53-.839-23.844,2.675C38.045,79.46,31.382,90.507,31.127,101.757s5.606,22.305,14.66,28.988,21,9.051,32.068,7.045c11.165-2.023,21.645-8.583,27.469-18.322,3.735-6.245,5.48-13.956,3.417-20.934a28.6,28.6,0,0,0-6.787-11.156A50.145,50.145,0,0,0,72.033,71.913Z" transform="translate(260.38 5237.093)" fill="#26aab7"/>
    <g id="Enmascarar_grupo_1098741" data-name="Enmascarar grupo 1098741" clip-path="url(#clip-path)">
      <g id="mensual" transform="translate(303 5305)">
        <g id="Grupo_1100267" data-name="Grupo 1100267">
          <g id="Grupo_1100248" data-name="Grupo 1100248">
            <g id="Grupo_1100247" data-name="Grupo 1100247">
              <g id="Grupo_1100245" data-name="Grupo 1100245">
                <path id="Trazado_874980" data-name="Trazado 874980" d="M44.222,30.14H15.12a1.476,1.476,0,0,1-1.477-1.474V3.976a1.6,1.6,0,0,1,1.6-1.6H44.1a1.6,1.6,0,0,1,1.6,1.6V28.666A1.476,1.476,0,0,1,44.222,30.14Z" fill="#ffe2ce"/>
              </g>
              <path id="Trazado_874981" data-name="Trazado 874981" d="M44.1,2.377H39.486a1.6,1.6,0,0,1,1.6,1.6V28.666a1.476,1.476,0,0,1-1.477,1.474h4.611A1.476,1.476,0,0,0,45.7,28.666V3.976a1.6,1.6,0,0,0-1.6-1.6Z" fill="#ffd9bf"/>
              <path id="Trazado_874982" data-name="Trazado 874982" d="M45.7,8.076H13.643v-4.1a1.6,1.6,0,0,1,1.6-1.6H44.1a1.6,1.6,0,0,1,1.6,1.6Z" fill="#ff5781"/>
              <path id="Trazado_874983" data-name="Trazado 874983" d="M44.1,2.377H39.487a1.6,1.6,0,0,1,1.6,1.6v4.1H45.7v-4.1a1.6,1.6,0,0,0-1.6-1.6Z" fill="#ff4170"/>
              <g id="Grupo_1100246" data-name="Grupo 1100246">
                <path id="Trazado_874984" data-name="Trazado 874984" d="M17.909,12.359H23v5.079H17.909Z" fill="#ffcba0"/>
                <path id="Trazado_874985" data-name="Trazado 874985" d="M27.126,12.359h5.089v5.079H27.126Z" fill="#ffcba0"/>
                <path id="Trazado_874986" data-name="Trazado 874986" d="M36.343,12.359h5.089v5.079H36.343Z" fill="#ffcba0"/>
                <path id="Trazado_874987" data-name="Trazado 874987" d="M17.909,20.729H23v5.079H17.909Z" fill="#ffcba0"/>
                <path id="Trazado_874988" data-name="Trazado 874988" d="M27.126,20.729h5.089v5.079H27.126Z" fill="#ffcba0"/>
                <path id="Trazado_874989" data-name="Trazado 874989" d="M36.343,20.729h5.089v5.079H36.343Z" fill="#ffcba0"/>
              </g>
            </g>
          </g>
          <g id="Grupo_1100249" data-name="Grupo 1100249">
            <path id="Trazado_874990" data-name="Trazado 874990" d="M53.314,46.424H38.083A2.434,2.434,0,0,1,35.65,43.99V22.6a2.434,2.434,0,0,1,2.434-2.434H53.314A2.434,2.434,0,0,1,55.748,22.6V43.99A2.434,2.434,0,0,1,53.314,46.424Z" fill="#65b9d7"/>
            <path id="Trazado_874991" data-name="Trazado 874991" d="M53.314,20.163H48.7A2.434,2.434,0,0,1,51.137,22.6V43.99A2.434,2.434,0,0,1,48.7,46.424h4.611a2.434,2.434,0,0,0,2.434-2.434V22.6a2.434,2.434,0,0,0-2.434-2.434Z" fill="#56aac7"/>
            <path id="Trazado_874992" data-name="Trazado 874992" d="M38.938,23.75H52.459v5.471H38.938Z" fill="#cce7f0"/>
          </g>
          <g id="Grupo_1100266" data-name="Grupo 1100266">
            <g id="Grupo_1100257" data-name="Grupo 1100257">
              <path id="Trazado_874993" data-name="Trazado 874993" d="M10.574,32.607,33.1,43.08a1.776,1.776,0,0,1,.862,2.362l-4.8,10.284a1.78,1.78,0,0,1-2.364.86L4.272,46.113a1.776,1.776,0,0,1-.862-2.362l4.8-10.284a1.78,1.78,0,0,1,2.364-.86Z" fill="#b5e6a8"/>
              <g id="Grupo_1100252" data-name="Grupo 1100252">
                <g id="Grupo_1100250" data-name="Grupo 1100250">
                  <path id="Trazado_874994" data-name="Trazado 874994" d="M30.453,52.948h0l-1.3,2.777a1.78,1.78,0,0,1-2.364.86l-2.783-1.294v0a4.849,4.849,0,0,1,6.439-2.342Z" fill="#3aa673"/>
                </g>
                <g id="Grupo_1100251" data-name="Grupo 1100251">
                  <path id="Trazado_874995" data-name="Trazado 874995" d="M7.052,47.406,4.272,46.113a1.776,1.776,0,0,1-.862-2.362l1.3-2.775a4.836,4.836,0,0,1,2.347,6.43Z" fill="#3aa673"/>
                </g>
              </g>
              <g id="Grupo_1100255" data-name="Grupo 1100255">
                <g id="Grupo_1100253" data-name="Grupo 1100253">
                  <path id="Trazado_874996" data-name="Trazado 874996" d="M6.916,36.245h0l1.3-2.777a1.78,1.78,0,0,1,2.364-.86L13.356,33.9v0a4.849,4.849,0,0,1-6.439,2.342Z" fill="#3aa673"/>
                </g>
                <g id="Grupo_1100254" data-name="Grupo 1100254">
                  <path id="Trazado_874997" data-name="Trazado 874997" d="M30.317,41.787,33.1,43.08a1.776,1.776,0,0,1,.862,2.362l-1.3,2.775a4.836,4.836,0,0,1-2.347-6.43Z" fill="#3aa673"/>
                </g>
              </g>
              <g id="Grupo_1100256" data-name="Grupo 1100256">
                <ellipse id="Elipse_11615" data-name="Elipse 11615" cx="4.715" cy="4.704" rx="4.715" ry="4.704" transform="translate(12.025 44.583) rotate(-45)" fill="#3aa673"/>
              </g>
            </g>
            <g id="Grupo_1100265" data-name="Grupo 1100265">
              <path id="Trazado_874998" data-name="Trazado 874998" d="M24.726,30.54,43.99,46.2a1.775,1.775,0,0,1,.256,2.5l-7.18,8.8a1.781,1.781,0,0,1-2.5.255L17.677,44.025l-.7-6.808,5.242-6.423a1.781,1.781,0,0,1,2.5-.255Z" fill="#b5e6a8"/>
              <path id="Trazado_874999" data-name="Trazado 874999" d="M43.99,46.2,24.726,30.54a1.781,1.781,0,0,0-2.5.255l-2.064,2.529a1.8,1.8,0,0,1,2.525-.215L41.948,48.773a1.775,1.775,0,0,1,.466,2.176L44.246,48.7a1.775,1.775,0,0,0-.256-2.5Z" fill="#a5d998"/>
              <g id="Grupo_1100260" data-name="Grupo 1100260">
                <g id="Grupo_1100258" data-name="Grupo 1100258">
                  <path id="Trazado_875000" data-name="Trazado 875000" d="M39,55.125h0L37.066,57.5a1.781,1.781,0,0,1-2.5.255l-2.38-1.935,0,0A4.852,4.852,0,0,1,39,55.125Z" fill="#3aa673"/>
                </g>
                <g id="Grupo_1100259" data-name="Grupo 1100259">
                  <path id="Trazado_875001" data-name="Trazado 875001" d="M17.678,44.024h0L15.3,42.092a1.775,1.775,0,0,1-.256-2.5l1.938-2.374A4.833,4.833,0,0,1,17.678,44.024Z" fill="#3aa673"/>
                </g>
              </g>
              <g id="Grupo_1100263" data-name="Grupo 1100263">
                <g id="Grupo_1100261" data-name="Grupo 1100261">
                  <path id="Trazado_875002" data-name="Trazado 875002" d="M20.285,33.171h0l1.939-2.376a1.781,1.781,0,0,1,2.5-.255l2.38,1.935,0,0A4.852,4.852,0,0,1,20.285,33.171Z" fill="#3aa673"/>
                </g>
                <g id="Grupo_1100262" data-name="Grupo 1100262">
                  <path id="Trazado_875003" data-name="Trazado 875003" d="M41.611,44.272h0L43.99,46.2a1.775,1.775,0,0,1,.256,2.5l-1.938,2.374A4.833,4.833,0,0,1,41.611,44.272Z" fill="#3aa673"/>
                </g>
              </g>
              <g id="Grupo_1100264" data-name="Grupo 1100264">
                <ellipse id="Elipse_11616" data-name="Elipse 11616" cx="4.719" cy="4.704" rx="4.719" ry="4.704" transform="translate(23.125 42.796) rotate(-32.88)" fill="#3aa673"/>
              </g>
            </g>
          </g>
        </g>
        <g id="Grupo_1100269" data-name="Grupo 1100269">
          <g id="Grupo_1100268" data-name="Grupo 1100268">
            <path id="Trazado_875004" data-name="Trazado 875004" d="M10.938,31.823A2.648,2.648,0,0,0,7.427,33.1l-4.8,10.284A2.679,2.679,0,0,0,3.907,46.9L26.432,57.37c1.726.8,3.209-.446,3.843-1.987l3.744,3.044a2.7,2.7,0,0,0,3.718-.379l7.18-8.8a2.622,2.622,0,0,0,.581-1.937c0-.009,0-.017,0-.026h7.821a3.3,3.3,0,0,0,3.3-3.3V38.616a.865.865,0,1,0-1.729,0V43.99a1.571,1.571,0,0,1-1.569,1.569h-8.75l-.029-.026-8.021-6.522V22.6a1.571,1.571,0,0,1,1.569-1.569H53.314A1.571,1.571,0,0,1,54.884,22.6V34.259a.865.865,0,0,0,1.729,0V22.6a3.3,3.3,0,0,0-3.3-3.3H46.563V3.976A2.468,2.468,0,0,0,44.1,1.513H40.442V.865a.865.865,0,0,0-1.729,0v.648H36.47V.865a.865.865,0,1,0-1.729,0v.648H24.552V.865a.865.865,0,1,0-1.729,0v.648H20.579V.865a.865.865,0,1,0-1.729,0v.648h-3.6a2.468,2.468,0,0,0-2.467,2.463v8.762a.865.865,0,0,0,1.729,0v-3.8H44.834V19.3H38.083a3.3,3.3,0,0,0-3.3,3.3v6.678H15.12a.612.612,0,0,1-.613-.61V17.118a.865.865,0,1,0-1.729,0V28.666A2.343,2.343,0,0,0,15.12,31h5.815L17.7,34.967ZM14.507,7.212V3.976a.737.737,0,0,1,.738-.734h3.6V3.89a.865.865,0,0,0,1.729,0V3.242h2.244V3.89a.865.865,0,0,0,1.729,0V3.242H34.74V3.89a.865.865,0,0,0,1.729,0V3.242h2.244V3.89a.865.865,0,0,0,1.729,0V3.242H44.1a.737.737,0,0,1,.738.734V7.212H14.507Zm8.834,27.909a5.715,5.715,0,0,0,3.836-1.473L40.445,44.436a5.7,5.7,0,0,0,.687,6.717L38.84,53.961a5.732,5.732,0,0,0-6.73.686L18.844,43.86a5.7,5.7,0,0,0-.687-6.717l2.293-2.809a5.7,5.7,0,0,0,2.892.787Zm-1.78-2.149,1.331-1.631a.919.919,0,0,1,1.288-.131l1.633,1.328a4,4,0,0,1-4.252.433ZM17.046,38.5a3.976,3.976,0,0,1,.435,4.247l-1.636-1.331a.915.915,0,0,1-.132-1.283Zm-1.893,4.583,5.73,4.659a3.857,3.857,0,0,1-5.812-1.824A3.819,3.819,0,0,1,15.153,43.087Zm-.78-4.043a2.652,2.652,0,0,0-.418,2.613,5.568,5.568,0,0,0,8.306,7.21L26.2,52.073a5.711,5.711,0,0,0-2.548,2.1L8.143,46.959a5.7,5.7,0,0,0-2.316-6.344l1.532-3.282A5.727,5.727,0,0,0,13.7,35.016l2.868,1.333Zm-4.164-5.654,1.9.884A3.972,3.972,0,0,1,8.1,35.741l.891-1.909a.916.916,0,0,1,1.216-.441ZM4.163,44.813a.9.9,0,0,1,.03-.7l.89-1.908a3.973,3.973,0,0,1,1.465,4.009l-1.912-.889A.908.908,0,0,1,4.163,44.813ZM28.376,55.361a.917.917,0,0,1-1.216.441l-1.91-.888A3.983,3.983,0,0,1,27.838,53.4l1.053.856Zm8.02,1.594a.917.917,0,0,1-1.288.131l-1.633-1.328a4,4,0,0,1,4.252-.433Zm7.18-8.8L42.244,49.79a3.969,3.969,0,0,1-.435-4.245l1.635,1.33a.91.91,0,0,1,.132,1.283ZM34.785,31v6.6L26.667,31Z"/>
            <path id="Trazado_875005" data-name="Trazado 875005" d="M26.116,48.473a5.588,5.588,0,0,0,9.077-4.9,5.518,5.518,0,0,0-2.021-3.746,5.588,5.588,0,0,0-9.077,4.9,5.518,5.518,0,0,0,2.022,3.746Zm.548-6.746a3.861,3.861,0,0,1,5.417-.562,3.835,3.835,0,0,1,.543,5.4,3.861,3.861,0,0,1-5.417.562,3.835,3.835,0,0,1-.543-5.4Z"/>
            <path id="Trazado_875006" data-name="Trazado 875006" d="M27.126,18.3h5.089a.864.864,0,0,0,.865-.865V12.359a.864.864,0,0,0-.865-.865H27.126a.864.864,0,0,0-.865.865v5.079A.864.864,0,0,0,27.126,18.3Zm.865-5.079h3.36v3.35h-3.36Z"/>
            <path id="Trazado_875007" data-name="Trazado 875007" d="M41.432,18.3a.864.864,0,0,0,.865-.865V12.359a.864.864,0,0,0-.865-.865H36.343a.864.864,0,0,0-.865.865v5.079a.864.864,0,0,0,.865.865Zm-4.225-5.079h3.36v3.35h-3.36Z"/>
            <path id="Trazado_875008" data-name="Trazado 875008" d="M26.262,25.809a.864.864,0,0,0,.865.865h5.089a.864.864,0,0,0,.865-.865V20.73a.864.864,0,0,0-.865-.865H27.126a.864.864,0,0,0-.865.865Zm1.729-4.215h3.36v3.35h-3.36Z"/>
            <path id="Trazado_875009" data-name="Trazado 875009" d="M53.324,29.221V23.75a.864.864,0,0,0-.865-.865H38.938a.864.864,0,0,0-.865.865v5.471a.864.864,0,0,0,.865.865H52.459A.864.864,0,0,0,53.324,29.221Zm-1.729-.865H39.8V24.614H51.595Z"/>
            <path id="Trazado_875010" data-name="Trazado 875010" d="M39.46,32.3a.865.865,0,0,0,0,1.729A.865.865,0,0,0,39.46,32.3Z"/>
            <path id="Trazado_875011" data-name="Trazado 875011" d="M42.579,32.3a.865.865,0,0,0,0,1.729A.865.865,0,0,0,42.579,32.3Z"/>
            <path id="Trazado_875012" data-name="Trazado 875012" d="M45.7,32.3a.865.865,0,0,0,0,1.729A.865.865,0,0,0,45.7,32.3Z"/>
            <path id="Trazado_875013" data-name="Trazado 875013" d="M48.817,32.3a.865.865,0,0,0,0,1.729A.865.865,0,0,0,48.817,32.3Z"/>
            <path id="Trazado_875014" data-name="Trazado 875014" d="M51.936,32.3a.865.865,0,0,0,0,1.729A.865.865,0,0,0,51.936,32.3Z"/>
            <path id="Trazado_875015" data-name="Trazado 875015" d="M39.46,35.437a.865.865,0,0,0,0,1.729A.865.865,0,0,0,39.46,35.437Z"/>
            <path id="Trazado_875016" data-name="Trazado 875016" d="M42.579,35.437a.865.865,0,0,0,0,1.729A.865.865,0,0,0,42.579,35.437Z"/>
            <path id="Trazado_875017" data-name="Trazado 875017" d="M45.7,35.437a.865.865,0,0,0,0,1.729A.865.865,0,0,0,45.7,35.437Z"/>
            <path id="Trazado_875018" data-name="Trazado 875018" d="M48.817,35.437a.865.865,0,0,0,0,1.729A.865.865,0,0,0,48.817,35.437Z"/>
            <path id="Trazado_875019" data-name="Trazado 875019" d="M51.936,37.166a.865.865,0,0,0,0-1.729A.865.865,0,0,0,51.936,37.166Z"/>
            <path id="Trazado_875020" data-name="Trazado 875020" d="M39.46,40.3a.865.865,0,0,0,0-1.729A.865.865,0,0,0,39.46,40.3Z"/>
            <path id="Trazado_875021" data-name="Trazado 875021" d="M42.579,38.574a.865.865,0,0,0,0,1.729A.865.865,0,0,0,42.579,38.574Z"/>
            <path id="Trazado_875022" data-name="Trazado 875022" d="M45.7,38.574a.865.865,0,0,0,0,1.729A.865.865,0,0,0,45.7,38.574Z"/>
            <path id="Trazado_875023" data-name="Trazado 875023" d="M48.817,38.574a.865.865,0,0,0,0,1.729A.865.865,0,0,0,48.817,38.574Z"/>
            <path id="Trazado_875024" data-name="Trazado 875024" d="M42.579,43.441a.865.865,0,0,0,0-1.729A.865.865,0,0,0,42.579,43.441Z"/>
            <path id="Trazado_875025" data-name="Trazado 875025" d="M45.7,43.441a.865.865,0,0,0,0-1.729A.865.865,0,0,0,45.7,43.441Z"/>
            <path id="Trazado_875026" data-name="Trazado 875026" d="M48.817,43.441a.865.865,0,0,0,0-1.729A.865.865,0,0,0,48.817,43.441Z"/>
            <path id="Trazado_875027" data-name="Trazado 875027" d="M51.071,42.576a.865.865,0,0,0,1.729,0V39.439a.865.865,0,0,0-1.729,0Z"/>
          </g>
          <path id="Trazado_875028" data-name="Trazado 875028" d="M17.909,18.3H23a.864.864,0,0,0,.865-.865V12.359A.864.864,0,0,0,23,11.494H17.909a.864.864,0,0,0-.865.865v5.079A.864.864,0,0,0,17.909,18.3Zm.865-5.079h3.36v3.35h-3.36Z"/>
          <path id="Trazado_875029" data-name="Trazado 875029" d="M17.045,25.809a.864.864,0,0,0,.865.865H23a.864.864,0,0,0,.865-.865V20.73A.864.864,0,0,0,23,19.865H17.909a.864.864,0,0,0-.865.865Zm1.729-4.215h3.36v3.35h-3.36Z"/>
        </g>
      </g>
    </g>
  </g>
</svg>
