<svg xmlns="http://www.w3.org/2000/svg" xmlns:xlink="http://www.w3.org/1999/xlink" width="78.5" height="67.824" viewBox="0 0 78.5 67.824">
  <defs>
    <clipPath id="clip-path">
      <rect id="Rectángulo_401730" data-name="Rectángulo 401730" width="58" height="58" transform="translate(420 7733)" fill="#fff" stroke="#707070" stroke-width="1"/>
    </clipPath>
  </defs>
  <g id="Grupo_1100320" data-name="Grupo 1100320" transform="translate(-410 -7733)">
    <path id="_12068" data-name="12068" d="M72.033,71.913c-8.038-1.11-16.53-.839-23.844,2.675C38.045,79.46,31.382,90.507,31.127,101.757s5.606,22.305,14.66,28.988,21,9.051,32.068,7.045c11.165-2.023,21.645-8.583,27.469-18.322,3.735-6.245,5.48-13.956,3.417-20.934a28.6,28.6,0,0,0-6.787-11.156A50.145,50.145,0,0,0,72.033,71.913Z" transform="translate(378.881 7662.343)" fill="#7d6eb2"/>
    <g id="Enmascarar_grupo_1098752" data-name="Enmascarar grupo 1098752" clip-path="url(#clip-path)">
      <g id="Layer_30" transform="translate(419.141 7733)">
        <g id="Grupo_1100453" data-name="Grupo 1100453" transform="translate(5.518)">
          <g id="Grupo_1100328" data-name="Grupo 1100328" transform="translate(0.645 48.173)">
            <g id="Grupo_1100327" data-name="Grupo 1100327">
              <path id="Trazado_875254" data-name="Trazado 875254" d="M28.954,47.306l-3.34-.841a14.826,14.826,0,0,1-3.145-1.2,2.132,2.132,0,0,1-1.189-1.911v-1a6.121,6.121,0,0,1-5.685,0v1A2.134,2.134,0,0,1,14.4,45.267a14.5,14.5,0,0,1-3.143,1.2l-3.34.841a2.435,2.435,0,0,0-1.837,2.226l.786.328A30.038,30.038,0,0,0,30,49.86l.786-.328a2.435,2.435,0,0,0-1.837-2.226Z" transform="translate(-6.085 -42.35)" fill="#70d6f9"/>
            </g>
          </g>
          <g id="Grupo_1100330" data-name="Grupo 1100330" transform="translate(6.828 34.975)">
            <g id="Grupo_1100329" data-name="Grupo 1100329">
              <path id="Trazado_875255" data-name="Trazado 875255" d="M22.979,31.1a1.13,1.13,0,0,0-1.519-.1,6.2,6.2,0,0,1-7.538,0,1.13,1.13,0,0,0-1.517.1l0,0a3.19,3.19,0,0,0-.881,2.2v5.178a6.17,6.17,0,1,0,12.339,0V33.3a3.192,3.192,0,0,0-.882-2.2Z" transform="translate(-11.521 -30.747)" fill="#f9d0b4"/>
            </g>
          </g>
          <g id="Grupo_1100332" data-name="Grupo 1100332" transform="translate(19.152 38.001)">
            <g id="Grupo_1100331" data-name="Grupo 1100331">
              <path id="Trazado_875256" data-name="Trazado 875256" d="M22.766,33.407a2.57,2.57,0,0,0-.4.031V38.11c0,.139-.006.277-.015.414a2.575,2.575,0,1,0,.411-5.116Z" transform="translate(-22.355 -33.407)" fill="#f9d0b4"/>
            </g>
          </g>
          <g id="Grupo_1100334" data-name="Grupo 1100334" transform="translate(3.856 38.001)">
            <g id="Grupo_1100333" data-name="Grupo 1100333">
              <path id="Trazado_875257" data-name="Trazado 875257" d="M11.88,38.109V33.439a2.575,2.575,0,1,0-.4,5.12,2.6,2.6,0,0,0,.411-.036C11.886,38.386,11.88,38.249,11.88,38.109Z" transform="translate(-8.908 -33.407)" fill="#f9d0b4"/>
            </g>
          </g>
          <g id="Grupo_1100336" data-name="Grupo 1100336" transform="translate(5.135 28.725)">
            <g id="Grupo_1100335" data-name="Grupo 1100335">
              <path id="Trazado_875258" data-name="Trazado 875258" d="M24.042,29.266a.382.382,0,0,1-.389-.366c-.047-3.438-3.973-4.084-7.883-3.409A6.913,6.913,0,0,0,10.032,32.3v2.579a2.547,2.547,0,0,1,1.692-.321v-.507a3.19,3.19,0,0,1,.881-2.2l0,0a1.13,1.13,0,0,1,1.517-.1,6.2,6.2,0,0,0,7.538,0,1.13,1.13,0,0,1,1.519.1,3.19,3.19,0,0,1,.881,2.2v.507a2.547,2.547,0,0,1,1.706.33V32.771c0-3.078-1.111-3.506-1.729-3.506Z" transform="translate(-10.032 -25.253)" fill="#5b5d60"/>
            </g>
          </g>
          <g id="Grupo_1100338" data-name="Grupo 1100338" transform="translate(46.585 38.378)">
            <g id="Grupo_1100337" data-name="Grupo 1100337">
              <path id="Trazado_875259" data-name="Trazado 875259" d="M46.855,33.738a2.41,2.41,0,0,0-.369.029v4.349c0,.13-.006.258-.014.385a2.4,2.4,0,1,0,.383-4.763Z" transform="translate(-46.473 -33.738)" fill="#f9d0b4"/>
            </g>
          </g>
          <g id="Grupo_1100340" data-name="Grupo 1100340" transform="translate(35.111 36.369)">
            <g id="Grupo_1100339" data-name="Grupo 1100339">
              <path id="Trazado_875260" data-name="Trazado 875260" d="M47.52,33.281a4.761,4.761,0,0,1-2.1-1.206.381.381,0,0,0-.547.031C44,33.126,40.9,36.224,36.385,34.938v3.421a5.744,5.744,0,1,0,11.488,0V33.718a.45.45,0,0,0-.353-.438Z" transform="translate(-36.385 -31.973)" fill="#f9d0b4"/>
            </g>
          </g>
          <g id="Grupo_1100342" data-name="Grupo 1100342" transform="translate(32.344 38.831)">
            <g id="Grupo_1100341" data-name="Grupo 1100341">
              <path id="Trazado_875261" data-name="Trazado 875261" d="M36.72,38.061V34.64A9.327,9.327,0,0,1,35.5,34.2a.73.73,0,0,0-.794.137,2.391,2.391,0,0,0,2.024,4.111c-.008-.128-.014-.256-.014-.385Z" transform="translate(-33.953 -34.137)" fill="#f9d0b4"/>
            </g>
          </g>
          <g id="Grupo_1100344" data-name="Grupo 1100344" transform="translate(33.044 29.867)">
            <g id="Grupo_1100343" data-name="Grupo 1100343">
              <path id="Trazado_875262" data-name="Trazado 875262" d="M42.379,26.256a7.834,7.834,0,0,0-7.811,7.811v1.412c.02-.02.037-.041.058-.06a.731.731,0,0,1,.794-.137,9.342,9.342,0,0,0,1.215.441c4.515,1.286,7.617-1.812,8.492-2.833a.381.381,0,0,1,.547-.031,4.759,4.759,0,0,0,2.1,1.206.451.451,0,0,1,.353.438V34.8a2.39,2.39,0,0,1,2.067.676v-1.4a7.834,7.834,0,0,0-7.811-7.811Z" transform="translate(-34.568 -26.256)" fill="#fca265"/>
            </g>
          </g>
          <g id="Grupo_1100346" data-name="Grupo 1100346" transform="translate(28.935 47.803)">
            <g id="Grupo_1100345" data-name="Grupo 1100345">
              <path id="Trazado_875263" data-name="Trazado 875263" d="M53.02,47.3l-1.142-.288-2.966-.749a5,5,0,0,1-.994-.365l-1.42-.7a1.6,1.6,0,0,1-.891-1.432V42.025a5.71,5.71,0,0,1-5.465,0v1.742a1.6,1.6,0,0,1-.891,1.432l-1.42.7a5.018,5.018,0,0,1-.994.365l-2.966.749-1.142.288a2.355,2.355,0,0,0-1.777,2.153,30.038,30.038,0,0,0,23.842,0A2.356,2.356,0,0,0,53.02,47.3Z" transform="translate(-30.955 -42.025)" fill="#fc657e"/>
            </g>
          </g>
          <g id="Grupo_1100348" data-name="Grupo 1100348" transform="translate(43.588 42.052)">
            <g id="Grupo_1100347" data-name="Grupo 1100347">
              <path id="Trazado_875264" data-name="Trazado 875264" d="M49.151,41.311a4.247,4.247,0,0,0,.1-4.342,2.368,2.368,0,0,1-2.411,1.089,5.765,5.765,0,0,1-3,4.663v1.742a1.6,1.6,0,0,0,.761,1.357c.188.116-.051-.02,1.549.776a5.519,5.519,0,0,0,.719.287c.044.014.088.026.131.038a3.977,3.977,0,0,0,2.074-1.566,3.287,3.287,0,0,0,.043-3.37A.665.665,0,0,1,49.151,41.311Z" transform="translate(-43.837 -36.968)" fill="#fca265"/>
            </g>
          </g>
          <g id="Grupo_1100350" data-name="Grupo 1100350" transform="translate(32.159 42.052)">
            <g id="Grupo_1100349" data-name="Grupo 1100349">
              <path id="Trazado_875265" data-name="Trazado 875265" d="M36.757,38.057a2.368,2.368,0,0,1-2.411-1.089,4.246,4.246,0,0,0,.1,4.342.666.666,0,0,1,.036.674,3.287,3.287,0,0,0,.043,3.37,3.98,3.98,0,0,0,2.074,1.566c.044-.012.088-.024.131-.038a5.512,5.512,0,0,0,.719-.287c1.7-.848,1.376-.669,1.549-.776a1.594,1.594,0,0,0,.761-1.357V42.72A5.765,5.765,0,0,1,36.757,38.057Z" transform="translate(-33.79 -36.968)" fill="#fca265"/>
            </g>
          </g>
          <g id="Grupo_1100352" data-name="Grupo 1100352" transform="translate(11.307 11.292)">
            <g id="Grupo_1100351" data-name="Grupo 1100351">
              <path id="Trazado_875266" data-name="Trazado 875266" d="M15.459,9.927h3.68V23.849h-3.68Z" transform="translate(-15.459 -9.927)" fill="#f5c84c"/>
            </g>
          </g>
          <g id="Grupo_1100354" data-name="Grupo 1100354" transform="translate(4.702 17.716)">
            <g id="Grupo_1100353" data-name="Grupo 1100353">
              <path id="Trazado_875267" data-name="Trazado 875267" d="M9.652,15.574h3.68v7.5H9.652Z" transform="translate(-9.652 -15.574)" fill="#70d6f9"/>
            </g>
          </g>
          <g id="Grupo_1100356" data-name="Grupo 1100356" transform="translate(17.913 4.867)">
            <g id="Grupo_1100355" data-name="Grupo 1100355">
              <path id="Trazado_875268" data-name="Trazado 875268" d="M21.266,4.279h3.68V24.626h-3.68Z" transform="translate(-21.266 -4.279)" fill="#fc657e"/>
            </g>
          </g>
          <g id="Grupo_1100358" data-name="Grupo 1100358" transform="translate(39.141 11.292)">
            <g id="Grupo_1100357" data-name="Grupo 1100357">
              <path id="Trazado_875269" data-name="Trazado 875269" d="M39.928,9.927h3.68V23.849h-3.68Z" transform="translate(-39.928 -9.927)" fill="#f5c84c"/>
            </g>
          </g>
          <g id="Grupo_1100360" data-name="Grupo 1100360" transform="translate(32.535 17.716)">
            <g id="Grupo_1100359" data-name="Grupo 1100359">
              <path id="Trazado_875270" data-name="Trazado 875270" d="M34.121,15.574H37.8v7.5h-3.68Z" transform="translate(-34.121 -15.574)" fill="#70d6f9"/>
            </g>
          </g>
          <g id="Grupo_1100362" data-name="Grupo 1100362" transform="translate(45.746 4.867)">
            <g id="Grupo_1100361" data-name="Grupo 1100361">
              <path id="Trazado_875271" data-name="Trazado 875271" d="M45.734,4.279h3.68V24.626h-3.68Z" transform="translate(-45.734 -4.279)" fill="#fc657e"/>
            </g>
          </g>
          <g id="Grupo_1100364" data-name="Grupo 1100364" transform="translate(14.021 50.826)">
            <g id="Grupo_1100363" data-name="Grupo 1100363">
              <path id="Trazado_875272" data-name="Trazado 875272" d="M20.852,44.945a2.121,2.121,0,0,1-.4-.263l-2.475,2.834a.534.534,0,0,0,.051.754l1.611,1.407a.534.534,0,0,0,.754-.051l3.15-3.606a14.838,14.838,0,0,1-2.69-1.075Z" transform="translate(-17.845 -44.682)" fill="#9be5f9"/>
            </g>
          </g>
          <g id="Grupo_1100366" data-name="Grupo 1100366" transform="translate(6.278 50.826)">
            <g id="Grupo_1100365" data-name="Grupo 1100365">
              <path id="Trazado_875273" data-name="Trazado 875273" d="M16.6,47.516l-2.476-2.834a2.13,2.13,0,0,1-.4.263,14.937,14.937,0,0,1-2.688,1.078l3.148,3.6a.534.534,0,0,0,.754.051L16.55,48.27A.534.534,0,0,0,16.6,47.516Z" transform="translate(-11.037 -44.682)" fill="#9be5f9"/>
            </g>
          </g>
          <g id="Grupo_1100368" data-name="Grupo 1100368" transform="translate(9.366 48.173)">
            <g id="Grupo_1100367" data-name="Grupo 1100367">
              <path id="Trazado_875274" data-name="Trazado 875274" d="M20.226,43.354v-1a6.121,6.121,0,0,1-5.685,0v1A2.127,2.127,0,0,1,13.753,45l2.475,2.834a.531.531,0,0,1,.128.289h2.055a.533.533,0,0,1,.128-.289L21.014,45a2.128,2.128,0,0,1-.788-1.649Z" transform="translate(-13.753 -42.35)" fill="#f9d0b4"/>
            </g>
          </g>
          <g id="Grupo_1100370" data-name="Grupo 1100370" transform="translate(33.846 51.173)">
            <g id="Grupo_1100369" data-name="Grupo 1100369">
              <path id="Trazado_875275" data-name="Trazado 875275" d="M40.75,47.661l-2.487-2.674-1.024.5a5.034,5.034,0,0,1-.994.365l-.973.246,1.074,2.319a2.319,2.319,0,0,0,3.684.723l.689-.641A.6.6,0,0,0,40.75,47.661Z" transform="translate(-35.273 -44.987)" fill="#f98fa6"/>
            </g>
          </g>
          <g id="Grupo_1100372" data-name="Grupo 1100372" transform="translate(42.228 51.174)">
            <g id="Grupo_1100371" data-name="Grupo 1100371">
              <path id="Trazado_875276" data-name="Trazado 875276" d="M47.306,45.858a5,5,0,0,1-.994-.365l-1.024-.5L42.8,47.661a.6.6,0,0,0,.03.844l.689.641a2.319,2.319,0,0,0,3.684-.723L48.279,46.1Z" transform="translate(-42.642 -44.988)" fill="#f98fa6"/>
            </g>
          </g>
          <g id="Grupo_1100374" data-name="Grupo 1100374" transform="translate(36.836 47.804)">
            <g id="Grupo_1100373" data-name="Grupo 1100373">
              <path id="Trazado_875277" data-name="Trazado 875277" d="M45.544,45.2a1.6,1.6,0,0,1-.891-1.432V42.025a5.71,5.71,0,0,1-5.465,0v1.742A1.6,1.6,0,0,1,38.3,45.2l-.4.2,2.487,2.674a.592.592,0,0,1,.143.275h2.779a.592.592,0,0,1,.143-.275l2.487-2.674Z" transform="translate(-37.902 -42.025)" fill="#f9d0b4"/>
            </g>
          </g>
          <g id="Grupo_1100386" data-name="Grupo 1100386" transform="translate(0 47.763)">
            <g id="Grupo_1100385" data-name="Grupo 1100385">
              <path id="Trazado_875283" data-name="Trazado 875283" d="M15.673,41.99a.644.644,0,0,0-.644.644V43.4a1.478,1.478,0,0,1-.83,1.334,13.951,13.951,0,0,1-3.017,1.153l-3.34.841a3.066,3.066,0,0,0-2.323,2.815.644.644,0,0,0,.607.679h.037a.644.644,0,0,0,.643-.608A1.783,1.783,0,0,1,8.157,47.98l3.34-.841a15.076,15.076,0,0,0,3.272-1.247,2.758,2.758,0,0,0,1.548-2.49v-.769A.644.644,0,0,0,15.673,41.99Z" transform="translate(-5.518 -41.99)"/>
            </g>
          </g>
          <g id="Grupo_1100388" data-name="Grupo 1100388" transform="translate(15.195 47.763)">
            <g id="Grupo_1100387" data-name="Grupo 1100387">
              <path id="Trazado_875284" data-name="Trazado 875284" d="M27.352,46.731l-3.34-.841a14.347,14.347,0,0,1-2.985-1.136l-.032-.017a1.478,1.478,0,0,1-.83-1.334v-.769a.644.644,0,0,0-1.289,0V43.4A2.758,2.758,0,0,0,20.4,45.879a8.476,8.476,0,0,0,.968.461,15.7,15.7,0,0,0,2.33.8l3.34.841a1.783,1.783,0,0,1,1.351,1.637.644.644,0,0,0,.643.608h.036a.644.644,0,0,0,.607-.679A3.065,3.065,0,0,0,27.352,46.731Z" transform="translate(-18.877 -41.99)"/>
            </g>
          </g>
          <g id="Grupo_1100392" data-name="Grupo 1100392" transform="translate(6.183 34.328)">
            <g id="Grupo_1100391" data-name="Grupo 1100391">
              <g id="Grupo_1100390" data-name="Grupo 1100390">
                <g id="Grupo_1100389" data-name="Grupo 1100389">
                  <path id="Trazado_875285" data-name="Trazado 875285" d="M23.523,30.729a1.77,1.77,0,0,0-2.383-.163,5.552,5.552,0,0,1-6.744,0,1.77,1.77,0,0,0-2.382.168,3.819,3.819,0,0,0-1.059,2.646v5.178a6.814,6.814,0,1,0,13.628,0V33.375A3.818,3.818,0,0,0,23.523,30.729Zm-.229,7.824a5.525,5.525,0,1,1-11.051,0V33.376a2.538,2.538,0,0,1,.705-1.759.475.475,0,0,1,.346-.147.5.5,0,0,1,.307.107,6.841,6.841,0,0,0,8.334,0,.486.486,0,0,1,.655.039,2.535,2.535,0,0,1,.7,1.757Z" transform="translate(-10.954 -30.179)"/>
                </g>
              </g>
            </g>
          </g>
          <g id="Grupo_1100394" data-name="Grupo 1100394" transform="translate(18.919 37.357)">
            <g id="Grupo_1100393" data-name="Grupo 1100393">
              <path id="Trazado_875286" data-name="Trazado 875286" d="M22.794,32.841a.644.644,0,1,0,0,1.289,1.932,1.932,0,1,1,0,3.863.644.644,0,1,0,0,1.289,3.22,3.22,0,1,0,0-6.44Z" transform="translate(-22.15 -32.841)"/>
            </g>
          </g>
          <g id="Grupo_1100396" data-name="Grupo 1100396" transform="translate(3.211 37.357)">
            <g id="Grupo_1100395" data-name="Grupo 1100395">
              <path id="Trazado_875287" data-name="Trazado 875287" d="M11.562,37.993a1.932,1.932,0,1,1,0-3.863.644.644,0,1,0,0-1.289,3.22,3.22,0,1,0,0,6.44.644.644,0,0,0,0-1.289Z" transform="translate(-8.342 -32.841)"/>
            </g>
          </g>
          <g id="Grupo_1100398" data-name="Grupo 1100398" transform="translate(4.491 28.079)">
            <g id="Grupo_1100397" data-name="Grupo 1100397">
              <path id="Trazado_875288" data-name="Trazado 875288" d="M24.366,28.714a3.73,3.73,0,0,0-1.355-2.742c-1.99-1.652-5.41-1.359-7.272-1.038A7.541,7.541,0,0,0,9.466,32.38v2.472a.644.644,0,1,0,1.289,0V32.38a6.255,6.255,0,0,1,5.2-6.176c2.8-.482,5.067-.206,6.23.759a2.514,2.514,0,0,1,.9,2.023,1.028,1.028,0,0,0,1.033,1c.679,0,1.085,1.07,1.085,2.862v1.97a.644.644,0,1,0,1.289,0V32.85c0-3.294-1.237-4.032-2.127-4.136Z" transform="translate(-9.466 -24.685)"/>
            </g>
          </g>
          <g id="Grupo_1100400" data-name="Grupo 1100400" transform="translate(46.324 37.733)">
            <g id="Grupo_1100399" data-name="Grupo 1100399">
              <path id="Trazado_875289" data-name="Trazado 875289" d="M46.887,33.172a.644.644,0,0,0,0,1.289,1.754,1.754,0,1,1,0,3.508.644.644,0,1,0,0,1.289,3.043,3.043,0,1,0,0-6.085Z" transform="translate(-46.243 -33.172)"/>
            </g>
          </g>
          <g id="Grupo_1100404" data-name="Grupo 1100404" transform="translate(34.467 35.725)">
            <g id="Grupo_1100403" data-name="Grupo 1100403">
              <g id="Grupo_1100402" data-name="Grupo 1100402">
                <g id="Grupo_1100401" data-name="Grupo 1100401">
                  <path id="Trazado_875290" data-name="Trazado 875290" d="M47.744,32.731a4.205,4.205,0,0,1-1.808-1.056,1.041,1.041,0,0,0-.757-.266,1.014,1.014,0,0,0-.712.355h0a8.088,8.088,0,0,1-5.874,2.912,7.1,7.1,0,0,1-1.952-.28.644.644,0,0,0-.821.62v3.421a6.389,6.389,0,1,0,12.777,0V33.8a1.091,1.091,0,0,0-.852-1.065Zm-.436,5.706a5.1,5.1,0,1,1-10.2,0V35.829A8.962,8.962,0,0,0,45.267,32.8a5.39,5.39,0,0,0,2.041,1.147Z" transform="translate(-35.819 -31.406)"/>
                </g>
              </g>
            </g>
          </g>
          <g id="Grupo_1100406" data-name="Grupo 1100406" transform="translate(31.7 38.187)">
            <g id="Grupo_1100405" data-name="Grupo 1100405">
              <path id="Trazado_875291" data-name="Trazado 875291" d="M36.974,34.1a8.793,8.793,0,0,1-1.131-.411,1.371,1.371,0,0,0-1.5.256A3.04,3.04,0,0,0,36.429,39.2a.644.644,0,1,0,0-1.289,1.756,1.756,0,0,1-1.754-1.754,1.734,1.734,0,0,1,.554-1.276.085.085,0,0,1,.094-.017,10.042,10.042,0,0,0,1.3.471.644.644,0,0,0,.353-1.239Z" transform="translate(-33.386 -33.57)"/>
            </g>
          </g>
          <g id="Grupo_1100408" data-name="Grupo 1100408" transform="translate(32.4 29.222)">
            <g id="Grupo_1100407" data-name="Grupo 1100407">
              <path id="Trazado_875292" data-name="Trazado 875292" d="M42.457,25.69A8.465,8.465,0,0,0,34,34.145V35.5a.644.644,0,1,0,1.289,0V34.145a7.167,7.167,0,0,1,14.334,0v1.334a.644.644,0,1,0,1.289,0V34.145a8.465,8.465,0,0,0-8.455-8.455Z" transform="translate(-34.002 -25.69)"/>
            </g>
          </g>
          <g id="Grupo_1100410" data-name="Grupo 1100410" transform="translate(28.29 47.302)">
            <g id="Grupo_1100409" data-name="Grupo 1100409">
              <path id="Trazado_875293" data-name="Trazado 875293" d="M40.222,41.584a.644.644,0,0,0-.644.644v1.6a.947.947,0,0,1-.532.855l-1.42.7a4.379,4.379,0,0,1-.867.319l-.612.155-2.353.594-1.141.288A2.986,2.986,0,0,0,30.39,49.48a.644.644,0,0,0,.607.679h.037a.644.644,0,0,0,.643-.608,1.7,1.7,0,0,1,1.291-1.564l1.143-.289,2.352-.594.612-.155a5.665,5.665,0,0,0,1.121-.412l1.42-.7a2.228,2.228,0,0,0,1.25-2.01v-1.6a.645.645,0,0,0-.645-.644Z" transform="translate(-30.389 -41.584)"/>
            </g>
          </g>
          <g id="Grupo_1100412" data-name="Grupo 1100412" transform="translate(42.943 47.302)">
            <g id="Grupo_1100411" data-name="Grupo 1100411">
              <path id="Trazado_875294" data-name="Trazado 875294" d="M51.485,46.738,47.377,45.7a4.4,4.4,0,0,1-.866-.318l-1.42-.7a.947.947,0,0,1-.531-.855v-1.6a.644.644,0,1,0-1.289,0v1.6a2.227,2.227,0,0,0,1.25,2.01l1.42.7a5.694,5.694,0,0,0,1.121.412l4.107,1.037a1.7,1.7,0,0,1,1.291,1.564.644.644,0,0,0,.643.608h.037a.644.644,0,0,0,.607-.679,2.986,2.986,0,0,0-2.262-2.742Z" transform="translate(-43.271 -41.584)"/>
            </g>
          </g>
          <g id="Grupo_1100414" data-name="Grupo 1100414" transform="translate(46.194 41.483)">
            <g id="Grupo_1100413" data-name="Grupo 1100413">
              <path id="Trazado_875295" data-name="Trazado 875295" d="M49.379,41.726a4.888,4.888,0,0,0,.168-4.9.644.644,0,0,0-1.156.569,3.581,3.581,0,0,1-.1,3.635,1.313,1.313,0,0,0-.06,1.325,2.643,2.643,0,0,1-.02,2.721,3.3,3.3,0,0,1-1.671,1.275.644.644,0,1,0,.462,1.2,4.551,4.551,0,0,0,2.3-1.789,3.946,3.946,0,0,0,.068-4.014.055.055,0,0,1,.01-.027Z" transform="translate(-46.128 -36.468)"/>
            </g>
          </g>
          <g id="Grupo_1100416" data-name="Grupo 1100416" transform="translate(31.517 41.526)">
            <g id="Grupo_1100415" data-name="Grupo 1100415">
              <path id="Trazado_875296" data-name="Trazado 875296" d="M36.8,46.344a3.294,3.294,0,0,1-1.658-1.27,2.642,2.642,0,0,1-.02-2.721,1.315,1.315,0,0,0-.06-1.325,3.574,3.574,0,0,1-.117-3.6.644.644,0,0,0-1.161-.559,4.835,4.835,0,0,0,.191,4.85.072.072,0,0,1,.011.023,3.949,3.949,0,0,0,.066,4.018,4.548,4.548,0,0,0,2.281,1.783.644.644,0,1,0,.466-1.2Z" transform="translate(-33.226 -36.506)"/>
            </g>
          </g>
          <g id="Grupo_1100420" data-name="Grupo 1100420" transform="translate(10.663 10.647)">
            <g id="Grupo_1100419" data-name="Grupo 1100419">
              <g id="Grupo_1100418" data-name="Grupo 1100418">
                <g id="Grupo_1100417" data-name="Grupo 1100417">
                  <path id="Trazado_875297" data-name="Trazado 875297" d="M19.217,9.36h-3.68a.644.644,0,0,0-.644.644V23.927a.644.644,0,0,0,.644.644h3.68a.644.644,0,0,0,.644-.644V10A.644.644,0,0,0,19.217,9.36Zm-.644,13.923H16.181V10.649h2.392Z" transform="translate(-14.892 -9.36)"/>
                </g>
              </g>
            </g>
          </g>
          <g id="Grupo_1100424" data-name="Grupo 1100424" transform="translate(4.058 17.071)">
            <g id="Grupo_1100423" data-name="Grupo 1100423">
              <g id="Grupo_1100422" data-name="Grupo 1100422">
                <g id="Grupo_1100421" data-name="Grupo 1100421">
                  <path id="Trazado_875298" data-name="Trazado 875298" d="M13.41,15.008H9.73a.644.644,0,0,0-.644.644v7.5a.644.644,0,0,0,.644.644h3.68a.644.644,0,0,0,.644-.644v-7.5A.644.644,0,0,0,13.41,15.008Zm-.644,7.5H10.374V16.3h2.392Z" transform="translate(-9.086 -15.008)"/>
                </g>
              </g>
            </g>
          </g>
          <g id="Grupo_1100428" data-name="Grupo 1100428" transform="translate(17.268 4.223)">
            <g id="Grupo_1100427" data-name="Grupo 1100427">
              <g id="Grupo_1100426" data-name="Grupo 1100426">
                <g id="Grupo_1100425" data-name="Grupo 1100425">
                  <path id="Trazado_875299" data-name="Trazado 875299" d="M25.024,3.713h-3.68a.644.644,0,0,0-.644.644V24.7a.644.644,0,0,0,.644.644h3.68a.644.644,0,0,0,.644-.644V4.357a.644.644,0,0,0-.644-.644Zm-.644,20.347H21.988V5h2.392Z" transform="translate(-20.699 -3.713)"/>
                </g>
              </g>
            </g>
          </g>
          <g id="Grupo_1100432" data-name="Grupo 1100432" transform="translate(38.496 10.647)">
            <g id="Grupo_1100431" data-name="Grupo 1100431">
              <g id="Grupo_1100430" data-name="Grupo 1100430">
                <g id="Grupo_1100429" data-name="Grupo 1100429">
                  <path id="Trazado_875300" data-name="Trazado 875300" d="M43.686,9.36h-3.68a.644.644,0,0,0-.644.644V23.927a.644.644,0,0,0,.644.644h3.68a.644.644,0,0,0,.644-.644V10A.644.644,0,0,0,43.686,9.36Zm-.644,13.923H40.65V10.649h2.392Z" transform="translate(-39.361 -9.36)"/>
                </g>
              </g>
            </g>
          </g>
          <g id="Grupo_1100436" data-name="Grupo 1100436" transform="translate(31.891 17.071)">
            <g id="Grupo_1100435" data-name="Grupo 1100435">
              <g id="Grupo_1100434" data-name="Grupo 1100434">
                <g id="Grupo_1100433" data-name="Grupo 1100433">
                  <path id="Trazado_875301" data-name="Trazado 875301" d="M37.879,15.008H34.2a.644.644,0,0,0-.644.644v7.5a.644.644,0,0,0,.644.644h3.68a.644.644,0,0,0,.644-.644v-7.5A.644.644,0,0,0,37.879,15.008Zm-.644,7.5H34.843V16.3h2.392Z" transform="translate(-33.554 -15.008)"/>
                </g>
              </g>
            </g>
          </g>
          <g id="Grupo_1100440" data-name="Grupo 1100440" transform="translate(45.102 4.223)">
            <g id="Grupo_1100439" data-name="Grupo 1100439">
              <g id="Grupo_1100438" data-name="Grupo 1100438">
                <g id="Grupo_1100437" data-name="Grupo 1100437">
                  <path id="Trazado_875302" data-name="Trazado 875302" d="M49.492,3.713h-3.68a.644.644,0,0,0-.644.644V24.7a.644.644,0,0,0,.644.644h3.68a.644.644,0,0,0,.644-.644V4.357a.644.644,0,0,0-.644-.644Zm-.644,20.347H46.457V5h2.392Z" transform="translate(-45.168 -3.713)"/>
                </g>
              </g>
            </g>
          </g>
          <g id="Grupo_1100442" data-name="Grupo 1100442" transform="translate(13.377 50.417)">
            <g id="Grupo_1100441" data-name="Grupo 1100441">
              <path id="Trazado_875303" data-name="Trazado 875303" d="M23.858,45.8a.644.644,0,0,0-.909.061l-2.892,3.311-1.445-1.263,2.2-2.516a.644.644,0,1,0-.97-.848l-2.27,2.6a1.179,1.179,0,0,0,.113,1.663l1.611,1.407a1.17,1.17,0,0,0,.774.291c.027,0,.054,0,.081,0a1.17,1.17,0,0,0,.808-.4l2.964-3.393a.644.644,0,0,0-.062-.909Z" transform="translate(-17.278 -44.322)"/>
            </g>
          </g>
          <g id="Grupo_1100444" data-name="Grupo 1100444" transform="translate(5.833 50.369)">
            <g id="Grupo_1100443" data-name="Grupo 1100443">
              <path id="Trazado_875304" data-name="Trazado 875304" d="M17.14,47.147,14.829,44.5a.644.644,0,1,0-.97.848L16.1,47.912l-1.446,1.263-2.876-3.293a.644.644,0,0,0-.97.848l2.949,3.376a1.17,1.17,0,0,0,.808.4l.081,0a1.171,1.171,0,0,0,.774-.291l1.611-1.407a1.18,1.18,0,0,0,.112-1.663Z" transform="translate(-10.646 -44.281)"/>
            </g>
          </g>
          <g id="Grupo_1100446" data-name="Grupo 1100446" transform="translate(11.591 53.305)">
            <g id="Grupo_1100445" data-name="Grupo 1100445">
              <path id="Trazado_875305" data-name="Trazado 875305" d="M17.942,46.861H16.353a.644.644,0,0,0,0,1.289h1.589a.644.644,0,0,0,0-1.289Z" transform="translate(-15.708 -46.861)"/>
            </g>
          </g>
          <g id="Grupo_1100448" data-name="Grupo 1100448" transform="translate(33.282 50.732)">
            <g id="Grupo_1100447" data-name="Grupo 1100447">
              <path id="Trazado_875306" data-name="Trazado 875306" d="M41.29,47.276l-2.3-2.47a.644.644,0,1,0-.943.878l2.266,2.436-.654.609A1.675,1.675,0,0,1,37,48.2l-.993-2.145a.644.644,0,1,0-1.169.541l.993,2.145a2.933,2.933,0,0,0,2.118,1.662,3.021,3.021,0,0,0,.583.057,2.929,2.929,0,0,0,2.006-.8l.689-.641a1.241,1.241,0,0,0,.063-1.754Z" transform="translate(-34.777 -44.6)"/>
            </g>
          </g>
          <g id="Grupo_1100450" data-name="Grupo 1100450" transform="translate(41.584 50.68)">
            <g id="Grupo_1100449" data-name="Grupo 1100449">
              <path id="Trazado_875307" data-name="Trazado 875307" d="M48.516,45.819a.644.644,0,0,0-.855.314L46.7,48.211a1.675,1.675,0,0,1-2.661.523l-.654-.609L45.7,45.637a.644.644,0,1,0-.943-.878l-2.347,2.523a1.241,1.241,0,0,0,.063,1.754l.689.641a2.929,2.929,0,0,0,2.006.8,3.02,3.02,0,0,0,.583-.057,2.934,2.934,0,0,0,2.118-1.662l.962-2.078a.645.645,0,0,0-.314-.856Z" transform="translate(-42.075 -44.554)"/>
            </g>
          </g>
          <g id="Grupo_1100452" data-name="Grupo 1100452" transform="translate(39.07 53.478)">
            <g id="Grupo_1100451" data-name="Grupo 1100451">
              <path id="Trazado_875308" data-name="Trazado 875308" d="M42.765,47.013H40.51a.644.644,0,0,0,0,1.289h2.255a.644.644,0,1,0,0-1.289Z" transform="translate(-39.865 -47.013)"/>
            </g>
          </g>
        </g>
      </g>
    </g>
  </g>
</svg>
