<svg xmlns="http://www.w3.org/2000/svg" xmlns:xlink="http://www.w3.org/1999/xlink" width="78.501" height="67.824" viewBox="0 0 78.501 67.824">
  <defs>
    <clipPath id="clip-path">
      <rect id="Rectángulo_401730" data-name="Rectángulo 401730" width="58" height="58" transform="translate(420 7733)" fill="#fff" stroke="#707070" stroke-width="1"/>
    </clipPath>
  </defs>
  <g id="Grupo_1100315" data-name="Grupo 1100315" transform="translate(-410 -7733)">
    <path id="_12068" data-name="12068" d="M72.033,71.913c-8.038-1.11-16.53-.839-23.844,2.675C38.045,79.46,31.382,90.507,31.127,101.757s5.606,22.305,14.66,28.988,21,9.051,32.068,7.045c11.165-2.023,21.645-8.583,27.469-18.322,3.735-6.245,5.48-13.956,3.417-20.934a28.6,28.6,0,0,0-6.787-11.156A50.145,50.145,0,0,0,72.033,71.913Z" transform="translate(378.881 7662.343)" fill="#7d6eb2"/>
    <g id="Enmascarar_grupo_1098747" data-name="Enmascarar grupo 1098747" clip-path="url(#clip-path)">
      <g id="grafico-circular" transform="translate(420 7733)">
        <g id="Grupo_1100324" data-name="Grupo 1100324">
          <path id="Trazado_875119" data-name="Trazado 875119" d="M31.456,3.594V25.686H55.662a1.133,1.133,0,0,0,1.122-1.292A25.592,25.592,0,0,0,32.64,2.462a1.133,1.133,0,0,0-1.184,1.132Z" fill="#26aab7" fill-rule="evenodd"/>
          <path id="Trazado_875120" data-name="Trazado 875120" d="M33.79,30.355,48.728,45.292a1.133,1.133,0,0,0,1.638-.038,25.494,25.494,0,0,0,6.42-13.608,1.133,1.133,0,0,0-1.121-1.292Z" fill="#aee6e6" fill-rule="evenodd"/>
          <path id="Trazado_875121" data-name="Trazado 875121" d="M44.022,48.864A25.586,25.586,0,1,1,25.6,4.4a1.134,1.134,0,0,1,1.185,1.132V29.954L44.059,47.226a1.133,1.133,0,0,1-.038,1.638Z" fill="#ffd947" fill-rule="evenodd"/>
        </g>
        <path id="Trazado_875122" data-name="Trazado 875122" d="M21.415,36.553a4.7,4.7,0,0,1-3.843,4.461l.023.964a1.133,1.133,0,0,1-1.1,1.16h-.028a1.133,1.133,0,0,1-1.132-1.105l-.025-1a5.716,5.716,0,0,1-2.9-1.688A1.133,1.133,0,0,1,13.961,37.7a3.12,3.12,0,0,0,2.456,1.175,2.554,2.554,0,0,0,2.733-2.319,2.555,2.555,0,0,0-2.733-2.319,4.81,4.81,0,0,1-5-4.584,4.7,4.7,0,0,1,3.846-4.461L15.238,24.1a1.132,1.132,0,0,1,1.106-1.16h.027A1.133,1.133,0,0,1,17.5,24.044l.028,1.174a5.673,5.673,0,0,1,3.261,1.954A1.133,1.133,0,1,1,18.9,28.416a4.111,4.111,0,0,0-2.482-1.084,2.554,2.554,0,0,0-2.732,2.318,2.554,2.554,0,0,0,2.732,2.318,4.81,4.81,0,0,1,5,4.584ZM32.52,3.605A24.3,24.3,0,0,1,55.6,24.565H32.52ZM31.387,26.831H56.865A1.132,1.132,0,0,0,57.993,25.6,26.719,26.719,0,0,0,31.387,1.315a1.132,1.132,0,0,0-1.132,1.132V25.7a1.133,1.133,0,0,0,1.133,1.132ZM26.719,54.42A24.282,24.282,0,0,0,43.19,48.041L25.918,30.768a1.13,1.13,0,0,1-.332-.8V5.54a24.453,24.453,0,0,0,1.133,48.88ZM27.852,29.5V4.381a1.133,1.133,0,0,0-1.133-1.133A26.719,26.719,0,0,0,7.826,48.86a26.718,26.718,0,0,0,37.785,0,1.134,1.134,0,0,0,0-1.6ZM49.46,44.5l-13-13H55.6A24.478,24.478,0,0,1,49.46,44.5ZM57.7,29.6a1.133,1.133,0,0,1,.292.866A26.724,26.724,0,0,1,50.28,46.925a1.132,1.132,0,0,1-1.6,0L32.921,31.168a1.132,1.132,0,0,1,.8-1.934H56.867a1.131,1.131,0,0,1,.836.369Z" fill-rule="evenodd"/>
      </g>
    </g>
  </g>
</svg>
