<svg xmlns="http://www.w3.org/2000/svg" xmlns:xlink="http://www.w3.org/1999/xlink" width="521.057" height="277.478" viewBox="0 0 521.057 277.478">
  <defs>
    <clipPath id="clip-path">
      <rect id="Rectángulo_401754" data-name="Rectángulo 401754" width="278" height="275.694" fill="#7d6eb2"/>
    </clipPath>
    <clipPath id="clip-path-2">
      <rect id="Rectángulo_401755" data-name="Rectángulo 401755" width="278" height="275.694" fill="none"/>
    </clipPath>
  </defs>
  <g id="Grupo_1101624" data-name="Grupo 1101624" transform="translate(-227 -8924.423)">
    <path id="Rectángulo_35205" data-name="Rectángulo 35205" d="M54,0H468.057a53,53,0,0,1,53,53V222.679a0,0,0,0,1,0,0H0a0,0,0,0,1,0,0V54A54,54,0,0,1,54,0Z" transform="translate(227 8979.221)" fill="#aee6e6"/>
    <g id="Grupo_1100458" data-name="Grupo 1100458" transform="translate(349 8924.423)">
      <rect id="Rectángulo_401738" data-name="Rectángulo 401738" width="277.227" height="222.751" transform="translate(0.386 0.386)" fill="#fff"/>
      <g id="Grupo_1100455" data-name="Grupo 1100455">
        <g id="Grupo_1100454" data-name="Grupo 1100454" clip-path="url(#clip-path)">
          <path id="Rectángulo_401739" data-name="Rectángulo 401739" d="M0-.5H277.227a.5.5,0,0,1,.5.5V222.751a.5.5,0,0,1-.5.5H0a.5.5,0,0,1-.5-.5V0A.5.5,0,0,1,0-.5ZM276.727.5H.5V222.251H276.727Z" transform="translate(0.386 0.386)" fill="#263238"/>
          <path id="Trazado_875314" data-name="Trazado 875314" d="M301.346,239.075H266.762a3.394,3.394,0,0,1-3.4-3.4V196.052" transform="translate(-59.799 -44.515)" fill="#fff"/>
          <path id="Trazado_875315" data-name="Trazado 875315" d="M301.346,239.575H266.762a3.9,3.9,0,0,1-3.9-3.9V196.052h1v39.627a2.9,2.9,0,0,0,2.9,2.9h34.584Z" transform="translate(-59.799 -44.515)" fill="#263238"/>
          <path id="Trazado_875316" data-name="Trazado 875316" d="M335.3,145.542V224.21a3.4,3.4,0,0,1-3.4,3.4h-15" transform="translate(-71.954 -33.047)" fill="#fff"/>
          <path id="Trazado_875317" data-name="Trazado 875317" d="M331.893,228.106h-15v-1h15a2.9,2.9,0,0,0,2.9-2.9V145.542h1V224.21A3.9,3.9,0,0,1,331.893,228.106Z" transform="translate(-71.954 -33.047)" fill="#263238"/>
          <path id="Trazado_875318" data-name="Trazado 875318" d="M263.366,173.965V113.921a3.394,3.394,0,0,1,3.4-3.4h52.977a3.4,3.4,0,0,1,3.4,3.4v21.489" transform="translate(-59.799 -25.096)" fill="#fff"/>
          <path id="Trazado_875319" data-name="Trazado 875319" d="M263.866,173.965h-1V113.921a3.9,3.9,0,0,1,3.9-3.9h52.977a3.9,3.9,0,0,1,3.9,3.9v21.489h-1V113.921a2.9,2.9,0,0,0-2.9-2.9H266.762a2.9,2.9,0,0,0-2.9,2.9Z" transform="translate(-59.799 -25.096)" fill="#263238"/>
          <path id="Trazado_875320" data-name="Trazado 875320" d="M323.141,113.921v18.343H263.366V113.921a3.394,3.394,0,0,1,3.4-3.4h52.977a3.4,3.4,0,0,1,3.4,3.4" transform="translate(-59.799 -25.096)" fill="#fff"/>
          <path id="Trazado_875321" data-name="Trazado 875321" d="M266.762,110.025h52.977a3.9,3.9,0,0,1,3.9,3.9v18.343a.5.5,0,0,1-.5.5H263.366a.5.5,0,0,1-.5-.5V113.921A3.9,3.9,0,0,1,266.762,110.025Zm55.88,21.738V113.921a2.9,2.9,0,0,0-2.9-2.9H266.762a2.9,2.9,0,0,0-2.9,2.9v17.843Z" transform="translate(-59.799 -25.096)" fill="#263238"/>
          <rect id="Rectángulo_401740" data-name="Rectángulo 401740" width="277.227" height="75.425" transform="translate(0.386 0.386)" fill="#fff"/>
          <path id="Rectángulo_401741" data-name="Rectángulo 401741" d="M0-.5H277.227a.5.5,0,0,1,.5.5V75.425a.5.5,0,0,1-.5.5H0a.5.5,0,0,1-.5-.5V0A.5.5,0,0,1,0-.5ZM276.727.5H.5V74.925H276.727Z" transform="translate(0.386 0.386)" fill="#263238"/>
          <path id="Trazado_875322" data-name="Trazado 875322" d="M335.032,64.794a6.534,6.534,0,1,0-6.534,6.534,6.534,6.534,0,0,0,6.534-6.534" transform="translate(-73.105 -13.228)" fill="#d9d9d9"/>
          <path id="Trazado_875323" data-name="Trazado 875323" d="M328.5,57.76a7.034,7.034,0,1,1-7.034,7.034A7.042,7.042,0,0,1,328.5,57.76Zm0,13.067a6.034,6.034,0,1,0-6.034-6.034A6.041,6.041,0,0,0,328.5,70.827Z" transform="translate(-73.105 -13.228)" fill="#263238"/>
          <path id="Trazado_875324" data-name="Trazado 875324" d="M305.606,61.812a.872.872,0,1,0-.872.872.872.872,0,0,0,.872-.872" transform="translate(-68.994 -13.837)" fill="#263238"/>
          <path id="Trazado_875325" data-name="Trazado 875325" d="M310.032,61.812a.872.872,0,1,0-.872.872.872.872,0,0,0,.872-.872" transform="translate(-69.999 -13.837)" fill="#263238"/>
          <path id="Trazado_875326" data-name="Trazado 875326" d="M314.458,61.812a.872.872,0,1,0-.872.872.872.872,0,0,0,.872-.872" transform="translate(-71.004 -13.837)" fill="#263238"/>
          <path id="Trazado_875327" data-name="Trazado 875327" d="M305.606,66.412a.872.872,0,1,0-.872.872.872.872,0,0,0,.872-.872" transform="translate(-68.994 -14.881)" fill="#263238"/>
          <path id="Trazado_875328" data-name="Trazado 875328" d="M310.032,66.412a.872.872,0,1,0-.872.872.872.872,0,0,0,.872-.872" transform="translate(-69.999 -14.881)" fill="#263238"/>
          <path id="Trazado_875329" data-name="Trazado 875329" d="M314.458,66.412a.872.872,0,1,0-.872.872.872.872,0,0,0,.872-.872" transform="translate(-71.004 -14.881)" fill="#263238"/>
          <path id="Trazado_875330" data-name="Trazado 875330" d="M305.606,71.011a.872.872,0,1,0-.872.873.872.872,0,0,0,.872-.873" transform="translate(-68.994 -15.926)" fill="#263238"/>
          <path id="Trazado_875331" data-name="Trazado 875331" d="M310.032,71.011a.872.872,0,1,0-.872.873.872.872,0,0,0,.872-.873" transform="translate(-69.999 -15.926)" fill="#263238"/>
          <path id="Trazado_875332" data-name="Trazado 875332" d="M314.458,71.011a.872.872,0,1,0-.872.873.872.872,0,0,0,.872-.873" transform="translate(-71.004 -15.926)" fill="#263238"/>
          <path id="Trazado_875333" data-name="Trazado 875333" d="M222.677,70.074a9.875,9.875,0,0,1-9.4,6.846H123.352" transform="translate(-28.008 -15.911)" fill="#fff"/>
          <path id="Trazado_875334" data-name="Trazado 875334" d="M213.279,77.42H123.352v-1h89.927a9.343,9.343,0,0,0,8.921-6.5l.952.306a10.375,10.375,0,0,1-9.873,7.193Z" transform="translate(-28.008 -15.911)" fill="#263238"/>
          <path id="Trazado_875335" data-name="Trazado 875335" d="M148.942,53.4H219.09a9.868,9.868,0,0,1,9.868,9.869" transform="translate(-33.819 -12.124)" fill="#fff"/>
          <path id="Trazado_875336" data-name="Trazado 875336" d="M229.458,63.264h-1A9.379,9.379,0,0,0,219.09,53.9H148.942v-1H219.09A10.38,10.38,0,0,1,229.458,63.264Z" transform="translate(-33.819 -12.124)" fill="#263238"/>
          <path id="Trazado_875337" data-name="Trazado 875337" d="M100.3,73.132H53.489a9.869,9.869,0,0,1,0-19.737h68.116" transform="translate(-9.905 -12.124)" fill="#fff"/>
          <path id="Trazado_875338" data-name="Trazado 875338" d="M100.3,73.632H53.489a10.369,10.369,0,0,1,0-20.737h68.116v1H53.489a9.369,9.369,0,0,0,0,18.737H100.3Z" transform="translate(-9.905 -12.124)" fill="#263238"/>
          <path id="Línea_1622" data-name="Línea 1622" d="M.25,9.225h-.5V0h.5Z" transform="translate(170.254 45.83)" fill="#263238"/>
          <path id="Línea_1623" data-name="Línea 1623" d="M.354,9.01-.354,8.3,8.3-.354,9.01.354Z" transform="translate(154.423 45.911)" fill="#263238"/>
          <path id="Línea_1624" data-name="Línea 1624" d="M8.3,9.01-.354.354.354-.354,9.01,8.3Z" transform="translate(154.423 45.911)" fill="#263238"/>
          <path id="Trazado_875339" data-name="Trazado 875339" d="M56.415,67.639h-.937l-.841-6.13H55.3l.718,5.219.683-5.21h.674l.675,5.22.692-5.228h.6l-.832,6.13h-.9l-.587-4.16Z" transform="translate(-12.406 -13.966)" fill="#263238"/>
          <path id="Trazado_875340" data-name="Trazado 875340" d="M63.62,64.223v.613h-1.5v2.18h1.839v.622H61.439V61.508h2.522v.622H62.122v2.093Z" transform="translate(-13.95 -13.966)" fill="#263238"/>
          <path id="Trazado_875341" data-name="Trazado 875341" d="M66.9,61.508c.955,0,1.331.455,1.331,1.357v.289c0,.648-.184,1.051-.718,1.217.6.167.823.639.823,1.314V66.2a1.261,1.261,0,0,1-1.4,1.436h-1.41v-6.13Zm-.167,2.6c.543,0,.823-.175.823-.814v-.359c0-.543-.184-.805-.674-.805H66.2v1.979Zm.2,2.908c.5,0,.727-.263.727-.832v-.543c0-.683-.271-.911-.858-.911h-.6v2.286Z" transform="translate(-14.877 -13.966)" fill="#263238"/>
          <path id="Trazado_875342" data-name="Trazado 875342" d="M74.347,62.962v.166H73.7v-.2c0-.552-.209-.877-.7-.877s-.7.325-.7.867c0,1.375,2.058,1.506,2.058,3.232,0,.928-.447,1.533-1.384,1.533s-1.375-.6-1.375-1.533V65.8h.639v.386c0,.551.228.876.719.876s.718-.325.718-.876c0-1.367-2.05-1.5-2.05-3.223,0-.946.438-1.533,1.357-1.533s1.367.6,1.367,1.533" transform="translate(-16.257 -13.948)" fill="#263238"/>
          <path id="Trazado_875343" data-name="Trazado 875343" d="M78.119,64.223v.613h-1.5v2.18H78.46v.622H75.938V61.508H78.46v.622H76.621v2.093Z" transform="translate(-17.242 -13.966)" fill="#263238"/>
          <path id="Trazado_875344" data-name="Trazado 875344" d="M80.659,66.4l-.236,1.235h-.631l1.173-6.131h.989l1.174,6.131h-.683L82.21,66.4Zm.088-.587h1.366l-.692-3.538Z" transform="translate(-18.118 -13.966)" fill="#263238"/>
          <path id="Trazado_875345" data-name="Trazado 875345" d="M86.171,61.508c.963,0,1.366.491,1.366,1.4v.5c0,.674-.237,1.094-.762,1.261.56.166.771.622.771,1.278V66.9a1.535,1.535,0,0,0,.122.735h-.692a1.6,1.6,0,0,1-.114-.744v-.963c0-.692-.324-.911-.894-.911h-.482v2.618H84.8v-6.13ZM86,64.4c.543,0,.867-.175.867-.841V62.97c0-.552-.2-.841-.71-.841h-.666V64.4Z" transform="translate(-19.255 -13.966)" fill="#263238"/>
          <path id="Trazado_875346" data-name="Trazado 875346" d="M91.961,62.97v.552h-.648v-.587c0-.552-.219-.885-.718-.885s-.719.333-.719.885v3.24c0,.552.228.885.719.885s.718-.333.718-.885v-.8h.648v.762c0,.928-.437,1.541-1.384,1.541S89.2,67.069,89.2,66.141V62.97c0-.928.437-1.541,1.375-1.541s1.384.613,1.384,1.541" transform="translate(-20.254 -13.948)" fill="#263238"/>
          <path id="Trazado_875347" data-name="Trazado 875347" d="M94.261,64.88v2.759h-.683v-6.13h.683v2.759h1.506V61.509h.683v6.13h-.683V64.88Z" transform="translate(-21.248 -13.966)" fill="#263238"/>
          <path id="Trazado_875348" data-name="Trazado 875348" d="M238.473,69.748h0a.73.73,0,0,1-1.044.083L233.881,66.6l.671-.812,3.808,2.916a.73.73,0,0,1,.114,1.041" transform="translate(-53.105 -14.938)" fill="#263238"/>
          <path id="Trazado_875349" data-name="Trazado 875349" d="M237.91,70.512a1.228,1.228,0,0,1-.812-.306l-.006-.006-3.548-3.228a.5.5,0,0,1-.049-.688l.671-.812a.5.5,0,0,1,.689-.078l3.808,2.916a1.23,1.23,0,0,1-.753,2.2Zm-.149-1.055a.225.225,0,0,0,.149.055.231.231,0,0,0,.178-.084.23.23,0,0,0-.036-.327l-3.422-2.62-.06.073Z" transform="translate(-53.105 -14.938)" fill="#263238"/>
          <path id="Trazado_875350" data-name="Trazado 875350" d="M227.808,60.758a3.348,3.348,0,1,0,4.713-.443,3.347,3.347,0,0,0-4.713.443m4.785,3.962a2.865,2.865,0,1,1-.38-4.033,2.864,2.864,0,0,1,.38,4.033" transform="translate(-51.551 -13.52)" fill="#263238"/>
          <path id="Trazado_875351" data-name="Trazado 875351" d="M230.388,59.045h0a3.848,3.848,0,1,1-2.965,1.394A3.853,3.853,0,0,1,230.388,59.045Zm0,6.212a2.365,2.365,0,1,0-1.507-.543A2.358,2.358,0,0,0,230.385,65.258Z" transform="translate(-51.551 -13.52)" fill="#263238"/>
          <rect id="Rectángulo_401742" data-name="Rectángulo 401742" width="8.459" height="222.751" transform="translate(269.154 0.386)" fill="#d9d9d9"/>
          <path id="Rectángulo_401743" data-name="Rectángulo 401743" d="M0-.5H8.459a.5.5,0,0,1,.5.5V222.751a.5.5,0,0,1-.5.5H0a.5.5,0,0,1-.5-.5V0A.5.5,0,0,1,0-.5ZM7.959.5H.5V222.251H7.959Z" transform="translate(269.154 0.386)" fill="#263238"/>
          <rect id="Rectángulo_401744" data-name="Rectángulo 401744" width="8.459" height="21.852" transform="translate(269.154 44.796)" fill="#8f8f8f"/>
          <path id="Rectángulo_401745" data-name="Rectángulo 401745" d="M0-.5H8.459a.5.5,0,0,1,.5.5V21.852a.5.5,0,0,1-.5.5H0a.5.5,0,0,1-.5-.5V0A.5.5,0,0,1,0-.5ZM7.959.5H.5V21.352H7.959Z" transform="translate(269.154 44.796)" fill="#263238"/>
          <path id="Trazado_875399" data-name="Trazado 875399" d="M0,0H277.227V26.081H0Z" transform="translate(0.386 0.386)" fill="#7d6eb2"/>
          <path id="Rectángulo_401747" data-name="Rectángulo 401747" d="M0-.5H277.227a.5.5,0,0,1,.5.5V26.081a.5.5,0,0,1-.5.5H0a.5.5,0,0,1-.5-.5V0A.5.5,0,0,1,0-.5ZM276.727.5H.5V25.581H276.727Z" transform="translate(0.386 0.386)" fill="#263238"/>
          <rect id="Rectángulo_401748" data-name="Rectángulo 401748" width="229.8" height="9.164" transform="translate(47.813 0.386)" fill="#263238"/>
          <path id="Rectángulo_401749" data-name="Rectángulo 401749" d="M0-.5H229.8a.5.5,0,0,1,.5.5V9.164a.5.5,0,0,1-.5.5H0a.5.5,0,0,1-.5-.5V0A.5.5,0,0,1,0-.5ZM229.3.5H.5V8.664H229.3Z" transform="translate(47.813 0.386)" fill="#263238"/>
          <path id="Línea_1625" data-name="Línea 1625" d="M.354,5.205-.354,4.5,4.5-.354l.707.707Z" transform="translate(267.453 2.69)" fill="#fff"/>
          <path id="Línea_1626" data-name="Línea 1626" d="M4.5,5.205-.354.354.354-.354,5.205,4.5Z" transform="translate(267.453 2.69)" fill="#fff"/>
          <rect id="Rectángulo_401750" data-name="Rectángulo 401750" width="3.569" height="3.569" transform="translate(254.638 3.096)" fill="#263238"/>
          <path id="Rectángulo_401751" data-name="Rectángulo 401751" d="M0-.5H3.569a.5.5,0,0,1,.5.5V3.569a.5.5,0,0,1-.5.5H0a.5.5,0,0,1-.5-.5V0A.5.5,0,0,1,0-.5ZM3.069.5H.5V3.069H3.069Z" transform="translate(254.638 3.096)" fill="#fff"/>
          <rect id="Rectángulo_401752" data-name="Rectángulo 401752" width="3.569" height="3.569" transform="translate(252.924 3.954)" fill="#263238"/>
          <path id="Rectángulo_401753" data-name="Rectángulo 401753" d="M0-.5H3.569a.5.5,0,0,1,.5.5V3.569a.5.5,0,0,1-.5.5H0a.5.5,0,0,1-.5-.5V0A.5.5,0,0,1,0-.5ZM3.069.5H.5V3.069H3.069Z" transform="translate(252.924 3.954)" fill="#fff"/>
          <path id="Línea_1627" data-name="Línea 1627" d="M6.177.5H0v-1H6.177Z" transform="translate(235.613 5.291)" fill="#fff"/>
          <path id="Línea_1628" data-name="Línea 1628" d="M.5,5.545h-1V0h1Z" transform="translate(52.714 2.516)" fill="#fff"/>
          <path id="Línea_1629" data-name="Línea 1629" d="M5.545.5H0v-1H5.545Z" transform="translate(49.941 5.289)" fill="#fff"/>
          <line id="Línea_1630" data-name="Línea 1630" x2="57.055" transform="translate(35.571 91.317)" fill="#fff"/>
          <path id="Línea_1631" data-name="Línea 1631" d="M57.055.5H0v-1H57.055Z" transform="translate(35.571 91.317)" fill="#263238"/>
          <line id="Línea_1632" data-name="Línea 1632" x2="72.451" transform="translate(35.571 96.298)" fill="#fff"/>
          <path id="Línea_1633" data-name="Línea 1633" d="M72.451.5H0v-1H72.451Z" transform="translate(35.571 96.298)" fill="#263238"/>
          <line id="Línea_1634" data-name="Línea 1634" x2="149.43" transform="translate(35.571 102.184)" fill="#fff"/>
          <path id="Línea_1635" data-name="Línea 1635" d="M149.43.5H0v-1H149.43Z" transform="translate(35.571 102.184)" fill="#263238"/>
          <line id="Línea_1636" data-name="Línea 1636" x2="149.43" transform="translate(35.571 107.618)" fill="#fff"/>
          <path id="Línea_1637" data-name="Línea 1637" d="M149.43.5H0v-1H149.43Z" transform="translate(35.571 107.618)" fill="#263238"/>
          <line id="Línea_1638" data-name="Línea 1638" x2="149.43" transform="translate(35.571 113.052)" fill="#fff"/>
          <path id="Línea_1639" data-name="Línea 1639" d="M149.43.5H0v-1H149.43Z" transform="translate(35.571 113.052)" fill="#263238"/>
          <line id="Línea_1640" data-name="Línea 1640" x2="57.055" transform="translate(35.571 125.731)" fill="#fff"/>
          <path id="Línea_1641" data-name="Línea 1641" d="M57.055.5H0v-1H57.055Z" transform="translate(35.571 125.731)" fill="#263238"/>
          <line id="Línea_1642" data-name="Línea 1642" x2="72.451" transform="translate(35.571 130.712)" fill="#fff"/>
          <path id="Línea_1643" data-name="Línea 1643" d="M72.451.5H0v-1H72.451Z" transform="translate(35.571 130.712)" fill="#263238"/>
          <line id="Línea_1644" data-name="Línea 1644" x2="149.43" transform="translate(35.571 136.599)" fill="#fff"/>
          <path id="Línea_1645" data-name="Línea 1645" d="M149.43.5H0v-1H149.43Z" transform="translate(35.571 136.599)" fill="#263238"/>
          <line id="Línea_1646" data-name="Línea 1646" x2="149.43" transform="translate(35.571 142.032)" fill="#fff"/>
          <path id="Línea_1647" data-name="Línea 1647" d="M149.43.5H0v-1H149.43Z" transform="translate(35.571 142.032)" fill="#263238"/>
          <line id="Línea_1648" data-name="Línea 1648" x2="149.43" transform="translate(35.571 147.466)" fill="#fff"/>
          <path id="Línea_1649" data-name="Línea 1649" d="M149.43.5H0v-1H149.43Z" transform="translate(35.571 147.466)" fill="#263238"/>
          <line id="Línea_1650" data-name="Línea 1650" x2="57.055" transform="translate(35.571 160.145)" fill="#fff"/>
          <path id="Línea_1651" data-name="Línea 1651" d="M57.055.5H0v-1H57.055Z" transform="translate(35.571 160.145)" fill="#263238"/>
          <line id="Línea_1652" data-name="Línea 1652" x2="72.451" transform="translate(35.571 165.126)" fill="#fff"/>
          <path id="Línea_1653" data-name="Línea 1653" d="M72.451.5H0v-1H72.451Z" transform="translate(35.571 165.126)" fill="#263238"/>
          <line id="Línea_1654" data-name="Línea 1654" x2="149.43" transform="translate(35.571 171.013)" fill="#fff"/>
          <path id="Línea_1655" data-name="Línea 1655" d="M149.43.5H0v-1H149.43Z" transform="translate(35.571 171.013)" fill="#263238"/>
          <line id="Línea_1656" data-name="Línea 1656" x2="149.43" transform="translate(35.571 176.447)" fill="#fff"/>
          <path id="Línea_1657" data-name="Línea 1657" d="M149.43.5H0v-1H149.43Z" transform="translate(35.571 176.447)" fill="#263238"/>
          <line id="Línea_1658" data-name="Línea 1658" x2="149.43" transform="translate(35.571 181.88)" fill="#fff"/>
          <path id="Línea_1659" data-name="Línea 1659" d="M149.43.5H0v-1H149.43Z" transform="translate(35.571 181.88)" fill="#263238"/>
          <line id="Línea_1660" data-name="Línea 1660" x2="57.055" transform="translate(35.571 194.559)" fill="#fff"/>
          <path id="Línea_1661" data-name="Línea 1661" d="M57.055.5H0v-1H57.055Z" transform="translate(35.571 194.559)" fill="#263238"/>
          <line id="Línea_1662" data-name="Línea 1662" x2="72.451" transform="translate(35.571 199.54)" fill="#fff"/>
          <path id="Línea_1663" data-name="Línea 1663" d="M72.451.5H0v-1H72.451Z" transform="translate(35.571 199.54)" fill="#263238"/>
          <line id="Línea_1664" data-name="Línea 1664" x2="149.43" transform="translate(35.571 205.427)" fill="#fff"/>
          <path id="Línea_1665" data-name="Línea 1665" d="M149.43.5H0v-1H149.43Z" transform="translate(35.571 205.427)" fill="#263238"/>
          <line id="Línea_1666" data-name="Línea 1666" x2="149.43" transform="translate(35.571 210.861)" fill="#fff"/>
          <path id="Línea_1667" data-name="Línea 1667" d="M149.43.5H0v-1H149.43Z" transform="translate(35.571 210.861)" fill="#263238"/>
          <line id="Línea_1668" data-name="Línea 1668" x2="149.43" transform="translate(35.571 216.294)" fill="#fff"/>
          <path id="Línea_1669" data-name="Línea 1669" d="M149.43.5H0v-1H149.43Z" transform="translate(35.571 216.294)" fill="#263238"/>
          <line id="Línea_1670" data-name="Línea 1670" x2="26.866" transform="translate(207.483 113.555)" fill="#fff"/>
          <path id="Línea_1671" data-name="Línea 1671" d="M26.866.5H0v-1H26.866Z" transform="translate(207.483 113.555)" fill="#263238"/>
          <line id="Línea_1672" data-name="Línea 1672" x2="26.866" transform="translate(207.483 117.172)" fill="#fff"/>
          <path id="Línea_1673" data-name="Línea 1673" d="M26.866.5H0v-1H26.866Z" transform="translate(207.483 117.172)" fill="#263238"/>
          <line id="Línea_1674" data-name="Línea 1674" x2="52.44" transform="translate(207.483 120.789)" fill="#fff"/>
          <path id="Línea_1675" data-name="Línea 1675" d="M52.44.5H0v-1H52.44Z" transform="translate(207.483 120.789)" fill="#263238"/>
          <line id="Línea_1676" data-name="Línea 1676" x2="52.44" transform="translate(207.483 124.405)" fill="#fff"/>
          <path id="Línea_1677" data-name="Línea 1677" d="M52.44.5H0v-1H52.44Z" transform="translate(207.483 124.405)" fill="#263238"/>
          <line id="Línea_1678" data-name="Línea 1678" x2="52.44" transform="translate(207.483 128.022)" fill="#fff"/>
          <path id="Línea_1679" data-name="Línea 1679" d="M52.44.5H0v-1H52.44Z" transform="translate(207.483 128.022)" fill="#263238"/>
          <line id="Línea_1680" data-name="Línea 1680" x2="52.44" transform="translate(207.483 131.638)" fill="#fff"/>
          <path id="Línea_1681" data-name="Línea 1681" d="M52.44.5H0v-1H52.44Z" transform="translate(207.483 131.638)" fill="#263238"/>
          <line id="Línea_1682" data-name="Línea 1682" x2="52.44" transform="translate(207.483 135.255)" fill="#fff"/>
          <path id="Línea_1683" data-name="Línea 1683" d="M52.44.5H0v-1H52.44Z" transform="translate(207.483 135.255)" fill="#263238"/>
          <line id="Línea_1684" data-name="Línea 1684" x2="52.44" transform="translate(207.483 138.872)" fill="#fff"/>
          <path id="Línea_1685" data-name="Línea 1685" d="M52.44.5H0v-1H52.44Z" transform="translate(207.483 138.872)" fill="#263238"/>
          <line id="Línea_1686" data-name="Línea 1686" x2="52.44" transform="translate(207.483 142.488)" fill="#fff"/>
          <path id="Línea_1687" data-name="Línea 1687" d="M52.44.5H0v-1H52.44Z" transform="translate(207.483 142.488)" fill="#263238"/>
          <line id="Línea_1688" data-name="Línea 1688" x2="52.44" transform="translate(207.483 146.105)" fill="#fff"/>
          <path id="Línea_1689" data-name="Línea 1689" d="M52.44.5H0v-1H52.44Z" transform="translate(207.483 146.105)" fill="#263238"/>
          <line id="Línea_1690" data-name="Línea 1690" x2="26.866" transform="translate(207.483 154.63)" fill="#fff"/>
          <path id="Línea_1691" data-name="Línea 1691" d="M26.866.5H0v-1H26.866Z" transform="translate(207.483 154.63)" fill="#263238"/>
          <line id="Línea_1692" data-name="Línea 1692" x2="26.866" transform="translate(207.483 158.246)" fill="#fff"/>
          <path id="Línea_1693" data-name="Línea 1693" d="M26.866.5H0v-1H26.866Z" transform="translate(207.483 158.246)" fill="#263238"/>
          <line id="Línea_1694" data-name="Línea 1694" x2="52.44" transform="translate(207.483 161.863)" fill="#fff"/>
          <path id="Línea_1695" data-name="Línea 1695" d="M52.44.5H0v-1H52.44Z" transform="translate(207.483 161.863)" fill="#263238"/>
          <line id="Línea_1696" data-name="Línea 1696" x2="52.44" transform="translate(207.483 165.479)" fill="#fff"/>
          <path id="Línea_1697" data-name="Línea 1697" d="M52.44.5H0v-1H52.44Z" transform="translate(207.483 165.479)" fill="#263238"/>
          <line id="Línea_1698" data-name="Línea 1698" x2="52.44" transform="translate(207.483 169.096)" fill="#fff"/>
          <path id="Línea_1699" data-name="Línea 1699" d="M52.44.5H0v-1H52.44Z" transform="translate(207.483 169.096)" fill="#263238"/>
          <line id="Línea_1700" data-name="Línea 1700" x2="52.44" transform="translate(207.483 172.712)" fill="#fff"/>
          <path id="Línea_1701" data-name="Línea 1701" d="M52.44.5H0v-1H52.44Z" transform="translate(207.483 172.712)" fill="#263238"/>
          <line id="Línea_1702" data-name="Línea 1702" x2="52.44" transform="translate(207.483 176.329)" fill="#fff"/>
          <path id="Línea_1703" data-name="Línea 1703" d="M52.44.5H0v-1H52.44Z" transform="translate(207.483 176.329)" fill="#263238"/>
          <line id="Línea_1704" data-name="Línea 1704" x2="52.44" transform="translate(207.483 179.946)" fill="#fff"/>
          <path id="Línea_1705" data-name="Línea 1705" d="M52.44.5H0v-1H52.44Z" transform="translate(207.483 179.946)" fill="#263238"/>
          <line id="Línea_1706" data-name="Línea 1706" x2="52.44" transform="translate(207.483 183.562)" fill="#fff"/>
          <path id="Línea_1707" data-name="Línea 1707" d="M52.44.5H0v-1H52.44Z" transform="translate(207.483 183.562)" fill="#263238"/>
          <line id="Línea_1708" data-name="Línea 1708" x2="52.44" transform="translate(207.483 187.179)" fill="#fff"/>
          <path id="Línea_1709" data-name="Línea 1709" d="M52.44.5H0v-1H52.44Z" transform="translate(207.483 187.179)" fill="#263238"/>
        </g>
      </g>
      <g id="Grupo_1100457" data-name="Grupo 1100457">
        <g id="Grupo_1100456" data-name="Grupo 1100456" clip-path="url(#clip-path-2)">
          <path id="Trazado_875352" data-name="Trazado 875352" d="M175.655,336.045s8.276.487,10.223,0,5.842-3.651,6.329-1.217-2.191,5.841-3.895,7.789-8.519,3.651-10.466,4.625-4.868,3.408-7.3,3.408-3.895-8.032-3.895-8.032,7.3-4.382,9.25-7.546" transform="translate(-37.839 -75.819)" fill="#fff"/>
          <path id="Trazado_875353" data-name="Trazado 875353" d="M170.544,351.15c-1.266,0-2.357-1.426-3.335-4.358a33.439,33.439,0,0,1-1.052-4.085.5.5,0,0,1,.235-.518c.072-.043,7.221-4.356,9.081-7.38l.852.524q-.073.119-.156.24c2.577.138,8.15.346,9.588-.013a11.621,11.621,0,0,0,2.055-.912c1.574-.806,3.06-1.567,4.074-1.077a1.528,1.528,0,0,1,.811,1.16,6.581,6.581,0,0,1-1.185,4.428,25.456,25.456,0,0,1-2.824,3.788c-1.245,1.423-4.786,2.642-7.632,3.621a30.923,30.923,0,0,0-2.987,1.121c-.535.268-1.166.662-1.833,1.079C174.45,349.884,172.425,351.15,170.544,351.15Zm-3.337-8.287a32.883,32.883,0,0,0,.954,3.621c1.1,3.308,2.034,3.665,2.383,3.665,1.595,0,3.49-1.185,5.162-2.23.688-.43,1.338-.836,1.916-1.125a31.069,31.069,0,0,1,3.109-1.172c2.589-.891,6.136-2.112,7.2-3.334,3.534-4.04,4.007-6.233,3.781-7.362-.072-.362-.218-.432-.266-.455-.566-.273-2.079.5-3.183,1.067a12.11,12.11,0,0,1-2.268.992c-2,.5-10.033.034-10.374.014l.017-.282C173.359,338.981,168.482,342.077,167.207,342.863Z" transform="translate(-37.839 -75.819)" fill="#263238"/>
          <path id="Trazado_875354" data-name="Trazado 875354" d="M192.261,334.15c-4.963,9.152-13.112,10.708-13.112,10.708l-10.352,3.45c.6,1.342,1.355,2.394,2.235,2.394,2.434,0,5.354-2.434,7.3-3.408s8.762-2.677,10.466-4.625,4.381-5.355,3.894-7.789a1.087,1.087,0,0,0-.434-.73" transform="translate(-38.327 -75.872)" fill="#fff"/>
          <path id="Trazado_875355" data-name="Trazado 875355" d="M192.261,333.65a.5.5,0,0,1,.283.088,1.585,1.585,0,0,1,.641,1.045A6.582,6.582,0,0,1,192,339.211,25.405,25.405,0,0,1,189.177,343c-1.246,1.423-4.789,2.643-7.635,3.623a30.963,30.963,0,0,0-2.984,1.12c-.535.268-1.165.662-1.833,1.079-1.786,1.117-3.811,2.382-5.693,2.382-1,0-1.878-.88-2.691-2.689a.5.5,0,0,1,.3-.679l10.352-3.45a.5.5,0,0,1,.064-.017,16.519,16.519,0,0,0,4.577-1.886,21.815,21.815,0,0,0,8.189-8.569.5.5,0,0,1,.439-.262ZM171.032,350.2c1.6,0,3.49-1.185,5.163-2.23.688-.43,1.338-.836,1.916-1.125a31.116,31.116,0,0,1,3.105-1.171c2.59-.892,6.138-2.113,7.208-3.336,3.311-3.784,3.934-5.949,3.814-7.135a23.513,23.513,0,0,1-3.77,4.836,21.872,21.872,0,0,1-4.375,3.328,17.383,17.383,0,0,1-4.816,1.973l-9.785,3.261C170.025,349.639,170.564,350.2,171.032,350.2Z" transform="translate(-38.327 -75.872)" fill="#263238"/>
          <path id="Trazado_875356" data-name="Trazado 875356" d="M62.73,328.676s-6.337,7.185-6.874,9.309c-.508,2.01,4.335,4.931,5.588,5.816a43.476,43.476,0,0,0,10.679,5.361c1.343.465,7.95,2.014,7.083-1.253-.642-2.422-5.712-5.211-6.357-6.63s-1.7-4.2-1.7-4.2Z" transform="translate(-12.674 -74.629)" fill="#fff"/>
          <path id="Trazado_875357" data-name="Trazado 875357" d="M62.73,328.176a.5.5,0,0,1,.353.146l8.419,8.407a.5.5,0,0,1,.114.176c.01.028,1.056,2.779,1.687,4.167a10.514,10.514,0,0,0,2.249,2.114c1.741,1.406,3.714,3,4.136,4.594a1.916,1.916,0,0,1-.249,1.736,3.339,3.339,0,0,1-2.75.92,17.249,17.249,0,0,1-4.73-.8,43.585,43.585,0,0,1-10.8-5.425c-.147-.1-.353-.242-.591-.4a29.7,29.7,0,0,1-3.375-2.527c-1.467-1.333-2.062-2.451-1.818-3.418.551-2.179,6.327-8.772,6.984-9.517a.5.5,0,0,1,.359-.169Zm7.99,9.185-7.965-7.953c-1.939,2.23-6.023,7.155-6.414,8.7-.139.551.4,1.415,1.521,2.433a28.889,28.889,0,0,0,3.26,2.437c.243.163.454.3.611.415a43.188,43.188,0,0,0,10.554,5.3,16.355,16.355,0,0,0,4.4.747,2.6,2.6,0,0,0,1.958-.53c.056-.073.228-.3.075-.87-.339-1.279-2.257-2.828-3.8-4.073a9.624,9.624,0,0,1-2.531-2.478C71.811,340.2,70.918,337.879,70.72,337.361Z" transform="translate(-12.674 -74.629)" fill="#263238"/>
          <path id="Trazado_875358" data-name="Trazado 875358" d="M61.443,346.424a43.517,43.517,0,0,0,10.679,5.362c1.166.4,6.3,1.622,7.063-.2a28.656,28.656,0,0,1-12.464-4.117,76.413,76.413,0,0,1-10.733-7.232,2.606,2.606,0,0,0-.133.374c-.507,2.01,4.335,4.93,5.588,5.815" transform="translate(-12.674 -77.253)" fill="#fff"/>
          <path id="Trazado_875359" data-name="Trazado 875359" d="M55.988,339.735a.5.5,0,0,1,.319.115,75.707,75.707,0,0,0,10.662,7.183,28.3,28.3,0,0,0,12.243,4.052.5.5,0,0,1,.434.693c-.357.85-1.353,1.281-2.962,1.281a17.254,17.254,0,0,1-4.725-.8,43.631,43.631,0,0,1-10.8-5.426c-.147-.1-.353-.242-.591-.4a29.719,29.719,0,0,1-3.375-2.527c-1.467-1.333-2.062-2.451-1.818-3.417a3.019,3.019,0,0,1,.158-.448.5.5,0,0,1,.46-.3Zm21.8,12.224a24.727,24.727,0,0,1-3.72-.781,34.8,34.8,0,0,1-7.6-3.277,79.877,79.877,0,0,1-10.118-6.724,4.829,4.829,0,0,0,1.506,1.987A28.9,28.9,0,0,0,61.12,345.6c.243.163.453.3.611.415a43.234,43.234,0,0,0,10.554,5.3,16.359,16.359,0,0,0,4.4.746A5.335,5.335,0,0,0,77.791,351.959Z" transform="translate(-12.674 -77.253)" fill="#263238"/>
          <path id="Trazado_875360" data-name="Trazado 875360" d="M81.472,209.65l2.677,19.473,2.234,41.047s-6.816,6.572-10.71,10.953-12.757,19.661-12.757,19.661a10.491,10.491,0,0,0,5.064,6.435c4.362,2.609,6.724,2.2,6.724,2.2l3.144-5.482,1.128-2.477s25.418-24.479,25.9-27.643S107.9,236.39,107.9,236.39l19.867,29.155s2.434,19.229,4.381,23.854,9.979,19.715,9.979,19.715l.974,3.408a6.38,6.38,0,0,0,6.085-1.217,27.037,27.037,0,0,0,4.4-5.258l-2.692-3.261L150.4,300.6s-6.572-39.188-8.032-43.813-19.272-44.7-19.272-44.7l-3.894-10.71s-3.651,2.434-14.848,5.842a69.364,69.364,0,0,1-22.88,2.434" transform="translate(-14.286 -45.724)" fill="#263238"/>
          <path id="Trazado_875361" data-name="Trazado 875361" d="M119.2,200.874a.5.5,0,0,1,.47.329l3.888,10.694c.825,1.856,17.837,40.151,19.285,44.735s7.748,42.087,8.047,43.868l.458,2.06,2.616,3.168a.5.5,0,0,1,.041.578,27.278,27.278,0,0,1-4.487,5.368,6.4,6.4,0,0,1-4.382,1.651,7.14,7.14,0,0,1-2.207-.334.5.5,0,0,1-.313-.333l-.959-3.357c-.58-1.091-8.075-15.2-9.974-19.71-1.892-4.494-4.174-22.086-4.4-23.865l-18.993-27.873c-.49,6.6-2.479,33.228-2.912,36.043-.088.575-.665,1.766-4.374,5.912-2.174,2.43-5.168,5.583-8.9,9.372-5.992,6.085-12,11.9-12.711,12.578l-1.089,2.39q-.01.021-.021.041l-3.144,5.482a.5.5,0,0,1-.349.244,3.016,3.016,0,0,1-.48.03c-1.026,0-3.245-.3-6.585-2.3a10.916,10.916,0,0,1-5.3-6.774.5.5,0,0,1,.059-.341c.363-.626,8.933-15.374,12.816-19.743,3.526-3.967,9.506-9.788,10.572-10.822l-2.22-40.8-2.675-19.452a.5.5,0,0,1,.537-.566c.015,0,1.557.127,4.009.127a66.045,66.045,0,0,0,18.683-2.541c10.959-3.336,14.681-5.756,14.717-5.78A.5.5,0,0,1,119.2,200.874Zm33.76,105.21-2.46-2.98a.5.5,0,0,1-.1-.21l-.487-2.191q0-.013-.005-.026c-.066-.392-6.582-39.206-8.016-43.745s-19.074-44.246-19.252-44.646q-.007-.016-.013-.032l-3.687-10.141c-1.372.775-5.514,2.864-14.44,5.58a67.052,67.052,0,0,1-18.975,2.584c-1.6,0-2.8-.051-3.472-.089l2.594,18.865q0,.02,0,.041l2.234,41.047a.5.5,0,0,1-.152.387c-.068.066-6.847,6.609-10.683,10.926-3.6,4.045-11.611,17.716-12.6,19.409a8.388,8.388,0,0,0,.823,1.954,11.009,11.009,0,0,0,3.966,3.973c3.251,1.945,5.329,2.155,6.072,2.155H74.4l3-5.232,1.119-2.455a.5.5,0,0,1,.108-.153c.064-.061,6.424-6.191,12.762-12.627,3.719-3.777,6.7-6.918,8.865-9.336,3.6-4.021,4.087-5.113,4.131-5.4.478-3.109,2.984-37.05,3.009-37.392a.5.5,0,0,1,.912-.245l19.867,29.155a.5.5,0,0,1,.083.219c.024.192,2.447,19.214,4.346,23.723,1.916,4.551,9.88,19.524,9.96,19.674a.5.5,0,0,1,.039.1l.9,3.144a6.61,6.61,0,0,0,1.634.206,5.34,5.34,0,0,0,3.709-1.391A26.908,26.908,0,0,0,152.96,306.085Z" transform="translate(-14.286 -45.724)" fill="#263238"/>
          <path id="Trazado_875362" data-name="Trazado 875362" d="M111.753,213.787c8.159-3.722,12.022-7.442,13.823-9.877l-.923-2.537s-3.651,2.434-14.847,5.841a69.257,69.257,0,0,1-22.492,2.461l-.377.056.715,5.2a31.275,31.275,0,0,0,24.1-1.145" transform="translate(-19.74 -45.724)" fill="#26aab7"/>
          <path id="Trazado_875363" data-name="Trazado 875363" d="M98.172,217.3h0a29.925,29.925,0,0,1-10.7-1.906.5.5,0,0,1-.314-.4l-.715-5.2a.5.5,0,0,1,.422-.563l.2-.03.175-.026a.5.5,0,0,1,.1,0c.6.038,1.88.1,3.635.1a66.026,66.026,0,0,0,18.679-2.542c10.959-3.335,14.68-5.755,14.716-5.779a.5.5,0,0,1,.747.245l.923,2.537a.5.5,0,0,1-.068.468c-1.854,2.506-5.791,6.281-14.018,10.034A33.046,33.046,0,0,1,98.172,217.3Zm-10.065-2.733A29.111,29.111,0,0,0,98.171,216.3a32.053,32.053,0,0,0,13.375-2.971c7.8-3.558,11.62-7.1,13.468-9.506l-.623-1.713c-1.372.775-5.514,2.864-14.439,5.58a67.034,67.034,0,0,1-18.971,2.585c-1.592,0-2.8-.052-3.477-.09Z" transform="translate(-19.74 -45.724)" fill="#263238"/>
          <path id="Trazado_875364" data-name="Trazado 875364" d="M75.781,137.881,56.613,152.12,78.337,192.83a6.057,6.057,0,0,0,2.191,3.834c2.008,1.643,15.152,1.278,19.9-.182a81.141,81.141,0,0,0,14.057-6.389c2.008-1.278,4.747-4.016,4.016-6.39a20.424,20.424,0,0,0-2.008-4.381l-3.834-11.136s15.152.913,17.16.913,8.945-17.525,8.945-17.525-2.008-.183-2.739-1.461a12.372,12.372,0,0,1-1.1-2.739,60.216,60.216,0,0,1-6.572,3.287c-3.834,1.643-7.85,2.008-9.493,1.278s-11.318-9.493-13.509-12.231-2.555-3.834-3.286-3.834-14.239.913-15.882.913-10.405,1.1-10.405,1.1" transform="translate(-12.854 -30.851)" fill="#26aab7"/>
          <path id="Trazado_875365" data-name="Trazado 875365" d="M102.069,135.373c.723,0,1.124.563,1.924,1.684.407.571.965,1.354,1.752,2.337a81.133,81.133,0,0,0,6.905,6.81,51.312,51.312,0,0,0,6.416,5.277,5.359,5.359,0,0,0,2.059.316,19.04,19.04,0,0,0,7.034-1.6,60.235,60.235,0,0,0,6.511-3.256.5.5,0,0,1,.742.307,11.958,11.958,0,0,0,1.044,2.612c.59,1.032,2.333,1.209,2.351,1.211a.5.5,0,0,1,.419.682c-.017.044-1.762,4.443-3.729,8.785-1.159,2.558-2.169,4.6-3,6.065-1.493,2.629-2.17,2.991-2.68,2.991-1.767,0-13.338-.684-16.444-.869l3.572,10.375a20.8,20.8,0,0,1,2.032,4.451c.869,2.823-2.384,5.786-4.226,6.959a81.852,81.852,0,0,1-14.178,6.445,49.132,49.132,0,0,1-12.193,1.286c-2.505,0-6.9-.155-8.168-1.195a6.6,6.6,0,0,1-2.359-4.069l-21.68-40.626a.5.5,0,0,1,.143-.637L75.483,137.48a.5.5,0,0,1,.236-.095c.359-.045,8.813-1.1,10.467-1.1.97,0,6.209-.327,10.418-.591C99.8,135.5,101.776,135.373,102.069,135.373ZM121.126,152.8a6.22,6.22,0,0,1-2.465-.4c-.962-.428-4.082-3.1-6.681-5.449a85.817,85.817,0,0,1-7.015-6.927c-.8-1.005-1.371-1.8-1.785-2.381-.543-.762-.9-1.265-1.11-1.265-.277,0-2.766.156-5.4.32-4.223.264-9.479.592-10.48.592-1.485,0-9.118.939-10.213,1.075l-18.717,13.9,21.522,40.329a.5.5,0,0,1,.057.194,5.623,5.623,0,0,0,2.009,3.488c.572.468,2.852.969,7.535.969a48.916,48.916,0,0,0,11.9-1.242,80.444,80.444,0,0,0,13.935-6.333,11.4,11.4,0,0,0,2.9-2.66,3.782,3.782,0,0,0,.905-3.161,20.021,20.021,0,0,0-1.952-4.26.5.5,0,0,1-.051-.106l-3.834-11.136a.5.5,0,0,1,.5-.662c.151.009,15.079.907,17.114.912.083-.029.61-.3,1.966-2.733.815-1.463,1.8-3.466,2.919-5.953,1.5-3.332,2.861-6.656,3.384-7.954a3.832,3.832,0,0,1-2.48-1.6,12.222,12.222,0,0,1-.962-2.236,64.233,64.233,0,0,1-6.074,3A20.084,20.084,0,0,1,121.126,152.8Z" transform="translate(-12.854 -30.851)" fill="#263238"/>
          <path id="Trazado_875366" data-name="Trazado 875366" d="M158.19,153.513a12.286,12.286,0,0,1-1.075-2.663l-.568.655s-2.92,2.191-2.191,5.294c.458,1.943,2.7,2.6,4.676,2.771,1.114-2.621,1.9-4.6,1.9-4.6s-2.008-.182-2.739-1.46" transform="translate(-35.021 -34.252)" fill="#26aab7"/>
          <path id="Trazado_875367" data-name="Trazado 875367" d="M157.115,150.35a.5.5,0,0,1,.483.37,11.912,11.912,0,0,0,1.027,2.545c.585,1.023,2.332,1.209,2.35,1.21a.5.5,0,0,1,.42.682c-.008.02-.8,2.011-1.9,4.608a.5.5,0,0,1-.5.3c-2.923-.256-4.694-1.347-5.119-3.154a5.221,5.221,0,0,1,.9-4.207,7.469,7.469,0,0,1,1.436-1.566l.536-.618A.5.5,0,0,1,157.115,150.35Zm3.121,5.008a3.83,3.83,0,0,1-2.48-1.6,11.737,11.737,0,0,1-.851-1.907.5.5,0,0,1-.058.051c-.026.02-2.648,2.039-2,4.779.373,1.584,2.238,2.158,3.873,2.35C159.4,157.421,159.946,156.078,160.236,155.358Z" transform="translate(-35.021 -34.252)" fill="#263238"/>
          <line id="Línea_1710" data-name="Línea 1710" x1="0.981" y1="2.818" transform="translate(91.223 112.689)" fill="#fff"/>
          <path id="Línea_1711" data-name="Línea 1711" d="M.509,2.983-.472.164.472-.164l.981,2.818Z" transform="translate(91.223 112.689)" fill="#263238"/>
          <line id="Línea_1712" data-name="Línea 1712" x1="6.738" y1="19.354" transform="translate(93.065 117.98)" fill="#fff"/>
          <path id="Línea_1713" data-name="Línea 1713" d="M6.266,19.518-.472.164.472-.164,7.21,19.189Z" transform="translate(93.065 117.98)" fill="#263238"/>
          <path id="Trazado_875368" data-name="Trazado 875368" d="M80.548,199.22h0a10.3,10.3,0,0,1-1.165-14.733l74.855-85.881,11.44,9.473L95.239,197.617a10.3,10.3,0,0,1-14.691,1.6" transform="translate(-17.442 -22.389)" fill="#263238"/>
          <path id="Trazado_875369" data-name="Trazado 875369" d="M87.109,202.086a10.8,10.8,0,0,1-8.1-17.93l74.853-85.879a.5.5,0,0,1,.7-.057L166,107.694a.5.5,0,0,1,.074.694L95.632,197.926A10.735,10.735,0,0,1,87.109,202.086ZM154.295,99.3,79.76,184.815a9.8,9.8,0,1,0,15.085,12.494l70.139-89.156Z" transform="translate(-17.442 -22.389)" fill="#263238"/>
          <path id="Trazado_875370" data-name="Trazado 875370" d="M134.318,128.173,79.383,191.2a10.3,10.3,0,1,0,15.856,13.13L147.2,138.278Z" transform="translate(-17.442 -29.103)" fill="#fff"/>
          <path id="Trazado_875371" data-name="Trazado 875371" d="M134.319,127.673a.5.5,0,0,1,.308.107l12.884,10.1a.5.5,0,0,1,.084.7L95.632,204.639A10.8,10.8,0,1,1,79.008,190.87l54.934-63.025A.5.5,0,0,1,134.319,127.673ZM146.5,138.362l-12.117-9.5L79.76,191.529a9.8,9.8,0,1,0,15.085,12.494Z" transform="translate(-17.442 -29.103)" fill="#263238"/>
          <path id="Trazado_875372" data-name="Trazado 875372" d="M235.031,12.94a47.221,47.221,0,1,0,6.255,66.487,47.221,47.221,0,0,0-6.255-66.487M179.146,80.432a40.405,40.405,0,1,1,56.89-5.352,40.405,40.405,0,0,1-56.89,5.352" transform="translate(-35.806 -0.474)" fill="#ffd947"/>
          <path id="Trazado_875373" data-name="Trazado 875373" d="M204.94,1.589h0A47.77,47.77,0,1,1,168.16,18.876,47.552,47.552,0,0,1,204.942,1.589Zm-.05,94.443A46.723,46.723,0,1,0,175.118,85.3,46.609,46.609,0,0,0,204.889,96.033ZM204.938,8.4a40.946,40.946,0,1,1-31.529,14.818A40.754,40.754,0,0,1,204.938,8.4Zm-.044,80.813a39.908,39.908,0,1,0-25.428-9.17A39.807,39.807,0,0,0,204.893,89.217Z" transform="translate(-35.806 -0.474)" fill="#263238"/>
          <path id="Trazado_875374" data-name="Trazado 875374" d="M161.564,148.888l6.937-10.953s2.555-4.929,3.286-5.842,3.651-2.009,1.278-2.009a3.314,3.314,0,0,0-3.1,1.461s0-2.76,0-3.856,0-3.811-1.456-3.628-.934,2.295-1.212,4.406c-.122.923-1.161,5.087-1.161,5.087l-1.572-6.142a1.253,1.253,0,0,0-1.364-.959c-.3.043-.533.186-.533.528a49.513,49.513,0,0,0,.913,4.929l-.563,3.062s-.747-4.836-1.89-6.116c-.5-.561-1.366.477-1,1.39a42.718,42.718,0,0,1,.533,6.047l-.182,2.191s-1.278-2.191-2.008-3.287-1.826-.548-1.278,1.1,1.826,4.381,1.826,4.381l-1.278,4.016s-2.008,6.207,3.834,4.2" transform="translate(-35.656 -28.167)" fill="#fff"/>
          <path id="Trazado_875375" data-name="Trazado 875375" d="M159.553,149.789h0a2.442,2.442,0,0,1-2.105-.951c-1.084-1.49-.23-4.187-.193-4.3l1.219-3.829c-.295-.64-1.289-2.829-1.765-4.257a2.1,2.1,0,0,1,.088-1.887,1.028,1.028,0,0,1,.839-.437,1.563,1.563,0,0,1,1.24.793c.353.529.824,1.3,1.224,1.962l.05-.6a38.452,38.452,0,0,0-.5-5.848,1.8,1.8,0,0,1,.186-1.658,1.183,1.183,0,0,1,.954-.576.932.932,0,0,1,.7.325,10.207,10.207,0,0,1,1.5,3.787l.072-.39a44.21,44.21,0,0,1-.9-4.939,1.008,1.008,0,0,1,.96-1.023,1.634,1.634,0,0,1,.241-.018,1.777,1.777,0,0,1,1.681,1.348l1.076,4.2c.289-1.206.614-2.615.677-3.091a15.834,15.834,0,0,0,.1-1.7,7.808,7.808,0,0,1,.194-1.936,1.543,1.543,0,0,1,1.35-1.2,1.61,1.61,0,0,1,.2-.013c.574,0,1.324.314,1.643,1.811a11.55,11.55,0,0,1,.176,2.318v.008c0,.613,0,1.747,0,2.627a4.475,4.475,0,0,1,2.6-.732c.591,0,1.235.043,1.387.553.164.547-.391.912-1.159,1.416a5.793,5.793,0,0,0-1.116.853c-.574.717-2.528,4.4-3.232,5.76q-.01.019-.021.037l-6.937,10.953a.5.5,0,0,1-.26.205A6.856,6.856,0,0,1,159.553,149.789Zm-1.917-14.662c-.007,0-.012,0-.028.022-.071.1-.141.417.049.986.532,1.6,1.792,4.3,1.8,4.328a.5.5,0,0,1,.023.363l-1.278,4.016c-.207.646-.6,2.513.051,3.408a1.484,1.484,0,0,0,1.3.538h0a5.62,5.62,0,0,0,1.683-.318l6.83-10.784c.2-.387,2.593-4.985,3.329-5.9a6.049,6.049,0,0,1,1.348-1.064l.2-.131a2.818,2.818,0,0,0-2.536,1.185.494.494,0,0,1-.558.267.5.5,0,0,1-.389-.493s0-2.761,0-3.857v-.008a10.722,10.722,0,0,0-.154-2.11c-.144-.676-.368-1.019-.665-1.019a.6.6,0,0,0-.075,0c-.534.067-.631.575-.669,2.17a16.856,16.856,0,0,1-.11,1.8c-.124.941-1.129,4.972-1.172,5.143a.5.5,0,0,1-.97,0l-1.572-6.142a.767.767,0,0,0-.712-.6.638.638,0,0,0-.094.007.442.442,0,0,0-.106.026s0,0,0,.007a46.149,46.149,0,0,0,.9,4.818.5.5,0,0,1,0,.2l-.563,3.062a.5.5,0,0,1-.986-.014c-.2-1.292-.9-4.829-1.743-5.829a.592.592,0,0,0-.158.21.8.8,0,0,0-.031.632c.379.946.54,5.344.569,6.216a.5.5,0,0,1,0,.058l-.182,2.191a.5.5,0,0,1-.93.21c-.013-.022-1.279-2.19-1.992-3.261C157.874,135.219,157.707,135.127,157.636,135.127Z" transform="translate(-35.656 -28.167)" fill="#263238"/>
          <line id="Línea_1714" data-name="Línea 1714" x1="1.278" y2="3.651" transform="translate(133.027 103.379)" fill="#fff"/>
          <path id="Línea_1715" data-name="Línea 1715" d="M.472,3.817l-.944-.33L.806-.165l.944.33Z" transform="translate(133.027 103.379)" fill="#263238"/>
          <path id="Trazado_875376" data-name="Trazado 875376" d="M59.736,153.992s-4.358,1.146-4.358,2.972,0,39.8-.182,41.076,39.8-4.383,39.8-4.383l.913-6.207-24.462-4.929L71.261,165" transform="translate(-12.533 -34.965)" fill="#26aab7"/>
          <path id="Trazado_875377" data-name="Trazado 875377" d="M56.285,198.728c-1.046,0-1.262-.119-1.422-.28a.561.561,0,0,1-.162-.479c.14-1.005.177-26.248.177-41,0-.967.829-1.85,2.465-2.623a14.676,14.676,0,0,1,2.265-.833l.255.967h0a13.889,13.889,0,0,0-2.1.775c-1.2.567-1.881,1.191-1.881,1.713,0,6.331-.008,36.753-.163,40.749a48.315,48.315,0,0,0,6.7-.426c3.382-.338,7.931-.869,13.522-1.578,8.453-1.073,16.782-2.237,18.614-2.494l.789-5.367-24-4.835a.5.5,0,0,1-.4-.485L70.761,165l1-.01.178,17.119L96,186.96a.5.5,0,0,1,.4.563l-.913,6.207a.5.5,0,0,1-.425.422c-.1.014-9.8,1.386-19.5,2.612-5.7.721-10.291,1.251-13.638,1.576-1.993.194-3.566.316-4.673.364C56.865,198.72,56.549,198.728,56.285,198.728Z" transform="translate(-12.533 -34.965)" fill="#263238"/>
          <path id="Trazado_875378" data-name="Trazado 875378" d="M102.612,196.232l-.18,7.382.123.077c1.971-.273,3.163-.441,3.163-.441l.913-6.207Z" transform="translate(-23.258 -44.556)" fill="#26aab7"/>
          <path id="Trazado_875379" data-name="Trazado 875379" d="M102.612,195.732a.5.5,0,0,1,.1.01l4.019.81a.5.5,0,0,1,.4.563l-.913,6.207a.5.5,0,0,1-.425.422c-.012,0-1.215.172-3.164.442a.5.5,0,0,1-.333-.071l-.123-.077a.5.5,0,0,1-.236-.437l.18-7.382a.5.5,0,0,1,.5-.488Zm3.455,1.706-2.97-.6-.153,6.292,2.334-.326Z" transform="translate(-23.258 -44.556)" fill="#263238"/>
          <path id="Trazado_875380" data-name="Trazado 875380" d="M107.7,195.349s5.111-6.572,7.3-6.572,5.477.183,6.207.183,2.374-.366,1.461.913-4.016,1.1-4.016,1.1l4.063,2.216a2.062,2.062,0,0,1,.529,3.233l-.028.027c-.912.913-3.286.913-3.286.913s-2.555,4.2-4.2,4.564-8.58-1.278-8.58-1.278Z" transform="translate(-24.33 -42.863)" fill="#fff"/>
          <path id="Trazado_875381" data-name="Trazado 875381" d="M115,188.277c1.4,0,3.236.074,4.578.128.767.031,1.372.055,1.629.055.107,0,.25-.01.4-.021.184-.013.393-.028.591-.028.245,0,.9,0,1.151.494s-.143,1.072-.276,1.257a3.821,3.821,0,0,1-2.613,1.222l2.492,1.359a2.617,2.617,0,0,1,1.327,1.9,2.475,2.475,0,0,1-.681,2.118l-.019.019-.011.011a5.611,5.611,0,0,1-3.358,1.053c-.238.375-.746,1.149-1.368,1.957-1.211,1.571-2.193,2.422-3,2.6a3.514,3.514,0,0,1-.748.065,53.206,53.206,0,0,1-8.057-1.345.5.5,0,0,1-.382-.538l.548-5.294a.5.5,0,0,1,.1-.255c.013-.017,1.311-1.681,2.861-3.322C112.357,189.4,113.939,188.277,115,188.277Zm6.207,1.183c-.277,0-.891-.025-1.669-.056-1.333-.054-3.159-.127-4.537-.127-.347,0-1.44.3-4.1,3.124-1.29,1.365-2.4,2.748-2.715,3.144l-.488,4.71a48.394,48.394,0,0,0,7.4,1.219,2.551,2.551,0,0,0,.531-.041c1.046-.233,2.935-2.783,3.88-4.336a.5.5,0,0,1,.427-.24c.6,0,2.306-.14,2.932-.766l.032-.031a1.484,1.484,0,0,0,.4-1.264,1.59,1.59,0,0,0-.817-1.173l-4.063-2.216a.5.5,0,0,1,.269-.938s.144.008.372.008c1.242,0,2.737-.235,3.208-.895.047-.066.082-.121.107-.165-.045,0-.1-.006-.168-.006-.163,0-.345.013-.521.025S121.354,189.46,121.212,189.46Z" transform="translate(-24.33 -42.863)" fill="#263238"/>
          <path id="Trazado_875382" data-name="Trazado 875382" d="M101.1,149.995l.465-11.96-4.66-1.553.777,4.815Z" transform="translate(-22.002 -30.989)" fill="#26aab7"/>
          <path id="Trazado_875383" data-name="Trazado 875383" d="M101.1,150.495a.5.5,0,0,1-.465-.317l-3.418-8.7a.5.5,0,0,1-.028-.1l-.777-4.815a.5.5,0,0,1,.652-.554l4.66,1.553a.5.5,0,0,1,.342.494l-.465,11.96a.5.5,0,0,1-.5.481Zm-2.933-9.331,2.526,6.428.358-9.2-3.521-1.173Z" transform="translate(-22.002 -30.989)" fill="#263238"/>
          <path id="Trazado_875384" data-name="Trazado 875384" d="M102.884,138.491l3.417,6.99-3.573-.311Z" transform="translate(-23.325 -31.445)" fill="#26aab7"/>
          <path id="Trazado_875385" data-name="Trazado 875385" d="M102.884,137.991a.5.5,0,0,1,.449.28l3.417,6.99a.5.5,0,0,1-.493.718l-3.573-.311a.5.5,0,0,1-.457-.51l.155-6.679a.5.5,0,0,1,.5-.488Zm2.579,6.915-2.127-4.352-.1,4.158Z" transform="translate(-23.325 -31.445)" fill="#263238"/>
          <path id="Trazado_875386" data-name="Trazado 875386" d="M97.607,117.919c-1.555.468-5.287,9.478-5.287,9.478l2.643,11.647-4.192-5.9-1.149-5.679-9.884-4.106.153-6.528a21.981,21.981,0,0,1-2.578-1.636,16.16,16.16,0,0,1-4.41-4.578c-2.176-3.724-5.279-9.471-.468-15.685,4.652-5.995,9.449-6.353,14.656-6.652.19-.008.38-.022.57-.029,0,0,6.061,3.732,6.214,5.594s.934,4.505,2.643,5.593,4.039-.161,4.039,2.169a5.541,5.541,0,0,1-1.87,3.885s1.555,7.149,2.33,9.478-1.862,2.483-3.41,2.95" transform="translate(-15.87 -20.038)" fill="#fff"/>
          <path id="Trazado_875387" data-name="Trazado 875387" d="M94.964,139.544a.5.5,0,0,1-.408-.21l-4.192-5.9a.5.5,0,0,1-.082-.19l-1.1-5.418-9.638-4a.5.5,0,0,1-.308-.473l.146-6.223a23.87,23.87,0,0,1-2.365-1.525,16.248,16.248,0,0,1-4.547-4.73,21.112,21.112,0,0,1-2.916-7.079,11.1,11.1,0,0,1,.131-4.426,12.528,12.528,0,0,1,2.354-4.739A16.007,16.007,0,0,1,79.386,89a26.943,26.943,0,0,1,7.677-1.219h.008c.092,0,.185-.009.277-.014s.2-.011.293-.015a.5.5,0,0,1,.283.074c.063.039,1.554.959,3.09,2.126A19.38,19.38,0,0,1,93.2,91.837,3.573,3.573,0,0,1,94.374,93.8c.159,1.931.966,4.291,2.413,5.212a4.1,4.1,0,0,0,1.869.48c1.07.1,2.4.227,2.4,2.111a5.911,5.911,0,0,1-1.82,4.058c.3,1.341,1.583,7.129,2.254,9.147a2.257,2.257,0,0,1-.064,1.86c-.526.952-1.78,1.255-2.886,1.522-.285.069-.554.134-.79.205-.079.024-.824.354-2.922,4.655-.945,1.938-1.762,3.855-1.987,4.39l2.608,11.491a.5.5,0,0,1-.487.611Zm-3.723-6.6,2.681,3.774-2.09-9.207a.5.5,0,0,1,.026-.3c.009-.023.952-2.293,2.073-4.591,2.083-4.271,2.982-5.008,3.532-5.174.263-.079.545-.148.844-.22.906-.219,1.932-.467,2.245-1.034a1.3,1.3,0,0,0-.009-1.059c-.774-2.329-2.28-9.238-2.344-9.531a.5.5,0,0,1,.17-.491,5.075,5.075,0,0,0,1.689-3.5c0-.932-.335-1.005-1.495-1.115a5.014,5.014,0,0,1-2.312-.632c-1.855-1.181-2.707-3.956-2.872-5.974-.018-.221-.286-1.1-2.969-3.138-1.242-.944-2.483-1.74-2.879-1.99l-.124.007c-.1.005-.192.011-.289.015-4.992.287-9.708.559-14.285,6.459-4.382,5.66-2.038,10.776.5,15.127a15.49,15.49,0,0,0,4.274,4.427,21.744,21.744,0,0,0,2.512,1.6.5.5,0,0,1,.27.456l-.145,6.186L89.814,127a.5.5,0,0,1,.3.363Z" transform="translate(-15.87 -20.038)" fill="#263238"/>
          <path id="Trazado_875388" data-name="Trazado 875388" d="M99.37,102.742c.4.61.491,1.257.2,1.445s-.844-.154-1.244-.764-.491-1.257-.2-1.445.844.154,1.244.764" transform="translate(-22.242 -23.143)" fill="#263238"/>
          <path id="Trazado_875389" data-name="Trazado 875389" d="M95.591,101.775l-1-.061a4.116,4.116,0,0,1,.446-1.525A2.875,2.875,0,0,1,97.732,98.6v1a1.882,1.882,0,0,0-1.8,1.029A3.13,3.13,0,0,0,95.591,101.775Z" transform="translate(-21.591 -22.502)" fill="#263238"/>
          <path id="Trazado_875390" data-name="Trazado 875390" d="M101.166,114.791c-.168,0-.341-.005-.517-.017-2.176-.148-2.952-1.2-3.22-2.059l.954-.3c.63,2.017,4.348,1.223,4.385,1.215l.217.976A9.239,9.239,0,0,1,101.166,114.791Z" transform="translate(-22.23 -25.559)" fill="#263238"/>
          <path id="Trazado_875391" data-name="Trazado 875391" d="M86.266,93.851c1.4,1.394-3.731,4.812-4.505,6.367s.621,4.038.774,5.126-3.571,4.192-3.571,4.192l-1.4,1.4,1.088,4.345s-.5,0-1.336-.08a16.163,16.163,0,0,1-4.41-4.579c-2.177-3.724-5.28-9.471-.468-15.685,4.652-6,9.449-6.353,14.656-6.653-.906.614-2.052.883-2.7,1.527-.927.928.468,2.636,1.87,4.038" transform="translate(-15.87 -20.046)" fill="#a6a6a6"/>
          <path id="Trazado_875392" data-name="Trazado 875392" d="M87.092,87.787a.5.5,0,0,1,.28.914,9.051,9.051,0,0,1-1.31.7,4.7,4.7,0,0,0-1.312.77c-.088.089-.358.359.143,1.24A10.679,10.679,0,0,0,86.62,93.5a1.289,1.289,0,0,1,.386.945c-.013,1.171-1.5,2.591-2.929,3.964a11.428,11.428,0,0,0-1.868,2.035c-.46.915.056,2.4.432,3.491a8.039,8.039,0,0,1,.39,1.342c.061.432-.1,1.155-1.87,2.927-.859.859-1.721,1.588-1.859,1.7l-1.186,1.185,1.019,4.071a.5.5,0,0,1-.485.621c-.021,0-.531,0-1.384-.083a.5.5,0,0,1-.247-.094,16.255,16.255,0,0,1-4.547-4.731,21.1,21.1,0,0,1-2.916-7.079,11.094,11.094,0,0,1,.131-4.426,12.526,12.526,0,0,1,2.354-4.738,16.006,16.006,0,0,1,7.346-5.627,26.963,26.963,0,0,1,7.677-1.219ZM78,114.757l-.926-3.7a.5.5,0,0,1,.132-.475l1.4-1.4.033-.03c.009-.007.906-.757,1.782-1.629,1.621-1.615,1.615-2.092,1.614-2.111a7.8,7.8,0,0,0-.344-1.152c-.435-1.255-1.03-2.975-.381-4.266a11.044,11.044,0,0,1,2.071-2.31c1.1-1.056,2.613-2.5,2.621-3.253a.287.287,0,0,0-.093-.227,11.592,11.592,0,0,1-1.89-2.3c-.725-1.276-.39-2.032.02-2.441a3.355,3.355,0,0,1,.686-.513c-4.118.36-8.057,1.348-11.9,6.3-4.384,5.66-2.038,10.776.5,15.126a15.139,15.139,0,0,0,4.163,4.346C77.687,114.735,77.856,114.747,78,114.757Z" transform="translate(-15.87 -20.046)" fill="#263238"/>
          <path id="Trazado_875393" data-name="Trazado 875393" d="M82.291,115.948s-2.328-3.571-5.126-1.554,2.334,6.681,3.263,7.457,3.883-2.175,3.883-2.175a7.093,7.093,0,0,0,4.659,2.951" transform="translate(-17.333 -25.834)" fill="#fff"/>
          <path id="Trazado_875394" data-name="Trazado 875394" d="M88.9,123.122a7.531,7.531,0,0,1-4.651-2.694c-.3.279-.747.666-1.228,1.027-.87.652-2.118,1.442-2.91.78a20.588,20.588,0,0,1-2.416-2.44c-1.266-1.529-1.888-2.853-1.85-3.934a2.354,2.354,0,0,1,1.032-1.872,3.346,3.346,0,0,1,2.641-.657,5.689,5.689,0,0,1,3.2,2.343l-.838.546.419-.273-.418.274a4.748,4.748,0,0,0-2.547-1.908,2.355,2.355,0,0,0-1.869.486,1.337,1.337,0,0,0-.617,1.1c-.065,1.838,2.8,4.645,3.908,5.571.055.046.524.045,1.669-.813a16.567,16.567,0,0,0,1.54-1.332.5.5,0,0,1,.777.089,6.651,6.651,0,0,0,4.309,2.722Z" transform="translate(-17.333 -25.834)" fill="#263238"/>
          <path id="Trazado_875395" data-name="Trazado 875395" d="M82.5,89.5s-6.679,7.456-8.388,10.873a56.59,56.59,0,0,0-2.951,7.457,9.5,9.5,0,0,1-5.437-2.486c-2.019-2.174.155-10.718,4.039-14.912a31.544,31.544,0,0,1,8.388-6.369s-4.971.155-3.106-1.242,6.524-2.02,9.631-.466a3.311,3.311,0,0,1,1.863,4.349Z" transform="translate(-14.75 -18.493)" fill="#263238"/>
          <path id="Trazado_875396" data-name="Trazado 875396" d="M80.356,80.946a10.24,10.24,0,0,1,4.546.963,3.848,3.848,0,0,1,2.371,3.161A4.061,4.061,0,0,1,87,86.908a.5.5,0,0,1-.172.208l-3.989,2.763c-.549.617-6.682,7.535-8.274,10.719a56.459,56.459,0,0,0-2.92,7.38.5.5,0,0,1-.523.351,9.915,9.915,0,0,1-5.758-2.644,4.435,4.435,0,0,1-.9-2.989,15.805,15.805,0,0,1,.589-4.177A20.736,20.736,0,0,1,69.4,90.094a32.347,32.347,0,0,1,6.912-5.579c-.153-.013-.307-.029-.456-.049-1.016-.134-1.536-.4-1.687-.85-.134-.4.061-.8.579-1.194A10.076,10.076,0,0,1,80.356,80.946Zm5.772,5.437a3.137,3.137,0,0,0,.145-1.264A2.915,2.915,0,0,0,84.455,82.8a9.244,9.244,0,0,0-4.1-.858,9.056,9.056,0,0,0-5.008,1.276c-.046.035-.084.065-.114.092a8.451,8.451,0,0,0,2.5.255c.246,0,.405,0,.407,0a.5.5,0,0,1,.233.95,31.33,31.33,0,0,0-8.238,6.258,19.7,19.7,0,0,0-4.116,8c-.77,2.905-.739,5.351.077,6.23a8.689,8.689,0,0,0,4.722,2.273,56.532,56.532,0,0,1,2.852-7.127c1.719-3.438,8.188-10.677,8.463-10.983a.5.5,0,0,1,.088-.077Z" transform="translate(-14.75 -18.493)" fill="#263238"/>
          <path id="Trazado_875397" data-name="Trazado 875397" d="M80.487,132.462l-3.2,6.793,12.521,7.188,2.115-9.4Z" transform="translate(-17.548 -30.077)" fill="#26aab7"/>
          <path id="Trazado_875398" data-name="Trazado 875398" d="M80.487,131.962a.5.5,0,0,1,.186.036l11.435,4.577a.5.5,0,0,1,.3.574l-2.115,9.4a.5.5,0,0,1-.737.324l-12.521-7.188a.5.5,0,0,1-.2-.647l3.2-6.793A.5.5,0,0,1,80.487,131.962Zm10.853,5.383-10.6-4.244-2.8,5.949,11.533,6.62Z" transform="translate(-17.548 -30.077)" fill="#263238"/>
        </g>
      </g>
    </g>
  </g>
</svg>
