<svg xmlns="http://www.w3.org/2000/svg" xmlns:xlink="http://www.w3.org/1999/xlink" width="78.501" height="67.824" viewBox="0 0 78.501 67.824">
  <defs>
    <clipPath id="clip-path">
      <rect id="Rectángulo_401730" data-name="Rectángulo 401730" width="58" height="58" transform="translate(420 7733)" fill="#fff" stroke="#707070" stroke-width="1"/>
    </clipPath>
  </defs>
  <g id="Grupo_1100316" data-name="Grupo 1100316" transform="translate(-410 -7733)">
    <path id="_12068" data-name="12068" d="M72.033,71.913c-8.038-1.11-16.53-.839-23.844,2.675C38.045,79.46,31.382,90.507,31.127,101.757s5.606,22.305,14.66,28.988,21,9.051,32.068,7.045c11.165-2.023,21.645-8.583,27.469-18.322,3.735-6.245,5.48-13.956,3.417-20.934a28.6,28.6,0,0,0-6.787-11.156A50.145,50.145,0,0,0,72.033,71.913Z" transform="translate(378.881 7662.343)" fill="#7d6eb2"/>
    <g id="Enmascarar_grupo_1098748" data-name="Enmascarar grupo 1098748" clip-path="url(#clip-path)">
      <g id="Advertisment-Browser-Online-Megaphone-Commerce" transform="translate(418.065 7731.402)">
        <path id="Trazado_875123" data-name="Trazado 875123" d="M53.2,8.706H10.64A1.935,1.935,0,0,0,8.706,10.64v4.836h46.43V10.64A1.94,1.94,0,0,0,53.2,8.706Z" fill="#ffd947"/>
        <path id="Trazado_875124" data-name="Trazado 875124" d="M49.332,8.706h1.935v6.771H49.332Z" fill="#f9c603"/>
        <path id="Trazado_875125" data-name="Trazado 875125" d="M55.136,15.477V53.2A1.94,1.94,0,0,1,53.2,55.136H10.64A1.94,1.94,0,0,1,8.706,53.2V15.477Z" fill="#aee6e6"/>
        <path id="Trazado_875126" data-name="Trazado 875126" d="M51.267,15.477V49.332a1.94,1.94,0,0,1-1.935,1.935H8.706V15.477Z" fill="#26aab7" opacity="0.42"/>
        <path id="Trazado_875127" data-name="Trazado 875127" d="M49.332,10.64V47.4A1.94,1.94,0,0,1,47.4,49.332H4.836A1.94,1.94,0,0,1,2.9,47.4V10.64Z" fill="#aee6e6"/>
        <path id="Trazado_875128" data-name="Trazado 875128" d="M49.332,21.2V47.4A1.94,1.94,0,0,1,47.4,49.332H16.773C26.543,43.877,40.191,34.542,49.332,21.2Z" fill="#26aab7" opacity="0.19"/>
        <path id="Trazado_875129" data-name="Trazado 875129" d="M49.332,45.4,42.358,33.323l-6.442,8.183,3.869,6.7,1.035-.145,8.512-1.238.764-.106Z" fill="#e6e7e8"/>
        <path id="Trazado_875130" data-name="Trazado 875130" d="M53.453,44.786l-3.037-5.252-1.083-1.886-.59-1.006v-.01l-3.028-5.243a1.935,1.935,0,0,0-1.673-.967,1.843,1.843,0,0,0-.967.261,1.935,1.935,0,0,0-.716,2.641L49.332,45.4,50.1,46.72a1.937,1.937,0,0,0,3.357-1.935Z" fill="#ffd947"/>
        <path id="Trazado_875131" data-name="Trazado 875131" d="M52.1,36.641a1.943,1.943,0,0,0-2.65-.716.807.807,0,0,0-.116.077,2.031,2.031,0,0,0-.59.629v.01l.59,1.006,1.083,1.886a1.838,1.838,0,0,0,.967-.251,1.935,1.935,0,0,0,.716-2.641Z" fill="#7d6eb2"/>
        <path id="Trazado_875132" data-name="Trazado 875132" d="M47.4,2.9H4.836A1.94,1.94,0,0,0,2.9,4.836v5.8h46.43v-5.8A1.94,1.94,0,0,0,47.4,2.9Z" fill="#ffd947"/>
        <path id="Trazado_875133" data-name="Trazado 875133" d="M44.5,54.43l-2.941-5.1-.735-1.267-1.035.145-1.944,1.122-1.4.813-.842.484,2.6,4.508,1.267,2.2a1.952,1.952,0,0,0,2.65.706l1.673-.967a1.949,1.949,0,0,0,.948-1.935,1.917,1.917,0,0,0-.242-.706Z" fill="#c6c5ca"/>
        <path id="Trazado_875134" data-name="Trazado 875134" d="M35.916,41.507l-3.347,1.935,3.4,5.891.464.813,1.4-.813,1.944-1.122Z" fill="#7d6eb2"/>
        <path id="Trazado_875135" data-name="Trazado 875135" d="M35.974,49.332l-3.4-5.891-1.673.967a1.923,1.923,0,0,0-.706,2.641L31.5,49.332l.619,1.074a1.935,1.935,0,0,0,2.641.706l.832-.484.842-.484Z" fill="#ffd947"/>
        <path id="Trazado_875136" data-name="Trazado 875136" d="M8.706,16.444H20.313v9.673H8.706Z" fill="#ffd422"/>
        <path id="Trazado_875137" data-name="Trazado 875137" d="M9.673,53.2V50.3H28.052V48.365H4.836a.967.967,0,0,1-.967-.967V11.608h44.5V28.052H50.3V16.444h3.869v9.673H56.1V10.64a2.9,2.9,0,0,0-2.9-2.9H50.3v-2.9a2.9,2.9,0,0,0-2.9-2.9H4.836a2.9,2.9,0,0,0-2.9,2.9V47.4a2.9,2.9,0,0,0,2.9,2.9h2.9v2.9a2.9,2.9,0,0,0,2.9,2.9H34.823V54.169H10.64A.967.967,0,0,1,9.673,53.2ZM53.2,9.673a.967.967,0,0,1,.967.967v3.869H50.3V9.673ZM4.836,3.869H47.4a.967.967,0,0,1,.967.967V9.673H3.869V4.836A.967.967,0,0,1,4.836,3.869Z"/>
        <path id="Trazado_875138" data-name="Trazado 875138" d="M54.169,53.2a.967.967,0,0,1-.967.967H47.4V56.1h5.8a2.9,2.9,0,0,0,2.9-2.9V49.332H54.169Z"/>
        <path id="Trazado_875139" data-name="Trazado 875139" d="M7.738,5.8H9.673V7.738H7.738Z"/>
        <path id="Trazado_875140" data-name="Trazado 875140" d="M11.608,5.8h1.935V7.738H11.608Z"/>
        <path id="Trazado_875141" data-name="Trazado 875141" d="M15.477,5.8h1.935V7.738H15.477Z"/>
        <path id="Trazado_875142" data-name="Trazado 875142" d="M20.313,27.084a.967.967,0,0,0,.967-.967V16.444a.967.967,0,0,0-.967-.967H8.706a.967.967,0,0,0-.967.967v9.673a.967.967,0,0,0,.967.967ZM9.673,17.411h9.673V25.15H9.673Z"/>
        <path id="Trazado_875143" data-name="Trazado 875143" d="M25.15,15.477h1.935v1.935H25.15Z"/>
        <path id="Trazado_875144" data-name="Trazado 875144" d="M29.019,15.477h1.935v1.935H29.019Z"/>
        <path id="Trazado_875145" data-name="Trazado 875145" d="M32.888,15.477h7.738v1.935H32.888Z"/>
        <path id="Trazado_875146" data-name="Trazado 875146" d="M25.15,19.346H40.626v1.935H25.15Z"/>
        <path id="Trazado_875147" data-name="Trazado 875147" d="M25.15,23.215H40.626V25.15H25.15Z"/>
        <path id="Trazado_875148" data-name="Trazado 875148" d="M25.15,27.084H40.626v1.935H25.15Z"/>
        <path id="Trazado_875149" data-name="Trazado 875149" d="M7.738,30.954H25.15v1.935H7.738Z"/>
        <path id="Trazado_875150" data-name="Trazado 875150" d="M7.738,34.823H25.15v1.935H7.738Z"/>
        <path id="Trazado_875151" data-name="Trazado 875151" d="M7.738,38.692H25.15v1.935H7.738Z"/>
        <path id="Trazado_875152" data-name="Trazado 875152" d="M7.738,42.561H25.15V44.5H7.738Z"/>
        <path id="Trazado_875153" data-name="Trazado 875153" d="M42.372,48.815,49.69,47.76a2.9,2.9,0,0,0,4.6-3.456l-2.418-4.188a2.9,2.9,0,0,0-2.9-5.03L46.552,30.9a2.9,2.9,0,0,0-5.292,2.258l-5.984,7.6-4.866,2.805a2.907,2.907,0,0,0-1.064,3.966l1.935,3.351a2.9,2.9,0,0,0,3.966,1.064l3.386,5.864A2.9,2.9,0,0,0,42.6,58.872l1.675-.967a2.9,2.9,0,0,0,1.064-3.966ZM51.257,37.12a.967.967,0,0,1-.353,1.321l-.967-1.675a.967.967,0,0,1,1.32.354Zm-7.7-5.6a.967.967,0,0,1,1.321.353l7.738,13.4a.967.967,0,1,1-1.674.967L43.2,32.837a.967.967,0,0,1,.353-1.32Zm-1.315,3.525,6.31,10.93L40.3,47.16l-3.214-5.566ZM35.565,42.83l2.9,5.03-1.675.967-2.9-5.03Zm-2.612,7.09L31.018,46.57a.967.967,0,0,1,.354-1.321l.838-.484,2.9,5.03-.838.484a.967.967,0,0,1-1.316-.358ZM43.3,56.233l-1.675.967a.967.967,0,0,1-1.321-.354l-3.386-5.864,3.192-1.838.193-.028,3.348,5.8a.967.967,0,0,1-.35,1.317Z"/>
        <path id="Trazado_875154" data-name="Trazado 875154" d="M54.348,33.25h3.869v1.935H54.348Z" transform="translate(-9.569 32.729) rotate(-30.001)"/>
        <path id="Trazado_875155" data-name="Trazado 875155" d="M50.321,29.374h4.1v1.935h-4.1Z" transform="translate(9.51 73.068) rotate(-74.991)"/>
        <path id="Trazado_875156" data-name="Trazado 875156" d="M56.727,37.5h1.935v4.1H56.727Z" transform="translate(4.553 85.037) rotate(-74.991)"/>
      </g>
    </g>
  </g>
</svg>
