<svg xmlns="http://www.w3.org/2000/svg" xmlns:xlink="http://www.w3.org/1999/xlink" width="78.501" height="67.824" viewBox="0 0 78.501 67.824">
  <defs>
    <clipPath id="clip-path">
      <rect id="Rectángulo_401730" data-name="Rectángulo 401730" width="58" height="58" transform="translate(420 7733)" fill="#fff" stroke="#707070" stroke-width="1"/>
    </clipPath>
  </defs>
  <g id="Grupo_1100319" data-name="Grupo 1100319" transform="translate(-410 -7733)">
    <path id="_12068" data-name="12068" d="M72.033,71.913c-8.038-1.11-16.53-.839-23.844,2.675C38.045,79.46,31.382,90.507,31.127,101.757s5.606,22.305,14.66,28.988,21,9.051,32.068,7.045c11.165-2.023,21.645-8.583,27.469-18.322,3.735-6.245,5.48-13.956,3.417-20.934a28.6,28.6,0,0,0-6.787-11.156A50.145,50.145,0,0,0,72.033,71.913Z" transform="translate(378.881 7662.343)" fill="#7d6eb2"/>
    <g id="Enmascarar_grupo_1098751" data-name="Enmascarar grupo 1098751" clip-path="url(#clip-path)">
      <g id="programar" transform="translate(421.835 7733)">
        <path id="Trazado_875193" data-name="Trazado 875193" d="M50.977,10.331H48.688V13.82a1.178,1.178,0,1,1-2.356.045V10.331H43.976V13.82a1.178,1.178,0,1,1-2.356.045V10.331H39.263V13.82a1.178,1.178,0,1,1-2.356.045V10.331H15.882V13.82a1.178,1.178,0,0,1-2.356,0V10.331H11.192V13.82a1.178,1.178,0,0,1-2.356,0V10.331H6.48V13.82a1.178,1.178,0,0,1-2.356,0V10.331H1.948A1.373,1.373,0,0,0,.566,11.713v8.519a1.373,1.373,0,0,0,1.382,1.382H50.977a1.373,1.373,0,0,0,1.382-1.382V11.713a1.373,1.373,0,0,0-1.382-1.382Zm0,0" fill="#26aab7"/>
        <path id="Trazado_875194" data-name="Trazado 875194" d="M28.615,44.859a12.582,12.582,0,0,1,22.611-7.59V21.614H1.722V56.052A1.373,1.373,0,0,0,3.1,57.434H41.189A12.575,12.575,0,0,1,28.615,44.859Zm0,0" fill="#e9e9ea"/>
        <path id="Trazado_875195" data-name="Trazado 875195" d="M53.764,44.859A12.574,12.574,0,1,1,41.189,32.285,12.574,12.574,0,0,1,53.764,44.859Zm0,0" fill="#aee6e6"/>
        <path id="Trazado_875196" data-name="Trazado 875196" d="M50.931,44.859a9.742,9.742,0,1,1-9.742-9.742A9.742,9.742,0,0,1,50.931,44.859Zm0,0" fill="#ffcd29"/>
        <path id="Trazado_875197" data-name="Trazado 875197" d="M42.322,44.859a1.133,1.133,0,1,1-1.133-1.133A1.133,1.133,0,0,1,42.322,44.859Zm0,0" fill="#e9e9ea"/>
        <path id="Trazado_875198" data-name="Trazado 875198" d="M5.3,5.664A1.17,1.17,0,0,1,6.48,6.842V13.82a1.178,1.178,0,0,1-2.356,0v-7A1.18,1.18,0,0,1,5.3,5.664Zm0,0" fill="#e9e9ea"/>
        <path id="Trazado_875199" data-name="Trazado 875199" d="M10.014,5.664a1.17,1.17,0,0,1,1.178,1.178V13.82a1.178,1.178,0,0,1-2.356,0v-7a1.165,1.165,0,0,1,1.178-1.155Zm0,0" fill="#e9e9ea"/>
        <path id="Trazado_875200" data-name="Trazado 875200" d="M14.727,5.664A1.17,1.17,0,0,1,15.9,6.842V13.82a1.178,1.178,0,1,1-2.356,0v-7a1.165,1.165,0,0,1,1.178-1.155Zm0,0" fill="#e9e9ea"/>
        <path id="Trazado_875201" data-name="Trazado 875201" d="M38.085,5.664a1.17,1.17,0,0,1,1.178,1.178V13.82a1.178,1.178,0,0,1-2.356,0v-7a1.18,1.18,0,0,1,1.178-1.155Zm0,0" fill="#e9e9ea"/>
        <path id="Trazado_875202" data-name="Trazado 875202" d="M42.8,5.664a1.17,1.17,0,0,1,1.178,1.178V13.82a1.178,1.178,0,0,1-2.356,0v-7A1.166,1.166,0,0,1,42.8,5.664Zm0,0" fill="#e9e9ea"/>
        <path id="Trazado_875203" data-name="Trazado 875203" d="M47.51,5.664a1.17,1.17,0,0,1,1.178,1.178V13.82a1.178,1.178,0,0,1-2.356,0v-7A1.165,1.165,0,0,1,47.51,5.664Zm0,0" fill="#e9e9ea"/>
        <path id="Trazado_875204" data-name="Trazado 875204" d="M21.659,26.168h2.56a1.039,1.039,0,0,1,1.042,1.042v2.56a1.039,1.039,0,0,1-1.042,1.042h-2.56a1.039,1.039,0,0,1-1.042-1.042V27.21A1.025,1.025,0,0,1,21.659,26.168Zm0,0" fill="#acdef9"/>
        <path id="Trazado_875205" data-name="Trazado 875205" d="M28.592,26.168h2.56a1.039,1.039,0,0,1,1.042,1.042v2.56a1.039,1.039,0,0,1-1.042,1.042h-2.56A1.039,1.039,0,0,1,27.55,29.77V27.21a1.039,1.039,0,0,1,1.042-1.042Zm0,0" fill="#acdef9"/>
        <path id="Trazado_875206" data-name="Trazado 875206" d="M35.548,26.168h2.56A1.04,1.04,0,0,1,39.15,27.21v2.56a1.039,1.039,0,0,1-1.043,1.042h-2.56a1.039,1.039,0,0,1-1.042-1.042V27.21A1.025,1.025,0,0,1,35.548,26.168Zm0,0" fill="#6dcc6d"/>
        <path id="Trazado_875207" data-name="Trazado 875207" d="M7.771,33.1h2.56a1.039,1.039,0,0,1,1.042,1.042V36.7a1.039,1.039,0,0,1-1.042,1.042H7.771A1.04,1.04,0,0,1,6.729,36.7v-2.56A1.039,1.039,0,0,1,7.771,33.1Zm0,0" fill="#6dcc6d"/>
        <path id="Trazado_875208" data-name="Trazado 875208" d="M14.7,33.1h2.56a1.04,1.04,0,0,1,1.043,1.042V36.7a1.039,1.039,0,0,1-1.043,1.042H14.7A1.039,1.039,0,0,1,13.662,36.7v-2.56A1.054,1.054,0,0,1,14.7,33.1Zm0,0" fill="#6dcc6d"/>
        <path id="Trazado_875209" data-name="Trazado 875209" d="M21.659,33.1h2.56a1.039,1.039,0,0,1,1.042,1.042V36.7a1.039,1.039,0,0,1-1.042,1.042h-2.56A1.039,1.039,0,0,1,20.617,36.7v-2.56A1.039,1.039,0,0,1,21.659,33.1Zm0,0" fill="#6dcc6d"/>
        <path id="Trazado_875210" data-name="Trazado 875210" d="M7.771,40.056h2.56A1.039,1.039,0,0,1,11.373,41.1v2.56A1.04,1.04,0,0,1,10.331,44.7H7.771a1.04,1.04,0,0,1-1.043-1.043V41.1A1.025,1.025,0,0,1,7.771,40.056Zm0,0" fill="#acdef9"/>
        <path id="Trazado_875211" data-name="Trazado 875211" d="M14.7,40.056h2.56A1.04,1.04,0,0,1,18.306,41.1v2.56A1.04,1.04,0,0,1,17.264,44.7H14.7a1.039,1.039,0,0,1-1.042-1.043V41.1A1.039,1.039,0,0,1,14.7,40.056Zm0,0" fill="#acdef9"/>
        <path id="Trazado_875212" data-name="Trazado 875212" d="M21.659,40.056h2.56A1.039,1.039,0,0,1,25.262,41.1v2.56A1.04,1.04,0,0,1,24.22,44.7h-2.56a1.039,1.039,0,0,1-1.042-1.043V41.1A1.025,1.025,0,0,1,21.659,40.056Zm0,0" fill="#acdef9"/>
        <path id="Trazado_875213" data-name="Trazado 875213" d="M7.771,46.989h2.56a1.039,1.039,0,0,1,1.042,1.042v2.56a1.039,1.039,0,0,1-1.042,1.042H7.771a1.04,1.04,0,0,1-1.043-1.042v-2.56A1.039,1.039,0,0,1,7.771,46.989Zm0,0" fill="#acdef9"/>
        <path id="Trazado_875214" data-name="Trazado 875214" d="M14.7,46.989h2.56a1.04,1.04,0,0,1,1.043,1.042v2.56a1.039,1.039,0,0,1-1.043,1.042H14.7a1.039,1.039,0,0,1-1.042-1.042v-2.56A1.054,1.054,0,0,1,14.7,46.989Zm0,0" fill="#acdef9"/>
        <path id="Trazado_875215" data-name="Trazado 875215" d="M21.659,46.989h2.56a1.039,1.039,0,0,1,1.042,1.042v2.56a1.039,1.039,0,0,1-1.042,1.042h-2.56a1.039,1.039,0,0,1-1.042-1.042v-2.56A1.039,1.039,0,0,1,21.659,46.989Zm0,0" fill="#acdef9"/>
        <path id="Trazado_875216" data-name="Trazado 875216" d="M42.48,26.168h2.56a1.039,1.039,0,0,1,1.042,1.042v2.56a1.039,1.039,0,0,1-1.042,1.042H42.48a1.039,1.039,0,0,1-1.042-1.042V27.21A1.054,1.054,0,0,1,42.48,26.168Zm0,0" fill="#6dcc6d"/>
        <path id="Trazado_875217" data-name="Trazado 875217" d="M32.194,36.092V34.143A1.054,1.054,0,0,0,31.152,33.1h-2.56a1.054,1.054,0,0,0-1.042,1.042V36.7a1.054,1.054,0,0,0,1.042,1.042h2.243a12.019,12.019,0,0,1,1.359-1.654Zm0,0" fill="#acdef9"/>
        <path id="Trazado_875218" data-name="Trazado 875218" d="M35.5.974h-.408V.566a.566.566,0,0,0-1.133,0V.974h-.408a.566.566,0,1,0,0,1.133h.408v.408a.566.566,0,0,0,1.133,0V2.107H35.5a.566.566,0,1,0,0-1.133Zm0,0" fill="#55acd5"/>
        <path id="Trazado_875219" data-name="Trazado 875219" d="M30.359,5.438c0-.045-.023-.068-.023-.113-.023-.023-.023-.068-.046-.091s-.045-.068-.068-.091a.591.591,0,0,0-.793,0,.321.321,0,0,0-.068.091.825.825,0,0,0-.091.2.388.388,0,0,0,0,.227c0,.045.023.068.023.113.023.045.023.068.045.091s.045.068.068.091a.548.548,0,0,0,.793,0,.321.321,0,0,0,.068-.091.173.173,0,0,0,.046-.091.17.17,0,0,0,.023-.113A.853.853,0,0,0,30.359,5.438Zm0,0" fill="#ffcd29"/>
        <path id="Trazado_875220" data-name="Trazado 875220" d="M19.892,2.968a1.885,1.885,0,0,1-1.5-1.5c0-.023-.023-.023-.045-.023a.022.022,0,0,0-.023.023,1.885,1.885,0,0,1-1.5,1.5c-.023,0-.023.023-.023.046a.022.022,0,0,0,.023.023,1.885,1.885,0,0,1,1.5,1.5c0,.023.023.023.045.023a.022.022,0,0,0,.023-.023,1.885,1.885,0,0,1,1.5-1.5c.023,0,.023-.023.023-.046S19.915,2.968,19.892,2.968Zm0,0" fill="#6dcc6d"/>
        <g id="Grupo_1100326" data-name="Grupo 1100326">
          <path id="Trazado_875221" data-name="Trazado 875221" d="M5.3,15.565A1.745,1.745,0,0,1,3.557,13.82v-7a1.745,1.745,0,0,1,3.489,0v7A1.745,1.745,0,0,1,5.3,15.565Zm0-9.334a.609.609,0,0,0-.612.612V13.82a.612.612,0,0,0,1.224,0v-7A.6.6,0,0,0,5.3,6.23Zm0,0" fill="#231f20"/>
          <path id="Trazado_875222" data-name="Trazado 875222" d="M10.014,15.565A1.745,1.745,0,0,1,8.27,13.82v-7a1.745,1.745,0,0,1,3.489,0v7a1.76,1.76,0,0,1-1.745,1.744Zm0-9.334a.609.609,0,0,0-.612.612V13.82a.59.59,0,0,0,.612.589.6.6,0,0,0,.589-.589v-7a.571.571,0,0,0-.589-.589Zm0,0" fill="#231f20"/>
          <path id="Trazado_875223" data-name="Trazado 875223" d="M14.727,15.565a1.745,1.745,0,0,1-1.744-1.744v-7a1.744,1.744,0,1,1,3.489,0v7A1.775,1.775,0,0,1,14.727,15.565Zm0-9.334a.609.609,0,0,0-.612.612V13.82a.612.612,0,0,0,1.223,0v-7a.636.636,0,0,0-.612-.589Zm0,0" fill="#231f20"/>
          <path id="Trazado_875224" data-name="Trazado 875224" d="M38.085,15.565a1.745,1.745,0,0,1-1.744-1.744v-7a1.745,1.745,0,0,1,3.489,0v7a1.745,1.745,0,0,1-1.745,1.744Zm0-9.334a.609.609,0,0,0-.612.612V13.82a.59.59,0,0,0,.612.589.6.6,0,0,0,.589-.589v-7a.571.571,0,0,0-.589-.589Zm0,0" fill="#231f20"/>
          <path id="Trazado_875225" data-name="Trazado 875225" d="M42.8,15.565a1.745,1.745,0,0,1-1.745-1.744v-7a1.745,1.745,0,0,1,3.489,0v7A1.76,1.76,0,0,1,42.8,15.565Zm0-9.334a.609.609,0,0,0-.612.612V13.82a.59.59,0,0,0,.612.589.6.6,0,0,0,.589-.589v-7A.571.571,0,0,0,42.8,6.23Zm0,0" fill="#231f20"/>
          <path id="Trazado_875226" data-name="Trazado 875226" d="M47.51,15.565a1.745,1.745,0,0,1-1.744-1.744v-7a1.745,1.745,0,0,1,3.489,0v7a1.775,1.775,0,0,1-1.745,1.744Zm0-9.334a.609.609,0,0,0-.612.612V13.82a.59.59,0,0,0,.612.589.6.6,0,0,0,.589-.589v-7a.6.6,0,0,0-.589-.589Zm0,0" fill="#231f20"/>
          <path id="Trazado_875227" data-name="Trazado 875227" d="M50.977,22.181H1.948A1.948,1.948,0,0,1,0,20.232V11.713A1.948,1.948,0,0,1,1.948,9.765H4.123a.561.561,0,0,1,.566.566V13.82a.612.612,0,0,0,1.224,0V10.331a.561.561,0,0,1,.566-.566H8.836a.561.561,0,0,1,.566.566V13.82a.6.6,0,0,0,1.2.023V10.331a.561.561,0,0,1,.566-.566h2.356a.561.561,0,0,1,.566.566V13.82a.612.612,0,0,0,1.224,0V10.331a.561.561,0,0,1,.566-.566H36.907a.561.561,0,0,1,.566.566V13.82a.6.6,0,1,0,1.2.023V10.331a.561.561,0,0,1,.566-.566H41.6a.561.561,0,0,1,.566.566V13.82a.6.6,0,0,0,1.2.023V10.331a.561.561,0,0,1,.566-.566h2.356a.561.561,0,0,1,.566.566V13.82a.6.6,0,0,0,1.2.023V10.331a.561.561,0,0,1,.566-.566h2.311a1.948,1.948,0,0,1,1.948,1.948v8.519a1.869,1.869,0,0,1-1.9,1.948ZM1.948,10.9a.812.812,0,0,0-.816.816v8.519a.812.812,0,0,0,.816.816H50.977a.812.812,0,0,0,.816-.816V11.713a.812.812,0,0,0-.816-.816H49.232V13.82a1.745,1.745,0,1,1-3.489.045V10.9H44.52V13.82a1.745,1.745,0,1,1-3.489.045V10.9H39.807V13.82a1.745,1.745,0,1,1-3.489.045V10.9H16.448V13.82a1.745,1.745,0,0,1-3.489,0V10.9h-1.2V13.82a1.745,1.745,0,1,1-3.489.045V10.9H7.046V13.82a1.745,1.745,0,0,1-3.489,0V10.9Zm0,0" fill="#231f20"/>
          <path id="Trazado_875228" data-name="Trazado 875228" d="M32.693,16.539H20.255a.566.566,0,0,1,0-1.133H32.693a.566.566,0,0,1,0,1.133Zm0,0" fill="#231f20"/>
          <path id="Trazado_875229" data-name="Trazado 875229" d="M24.22,31.356h-2.56a1.615,1.615,0,0,1-1.609-1.609v-2.56a1.615,1.615,0,0,1,1.609-1.609h2.56a1.615,1.615,0,0,1,1.609,1.609v2.56A1.63,1.63,0,0,1,24.22,31.356Zm-2.56-4.622a.479.479,0,0,0-.476.476v2.56a.479.479,0,0,0,.476.476h2.56a.479.479,0,0,0,.476-.476V27.21a.479.479,0,0,0-.476-.476Zm0,0" fill="#231f20"/>
          <path id="Trazado_875230" data-name="Trazado 875230" d="M31.152,31.356h-2.56a1.615,1.615,0,0,1-1.609-1.609v-2.56a1.615,1.615,0,0,1,1.609-1.609h2.56a1.615,1.615,0,0,1,1.609,1.609v2.56A1.615,1.615,0,0,1,31.152,31.356Zm-2.56-4.622a.479.479,0,0,0-.476.476v2.56a.479.479,0,0,0,.476.476h2.56a.479.479,0,0,0,.476-.476V27.21a.479.479,0,0,0-.476-.476Zm0,0" fill="#231f20"/>
          <path id="Trazado_875231" data-name="Trazado 875231" d="M38.108,31.356h-2.56a1.615,1.615,0,0,1-1.609-1.609v-2.56a1.615,1.615,0,0,1,1.609-1.609h2.56a1.615,1.615,0,0,1,1.609,1.609v2.56A1.615,1.615,0,0,1,38.108,31.356Zm-2.56-4.622a.479.479,0,0,0-.476.476v2.56a.478.478,0,0,0,.476.476h2.56a.479.479,0,0,0,.476-.476V27.21a.479.479,0,0,0-.476-.476Zm0,0" fill="#231f20"/>
          <path id="Trazado_875232" data-name="Trazado 875232" d="M10.331,38.312H7.771A1.615,1.615,0,0,1,6.162,36.7v-2.56a1.615,1.615,0,0,1,1.609-1.609h2.56a1.615,1.615,0,0,1,1.609,1.609V36.7A1.629,1.629,0,0,1,10.331,38.312Zm-2.56-4.645a.479.479,0,0,0-.476.476V36.7a.479.479,0,0,0,.476.476h2.56a.479.479,0,0,0,.476-.476v-2.56a.478.478,0,0,0-.476-.476Zm0,0" fill="#231f20"/>
          <path id="Trazado_875233" data-name="Trazado 875233" d="M17.264,38.312H14.7A1.615,1.615,0,0,1,13.1,36.7v-2.56A1.615,1.615,0,0,1,14.7,32.534h2.56a1.615,1.615,0,0,1,1.609,1.609V36.7A1.615,1.615,0,0,1,17.264,38.312ZM14.7,33.667a.479.479,0,0,0-.476.476V36.7a.478.478,0,0,0,.476.476h2.56a.479.479,0,0,0,.476-.476v-2.56a.479.479,0,0,0-.476-.476Zm0,0" fill="#231f20"/>
          <path id="Trazado_875234" data-name="Trazado 875234" d="M24.22,38.312h-2.56A1.615,1.615,0,0,1,20.051,36.7v-2.56a1.615,1.615,0,0,1,1.609-1.609h2.56a1.615,1.615,0,0,1,1.609,1.609V36.7A1.629,1.629,0,0,1,24.22,38.312Zm-2.56-4.645a.479.479,0,0,0-.476.476V36.7a.479.479,0,0,0,.476.476h2.56A.479.479,0,0,0,24.7,36.7v-2.56a.479.479,0,0,0-.476-.476Zm0,0" fill="#231f20"/>
          <path id="Trazado_875235" data-name="Trazado 875235" d="M10.331,45.244H7.771a1.615,1.615,0,0,1-1.609-1.609v-2.56a1.615,1.615,0,0,1,1.609-1.609h2.56a1.615,1.615,0,0,1,1.609,1.609v2.56A1.614,1.614,0,0,1,10.331,45.244Zm-2.56-4.622A.478.478,0,0,0,7.3,41.1v2.56a.479.479,0,0,0,.476.476h2.56a.479.479,0,0,0,.476-.476V41.1a.478.478,0,0,0-.476-.476Zm0,0" fill="#231f20"/>
          <path id="Trazado_875236" data-name="Trazado 875236" d="M17.264,45.244H14.7A1.615,1.615,0,0,1,13.1,43.636v-2.56A1.615,1.615,0,0,1,14.7,39.467h2.56a1.615,1.615,0,0,1,1.609,1.609v2.56A1.6,1.6,0,0,1,17.264,45.244ZM14.7,40.623a.478.478,0,0,0-.476.476v2.56a.478.478,0,0,0,.476.476h2.56a.479.479,0,0,0,.476-.476V41.1a.479.479,0,0,0-.476-.476Zm0,0" fill="#231f20"/>
          <path id="Trazado_875237" data-name="Trazado 875237" d="M24.22,45.244h-2.56a1.615,1.615,0,0,1-1.609-1.609v-2.56a1.615,1.615,0,0,1,1.609-1.609h2.56a1.615,1.615,0,0,1,1.609,1.609v2.56A1.614,1.614,0,0,1,24.22,45.244Zm-2.56-4.622a.478.478,0,0,0-.476.476v2.56a.479.479,0,0,0,.476.476h2.56a.479.479,0,0,0,.476-.476V41.1a.479.479,0,0,0-.476-.476Zm0,0" fill="#231f20"/>
          <path id="Trazado_875238" data-name="Trazado 875238" d="M10.331,52.2H7.771a1.615,1.615,0,0,1-1.609-1.609v-2.56a1.615,1.615,0,0,1,1.609-1.609h2.56a1.615,1.615,0,0,1,1.609,1.609v2.56A1.63,1.63,0,0,1,10.331,52.2Zm-2.56-4.645a.479.479,0,0,0-.476.476v2.56a.479.479,0,0,0,.476.476h2.56a.479.479,0,0,0,.476-.476v-2.56a.478.478,0,0,0-.476-.476Zm0,0" fill="#231f20"/>
          <path id="Trazado_875239" data-name="Trazado 875239" d="M17.264,52.2H14.7A1.615,1.615,0,0,1,13.1,50.592v-2.56A1.615,1.615,0,0,1,14.7,46.423h2.56a1.615,1.615,0,0,1,1.609,1.609v2.56A1.615,1.615,0,0,1,17.264,52.2ZM14.7,47.556a.479.479,0,0,0-.476.476v2.56a.478.478,0,0,0,.476.476h2.56a.479.479,0,0,0,.476-.476v-2.56a.479.479,0,0,0-.476-.476Zm0,0" fill="#231f20"/>
          <path id="Trazado_875240" data-name="Trazado 875240" d="M24.22,52.2h-2.56a1.615,1.615,0,0,1-1.609-1.609v-2.56a1.615,1.615,0,0,1,1.609-1.609h2.56a1.615,1.615,0,0,1,1.609,1.609v2.56A1.63,1.63,0,0,1,24.22,52.2Zm-2.56-4.645a.479.479,0,0,0-.476.476v2.56a.479.479,0,0,0,.476.476h2.56a.479.479,0,0,0,.476-.476v-2.56a.479.479,0,0,0-.476-.476Zm0,0" fill="#231f20"/>
          <path id="Trazado_875241" data-name="Trazado 875241" d="M45.041,31.356h-2.56a1.615,1.615,0,0,1-1.609-1.609v-2.56a1.615,1.615,0,0,1,1.609-1.609h2.56a1.615,1.615,0,0,1,1.609,1.609v2.56A1.615,1.615,0,0,1,45.041,31.356Zm-2.56-4.622A.479.479,0,0,0,42,27.21v2.56a.479.479,0,0,0,.476.476h2.56a.479.479,0,0,0,.476-.476V27.21a.479.479,0,0,0-.476-.476Zm0,0" fill="#231f20"/>
          <path id="Trazado_875242" data-name="Trazado 875242" d="M30.835,38.312H28.592A1.615,1.615,0,0,1,26.983,36.7v-2.56a1.615,1.615,0,0,1,1.609-1.609h2.56a1.615,1.615,0,0,1,1.609,1.609v1.949a.546.546,0,0,1-.158.385,12.359,12.359,0,0,0-1.292,1.586.591.591,0,0,1-.476.249Zm-2.243-4.645a.479.479,0,0,0-.476.476V36.7a.479.479,0,0,0,.476.476h1.949a15.2,15.2,0,0,1,1.087-1.314V34.143a.479.479,0,0,0-.476-.476Zm3.6,2.424" fill="#231f20"/>
          <path id="Trazado_875243" data-name="Trazado 875243" d="M41.189,58H3.1a1.948,1.948,0,0,1-1.948-1.948V21.614a.561.561,0,0,1,.566-.566h49.5a.561.561,0,0,1,.566.566V37.27a.561.561,0,0,1-.566.566.592.592,0,0,1-.453-.227,12,12,0,1,0-9.561,19.235.561.561,0,0,1,.566.566.6.6,0,0,1-.589.589ZM2.288,22.181V56.052a.812.812,0,0,0,.816.816H35.865A13.146,13.146,0,1,1,50.682,35.729V22.181Zm0,0" fill="#231f20"/>
          <path id="Trazado_875244" data-name="Trazado 875244" d="M41.189,44.135a.561.561,0,0,1-.566-.566v-6.23a.566.566,0,0,1,1.133,0v6.23A.561.561,0,0,1,41.189,44.135Zm0,0" fill="#231f20"/>
          <path id="Trazado_875245" data-name="Trazado 875245" d="M36.839,49.119a.563.563,0,0,1-.362-1l3.512-2.945a.563.563,0,1,1,.725.861L37.2,48.983A.555.555,0,0,1,36.839,49.119Zm0,0" fill="#231f20"/>
          <path id="Trazado_875246" data-name="Trazado 875246" d="M36.182,30.246a.531.531,0,0,1-.408-.181l-.952-1.042a.562.562,0,1,1,.839-.747l.566.612,1.767-1.767a.547.547,0,0,1,.793.023.59.59,0,0,1,0,.793L36.612,30.11a.964.964,0,0,1-.431.136Zm0,0" fill="#231f20"/>
          <path id="Trazado_875247" data-name="Trazado 875247" d="M43.205,30.246a.531.531,0,0,1-.408-.181l-.952-1.042a.562.562,0,1,1,.839-.747l.566.612,1.767-1.767a.547.547,0,0,1,.793.023.59.59,0,0,1,0,.793L43.636,30.11a.964.964,0,0,1-.431.136Zm0,0" fill="#231f20"/>
          <path id="Trazado_875248" data-name="Trazado 875248" d="M8.541,37.043a.531.531,0,0,1-.408-.181l-.952-1.042a.562.562,0,0,1,.839-.747l.566.612,1.767-1.767a.561.561,0,0,1,.816.77l-.023.023L8.972,36.885a.774.774,0,0,1-.431.158Zm0,0" fill="#231f20"/>
          <path id="Trazado_875249" data-name="Trazado 875249" d="M15.338,37.043a.531.531,0,0,1-.408-.181l-.952-1.042a.562.562,0,1,1,.839-.747l.566.612,1.767-1.767a.561.561,0,0,1,.816.77l-.023.023-2.175,2.175a.774.774,0,0,1-.431.158Zm0,0" fill="#231f20"/>
          <path id="Trazado_875250" data-name="Trazado 875250" d="M22.361,37.043a.531.531,0,0,1-.408-.181L21,35.819a.562.562,0,1,1,.839-.747l.566.612,1.767-1.767a.561.561,0,0,1,.816.77l-.023.023-2.175,2.175a.774.774,0,0,1-.431.158Zm0,0" fill="#231f20"/>
          <path id="Trazado_875251" data-name="Trazado 875251" d="M41.189,58A13.141,13.141,0,1,1,54.33,44.859,13.15,13.15,0,0,1,41.189,58Zm0-25.148A12.008,12.008,0,1,0,53.2,44.859,12,12,0,0,0,41.189,32.852Zm0,0" fill="#231f20"/>
          <path id="Trazado_875252" data-name="Trazado 875252" d="M41.189,55.168A10.309,10.309,0,1,1,51.5,44.859,10.317,10.317,0,0,1,41.189,55.168Zm0-19.484a9.176,9.176,0,1,0,9.176,9.176A9.166,9.166,0,0,0,41.189,35.684Zm0,0" fill="#231f20"/>
          <path id="Trazado_875253" data-name="Trazado 875253" d="M41.189,46.559a1.7,1.7,0,1,1,1.7-1.7A1.711,1.711,0,0,1,41.189,46.559Zm0-2.266a.566.566,0,1,0,.566.566A.561.561,0,0,0,41.189,44.293Zm0,0" fill="#231f20"/>
        </g>
      </g>
    </g>
  </g>
</svg>
