<svg xmlns="http://www.w3.org/2000/svg" xmlns:xlink="http://www.w3.org/1999/xlink" width="78.501" height="67.824" viewBox="0 0 78.501 67.824">
  <defs>
    <clipPath id="clip-path">
      <rect id="Rectángulo_401730" data-name="Rectángulo 401730" width="58" height="58" transform="translate(420 7733)" fill="#fff" stroke="#707070" stroke-width="1"/>
    </clipPath>
  </defs>
  <g id="Grupo_1100313" data-name="Grupo 1100313" transform="translate(-410 -7733)">
    <path id="_12068" data-name="12068" d="M72.033,71.913c-8.038-1.11-16.53-.839-23.844,2.675C38.045,79.46,31.382,90.507,31.127,101.757s5.606,22.305,14.66,28.988,21,9.051,32.068,7.045c11.165-2.023,21.645-8.583,27.469-18.322,3.735-6.245,5.48-13.956,3.417-20.934a28.6,28.6,0,0,0-6.787-11.156A50.145,50.145,0,0,0,72.033,71.913Z" transform="translate(378.881 7662.343)" fill="#7d6eb2"/>
    <g id="Enmascarar_grupo_1098745" data-name="Enmascarar grupo 1098745" clip-path="url(#clip-path)">
      <g id="mapa" transform="translate(417.409 7730.41)">
        <path id="Trazado_875087" data-name="Trazado 875087" d="M17.523,54.713,3.455,59.727V17.77l14.068-5.014Z" fill="#e6f2ff"/>
        <path id="Trazado_875088" data-name="Trazado 875088" d="M45.659,54.713,31.591,59.727V17.77l14.068-5.014Z" fill="#e6f2ff"/>
        <path id="Trazado_875089" data-name="Trazado 875089" d="M45.659,12.756,59.727,17.77V59.727L45.659,54.713Z" fill="#bfe1ff"/>
        <path id="Trazado_875090" data-name="Trazado 875090" d="M17.523,12.756,31.591,17.77V59.727L17.523,54.713Z" fill="#bfe1ff"/>
        <path id="Trazado_875091" data-name="Trazado 875091" d="M45.659,12.755v9.433a1.3,1.3,0,0,1-.227.094l-2.532.78a3.465,3.465,0,0,0-1.624,1.081L38.862,27.02a1.534,1.534,0,0,0-.3,1.412l.148.523a1.53,1.53,0,0,1-.627,1.708L36.359,31.8a1.53,1.53,0,0,1-1.708-.01l-2.616-1.777a1.39,1.39,0,0,0-.444-.2V17.77Z" fill="#a5e23b"/>
        <path id="Trazado_875092" data-name="Trazado 875092" d="M31.591,17.77V29.814a1.373,1.373,0,0,0-.528-.059l-2.162.158a1.534,1.534,0,0,0-1.4,1.821l.321,1.634a1.543,1.543,0,0,1-.306,1.254l-1.132,1.412a1.53,1.53,0,0,1-2.394.01l-2.323-2.868a1.538,1.538,0,0,1-.257-1.466l.563-1.649a3.443,3.443,0,0,0-.869-3.608l-2.922-2.819a1.53,1.53,0,0,0-.661-.375v-10.5Z" fill="#79ce00"/>
        <path id="Trazado_875093" data-name="Trazado 875093" d="M17.523,12.755v10.5a1.53,1.53,0,0,0-.869.015l-2.522.8a1.538,1.538,0,0,1-1.974-1.185l-.039-.232a1.536,1.536,0,0,0-1.51-1.259,1.537,1.537,0,0,1-1.5-1.871l.928-4.1Z" fill="#a5e23b"/>
        <path id="Trazado_875094" data-name="Trazado 875094" d="M50.771,18.644l-4.914,3.431a1.135,1.135,0,0,1-.2.114V12.755l5.469,1.95.291,2.5a1.523,1.523,0,0,1-.649,1.436Z" fill="#79ce00"/>
        <path id="Trazado_875095" data-name="Trazado 875095" d="M54.4,47.051l-.355.735a1.481,1.481,0,0,1-.879.765l-.879.281a2.239,2.239,0,0,0-1.545,2.132v.582a.987.987,0,0,0,.35.755l1.752,1.471a2.221,2.221,0,0,1,.78,1.392l.36,2.512-8.322-2.967V38.21a4.772,4.772,0,0,1,1.022.607l7.073,5.489A2.236,2.236,0,0,1,54.4,47.051Z" fill="#79ce00"/>
        <path id="Trazado_875096" data-name="Trazado 875096" d="M45.659,38.21v16.5l-9.265,3.3,2.28-5.069A.987.987,0,0,0,38.6,52l-.375-.578a2.492,2.492,0,0,1,.178-2.976l1.752-2.093a2.239,2.239,0,0,0,.425-2.1l-.326-1.037a1.481,1.481,0,0,0-.819-.918l-1.747-.765a1.97,1.97,0,0,1-1.175-1.974l.114-1.293a1.481,1.481,0,0,1,1.693-1.338l6.066.913a4.774,4.774,0,0,1,1.274.37Z" fill="#a5e23b"/>
        <path id="Trazado_875097" data-name="Trazado 875097" d="M3.455,34.113,6.84,36.3a2.471,2.471,0,0,1,.912,1.061l.543,1.2a1.857,1.857,0,0,0,1.322,1.058l1.017.207a2.468,2.468,0,0,1,1.69,1.267l.361.685a1.857,1.857,0,0,1-.659,2.442l-1.373.858a1.858,1.858,0,0,0-.863,1.379l-.265,2.5a1.858,1.858,0,0,1-.775,1.321l-.691.488a.987.987,0,0,0-.252,1.353l1.413,2.123a1.974,1.974,0,0,1,.188,1.834l-.721,1.785L3.455,59.727Z" fill="#a5e23b"/>
        <path id="Trazado_875098" data-name="Trazado 875098" d="M31.591,3.455a8.2,8.2,0,0,0-8.2,8.2c0,7.761,8.2,15.168,8.2,15.168s8.2-7.407,8.2-15.168A8.2,8.2,0,0,0,31.591,3.455Z" fill="#ff5715"/>
        <circle id="Elipse_11625" data-name="Elipse 11625" cx="3.537" cy="3.537" r="3.537" transform="translate(28.054 8.122)" fill="#e6f2ff"/>
        <g id="Grupo_1100321" data-name="Grupo 1100321">
          <path id="Trazado_875099" data-name="Trazado 875099" d="M59.727,29.884a.864.864,0,0,0-.864.864v2.221a.864.864,0,0,0,1.728,0V30.748a.864.864,0,0,0-.864-.864Z"/>
          <path id="Trazado_875100" data-name="Trazado 875100" d="M60.016,16.956,45.949,11.942a.865.865,0,0,0-.579,0l-4.88,1.739a12.819,12.819,0,0,0,.169-2.024,9.067,9.067,0,0,0-18.134,0,12.818,12.818,0,0,0,.169,2.024l-4.88-1.739a.865.865,0,0,0-.579,0L3.166,16.956a.863.863,0,0,0-.574.813v28.1a.864.864,0,1,0,1.728,0V35.7l2.053,1.325a1.608,1.608,0,0,1,.592.691l.543,1.2a2.727,2.727,0,0,0,1.938,1.55l1.017.207a1.6,1.6,0,0,1,1.1.823l.361.686a1,1,0,0,1-.352,1.306l-1.373.858a2.7,2.7,0,0,0-1.262,2.019l-.269,2.5a.994.994,0,0,1-.415.706l-.691.489A1.841,1.841,0,0,0,7.087,52.6L8.5,54.723a1.11,1.11,0,0,1,.105,1.032L8.03,57.18,4.319,58.5V50.5a.864.864,0,0,0-1.728,0v9.23a.863.863,0,0,0,1.154.813l13.778-4.91L31.3,60.54a.859.859,0,0,0,.579,0l13.778-4.91,13.778,4.91a.863.863,0,0,0,1.154-.813v-22.2a.864.864,0,0,0-1.728,0V58.5l-4.1-1.462-.289-2A3.1,3.1,0,0,0,53.4,53.111l-1.753-1.47a.122.122,0,0,1-.044-.095v-.583a1.37,1.37,0,0,1,.95-1.307l.878-.284a2.358,2.358,0,0,0,1.388-1.208l.358-.74a3.115,3.115,0,0,0-.889-3.8l-7.077-5.487a5.748,5.748,0,0,0-.684-.452V22.66l4.743-3.307a2.4,2.4,0,0,0,1.012-2.246l-.131-1.122,6.717,2.394v7.6a.864.864,0,0,0,1.728,0V17.77a.863.863,0,0,0-.574-.813ZM44.8,13.981v7.59l-2.147.664a4.314,4.314,0,0,0-2.036,1.352L38.2,26.463a2.4,2.4,0,0,0-.466,2.208l.152.523a.669.669,0,0,1-.274.747l-1.728,1.142a.67.67,0,0,1-.747,0L32.521,29.3c-.019-.013-.041-.022-.062-.035V27.2c1.219-1.163,5.869-5.874,7.571-11.521ZM9.95,19.716l.82-3.636,5.889-2.1v8.4a2.553,2.553,0,0,0-.268.065l-2.521.8a.67.67,0,0,1-.863-.519l-.042-.23a2.4,2.4,0,0,0-2.359-1.965.671.671,0,0,1-.655-.819Zm8.437,5.315,2.119,2.042a2.6,2.6,0,0,1,.653,2.707l-.567,1.651A2.385,2.385,0,0,0,21,33.72l2.325,2.868a2.388,2.388,0,0,0,1.863.889h.01a2.389,2.389,0,0,0,1.866-.9l1.129-1.415a2.4,2.4,0,0,0,.48-1.956l-.319-1.633a.671.671,0,0,1,.611-.8l1.765-.126V58.5l-12.34-4.4Zm13.2-20.712a7.348,7.348,0,0,1,7.339,7.339c0,6.1-5.513,12.136-7.339,13.966-1.826-1.83-7.339-7.862-7.339-13.966a7.348,7.348,0,0,1,7.339-7.339ZM30.727,27.2v1.713l-1.888.135A2.4,2.4,0,0,0,26.655,31.9l.318,1.633a.671.671,0,0,1-.134.547L25.71,35.5a.662.662,0,0,1-.522.253.7.7,0,0,1-.524-.247l-2.325-2.868a.668.668,0,0,1-.114-.642l.567-1.65a4.335,4.335,0,0,0-1.086-4.513l-2.924-2.818a2.419,2.419,0,0,0-.395-.3V13.981l4.769,1.7C24.858,21.324,29.508,26.038,30.727,27.2ZM9.938,53.765,8.524,51.643a.123.123,0,0,1,.032-.169l.691-.488a2.724,2.724,0,0,0,1.135-1.935l.266-2.5a.987.987,0,0,1,.462-.737l1.373-.858a2.732,2.732,0,0,0,.966-3.578l-.361-.685a3.323,3.323,0,0,0-2.281-1.71l-1.017-.207a1,1,0,0,1-.705-.566L8.539,37a3.33,3.33,0,0,0-1.232-1.431l-2.989-1.93V18.379l4.525-1.613-.579,2.57a2.4,2.4,0,0,0,2.34,2.926.672.672,0,0,1,.66.551l.042.23A2.4,2.4,0,0,0,14.392,24.9l2.268-.718V54.1l-6.453,2.3h0a2.836,2.836,0,0,0-.268-2.637Zm29.382-2.24-.376-.573A1.629,1.629,0,0,1,39.06,49l1.755-2.089a3.088,3.088,0,0,0,.585-2.92l-.324-1.037a2.345,2.345,0,0,0-1.3-1.449l-1.745-.764a1.111,1.111,0,0,1-.661-1.112l.111-1.292a.618.618,0,0,1,.706-.558l6.067.91a4.09,4.09,0,0,1,.539.121V54.1l-6.787,2.418L39.457,53.3a1.844,1.844,0,0,0-.138-1.774Zm13.9-6.536a1.379,1.379,0,0,1,.395,1.684l-.357.74a.622.622,0,0,1-.365.318l-.878.284a3.092,3.092,0,0,0-2.146,2.95v.583a1.847,1.847,0,0,0,.661,1.418l1.753,1.47a1.372,1.372,0,0,1,.476.855l.158,1.093-6.4-2.282V39.793Zm-8.711-8.006-6.067-.91a2.343,2.343,0,0,0-2.684,2.118l-.111,1.292a2.838,2.838,0,0,0,1.69,2.842l1.745.766a.617.617,0,0,1,.342.382l.324,1.037a1.366,1.366,0,0,1-.259,1.293L37.737,47.89A3.346,3.346,0,0,0,37.5,51.9l.375.572a.122.122,0,0,1,.009.118l-2.13,4.735-3.3,1.176V31.349l1.709,1.159a2.389,2.389,0,0,0,2.669.017l1.728-1.142a2.389,2.389,0,0,0,.982-2.669l-.152-.523a.669.669,0,0,1,.13-.618L41.933,24.7a2.584,2.584,0,0,1,1.221-.811l1.64-.506V37.045C44.7,37.026,44.608,37,44.513,36.984Zm6.049-19.676a.671.671,0,0,1-.283.629l-3.755,2.616V13.981l3.809,1.357Z"/>
          <path id="Trazado_875101" data-name="Trazado 875101" d="M35.992,11.659a4.4,4.4,0,1,0-4.4,4.4,4.4,4.4,0,0,0,4.4-4.4Zm-7.073,0a2.673,2.673,0,1,1,2.673,2.672,2.673,2.673,0,0,1-2.673-2.672Z"/>
        </g>
      </g>
    </g>
  </g>
</svg>
