<svg xmlns="http://www.w3.org/2000/svg" xmlns:xlink="http://www.w3.org/1999/xlink" width="78.501" height="67.824" viewBox="0 0 78.501 67.824">
  <defs>
    <clipPath id="clip-path">
      <rect id="Rectángulo_401730" data-name="Rectángulo 401730" width="58" height="58" transform="translate(420 7733)" fill="#fff" stroke="#707070" stroke-width="1"/>
    </clipPath>
  </defs>
  <g id="Grupo_1100318" data-name="Grupo 1100318" transform="translate(-410 -7733)">
    <path id="_12068" data-name="12068" d="M72.033,71.913c-8.038-1.11-16.53-.839-23.844,2.675C38.045,79.46,31.382,90.507,31.127,101.757s5.606,22.305,14.66,28.988,21,9.051,32.068,7.045c11.165-2.023,21.645-8.583,27.469-18.322,3.735-6.245,5.48-13.956,3.417-20.934a28.6,28.6,0,0,0-6.787-11.156A50.145,50.145,0,0,0,72.033,71.913Z" transform="translate(378.881 7662.343)" fill="#7d6eb2"/>
    <g id="Enmascarar_grupo_1098750" data-name="Enmascarar grupo 1098750" clip-path="url(#clip-path)">
      <g id="subasta" transform="translate(419.064 7732.05)">
        <path id="Trazado_875170" data-name="Trazado 875170" d="M5.847,50.516V20.581a3.742,3.742,0,0,1,3.742-3.742H50.75a3.742,3.742,0,0,1,3.742,3.742V50.516Z" fill="#939393"/>
        <path id="Trazado_875171" data-name="Trazado 875171" d="M9.355,50.516V22.452a1.871,1.871,0,0,1,1.871-1.871H48.645a1.871,1.871,0,0,1,1.871,1.871V50.516Z" fill="#e2e7f6"/>
        <circle id="Elipse_11627" data-name="Elipse 11627" cx="8.419" cy="8.419" r="8.419" transform="translate(13.097 29.935)" fill="#ffd947"/>
        <path id="Trazado_875172" data-name="Trazado 875172" d="M27.121,32.087A8.419,8.419,0,0,0,14.53,43.055,20.663,20.663,0,0,0,27.121,32.087Z" fill="#f6e293"/>
        <path id="Trazado_875173" data-name="Trazado 875173" d="M3.742,50.516H56.129A1.871,1.871,0,0,1,58,52.387v1.871A3.742,3.742,0,0,1,54.258,58H5.613a3.742,3.742,0,0,1-3.742-3.742V52.387a1.871,1.871,0,0,1,1.871-1.871Z" fill="#686868"/>
        <path id="Trazado_875174" data-name="Trazado 875174" d="M21.516,50.516l3.742,3.742h9.355l3.742-3.742" fill="#939393"/>
        <path id="Trazado_875175" data-name="Trazado 875175" d="M27.6,21.984l12.79,12.79a2.646,2.646,0,0,0,3.742-3.742l-12.79-12.79" fill="#aee6e6"/>
        <path id="Trazado_875176" data-name="Trazado 875176" d="M22.452,37.419V35.548a.935.935,0,0,1,.935.935h1.871a2.806,2.806,0,0,0-2.806-2.806v-.935H20.581v.935a2.806,2.806,0,1,0,0,5.613v1.871a.935.935,0,0,1-.935-.935H17.774a2.806,2.806,0,0,0,2.806,2.806v.935h1.871v-.935a2.806,2.806,0,1,0,0-5.613Zm-2.806-.935a.935.935,0,0,1,.935-.935v1.871A.935.935,0,0,1,19.645,36.484Zm2.806,4.677V39.29a.935.935,0,1,1,0,1.871Z" fill="#f9d266"/>
        <path id="Trazado_875177" data-name="Trazado 875177" d="M32.742,43.032H47.71v3.742H32.742Z" fill="#4c506e"/>
        <path id="Trazado_875178" data-name="Trazado 875178" d="M34.613,43.032V41.161a1.871,1.871,0,0,1,1.871-1.871h7.484a1.871,1.871,0,0,1,1.871,1.871v1.871" fill="#787faa"/>
        <path id="Trazado_875179" data-name="Trazado 875179" d="M18.366,7.69H30.271v14.55H18.366Z" transform="translate(-3.459 21.583) rotate(-45)" fill="#7cd8d8"/>
        <path id="Trazado_875180" data-name="Trazado 875180" d="M25.839,2.452l11,11a1.984,1.984,0,0,1-2.806,2.806l-11-11a1.984,1.984,0,0,1,2.806-2.806Z" fill="#7cd8d8"/>
        <path id="Trazado_875181" data-name="Trazado 875181" d="M14.613,13.678l11,11a1.984,1.984,0,0,1-2.806,2.806l-11-11a1.984,1.984,0,0,1,2.806-2.806Z" fill="#7cd8d8"/>
        <path id="Trazado_875182" data-name="Trazado 875182" d="M22.452,33.677v-.935H20.581v.935a2.806,2.806,0,1,0,0,5.613v.726a20.632,20.632,0,0,0,2.776-2.432,2.791,2.791,0,0,0-.9-.165V35.548a.935.935,0,0,1,.935.935h.952c.256-.311.5-.631.74-.956a2.806,2.806,0,0,0-2.628-1.85Zm-1.871,3.742a.935.935,0,1,1,0-1.871Z" fill="#fce797"/>
        <path id="Trazado_875183" data-name="Trazado 875183" d="M19.645,40.226H17.774a2.764,2.764,0,0,0,.351,1.33c.55-.293,1.084-.612,1.6-.951a.92.92,0,0,1-.083-.379Z" fill="#fce797"/>
        <path id="Trazado_875184" data-name="Trazado 875184" d="M32.742,43.032v3.742h6.864A14.547,14.547,0,0,0,42.6,43.032Z" fill="#787faa"/>
        <path id="Trazado_875185" data-name="Trazado 875185" d="M44.022,39.3c-.019,0-.036-.006-.054-.006H36.484a1.871,1.871,0,0,0-1.871,1.871v1.871H42.6A14.438,14.438,0,0,0,44.022,39.3Z" fill="#858bb5"/>
        <path id="Trazado_875186" data-name="Trazado 875186" d="M33.31,9.923,25.839,2.452a1.984,1.984,0,0,0-2.806,2.806l7.892,7.892A26.811,26.811,0,0,0,33.31,9.923Z" fill="#aee6e6"/>
        <path id="Trazado_875187" data-name="Trazado 875187" d="M14.613,13.678a1.984,1.984,0,1,0-2.806,2.806l5.2,5.2a26.522,26.522,0,0,0,4.21-1.4Z" fill="#aee6e6"/>
        <path id="Trazado_875188" data-name="Trazado 875188" d="M30.925,13.15,23.387,5.613l-8.419,8.419,6.252,6.252a26.81,26.81,0,0,0,9.706-7.134Z" fill="#aee6e6"/>
        <path id="Trazado_875189" data-name="Trazado 875189" d="M56.129,49.581h-.935v-29A4.682,4.682,0,0,0,50.516,15.9H38.152a2.885,2.885,0,0,0-.655-3.114l-11-11a2.994,2.994,0,0,0-4.129,0,2.9,2.9,0,0,0-.281,3.792l-7.156,7.159a2.994,2.994,0,0,0-3.789.275,2.845,2.845,0,0,0-.724,2.887H9.355a4.682,4.682,0,0,0-4.677,4.677v29H3.742A2.806,2.806,0,0,0,.935,52.387v1.871a4.677,4.677,0,0,0,4.677,4.677H54.258a4.677,4.677,0,0,0,4.677-4.677V52.387a2.806,2.806,0,0,0-2.806-2.806Zm-2.806-29v29H51.452V22.452a2.806,2.806,0,0,0-2.806-2.806H34.065l-1.4-1.4.468-.468H50.516A2.806,2.806,0,0,1,53.323,20.581Zm-43.032,29V22.452a.935.935,0,0,1,.935-.935h4.289l6.629,6.628a2.914,2.914,0,0,0,4.407-3.792L27.6,23.307,39.724,35.434a3.581,3.581,0,0,0,5.065-5.065l-8.853-8.853H48.645a.935.935,0,0,1,.935.935V49.581ZM36.1,51.452l-1.871,1.871H25.645l-1.871-1.871ZM32.354,15.9l-7.1,7.1-8.968-8.967,7.1-7.1Zm-1.015,3.661L43.466,31.692a1.711,1.711,0,1,1-2.419,2.419L28.92,21.984ZM23.694,3.113a1.049,1.049,0,0,1,1.483,0l11,11A1.049,1.049,0,0,1,34.692,15.6l-11-11a1.051,1.051,0,0,1,0-1.484ZM12.468,14.339a1.049,1.049,0,0,1,1.483,0l11,11a1.049,1.049,0,0,1-1.484,1.484l-11-11a1.051,1.051,0,0,1,0-1.484Zm-5.92,6.242a2.806,2.806,0,0,1,2.806-2.806h2.418l1.871,1.871H11.226a2.806,2.806,0,0,0-2.806,2.806V49.581H6.548ZM57.065,54.258a2.806,2.806,0,0,1-2.806,2.806H5.613a2.806,2.806,0,0,1-2.806-2.806V52.387a.935.935,0,0,1,.935-.935H21.128L24.6,54.92a.935.935,0,0,0,.662.273h9.355a.935.935,0,0,0,.661-.273l3.469-3.469H56.129a.935.935,0,0,1,.935.935Z"/>
        <path id="Trazado_875190" data-name="Trazado 875190" d="M21.516,29a9.355,9.355,0,1,0,9.355,9.355A9.355,9.355,0,0,0,21.516,29Zm0,16.839A7.484,7.484,0,1,1,29,38.355a7.484,7.484,0,0,1-7.484,7.484Z"/>
        <path id="Trazado_875191" data-name="Trazado 875191" d="M22.452,37.419V35.548a.935.935,0,0,1,.935.935h1.871a2.806,2.806,0,0,0-2.806-2.806v-.935H20.581v.935a2.806,2.806,0,1,0,0,5.613v1.871a.935.935,0,0,1-.935-.935H17.774a2.806,2.806,0,0,0,2.806,2.806v.935h1.871v-.935a2.806,2.806,0,1,0,0-5.613Zm-2.806-.935a.935.935,0,0,1,.935-.935v1.871A.935.935,0,0,1,19.645,36.484Zm2.806,4.677V39.29a.935.935,0,1,1,0,1.871Z"/>
        <path id="Trazado_875192" data-name="Trazado 875192" d="M47.71,42.1h-.935v-.935a2.806,2.806,0,0,0-2.806-2.806H36.484a2.806,2.806,0,0,0-2.806,2.806V42.1h-.935a.935.935,0,0,0-.935.935v3.742a.935.935,0,0,0,.935.935H47.71a.935.935,0,0,0,.935-.935V43.032A.935.935,0,0,0,47.71,42.1Zm-12.161-.935a.935.935,0,0,1,.935-.935h7.484a.935.935,0,0,1,.935.935V42.1H35.548Zm11.226,4.677h-13.1V43.968h13.1Z"/>
      </g>
    </g>
  </g>
</svg>
