<svg xmlns="http://www.w3.org/2000/svg" xmlns:xlink="http://www.w3.org/1999/xlink" width="521.057" height="286.4" viewBox="0 0 521.057 286.4">
  <defs>
    <clipPath id="clip-path">
      <rect id="Rectángulo_401795" data-name="Rectángulo 401795" width="336.411" height="277.158" fill="none"/>
    </clipPath>
    <clipPath id="clip-path-3">
      <path id="Trazado_875695" data-name="Trazado 875695" d="M154.374,244.894c-15.278-.487-34.554-.614-53.194-.736-31.385-.206-61.029-.4-64.525-2.284-6.377-3.433-7.751-14.235-7.885-15.456a23.864,23.864,0,0,0-.508-2.671c-.723-3.154-1.471-6.417,2.146-10.362,4.571-4.986,20.317-15.709,21.578-16.564,4.179-.767,7.006-.192,12.111.846,7.266,1.48,19.427,3.955,46.818,4.474,28.014.534,45.807-.545,64.641-1.685,12.237-.74,24.89-1.506,40.959-1.853,42.205-.913,77.2-.652,81.4.607,3.965,1.191,11.947,11.565,11.287,19.282-.661,7.7-3.343,21-13.9,23.529-8.375,2.01-60.812,3.343-103.477,3.343-14.236,0-27.393-.148-37.45-.47M51.808,196.385S34.9,207.8,30.068,213.074s-2.2,9.443-1.756,13.4,2.415,12.736,8.125,15.81,76.639,1.756,117.923,3.074,130.069-.251,141.05-2.885,13.59-16.253,14.248-23.938-7.222-18.444-11.614-19.762-40.914-1.507-81.539-.628-59.247,4.417-105.582,3.539c-40.187-.762-47.2-5.673-55.236-5.673a20.755,20.755,0,0,0-3.879.377" transform="translate(-27.2 -196.008)" fill="none"/>
    </clipPath>
    <clipPath id="clip-path-6">
      <path id="Trazado_875717" data-name="Trazado 875717" d="M42.94,163.037a22.953,22.953,0,0,0-5.169-4.051c-5.335-3.015-9.847-5.962-12.693-7.9C22.109,149.058,21.112,146,22.11,142c2.18-8.727,13.594-19.425,19.686-20.092,2.885-.316,5.126-.514,6.726-.514,1.489,0,2.424.171,2.805.58.158.171.323.475.17,1.314v0c-.018.1-1.818,10.491-3.709,16.752a74.647,74.647,0,0,1-3.288,8.687,28.621,28.621,0,0,0-1.52,3.94c-.308,1.234.2,3.164.743,5.21.55,2.087,1.175,4.454.714,5.663a1.7,1.7,0,0,1-.276.534,4.935,4.935,0,0,1-1.22-1.043m-1.193-41.586c-8.815.965-28.478,22.135-16.928,30.013,2.642,1.8,7.2,4.8,12.726,7.924s6.362,6.843,7.322,4.322-2.04-8.524-1.44-10.925,2.882-6.243,4.8-12.606,3.722-16.807,3.722-16.807c.316-1.739-.407-2.436-3.44-2.436-1.574,0-3.77.187-6.764.516" transform="translate(-21.279 -120.935)" fill="none"/>
    </clipPath>
    <clipPath id="clip-path-8">
      <rect id="Rectángulo_401792" data-name="Rectángulo 401792" width="178.522" height="76.025" fill="none"/>
    </clipPath>
  </defs>
  <g id="Grupo_1101627" data-name="Grupo 1101627" transform="translate(-2763.472 1915.424)">
    <g id="Grupo_1100496" data-name="Grupo 1100496" transform="translate(0 6.076)">
      <path id="Rectángulo_401796" data-name="Rectángulo 401796" d="M53,0H476.057a45,45,0,0,1,45,45V222.679a0,0,0,0,1,0,0H0a0,0,0,0,1,0,0V53A53,53,0,0,1,53,0Z" transform="translate(2763.472 -1857.779)" fill="#aee6e6"/>
      <g id="Grupo_1100495" data-name="Grupo 1100495" transform="translate(2837.566 -1945.106)">
        <g id="Grupo_1100494" data-name="Grupo 1100494" transform="translate(31 23.606)" clip-path="url(#clip-path)">
          <g id="Grupo_1100478" data-name="Grupo 1100478">
            <g id="Grupo_1100477" data-name="Grupo 1100477" clip-path="url(#clip-path)">
              <path id="Trazado_875679" data-name="Trazado 875679" d="M301.1,199.339s4.831-12.078,1.756-37.114c-1.349-10.987-.387-33.563-15.412-34.3-16.038-.782-22.585.809-38.657.992-57.973.659-100.606,6.442-135.951,3.035-28.416-2.741-52.923-7.247-63.024,2.855S40.591,166.43,41.47,170.6s7.466,32.72,7.466,32.72l250.629-1.129Z" transform="translate(-3.216 -10.024)" fill="#999"/>
              <path id="Trazado_875680" data-name="Trazado 875680" d="M48.9,203.744a.461.461,0,0,1-.449-.357c-.065-.286-6.6-28.6-7.468-32.729-1.022-4.853-1.5-26.245,8.47-36.215,8.81-8.808,27.625-6.786,51.447-4.226,3.871.416,7.875.846,11.947,1.239,21.09,2.034,45.066.776,72.828-.684,18.626-.979,39.737-2.087,63.074-2.353,6.46-.073,11.31-.37,16-.657a184.325,184.325,0,0,1,22.684-.334c13.121.64,14.394,17.006,15.324,28.955.163,2.091.317,4.068.522,5.747,3.055,24.864-1.736,37.219-1.786,37.341a.433.433,0,0,1-.022.047l-1.537,2.855a.46.46,0,0,1-.4.242L48.9,203.744Zm23.629-74.76c-9.9,0-17.8,1.485-22.424,6.111-9.705,9.705-9.219,30.625-8.219,35.374.814,3.867,6.616,29.034,7.381,32.352l249.986-1.126,1.394-2.588c.227-.6,4.679-12.764,1.719-36.865-.208-1.7-.363-3.685-.527-5.787-.9-11.607-2.14-27.5-14.45-28.105a180.853,180.853,0,0,0-22.583.333c-4.7.288-9.563.586-16.046.659-23.317.265-44.419,1.373-63.036,2.352-27.8,1.461-51.808,2.719-72.964.681-4.078-.393-8.084-.825-11.958-1.24-10.315-1.109-19.993-2.149-28.273-2.149M301.062,199.3h0Z" transform="translate(-3.176 -9.985)" fill="#263238"/>
              <path id="Trazado_875681" data-name="Trazado 875681" d="M49.054,195.341s-4.831-19.324-12.736-24.594-18.227.439-26.791,8.783-10.98,18.227-7.466,34.7S15.9,255.071,18.969,266.051s3.074,16.69,13.4,20.2,20.2,3.733,26.571-5.051,4.612-49.189-.439-64.342-9.443-21.52-9.443-21.52" transform="translate(-0.04 -13.242)" fill="#b2b2b2"/>
              <path id="Trazado_875682" data-name="Trazado 875682" d="M44.236,288.942a37.9,37.9,0,0,1-12.06-2.292c-9.156-3.117-10.444-8.094-12.578-16.337-.336-1.3-.7-2.692-1.113-4.179-1.156-4.13-3.316-10.091-5.817-16.993-4.174-11.521-8.906-24.58-11.1-34.859-3.479-16.3-1.277-26.479,7.6-35.123,6.163-6.006,17.916-15.14,27.368-8.837,7.787,5.191,12.518,23.252,12.909,24.788.494.75,4.718,7.366,9.451,21.564,4.927,14.78,6.915,55.74.376,64.758a17.486,17.486,0,0,1-15.033,7.508M29.478,169.121c-7.373,0-15.1,6.245-19.67,10.7-8.614,8.393-10.74,18.322-7.338,34.27,2.18,10.219,6.9,23.244,11.065,34.738,2.507,6.919,4.672,12.894,5.838,17.058.418,1.493.78,2.889,1.118,4.2,2.126,8.213,3.3,12.738,11.982,15.7,12.146,4.133,20.668,2.538,26.049-4.886,6.415-8.847,4.374-49.294-.5-63.925-4.966-14.9-9.341-21.341-9.385-21.406a.43.43,0,0,1-.067-.149c-.048-.192-4.879-19.211-12.545-24.322a11.558,11.558,0,0,0-6.544-1.968" transform="translate(0 -13.201)" fill="#263238"/>
              <path id="Trazado_875683" data-name="Trazado 875683" d="M48.176,281.645c-4.393-8.344-17.568-67.855-17.348-75.98s-6.368-21.74-14.494-22.839c-6.7-.9-12.048,5.5-13.723,7.777-2.617,6.444-2.784,14.251-.55,24.724,3.514,16.469,3.073,41.355,6.146,52.335s3.075,16.689,13.4,20.2c6.793,2.312,24.155,2.687,29.69.52a55.268,55.268,0,0,0-3.117-6.739" transform="translate(-0.04 -14.342)" fill="#8a8a8a"/>
              <path id="Trazado_875684" data-name="Trazado 875684" d="M38.527,290.25c-6.387,0-13.279-.684-17.111-1.989-9.155-3.116-10.444-8.093-12.578-16.336-.336-1.3-.7-2.691-1.113-4.178-1.544-5.514-2.211-14.539-2.917-24.093-.728-9.85-1.481-20.036-3.237-28.27-2.25-10.547-2.068-18.489.574-24.994a.451.451,0,0,1,.055-.1c1.985-2.7,7.339-8.882,14.156-7.96,8.389,1.133,15.114,15.122,14.893,23.307-.208,7.714,12.89,67.38,17.295,75.753a55.817,55.817,0,0,1,3.143,6.8.462.462,0,0,1-.266.585c-2.542,1-7.541,1.475-12.895,1.476M2.977,190.791c-2.549,6.316-2.708,14.072-.5,24.4,1.77,8.3,2.525,18.513,3.255,28.395.7,9.507,1.367,18.487,2.885,23.912.418,1.493.78,2.89,1.118,4.2,2.127,8.213,3.3,12.737,11.982,15.693,6.586,2.244,23.186,2.6,28.948.68a58.252,58.252,0,0,0-2.932-6.249c-4.629-8.794-17.619-68.124-17.4-76.206.213-7.865-6.151-21.3-14.095-22.369-6.46-.863-11.737,5.492-13.256,7.546" transform="translate(-0.001 -14.303)" fill="#263238"/>
              <path id="Trazado_875685" data-name="Trazado 875685" d="M307.656,194.94s5.1-19.324,13.452-24.594,19.25.439,28.3,8.783,11.6,18.227,7.885,34.7-14.612,40.844-17.859,51.824-3.246,16.69-14.148,20.2-21.338,3.733-28.064-5.051-4.871-49.189.464-64.342,9.974-21.52,9.974-21.52" transform="translate(-22.987 -13.21)" fill="#b2b2b2"/>
              <path id="Trazado_875686" data-name="Trazado 875686" d="M312.671,288.538c-6.782,0-12.019-2.49-15.855-7.5-6.908-9.023-4.809-49.992.4-64.775,5-14.193,9.457-20.811,9.984-21.565.417-1.552,5.413-19.6,13.63-24.786,9.956-6.287,22.352,2.836,28.854,8.835,9.373,8.646,11.7,18.825,8.023,35.135-2.316,10.281-7.314,23.34-11.723,34.862-2.641,6.9-4.923,12.863-6.144,16.992-.44,1.486-.82,2.877-1.175,4.177-2.254,8.245-3.614,13.22-13.273,16.334a41.948,41.948,0,0,1-12.718,2.288m15.583-119.82a12.759,12.759,0,0,0-6.936,1.975c-8.1,5.115-13.2,24.132-13.252,24.323a.458.458,0,0,1-.073.153c-.046.064-4.667,6.508-9.911,21.4-5.149,14.627-7.3,55.064-.534,63.908,5.693,7.434,14.708,9.035,27.559,4.893,9.183-2.961,10.42-7.485,12.666-15.7.357-1.306.738-2.7,1.18-4.2,1.231-4.165,3.518-10.141,6.167-17.061,4.4-11.493,9.383-24.518,11.685-34.735,3.591-15.941,1.346-25.866-7.749-34.256-4.831-4.457-13-10.708-20.8-10.708M307.62,194.9h0Z" transform="translate(-22.951 -13.169)" fill="#263238"/>
              <path id="Trazado_875687" data-name="Trazado 875687" d="M309.641,282.463c4.639-8.448,18.555-68.691,18.322-76.917s6.726-22.008,15.308-23.12c7.074-.916,12.725,5.566,14.495,7.872,2.765,6.523,2.941,14.426.581,25.029-3.711,16.672-9.385,41.348-12.632,52.464s-3.247,16.9-14.148,20.451c-7.173,2.341-19.373,3.236-25.219,1.042a54.666,54.666,0,0,1,3.293-6.822" transform="translate(-24.044 -14.311)" fill="#8a8a8a"/>
              <path id="Trazado_875688" data-name="Trazado 875688" d="M315.538,290.948a28.42,28.42,0,0,1-9.39-1.272.459.459,0,0,1-.269-.593A55.346,55.346,0,0,1,309.2,282.2c4.652-8.47,18.487-68.873,18.267-76.683-.234-8.284,6.861-22.443,15.709-23.589,7.4-.95,13.287,5.92,14.918,8.049a.385.385,0,0,1,.058.1c2.792,6.587,2.985,14.628.608,25.308-2.593,11.648-9.013,40.079-12.639,52.493-.44,1.5-.819,2.912-1.175,4.229-2.253,8.344-3.613,13.38-13.273,16.532a56.474,56.474,0,0,1-16.133,2.307m-8.628-1.98c5.932,1.967,17.65,1.025,24.475-1.2,9.185-3,10.422-7.579,12.669-15.9.357-1.322.738-2.735,1.18-4.247,3.619-12.387,10.033-40.8,12.623-52.433,2.328-10.455,2.158-18.3-.533-24.695-1.605-2.084-7.191-8.546-14.034-7.65-8.4,1.088-15.13,14.685-14.905,22.65.23,8.182-13.49,68.242-18.381,77.151a57.844,57.844,0,0,0-3.1,6.323" transform="translate(-24.005 -14.272)" fill="#263238"/>
              <path id="Trazado_875689" data-name="Trazado 875689" d="M306.769,237.848s-5.489,34.1-9,45.517-2.415,11.419-8.345,11.858-230.864-.188-237.892-1.286-10.76-6.368-12.736-13.835-3.952-41.345-3.952-41.345l262.486-.91Z" transform="translate(-2.734 -18.668)" fill="#999"/>
              <path id="Trazado_875690" data-name="Trazado 875690" d="M258.1,295.787c-22.286,0-54.032-.072-87.256-.209-26.89-.111-114.967-.528-119.428-1.225-6.569-1.027-10.858-5.663-13.111-14.172-1.966-7.427-3.886-40.052-3.967-41.437a.46.46,0,0,1,.458-.487l262.487-.909h9.445a.46.46,0,0,1,.455.534c-.055.342-5.536,34.26-9.019,45.58-.557,1.813-1,3.339-1.371,4.623-1.956,6.76-2.074,7.166-7.379,7.558-1.3.1-13.172.144-31.312.144M35.289,239.176c.252,4.177,2.1,33.917,3.909,40.769,2.149,8.119,6.193,12.534,12.362,13.5,2.967.464,47.562.918,119.288,1.214,60.254.251,115.625.282,118.5.067,4.667-.346,4.667-.346,6.563-6.895.372-1.289.816-2.819,1.376-4.639,3.223-10.479,8.187-40.536,8.9-44.92h-8.9Z" transform="translate(-2.695 -18.628)" fill="#263238"/>
              <path id="Trazado_875691" data-name="Trazado 875691" d="M34.638,243.791a7.626,7.626,0,0,0,5.9,4.638c4.638.843,123.538,2.108,127.333,2.108s100.769,0,116.37-1.265,23.543-3.336,22.312-11.787-.809-1.7-.809-1.7L32.108,239.154Z" transform="translate(-2.52 -18.305)" fill="#263238"/>
              <path id="Trazado_875692" data-name="Trazado 875692" d="M51.808,196.386S34.9,207.8,30.068,213.075s-2.2,9.442-1.756,13.4,2.415,12.736,8.125,15.81,76.639,1.757,117.923,3.075,130.07-.251,141.05-2.886,13.59-16.253,14.248-23.938-7.221-18.444-11.613-19.761-40.914-1.507-81.54-.628-59.247,4.418-105.582,3.539-48.575-7.272-59.115-5.3" transform="translate(-2.135 -15.384)" fill="#b2b2b2"/>
              <path id="Trazado_875693" data-name="Trazado 875693" d="M191.6,246.244c-14.185,0-27.27-.147-37.295-.467-15.266-.487-34.536-.614-53.171-.736-32.869-.216-61.258-.4-64.956-2.393-6.79-3.656-8.224-14.9-8.365-16.165a23.108,23.108,0,0,0-.49-2.568c-.74-3.229-1.579-6.887,2.366-11.19,4.812-5.249,21.129-16.292,21.821-16.76a.476.476,0,0,1,.173-.071c4.408-.828,7.475-.2,12.557.832,7.235,1.473,19.344,3.938,46.652,4.455,27.98.534,45.752-.544,64.569-1.683,12.245-.741,24.907-1.507,40.994-1.855,42.288-.916,77.4-.636,81.681.648,4.663,1.4,12.617,12.347,11.94,20.242-.681,7.947-3.483,21.679-14.6,24.345-8.423,2.023-61.114,3.366-103.877,3.366M51.948,196.782c-1.262.856-17.008,11.578-21.579,16.565-3.617,3.945-2.87,7.207-2.146,10.362a23.825,23.825,0,0,1,.508,2.671c.135,1.221,1.509,12.023,7.885,15.457,3.5,1.883,33.14,2.077,64.525,2.283,18.641.123,37.917.249,53.194.736,40.2,1.286,129.759-.193,140.927-2.873,10.554-2.532,13.237-15.829,13.9-23.529.662-7.717-7.321-18.091-11.287-19.281-4.2-1.259-39.192-1.522-81.4-.608-16.068.347-28.722,1.113-40.959,1.853-18.835,1.14-36.627,2.218-64.641,1.685-27.391-.519-39.552-2.994-46.818-4.473-5.1-1.039-7.931-1.614-12.111-.847" transform="translate(-2.096 -15.345)" fill="#263238"/>
            </g>
          </g>
          <g id="Grupo_1100480" data-name="Grupo 1100480" transform="translate(25.065 180.624)">
            <g id="Grupo_1100479" data-name="Grupo 1100479" clip-path="url(#clip-path-3)">
              <path id="Trazado_875694" data-name="Trazado 875694" d="M28.311,227.923c.44,3.952,2.415,12.736,8.125,15.811s76.639,1.756,117.923,3.074,130.07-.251,141.05-2.886,17.568-13.176,18.227-20.861a10.237,10.237,0,0,0-.383-3.436c-1.549,1.546-4.53-.124-8.055-.632-7.826-1.127-90.151,4-151.769,4-66.906,0-88.711,0-121.815-6.369-4.934-.948-1.546-2.095-1.546-2.095-4.831,5.27-2.2,9.443-1.756,13.4" transform="translate(-27.2 -197.462)" fill="#999"/>
            </g>
          </g>
          <g id="Grupo_1100482" data-name="Grupo 1100482">
            <g id="Grupo_1100481" data-name="Grupo 1100481" clip-path="url(#clip-path)">
              <path id="Trazado_875696" data-name="Trazado 875696" d="M180.962,240.8a.461.461,0,0,1-.461-.461c0-.231,0-23.114-.335-25.437-.346-2.42,2.27-18.819,2.381-19.517l.335-62.152a.46.46,0,0,1,.461-.458h0a.462.462,0,0,1,.459.464l-.34,62.222c-.943,5.925-2.646,17.484-2.385,19.312.341,2.385.345,24.62.345,25.566a.461.461,0,0,1-.461.461" transform="translate(-14.138 -10.421)" fill="#263238"/>
            </g>
          </g>
          <g id="Grupo_1100484" data-name="Grupo 1100484">
            <g id="Grupo_1100483" data-name="Grupo 1100483" clip-path="url(#clip-path)">
              <path id="Trazado_875697" data-name="Trazado 875697" d="M63.334,163.448s1.474-.184,4.6-3.867,6.629-6.445,9.944-6.261-2.763,2.577-2.763,2.577,5.709-1.473,9.76.553-1.657,3.867-1.657,3.867,6.628,2.025,6.26,4.787-1.657,2.025-9.575,2.025-11.97,2.025-15.283.921-5.524-1.473-1.289-4.6" transform="translate(-4.788 -12.033)" fill="#263238"/>
              <path id="Trazado_875698" data-name="Trazado 875698" d="M66.844,168.8a7.486,7.486,0,0,1-2.405-.356l-.693-.228c-1.779-.578-3.064-1-3.227-2-.137-.846.588-1.768,2.5-3.184a.458.458,0,0,1,.2-.085c.052-.011,1.462-.344,4.323-3.71,3.769-4.433,7.251-6.585,10.32-6.422.392.021,1.309.073,1.416.733.029.18.1.607-1.155,1.376A13.592,13.592,0,0,1,85.046,156c1.188.594,1.761,1.279,1.7,2.037-.076,1-1.266,1.755-2.242,2.213,2.014.765,5.71,2.507,5.393,4.878-.347,2.609-1.653,2.58-5.984,2.481-1.108-.026-2.44-.056-4.047-.056a54.21,54.21,0,0,0-8.778.791,29.355,29.355,0,0,1-4.245.463m-3.352-4.969c-1.882,1.4-2.1,2-2.064,2.238.074.449,1.359.867,2.6,1.272l.7.229c1.669.557,3.577.264,6.218-.145a55.169,55.169,0,0,1,8.919-.8c1.615,0,2.955.03,4.068.056,4.473.1,4.817.069,5.05-1.681.258-1.937-4.316-3.79-5.938-4.287a.461.461,0,0,1-.007-.879c1.095-.355,2.739-1.2,2.789-1.873.026-.338-.4-.744-1.2-1.142-3.846-1.923-9.384-.534-9.439-.519a.46.46,0,0,1-.283-.874A16.021,16.021,0,0,0,78.2,153.78a3.527,3.527,0,0,0-.38-.039c-2.785-.15-5.994,1.9-9.566,6.1-2.742,3.223-4.288,3.869-4.758,4" transform="translate(-4.749 -11.994)" fill="#263238"/>
              <path id="Trazado_875699" data-name="Trazado 875699" d="M49.7,125.533s5.347,2.821,7.083,5.642,0,5.282,4.031,5.749c2.251.26,5.21.217,5.21,2.388a14.359,14.359,0,0,1-.217,3.039s1.954,7.814,1.737,9.551-7.6,3.907-7.6,3.907a6.971,6.971,0,0,0,1.086,4.775c1.52,1.954,8.683,7.814,9.768,8.683s-21.057,3.473-21.057,3.473-4.993-10.42-11.722-14.11-9.986-3.473-10.2-7.164S33.9,134.32,39.76,129.977s9.943-4.444,9.943-4.444" transform="translate(-2.183 -9.853)" fill="#fff"/>
              <path id="Trazado_875700" data-name="Trazado 875700" d="M49.706,173.164a.46.46,0,0,1-.415-.262c-.05-.1-5.009-10.33-11.529-13.9-2.09-1.147-3.858-1.92-5.278-2.541-3.222-1.409-5-2.184-5.162-5-.217-3.686,6-17.347,12.124-21.887,5.911-4.378,10.033-4.531,10.206-4.536a.431.431,0,0,1,.227.053c.223.118,5.478,2.913,7.261,5.81a8.073,8.073,0,0,1,1.013,2.966c.275,1.486.425,2.3,2.679,2.565.288.034.587.063.89.09,2.106.2,4.726.446,4.726,2.755a16.883,16.883,0,0,1-.2,3.03c.293,1.182,1.935,7.907,1.72,9.619-.224,1.8-5.556,3.577-7.628,4.2a6.309,6.309,0,0,0,1.023,4.14c1.446,1.858,8.386,7.559,9.692,8.605a.621.621,0,0,1,.191.57c-.1.337-.353,1.235-21.48,3.72a.368.368,0,0,1-.054,0m-.145-47.2c-.692.061-4.449.557-9.566,4.347-5.806,4.3-11.957,17.649-11.754,21.093.133,2.253,1.536,2.867,4.612,4.211,1.437.628,3.226,1.41,5.352,2.577,6.221,3.411,10.883,12.249,11.771,14.018,6.938-.822,17.594-2.255,20.03-3-1.759-1.435-7.931-6.521-9.375-8.378a7.378,7.378,0,0,1-1.178-5.129.462.462,0,0,1,.325-.371c3.411-1,7.16-2.636,7.271-3.522.17-1.356-1.189-7.233-1.726-9.384a.449.449,0,0,1,0-.221,14.648,14.648,0,0,0,.2-2.929c0-1.368-1.541-1.616-3.892-1.838-.31-.029-.616-.058-.91-.091-2.929-.341-3.2-1.785-3.478-3.314a7.219,7.219,0,0,0-.892-2.652c-1.513-2.46-6.019-4.994-6.792-5.416" transform="translate(-2.144 -9.813)" fill="#263238"/>
              <path id="Trazado_875701" data-name="Trazado 875701" d="M59.763,140.293a9.923,9.923,0,0,1-1.013.453c.022.063.034.123.06.186.3.746.785,1.253,1.075,1.134s.277-.817-.027-1.562c-.029-.074-.063-.143-.1-.212" transform="translate(-4.611 -11.011)" fill="#263238"/>
              <path id="Trazado_875702" data-name="Trazado 875702" d="M57.891,142.322a5.515,5.515,0,0,0,2.8-.538" transform="translate(-4.544 -11.128)" fill="#fff"/>
              <path id="Trazado_875703" data-name="Trazado 875703" d="M58.252,142.55a3.467,3.467,0,0,1-.406-.019.23.23,0,0,1-.2-.254.225.225,0,0,1,.255-.2,5.337,5.337,0,0,0,2.671-.516.23.23,0,1,1,.206.412,5.757,5.757,0,0,1-2.523.581" transform="translate(-4.524 -11.108)" fill="#263238"/>
              <path id="Trazado_875704" data-name="Trazado 875704" d="M61.915,158.389a28.512,28.512,0,0,1-9.046.577s6.387,3.921,9.256,3.634Z" transform="translate(-4.149 -12.431)" fill="#263238"/>
              <path id="Trazado_875705" data-name="Trazado 875705" d="M61.782,163.036c-3.1,0-8.937-3.559-9.193-3.716a.461.461,0,0,1-.192-.55.474.474,0,0,1,.5-.3,28.15,28.15,0,0,0,8.871-.569.461.461,0,0,1,.566.425l.211,4.21a.46.46,0,0,1-.414.482c-.112.011-.229.017-.35.017m-6.921-3.482c1.9,1.03,4.894,2.482,6.742,2.559l-.16-3.2a30.971,30.971,0,0,1-6.581.638" transform="translate(-4.11 -12.392)" fill="#263238"/>
              <path id="Trazado_875706" data-name="Trazado 875706" d="M58.342,137.869l1.22,1.978a9.148,9.148,0,0,1-3.473,1.737" transform="translate(-4.402 -10.821)" fill="#fff"/>
              <path id="Trazado_875707" data-name="Trazado 875707" d="M56.049,142a.46.46,0,0,1-.073-.915,7.918,7.918,0,0,0,2.933-1.4l-1-1.62a.461.461,0,0,1,.785-.484l1.219,1.979a.46.46,0,0,1-.1.6A9.5,9.5,0,0,1,56.123,142a.406.406,0,0,1-.074.006" transform="translate(-4.363 -10.781)" fill="#263238"/>
              <path id="Trazado_875708" data-name="Trazado 875708" d="M61.468,148.071s.84,1.8,4.322.48" transform="translate(-4.824 -11.621)" fill="#fff"/>
              <path id="Trazado_875709" data-name="Trazado 875709" d="M63.477,149.458a2.57,2.57,0,0,1-2.466-1.23.461.461,0,0,1,.832-.4c.036.07.769,1.38,3.744.251a.466.466,0,0,1,.594.267.461.461,0,0,1-.267.594,6.912,6.912,0,0,1-2.437.515" transform="translate(-4.785 -11.582)" fill="#263238"/>
              <path id="Trazado_875710" data-name="Trazado 875710" d="M56.441,134.26s-2.641-.48-3.962,2.641" transform="translate(-4.119 -10.535)" fill="#fff"/>
              <path id="Trazado_875711" data-name="Trazado 875711" d="M52.44,137.323a.478.478,0,0,1-.181-.036.46.46,0,0,1-.244-.6,4.245,4.245,0,0,1,4.469-2.916.461.461,0,0,1-.164.907c-.092-.018-2.3-.358-3.458,2.366a.457.457,0,0,1-.423.282" transform="translate(-4.08 -10.497)" fill="#263238"/>
              <path id="Trazado_875712" data-name="Trazado 875712" d="M51.951,123.371s-1.8,10.444-3.722,16.807-4.2,10.2-4.8,12.606,2.4,8.4,1.44,10.925-1.8-1.2-7.322-4.322-10.083-6.122-12.726-7.924c-11.55-7.878,8.113-29.047,16.927-30.014,8.765-.96,10.685-.72,10.2,1.921" transform="translate(-1.67 -9.492)" fill="#263238"/>
              <path id="Trazado_875713" data-name="Trazado 875713" d="M44.116,164.964c-.549,0-1.065-.515-1.866-1.314a22.02,22.02,0,0,0-4.971-3.9c-5.362-3.032-9.9-5.994-12.758-7.945-3.274-2.232-4.43-5.713-3.342-10.066,2.3-9.2,13.986-20.074,20.479-20.786,6.384-.7,9.225-.805,10.305.354a2.373,2.373,0,0,1,.4,2.106c-.035.2-1.836,10.574-3.734,16.86a75.685,75.685,0,0,1-3.325,8.788,27.847,27.847,0,0,0-1.471,3.8c-.251,1,.252,2.908.738,4.751.616,2.331,1.251,4.74.686,6.226-.174.459-.441,1-.955,1.109a.886.886,0,0,1-.189.021m4.368-43.61c-1.6,0-3.841.2-6.726.514-6.092.668-17.506,11.366-19.685,20.093-1,4,0,7.057,2.967,9.082,2.847,1.942,7.358,4.889,12.693,7.9A22.9,22.9,0,0,1,42.9,163a4.956,4.956,0,0,0,1.22,1.043,1.7,1.7,0,0,0,.276-.534c.461-1.21-.163-3.575-.714-5.664-.54-2.046-1.051-3.976-.742-5.209a28.477,28.477,0,0,1,1.519-3.94,75.031,75.031,0,0,0,3.289-8.687c1.89-6.262,3.691-16.648,3.709-16.752v0c.152-.839-.012-1.144-.171-1.315-.381-.407-1.314-.58-2.8-.58" transform="translate(-1.631 -9.452)" fill="#263238"/>
            </g>
          </g>
          <g id="Grupo_1100486" data-name="Grupo 1100486" transform="translate(19.609 111.443)">
            <g id="Grupo_1100485" data-name="Grupo 1100485" clip-path="url(#clip-path-6)">
              <path id="Trazado_875714" data-name="Trazado 875714" d="M28.007,156.664a.461.461,0,0,1-.158-.894c18.474-6.718,24.605-34.384,24.665-34.663a.461.461,0,0,1,.9.194c-.061.284-6.3,28.443-25.251,35.335a.473.473,0,0,1-.158.028" transform="translate(-21.771 -120.92)" fill="#666"/>
              <path id="Trazado_875715" data-name="Trazado 875715" d="M23.337,151.378a.461.461,0,0,1-.154-.895c16.515-5.879,24.88-30.73,24.962-30.98a.461.461,0,0,1,.875.289c-.084.254-8.587,25.529-25.53,31.559a.448.448,0,0,1-.154.027" transform="translate(-21.405 -120.798)" fill="#666"/>
              <path id="Trazado_875716" data-name="Trazado 875716" d="M21.782,150.6a.461.461,0,0,1-.276-.83c9.75-7.243,10.423-25.283,10.429-25.464a.461.461,0,1,1,.922.029c-.024.758-.7,18.669-10.8,26.175a.457.457,0,0,1-.275.091" transform="translate(-21.283 -121.164)" fill="#666"/>
            </g>
          </g>
          <g id="Grupo_1100491" data-name="Grupo 1100491">
            <g id="Grupo_1100490" data-name="Grupo 1100490" clip-path="url(#clip-path)">
              <path id="Trazado_875718" data-name="Trazado 875718" d="M48.036,152.139s-4.081-3.6-6.6-2.521-.48,5.642,1.08,6a7.312,7.312,0,0,0,5.043-.12" transform="translate(-3.159 -11.727)" fill="#fff"/>
              <path id="Trazado_875719" data-name="Trazado 875719" d="M45.14,156.437a12.2,12.2,0,0,1-2.768-.405c-1.179-.272-2.446-2.249-2.608-4.068a2.542,2.542,0,0,1,1.45-2.807c2.754-1.179,6.914,2.444,7.089,2.6a.461.461,0,1,1-.609.691c-1.075-.947-4.268-3.232-6.117-2.442a1.649,1.649,0,0,0-.895,1.877c.132,1.48,1.18,3.086,1.9,3.252a6.919,6.919,0,0,0,4.744-.088.461.461,0,0,1,.39.836,5.983,5.983,0,0,1-2.573.557" transform="translate(-3.119 -11.688)" fill="#263238"/>
              <g id="Grupo_1100489" data-name="Grupo 1100489" transform="translate(16.567 124.526)" opacity="0.3">
                <g id="Grupo_1100488" data-name="Grupo 1100488">
                  <g id="Grupo_1100487" data-name="Grupo 1100487" clip-path="url(#clip-path-8)">
                    <path id="Trazado_875720" data-name="Trazado 875720" d="M18.017,174.308s11.689,5.517,13.993,11.507,2.765,12.44,6.911,14.744,11.519,6.451,20.273,8.294a63.721,63.721,0,0,0,15.666,1.382s16.126.922,28.106.922,30.41-3.686,30.41-3.686,13.362,1.382,21.656-15.2S194.2,152.641,196.5,135.132c0,0-37.321,17.97-42.85,25.8s-42.85,28.106-62.2,28.106S49.519,174.3,37.078,166s-19.693.024-19.062,8.306" transform="translate(-17.978 -135.132)"/>
                  </g>
                </g>
              </g>
              <path id="Trazado_875721" data-name="Trazado 875721" d="M59.337,191.571s-7.564-15.127-13.146-23.41-10.624-12.246-16.747-15.487-9.545-4.323-12.606-5.763-3.962-.721-4.322,5.583-1.8,17.288,5.043,22.69,9.9,5.222,14.047,7.2,6.3,7.383,9.724,14.406,14.047,7.023,18.188,6.663,2.342-7.743-.18-11.886" transform="translate(-0.953 -11.481)" fill="#fff"/>
              <path id="Trazado_875722" data-name="Trazado 875722" d="M56.557,204c-4.828,0-12.73-.988-15.681-7.046q-.605-1.244-1.165-2.418c-2.808-5.862-4.837-10.1-8.344-11.774a32.992,32.992,0,0,0-3.463-1.369,31.72,31.72,0,0,1-10.669-5.888c-6.431-5.078-5.769-14.849-5.331-21.316.042-.619.082-1.208.114-1.762.233-4.091.69-5.763,1.746-6.392.91-.543,2.091-.118,3.232.419,1,.469,2.024.895,3.21,1.388a102.068,102.068,0,0,1,9.415,4.383c5.95,3.151,11.1,7.016,16.914,15.638,5.451,8.088,12.871,22.853,13.168,23.444,1.764,2.907,3.613,8.225,2.215,10.985a2.83,2.83,0,0,1-2.4,1.582c-.7.061-1.731.125-2.962.125m-41.817-57.3a.959.959,0,0,0-.5.123c-.889.529-1.156,3.154-1.3,5.652-.031.557-.072,1.15-.114,1.771-.425,6.275-1.068,15.755,4.983,20.531a30.928,30.928,0,0,0,10.4,5.741,33.718,33.718,0,0,1,3.556,1.408c3.8,1.816,6,6.4,8.777,12.208q.56,1.168,1.163,2.413c3.446,7.074,14.446,6.691,17.734,6.405a1.9,1.9,0,0,0,1.657-1.081c1.075-2.126-.264-6.941-2.19-10.106a.284.284,0,0,1-.018-.033c-.076-.151-7.614-15.195-13.116-23.359-5.7-8.464-10.754-12.252-16.581-15.339a101.141,101.141,0,0,0-9.339-4.346c-1.2-.5-2.229-.927-3.248-1.406a4.847,4.847,0,0,0-1.863-.583" transform="translate(-0.914 -11.442)" fill="#263238"/>
              <path id="Trazado_875723" data-name="Trazado 875723" d="M140.582,166.424s8.884-26.893,12.245-29.534,34.1-11.525,45.861-14.166,27.132-14.166,28.813-15.847,5.523-3.6,4.322,1.2-2.4,7.2-4.8,10.085-.96,5.282-2.4,7.923-4.082,2.641-8.164.241-5.763-2.4-10.565,1.2-13.686,12.246-23.29,15.128a117.08,117.08,0,0,1-12.726,3.361s-4.322,20.41-10.084,29.294-7.924,12.966-17.288,11.285-5.283-16.088-4.8-17.528,2.882-2.641,2.882-2.641" transform="translate(-10.706 -8.244)" fill="#263238"/>
              <path id="Trazado_875724" data-name="Trazado 875724" d="M146.124,187.377a21.258,21.258,0,0,1-3.741-.37,7.014,7.014,0,0,1-5.033-3.377c-3.141-5.289-.156-14.656-.124-14.75.459-1.378,2.35-2.5,2.94-2.817.842-2.538,9.016-26.963,12.339-29.574,3.4-2.673,34.086-11.569,46.045-14.253,11.594-2.6,26.944-14.08,28.588-15.724,1.073-1.073,3.252-2.5,4.539-1.776.818.464,1,1.612.555,3.414-1.188,4.751-2.378,7.246-4.9,10.268a6.746,6.746,0,0,0-1.5,4.338,8.186,8.186,0,0,1-.85,3.511,4.039,4.039,0,0,1-2.467,2.107c-1.585.439-3.658-.114-6.335-1.69-3.794-2.233-5.278-2.41-10.054,1.172-1,.747-2.158,1.7-3.5,2.812-5.169,4.255-12.247,10.083-19.931,12.388-7.978,2.393-11.472,3.131-12.473,3.319-.581,2.671-4.655,20.777-10.083,29.145l-.734,1.134c-4.4,6.8-6.93,10.723-13.281,10.723m84.735-81.92a5.678,5.678,0,0,0-3.07,1.707c-1.738,1.738-17.047,13.279-29.038,15.971-11.583,2.6-42.427,11.525-45.678,14.08-2.668,2.1-9.634,21.872-12.092,29.315a.46.46,0,0,1-.231.267c-.621.311-2.307,1.344-2.651,2.375-.029.089-2.888,9.051.043,13.988a6.126,6.126,0,0,0,4.4,2.941c8.656,1.555,10.83-1.813,16.085-9.946l.734-1.137c5.65-8.709,9.977-28.934,10.021-29.137a.463.463,0,0,1,.381-.36,118.283,118.283,0,0,0,12.663-3.346c7.506-2.253,14.5-8.012,19.609-12.217,1.355-1.115,2.524-2.078,3.538-2.838,4.813-3.61,6.675-3.816,11.075-1.229,2.451,1.442,4.291,1.964,5.621,1.6a3.121,3.121,0,0,0,1.9-1.66,7.345,7.345,0,0,0,.739-3.142,7.588,7.588,0,0,1,1.712-4.855c2.415-2.9,3.559-5.3,4.708-9.9.324-1.294.282-2.165-.114-2.389a.734.734,0,0,0-.363-.081m-90.316,60.928h0Z" transform="translate(-10.667 -8.205)" fill="#263238"/>
              <path id="Trazado_875725" data-name="Trazado 875725" d="M230.512,126.085c1.44-2.641,0-5.043,2.4-7.923s3.6-5.283,4.8-10.085-2.641-2.882-4.322-1.2a98.073,98.073,0,0,1-21.926,13.546,21.777,21.777,0,0,1,2.911,5.344c2.989-1.734,4.722-1.351,7.969.559,4.081,2.4,6.723,2.4,8.164-.241" transform="translate(-16.597 -8.244)" fill="#fff"/>
              <path id="Trazado_875726" data-name="Trazado 875726" d="M227.289,128.519a10.882,10.882,0,0,1-5.215-1.835c-3.153-1.856-4.68-2.2-7.5-.558a.46.46,0,0,1-.666-.249,21.017,21.017,0,0,0-2.85-5.225.461.461,0,0,1,.194-.693,97.34,97.34,0,0,0,21.78-13.448c1.073-1.074,3.252-2.5,4.539-1.776.818.463,1,1.612.555,3.413-1.188,4.752-2.378,7.247-4.9,10.268a6.744,6.744,0,0,0-1.5,4.338,8.182,8.182,0,0,1-.85,3.51,4.036,4.036,0,0,1-2.467,2.107,4.18,4.18,0,0,1-1.121.146m-9.515-4.369a9.617,9.617,0,0,1,4.768,1.739c2.451,1.443,4.291,1.965,5.621,1.6a3.124,3.124,0,0,0,1.9-1.66,7.352,7.352,0,0,0,.739-3.143,7.586,7.586,0,0,1,1.712-4.855c2.415-2.9,3.559-5.305,4.708-9.9.324-1.294.282-2.165-.114-2.389-.644-.369-2.379.57-3.434,1.626-1.5,1.5-11.61,9.082-21.548,13.419a22.161,22.161,0,0,1,2.455,4.481,6.754,6.754,0,0,1,3.188-.914" transform="translate(-16.558 -8.205)" fill="#263238"/>
              <path id="Trazado_875727" data-name="Trazado 875727" d="M235.2,106.876c-.147.147-.4.372-.748.657a7.66,7.66,0,0,0,4.52,2.565c.186-.628.369-1.295.55-2.022,1.2-4.8-2.641-2.882-4.322-1.2" transform="translate(-18.401 -8.244)" fill="#a8a8a8"/>
              <path id="Trazado_875728" data-name="Trazado 875728" d="M238.93,110.521a.393.393,0,0,1-.08-.007,8.142,8.142,0,0,1-4.788-2.717.46.46,0,0,1,.054-.657c.33-.273.576-.487.716-.628,1.074-1.073,3.253-2.5,4.539-1.776.819.464,1.005,1.612.556,3.414-.183.734-.368,1.408-.556,2.041a.461.461,0,0,1-.441.33m-3.856-2.984a7.208,7.208,0,0,0,3.531,1.987c.144-.5.286-1.031.427-1.6.324-1.295.282-2.165-.114-2.389-.644-.368-2.379.57-3.434,1.626-.095.094-.233.22-.41.373m.084-.7h0Z" transform="translate(-18.362 -8.205)" fill="#263238"/>
              <path id="Trazado_875729" data-name="Trazado 875729" d="M121.136,201.579s25.212,4.562,34.575,1.2,13.206-13.686,15.847-21.129,3.122-21.37,4.562-25.452,1.92-5.282,1.92-5.282,11.045-5.043,17.528-8.4,11.766-16.327,15.608-19.209,4.322.96,6.483-1.2,6-10.8,6.722-16.327-2.641-8.644-4.081-8.644-1.2,2.882-3.6,6.483-6,10.8-9.6,13.206-20.649,12.245-27.132,15.847-14.887,5.522-19.209,12.966-11.525,23.05-12.486,24.731a41.717,41.717,0,0,1-2.4,3.6,79.5,79.5,0,0,1-7.924,2.641c-5.043,1.44-11.045.721-13.926,3.6s-2.882,21.37-2.882,21.37" transform="translate(-9.507 -7.623)" fill="#263238"/>
              <path id="Trazado_875730" data-name="Trazado 875730" d="M145.4,204.445c-10.668,0-23.638-2.317-24.386-2.452a.461.461,0,0,1-.379-.453c0-.763.034-18.713,3.016-21.7,1.945-1.945,5.132-2.331,8.507-2.742a36.852,36.852,0,0,0,5.619-.977c4.4-1.257,7.171-2.342,7.756-2.577a40.588,40.588,0,0,0,2.295-3.452c.291-.51,1.231-2.456,2.421-4.921,2.819-5.842,7.081-14.671,10.067-19.813,3.284-5.657,8.8-8.163,14.137-10.587,1.849-.839,3.6-1.634,5.246-2.551,6.293-3.5,23.508-13.432,27.1-15.827,2.615-1.743,5.3-6.218,7.457-9.814.727-1.211,1.413-2.354,2.019-3.264a18.259,18.259,0,0,0,2.028-4.263c.5-1.408.866-2.425,1.956-2.425a3.9,3.9,0,0,1,2.537,1.52,9.493,9.493,0,0,1,2,7.644c-.724,5.556-4.6,14.338-6.853,16.594a2.233,2.233,0,0,1-2.867.527c-.87-.347-1.771-.7-3.666.716-1.487,1.116-3.313,3.988-5.246,7.029-3.026,4.763-6.457,10.162-10.426,12.22-5.98,3.1-15.954,7.683-17.378,8.335-.175.456-.717,1.889-1.848,5.1a58.665,58.665,0,0,0-1.532,9.175c-.7,5.6-1.495,11.946-3.031,16.278-2.53,7.128-6.353,17.9-16.126,21.409-2.594.932-6.342,1.272-10.427,1.272m-23.842-3.293c3.184.549,25.437,4.211,33.959,1.154,9.363-3.361,13.1-13.884,15.568-20.849,1.5-4.237,2.291-10.531,2.985-16.085a58.721,58.721,0,0,1,1.577-9.365c1.428-4.045,1.908-5.251,1.928-5.3a.467.467,0,0,1,.237-.249c.111-.05,11.109-5.076,17.507-8.394,3.749-1.943,7.109-7.23,10.073-11.895,2.064-3.25,3.847-6.056,5.47-7.273,2.31-1.732,3.61-1.213,4.559-.836.741.295,1.111.441,1.875-.322,2.136-2.137,5.906-10.8,6.591-16.061a8.572,8.572,0,0,0-1.781-6.917,3.121,3.121,0,0,0-1.844-1.207c-.422,0-.652.589-1.087,1.814a19.152,19.152,0,0,1-2.131,4.465c-.593.891-1.275,2.025-2,3.227-2.2,3.674-4.949,8.248-7.735,10.106-3.681,2.454-20.693,12.271-27.164,15.867-1.684.935-3.528,1.773-5.313,2.584-5.2,2.364-10.585,4.808-13.721,10.21-2.968,5.112-7.391,14.276-10.034,19.752-1.244,2.577-2.143,4.44-2.45,4.977A41.443,41.443,0,0,1,146.2,174.2a.467.467,0,0,1-.191.149,81.033,81.033,0,0,1-7.975,2.659,37.417,37.417,0,0,1-5.761,1.007c-3.211.389-6.245.757-7.966,2.477-2.2,2.2-2.721,15.293-2.745,20.657" transform="translate(-9.468 -7.584)" fill="#263238"/>
              <path id="Trazado_875731" data-name="Trazado 875731" d="M152.434,170.04a.452.452,0,0,1-.2-.046.46.46,0,0,1-.216-.615c2.929-6.091,12.642-26.005,14.676-26.514,1.579-.4,20.848-10.835,28.139-14.825a.461.461,0,0,1,.443.808c-1.075.588-26.342,14.407-28.36,14.911-1.284.574-8.211,13.836-14.069,26.02a.46.46,0,0,1-.416.261" transform="translate(-11.928 -10.045)" fill="#fff"/>
              <path id="Trazado_875732" data-name="Trazado 875732" d="M143.677,199.815a.462.462,0,0,1-.453-.381c-.7-3.969-4.007-10.613-4.04-10.679a.461.461,0,1,1,.824-.412c.138.277,3.4,6.83,4.124,10.931a.461.461,0,0,1-.374.534.394.394,0,0,1-.08.007" transform="translate(-10.92 -14.762)" fill="#fff"/>
              <path id="Trazado_875733" data-name="Trazado 875733" d="M146.242,196.035a.461.461,0,0,1-.429-.292c-2.025-5.179-4.248-5.964-4.27-5.972a.463.463,0,0,1-.3-.577.457.457,0,0,1,.569-.3c.107.031,2.642.85,4.859,6.515a.461.461,0,0,1-.429.629" transform="translate(-11.084 -14.824)" fill="#fff"/>
              <path id="Trazado_875734" data-name="Trazado 875734" d="M148.374,201.512a.461.461,0,0,1-.428-.289,30.447,30.447,0,0,1-.98-3.182.46.46,0,1,1,.893-.223,30.383,30.383,0,0,0,.942,3.062.461.461,0,0,1-.256.6.469.469,0,0,1-.171.033" transform="translate(-11.534 -15.498)" fill="#fff"/>
              <path id="Trazado_875735" data-name="Trazado 875735" d="M227.314,97.132c-1.44,0-1.2,2.882-3.6,6.483s-6,10.8-9.606,13.206c-.723.483-2,1.27-3.614,2.243,1.833.791,3.717,2.819,5.024,7.3a14.146,14.146,0,0,1,2.673-3.059c3.841-2.882,4.321.96,6.482-1.2s6-10.8,6.723-16.327-2.642-8.644-4.081-8.644" transform="translate(-16.521 -7.623)" fill="#fff"/>
              <path id="Trazado_875736" data-name="Trazado 875736" d="M215.479,126.784a.412.412,0,0,1-.076-.006.46.46,0,0,1-.367-.325c-1.1-3.756-2.7-6.112-4.764-7a.46.46,0,0,1-.055-.817c1.713-1.033,2.924-1.784,3.6-2.232,2.615-1.743,5.3-6.218,7.457-9.814.727-1.211,1.413-2.354,2.019-3.264a18.259,18.259,0,0,0,2.028-4.263c.5-1.408.866-2.425,1.956-2.425a3.9,3.9,0,0,1,2.537,1.52,9.5,9.5,0,0,1,2,7.645c-.724,5.556-4.6,14.337-6.853,16.594a2.231,2.231,0,0,1-2.867.526c-.87-.346-1.771-.7-3.666.717a13.428,13.428,0,0,0-2.573,2.955.458.458,0,0,1-.376.2M211.395,119c1.793,1.1,3.22,3.215,4.25,6.314a11.991,11.991,0,0,1,2.23-2.413c2.31-1.732,3.61-1.213,4.559-.836.741.295,1.111.441,1.875-.322,2.136-2.137,5.906-10.8,6.591-16.062a8.57,8.57,0,0,0-1.781-6.916,3.121,3.121,0,0,0-1.844-1.207c-.422,0-.652.589-1.087,1.814a19.131,19.131,0,0,1-2.131,4.464c-.593.892-1.275,2.026-2,3.227-2.2,3.675-4.949,8.248-7.735,10.107-.588.392-1.572,1.006-2.93,1.83" transform="translate(-16.482 -7.584)" fill="#263238"/>
              <path id="Trazado_875737" data-name="Trazado 875737" d="M228.536,97.132c-1.16,0-1.232,1.871-2.471,4.48a26.465,26.465,0,0,1,6.6,3.608c.431-5.172-2.741-8.088-4.13-8.088" transform="translate(-17.743 -7.623)" fill="#a8a8a8"/>
              <path id="Trazado_875738" data-name="Trazado 875738" d="M232.628,105.642a.463.463,0,0,1-.283-.1A26.078,26.078,0,0,0,225.862,102a.461.461,0,0,1-.252-.628,23.833,23.833,0,0,0,.929-2.316c.5-1.409.867-2.428,1.958-2.428a3.722,3.722,0,0,1,2.416,1.393,9.289,9.289,0,0,1,2.174,7.194.456.456,0,0,1-.275.383.441.441,0,0,1-.184.039m-5.98-4.32a27.527,27.527,0,0,1,5.559,2.973,8.147,8.147,0,0,0-1.972-5.645,2.949,2.949,0,0,0-1.738-1.1c-.423,0-.652.59-1.091,1.816-.2.554-.435,1.221-.757,1.952" transform="translate(-17.704 -7.584)" fill="#263238"/>
              <path id="Trazado_875739" data-name="Trazado 875739" d="M104.012,164.883a17.361,17.361,0,0,0-4.254,3.094,87.152,87.152,0,0,0-4.64,7.605l5.156,5.413,3.738-13.018,1.933-1.418Z" transform="translate(-7.465 -12.941)" fill="#c6ff00"/>
              <path id="Trazado_875740" data-name="Trazado 875740" d="M100.234,181.416a.461.461,0,0,1-.334-.143l-5.156-5.414a.461.461,0,0,1-.069-.541,85.6,85.6,0,0,1,4.689-7.676,17.621,17.621,0,0,1,4.395-3.208.465.465,0,0,1,.515.061l1.933,1.675a.461.461,0,0,1-.029.72l-1.807,1.325-3.7,12.867a.457.457,0,0,1-.333.32.443.443,0,0,1-.11.014m-4.588-5.947,4.367,4.586,3.516-12.246a.459.459,0,0,1,.17-.244l1.468-1.076-1.256-1.089a15.74,15.74,0,0,0-3.839,2.832,79.481,79.481,0,0,0-4.427,7.238" transform="translate(-7.426 -12.902)" fill="#263238"/>
              <path id="Trazado_875741" data-name="Trazado 875741" d="M53.746,169.956s12.786-2.521,20.709-2.7S84.9,165.995,87.6,168.516s9.9,10.265,11.165,11.524,23.95-1.26,23.95-1.26,2.162,5.4.721,14.406a25.565,25.565,0,0,1-7.023,14.047s-15.14,2.212-25.212,1.44C71.926,207.2,64.809,200.239,59.946,194.3s-8.721-18.757-8.9-21.1,2.7-3.242,2.7-3.242" transform="translate(-4.006 -13.097)" fill="#7d6eb2"/>
              <path id="Trazado_875742" data-name="Trazado 875742" d="M95.874,209.257c-1.652,0-3.255-.049-4.745-.162-18.451-1.413-26.081-7.826-31.578-14.545-4.977-6.083-8.828-19.068-9-21.355-.205-2.676,2.891-3.675,3.023-3.716a.4.4,0,0,1,.048-.012c.128-.025,12.916-2.531,20.788-2.71,2.014-.046,3.646-.147,5.088-.239,4.146-.257,6.227-.39,8.383,1.624,1.866,1.742,5.9,6,8.575,8.814,1.235,1.3,2.208,2.329,2.6,2.721,1.028.676,12.918-.208,23.574-1.392a.463.463,0,0,1,.479.287c.089.225,2.191,5.625.747,14.651a25.8,25.8,0,0,1-7.169,14.315.467.467,0,0,1-.242.114,169.3,169.3,0,0,1-20.568,1.606m-42.05-38.893c-.242.084-2.5.911-2.359,2.76.171,2.228,3.934,14.9,8.8,20.842,5.368,6.56,12.831,12.823,30.935,14.209,9.385.722,23.393-1.194,24.966-1.416a25.53,25.53,0,0,0,6.779-13.683c1.205-7.531-.16-12.548-.58-13.836-5.762.634-22.675,2.374-23.962,1.088-.4-.4-1.376-1.429-2.618-2.739-2.664-2.809-6.69-7.053-8.536-8.777-1.865-1.742-3.573-1.633-7.7-1.377-1.449.091-3.092.194-5.125.241-7.614.172-19.926,2.554-20.6,2.687" transform="translate(-3.966 -13.058)" fill="#263238"/>
              <path id="Trazado_875743" data-name="Trazado 875743" d="M105.394,168.89s-9.364,1.2-10.325,3.842,3.842,21.129,5.282,22.09,5.043-1.44,5.043-1.44a113.894,113.894,0,0,0,20.649.48c12.246-.721,16.327-6.483,17.768-6.723s5.283-1.2,5.043-2.4-3.842-12.726-9.124-16.807-13.446-5.043-20.89-2.641a135.289,135.289,0,0,1-13.446,3.6" transform="translate(-7.452 -12.871)" fill="#fff"/>
              <path id="Trazado_875744" data-name="Trazado 875744" d="M101.182,195.465a1.994,1.994,0,0,1-1.122-.3c-1.853-1.237-6.394-20.06-5.46-22.631,1.021-2.809,9.619-4,10.682-4.139a136.977,136.977,0,0,0,13.38-3.586c7.627-2.46,15.995-1.394,21.312,2.716,5.438,4.2,9.056,15.888,9.294,17.082a1.077,1.077,0,0,1-.193.84c-.952,1.378-5.183,2.1-5.225,2.1a5.837,5.837,0,0,0-1.365.892c-2.272,1.714-7,5.28-16.452,5.836a117.916,117.916,0,0,1-20.567-.46,9.773,9.773,0,0,1-4.284,1.642m25.786-31.044a26.26,26.26,0,0,0-8.023,1.267,136.584,136.584,0,0,1-13.5,3.615l-.032.006c-3.513.451-9.32,1.812-9.95,3.542-.912,2.508,3.786,20.509,5.109,21.552.858.571,3.233-.581,4.527-1.444a.479.479,0,0,1,.321-.073,114.575,114.575,0,0,0,20.556.476c9.173-.539,13.751-3.992,15.951-5.652a4.944,4.944,0,0,1,1.768-1.065c1.626-.271,4.134-1.02,4.618-1.72.059-.085.051-.123.049-.136-.222-1.107-3.819-12.566-8.954-16.533a20.432,20.432,0,0,0-12.443-3.835m-21.61,4.431h0Z" transform="translate(-7.415 -12.833)" fill="#263238"/>
              <path id="Trazado_875745" data-name="Trazado 875745" d="M102.245,168.8l1.987,9.253,28.987-3.67-5.762-8.464Z" transform="translate(-8.025 -13.022)" fill="#fff"/>
              <path id="Trazado_875746" data-name="Trazado 875746" d="M104.192,178.475a.462.462,0,0,1-.451-.364l-1.985-9.253a.462.462,0,0,1,.076-.366.469.469,0,0,1,.322-.189l25.213-2.882a.459.459,0,0,1,.431.2l5.763,8.465a.46.46,0,0,1-.322.716l-28.988,3.67-.059,0m-1.428-9.313,1.79,8.342,27.821-3.523-5.183-7.612Z" transform="translate(-7.986 -12.983)" fill="#263238"/>
              <path id="Trazado_875747" data-name="Trazado 875747" d="M119.691,169.64l.517,1.31,1.8-.252-.485-1.307Z" transform="translate(-9.394 -13.295)" fill="#263238"/>
              <path id="Trazado_875748" data-name="Trazado 875748" d="M122.227,171.289l-1.786.25.628,1.591,1.751-.244Z" transform="translate(-9.453 -13.444)" fill="#263238"/>
              <path id="Trazado_875749" data-name="Trazado 875749" d="M110.57,174.6l1.482-.206-.523-1.6-1.446.2Z" transform="translate(-8.64 -13.562)" fill="#263238"/>
              <path id="Trazado_875750" data-name="Trazado 875750" d="M122.182,169.3l.485,1.3,1.773-.249-.474-1.3Z" transform="translate(-9.59 -13.269)" fill="#263238"/>
              <path id="Trazado_875751" data-name="Trazado 875751" d="M111.515,170.749l.443,1.354,2.072-.291-.468-1.341Z" transform="translate(-8.752 -13.38)" fill="#263238"/>
              <path id="Trazado_875752" data-name="Trazado 875752" d="M117,170l.522,1.321,2.009-.282-.518-1.312Z" transform="translate(-9.183 -13.321)" fill="#263238"/>
              <path id="Trazado_875753" data-name="Trazado 875753" d="M114.242,170.378l.467,1.34,2.123-.3-.522-1.322Z" transform="translate(-8.966 -13.35)" fill="#263238"/>
              <path id="Trazado_875754" data-name="Trazado 875754" d="M120.388,173.223l-.628-1.591-2.009.282.628,1.59Z" transform="translate(-9.242 -13.471)" fill="#263238"/>
              <path id="Trazado_875755" data-name="Trazado 875755" d="M123.708,173.411l.293.789,1.764-.215-.3-.82Z" transform="translate(-9.709 -13.591)" fill="#263238"/>
              <path id="Trazado_875756" data-name="Trazado 875756" d="M127.015,170.618l-1.7.239.584,1.6,1.788-.249Z" transform="translate(-9.835 -13.391)" fill="#263238"/>
              <path id="Trazado_875757" data-name="Trazado 875757" d="M122.886,171.2l.593,1.6,1.761-.245-.584-1.6Z" transform="translate(-9.645 -13.417)" fill="#263238"/>
              <path id="Trazado_875758" data-name="Trazado 875758" d="M128.963,173.584l2.268-.276-.478-.883-2.152.3Z" transform="translate(-10.093 -13.533)" fill="#263238"/>
              <path id="Trazado_875759" data-name="Trazado 875759" d="M112.881,174.918l.2.625,2.147-.263-.229-.658Z" transform="translate(-8.86 -13.705)" fill="#263238"/>
              <path id="Trazado_875760" data-name="Trazado 875760" d="M114.235,172.408l-2.081.292.524,1.6,2.113-.295Z" transform="translate(-8.802 -13.532)" fill="#263238"/>
              <path id="Trazado_875761" data-name="Trazado 875761" d="M117.06,172.01l-2.143.3.558,1.6,2.213-.31Z" transform="translate(-9.019 -13.5)" fill="#263238"/>
              <path id="Trazado_875762" data-name="Trazado 875762" d="M118.622,174.118l.279.708,2.023-.246-.293-.743Z" transform="translate(-9.31 -13.644)" fill="#263238"/>
              <path id="Trazado_875763" data-name="Trazado 875763" d="M124.434,168.448l1.587-.216-.219-.522-1.555.225Z" transform="translate(-9.752 -13.163)" fill="#263238"/>
              <path id="Trazado_875764" data-name="Trazado 875764" d="M114.061,169.859l2.049-.278-.177-.447-2.023.293Z" transform="translate(-8.94 -13.275)" fill="#263238"/>
              <path id="Trazado_875765" data-name="Trazado 875765" d="M119.486,169.12l1.838-.25-.182-.488-1.842.266Z" transform="translate(-9.363 -13.216)" fill="#263238"/>
              <path id="Trazado_875766" data-name="Trazado 875766" d="M116.793,169.486l2.013-.274-.185-.468-2.005.291Z" transform="translate(-9.153 -13.244)" fill="#263238"/>
              <path id="Trazado_875767" data-name="Trazado 875767" d="M111.345,170.229l2.038-.277-.149-.428-2.025.293Z" transform="translate(-8.728 -13.305)" fill="#263238"/>
              <path id="Trazado_875768" data-name="Trazado 875768" d="M110.724,170.323l-.134-.408-1.385.2.121.4Z" transform="translate(-8.571 -13.336)" fill="#263238"/>
              <path id="Trazado_875769" data-name="Trazado 875769" d="M112.452,175.63l-.2-.617-1.491.208.181.593Z" transform="translate(-8.693 -13.736)" fill="#263238"/>
              <path id="Trazado_875770" data-name="Trazado 875770" d="M126.666,168.143l1.688-.229-.288-.531-1.623.235Z" transform="translate(-9.924 -13.137)" fill="#263238"/>
              <path id="Trazado_875771" data-name="Trazado 875771" d="M109.9,172.4l1.436-.2-.444-1.356-1.407.191Z" transform="translate(-8.593 -13.409)" fill="#263238"/>
              <path id="Trazado_875772" data-name="Trazado 875772" d="M127.934,172.821l-1.813.253.3.828,1.87-.229Z" transform="translate(-9.899 -13.564)" fill="#263238"/>
              <path id="Trazado_875773" data-name="Trazado 875773" d="M121.988,168.779l1.787-.243-.185-.508-1.785.258Z" transform="translate(-9.56 -13.188)" fill="#263238"/>
              <path id="Trazado_875774" data-name="Trazado 875774" d="M117.922,174.212l-2.233.312.232.666,2.277-.278Z" transform="translate(-9.08 -13.673)" fill="#263238"/>
              <path id="Trazado_875775" data-name="Trazado 875775" d="M123.053,173.5l-1.742.243.3.75,1.735-.212Z" transform="translate(-9.521 -13.617)" fill="#263238"/>
              <path id="Trazado_875776" data-name="Trazado 875776" d="M124.625,168.973l.473,1.295,1.677-.235-.539-1.278Z" transform="translate(-9.781 -13.245)" fill="#263238"/>
              <path id="Trazado_875777" data-name="Trazado 875777" d="M129.6,170.253l-1.924.27.67,1.591,2.1-.293Z" transform="translate(-10.02 -13.362)" fill="#263238"/>
              <path id="Trazado_875778" data-name="Trazado 875778" d="M127.425,169.941l1.875-.264-.676-1.249-1.737.235Z" transform="translate(-9.959 -13.219)" fill="#263238"/>
              <path id="Trazado_875779" data-name="Trazado 875779" d="M135.367,172.528l1.621-26.652-6.3-3.6-1.08,21.789Z" transform="translate(-10.172 -11.167)" fill="#fff"/>
              <path id="Trazado_875780" data-name="Trazado 875780" d="M135.328,172.95a.457.457,0,0,1-.381-.2l-5.763-8.464A.458.458,0,0,1,129.1,164l1.08-21.789a.462.462,0,0,1,.239-.382.466.466,0,0,1,.451,0l6.3,3.6a.461.461,0,0,1,.231.428l-1.62,26.652a.463.463,0,0,1-.338.417.5.5,0,0,1-.122.016m-5.3-9.057,4.916,7.222,1.521-25.02-5.4-3.088Z" transform="translate(-10.133 -11.127)" fill="#263238"/>
              <path id="Trazado_875781" data-name="Trazado 875781" d="M131.79,145.06l-.835,18.957,3.225,4.608,1.152-21.195Z" transform="translate(-10.278 -11.385)" fill="#26aab7"/>
              <path id="Trazado_875782" data-name="Trazado 875782" d="M134.161,168.836a.232.232,0,0,1-.189-.1l-3.225-4.608a.232.232,0,0,1-.041-.143l.835-18.957a.231.231,0,0,1,.358-.182l3.542,2.37a.232.232,0,0,1,.1.2l-1.152,21.195a.229.229,0,0,1-.167.208.211.211,0,0,1-.063.009m-2.992-4.906,2.8,4,1.109-20.4-3.093-2.07Z" transform="translate(-10.258 -11.366)" fill="#263238"/>
              <path id="Trazado_875783" data-name="Trazado 875783" d="M117.917,161.5a2.286,2.286,0,0,1,2.269.561c1.249,1.01,3.972,3.254,3.632,3.815s-.794.561-1.475-.112-4.425-4.264-4.425-4.264" transform="translate(-9.255 -12.668)" fill="#fff"/>
              <path id="Trazado_875784" data-name="Trazado 875784" d="M123.2,166.708a1.886,1.886,0,0,1-1.22-.653c-.679-.672-4.42-4.258-4.42-4.258a.461.461,0,0,1,.134-.755,2.727,2.727,0,0,1,2.744.624c3.615,2.927,4.1,3.81,3.735,4.413a1.165,1.165,0,0,1-.85.621.935.935,0,0,1-.123.008m-4.191-4.8c1.143,1.1,3.14,3.016,3.619,3.491.406.4.579.39.583.386.024,0,.067-.036.118-.1-.1-.24-.651-1.018-3.47-3.3a2.585,2.585,0,0,0-.85-.474" transform="translate(-9.216 -12.629)" fill="#263238"/>
              <path id="Trazado_875785" data-name="Trazado 875785" d="M114.84,161.5s2.062-.773,2.836,0,5.8,4.769,5.414,5.543-1.031.128-1.8.128-6.445-5.671-6.445-5.671" transform="translate(-9.013 -12.648)" fill="#fff"/>
              <path id="Trazado_875786" data-name="Trazado 875786" d="M122.52,167.839a2.361,2.361,0,0,1-.673-.127,2.239,2.239,0,0,0-.6-.122c-.8,0-4.122-3.158-6.771-5.807a.46.46,0,0,1,.165-.757c.24-.091,2.368-.85,3.323.105.179.18.591.534,1.11.982,3.8,3.282,4.747,4.377,4.389,5.092a1,1,0,0,1-.942.633m-1.193-1.165a2.882,2.882,0,0,1,.784.155c.361.107.429.122.487.039-.247-.708-3.054-3.13-4.127-4.056-.544-.469-.973-.841-1.16-1.029-.292-.291-1.016-.234-1.63-.1,2.453,2.423,5.1,4.837,5.619,4.993h.027" transform="translate(-8.974 -12.609)" fill="#263238"/>
              <path id="Trazado_875787" data-name="Trazado 875787" d="M103.621,167.024s-1.418-1.031,1.546-2.835,6.574-3.352,7.863-3.223,7.347,6.187,7.347,6.187a.8.8,0,0,1-.516,1.031c-.773.258-5.671-3.352-6.573-3.352s-3.868,1.8-4.77,2.062-2.965,1.8-4.9.129" transform="translate(-8.106 -12.633)" fill="#fff"/>
              <path id="Trazado_875788" data-name="Trazado 875788" d="M119.739,168.616c-.6,0-1.635-.587-3.7-1.842a16.472,16.472,0,0,0-2.8-1.52,12.472,12.472,0,0,0-2.758,1.18,14.027,14.027,0,0,1-1.88.864,5.177,5.177,0,0,0-.585.241c-1.106.5-2.953,1.333-4.73-.2a1.374,1.374,0,0,1-.507-1.124c.032-.8.741-1.632,2.106-2.462,2.807-1.708,6.617-3.461,8.148-3.286,1.347.134,6.179,4.87,7.626,6.319a.458.458,0,0,1,.112.18,1.241,1.241,0,0,1-.806,1.614.725.725,0,0,1-.23.034m-6.489-4.284c.5,0,1.378.5,3.271,1.655a16.347,16.347,0,0,0,3.208,1.71.291.291,0,0,0,.2-.347c-2.842-2.833-6.29-5.9-6.979-5.965-1.116-.105-4.583,1.334-7.577,3.157-1.46.888-1.65,1.485-1.663,1.7a.452.452,0,0,0,.156.375l.023.018c1.334,1.157,2.735.524,3.758.064a5.69,5.69,0,0,1,.711-.287,14.985,14.985,0,0,0,1.716-.8,9.883,9.883,0,0,1,3.18-1.281" transform="translate(-8.067 -12.594)" fill="#263238"/>
              <path id="Trazado_875789" data-name="Trazado 875789" d="M108.795,165.443s6.831,2.578,7.218,2.578-.129,1.031-1.289,1.159-4-1.417-5.027-.9-3.116.353-4.651.305-1.536-1.851-1.536-1.851" transform="translate(-8.124 -12.985)" fill="#fff"/>
              <path id="Trazado_875790" data-name="Trazado 875790" d="M114.542,169.61a8.238,8.238,0,0,1-2.171-.5,5.432,5.432,0,0,0-2.507-.456c-1,.5-2.735.437-4.26.376l-.612-.022a2.151,2.151,0,0,1-1.982-2.313.461.461,0,1,1,.922,0c0,.138.041,1.36,1.089,1.391l.618.023a9.958,9.958,0,0,0,3.813-.279c.749-.374,1.939,0,3.2.4a6.767,6.767,0,0,0,1.984.456,1.445,1.445,0,0,0,.828-.367c-1.222-.372-4.278-1.5-6.87-2.483a.461.461,0,1,1,.326-.863c2.513.949,6.662,2.481,7.1,2.552a.588.588,0,0,1,.545.55c.03.536-.665,1.4-1.824,1.526a1.664,1.664,0,0,1-.194.009m1.432-1.167h0Zm-.048,0a.288.288,0,0,0,.047,0,.359.359,0,0,1-.047,0" transform="translate(-8.085 -12.946)" fill="#263238"/>
              <path id="Trazado_875791" data-name="Trazado 875791" d="M62.985,170.763s-5.943-4.142-11.886-2.341-4.5,9.9-.18,18.368,21.79,25.031,24.671,26.833,5.583,0,7.743-3.422,7.024-23.77,8.464-27.012,2.161-5.222,2.161-5.222a14.729,14.729,0,0,0,4.5-1.981c1.62-1.261,4.141-3.241,4.141-3.241s6.483-2.7,7.024-3.061-.181-.9-.9-.9h-8.1c-3.6,0-8.284,3.963-9.9,5.763s-12.967,22.69-12.967,22.69L63.166,177.246" transform="translate(-3.7 -13.183)" fill="#7d6eb2"/>
              <path id="Trazado_875792" data-name="Trazado 875792" d="M77.835,214.752a4.728,4.728,0,0,1-2.528-.78c-2.9-1.812-20.412-18.346-24.837-27.012-3.5-6.855-4.645-12.469-3.224-15.81a5.538,5.538,0,0,1,3.681-3.209c6.087-1.845,12.032,2.23,12.282,2.4a.46.46,0,1,1-.526.756c-.057-.04-5.834-3.99-11.489-2.278a4.657,4.657,0,0,0-3.1,2.687c-1.312,3.086-.177,8.424,3.2,15.031,4.256,8.336,21.725,24.913,24.5,26.651,2.986,1.866,5.514-.752,7.109-3.277,1.261-2,3.571-10.291,5.429-16.958,1.295-4.651,2.413-8.668,3-10,1.416-3.187,2.143-5.172,2.149-5.193a.462.462,0,0,1,.321-.289,14.326,14.326,0,0,0,4.331-1.9c1.621-1.26,4.14-3.24,4.14-3.24a.488.488,0,0,1,.108-.064c2.316-.965,6.012-2.534,6.815-2.945a1.113,1.113,0,0,0-.515-.13h-8.1c-3.378,0-7.981,3.853-9.563,5.61-1.253,1.393-8.988,15.393-12.9,22.6a.461.461,0,0,1-.375.24.434.434,0,0,1-.4-.188L62.754,177.478a.461.461,0,1,1,.745-.544l14.158,19.4c1.954-3.588,11.184-20.477,12.68-22.139,1.736-1.93,6.525-5.915,10.247-5.915h8.1a1.592,1.592,0,0,1,1.518.861.772.772,0,0,1-.361.885c-.541.359-5.831,2.573-7.044,3.079-.359.282-2.606,2.047-4.094,3.2a14.39,14.39,0,0,1-4.436,2c-.23.611-.933,2.424-2.088,5.025-.563,1.266-1.673,5.253-2.959,9.868-1.971,7.074-4.2,15.093-5.536,17.2-1.813,2.87-3.827,4.346-5.85,4.346" transform="translate(-3.661 -13.143)" fill="#263238"/>
              <path id="Trazado_875793" data-name="Trazado 875793" d="M105.944,172.813s6.483-2.7,7.023-3.061-.18-.9-.9-.9h-8.1c-3.6,0-8.283,3.962-9.9,5.762a78.061,78.061,0,0,0-4.342,7.14l5.263,1.9c.057-.149.111-.284.16-.394,1.44-3.241,2.161-5.222,2.161-5.222a14.706,14.706,0,0,0,4.5-1.98c1.621-1.261,4.142-3.242,4.142-3.242" transform="translate(-7.041 -13.252)" fill="#fff"/>
              <path id="Trazado_875794" data-name="Trazado 875794" d="M94.94,184.073a.487.487,0,0,1-.157-.027l-5.263-1.9a.462.462,0,0,1-.244-.662,70.95,70.95,0,0,1,4.4-7.219c1.736-1.93,6.525-5.915,10.246-5.915h8.1a1.591,1.591,0,0,1,1.518.86.772.772,0,0,1-.361.885c-.541.36-5.831,2.573-7.044,3.079-.359.283-2.606,2.048-4.094,3.2a14.361,14.361,0,0,1-4.436,2c-.23.611-.933,2.425-2.088,5.025-.047.105-.1.23-.151.372a.46.46,0,0,1-.43.3m-4.591-2.607,4.331,1.563c1.415-3.186,2.141-5.171,2.148-5.191a.462.462,0,0,1,.321-.289,14.3,14.3,0,0,0,4.331-1.9c1.62-1.26,4.14-3.24,4.14-3.24a.52.52,0,0,1,.107-.064c2.317-.964,6.013-2.534,6.815-2.945a1.11,1.11,0,0,0-.514-.129h-8.1c-3.377,0-7.98,3.852-9.562,5.609a62.068,62.068,0,0,0-4.013,6.584" transform="translate(-7.002 -13.213)" fill="#263238"/>
            </g>
          </g>
          <g id="Grupo_1100493" data-name="Grupo 1100493">
            <g id="Grupo_1100492" data-name="Grupo 1100492" clip-path="url(#clip-path)">
              <path id="Trazado_875795" data-name="Trazado 875795" d="M285.558,37.3H5.725A4.147,4.147,0,0,1,1.578,33.15V4.647A4.147,4.147,0,0,1,5.725.5H285.558a4.147,4.147,0,0,1,4.147,4.147v28.5a4.147,4.147,0,0,1-4.147,4.147" transform="translate(-0.124 -0.039)" fill="#fff"/>
              <path id="Trazado_875796" data-name="Trazado 875796" d="M285.519,37.718H5.686a4.613,4.613,0,0,1-4.608-4.608V4.608A4.613,4.613,0,0,1,5.686,0H285.519a4.613,4.613,0,0,1,4.608,4.608v28.5a4.613,4.613,0,0,1-4.608,4.608M5.686.922A3.69,3.69,0,0,0,2,4.608v28.5A3.69,3.69,0,0,0,5.686,36.8H285.519a3.69,3.69,0,0,0,3.686-3.686V4.608A3.69,3.69,0,0,0,285.519.922Z" transform="translate(-0.085)" fill="#263238"/>
              <path id="Trazado_875797" data-name="Trazado 875797" d="M306.609,37.3H269.794V.5h36.815a4.147,4.147,0,0,1,4.147,4.147v28.5a4.147,4.147,0,0,1-4.147,4.147" transform="translate(-21.175 -0.039)" fill="#263238"/>
              <path id="Trazado_875798" data-name="Trazado 875798" d="M306.57,37.718H269.754a.461.461,0,0,1-.461-.461V.461A.46.46,0,0,1,269.754,0H306.57a4.613,4.613,0,0,1,4.608,4.608v28.5a4.613,4.613,0,0,1-4.608,4.608M270.215,36.8H306.57a3.69,3.69,0,0,0,3.686-3.686V4.608A3.69,3.69,0,0,0,306.57.922H270.215Z" transform="translate(-21.136)" fill="#263238"/>
              <path id="Trazado_875799" data-name="Trazado 875799" d="M25.574,26.409a2.207,2.207,0,0,1-.44,1.477,1.582,1.582,0,0,1-1.269.512,1.556,1.556,0,0,1-1.239-.512,2.184,2.184,0,0,1-.446-1.477V20.661a2.577,2.577,0,0,0-.6-1.837,2.045,2.045,0,0,0-1.556-.64,2.618,2.618,0,0,0-1.977.885,3.224,3.224,0,0,0-.83,2.3v5.041a2.188,2.188,0,0,1-.445,1.477,1.6,1.6,0,0,1-1.275.512,1.556,1.556,0,0,1-1.239-.512,2.184,2.184,0,0,1-.446-1.477V12.729a2.207,2.207,0,0,1,.433-1.464,1.518,1.518,0,0,1,1.227-.513,1.618,1.618,0,0,1,1.282.513,2.142,2.142,0,0,1,.452,1.464v5.137a3.817,3.817,0,0,1,1.574-1.427,5.267,5.267,0,0,1,2.38-.5,5.074,5.074,0,0,1,1.7.275,4.279,4.279,0,0,1,1.4.817,3.639,3.639,0,0,1,.976,1.452,5.71,5.71,0,0,1,.354,2.081Z" transform="translate(-1.084 -0.844)" fill="#263238"/>
              <path id="Trazado_875800" data-name="Trazado 875800" d="M31.643,27.549a4.423,4.423,0,0,1-.964-3.118V18.5H29.665a1.046,1.046,0,0,1-1.2-1.172,1.08,1.08,0,0,1,.287-.793,1.171,1.171,0,0,1,.873-.293h1.183l.33-2.82q.195-1.757,1.648-1.757,1.294,0,1.294,1.77v2.807h1.769A1.014,1.014,0,0,1,37,17.389q0,1.11-1.184,1.11H34.084v5.137a4.186,4.186,0,0,0,.311,1.873,1.144,1.144,0,0,0,1.1.58h.147l.805-.036h.073a.928.928,0,0,1,.769.354,1.3,1.3,0,0,1,.28.829,1.254,1.254,0,0,1-.091.495,1.185,1.185,0,0,1-.226.354,1.074,1.074,0,0,1-.378.238,3.81,3.81,0,0,1-.458.153,3.378,3.378,0,0,1-.568.079q-.354.023-.6.03t-.664.006h-.256a3.533,3.533,0,0,1-2.685-1.043" transform="translate(-2.234 -0.916)" fill="#263238"/>
              <path id="Trazado_875801" data-name="Trazado 875801" d="M42.291,27.549a4.427,4.427,0,0,1-.964-3.118V18.5H40.314a1.047,1.047,0,0,1-1.2-1.172,1.08,1.08,0,0,1,.287-.793,1.171,1.171,0,0,1,.873-.293h1.184l.329-2.82q.195-1.757,1.648-1.757,1.294,0,1.294,1.77v2.807H46.5a1.014,1.014,0,0,1,1.147,1.147q0,1.11-1.184,1.11H44.732v5.137a4.186,4.186,0,0,0,.311,1.873,1.144,1.144,0,0,0,1.1.58h.147l.805-.036h.074a.928.928,0,0,1,.769.354,1.3,1.3,0,0,1,.28.829,1.254,1.254,0,0,1-.091.495,1.185,1.185,0,0,1-.226.354,1.074,1.074,0,0,1-.378.238,3.809,3.809,0,0,1-.458.153,3.378,3.378,0,0,1-.568.079q-.354.023-.6.03t-.664.006h-.256a3.533,3.533,0,0,1-2.685-1.043" transform="translate(-3.07 -0.916)" fill="#263238"/>
              <path id="Trazado_875802" data-name="Trazado 875802" d="M51.584,32.912a2.224,2.224,0,0,1-.428-1.471V18.664a2.3,2.3,0,0,1,.464-1.52,1.556,1.556,0,0,1,1.258-.555,1.662,1.662,0,0,1,1.22.433,1.627,1.627,0,0,1,.44,1.215v.341a4.167,4.167,0,0,1,4.039-2.184,4.746,4.746,0,0,1,3.845,1.751,7,7,0,0,1,1.452,4.62,6.51,6.51,0,0,1-1.513,4.576,5.1,5.1,0,0,1-3.942,1.648,4.047,4.047,0,0,1-3.869-2v4.455a2.144,2.144,0,0,1-.452,1.471,1.645,1.645,0,0,1-1.294.507,1.508,1.508,0,0,1-1.22-.507m7.383-6.487a2.473,2.473,0,0,0,.928-.9,4.466,4.466,0,0,0,.506-1.282,6.784,6.784,0,0,0,.165-1.537,6.651,6.651,0,0,0-.147-1.41,5.347,5.347,0,0,0-.464-1.3,2.481,2.481,0,0,0-.916-1,2.576,2.576,0,0,0-1.391-.372,2.674,2.674,0,0,0-2.374,1.038,5.381,5.381,0,0,0-.714,3.051,5.008,5.008,0,0,0,.775,2.941,2.61,2.61,0,0,0,2.276,1.1,2.721,2.721,0,0,0,1.355-.33" transform="translate(-4.015 -1.287)" fill="#263238"/>
              <path id="Trazado_875803" data-name="Trazado 875803" d="M67.348,27.183a1.039,1.039,0,0,1-.116-.482,1.067,1.067,0,0,1,.079-.4,1.314,1.314,0,0,1,.214-.354.94.94,0,0,1,.342-.251,1.048,1.048,0,0,1,.427-.091,1.344,1.344,0,0,1,.66.183c.016.007.091.051.225.128s.226.128.276.152.144.071.287.14.256.121.341.153l.348.135a2.887,2.887,0,0,0,.409.128c.125.029.268.059.427.091a3.82,3.82,0,0,0,.494.067c.171.012.342.018.513.018a5.349,5.349,0,0,0,.873-.067,3.284,3.284,0,0,0,.775-.226,1.362,1.362,0,0,0,.58-.458,1.177,1.177,0,0,0,.213-.7,1.011,1.011,0,0,0-.4-.781,2.977,2.977,0,0,0-1.19-.549l-1.818-.476q-.647-.184-1.068-.311t-.9-.317a4.519,4.519,0,0,1-.769-.379,4.066,4.066,0,0,1-.58-.458,1.98,1.98,0,0,1-.44-.58,3.412,3.412,0,0,1-.25-.726,4.032,4.032,0,0,1-.1-.927,3.019,3.019,0,0,1,1.379-2.6,5.048,5.048,0,0,1,1.562-.671,8.043,8.043,0,0,1,2-.232,9.257,9.257,0,0,1,3.966.9,1.222,1.222,0,0,1,.544.458,1.131,1.131,0,0,1,.177.6,1.015,1.015,0,0,1-.269.7.905.905,0,0,1-.708.3,1.387,1.387,0,0,1-.25-.024,1.658,1.658,0,0,1-.263-.074,1.3,1.3,0,0,1-.122-.049,9.094,9.094,0,0,0-2.9-.6,4.566,4.566,0,0,0-.97.1,1.824,1.824,0,0,0-.769.36.811.811,0,0,0-.323.653.944.944,0,0,0,.341.8,3.581,3.581,0,0,0,1.245.482l1.806.452a11.283,11.283,0,0,1,1.69.556,4.947,4.947,0,0,1,1.209.732,2.623,2.623,0,0,1,.762,1.031,3.657,3.657,0,0,1,.244,1.391,3.529,3.529,0,0,1-.659,2.16,3.839,3.839,0,0,1-1.764,1.312,7.1,7.1,0,0,1-2.544.421,8.3,8.3,0,0,1-4.894-1.44,1.051,1.051,0,0,1-.347-.384" transform="translate(-5.275 -1.282)" fill="#263238"/>
              <path id="Trazado_875804" data-name="Trazado 875804" d="M81.935,19.251a1.732,1.732,0,0,1-.543-1.318,1.781,1.781,0,0,1,.531-1.288,1.8,1.8,0,0,1,1.348-.543,1.856,1.856,0,0,1,1.331.525,1.733,1.733,0,0,1,.549,1.306,1.772,1.772,0,0,1-.531,1.293,1.816,1.816,0,0,1-1.349.537,1.872,1.872,0,0,1-1.336-.512m0,9.1a1.762,1.762,0,0,1-.543-1.312,1.78,1.78,0,0,1,.531-1.287,1.8,1.8,0,0,1,1.348-.543,1.866,1.866,0,0,1,1.331.519,1.726,1.726,0,0,1,.549,1.311,1.782,1.782,0,0,1-.537,1.3,1.811,1.811,0,0,1-1.343.543,1.838,1.838,0,0,1-1.336-.531" transform="translate(-6.388 -1.264)" fill="#263238"/>
              <path id="Trazado_875805" data-name="Trazado 875805" d="M88.8,29.58a.958.958,0,0,1-.36-.781,3.757,3.757,0,0,1,.183-.854l5.467-16.183a2.219,2.219,0,0,1,.482-.878.968.968,0,0,1,.726-.33,1.2,1.2,0,0,1,.818.3,1.037,1.037,0,0,1,.341.824,2.95,2.95,0,0,1-.17.817l-5.614,16.6a1.041,1.041,0,0,1-1.062.781,1.253,1.253,0,0,1-.812-.293" transform="translate(-6.941 -0.828)" fill="#263238"/>
              <path id="Trazado_875806" data-name="Trazado 875806" d="M99.113,29.58a.958.958,0,0,1-.36-.781,3.757,3.757,0,0,1,.183-.854L104.4,11.761a2.219,2.219,0,0,1,.482-.878.968.968,0,0,1,.726-.33,1.2,1.2,0,0,1,.817.3,1.035,1.035,0,0,1,.342.824,2.95,2.95,0,0,1-.17.817l-5.614,16.6a1.041,1.041,0,0,1-1.062.781,1.251,1.251,0,0,1-.812-.293" transform="translate(-7.751 -0.828)" fill="#263238"/>
              <path id="Trazado_875807" data-name="Trazado 875807" d="M122.185,28.326a5.078,5.078,0,0,1-1.031-2.13l-2.185-6.6-2.184,6.6a5.1,5.1,0,0,1-1.031,2.13,2.18,2.18,0,0,1-1.568.531,1.734,1.734,0,0,1-1.349-.592,4.956,4.956,0,0,1-.909-1.934l-2.441-7.713a2,2,0,0,1-.086-.562,1.423,1.423,0,0,1,.214-.769,1.386,1.386,0,0,1,.549-.512,1.576,1.576,0,0,1,.726-.171,1.463,1.463,0,0,1,.6.129,1.509,1.509,0,0,1,.531.415,1.769,1.769,0,0,1,.354.7l2.209,7.628,2.233-6.81a4.166,4.166,0,0,1,.788-1.587,2.1,2.1,0,0,1,2.721,0,4.153,4.153,0,0,1,.787,1.587l2.234,6.81,2.209-7.628a1.691,1.691,0,0,1,.586-.927,1.469,1.469,0,0,1,.915-.318,1.492,1.492,0,0,1,1.031.4,1.351,1.351,0,0,1,.445,1.05,1.994,1.994,0,0,1-.018.275,1.536,1.536,0,0,1-.066.288l-2.441,7.713a4.955,4.955,0,0,1-.91,1.934,1.732,1.732,0,0,1-1.348.592,2.18,2.18,0,0,1-1.568-.531" transform="translate(-8.586 -1.301)" fill="#263238"/>
              <path id="Trazado_875808" data-name="Trazado 875808" d="M145.044,28.326a5.078,5.078,0,0,1-1.031-2.13l-2.185-6.6-2.184,6.6a5.1,5.1,0,0,1-1.031,2.13,2.18,2.18,0,0,1-1.568.531,1.734,1.734,0,0,1-1.349-.592,4.956,4.956,0,0,1-.909-1.934l-2.441-7.713a2,2,0,0,1-.086-.562,1.423,1.423,0,0,1,.214-.769,1.386,1.386,0,0,1,.549-.512,1.573,1.573,0,0,1,.726-.171,1.463,1.463,0,0,1,.6.129,1.509,1.509,0,0,1,.531.415,1.769,1.769,0,0,1,.354.7l2.209,7.628,2.233-6.81a4.165,4.165,0,0,1,.788-1.587,2.1,2.1,0,0,1,2.721,0,4.153,4.153,0,0,1,.787,1.587l2.234,6.81,2.209-7.628a1.7,1.7,0,0,1,.586-.927,1.469,1.469,0,0,1,.915-.318,1.492,1.492,0,0,1,1.031.4,1.351,1.351,0,0,1,.445,1.05,1.991,1.991,0,0,1-.018.275,1.537,1.537,0,0,1-.066.288L148.87,26.33a4.955,4.955,0,0,1-.91,1.934,1.732,1.732,0,0,1-1.348.592,2.18,2.18,0,0,1-1.568-.531" transform="translate(-10.381 -1.301)" fill="#263238"/>
              <path id="Trazado_875809" data-name="Trazado 875809" d="M167.9,28.326a5.078,5.078,0,0,1-1.031-2.13l-2.185-6.6L162.5,26.2a5.1,5.1,0,0,1-1.031,2.13,2.18,2.18,0,0,1-1.568.531,1.733,1.733,0,0,1-1.349-.592,4.942,4.942,0,0,1-.909-1.934L155.2,18.617a2,2,0,0,1-.086-.562,1.415,1.415,0,0,1,.214-.769,1.386,1.386,0,0,1,.549-.512,1.573,1.573,0,0,1,.726-.171,1.463,1.463,0,0,1,.6.129,1.509,1.509,0,0,1,.531.415,1.769,1.769,0,0,1,.354.7l2.209,7.628,2.233-6.81a4.152,4.152,0,0,1,.788-1.587,2.1,2.1,0,0,1,2.721,0,4.153,4.153,0,0,1,.787,1.587l2.234,6.81,2.209-7.628a1.691,1.691,0,0,1,.586-.927,1.469,1.469,0,0,1,.915-.318,1.492,1.492,0,0,1,1.031.4,1.351,1.351,0,0,1,.445,1.05,1.991,1.991,0,0,1-.018.275,1.471,1.471,0,0,1-.067.288l-2.44,7.713a4.955,4.955,0,0,1-.91,1.934,1.732,1.732,0,0,1-1.348.592,2.18,2.18,0,0,1-1.568-.531" transform="translate(-12.175 -1.301)" fill="#263238"/>
              <path id="Trazado_875810" data-name="Trazado 875810" d="M302.582,29.36l-8.97-9.81a2.067,2.067,0,0,0-.371-.315,9.26,9.26,0,1,0-3,2.685,2.084,2.084,0,0,0,.3.44l8.97,9.81a2.083,2.083,0,1,0,3.073-2.812M278.547,13.836a7.182,7.182,0,1,1,7.181,7.181,7.19,7.19,0,0,1-7.181-7.181" transform="translate(-21.699 -0.359)" fill="#fff"/>
              <path id="Trazado_875811" data-name="Trazado 875811" d="M133.361,120.158a.461.461,0,0,1-.461-.461V41.41a.461.461,0,1,1,.922,0V119.7a.461.461,0,0,1-.461.461" transform="translate(-10.431 -3.214)" fill="#263238"/>
            </g>
          </g>
        </g>
      </g>
    </g>
  </g>
</svg>
