<svg xmlns="http://www.w3.org/2000/svg" xmlns:xlink="http://www.w3.org/1999/xlink" width="521.057" height="269.594" viewBox="0 0 521.057 269.594">
  <defs>
    <clipPath id="clip-path">
      <rect id="Rectángulo_401759" data-name="Rectángulo 401759" width="431.962" height="259.388" fill="none"/>
    </clipPath>
    <clipPath id="clip-path-2">
      <rect id="Rectángulo_401778" data-name="Rectángulo 401778" width="340.708" height="192.542" transform="translate(46.38 19.303)" fill="none"/>
    </clipPath>
  </defs>
  <g id="Grupo_1101625" data-name="Grupo 1101625" transform="translate(-2763.472 2767.694)">
    <g id="Grupo_1100498" data-name="Grupo 1100498">
      <path id="Rectángulo_401656" data-name="Rectángulo 401656" d="M53,0H476.057a45,45,0,0,1,45,45V222.679a0,0,0,0,1,0,0H0a0,0,0,0,1,0,0V53A53,53,0,0,1,53,0Z" transform="translate(2763.472 -2720.779)" fill="#aee6e6"/>
      <g id="Grupo_1100467" data-name="Grupo 1100467" transform="translate(2817 -2767.694)">
        <g id="Grupo_1100460" data-name="Grupo 1100460">
          <g id="Grupo_1100459" data-name="Grupo 1100459" clip-path="url(#clip-path)">
            <path id="Trazado_875400" data-name="Trazado 875400" d="M402.129,241.177H31.337V10.956A10.455,10.455,0,0,1,41.792.5H391.673a10.456,10.456,0,0,1,10.456,10.456Z" fill="#7d6eb2"/>
            <path id="Trazado_875401" data-name="Trazado 875401" d="M402.129,241.677H31.337a.5.5,0,0,1-.5-.5V10.955A10.968,10.968,0,0,1,41.793,0H391.674a10.968,10.968,0,0,1,10.955,10.956V241.177a.5.5,0,0,1-.5.5m-370.292-1H401.629V10.956A9.967,9.967,0,0,0,391.674,1H41.793a9.967,9.967,0,0,0-9.956,9.955Z" fill="#263238"/>
            <rect id="Rectángulo_401756" data-name="Rectángulo 401756" width="254.828" height="12.556" transform="translate(90.169 229.59)" fill="#263238"/>
            <path id="Trazado_875402" data-name="Trazado 875402" d="M345,242.646H90.169a.5.5,0,0,1-.5-.5V229.59a.5.5,0,0,1,.5-.5H345a.5.5,0,0,1,.5.5v12.556a.5.5,0,0,1-.5.5m-254.328-1H344.5V230.09H90.669Z" fill="#263238"/>
            <rect id="Rectángulo_401757" data-name="Rectángulo 401757" width="254.828" height="6.51" transform="translate(90.169 235.636)" fill="#fff"/>
            <path id="Trazado_875403" data-name="Trazado 875403" d="M345,242.646H90.169a.5.5,0,0,1-.5-.5v-6.51a.5.5,0,0,1,.5-.5H345a.5.5,0,0,1,.5.5v6.51a.5.5,0,0,1-.5.5m-254.328-1H344.5v-5.51H90.669Z" fill="#263238"/>
            <path id="Trazado_875404" data-name="Trazado 875404" d="M1.351,249.586s4.185,5.115,16.741,9.3H417.074s9.3-2.325,13.486-8.835Z" fill="#263238"/>
            <path id="Trazado_875405" data-name="Trazado 875405" d="M417.074,259.386H18.092a.527.527,0,0,1-.158-.025C5.385,255.178,1.14,250.116.965,249.9a.5.5,0,0,1,.387-.817h0l429.208.465a.5.5,0,0,1,.42.771c-4.244,6.6-13.4,8.952-13.786,9.049a.489.489,0,0,1-.121.015m-398.9-1H417.01c.746-.2,8.541-2.4,12.6-7.836L2.552,250.087c1.728,1.59,6.385,5.209,15.621,8.3" fill="#263238"/>
            <path id="Trazado_875406" data-name="Trazado 875406" d="M429.567,250.2H2.395A1.9,1.9,0,0,1,.5,248.307v-5.988a1.9,1.9,0,0,1,1.895-1.894H429.567a1.894,1.894,0,0,1,1.9,1.894v5.988a1.894,1.894,0,0,1-1.9,1.895" fill="#7d6eb2"/>
            <path id="Trazado_875407" data-name="Trazado 875407" d="M429.566,250.7H2.395A2.4,2.4,0,0,1,0,248.307V242.32a2.4,2.4,0,0,1,2.395-2.4H429.567a2.4,2.4,0,0,1,2.394,2.4v5.987a2.4,2.4,0,0,1-2.395,2.395M2.395,240.925A1.4,1.4,0,0,0,1,242.32v5.987A1.4,1.4,0,0,0,2.395,249.7H429.566a1.4,1.4,0,0,0,1.395-1.395V242.32a1.4,1.4,0,0,0-1.394-1.4Z" fill="#263238"/>
            <path id="Trazado_875408" data-name="Trazado 875408" d="M34.832,68.23h0a.93.93,0,0,1-.93-.93V40.329a.93.93,0,0,1,1.86,0V67.3a.93.93,0,0,1-.93.93" fill="#263238"/>
            <path id="Trazado_875409" data-name="Trazado 875409" d="M34.832,68.576A1.277,1.277,0,0,1,33.557,67.3V40.329a1.276,1.276,0,0,1,2.551,0V67.3a1.277,1.277,0,0,1-1.276,1.276m0-28.831a.585.585,0,0,0-.584.584V67.3a.584.584,0,1,0,1.169,0V40.329a.586.586,0,0,0-.585-.584" fill="#fff"/>
            <rect id="Rectángulo_401758" data-name="Rectángulo 401758" width="340.708" height="192.541" transform="translate(46.379 19.303)" fill="#f2f2f2"/>
          </g>
        </g>
        <g id="Grupo_1100462" data-name="Grupo 1100462">
          <g id="Grupo_1100461" data-name="Grupo 1100461" clip-path="url(#clip-path-2)">
            <rect id="Rectángulo_401760" data-name="Rectángulo 401760" width="5.377" height="146.012" transform="translate(125.465 58.842)" fill="#bec2c3"/>
            <rect id="Rectángulo_401761" data-name="Rectángulo 401761" width="5.377" height="23.991" transform="translate(125.465 72.491)" fill="#8c9295"/>
            <rect id="Rectángulo_401762" data-name="Rectángulo 401762" width="77.331" height="23.244" transform="translate(47.629 164.852)" fill="#bec2c3"/>
            <rect id="Rectángulo_401763" data-name="Rectángulo 401763" width="340.708" height="14.59" transform="translate(46.379 19.303)" fill="#61696e"/>
            <rect id="Rectángulo_401764" data-name="Rectángulo 401764" width="1.91" height="1.91" transform="translate(343.599 22.044)" fill="#fff"/>
            <rect id="Rectángulo_401765" data-name="Rectángulo 401765" width="1.91" height="1.91" transform="translate(346.846 22.044)" fill="#fff"/>
            <rect id="Rectángulo_401766" data-name="Rectángulo 401766" width="1.91" height="1.91" transform="translate(350.093 22.044)" fill="#fff"/>
            <rect id="Rectángulo_401767" data-name="Rectángulo 401767" width="1.91" height="1.91" transform="translate(343.599 25.291)" fill="#fff"/>
            <rect id="Rectángulo_401768" data-name="Rectángulo 401768" width="1.91" height="1.91" transform="translate(346.846 25.291)" fill="#fff"/>
            <rect id="Rectángulo_401769" data-name="Rectángulo 401769" width="1.91" height="1.91" transform="translate(350.093 25.291)" fill="#fff"/>
            <rect id="Rectángulo_401770" data-name="Rectángulo 401770" width="1.91" height="1.91" transform="translate(343.599 28.538)" fill="#fff"/>
            <rect id="Rectángulo_401771" data-name="Rectángulo 401771" width="1.91" height="1.91" transform="translate(346.846 28.538)" fill="#fff"/>
            <rect id="Rectángulo_401772" data-name="Rectángulo 401772" width="1.91" height="1.91" transform="translate(350.093 28.538)" fill="#fff"/>
            <rect id="Rectángulo_401773" data-name="Rectángulo 401773" width="145.402" height="10.376" transform="translate(161.306 21.168)" fill="#a8adaf"/>
            <path id="Trazado_875410" data-name="Trazado 875410" d="M68.116,29.885a2.48,2.48,0,0,1-.87-.556,2.453,2.453,0,0,1-.574-.935,3.8,3.8,0,0,1-.206-1.295,3.673,3.673,0,0,1,.111-.911,2.855,2.855,0,0,1,.344-.808,2.654,2.654,0,0,1,.571-.646A2.508,2.508,0,0,1,68.3,24.3a3.3,3.3,0,0,1,1.044-.157,4.235,4.235,0,0,1,1.632.294.283.283,0,0,1,.185.278.364.364,0,0,1-.083.234.255.255,0,0,1-.207.1.371.371,0,0,1-.081-.008,5.45,5.45,0,0,0-1.418-.25,2.3,2.3,0,0,0-.914.17,1.6,1.6,0,0,0-.641.477,2.1,2.1,0,0,0-.369.723,3.275,3.275,0,0,0-.123.931,3.507,3.507,0,0,0,.117.943,2.187,2.187,0,0,0,.351.731,1.516,1.516,0,0,0,.614.481,2.16,2.16,0,0,0,.885.17,4.708,4.708,0,0,0,1.269-.174V27.578H69.488a.257.257,0,0,1-.211-.1.326.326,0,0,1-.079-.21.339.339,0,0,1,.079-.219.254.254,0,0,1,.211-.1h1.555a.312.312,0,0,1,.248.1.387.387,0,0,1,.087.264v2.014a.422.422,0,0,1-.315.443,5.752,5.752,0,0,1-1.841.3,3.094,3.094,0,0,1-1.106-.191" fill="#fff"/>
            <path id="Trazado_875411" data-name="Trazado 875411" d="M72.738,29.475a2.313,2.313,0,0,1,0-2.985,2.148,2.148,0,0,1,2.945,0,2.322,2.322,0,0,1,0,2.987,2.151,2.151,0,0,1-2.947,0m2.425-.336a2.123,2.123,0,0,0,0-2.311,1.272,1.272,0,0,0-1.9,0,2.125,2.125,0,0,0,0,2.309,1.144,1.144,0,0,0,.945.425,1.166,1.166,0,0,0,.961-.421" fill="#fff"/>
            <path id="Trazado_875412" data-name="Trazado 875412" d="M77.4,29.475a2.313,2.313,0,0,1,0-2.985,2.148,2.148,0,0,1,2.945,0,2.322,2.322,0,0,1,0,2.987,2.151,2.151,0,0,1-2.947,0m2.425-.336a2.123,2.123,0,0,0,0-2.311,1.272,1.272,0,0,0-1.9,0,2.125,2.125,0,0,0,0,2.309,1.144,1.144,0,0,0,.945.425,1.166,1.166,0,0,0,.961-.421" fill="#fff"/>
            <path id="Trazado_875413" data-name="Trazado 875413" d="M82.07,31.4a.258.258,0,0,1-.153-.233.249.249,0,0,1,.07-.176.229.229,0,0,1,.171-.074.268.268,0,0,1,.093.016c.011,0,.043.015.1.037l.115.044.118.04c.058.019.105.032.141.041s.085.018.146.032.115.023.164.03.106.012.17.018.127.008.191.008a1.306,1.306,0,0,0,.943-.308,1.183,1.183,0,0,0,.318-.889v-.8a1.332,1.332,0,0,1-.5.583,1.438,1.438,0,0,1-.8.215,1.928,1.928,0,0,1-.788-.155,1.57,1.57,0,0,1-.58-.425,1.915,1.915,0,0,1-.35-.628A2.37,2.37,0,0,1,81.522,28a2.6,2.6,0,0,1,.207-1.058,1.77,1.77,0,0,1,.627-.755,1.711,1.711,0,0,1,.987-.286,1.385,1.385,0,0,1,1.337.778v-.407a.3.3,0,0,1,.111-.216.358.358,0,0,1,.228-.078.353.353,0,0,1,.242.09.322.322,0,0,1,.1.252v3.638a1.6,1.6,0,0,1-.513,1.294,2.107,2.107,0,0,1-1.4.435A2.891,2.891,0,0,1,82.07,31.4m2.252-2.3a1.749,1.749,0,0,0,.33-1.134,2.911,2.911,0,0,0-.036-.47,1.831,1.831,0,0,0-.123-.423,1.266,1.266,0,0,0-.218-.35.921.921,0,0,0-.336-.234,1.176,1.176,0,0,0-.463-.086,1.1,1.1,0,0,0-.693.219,1.232,1.232,0,0,0-.407.566,2.322,2.322,0,0,0-.125.794,1.651,1.651,0,0,0,.346,1.136,1.128,1.128,0,0,0,.879.387,1.043,1.043,0,0,0,.846-.4" fill="#fff"/>
            <path id="Trazado_875414" data-name="Trazado 875414" d="M86.7,29.892a.348.348,0,0,1-.1-.272V24.6a.336.336,0,0,1,.111-.266.383.383,0,0,1,.259-.1.364.364,0,0,1,.252.1.34.34,0,0,1,.107.266V29.62a.341.341,0,0,1-.111.268.376.376,0,0,1-.259.1.364.364,0,0,1-.254-.095" fill="#fff"/>
            <path id="Trazado_875415" data-name="Trazado 875415" d="M89.274,29.81a1.8,1.8,0,0,1-.712-.723,2.276,2.276,0,0,1-.263-1.114,2.348,2.348,0,0,1,.221-1.023,1.832,1.832,0,0,1,.669-.754,1.877,1.877,0,0,1,1.043-.29,2.015,2.015,0,0,1,.826.157,1.409,1.409,0,0,1,.565.433,1.977,1.977,0,0,1,.314.617,2.81,2.81,0,0,1,.116.747.288.288,0,0,1-.064.193.238.238,0,0,1-.193.077H89.032a1.436,1.436,0,0,0,.37,1.05,1.3,1.3,0,0,0,.931.364,1.554,1.554,0,0,0,.645-.129,3,3,0,0,0,.576-.35.241.241,0,0,1,.153-.056.209.209,0,0,1,.163.074.255.255,0,0,1,.067.175.3.3,0,0,1-.113.23,2.225,2.225,0,0,1-1.539.572,2.1,2.1,0,0,1-1.011-.25m2.143-2.127a1.616,1.616,0,0,0-.319-.923.985.985,0,0,0-.825-.358,1.189,1.189,0,0,0-.512.108,1.06,1.06,0,0,0-.377.292,1.505,1.505,0,0,0-.233.407,1.661,1.661,0,0,0-.107.474Z" fill="#fff"/>
            <path id="Trazado_875416" data-name="Trazado 875416" d="M95.374,29.383a.155.155,0,0,1-.049-.121A.408.408,0,0,1,95.448,29a.345.345,0,0,1,.248-.137.171.171,0,0,1,.1.032,2.514,2.514,0,0,0,1.587.532,1.77,1.77,0,0,0,.961-.234.751.751,0,0,0,.373-.676,1.067,1.067,0,0,0-.055-.365.636.636,0,0,0-.181-.264,1.216,1.216,0,0,0-.288-.189,4.086,4.086,0,0,0-.419-.165l-1.156-.387a2.337,2.337,0,0,1-.955-.548,1.265,1.265,0,0,1-.314-.91,1.317,1.317,0,0,1,.271-.823,1.675,1.675,0,0,1,.734-.535,2.828,2.828,0,0,1,1.041-.181,3.208,3.208,0,0,1,1.086.183,2.368,2.368,0,0,1,.792.429.256.256,0,0,1,.093.2.324.324,0,0,1-.093.226.292.292,0,0,1-.222.1.311.311,0,0,1-.177-.056,3.01,3.01,0,0,0-.619-.3,2.313,2.313,0,0,0-.795-.135,1.836,1.836,0,0,0-.967.222.706.706,0,0,0-.363.64.678.678,0,0,0,.188.5,1.524,1.524,0,0,0,.6.324l1.16.375a3.927,3.927,0,0,1,.595.238,2.059,2.059,0,0,1,.443.3,1.134,1.134,0,0,1,.3.429,1.559,1.559,0,0,1,.1.576,1.451,1.451,0,0,1-.582,1.229,2.565,2.565,0,0,1-1.581.439,2.783,2.783,0,0,1-1.974-.693" fill="#fff"/>
            <path id="Trazado_875417" data-name="Trazado 875417" d="M101.3,29.81a1.8,1.8,0,0,1-.712-.723,2.276,2.276,0,0,1-.263-1.114,2.348,2.348,0,0,1,.221-1.023,1.832,1.832,0,0,1,.669-.754,1.878,1.878,0,0,1,1.044-.29,2.014,2.014,0,0,1,.825.157,1.409,1.409,0,0,1,.565.433,1.977,1.977,0,0,1,.314.617,2.851,2.851,0,0,1,.117.747.289.289,0,0,1-.065.193.238.238,0,0,1-.193.077h-2.764a1.433,1.433,0,0,0,.371,1.05,1.3,1.3,0,0,0,.93.364,1.554,1.554,0,0,0,.645-.129,2.97,2.97,0,0,0,.576-.35.241.241,0,0,1,.153-.056.207.207,0,0,1,.163.074.255.255,0,0,1,.067.175.3.3,0,0,1-.113.23,2.225,2.225,0,0,1-1.539.572,2.1,2.1,0,0,1-1.011-.25m2.143-2.127a1.623,1.623,0,0,0-.318-.923.988.988,0,0,0-.826-.358,1.189,1.189,0,0,0-.512.108,1.06,1.06,0,0,0-.377.292,1.532,1.532,0,0,0-.233.407,1.661,1.661,0,0,0-.107.474Z" fill="#fff"/>
            <path id="Trazado_875418" data-name="Trazado 875418" d="M105.143,29.758a1.019,1.019,0,0,1-.395-.858,1.518,1.518,0,0,1,.049-.4,1.032,1.032,0,0,1,.137-.3.706.706,0,0,1,.25-.222,1.767,1.767,0,0,1,.354-.149,2.822,2.822,0,0,1,.492-.09c.2-.019.4-.033.614-.041s.466-.013.764-.013V27.24a.813.813,0,0,0-.23-.637.921.921,0,0,0-.641-.2,2.334,2.334,0,0,0-.491.052,2.738,2.738,0,0,0-.387.1c-.094.035-.209.082-.347.145a.213.213,0,0,1-.1.019.232.232,0,0,1-.181-.086.281.281,0,0,1-.077-.192.2.2,0,0,1,.113-.184,2.987,2.987,0,0,1,1.487-.351,1.765,1.765,0,0,1,1.154.343,1.286,1.286,0,0,1,.417,1.056v2.348a.3.3,0,0,1-.111.247.391.391,0,0,1-.256.092.367.367,0,0,1-.247-.087.3.3,0,0,1-.1-.244v-.388a1.28,1.28,0,0,1-1.241.787,1.65,1.65,0,0,1-1.028-.3m1.916-.565a1.39,1.39,0,0,0,.349-.974V28.1c-.333,0-.6.006-.814.018a4.241,4.241,0,0,0-.556.065.874.874,0,0,0-.363.137.566.566,0,0,0-.179.218.806.806,0,0,0-.059.332.646.646,0,0,0,.218.538.936.936,0,0,0,.593.171,1.065,1.065,0,0,0,.811-.384" fill="#fff"/>
            <path id="Trazado_875419" data-name="Trazado 875419" d="M109.422,29.9a.308.308,0,0,1-.1-.25V26.325a.3.3,0,0,1,.109-.247.4.4,0,0,1,.258-.087.393.393,0,0,1,.256.087.29.29,0,0,1,.107.239l0,.484a1.206,1.206,0,0,1,.4-.627,1.11,1.11,0,0,1,.732-.251.243.243,0,0,1,.2.1.357.357,0,0,1,.075.225.324.324,0,0,1-.069.208.235.235,0,0,1-.2.087,1.184,1.184,0,0,0-.844.282.984.984,0,0,0-.3.753v2.075a.3.3,0,0,1-.111.25.406.406,0,0,1-.26.089.382.382,0,0,1-.254-.089" fill="#fff"/>
            <path id="Trazado_875420" data-name="Trazado 875420" d="M112.485,29.474a2.181,2.181,0,0,1-.516-1.489,2.279,2.279,0,0,1,.242-1.052,1.848,1.848,0,0,1,.7-.749,1.974,1.974,0,0,1,1.047-.278,2.027,2.027,0,0,1,.641.1,1.423,1.423,0,0,1,.468.241.308.308,0,0,1,.136.234.192.192,0,0,1-.066.149.237.237,0,0,1-.163.061.307.307,0,0,1-.17-.053,1.46,1.46,0,0,0-.81-.238,1.155,1.155,0,0,0-.934.434A1.774,1.774,0,0,0,112.7,28a2.226,2.226,0,0,0,.072.58,1.692,1.692,0,0,0,.217.5,1.048,1.048,0,0,0,.387.354,1.14,1.14,0,0,0,.556.132,1.58,1.58,0,0,0,.923-.259.285.285,0,0,1,.161-.052.216.216,0,0,1,.157.063.206.206,0,0,1,.065.155.323.323,0,0,1-.137.246,1.913,1.913,0,0,1-1.225.35,1.754,1.754,0,0,1-1.39-.59" fill="#fff"/>
            <path id="Trazado_875421" data-name="Trazado 875421" d="M116.213,29.894a.319.319,0,0,1-.107-.254V24.568a.3.3,0,0,1,.109-.246.423.423,0,0,1,.514,0,.3.3,0,0,1,.106.248V26.61a1.151,1.151,0,0,1,.524-.517,1.731,1.731,0,0,1,.806-.188,1.674,1.674,0,0,1,.55.087,1.349,1.349,0,0,1,.455.266,1.182,1.182,0,0,1,.318.482,1.952,1.952,0,0,1,.116.7v2.2a.317.317,0,0,1-.109.254.386.386,0,0,1-.258.093.371.371,0,0,1-.252-.093.319.319,0,0,1-.107-.254V27.4a1,1,0,0,0-.231-.718.854.854,0,0,0-.639-.237,1.159,1.159,0,0,0-.834.324,1.208,1.208,0,0,0-.339.916V29.64a.313.313,0,0,1-.111.254.389.389,0,0,1-.259.093.371.371,0,0,1-.252-.093" fill="#fff"/>
            <path id="Trazado_875422" data-name="Trazado 875422" d="M124.221,29.681a2.47,2.47,0,0,1-.919-1.056A3.512,3.512,0,0,1,123,27.131a3.568,3.568,0,0,1,.187-1.164,2.936,2.936,0,0,1,.53-.949,2.4,2.4,0,0,1,.862-.639,2.779,2.779,0,0,1,1.153-.233,2.935,2.935,0,0,1,1.454.374.3.3,0,0,1,.178.278.326.326,0,0,1-.089.226.283.283,0,0,1-.214.1.32.32,0,0,1-.132-.033l-.1-.05c-.055-.028-.1-.05-.135-.065l-.161-.06a1.781,1.781,0,0,0-.21-.06,2.348,2.348,0,0,0-.252-.039,2.856,2.856,0,0,0-.312-.016,1.994,1.994,0,0,0-.709.121,1.525,1.525,0,0,0-.536.334,1.925,1.925,0,0,0-.366.508,2.455,2.455,0,0,0-.218.635,3.812,3.812,0,0,0,0,1.444,2.42,2.42,0,0,0,.218.63,1.831,1.831,0,0,0,.368.5,1.564,1.564,0,0,0,.544.33,2.046,2.046,0,0,0,.723.121,1.905,1.905,0,0,0,.629-.094,3.673,3.673,0,0,0,.584-.272.317.317,0,0,1,.153-.045.287.287,0,0,1,.214.093.306.306,0,0,1,.088.218.372.372,0,0,1-.2.314,2.839,2.839,0,0,1-1.588.439,2.589,2.589,0,0,1-1.438-.4" fill="#fff"/>
            <path id="Trazado_875423" data-name="Trazado 875423" d="M128.84,29.475a2.313,2.313,0,0,1,0-2.985,2.148,2.148,0,0,1,2.945,0,2.322,2.322,0,0,1,0,2.987,2.151,2.151,0,0,1-2.947,0m2.425-.336a2.123,2.123,0,0,0,0-2.311,1.272,1.272,0,0,0-1.9,0,2.125,2.125,0,0,0,0,2.309,1.145,1.145,0,0,0,.945.425,1.166,1.166,0,0,0,.961-.421" fill="#fff"/>
            <path id="Trazado_875424" data-name="Trazado 875424" d="M133.338,29.9a.321.321,0,0,1-.1-.256V26.329a.307.307,0,0,1,.109-.251.386.386,0,0,1,.258-.091.4.4,0,0,1,.256.086.3.3,0,0,1,.106.244v.35a1.14,1.14,0,0,1,.5-.564,1.625,1.625,0,0,1,.812-.2,1.451,1.451,0,0,1,1.06.387,1.575,1.575,0,0,1,.4,1.172v2.176a.319.319,0,0,1-.107.256.409.409,0,0,1-.512,0,.316.316,0,0,1-.107-.256V27.458a1.148,1.148,0,0,0-.24-.786.855.855,0,0,0-.675-.27,1.043,1.043,0,0,0-.781.33,1.339,1.339,0,0,0-.347.9v2.01a.317.317,0,0,1-.11.254.392.392,0,0,1-.26.092.376.376,0,0,1-.254-.09" fill="#fff"/>
            <path id="Trazado_875425" data-name="Trazado 875425" d="M137.761,29.407a.23.23,0,0,1,.069-.167.226.226,0,0,1,.173-.071.337.337,0,0,1,.185.057,2.212,2.212,0,0,0,1.168.346,1.3,1.3,0,0,0,.716-.175.574.574,0,0,0,.272-.514.51.51,0,0,0-.154-.387,1.141,1.141,0,0,0-.507-.233l-.713-.178c-.146-.037-.263-.069-.353-.1a3.08,3.08,0,0,1-.29-.1,1.009,1.009,0,0,1-.248-.139,1.054,1.054,0,0,1-.173-.179.7.7,0,0,1-.117-.246,1.3,1.3,0,0,1-.036-.322.969.969,0,0,1,.129-.5.938.938,0,0,1,.352-.344,1.822,1.822,0,0,1,.5-.19,2.788,2.788,0,0,1,.6-.062,2.733,2.733,0,0,1,.736.095,2.685,2.685,0,0,1,.562.211.257.257,0,0,1,.157.237.223.223,0,0,1-.063.16.218.218,0,0,1-.167.066.359.359,0,0,1-.125-.024l-.131-.05c-.079-.031-.144-.055-.193-.071s-.118-.035-.2-.058a2.081,2.081,0,0,0-.261-.053,2.019,2.019,0,0,0-.27-.018,1.457,1.457,0,0,0-.693.139.464.464,0,0,0-.258.437.4.4,0,0,0,.133.341,1.826,1.826,0,0,0,.572.207l.7.173a1.73,1.73,0,0,1,.868.43,1.007,1.007,0,0,1,.26.715,1.112,1.112,0,0,1-.215.693,1.213,1.213,0,0,1-.567.408,2.373,2.373,0,0,1-.813.127,2.712,2.712,0,0,1-.837-.13,2.275,2.275,0,0,1-.646-.309.253.253,0,0,1-.121-.217" fill="#fff"/>
            <path id="Trazado_875426" data-name="Trazado 875426" d="M142.236,29.475a2.313,2.313,0,0,1,0-2.985,2.148,2.148,0,0,1,2.945,0,2.322,2.322,0,0,1,0,2.987,2.151,2.151,0,0,1-2.947,0m2.425-.336a2.123,2.123,0,0,0,0-2.311,1.272,1.272,0,0,0-1.9,0,2.125,2.125,0,0,0,0,2.309,1.144,1.144,0,0,0,.945.425,1.166,1.166,0,0,0,.961-.421" fill="#fff"/>
            <path id="Trazado_875427" data-name="Trazado 875427" d="M146.787,29.892a.348.348,0,0,1-.1-.272V24.6a.336.336,0,0,1,.111-.266.384.384,0,0,1,.26-.1.363.363,0,0,1,.251.1.34.34,0,0,1,.107.266V29.62a.343.343,0,0,1-.11.268.381.381,0,0,1-.26.1.366.366,0,0,1-.254-.095" fill="#fff"/>
            <path id="Trazado_875428" data-name="Trazado 875428" d="M149.361,29.81a1.8,1.8,0,0,1-.712-.723,2.276,2.276,0,0,1-.263-1.114,2.348,2.348,0,0,1,.221-1.023,1.832,1.832,0,0,1,.669-.754,1.878,1.878,0,0,1,1.044-.29,2.014,2.014,0,0,1,.825.157,1.409,1.409,0,0,1,.565.433,1.977,1.977,0,0,1,.314.617,2.851,2.851,0,0,1,.117.747.289.289,0,0,1-.065.193.238.238,0,0,1-.193.077h-2.764a1.432,1.432,0,0,0,.371,1.05,1.3,1.3,0,0,0,.93.364,1.554,1.554,0,0,0,.645-.129,2.97,2.97,0,0,0,.576-.35.241.241,0,0,1,.153-.056.207.207,0,0,1,.163.074.255.255,0,0,1,.067.175.3.3,0,0,1-.113.23,2.224,2.224,0,0,1-1.539.572,2.1,2.1,0,0,1-1.011-.25m2.143-2.127a1.623,1.623,0,0,0-.318-.923.988.988,0,0,0-.826-.358,1.189,1.189,0,0,0-.512.108,1.06,1.06,0,0,0-.377.292,1.532,1.532,0,0,0-.233.407,1.661,1.661,0,0,0-.107.474Z" fill="#fff"/>
            <path id="Trazado_875429" data-name="Trazado 875429" d="M57,25.591h-6.03a.5.5,0,0,1,0-1H57a.5.5,0,0,1,0,1" fill="#fff"/>
            <path id="Trazado_875430" data-name="Trazado 875430" d="M57,28.244h-6.03a.5.5,0,0,1,0-1H57a.5.5,0,0,1,0,1" fill="#fff"/>
            <path id="Trazado_875431" data-name="Trazado 875431" d="M57,30.9h-6.03a.5.5,0,0,1,0-1H57a.5.5,0,0,1,0,1" fill="#fff"/>
            <path id="Trazado_875432" data-name="Trazado 875432" d="M167.712,28.245a3.154,3.154,0,1,1,3.153-3.154,3.158,3.158,0,0,1-3.153,3.154m0-5.307a2.154,2.154,0,1,0,2.153,2.153,2.156,2.156,0,0,0-2.153-2.153" fill="#fff"/>
            <path id="Trazado_875433" data-name="Trazado 875433" d="M173.5,30.9a.5.5,0,0,1-.329-.124L169.313,27.4a.5.5,0,0,1,.658-.752l3.858,3.377a.5.5,0,0,1-.329.876" fill="#fff"/>
            <path id="Trazado_875434" data-name="Trazado 875434" d="M60.584,120.623a3.153,3.153,0,1,1,3.153-3.154,3.158,3.158,0,0,1-3.153,3.154m0-5.307a2.153,2.153,0,1,0,2.153,2.153,2.156,2.156,0,0,0-2.153-2.153" fill="#263238"/>
            <path id="Trazado_875435" data-name="Trazado 875435" d="M66.372,123.276a.5.5,0,0,1-.329-.124l-3.858-3.377a.5.5,0,1,1,.658-.752L66.7,122.4a.5.5,0,0,1-.329.876" fill="#263238"/>
            <path id="Trazado_875436" data-name="Trazado 875436" d="M385.552,56.412H48.3a.5.5,0,0,1,0-1H385.552a.5.5,0,0,1,0,1" fill="#a3a3a3"/>
            <path id="Trazado_875437" data-name="Trazado 875437" d="M127.966,56.446a.5.5,0,0,1-.5-.5V36.66a.5.5,0,0,1,1,0V55.946a.5.5,0,0,1-.5.5" fill="#a3a3a3"/>
            <path id="Trazado_875438" data-name="Trazado 875438" d="M66.438,68.532l-6.5-6.939-6.5,6.939h2.588v5.613h1.94V70.1h3.6v4.041h1.94V68.532Z" fill="#263238"/>
            <path id="Trazado_875439" data-name="Trazado 875439" d="M66.645,90.85l.173.98,1.261-.222-4.8,3.534-3.188-3.97-5.436,4.307.619.78,4.661-3.693L63.1,96.509l5.918-4.355-.345,1.294.961.256.947-3.548Z" fill="#263238"/>
            <path id="Trazado_875440" data-name="Trazado 875440" d="M68.13,150.9H60.091a.281.281,0,0,1-.281-.281V139.4a.281.281,0,0,1,.281-.281H65.64a.28.28,0,0,1,.206.091l2.49,2.707a.278.278,0,0,1,.074.19v8.51a.28.28,0,0,1-.28.281m-7.759-.561h7.478v-8.121l-2.332-2.536H60.371Z" fill="#263238"/>
            <path id="Trazado_875441" data-name="Trazado 875441" d="M68.13,142.484H65.64a.281.281,0,0,1-.281-.281v-2.8a.28.28,0,0,1,.49-.186l2.491,2.8a.281.281,0,0,1-.21.467m-2.21-.561h1.586l-1.586-1.786Z" fill="#263238"/>
            <path id="Trazado_875442" data-name="Trazado 875442" d="M58.6,150.71a.28.28,0,0,1-.28-.281V137.9a.28.28,0,0,1,.28-.281h7.292a.281.281,0,0,1,0,.561H58.875v12.246a.28.28,0,0,1-.28.281" fill="#263238"/>
            <path id="Trazado_875443" data-name="Trazado 875443" d="M64.962,171.889h-6.87V166.6h6.87Zm-6.077-.793H64.17v-3.7H58.885Z" fill="#263238"/>
            <path id="Trazado_875444" data-name="Trazado 875444" d="M78.174,177.966H71.3v-5.284h6.87Zm-6.077-.793h5.285v-3.7H72.1Z" fill="#263238"/>
            <path id="Trazado_875445" data-name="Trazado 875445" d="M78.174,184.308H71.3v-5.284h6.87Zm-6.077-.793h5.285v-3.7H72.1Z" fill="#263238"/>
            <path id="Trazado_875446" data-name="Trazado 875446" d="M71.729,182.194H61.263V171.756h.792V181.4h9.674Z" fill="#263238"/>
            <rect id="Rectángulo_401774" data-name="Rectángulo 401774" width="10.042" height="0.793" transform="translate(61.923 175.059)" fill="#263238"/>
            <path id="Trazado_875447" data-name="Trazado 875447" d="M159.377,127.317a.242.242,0,0,1-.089-.21.624.624,0,0,1,.138-.376.386.386,0,0,1,.305-.184.254.254,0,0,1,.136.039,2.93,2.93,0,0,0,1.525.435,1.645,1.645,0,0,0,.827-.183.587.587,0,0,0,.317-.54.614.614,0,0,0-.172-.463,1.346,1.346,0,0,0-.533-.284l-1.283-.428a2.2,2.2,0,0,1-.959-.566,1.338,1.338,0,0,1-.294-.912,1.384,1.384,0,0,1,.6-1.179,2.582,2.582,0,0,1,1.554-.435,3.746,3.746,0,0,1,1.082.157,2.2,2.2,0,0,1,.805.4.362.362,0,0,1,.121.28.484.484,0,0,1-.117.317.354.354,0,0,1-.28.142.406.406,0,0,1-.187-.055,2.69,2.69,0,0,0-1.354-.357,2.541,2.541,0,0,0-.437.033,1.482,1.482,0,0,0-.364.107.607.607,0,0,0-.261.21.626.626,0,0,0,.049.725,1.026,1.026,0,0,0,.434.251q.02.008.568.167c.365.106.555.163.568.168a4.629,4.629,0,0,1,.655.256,2.135,2.135,0,0,1,.478.323,1.182,1.182,0,0,1,.314.449,1.647,1.647,0,0,1,.1.6,1.473,1.473,0,0,1-.6,1.242,2.629,2.629,0,0,1-1.624.457,3.2,3.2,0,0,1-2.019-.583" fill="#263238"/>
            <path id="Trazado_875448" data-name="Trazado 875448" d="M165.327,127.754a1.385,1.385,0,0,1-.445-.268,1.21,1.21,0,0,1-.314-.469,1.808,1.808,0,0,1-.114-.661v-1.918a.537.537,0,0,1,.14-.4.479.479,0,0,1,.358-.142.459.459,0,0,1,.342.142.552.552,0,0,1,.136.4v1.918a.847.847,0,0,0,.205.612.706.706,0,0,0,.526.212.892.892,0,0,0,.678-.307,1.124,1.124,0,0,0,.287-.8v-1.634a.544.544,0,0,1,.138-.4.5.5,0,0,1,.7,0,.548.548,0,0,1,.137.4v2.871a.466.466,0,0,1-.14.361.5.5,0,0,1-.353.129.491.491,0,0,1-.347-.125.453.453,0,0,1-.136-.354v-.144a1.3,1.3,0,0,1-1.272.669,1.5,1.5,0,0,1-.527-.091" fill="#263238"/>
            <path id="Trazado_875449" data-name="Trazado 875449" d="M170.1,127.181v.136a.47.47,0,0,1-.13.36.487.487,0,0,1-.348.123.472.472,0,0,1-.354-.15.559.559,0,0,1-.144-.4v-4.532a.53.53,0,0,1,.136-.388.461.461,0,0,1,.346-.141.481.481,0,0,1,.356.138.531.531,0,0,1,.138.391v1.763a1.331,1.331,0,0,1,1.229-.623,1.613,1.613,0,0,1,1.267.529,2.1,2.1,0,0,1,.472,1.447,2.58,2.58,0,0,1-.2,1.029,1.652,1.652,0,0,1-.584.726,1.545,1.545,0,0,1-.9.268,1.343,1.343,0,0,1-1.284-.673m1.424-.066a.782.782,0,0,0,.278-.224,1.208,1.208,0,0,0,.177-.321,1.7,1.7,0,0,0,.1-.363,2.49,2.49,0,0,0,.028-.368,2.4,2.4,0,0,0-.031-.389,1.659,1.659,0,0,0-.1-.358,1.037,1.037,0,0,0-.181-.3.784.784,0,0,0-.28-.2.948.948,0,0,0-.385-.076.915.915,0,0,0-.585.187,1.014,1.014,0,0,0-.335.477,2.058,2.058,0,0,0-.1.667,1.785,1.785,0,0,0,.236,1.011.894.894,0,0,0,.795.343.859.859,0,0,0,.389-.086" fill="#263238"/>
            <path id="Trazado_875450" data-name="Trazado 875450" d="M174.038,127.659a.545.545,0,0,1-.136-.4v-2.843a.517.517,0,0,1,.136-.385.479.479,0,0,1,.354-.137.512.512,0,0,1,.348.123.425.425,0,0,1,.142.34v.195a1.286,1.286,0,0,1,1.249-.708,1.414,1.414,0,0,1,.817.227,1.157,1.157,0,0,1,.455.625,1.354,1.354,0,0,1,1.369-.852,1.419,1.419,0,0,1,1.027.373,1.465,1.465,0,0,1,.389,1.1v1.937a.542.542,0,0,1-.138.4.48.48,0,0,1-.356.14.463.463,0,0,1-.346-.14.545.545,0,0,1-.136-.4v-1.929a.873.873,0,0,0-.2-.615.7.7,0,0,0-.537-.21.865.865,0,0,0-.684.3,1.231,1.231,0,0,0-.265.837v1.614a.543.543,0,0,1-.138.395.476.476,0,0,1-.356.142.463.463,0,0,1-.344-.142.543.543,0,0,1-.138-.395v-1.906a.918.918,0,0,0-.193-.634.685.685,0,0,0-.538-.214.882.882,0,0,0-.685.28,1.087,1.087,0,0,0-.257.763v1.711a.531.531,0,0,1-.142.4.492.492,0,0,1-.36.14.459.459,0,0,1-.342-.14" fill="#263238"/>
            <path id="Trazado_875451" data-name="Trazado 875451" d="M181.295,122.97a.518.518,0,0,1-.158-.391.508.508,0,0,1,.158-.389.579.579,0,0,1,.414-.148.564.564,0,0,1,.408.148.51.51,0,0,1,.156.389.518.518,0,0,1-.158.391.639.639,0,0,1-.82,0m.06,4.687a.557.557,0,0,1-.136-.4v-2.808a.567.567,0,0,1,.136-.4.5.5,0,0,1,.7,0,.563.563,0,0,1,.138.4v2.808a.555.555,0,0,1-.138.4.5.5,0,0,1-.7,0" fill="#263238"/>
            <path id="Trazado_875452" data-name="Trazado 875452" d="M183.78,127.509a1.313,1.313,0,0,1-.3-.924v-2.011H183.1a.351.351,0,0,1-.259-.091.335.335,0,0,1-.091-.244.316.316,0,0,1,.086-.231.338.338,0,0,1,.252-.088h.409l.117-.964a.59.59,0,0,1,.145-.344.433.433,0,0,1,.337-.135.329.329,0,0,1,.266.113.512.512,0,0,1,.1.339v.991h.626a.325.325,0,0,1,.249.092.342.342,0,0,1,.086.243.32.32,0,0,1-.086.234.344.344,0,0,1-.253.085h-.622v1.77a1.273,1.273,0,0,0,.093.556.339.339,0,0,0,.331.183h.043l.276-.015h.027a.314.314,0,0,1,.253.108.385.385,0,0,1,.093.257.4.4,0,0,1-.031.164.255.255,0,0,1-.1.112.78.78,0,0,1-.138.07.65.65,0,0,1-.189.037c-.079.007-.147.011-.2.014s-.132,0-.226,0h-.085a1.084,1.084,0,0,1-.827-.325" fill="#263238"/>
            <path id="Trazado_875453" data-name="Trazado 875453" d="M186.838,127.509a1.313,1.313,0,0,1-.3-.924v-2.011h-.377a.351.351,0,0,1-.259-.091.334.334,0,0,1-.091-.244.316.316,0,0,1,.086-.231.337.337,0,0,1,.252-.088h.409l.117-.964a.59.59,0,0,1,.145-.344.433.433,0,0,1,.337-.135.329.329,0,0,1,.266.113.512.512,0,0,1,.1.339v.991h.626a.325.325,0,0,1,.249.092.341.341,0,0,1,.085.243.319.319,0,0,1-.085.234.344.344,0,0,1-.253.085h-.622v1.77a1.273,1.273,0,0,0,.093.556.339.339,0,0,0,.331.183h.042l.277-.015h.027a.316.316,0,0,1,.253.108.385.385,0,0,1,.093.257.4.4,0,0,1-.031.164.255.255,0,0,1-.1.112.78.78,0,0,1-.138.07.65.65,0,0,1-.189.037c-.079.007-.147.011-.2.014s-.133,0-.226,0h-.085a1.084,1.084,0,0,1-.827-.325" fill="#263238"/>
            <path id="Trazado_875454" data-name="Trazado 875454" d="M189.319,124.833a1.778,1.778,0,0,1,.667-.714,1.938,1.938,0,0,1,1.031-.272,2.006,2.006,0,0,1,.8.15,1.431,1.431,0,0,1,.56.414,1.9,1.9,0,0,1,.321.595,2.386,2.386,0,0,1,.113.716.4.4,0,0,1-.07.245.248.248,0,0,1-.211.094h-2.458a1.017,1.017,0,0,0,1.124,1.1,1.807,1.807,0,0,0,1.031-.393.245.245,0,0,1,.152-.055.277.277,0,0,1,.214.109.37.37,0,0,1,.093.245.34.34,0,0,1-.124.265,2.162,2.162,0,0,1-1.436.517,2.033,2.033,0,0,1-1.476-.537,1.985,1.985,0,0,1-.554-1.5,2.139,2.139,0,0,1,.223-.979m2.659.679a1.3,1.3,0,0,0-.259-.735.806.806,0,0,0-.674-.288.836.836,0,0,0-.683.3,1.263,1.263,0,0,0-.282.723Z" fill="#263238"/>
            <path id="Trazado_875455" data-name="Trazado 875455" d="M194.151,127.585a1.653,1.653,0,0,1-.583-.725,2.583,2.583,0,0,1-.2-1.029,2.086,2.086,0,0,1,.475-1.447,1.612,1.612,0,0,1,1.264-.529,1.325,1.325,0,0,1,1.229.622v-1.762a.536.536,0,0,1,.138-.391.482.482,0,0,1,.356-.138.462.462,0,0,1,.348.138.538.538,0,0,1,.135.391v4.532a.563.563,0,0,1-.142.4.465.465,0,0,1-.352.149.487.487,0,0,1-.35-.122.474.474,0,0,1-.129-.36v-.136a1.349,1.349,0,0,1-1.287.673,1.549,1.549,0,0,1-.9-.269m1.949-.727a1.788,1.788,0,0,0,.235-1.011,2.068,2.068,0,0,0-.1-.668,1.009,1.009,0,0,0-.334-.476,1.005,1.005,0,0,0-1.047-.074.8.8,0,0,0-.3.305,1.6,1.6,0,0,0-.162.418,2.269,2.269,0,0,0,0,.952,1.834,1.834,0,0,0,.153.433.837.837,0,0,0,.3.337.849.849,0,0,0,.466.126.89.89,0,0,0,.792-.342" fill="#263238"/>
            <path id="Trazado_875456" data-name="Trazado 875456" d="M200.435,127.146a.329.329,0,0,1,.087-.226.288.288,0,0,1,.224-.1.415.415,0,0,1,.2.059c.115.065.206.113.275.147a2.066,2.066,0,0,0,.332.115,1.694,1.694,0,0,0,.459.064,1.642,1.642,0,0,0,.4-.044.688.688,0,0,0,.3-.164.4.4,0,0,0,.127-.305q0-.332-.541-.463l-.607-.156c-.185-.049-.332-.093-.447-.132a2.337,2.337,0,0,1-.346-.15.871.871,0,0,1-.269-.2.887.887,0,0,1-.152-.276,1.185,1.185,0,0,1-.058-.387.927.927,0,0,1,.428-.819,1.987,1.987,0,0,1,1.124-.286,2.882,2.882,0,0,1,1.276.292.328.328,0,0,1,.21.311.3.3,0,0,1-.079.212.277.277,0,0,1-.213.088.45.45,0,0,1-.151-.032s-.031-.01-.086-.031l-.114-.041q-.035-.009-.123-.039a1.32,1.32,0,0,0-.154-.042l-.153-.031a1.608,1.608,0,0,0-.177-.026c-.059,0-.118-.008-.177-.008a1.186,1.186,0,0,0-.51.1.323.323,0,0,0-.21.305.319.319,0,0,0,.115.27,1.226,1.226,0,0,0,.437.162l.6.152a2.1,2.1,0,0,1,.917.424.963.963,0,0,1,.289.742,1.055,1.055,0,0,1-.437.911,1.9,1.9,0,0,1-1.138.315,2.521,2.521,0,0,1-1.525-.451.311.311,0,0,1-.14-.261" fill="#263238"/>
            <path id="Trazado_875457" data-name="Trazado 875457" d="M204.561,122.97a.518.518,0,0,1-.158-.391.508.508,0,0,1,.158-.389.579.579,0,0,1,.414-.148.567.567,0,0,1,.408.148.563.563,0,0,1,0,.78.639.639,0,0,1-.82,0m.06,4.687a.561.561,0,0,1-.136-.4v-2.808a.571.571,0,0,1,.136-.4.458.458,0,0,1,.35-.144.466.466,0,0,1,.352.144.559.559,0,0,1,.138.4v2.808a.551.551,0,0,1-.138.4.5.5,0,0,1-.7,0" fill="#263238"/>
            <path id="Trazado_875458" data-name="Trazado 875458" d="M207.046,127.509a1.313,1.313,0,0,1-.3-.924v-2.011h-.377a.351.351,0,0,1-.259-.091.33.33,0,0,1-.091-.244.312.312,0,0,1,.086-.231.338.338,0,0,1,.252-.088h.409l.117-.964a.59.59,0,0,1,.145-.344.433.433,0,0,1,.337-.135.329.329,0,0,1,.266.113.512.512,0,0,1,.1.339v.991h.626a.325.325,0,0,1,.249.092.341.341,0,0,1,.085.243.319.319,0,0,1-.085.234.343.343,0,0,1-.253.085h-.622v1.77a1.273,1.273,0,0,0,.093.556.338.338,0,0,0,.331.183h.042l.277-.015h.027a.316.316,0,0,1,.253.108.385.385,0,0,1,.093.257.417.417,0,0,1-.031.164.249.249,0,0,1-.1.112.814.814,0,0,1-.138.07.65.65,0,0,1-.189.037c-.079.007-.147.011-.2.014s-.132,0-.226,0h-.085a1.084,1.084,0,0,1-.827-.325" fill="#263238"/>
            <path id="Trazado_875459" data-name="Trazado 875459" d="M209.528,124.833a1.772,1.772,0,0,1,.667-.714,1.935,1.935,0,0,1,1.031-.272,2.01,2.01,0,0,1,.8.15,1.424,1.424,0,0,1,.56.414,1.9,1.9,0,0,1,.321.595,2.355,2.355,0,0,1,.112.716.4.4,0,0,1-.07.245.245.245,0,0,1-.21.094h-2.458a1.017,1.017,0,0,0,1.124,1.1,1.807,1.807,0,0,0,1.031-.393.245.245,0,0,1,.152-.055.277.277,0,0,1,.214.109.37.37,0,0,1,.093.245.341.341,0,0,1-.125.265,2.156,2.156,0,0,1-1.435.517,2.031,2.031,0,0,1-1.476-.537,1.985,1.985,0,0,1-.554-1.5,2.139,2.139,0,0,1,.223-.979m2.659.679a1.291,1.291,0,0,0-.259-.735.806.806,0,0,0-.675-.288.834.834,0,0,0-.682.3,1.263,1.263,0,0,0-.282.723Z" fill="#263238"/>
            <path id="Trazado_875460" data-name="Trazado 875460" d="M213.922,127.659a.549.549,0,0,1-.136-.4v-2.843a.521.521,0,0,1,.136-.385.478.478,0,0,1,.354-.137.512.512,0,0,1,.348.123.428.428,0,0,1,.142.34v.195a1.285,1.285,0,0,1,1.249-.708,1.414,1.414,0,0,1,.817.227,1.157,1.157,0,0,1,.455.625,1.353,1.353,0,0,1,1.369-.852,1.422,1.422,0,0,1,1.027.373,1.461,1.461,0,0,1,.389,1.1v1.937a.542.542,0,0,1-.138.4.481.481,0,0,1-.356.14.462.462,0,0,1-.346-.14.545.545,0,0,1-.136-.4v-1.929a.878.878,0,0,0-.195-.615.694.694,0,0,0-.537-.21.865.865,0,0,0-.684.3,1.236,1.236,0,0,0-.265.837v1.614a.543.543,0,0,1-.138.395.478.478,0,0,1-.356.142.463.463,0,0,1-.344-.142.543.543,0,0,1-.138-.395v-1.906a.918.918,0,0,0-.193-.634.686.686,0,0,0-.539-.214.882.882,0,0,0-.684.28,1.087,1.087,0,0,0-.257.763v1.711a.535.535,0,0,1-.142.4.492.492,0,0,1-.36.14.458.458,0,0,1-.342-.14" fill="#263238"/>
            <path id="Trazado_875461" data-name="Trazado 875461" d="M221.217,127.548a.974.974,0,0,1-.379-.819,1.575,1.575,0,0,1,.048-.41,1.006,1.006,0,0,1,.137-.305.7.7,0,0,1,.247-.218,1.825,1.825,0,0,1,.338-.146,2.456,2.456,0,0,1,.453-.088c.183-.02.368-.034.555-.04s.412-.01.676-.01v-.3a.609.609,0,0,0-.688-.7c-.05,0-.1,0-.15.006s-.1.011-.154.02l-.136.023a1.345,1.345,0,0,0-.14.033l-.124.035c-.028.008-.07.021-.125.041l-.1.037c-.015,0-.05.018-.1.041s-.082.033-.085.033a.28.28,0,0,1-.109.019.291.291,0,0,1-.232-.115.394.394,0,0,1-.1-.258.281.281,0,0,1,.171-.273,3.34,3.34,0,0,1,1.436-.3,2.3,2.3,0,0,1,.641.082,1.44,1.44,0,0,1,.5.253,1.1,1.1,0,0,1,.337.462,1.847,1.847,0,0,1,.118.689v1.976a.473.473,0,0,1-.136.362.459.459,0,0,1-.326.128.456.456,0,0,1-.467-.49v-.128a1.059,1.059,0,0,1-.4.48,1.292,1.292,0,0,1-.729.185,1.56,1.56,0,0,1-.971-.3m1.772-.624a1.072,1.072,0,0,0,.3-.778v-.113c-.26,0-.465,0-.617.012a3.8,3.8,0,0,0-.432.045.7.7,0,0,0-.3.105.472.472,0,0,0-.152.186.693.693,0,0,0-.054.294.527.527,0,0,0,.157.414.6.6,0,0,0,.418.142.926.926,0,0,0,.681-.307" fill="#263238"/>
            <path id="Trazado_875462" data-name="Trazado 875462" d="M225.409,129.134a.535.535,0,0,1-.137-.389v-4.291a.567.567,0,0,1,.144-.4.47.47,0,0,1,.354-.151.49.49,0,0,1,.349.124.48.48,0,0,1,.13.362v.136a1.343,1.343,0,0,1,1.283-.677,1.541,1.541,0,0,1,.9.271,1.671,1.671,0,0,1,.583.725,2.562,2.562,0,0,1,.2,1.031,2.09,2.09,0,0,1-.475,1.445,1.612,1.612,0,0,1-1.264.531,1.33,1.33,0,0,1-1.229-.626v1.525a.531.531,0,0,1-.138.391.484.484,0,0,1-.356.138.462.462,0,0,1-.346-.14m2.248-2.029a.813.813,0,0,0,.28-.2,1.058,1.058,0,0,0,.181-.3,1.607,1.607,0,0,0,.1-.356,2.4,2.4,0,0,0,.031-.389,2.465,2.465,0,0,0-.027-.366,1.828,1.828,0,0,0-.1-.361,1.221,1.221,0,0,0-.177-.319.809.809,0,0,0-.278-.222.864.864,0,0,0-.39-.086.9.9,0,0,0-.795.339,1.764,1.764,0,0,0-.235,1.007,2.068,2.068,0,0,0,.1.668,1,1,0,0,0,.334.474.917.917,0,0,0,.586.185.932.932,0,0,0,.385-.076" fill="#263238"/>
            <path id="Trazado_875463" data-name="Trazado 875463" d="M229.909,127.146a.325.325,0,0,1,.088-.226.286.286,0,0,1,.223-.1.415.415,0,0,1,.2.059c.114.065.206.113.275.147a2.141,2.141,0,0,0,.332.115,1.694,1.694,0,0,0,.459.064,1.641,1.641,0,0,0,.4-.044.688.688,0,0,0,.3-.164.4.4,0,0,0,.127-.305q0-.332-.541-.463l-.607-.156q-.276-.073-.447-.132a2.337,2.337,0,0,1-.346-.15.884.884,0,0,1-.269-.2.866.866,0,0,1-.151-.276,1.158,1.158,0,0,1-.059-.387.927.927,0,0,1,.428-.819,1.986,1.986,0,0,1,1.124-.286,2.882,2.882,0,0,1,1.276.292.328.328,0,0,1,.21.311.3.3,0,0,1-.079.212.276.276,0,0,1-.212.088.45.45,0,0,1-.152-.032s-.031-.01-.086-.031-.092-.034-.115-.041-.063-.019-.122-.039a1.32,1.32,0,0,0-.154-.042l-.153-.031a1.608,1.608,0,0,0-.177-.026c-.059,0-.118-.008-.177-.008a1.189,1.189,0,0,0-.51.1.323.323,0,0,0-.21.305.316.316,0,0,0,.115.27,1.242,1.242,0,0,0,.437.162l.6.152a2.1,2.1,0,0,1,.917.424.963.963,0,0,1,.289.742,1.055,1.055,0,0,1-.437.911,1.9,1.9,0,0,1-1.138.315,2.523,2.523,0,0,1-1.525-.451.311.311,0,0,1-.14-.261" fill="#263238"/>
            <rect id="Rectángulo_401775" data-name="Rectángulo 401775" width="196.177" height="70.704" transform="translate(154.853 132.258)" fill="#fff"/>
            <path id="Trazado_875464" data-name="Trazado 875464" d="M351.03,203.462H154.853a.5.5,0,0,1-.5-.5v-70.7a.5.5,0,0,1,.5-.5H351.03a.5.5,0,0,1,.5.5v70.7a.5.5,0,0,1-.5.5m-195.677-1H350.531v-69.7H155.353Z" fill="#a3a3a3"/>
            <rect id="Rectángulo_401776" data-name="Rectángulo 401776" width="196.177" height="31.368" transform="translate(154.853 68.029)" fill="#fff"/>
            <path id="Trazado_875465" data-name="Trazado 875465" d="M351.03,99.9H154.853a.5.5,0,0,1-.5-.5V68.029a.5.5,0,0,1,.5-.5H351.03a.5.5,0,0,1,.5.5V99.4a.5.5,0,0,1-.5.5m-195.677-1H350.531V68.529H155.353Z" fill="#a3a3a3"/>
            <rect id="Rectángulo_401777" data-name="Rectángulo 401777" width="258.632" height="21.635" transform="translate(128.086 33.962)" fill="#fff"/>
            <path id="Trazado_875466" data-name="Trazado 875466" d="M342.565,147.2H162.819a.5.5,0,0,1,0-1H342.565a.5.5,0,0,1,0,1" fill="#a3a3a3"/>
            <path id="Trazado_875467" data-name="Trazado 875467" d="M342.565,86.951H162.819a.5.5,0,0,1,0-1H342.565a.5.5,0,0,1,0,1" fill="#a3a3a3"/>
            <path id="Trazado_875468" data-name="Trazado 875468" d="M342.565,161.14H162.819a.5.5,0,0,1,0-1H342.565a.5.5,0,0,1,0,1" fill="#a3a3a3"/>
            <path id="Trazado_875469" data-name="Trazado 875469" d="M342.565,175.081H162.819a.5.5,0,1,1,0-1H342.565a.5.5,0,0,1,0,1" fill="#a3a3a3"/>
            <path id="Trazado_875470" data-name="Trazado 875470" d="M342.565,189.023H162.819a.5.5,0,0,1,0-1H342.565a.5.5,0,1,1,0,1" fill="#a3a3a3"/>
            <path id="Trazado_875471" data-name="Trazado 875471" d="M133.485,47.629a.242.242,0,0,1-.089-.21.622.622,0,0,1,.138-.375.387.387,0,0,1,.305-.185.263.263,0,0,1,.136.039,2.93,2.93,0,0,0,1.525.435,1.634,1.634,0,0,0,.827-.183.586.586,0,0,0,.317-.54.617.617,0,0,0-.171-.463,1.373,1.373,0,0,0-.533-.284l-1.284-.428a2.213,2.213,0,0,1-.959-.566,1.337,1.337,0,0,1-.294-.912,1.382,1.382,0,0,1,.6-1.179,2.589,2.589,0,0,1,1.554-.435,3.746,3.746,0,0,1,1.082.157,2.2,2.2,0,0,1,.805.4.361.361,0,0,1,.121.28.486.486,0,0,1-.117.317.351.351,0,0,1-.28.142.4.4,0,0,1-.187-.055,2.69,2.69,0,0,0-1.354-.357,2.644,2.644,0,0,0-.437.033,1.526,1.526,0,0,0-.364.107.607.607,0,0,0-.261.21.626.626,0,0,0,.049.725,1.016,1.016,0,0,0,.434.251q.02.008.568.167c.365.107.555.162.568.168a4.754,4.754,0,0,1,.655.256,2.13,2.13,0,0,1,.479.323,1.182,1.182,0,0,1,.313.449,1.647,1.647,0,0,1,.1.6,1.474,1.474,0,0,1-.6,1.242,2.629,2.629,0,0,1-1.624.457,3.2,3.2,0,0,1-2.019-.583" fill="#263238"/>
            <path id="Trazado_875472" data-name="Trazado 875472" d="M138.692,43.283a.515.515,0,0,1-.158-.391.508.508,0,0,1,.158-.389.579.579,0,0,1,.414-.148.564.564,0,0,1,.408.148.563.563,0,0,1,0,.78.639.639,0,0,1-.82,0m.06,4.687a.559.559,0,0,1-.136-.4V44.759a.565.565,0,0,1,.136-.4.5.5,0,0,1,.7,0,.562.562,0,0,1,.138.4v2.808a.556.556,0,0,1-.138.4.5.5,0,0,1-.7,0" fill="#263238"/>
            <path id="Trazado_875473" data-name="Trazado 875473" d="M141.178,47.822a1.313,1.313,0,0,1-.3-.924V44.887H140.5a.355.355,0,0,1-.259-.091.333.333,0,0,1-.091-.244.317.317,0,0,1,.086-.231.337.337,0,0,1,.252-.088h.409l.117-.964a.59.59,0,0,1,.145-.344.433.433,0,0,1,.337-.135.329.329,0,0,1,.266.113.514.514,0,0,1,.1.339v.991h.626a.325.325,0,0,1,.249.092.341.341,0,0,1,.085.243.312.312,0,0,1-.085.233.344.344,0,0,1-.253.086h-.622v1.77a1.276,1.276,0,0,0,.093.556.339.339,0,0,0,.331.183h.043l.276-.016h.027a.32.32,0,0,1,.253.109.383.383,0,0,1,.093.257.4.4,0,0,1-.031.164.255.255,0,0,1-.1.112.779.779,0,0,1-.138.07.684.684,0,0,1-.189.037c-.079.007-.147.011-.2.014s-.133,0-.226,0h-.085a1.084,1.084,0,0,1-.827-.325" fill="#263238"/>
            <path id="Trazado_875474" data-name="Trazado 875474" d="M143.659,45.146a1.765,1.765,0,0,1,.667-.714,1.938,1.938,0,0,1,1.031-.272,2.024,2.024,0,0,1,.8.149,1.458,1.458,0,0,1,.56.414,1.913,1.913,0,0,1,.321.6,2.393,2.393,0,0,1,.113.717.4.4,0,0,1-.071.244.242.242,0,0,1-.21.093h-2.458a1.016,1.016,0,0,0,1.124,1.1,1.791,1.791,0,0,0,1.031-.392.238.238,0,0,1,.152-.054.277.277,0,0,1,.214.109.365.365,0,0,1,.093.244.337.337,0,0,1-.125.265,2.159,2.159,0,0,1-1.435.518,2.029,2.029,0,0,1-1.476-.537,1.988,1.988,0,0,1-.554-1.5,2.129,2.129,0,0,1,.223-.978m2.659.678a1.3,1.3,0,0,0-.259-.734.807.807,0,0,0-.675-.289.841.841,0,0,0-.682.3,1.274,1.274,0,0,0-.282.724Z" fill="#263238"/>
            <path id="Trazado_875475" data-name="Trazado 875475" d="M148.053,47.972a.545.545,0,0,1-.136-.4V44.732a.518.518,0,0,1,.136-.385.479.479,0,0,1,.354-.137.512.512,0,0,1,.348.123.425.425,0,0,1,.142.34v.195a1.286,1.286,0,0,1,1.249-.708,1.414,1.414,0,0,1,.817.227,1.157,1.157,0,0,1,.455.625,1.354,1.354,0,0,1,1.369-.852,1.419,1.419,0,0,1,1.027.373,1.464,1.464,0,0,1,.389,1.1v1.937a.542.542,0,0,1-.138.4.48.48,0,0,1-.356.14.463.463,0,0,1-.346-.14.545.545,0,0,1-.136-.4V45.646a.873.873,0,0,0-.2-.615.7.7,0,0,0-.537-.21.863.863,0,0,0-.684.3,1.224,1.224,0,0,0-.265.836v1.614a.543.543,0,0,1-.138.4.472.472,0,0,1-.356.142.459.459,0,0,1-.344-.142.543.543,0,0,1-.138-.4V45.669a.918.918,0,0,0-.193-.634.687.687,0,0,0-.538-.214.886.886,0,0,0-.685.28,1.087,1.087,0,0,0-.257.763v1.711a.531.531,0,0,1-.142.4.492.492,0,0,1-.36.14.459.459,0,0,1-.342-.14" fill="#263238"/>
            <path id="Trazado_875476" data-name="Trazado 875476" d="M155.349,47.861a.976.976,0,0,1-.379-.819,1.569,1.569,0,0,1,.048-.41.994.994,0,0,1,.137-.305.705.705,0,0,1,.247-.218,1.787,1.787,0,0,1,.338-.146,2.447,2.447,0,0,1,.453-.087c.183-.021.368-.036.555-.041s.412-.01.676-.01v-.3a.72.72,0,0,0-.173-.534.707.707,0,0,0-.515-.17q-.073,0-.15.006c-.05,0-.1.01-.154.019l-.136.024a1.31,1.31,0,0,0-.14.032c-.054.017-.1.028-.124.036s-.07.022-.125.041-.089.031-.1.037l-.1.041c-.054.022-.083.033-.085.033a.266.266,0,0,1-.109.019.293.293,0,0,1-.232-.114.4.4,0,0,1-.1-.259.28.28,0,0,1,.171-.272,3.308,3.308,0,0,1,1.436-.3,2.3,2.3,0,0,1,.641.082,1.423,1.423,0,0,1,.5.253,1.093,1.093,0,0,1,.337.463,1.821,1.821,0,0,1,.118.688v1.976a.474.474,0,0,1-.136.362.458.458,0,0,1-.327.127.463.463,0,0,1-.328-.127.472.472,0,0,1-.138-.362v-.129a1.069,1.069,0,0,1-.4.481,1.3,1.3,0,0,1-.729.185,1.558,1.558,0,0,1-.971-.3m1.772-.625a1.064,1.064,0,0,0,.3-.778v-.112q-.389,0-.616.011t-.432.045a.7.7,0,0,0-.3.106.492.492,0,0,0-.152.185.7.7,0,0,0-.055.295.53.53,0,0,0,.158.414.6.6,0,0,0,.418.142.927.927,0,0,0,.681-.308" fill="#263238"/>
            <path id="Trazado_875477" data-name="Trazado 875477" d="M159.541,49.446a.536.536,0,0,1-.136-.389V44.766a.569.569,0,0,1,.143-.4.469.469,0,0,1,.354-.151.484.484,0,0,1,.349.124.477.477,0,0,1,.13.362v.136a1.344,1.344,0,0,1,1.284-.677,1.535,1.535,0,0,1,.9.271,1.664,1.664,0,0,1,.583.725,2.576,2.576,0,0,1,.2,1.031,2.087,2.087,0,0,1-.475,1.445,1.61,1.61,0,0,1-1.264.531,1.33,1.33,0,0,1-1.229-.626v1.525a.526.526,0,0,1-.138.39.483.483,0,0,1-.356.139.463.463,0,0,1-.346-.14m2.248-2.029a.791.791,0,0,0,.28-.2,1.088,1.088,0,0,0,.181-.3,1.647,1.647,0,0,0,.1-.356,2.289,2.289,0,0,0,.031-.389,2.463,2.463,0,0,0-.027-.366,1.777,1.777,0,0,0-.1-.361,1.237,1.237,0,0,0-.177-.319.809.809,0,0,0-.278-.222.862.862,0,0,0-.389-.086.9.9,0,0,0-.8.339,1.764,1.764,0,0,0-.235,1.007,2.058,2.058,0,0,0,.1.667,1,1,0,0,0,.335.475.92.92,0,0,0,.585.185.935.935,0,0,0,.385-.076" fill="#263238"/>
            <path id="Trazado_875478" data-name="Trazado 875478" d="M164.041,47.458a.33.33,0,0,1,.087-.226.291.291,0,0,1,.224-.1.422.422,0,0,1,.2.059c.114.064.205.114.274.147a2.067,2.067,0,0,0,.332.115,1.761,1.761,0,0,0,.862.02.679.679,0,0,0,.3-.164.4.4,0,0,0,.127-.305c0-.22-.181-.375-.541-.463l-.607-.156q-.276-.073-.447-.132a2.448,2.448,0,0,1-.346-.15.856.856,0,0,1-.269-.2.886.886,0,0,1-.151-.276,1.162,1.162,0,0,1-.059-.387.927.927,0,0,1,.428-.819,1.989,1.989,0,0,1,1.124-.286,2.885,2.885,0,0,1,1.276.292.328.328,0,0,1,.21.311.308.308,0,0,1-.079.212.275.275,0,0,1-.213.088.445.445,0,0,1-.151-.032s-.031-.01-.086-.031-.093-.034-.114-.041L166.3,44.9a1.4,1.4,0,0,0-.154-.043L166,44.823c-.06-.012-.119-.02-.177-.026s-.117-.007-.177-.007a1.189,1.189,0,0,0-.51.1.323.323,0,0,0-.21.305.316.316,0,0,0,.115.27,1.215,1.215,0,0,0,.437.162l.6.152a2.08,2.08,0,0,1,.917.424.962.962,0,0,1,.289.743,1.054,1.054,0,0,1-.437.91,1.9,1.9,0,0,1-1.138.315,2.516,2.516,0,0,1-1.525-.451.31.31,0,0,1-.14-.261" fill="#263238"/>
            <path id="Trazado_875479" data-name="Trazado 875479" d="M162.442,76.2H159.96l-.35.934a.568.568,0,0,1-.2.286.515.515,0,0,1-.3.1.558.558,0,0,1-.373-.14.446.446,0,0,1-.163-.354.553.553,0,0,1,.039-.2l1.707-4.275a1.218,1.218,0,0,1,.376-.58.958.958,0,0,1,1.023,0,1.224,1.224,0,0,1,.375.58L163.8,76.82a.575.575,0,0,1,.039.2.447.447,0,0,1-.164.354.558.558,0,0,1-.373.14.515.515,0,0,1-.3-.1.568.568,0,0,1-.2-.286ZM161.2,72.883l-.961,2.563h1.922Z" fill="#263238"/>
            <path id="Trazado_875480" data-name="Trazado 875480" d="M165.14,77.274a1.642,1.642,0,0,1-.583-.725,2.583,2.583,0,0,1-.2-1.029,2.082,2.082,0,0,1,.475-1.447,1.616,1.616,0,0,1,1.264-.529,1.327,1.327,0,0,1,1.229.622V72.4a.528.528,0,0,1,.138-.391.486.486,0,0,1,.356-.138.466.466,0,0,1,.348.138.535.535,0,0,1,.135.391v4.532a.564.564,0,0,1-.142.4.468.468,0,0,1-.352.149.491.491,0,0,1-.351-.122.478.478,0,0,1-.128-.36V76.87a1.348,1.348,0,0,1-1.288.673,1.548,1.548,0,0,1-.9-.269m1.949-.727a1.786,1.786,0,0,0,.235-1.011,2.058,2.058,0,0,0-.1-.667,1.012,1.012,0,0,0-.334-.477.918.918,0,0,0-.586-.187.9.9,0,0,0-.461.113.8.8,0,0,0-.3.305,1.572,1.572,0,0,0-.162.419,2.264,2.264,0,0,0,0,.951,1.8,1.8,0,0,0,.153.433.824.824,0,0,0,.3.337.857.857,0,0,0,.466.126.892.892,0,0,0,.792-.342" fill="#263238"/>
            <path id="Trazado_875481" data-name="Trazado 875481" d="M169.909,77.274a1.642,1.642,0,0,1-.583-.725,2.583,2.583,0,0,1-.2-1.029,2.082,2.082,0,0,1,.475-1.447,1.616,1.616,0,0,1,1.264-.529,1.327,1.327,0,0,1,1.229.622V72.4a.528.528,0,0,1,.138-.391.486.486,0,0,1,.356-.138.466.466,0,0,1,.348.138.535.535,0,0,1,.135.391v4.532a.56.56,0,0,1-.142.4.468.468,0,0,1-.352.149.492.492,0,0,1-.351-.122.478.478,0,0,1-.128-.36V76.87a1.348,1.348,0,0,1-1.287.673,1.549,1.549,0,0,1-.9-.269m1.949-.727a1.786,1.786,0,0,0,.235-1.011,2.058,2.058,0,0,0-.1-.667,1.012,1.012,0,0,0-.334-.477.916.916,0,0,0-.586-.187.9.9,0,0,0-.461.113.8.8,0,0,0-.305.305,1.607,1.607,0,0,0-.162.419,2.264,2.264,0,0,0,0,.951,1.8,1.8,0,0,0,.153.433.824.824,0,0,0,.3.337.857.857,0,0,0,.466.126.892.892,0,0,0,.792-.342" fill="#263238"/>
            <path id="Trazado_875482" data-name="Trazado 875482" d="M176.463,77.237a.976.976,0,0,1-.379-.819,1.537,1.537,0,0,1,.049-.41.981.981,0,0,1,.136-.305.705.705,0,0,1,.247-.218,1.725,1.725,0,0,1,.338-.146,2.535,2.535,0,0,1,.453-.087c.183-.022.368-.035.555-.041s.412-.01.676-.01v-.3a.72.72,0,0,0-.173-.534.707.707,0,0,0-.515-.17q-.074,0-.15.006a1.394,1.394,0,0,0-.153.02l-.137.023a1.128,1.128,0,0,0-.14.033l-.124.035c-.029.008-.07.022-.125.041l-.1.037-.1.041-.085.033a.266.266,0,0,1-.109.019.3.3,0,0,1-.232-.114.4.4,0,0,1-.1-.259.28.28,0,0,1,.171-.272,3.326,3.326,0,0,1,1.436-.3,2.3,2.3,0,0,1,.641.082,1.423,1.423,0,0,1,.5.253,1.1,1.1,0,0,1,.337.463,1.821,1.821,0,0,1,.118.688V77a.473.473,0,0,1-.136.362.458.458,0,0,1-.327.128.464.464,0,0,1-.328-.128.47.47,0,0,1-.138-.362V76.87a1.071,1.071,0,0,1-.4.48,1.3,1.3,0,0,1-.729.185,1.546,1.546,0,0,1-.971-.3m1.772-.624a1.067,1.067,0,0,0,.3-.778v-.113q-.389,0-.616.012a4.036,4.036,0,0,0-.432.045.672.672,0,0,0-.3.105.5.5,0,0,0-.152.186.691.691,0,0,0-.055.294.53.53,0,0,0,.158.414.6.6,0,0,0,.418.142.93.93,0,0,0,.681-.307" fill="#263238"/>
            <path id="Trazado_875483" data-name="Trazado 875483" d="M182.88,77.347a.546.546,0,0,1-.136-.395V74.077a.462.462,0,0,1,.14-.361.5.5,0,0,1,.354-.129.49.49,0,0,1,.346.127.458.458,0,0,1,.136.356v.136a1.155,1.155,0,0,1,.5-.5,1.665,1.665,0,0,1,.784-.171,1.528,1.528,0,0,1,.527.091,1.316,1.316,0,0,1,.441.269,1.218,1.218,0,0,1,.308.468,1.845,1.845,0,0,1,.113.666v1.925a.54.54,0,0,1-.14.395.481.481,0,0,1-.358.142.454.454,0,0,1-.343-.142.546.546,0,0,1-.136-.395V75.023a.84.84,0,0,0-.208-.613.71.71,0,0,0-.531-.212A.89.89,0,0,0,184,74.5a1.138,1.138,0,0,0-.284.8v1.645a.543.543,0,0,1-.138.395.469.469,0,0,1-.352.142.463.463,0,0,1-.35-.142" fill="#263238"/>
            <path id="Trazado_875484" data-name="Trazado 875484" d="M187.409,74.522a1.765,1.765,0,0,1,.667-.714,1.938,1.938,0,0,1,1.031-.272,2.024,2.024,0,0,1,.8.15,1.419,1.419,0,0,1,.56.414,1.924,1.924,0,0,1,.321.6,2.35,2.35,0,0,1,.112.716.4.4,0,0,1-.07.245.245.245,0,0,1-.21.094h-2.458a1.016,1.016,0,0,0,1.124,1.1,1.8,1.8,0,0,0,1.031-.392.239.239,0,0,1,.152-.055.28.28,0,0,1,.214.109.366.366,0,0,1,.093.245.337.337,0,0,1-.125.265,2.163,2.163,0,0,1-1.435.517A2.029,2.029,0,0,1,187.74,77a1.988,1.988,0,0,1-.555-1.5,2.135,2.135,0,0,1,.224-.978m2.659.679a1.3,1.3,0,0,0-.259-.735.8.8,0,0,0-.675-.288.833.833,0,0,0-.682.3,1.268,1.268,0,0,0-.282.723Z" fill="#263238"/>
            <path id="Trazado_875485" data-name="Trazado 875485" d="M195.575,77.341a1.225,1.225,0,0,1-.294-.556L194.5,74.5l-.778,2.288a1.225,1.225,0,0,1-.293.556.635.635,0,0,1-.434.148q-.447,0-.638-.654l-.864-2.66a.6.6,0,0,1-.023-.16.385.385,0,0,1,.132-.305.458.458,0,0,1,.308-.115.432.432,0,0,1,.26.086.455.455,0,0,1,.164.252l.762,2.552.786-2.334a1.011,1.011,0,0,1,.237-.426.583.583,0,0,1,.763,0,1.022,1.022,0,0,1,.237.426l.786,2.334.762-2.552a.454.454,0,0,1,.163-.252.432.432,0,0,1,.261-.086.456.456,0,0,1,.307.115.385.385,0,0,1,.133.305.564.564,0,0,1-.024.16l-.863,2.66q-.19.654-.638.654a.633.633,0,0,1-.434-.148" fill="#263238"/>
            <path id="Trazado_875486" data-name="Trazado 875486" d="M200.412,76.835a.325.325,0,0,1,.088-.226.288.288,0,0,1,.223-.1.419.419,0,0,1,.2.059c.114.064.205.114.274.147a2.173,2.173,0,0,0,.332.115,1.761,1.761,0,0,0,.862.02.669.669,0,0,0,.3-.164.4.4,0,0,0,.127-.305c0-.22-.181-.376-.541-.463l-.607-.156c-.184-.048-.333-.093-.447-.132a2.569,2.569,0,0,1-.346-.15.77.77,0,0,1-.42-.478,1.166,1.166,0,0,1-.059-.387.926.926,0,0,1,.428-.819,1.989,1.989,0,0,1,1.124-.286,2.885,2.885,0,0,1,1.276.292.329.329,0,0,1,.21.311.3.3,0,0,1-.079.212.274.274,0,0,1-.212.087.42.42,0,0,1-.152-.031.717.717,0,0,1-.086-.031c-.054-.021-.093-.035-.114-.041l-.123-.039c-.06-.019-.111-.033-.154-.042s-.093-.02-.153-.031-.119-.02-.177-.026a1.733,1.733,0,0,0-.177-.008,1.189,1.189,0,0,0-.51.1.322.322,0,0,0-.21.305.317.317,0,0,0,.115.27,1.214,1.214,0,0,0,.437.162l.6.152a2.092,2.092,0,0,1,.916.423.964.964,0,0,1,.289.743,1.055,1.055,0,0,1-.437.911,1.9,1.9,0,0,1-1.138.315,2.516,2.516,0,0,1-1.525-.451.31.31,0,0,1-.14-.261" fill="#263238"/>
            <path id="Trazado_875487" data-name="Trazado 875487" d="M204.537,72.66a.515.515,0,0,1-.158-.391.508.508,0,0,1,.158-.389.574.574,0,0,1,.414-.148.56.56,0,0,1,.408.148.563.563,0,0,1,0,.78.639.639,0,0,1-.82,0m.06,4.687a.56.56,0,0,1-.136-.4V74.136a.567.567,0,0,1,.136-.4.5.5,0,0,1,.7,0,.563.563,0,0,1,.138.4v2.808a.555.555,0,0,1-.138.4.469.469,0,0,1-.352.144.463.463,0,0,1-.35-.142" fill="#263238"/>
            <path id="Trazado_875488" data-name="Trazado 875488" d="M207.023,77.2a1.311,1.311,0,0,1-.3-.924V74.264h-.377a.355.355,0,0,1-.259-.091.333.333,0,0,1-.091-.244.317.317,0,0,1,.086-.231.337.337,0,0,1,.252-.088h.409l.117-.964a.59.59,0,0,1,.145-.344.433.433,0,0,1,.337-.135.326.326,0,0,1,.266.113.515.515,0,0,1,.1.339v.991h.626a.328.328,0,0,1,.249.092.34.34,0,0,1,.085.243.312.312,0,0,1-.085.233.344.344,0,0,1-.253.086h-.622v1.77a1.276,1.276,0,0,0,.093.556.338.338,0,0,0,.331.183h.042l.277-.015h.027a.319.319,0,0,1,.253.108.382.382,0,0,1,.093.257.4.4,0,0,1-.031.164.26.26,0,0,1-.1.112.664.664,0,0,1-.138.07.684.684,0,0,1-.189.037c-.079.006-.147.012-.2.014s-.133,0-.226,0h-.085a1.081,1.081,0,0,1-.827-.325" fill="#263238"/>
            <path id="Trazado_875489" data-name="Trazado 875489" d="M209.5,74.522a1.765,1.765,0,0,1,.667-.714,1.938,1.938,0,0,1,1.031-.272,2.024,2.024,0,0,1,.8.15,1.412,1.412,0,0,1,.56.414,1.924,1.924,0,0,1,.321.6,2.35,2.35,0,0,1,.112.716.4.4,0,0,1-.07.245.245.245,0,0,1-.21.094h-2.458a1.016,1.016,0,0,0,1.124,1.1,1.8,1.8,0,0,0,1.031-.392.239.239,0,0,1,.152-.055.28.28,0,0,1,.214.109.366.366,0,0,1,.093.245.337.337,0,0,1-.125.265,2.163,2.163,0,0,1-1.435.517A2.029,2.029,0,0,1,209.835,77a1.988,1.988,0,0,1-.554-1.5,2.135,2.135,0,0,1,.223-.978m2.659.679a1.3,1.3,0,0,0-.259-.735.8.8,0,0,0-.675-.288.833.833,0,0,0-.682.3,1.268,1.268,0,0,0-.282.723Z" fill="#263238"/>
            <path id="Trazado_875490" data-name="Trazado 875490" d="M213.9,77.348a.542.542,0,0,1-.136-.4V74.109a.522.522,0,0,1,.136-.386.479.479,0,0,1,.354-.136.512.512,0,0,1,.348.123.422.422,0,0,1,.142.339v.2a1.283,1.283,0,0,1,1.249-.709,1.414,1.414,0,0,1,.817.228,1.153,1.153,0,0,1,.455.625,1.352,1.352,0,0,1,1.369-.853,1.419,1.419,0,0,1,1.027.374,1.463,1.463,0,0,1,.389,1.1v1.938a.539.539,0,0,1-.138.4.481.481,0,0,1-.356.141.464.464,0,0,1-.346-.141.542.542,0,0,1-.136-.4V75.023a.873.873,0,0,0-.2-.615.7.7,0,0,0-.537-.21.863.863,0,0,0-.684.3,1.224,1.224,0,0,0-.265.836v1.614a.537.537,0,0,1-.138.394.473.473,0,0,1-.356.143.459.459,0,0,1-.344-.143.537.537,0,0,1-.138-.394V75.046a.919.919,0,0,0-.193-.635.692.692,0,0,0-.539-.213.885.885,0,0,0-.684.28,1.089,1.089,0,0,0-.257.763v1.711a.529.529,0,0,1-.142.4.493.493,0,0,1-.36.141.46.46,0,0,1-.342-.141" fill="#263238"/>
            <path id="Trazado_875491" data-name="Trazado 875491" d="M221.194,77.237a.976.976,0,0,1-.379-.819,1.58,1.58,0,0,1,.048-.41A1,1,0,0,1,221,75.7a.705.705,0,0,1,.247-.218,1.725,1.725,0,0,1,.338-.146,2.534,2.534,0,0,1,.453-.087c.183-.022.368-.035.555-.041s.412-.01.676-.01v-.3a.72.72,0,0,0-.173-.534.707.707,0,0,0-.515-.17q-.073,0-.15.006a1.445,1.445,0,0,0-.154.02l-.136.023a1.128,1.128,0,0,0-.14.033l-.124.035c-.029.008-.07.022-.125.041l-.1.037-.1.041-.085.033a.266.266,0,0,1-.109.019.3.3,0,0,1-.232-.114.4.4,0,0,1-.1-.259.28.28,0,0,1,.171-.272,3.32,3.32,0,0,1,1.436-.3,2.287,2.287,0,0,1,.641.082,1.44,1.44,0,0,1,.5.253,1.1,1.1,0,0,1,.337.463,1.821,1.821,0,0,1,.118.688V77a.469.469,0,0,1-.136.362.483.483,0,0,1-.655,0A.47.47,0,0,1,223.3,77V76.87a1.071,1.071,0,0,1-.4.48,1.3,1.3,0,0,1-.729.185,1.546,1.546,0,0,1-.971-.3m1.772-.624a1.067,1.067,0,0,0,.3-.778v-.113c-.258,0-.464,0-.616.012a4.036,4.036,0,0,0-.432.045.672.672,0,0,0-.3.105.5.5,0,0,0-.152.186.677.677,0,0,0-.054.294.529.529,0,0,0,.157.414.6.6,0,0,0,.418.142.93.93,0,0,0,.681-.307" fill="#263238"/>
            <path id="Trazado_875492" data-name="Trazado 875492" d="M225.386,78.823a.532.532,0,0,1-.136-.389V74.143a.569.569,0,0,1,.143-.4.469.469,0,0,1,.354-.151.485.485,0,0,1,.349.124.479.479,0,0,1,.13.362v.136a1.344,1.344,0,0,1,1.284-.677,1.537,1.537,0,0,1,.9.271,1.657,1.657,0,0,1,.583.725,2.579,2.579,0,0,1,.2,1.031A2.087,2.087,0,0,1,228.719,77a1.612,1.612,0,0,1-1.264.531,1.329,1.329,0,0,1-1.229-.626v1.525a.532.532,0,0,1-.138.391.485.485,0,0,1-.356.138.463.463,0,0,1-.346-.14m2.248-2.029a.782.782,0,0,0,.28-.2,1.139,1.139,0,0,0,.181-.3,1.578,1.578,0,0,0,.1-.356,2.289,2.289,0,0,0,.031-.389,2.6,2.6,0,0,0-.027-.366,1.731,1.731,0,0,0-.1-.361,1.192,1.192,0,0,0-.177-.319.786.786,0,0,0-.278-.222.873.873,0,0,0-.389-.086.9.9,0,0,0-.8.339,1.767,1.767,0,0,0-.235,1.007,2.058,2.058,0,0,0,.1.667,1,1,0,0,0,.334.475.925.925,0,0,0,.586.185.938.938,0,0,0,.385-.076" fill="#263238"/>
          </g>
        </g>
        <g id="Grupo_1100464" data-name="Grupo 1100464">
          <g id="Grupo_1100463" data-name="Grupo 1100463" clip-path="url(#clip-path)">
            <path id="Trazado_875493" data-name="Trazado 875493" d="M219.908,7.779a3.255,3.255,0,1,0-3.255,3.255,3.255,3.255,0,0,0,3.255-3.255" fill="#263238"/>
            <path id="Trazado_875494" data-name="Trazado 875494" d="M387.087,212.344H46.379a.5.5,0,0,1-.5-.5V19.3a.5.5,0,0,1,.5-.5H387.087a.5.5,0,0,1,.5.5V211.844a.5.5,0,0,1-.5.5m-340.208-1H386.587V19.8H46.879Z" fill="#263238"/>
          </g>
        </g>
        <g id="Grupo_1100466" data-name="Grupo 1100466">
          <g id="Grupo_1100465" data-name="Grupo 1100465" clip-path="url(#clip-path)">
            <path id="Trazado_875495" data-name="Trazado 875495" d="M415.164,226.587a13.024,13.024,0,0,0-10.49-7.184s-14.693,1.5-36.8,2.222-24.552-.978-24.552-.978a57.816,57.816,0,0,0-2.95,7.45c-.875.722-4.1,3.386-5.56,4.668-1.7,1.491-8.659,3.927-6.865,12.329s12.546,10.864,25.688,12.683c12.492,1.73,34.134.862,44.605-2.338,4.039-.771,7.366-1.894,9.58-3.455,8.231-5.8,10.862-18.454,7.345-25.4" fill="#fff"/>
            <path id="Trazado_875496" data-name="Trazado 875496" d="M368.872,259.156a116.824,116.824,0,0,1-15.306-.884C340.9,256.52,329.38,254.2,327.457,245.2c-1.558-7.3,3.237-10.342,5.813-11.977a11,11,0,0,0,1.211-.833c1.437-1.259,4.589-3.866,5.459-4.584a58.525,58.525,0,0,1,2.935-7.382.494.494,0,0,1,.323-.26.481.481,0,0,1,.408.074c.1.05,3.07,1.577,24.25.888,21.839-.713,36.62-2.2,36.767-2.219a13.392,13.392,0,0,1,10.987,7.456c3.58,7.068,1.082,19.978-7.5,26.03-2.159,1.523-5.447,2.712-9.774,3.539-7.147,2.186-18.841,3.225-29.461,3.225m-25.3-37.872a61.444,61.444,0,0,0-2.723,6.968.493.493,0,0,1-.157.231c-.664.548-4.052,3.346-5.548,4.658a11.422,11.422,0,0,1-1.335.925c-2.537,1.612-6.784,4.307-5.371,10.924,1.787,8.37,12.972,10.591,25.268,12.293,11.707,1.62,33.649.96,44.389-2.321,4.24-.813,7.4-1.948,9.439-3.386,8.053-5.678,10.517-18.189,7.186-24.763a12.632,12.632,0,0,0-10.062-6.91c-.078.013-14.894,1.508-36.766,2.222-17.6.573-22.837-.369-24.32-.841" fill="#263238"/>
            <path id="Trazado_875497" data-name="Trazado 875497" d="M397.515,199.675c-2-4.226-5.025-12.584-5.025-12.584l4.653-20.262s4.329-8.969,2.884-16.283-3.258-7.373-9.485-9.6-10.271-2.321-12.039-4.469a18.476,18.476,0,0,1-3.409-7.643c-.221-1.8-.309-3.746-.309-3.746s-6.317,5.02-16.183,2.4a32.451,32.451,0,0,1,.352,7.782c-.4,3.5-1.467,4.522-7.607,7.307s-15.091,5-16.823,9.812-2.158,12.49-2.549,24.57c-.412,12.776-1.194,14.67-1.194,14.67l-31.973,13.741-.126-.314s-1.566-.754-2.9-1.519-2.121-.021-3.366-1.5-1.726-4.281-2.383-3.191a3.606,3.606,0,0,0,.522,3.746l-.4,1.55,2,7.686a7.661,7.661,0,0,0,4.575-.442c1.295-.683,2.483-1.359,3.141-1.739,8.047-1.281,39.83-10.384,40.775-10.788,1.092-.467,5.32-27.5,5.32-27.5s4.374,13.588,4.62,15.944S342.4,221.8,342.4,221.8s3.632,3.317,19.215,3.029,35.67-2.588,39.365-4.008l3.7-1.421s-5.158-15.5-7.159-19.728" fill="#b2b2b2"/>
            <path id="Trazado_875498" data-name="Trazado 875498" d="M359.736,225.35c-14.028,0-17.527-3.044-17.674-3.179a.5.5,0,0,1-.147-.5c3.381-12.88,8.348-32.645,8.174-34.307-.182-1.737-2.736-9.962-3.958-13.828-2.651,16.748-4.43,25.42-5.289,25.787-1,.428-32.475,9.452-40.8,10.807-.755.437-1.879,1.071-3.078,1.7a8.113,8.113,0,0,1-4.918.489.506.506,0,0,1-.375-.363l-2-7.686a.533.533,0,0,1,0-.251l.338-1.3a4.1,4.1,0,0,1-.4-4.128.827.827,0,0,1,.764-.485c.568.031.854.653,1.286,1.593a9.249,9.249,0,0,0,1.142,2.02,2.177,2.177,0,0,0,1.659.893,4.006,4.006,0,0,1,1.574.493c1.3.746,2.849,1.494,2.865,1.5a.51.51,0,0,1,.154.114l31.317-13.459c.177-.7.764-3.746,1.106-14.318.365-11.3.764-19.684,2.578-24.723,1.4-3.9,7.015-6.083,12.443-8.2,1.652-.644,3.212-1.251,4.645-1.9,5.983-2.714,6.941-3.618,7.315-6.908a32.215,32.215,0,0,0-.347-7.64.5.5,0,0,1,.154-.454.5.5,0,0,1,.466-.115c9.487,2.52,15.683-2.263,15.745-2.311a.5.5,0,0,1,.809.369c0,.019.09,1.948.306,3.708a17.962,17.962,0,0,0,3.3,7.386c1.015,1.233,3.019,1.766,5.795,2.5,1.74.462,3.713.987,6.025,1.813q.728.26,1.375.483c5.127,1.792,7.045,2.462,8.433,9.488,1.419,7.185-2.511,15.726-2.9,16.545l-4.607,20.065c.4,1.1,3.128,8.541,4.957,12.4,1.991,4.2,6.97,19.15,7.181,19.783a.5.5,0,0,1-.295.625l-3.7,1.421c-3.871,1.488-24.126,3.758-39.536,4.042-.648.012-1.278.018-1.886.018M342.969,221.6c1.014.647,5.591,2.978,18.636,2.735,15.031-.277,35.475-2.547,39.194-3.975l3.249-1.249c-.866-2.586-5.21-15.472-6.984-19.219-1.99-4.2-5.013-12.544-5.043-12.628a.5.5,0,0,1-.018-.282l4.654-20.263a.43.43,0,0,1,.037-.1c.042-.089,4.238-8.907,2.843-15.97-1.277-6.463-2.655-6.944-7.782-8.736-.434-.152-.894-.313-1.381-.487-2.273-.811-4.224-1.33-5.946-1.788-2.955-.785-5.091-1.351-6.31-2.834a18.851,18.851,0,0,1-3.52-7.9c-.128-1.045-.213-2.147-.261-2.89a19.866,19.866,0,0,1-15.126,2.153,31,31,0,0,1,.24,7.172c-.421,3.7-1.6,4.851-7.9,7.705-1.456.662-3.028,1.274-4.693,1.922-5.221,2.034-10.619,4.138-11.866,7.6-1.764,4.9-2.157,13.212-2.519,24.418-.411,12.72-1.2,14.762-1.233,14.843a.492.492,0,0,1-.264.268l-31.973,13.741a.511.511,0,0,1-.388,0,.5.5,0,0,1-.273-.275l-.055-.136c-.447-.219-1.668-.826-2.754-1.45a3.1,3.1,0,0,0-1.221-.371,3.149,3.149,0,0,1-2.278-1.238,10.034,10.034,0,0,1-1.287-2.246c-.116-.253-.259-.564-.381-.786a3.226,3.226,0,0,0,.554,2.923.5.5,0,0,1,.12.467l-.369,1.425,1.884,7.251a6.856,6.856,0,0,0,3.938-.45c1.229-.647,2.377-1.3,3.125-1.729a.51.51,0,0,1,.171-.062c7.731-1.23,38.445-9.986,40.569-10.72.864-1.5,3.58-17.355,5.111-27.146a.5.5,0,0,1,.97-.076c.179.557,4.393,13.665,4.641,16.045.242,2.312-6.922,29.784-8.114,34.333" fill="#263238"/>
            <path id="Trazado_875499" data-name="Trazado 875499" d="M367.125,140.294c3.258,0,8.423-3.513,10.1-5.721a18.287,18.287,0,0,1-2.129-5.736c-.221-1.8-.309-3.746-.309-3.746s-6.317,5.02-16.183,2.4a33.743,33.743,0,0,1,.4,7.21c2.58,2.117,4.81,5.59,8.118,5.59" fill="#263238"/>
            <path id="Trazado_875500" data-name="Trazado 875500" d="M367.125,140.795c-2.614,0-4.544-1.933-6.411-3.8-.659-.66-1.34-1.342-2.025-1.9a.5.5,0,0,1-.181-.425,33.482,33.482,0,0,0-.4-7.085.5.5,0,0,1,.62-.57c9.487,2.52,15.684-2.262,15.745-2.311a.5.5,0,0,1,.81.369c0,.02.09,1.948.3,3.708a17.774,17.774,0,0,0,2.069,5.552.5.5,0,0,1-.037.547c-1.766,2.329-7.068,5.92-10.5,5.92m-7.6-6.311c.652.556,1.285,1.188,1.9,1.8,1.8,1.8,3.505,3.508,5.7,3.508,2.927,0,7.671-3.1,9.5-5.273A18.686,18.686,0,0,1,374.6,128.9c-.128-1.045-.213-2.146-.261-2.89a19.843,19.843,0,0,1-15.126,2.154,33.174,33.174,0,0,1,.313,6.323" fill="#263238"/>
            <path id="Trazado_875501" data-name="Trazado 875501" d="M398.466,98.347c0,1.083-1.034,2.09-1.16,3.142-.129,1.07.632,2.314.375,3.345s-1.5,1.742-1.883,2.735.064,2.4-.431,3.337-1.862,1.305-2.458,2.182-.471,2.339-1.159,3.143-2.1.839-2.861,1.563-.933,2.178-1.767,2.818-2.214.375-3.1.927-1.324,1.944-2.259,2.406-2.245-.068-3.217.3c-.956.364-1.642,1.656-2.645,1.935-.982.273-2.194-.488-3.216-.3-1,.183-1.895,1.329-2.928,1.423-1.013.092-2.084-.875-3.121-.873s-2.1.975-3.118.888c-1.034-.089-1.932-1.231-2.933-1.409-1.024-.181-2.232.586-3.216.317-1-.274-1.7-1.562-2.654-1.922-.975-.367-2.3.163-3.219-.288-.939-.457-1.393-1.856-2.272-2.395s-2.285-.287-3.108-.914-1.022-2.1-1.781-2.809-2.185-.759-2.869-1.55-.578-2.271-1.173-3.137-1.974-1.237-2.469-2.171-.062-2.342-.446-3.335-1.633-1.687-1.9-2.725.495-2.277.361-3.346c-.133-1.051-1.174-2.053-1.175-3.136s1.033-2.09,1.16-3.142c.129-1.07-.634-2.313-.377-3.345s1.5-1.742,1.884-2.735-.064-2.4.431-3.336,1.862-1.306,2.458-2.183.47-2.339,1.159-3.143,2.1-.839,2.859-1.563.935-2.178,1.769-2.818,2.214-.375,3.1-.927,1.324-1.944,2.259-2.407c.919-.454,2.245.069,3.216-.3s1.643-1.656,2.644-1.935c.984-.273,2.2.488,3.218.3,1-.182,1.894-1.329,2.928-1.423,1.012-.092,2.084.875,3.121.873s2.1-.975,3.118-.888c1.033.089,1.932,1.231,2.933,1.409,1.022.181,2.232-.586,3.216-.317,1,.274,1.7,1.562,2.654,1.922.975.367,2.3-.163,3.22.288.938.457,1.392,1.856,2.271,2.395s2.285.288,3.108.914,1.022,2.1,1.781,2.809,2.185.759,2.869,1.55.578,2.271,1.173,3.137,1.974,1.237,2.469,2.171.062,2.342.446,3.334,1.633,1.688,1.9,2.726-.495,2.277-.361,3.346c.132,1.051,1.172,2.053,1.176,3.136" fill="#263238"/>
            <path id="Trazado_875502" data-name="Trazado 875502" d="M363.646,127.825c-.057,0-.116,0-.174-.007a3.926,3.926,0,0,1-1.787-.8,2.288,2.288,0,0,0-2.539-.446,3.8,3.8,0,0,1-1.914.14,3.985,3.985,0,0,1-1.624-1.113,3.631,3.631,0,0,0-1.074-.824,3.537,3.537,0,0,0-1.351-.085,3.8,3.8,0,0,1-1.911-.221,4.047,4.047,0,0,1-1.4-1.4,3.754,3.754,0,0,0-.913-1.018,3.6,3.6,0,0,0-1.309-.347,3.817,3.817,0,0,1-1.842-.595,4.108,4.108,0,0,1-1.113-1.658,3.879,3.879,0,0,0-.707-1.184,3.638,3.638,0,0,0-1.213-.613,3.878,3.878,0,0,1-1.691-.974,4.169,4.169,0,0,1-.756-1.865,4.011,4.011,0,0,0-.451-1.317,3.782,3.782,0,0,0-1.051-.872,3.949,3.949,0,0,1-1.447-1.347,4.2,4.2,0,0,1-.325-2,4.082,4.082,0,0,0-.147-1.392,3.928,3.928,0,0,0-.815-1.1,4.049,4.049,0,0,1-1.1-1.682,4.163,4.163,0,0,1,.158-2.011,4.118,4.118,0,0,0,.191-1.4,4.02,4.02,0,0,0-.52-1.268,3.173,3.173,0,0,1-.01-3.859,3.992,3.992,0,0,0,.515-1.273,4.125,4.125,0,0,0-.2-1.394,4.174,4.174,0,0,1-.168-2.01,4.035,4.035,0,0,1,1.092-1.69,3.932,3.932,0,0,0,.809-1.1,4.053,4.053,0,0,0,.14-1.393,4.219,4.219,0,0,1,.314-2,3.967,3.967,0,0,1,1.444-1.354,3.8,3.8,0,0,0,1.046-.877,3.965,3.965,0,0,0,.445-1.318A4.164,4.164,0,0,1,341,80.29a3.874,3.874,0,0,1,1.687-.982,3.678,3.678,0,0,0,1.211-.618,3.9,3.9,0,0,0,.7-1.188,4.105,4.105,0,0,1,1.105-1.664,3.812,3.812,0,0,1,1.838-.6,3.585,3.585,0,0,0,1.307-.353,3.759,3.759,0,0,0,.908-1.021,4.059,4.059,0,0,1,1.393-1.409,3.787,3.787,0,0,1,1.911-.229,3.522,3.522,0,0,0,1.35-.092,3.658,3.658,0,0,0,1.069-.828,3.978,3.978,0,0,1,1.618-1.121,3.773,3.773,0,0,1,1.915.13,3.485,3.485,0,0,0,1.347.161,3.563,3.563,0,0,0,1.19-.618,3.918,3.918,0,0,1,1.783-.811,3.817,3.817,0,0,1,1.859.471,3.564,3.564,0,0,0,1.3.4h0a3.556,3.556,0,0,0,1.3-.407,3.865,3.865,0,0,1,1.856-.479,3.931,3.931,0,0,1,1.786.8,2.284,2.284,0,0,0,2.539.446,3.818,3.818,0,0,1,1.914-.139,3.969,3.969,0,0,1,1.623,1.113,3.644,3.644,0,0,0,1.076.823,3.533,3.533,0,0,0,1.349.085,3.78,3.78,0,0,1,1.913.222,4.03,4.03,0,0,1,1.4,1.4,3.731,3.731,0,0,0,.913,1.017,3.584,3.584,0,0,0,1.31.348,3.825,3.825,0,0,1,1.84.593,4.126,4.126,0,0,1,1.113,1.659,3.877,3.877,0,0,0,.707,1.184,3.625,3.625,0,0,0,1.214.613,3.876,3.876,0,0,1,1.691.975,4.177,4.177,0,0,1,.756,1.864,3.979,3.979,0,0,0,.451,1.317,3.776,3.776,0,0,0,1.05.872,3.946,3.946,0,0,1,1.448,1.348,4.2,4.2,0,0,1,.325,2,4.082,4.082,0,0,0,.147,1.392,3.905,3.905,0,0,0,.815,1.1,4.043,4.043,0,0,1,1.1,1.682,4.15,4.15,0,0,1-.159,2.011,4.1,4.1,0,0,0-.19,1.4,4.02,4.02,0,0,0,.519,1.269,3.169,3.169,0,0,1,.009,3.86,4,4,0,0,0-.513,1.271,4.134,4.134,0,0,0,.2,1.395,4.174,4.174,0,0,1,.168,2.01,4.036,4.036,0,0,1-1.091,1.688,3.932,3.932,0,0,0-.811,1.105,4.127,4.127,0,0,0-.14,1.393,4.167,4.167,0,0,1-.316,2,3.94,3.94,0,0,1-1.442,1.355,3.794,3.794,0,0,0-1.046.876,4.019,4.019,0,0,0-.444,1.318,4.161,4.161,0,0,1-.747,1.869,3.892,3.892,0,0,1-1.687.983,3.688,3.688,0,0,0-1.211.618,3.917,3.917,0,0,0-.7,1.188,4.112,4.112,0,0,1-1.105,1.663,3.819,3.819,0,0,1-1.838.6,3.585,3.585,0,0,0-1.307.353,3.775,3.775,0,0,0-.908,1.021,4.045,4.045,0,0,1-1.394,1.409,3.807,3.807,0,0,1-1.91.23,3.531,3.531,0,0,0-1.349.091,3.659,3.659,0,0,0-1.072.829,3.959,3.959,0,0,1-1.617,1.12,3.763,3.763,0,0,1-1.915-.13,3.442,3.442,0,0,0-1.347-.161,3.54,3.54,0,0,0-1.19.619,3.913,3.913,0,0,1-1.782.81,3.846,3.846,0,0,1-1.859-.47,3.56,3.56,0,0,0-1.3-.4h0a3.56,3.56,0,0,0-1.3.406,4.222,4.222,0,0,1-1.682.487m-3.4-2.443a2.436,2.436,0,0,1,.424.036,4.3,4.3,0,0,1,1.574.766,3.19,3.19,0,0,0,1.316.637,3.315,3.315,0,0,0,1.364-.4,4.286,4.286,0,0,1,1.709-.493h.006a4.323,4.323,0,0,1,1.706.484,3.068,3.068,0,0,0,1.366.39,3.184,3.184,0,0,0,1.313-.644,3.208,3.208,0,0,1,3.33-.6,3.069,3.069,0,0,0,1.413.139,3.222,3.222,0,0,0,1.189-.875,4.374,4.374,0,0,1,1.411-1.045,4.321,4.321,0,0,1,1.755-.156,3.049,3.049,0,0,0,1.418-.128,3.316,3.316,0,0,0,1.021-1.091,4.526,4.526,0,0,1,1.2-1.292,4.315,4.315,0,0,1,1.686-.492,3.081,3.081,0,0,0,1.376-.407,3.376,3.376,0,0,0,.805-1.283,4.6,4.6,0,0,1,.924-1.5,4.41,4.41,0,0,1,1.546-.828,3.137,3.137,0,0,0,1.278-.7,3.436,3.436,0,0,0,.531-1.437,4.738,4.738,0,0,1,.594-1.661,4.533,4.533,0,0,1,1.319-1.147,3.218,3.218,0,0,0,1.111-.987,3.445,3.445,0,0,0,.2-1.529,4.849,4.849,0,0,1,.207-1.753,4.671,4.671,0,0,1,1.006-1.424,3.29,3.29,0,0,0,.858-1.253,3.423,3.423,0,0,0-.168-1.528,4.924,4.924,0,0,1-.219-1.756,4.753,4.753,0,0,1,.623-1.621,2.249,2.249,0,0,0-.006-2.917,4.726,4.726,0,0,1-.631-1.618,4.884,4.884,0,0,1,.211-1.758,3.457,3.457,0,0,0,.161-1.528,3.324,3.324,0,0,0-.865-1.251,4.641,4.641,0,0,1-1.012-1.417,4.82,4.82,0,0,1-.215-1.752,3.462,3.462,0,0,0-.208-1.528,3.192,3.192,0,0,0-1.114-.982,4.536,4.536,0,0,1-1.325-1.141,4.747,4.747,0,0,1-.6-1.659,3.425,3.425,0,0,0-.537-1.434,3.117,3.117,0,0,0-1.28-.69,4.416,4.416,0,0,1-1.551-.821,4.628,4.628,0,0,1-.933-1.5,3.378,3.378,0,0,0-.809-1.279,3.082,3.082,0,0,0-1.377-.4,4.327,4.327,0,0,1-1.692-.485,4.484,4.484,0,0,1-1.2-1.287,3.338,3.338,0,0,0-1.025-1.085A3.109,3.109,0,0,0,380,73.156a4.235,4.235,0,0,1-1.755-.147,4.368,4.368,0,0,1-1.416-1.038,3.236,3.236,0,0,0-1.194-.869,3.058,3.058,0,0,0-1.411.145,3.207,3.207,0,0,1-3.333-.585,2.014,2.014,0,0,0-2.682-.24,4.314,4.314,0,0,1-1.708.493h0a4.32,4.32,0,0,1-1.707-.485,3.141,3.141,0,0,0-1.367-.39,3.185,3.185,0,0,0-1.315.644,3.206,3.206,0,0,1-3.33.6,3.041,3.041,0,0,0-1.412-.139,3.25,3.25,0,0,0-1.188.875,4.4,4.4,0,0,1-1.411,1.046,4.318,4.318,0,0,1-1.755.155,3.088,3.088,0,0,0-1.418.128,3.317,3.317,0,0,0-1.022,1.091,4.482,4.482,0,0,1-1.2,1.292,4.325,4.325,0,0,1-1.687.492,3.085,3.085,0,0,0-1.376.407,3.4,3.4,0,0,0-.8,1.283,4.606,4.606,0,0,1-.924,1.5,4.415,4.415,0,0,1-1.547.828,3.124,3.124,0,0,0-1.278.7,3.426,3.426,0,0,0-.531,1.436,4.734,4.734,0,0,1-.593,1.662,4.544,4.544,0,0,1-1.321,1.148,3.2,3.2,0,0,0-1.11.986A3.474,3.474,0,0,0,338,87.7a4.832,4.832,0,0,1-.206,1.754,4.678,4.678,0,0,1-1.005,1.421,3.317,3.317,0,0,0-.86,1.256,3.451,3.451,0,0,0,.168,1.528,4.9,4.9,0,0,1,.219,1.755,4.743,4.743,0,0,1-.623,1.623,2.249,2.249,0,0,0,.007,2.916,4.75,4.75,0,0,1,.631,1.617,4.89,4.89,0,0,1-.211,1.759,3.423,3.423,0,0,0-.161,1.527,3.309,3.309,0,0,0,.864,1.251,4.651,4.651,0,0,1,1.014,1.418,4.841,4.841,0,0,1,.214,1.752,3.462,3.462,0,0,0,.208,1.528,3.18,3.18,0,0,0,1.114.98,4.55,4.55,0,0,1,1.325,1.142,4.74,4.74,0,0,1,.6,1.66,3.427,3.427,0,0,0,.537,1.435,3.136,3.136,0,0,0,1.281.689,4.426,4.426,0,0,1,1.55.82,4.623,4.623,0,0,1,.931,1.5,3.392,3.392,0,0,0,.811,1.279,3.074,3.074,0,0,0,1.379.4,4.311,4.311,0,0,1,1.689.484,4.474,4.474,0,0,1,1.2,1.287,3.314,3.314,0,0,0,1.026,1.086,3.091,3.091,0,0,0,1.419.121,4.272,4.272,0,0,1,1.756.147,4.408,4.408,0,0,1,1.416,1.038,3.24,3.24,0,0,0,1.194.87,3.05,3.05,0,0,0,1.412-.145,5.616,5.616,0,0,1,1.335-.218" fill="#263238"/>
            <path id="Trazado_875503" data-name="Trazado 875503" d="M381.934,107.568s1.937-4.317,3.608-3.765,2.38,6.255.3,8.764-3.752,1.678-4.171,1.122.264-6.121.264-6.121" fill="#b2b2b2"/>
            <path id="Trazado_875504" data-name="Trazado 875504" d="M383.025,114.779h-.058a2.22,2.22,0,0,1-1.7-.787c-.359-.476-.3-2.658.167-6.484a.461.461,0,0,1,.04-.145c.354-.79,2.214-4.691,4.22-4.034.866.286,1.335,1.351,1.577,2.193.63,2.2.477,5.524-1.049,7.365a4.271,4.271,0,0,1-3.2,1.893m-.6-7.075a28.517,28.517,0,0,0-.324,5.729,1.29,1.29,0,0,0,.893.346c.531,0,1.4-.242,2.466-1.532,1.26-1.52,1.426-4.473.859-6.45-.285-.988-.667-1.433-.931-1.52-.81-.281-2.244,1.857-2.963,3.427" fill="#263238"/>
            <path id="Trazado_875505" data-name="Trazado 875505" d="M350.49,105.278a3.253,3.253,0,0,0-3.47,3.347c-.269,3.617,3.908,5.137,4.465,5.414s-.995-8.761-.995-8.761" fill="#b2b2b2"/>
            <path id="Trazado_875506" data-name="Trazado 875506" d="M351.5,114.538a.539.539,0,0,1-.238-.052l-.187-.085c-3.2-1.422-4.734-3.379-4.553-5.814a4.092,4.092,0,0,1,1.323-2.937,3.967,3.967,0,0,1,2.688-.871.5.5,0,0,1,.451.413c1.5,8.759,1.124,9.04.848,9.246a.569.569,0,0,1-.332.1m-1.43-8.751a2.845,2.845,0,0,0-1.584.632,3.136,3.136,0,0,0-.966,2.242c-.14,1.878,1.065,3.442,3.582,4.651-.062-1.283-.521-4.5-1.032-7.525" fill="#263238"/>
            <path id="Trazado_875507" data-name="Trazado 875507" d="M349.36,98.325s.87,14.882,3.391,22.11,10.885,14.58,14.5,14.154,6.81-2.52,10-7.4a35.315,35.315,0,0,0,5.22-19.364l-.28-9.443s-4.754-10.144-16.439-9.838c-8.493.223-12.926,4.622-16.391,9.777" fill="#b2b2b2"/>
            <path id="Trazado_875508" data-name="Trazado 875508" d="M366.965,135.107c-4.017,0-12.183-7.331-14.685-14.507-2.515-7.211-3.384-21.635-3.419-22.245a.5.5,0,0,1,.084-.309c3.235-4.811,7.759-9.761,16.794-10,.176-.005.352-.007.525-.007,11.5,0,16.331,10.028,16.379,10.132a.5.5,0,0,1,.047.2l.28,9.443a35.8,35.8,0,0,1-5.3,19.653c-3.093,4.729-6.384,7.15-10.359,7.619a2.771,2.771,0,0,1-.346.021m-17.1-36.643c.105,1.659,1.027,15.137,3.354,21.806,2.569,7.369,10.833,14.162,13.97,13.824,3.657-.433,6.72-2.712,9.638-7.174a34.812,34.812,0,0,0,5.138-19.077l-.276-9.333c-.494-.964-5.145-9.468-15.433-9.468-.164,0-.329,0-.5.007-8.474.221-12.661,4.638-15.9,9.415" fill="#263238"/>
            <path id="Trazado_875509" data-name="Trazado 875509" d="M382.19,98.386s-4.754-10.144-16.438-9.838c-8.493.223-12.926,4.622-16.392,9.777,0,0,.073,1.241.237,3.175a24.183,24.183,0,0,1,16.728-5.858c8.5.379,13.466,3.438,15.95,5.6Z" fill="#26aab7"/>
            <path id="Trazado_875510" data-name="Trazado 875510" d="M349.6,102a.508.508,0,0,1-.191-.038.5.5,0,0,1-.307-.42c-.165-1.941-.238-3.187-.238-3.187a.5.5,0,0,1,.084-.309c3.235-4.811,7.759-9.761,16.794-10,.176-.005.352-.007.525-.007,11.5,0,16.331,10.028,16.379,10.132a.5.5,0,0,1,.047.2l.084,2.853a.5.5,0,0,1-.828.391c-2.641-2.3-7.5-5.111-15.643-5.474a23.739,23.739,0,0,0-16.382,5.74.5.5,0,0,1-.324.119m.273-3.536c.02.31.067,1.033.147,2.046a24.625,24.625,0,0,1,16.331-5.367c7.621.34,12.49,2.775,15.394,5.014l-.048-1.647c-.5-.981-5.289-9.757-15.929-9.461-8.474.221-12.661,4.638-15.9,9.415" fill="#263238"/>
            <path id="Trazado_875511" data-name="Trazado 875511" d="M359.96,109.776c0,1.191-.524,1.157-1.177,1.159s-1.185.037-1.188-1.153.524-2.158,1.177-2.159,1.185.962,1.188,2.153" fill="#263238"/>
            <path id="Trazado_875512" data-name="Trazado 875512" d="M373.175,109.745c0,1.191-.524,1.157-1.177,1.159s-1.185.037-1.188-1.153.524-2.158,1.178-2.159,1.184.962,1.187,2.153" fill="#263238"/>
            <path id="Trazado_875513" data-name="Trazado 875513" d="M354.387,106.463a.5.5,0,0,1-.373-.831,7.705,7.705,0,0,1,6.56-2.265.5.5,0,0,1,.423.568.51.51,0,0,1-.567.423,6.646,6.646,0,0,0-5.67,1.939.5.5,0,0,1-.373.166" fill="#263238"/>
            <path id="Trazado_875514" data-name="Trazado 875514" d="M376.782,106.272a.5.5,0,0,1-.383-.178c-3.321-3.943-7.046-2.287-7.2-2.216a.5.5,0,0,1-.424-.9c.045-.022,4.56-2.068,8.392,2.477a.5.5,0,0,1-.383.822" fill="#263238"/>
            <path id="Trazado_875515" data-name="Trazado 875515" d="M366.481,117.281A5.965,5.965,0,0,1,363,116.076a.5.5,0,0,1,.615-.79c.117.092,2.915,2.2,5.34.01a.5.5,0,1,1,.669.742,4.58,4.58,0,0,1-3.147,1.243" fill="#263238"/>
            <path id="Trazado_875516" data-name="Trazado 875516" d="M355.975,112.054a.25.25,0,0,1-.049-.5,16.814,16.814,0,0,1,5.269-.139.25.25,0,0,1-.082.494,16.544,16.544,0,0,0-5.089.135.281.281,0,0,1-.049,0" fill="#263238"/>
            <path id="Trazado_875517" data-name="Trazado 875517" d="M375.462,112.054a.242.242,0,0,1-.079-.013,11.311,11.311,0,0,0-5.051-.264.25.25,0,0,1-.1-.491,11.627,11.627,0,0,1,5.307.281.25.25,0,0,1-.079.487" fill="#263238"/>
            <path id="Trazado_875518" data-name="Trazado 875518" d="M364.015,112.462a.25.25,0,0,1-.084-.485l3.815-1.363a.253.253,0,0,1,.32.152.249.249,0,0,1-.152.319l-3.815,1.362a.244.244,0,0,1-.084.015" fill="#263238"/>
            <path id="Trazado_875519" data-name="Trazado 875519" d="M364.151,111.372a.25.25,0,0,1-.1-.479l2.862-1.227a.25.25,0,1,1,.2.459l-2.861,1.226a.252.252,0,0,1-.1.021" fill="#263238"/>
            <path id="Trazado_875520" data-name="Trazado 875520" d="M366.476,122.266a9.962,9.962,0,0,1-4.666-1.289.5.5,0,0,1,.525-.851c.2.121,4.859,2.925,8.279-.637a.5.5,0,1,1,.72.693,6.516,6.516,0,0,1-4.858,2.084" fill="#263238"/>
            <path id="Trazado_875521" data-name="Trazado 875521" d="M400.978,220.823l3.7-1.421s-5.157-15.5-7.158-19.728-5.026-12.583-5.026-12.583l3.917-17.056c-4.667-1.022-9.476-9.188-10.093-14.831-.484-4.422-.059-11.448.264-15.507-.746-.209-1.452-.4-2.108-.572a158.856,158.856,0,0,0-.323,17.43c-14.984,4.3-30.876.84-30.876.84l.02-15.721c-.581.282-1.219.579-1.93.9-.084,2.625-.32,7.73-.97,12.721-.93,7.144-4.425,16.075-4.425,16.075s4.375,13.587,4.62,15.943S342.4,221.8,342.4,221.8s3.631,3.317,19.214,3.03,35.67-2.589,39.366-4.009" fill="#263238"/>
            <path id="Trazado_875522" data-name="Trazado 875522" d="M359.735,225.35c-14.028,0-17.527-3.044-17.674-3.178a.5.5,0,0,1-.146-.5c3.38-12.88,8.347-32.646,8.173-34.308-.238-2.278-4.555-15.706-4.6-15.842a.5.5,0,0,1,.009-.336c.036-.088,3.485-8.958,4.4-15.958.649-4.98.884-10.076.966-12.671a.5.5,0,0,1,.293-.44c.707-.321,1.341-.615,1.92-.9a.5.5,0,0,1,.717.451l-.019,15.31c2.513.483,16.58,2.888,29.863-.805a154.8,154.8,0,0,1,.338-17.108.5.5,0,0,1,.214-.358.507.507,0,0,1,.411-.072c.658.174,1.366.364,2.115.574a.5.5,0,0,1,.363.522c-.307,3.86-.748,11-.266,15.411.606,5.543,5.3,13.433,9.705,14.4a.5.5,0,0,1,.38.6l-3.884,16.911c.4,1.106,3.128,8.541,4.957,12.4,1.991,4.2,6.97,19.149,7.181,19.783a.5.5,0,0,1-.3.625l-3.7,1.421c-3.871,1.487-24.126,3.758-39.536,4.042q-.974.018-1.887.017M342.968,221.6c1.014.648,5.591,2.978,18.636,2.736,15.031-.278,35.474-2.546,39.194-3.976l3.249-1.249c-.866-2.586-5.21-15.472-6.984-19.219-1.989-4.2-5.013-12.544-5.043-12.628a.5.5,0,0,1-.018-.282l3.81-16.586c-4.7-1.481-9.364-9.353-10-15.134-.475-4.343-.075-11.215.231-15.19q-.588-.162-1.138-.31a165.488,165.488,0,0,0-.262,16.778.5.5,0,0,1-.362.5c-14.931,4.284-30.959.883-31.12.848a.5.5,0,0,1-.394-.49l.02-14.927q-.449.21-.941.436c-.091,2.694-.334,7.628-.963,12.459-.857,6.585-3.908,14.76-4.39,16.025.526,1.641,4.35,13.614,4.586,15.877.243,2.313-6.921,29.785-8.114,34.333m58.01-.773h0Z" fill="#263238"/>
            <path id="Trazado_875523" data-name="Trazado 875523" d="M344.894,218.487l20.792-17.511-52.692-4.3L292.31,213.486Z" fill="#828282"/>
            <path id="Trazado_875524" data-name="Trazado 875524" d="M344.894,218.987l-.047,0-52.584-5a.5.5,0,0,1-.268-.886l20.683-16.81a.507.507,0,0,1,.357-.111l52.691,4.3a.5.5,0,0,1,.282.881L345.217,218.87a.5.5,0,0,1-.323.117M293.573,213.1l51.16,4.865,19.7-16.594-51.281-4.185Z" fill="#263238"/>
            <path id="Trazado_875525" data-name="Trazado 875525" d="M292.31,213.485l52.584,5-8.247-37.642-53.333-3.4Z" fill="#263238"/>
            <path id="Trazado_875526" data-name="Trazado 875526" d="M344.895,218.987l-.047,0-52.584-5a.5.5,0,0,1-.439-.377l-9-36.036a.5.5,0,0,1,.518-.62l53.332,3.395a.5.5,0,0,1,.456.392l8.248,37.641a.5.5,0,0,1-.488.608m-52.185-5.965,51.55,4.9-8.022-36.6-52.273-3.328Z" fill="#263238"/>
            <path id="Trazado_875527" data-name="Trazado 875527" d="M337.672,185.522c-10.312,1.68-14.478,11.747-26.152,21.3A35.445,35.445,0,0,1,298,214.026l46.9,4.461Z" fill="#4d4d4d"/>
            <path id="Trazado_875528" data-name="Trazado 875528" d="M344.895,218.987l-.047,0-46.9-4.461a.5.5,0,0,1-.078-.983,35.16,35.16,0,0,0,13.332-7.107,98.29,98.29,0,0,0,10.413-10.2c5.176-5.648,9.264-10.108,15.975-11.2a.5.5,0,0,1,.568.385l7.223,32.964a.5.5,0,0,1-.488.608m-44.343-5.221,43.708,4.158L337.286,186.1c-6.1,1.169-10.01,5.438-14.931,10.807a99.043,99.043,0,0,1-10.518,10.3,37.944,37.944,0,0,1-11.285,6.559" fill="#263238"/>
            <path id="Trazado_875529" data-name="Trazado 875529" d="M290.047,209.351a4.815,4.815,0,0,0,1.332,2.636c1.125,1.027,3.614.915,4.116.083s-.584-.984-1.96-1.6a25.2,25.2,0,0,0-3.488-1.123" fill="#b2b2b2"/>
            <path id="Trazado_875530" data-name="Trazado 875530" d="M293.661,213.225a3.973,3.973,0,0,1-2.619-.869,5.294,5.294,0,0,1-1.491-2.941.5.5,0,0,1,.613-.551,25.552,25.552,0,0,1,3.574,1.153c.28.125.549.229.793.325.759.3,1.359.533,1.54,1.064a1.075,1.075,0,0,1-.149.922,2.167,2.167,0,0,1-1.61.851,4.652,4.652,0,0,1-.651.046m-2.921-3.174a3.838,3.838,0,0,0,.976,1.566,3.241,3.241,0,0,0,2.453.573,1.372,1.372,0,0,0,.9-.377.366.366,0,0,0,.053-.117,5.67,5.67,0,0,0-.953-.422c-.257-.1-.539-.212-.834-.343a20.309,20.309,0,0,0-2.592-.88" fill="#263238"/>
            <path id="Trazado_875531" data-name="Trazado 875531" d="M289.732,208.354s-.624,1.107,2.109,1.927,4.173-.122,4.464-1.146a1.326,1.326,0,0,0-1.091-1.77c-.6.027-4.559.543-4.962.561s-.691-.373-.52.428" fill="#b2b2b2"/>
            <path id="Trazado_875532" data-name="Trazado 875532" d="M293.756,211.094a7.16,7.16,0,0,1-2.057-.335c-1.338-.4-2.156-.949-2.429-1.627a1.293,1.293,0,0,1-.056-.818.854.854,0,0,1,.161-.81.688.688,0,0,1,.694-.11.86.86,0,0,0,.16.033c.165-.008,1.166-.129,2.049-.236,1.259-.153,2.563-.31,2.914-.326a1.6,1.6,0,0,1,1.265.64,1.951,1.951,0,0,1,.33,1.766,2.346,2.346,0,0,1-1.169,1.394,3.819,3.819,0,0,1-1.862.429m-3.576-2.516a.278.278,0,0,0,.03.21c.082.169.419.606,1.776,1.014a4.251,4.251,0,0,0,3.152-.014,1.35,1.35,0,0,0,.687-.79.941.941,0,0,0-.152-.872.67.67,0,0,0-.436-.263c-.313.015-1.714.185-2.839.32-1.192.145-1.932.234-2.124.243h-.046a.553.553,0,0,1-.048.151" fill="#263238"/>
            <path id="Trazado_875533" data-name="Trazado 875533" d="M288.577,205.171s-.028,2.36.4,2.947,3.962,1.169,5.668.148,1.218-2.886.141-2.837-6.212-.258-6.212-.258" fill="#b2b2b2"/>
            <path id="Trazado_875534" data-name="Trazado 875534" d="M292.014,209.325c-1.544,0-3.051-.385-3.437-.91-.492-.669-.507-2.656-.5-3.249a.5.5,0,0,1,.159-.36.462.462,0,0,1,.371-.133c.051,0,5.12.3,6.161.258a1.4,1.4,0,0,1,1.419,1.077A2.4,2.4,0,0,1,294.9,208.7a5.871,5.871,0,0,1-2.891.629m-2.933-3.624a6.07,6.07,0,0,0,.3,2.122,6.691,6.691,0,0,0,5.009.016,1.431,1.431,0,0,0,.837-1.543.481.481,0,0,0-.417-.367c-.892.042-4.378-.149-5.731-.228" fill="#263238"/>
            <path id="Trazado_875535" data-name="Trazado 875535" d="M289.028,200.231s-2.127,4.207-.623,5.407,5.836.823,6.485-.837-.969-1.406-2.794-1.685-2.28-.359-2.28-.359Z" fill="#b2b2b2"/>
            <path id="Trazado_875536" data-name="Trazado 875536" d="M291.1,206.839a4.972,4.972,0,0,1-3-.811c-1.771-1.413.252-5.555.488-6.023a.5.5,0,0,1,.924.076l.7,2.231c.311.051.907.146,1.97.309.343.053.679.086.994.116.979.1,1.826.181,2.2.795a1.58,1.58,0,0,1-.013,1.451,3.117,3.117,0,0,1-2.248,1.6,7.957,7.957,0,0,1-2.01.252m-2.146-5.176c-.507,1.353-.9,3.053-.235,3.584a5.454,5.454,0,0,0,4.131.374,2.255,2.255,0,0,0,1.577-1c.126-.32.128-.5.091-.563-.117-.191-.854-.264-1.447-.323-.332-.032-.685-.067-1.048-.123-1.834-.281-2.29-.361-2.29-.361a.5.5,0,0,1-.391-.343Z" fill="#263238"/>
            <path id="Trazado_875537" data-name="Trazado 875537" d="M388.98,251.765S357.607,243.926,344.9,234.5s-20.526-17.1-30.277-19.2-17.257,3.359-17.222,10.614,4.988,12.074,17.482,18.693,31.3,10.762,44.542,12.832,28.077,1.325,30.872,1.247,7.374.253,14.113-.377a11.726,11.726,0,0,0,11.029-11.758c.066-2.507-4.565-6.326-8.61-4.386S395.3,251.1,388.98,251.765" fill="#a1a1a1"/>
            <path id="Trazado_875538" data-name="Trazado 875538" d="M380.918,259.388a144.761,144.761,0,0,1-21.574-1.448c-8.69-1.358-30.443-5.333-44.7-12.885-13.068-6.923-17.712-11.929-17.747-19.133a10.685,10.685,0,0,1,4.1-8.457c3.465-2.814,8.466-3.778,13.729-2.647,7.666,1.648,14.237,6.761,22.557,13.233,2.484,1.933,5.053,3.932,7.912,6.051,12.159,9.015,41.99,16.691,43.822,17.156,4.116-.468,8.84-3.749,12.642-6.388a41.608,41.608,0,0,1,4.952-3.149,6.542,6.542,0,0,1,6.466.64c1.746,1.133,2.9,2.824,2.859,4.211a12.216,12.216,0,0,1-11.481,12.242,103.115,103.115,0,0,1-11.359.381c-1.077-.013-2-.025-2.788,0l-.922.03c-1.691.059-4.707.164-8.467.164M310.48,215.355a13.908,13.908,0,0,0-8.854,2.887,9.7,9.7,0,0,0-3.728,7.676c.033,6.761,4.538,11.538,17.216,18.254,14.121,7.48,35.744,11.429,44.385,12.78,12.105,1.892,25.46,1.425,29.851,1.273l.93-.031c.8-.021,1.736-.013,2.826,0a101.433,101.433,0,0,0,11.254-.377,11.25,11.25,0,0,0,10.575-11.274c.027-1.034-.961-2.409-2.4-3.344a5.674,5.674,0,0,0-5.489-.576,41.074,41.074,0,0,0-4.815,3.067c-3.922,2.724-8.8,6.113-13.194,6.571a.536.536,0,0,1-.174-.011c-.315-.08-31.617-7.972-44.261-17.346-2.867-2.126-5.441-4.128-7.931-6.065-8.218-6.393-14.709-11.444-22.153-13.044a19.235,19.235,0,0,0-4.034-.441" fill="#263238"/>
            <path id="Trazado_875539" data-name="Trazado 875539" d="M374.125,247.459c-9.9-3.181-22.321-7.834-29.229-12.956-12.71-9.423-20.525-17.1-30.276-19.2s-17.257,3.359-17.222,10.614S302.386,238,314.88,244.614s31.3,10.762,44.542,12.832c3.7.579,7.532.937,11.187,1.152.012-.517.029-1.062.054-1.651.138-3.324,2.021-7.074,3.462-9.488" fill="#fff"/>
            <path id="Trazado_875540" data-name="Trazado 875540" d="M370.609,259.1h-.029c-4.075-.239-7.855-.629-11.236-1.157-8.69-1.358-30.443-5.333-44.7-12.885-13.068-6.923-17.712-11.929-17.747-19.133a10.685,10.685,0,0,1,4.1-8.457c3.465-2.814,8.466-3.778,13.729-2.647,7.665,1.648,14.236,6.76,22.555,13.23,2.485,1.934,5.054,3.933,7.914,6.053,6.959,5.16,19.657,9.853,29.084,12.882a.5.5,0,0,1,.276.731c-1.475,2.472-3.261,6.084-3.391,9.253-.025.586-.041,1.128-.054,1.644a.5.5,0,0,1-.5.487M310.48,215.355a13.908,13.908,0,0,0-8.854,2.887,9.7,9.7,0,0,0-3.728,7.676c.033,6.761,4.538,11.538,17.216,18.254,14.121,7.48,35.744,11.429,44.385,12.78,3.207.5,6.778.877,10.624,1.116.01-.364.024-.743.04-1.142.13-3.149,1.754-6.641,3.215-9.183-9.431-3.056-21.857-7.706-28.78-12.839-2.868-2.126-5.442-4.129-7.932-6.066-8.218-6.392-14.709-11.442-22.152-13.042a19.235,19.235,0,0,0-4.034-.441" fill="#263238"/>
            <path id="Trazado_875541" data-name="Trazado 875541" d="M406.826,242.172c-2.991,1.434-7.858,5.626-12.747,7.982a2.519,2.519,0,0,0-.048,2.437,9.252,9.252,0,0,0,3.452,3.378s-2.03,2.3-7.189,2.724c2.795-.077,7.374.253,14.114-.377a11.724,11.724,0,0,0,11.028-11.758c.066-2.507-4.565-6.326-8.61-4.386" fill="#263238"/>
            <path id="Trazado_875542" data-name="Trazado 875542" d="M395.546,259.212c-.893,0-1.708-.01-2.45-.018-1.078-.012-2-.024-2.789,0a.516.516,0,0,1-.512-.472.5.5,0,0,1,.458-.526,11.977,11.977,0,0,0,6.392-2.153,9.115,9.115,0,0,1-3.062-3.228,3.024,3.024,0,0,1,.055-2.9.5.5,0,0,1,.223-.211,60.2,60.2,0,0,0,7.8-4.837,41.686,41.686,0,0,1,4.954-3.146,6.54,6.54,0,0,1,6.465.639c1.747,1.133,2.9,2.825,2.86,4.211a12.216,12.216,0,0,1-11.481,12.243c-3.545.331-6.5.4-8.908.4m-.771-1a93.592,93.592,0,0,0,9.585-.391,11.251,11.251,0,0,0,10.575-11.274c.028-1.034-.961-2.409-2.4-3.345a5.678,5.678,0,0,0-5.489-.576,40.936,40.936,0,0,0-4.816,3.067,62.267,62.267,0,0,1-7.779,4.84,1.992,1.992,0,0,0,.03,1.836,8.766,8.766,0,0,0,3.243,3.163.5.5,0,0,1,.137.771,8.307,8.307,0,0,1-3.082,1.909m12.051-16.037h0Z" fill="#263238"/>
            <path id="Trazado_875543" data-name="Trazado 875543" d="M412.909,247.966c.277,6.114-5.306,8.387-8.5,10.349a11.724,11.724,0,0,0,11.028-11.757c.066-2.507-4.565-6.326-8.61-4.386,0,0,5.806-.32,6.083,5.794" fill="#fff"/>
            <path id="Trazado_875544" data-name="Trazado 875544" d="M404.407,258.816a.5.5,0,0,1-.262-.926c.413-.254.867-.512,1.341-.785,3.186-1.822,7.151-4.09,6.924-9.116a5.444,5.444,0,0,0-1.623-3.952,6.056,6.056,0,0,0-3.935-1.365.489.489,0,0,1-.51-.376.5.5,0,0,1,.268-.575,6.54,6.54,0,0,1,6.465.64c1.747,1.133,2.9,2.824,2.86,4.211a12.216,12.216,0,0,1-11.481,12.242l-.047,0m5.171-16.661a5.964,5.964,0,0,1,1.873,1.134,6.4,6.4,0,0,1,1.957,4.655c.222,4.89-3.09,7.448-6.087,9.251a11.156,11.156,0,0,0,7.614-10.65c.028-1.035-.961-2.41-2.4-3.345a6.574,6.574,0,0,0-2.953-1.045" fill="#263238"/>
            <path id="Trazado_875545" data-name="Trazado 875545" d="M324.239,251.309s31.572-7,44.529-16.079,20.974-16.545,30.778-18.381,17.161,3.819,16.932,11.071-5.308,11.937-17.974,18.219-31.579,9.923-44.869,11.638-28.1.575-30.9.423-7.377.055-14.1-.755a11.724,11.724,0,0,1-10.71-12.048c0-2.507,4.732-6.2,8.724-4.154s11.279,9.237,17.583,10.066" fill="#b2b2b2"/>
            <path id="Trazado_875546" data-name="Trazado 875546" d="M337.169,259.215c-6.088,0-11.146-.312-13.543-.461l-.913-.054c-.783-.043-1.708-.057-2.782-.074a101.767,101.767,0,0,1-11.349-.684,12.215,12.215,0,0,1-11.15-12.544c0-1.387,1.193-3.047,2.971-4.133a6.543,6.543,0,0,1,6.481-.467,41.583,41.583,0,0,1,4.867,3.281c3.729,2.739,8.364,6.144,12.466,6.722,1.844-.416,31.868-7.293,44.264-15.979,2.915-2.043,5.538-3.974,8.074-5.84,8.488-6.246,15.192-11.18,22.9-12.623,5.287-.994,10.264.108,13.654,3.014a10.689,10.689,0,0,1,3.87,8.563c-.228,7.2-5,12.081-18.252,18.652-14.45,7.165-36.3,10.559-45.026,11.686a132.042,132.042,0,0,1-16.531.941m-32.988-18.07a6.462,6.462,0,0,0-3.257.974c-1.468.9-2.492,2.245-2.492,3.279A11.251,11.251,0,0,0,308.7,256.95a100.863,100.863,0,0,0,11.245.676c1.089.017,2.027.032,2.821.076l.92.054c4.384.272,17.724,1.094,29.883-.474,8.674-1.12,30.4-4.491,44.711-11.59,12.852-6.375,17.483-11.029,17.7-17.787a9.7,9.7,0,0,0-3.522-7.773c-3.157-2.708-7.827-3.727-12.818-2.791-7.482,1.4-14.1,6.276-22.49,12.447-2.541,1.87-5.168,3.8-8.093,5.852-12.89,9.033-44.392,16.087-44.708,16.157a.486.486,0,0,1-.174.008c-4.379-.575-9.167-4.094-13.014-6.921a40.764,40.764,0,0,0-4.732-3.2,4.856,4.856,0,0,0-2.246-.544" fill="#263238"/>
            <path id="Trazado_875547" data-name="Trazado 875547" d="M399.546,216.85c-9.8,1.836-17.822,9.3-30.779,18.381-7.207,5.05-20.17,9.456-30.259,12.372a23.267,23.267,0,0,0-.159,8.685c.168.888.337,1.687.5,2.416a127.373,127.373,0,0,0,14.782-.926c13.29-1.716,32.2-5.356,44.869-11.638s17.745-10.968,17.974-18.22-7.128-12.906-16.931-11.07" fill="#fff"/>
            <path id="Trazado_875548" data-name="Trazado 875548" d="M338.853,259.2a.5.5,0,0,1-.488-.388c-.168-.736-.338-1.54-.507-2.436a23.438,23.438,0,0,1,.161-8.874.5.5,0,0,1,.351-.384c9.75-2.818,22.889-7.239,30.111-12.3,2.915-2.043,5.538-3.974,8.074-5.84,8.487-6.246,15.193-11.18,22.9-12.623,5.286-.994,10.264.108,13.654,3.013a10.693,10.693,0,0,1,3.87,8.564c-.228,7.2-5,12.081-18.253,18.652-14.45,7.165-36.3,10.559-45.026,11.686a127.216,127.216,0,0,1-14.841.93ZM338.942,248a22.279,22.279,0,0,0-.1,8.2c.137.724.274,1.389.411,2.005a125.285,125.285,0,0,0,14.318-.918c8.675-1.12,30.4-4.492,44.711-11.59,12.853-6.375,17.484-11.03,17.7-17.787a9.7,9.7,0,0,0-3.522-7.773c-3.157-2.708-7.827-3.727-12.818-2.791-7.483,1.4-14.105,6.276-22.49,12.447-2.541,1.87-5.168,3.8-8.093,5.852-7.262,5.09-20.321,9.515-30.113,12.357m60.6-31.147h0Z" fill="#263238"/>
            <path id="Trazado_875549" data-name="Trazado 875549" d="M314.555,256.422a16.5,16.5,0,0,0,3.614-3.463c1.02-1.573-.214-3.85-.4-4.178-4.323-2.528-8.45-6.172-11.112-7.537-3.991-2.048-8.723,1.646-8.724,4.154a11.725,11.725,0,0,0,10.711,12.048,98.257,98.257,0,0,0,10.659.671c-2.673-.822-4.746-1.7-4.746-1.7" fill="#263238"/>
            <path id="Trazado_875550" data-name="Trazado 875550" d="M319.3,258.617h-.008a97.978,97.978,0,0,1-10.712-.675,12.215,12.215,0,0,1-11.15-12.544c0-1.387,1.194-3.047,2.971-4.133a6.543,6.543,0,0,1,6.481-.467,41.756,41.756,0,0,1,4.867,3.278,74.331,74.331,0,0,0,6.269,4.273.494.494,0,0,1,.182.184c.269.469,1.549,2.9.387,4.7a14.583,14.583,0,0,1-3.022,3.056c.841.326,2.254.85,3.883,1.351a.5.5,0,0,1-.148.978m-15.121-17.472a6.462,6.462,0,0,0-3.257.974c-1.468.9-2.492,2.245-2.492,3.279A11.251,11.251,0,0,0,308.7,256.95c2.8.338,5.209.5,7.323.581-1.014-.376-1.653-.644-1.664-.649a.5.5,0,0,1-.093-.87,16.061,16.061,0,0,0,3.481-3.325c.785-1.208-.083-3.037-.353-3.545-2.193-1.293-4.339-2.868-6.236-4.26a41.053,41.053,0,0,0-4.733-3.193,4.856,4.856,0,0,0-2.246-.544" fill="#263238"/>
            <path id="Trazado_875551" data-name="Trazado 875551" d="M308.929,257.478c-1.01-.534-2.041-1.1-2.882-1.614-2.6-1.581-6.306-3.956-6.487-7.954-.124-2.752,1.979-5.6,3.3-7.115-2.7.594-4.931,2.879-4.931,4.6a11.723,11.723,0,0,0,10.71,12.048c.1.012.19.021.287.032" fill="#fff"/>
            <path id="Trazado_875552" data-name="Trazado 875552" d="M308.928,257.978a.413.413,0,0,1-.06,0l-.285-.033A12.214,12.214,0,0,1,297.431,245.4c0-2.049,2.537-4.476,5.324-5.091a.5.5,0,0,1,.484.817c-1.237,1.413-3.3,4.171-3.181,6.764.176,3.85,3.977,6.166,6.248,7.55.73.444,1.691.982,2.856,1.6a.5.5,0,0,1-.234.943m-7.57-16.1c-1.714.9-2.927,2.43-2.927,3.521a11.159,11.159,0,0,0,7.214,10.807c-2.454-1.5-6.39-3.973-6.585-8.272-.1-2.2,1.118-4.432,2.3-6.056" fill="#263238"/>
            <path id="Trazado_875553" data-name="Trazado 875553" d="M393.3,161.851s16.017,40.076,18.732,41.624,9.235.974,7.569-8.141-8.892-36.5-11.8-42.355a20.217,20.217,0,0,0-10.477-9.969,16.9,16.9,0,0,0-5.488-1.284" fill="#b2b2b2"/>
            <path id="Trazado_875554" data-name="Trazado 875554" d="M414.723,204.643a6.059,6.059,0,0,1-2.941-.734c-2.787-1.589-17.3-37.754-18.948-41.872a.5.5,0,0,1,.928-.372c6.168,15.432,16.649,40.31,18.516,41.374a5.065,5.065,0,0,0,5.125-.2c1.772-1.256,2.361-3.82,1.7-7.416-1.728-9.456-8.946-36.563-11.758-42.221a19.7,19.7,0,0,0-10.216-9.729,16.621,16.621,0,0,0-5.31-1.247.5.5,0,0,1-.493-.508.52.52,0,0,1,.507-.492,17.287,17.287,0,0,1,5.669,1.319,20.7,20.7,0,0,1,10.738,10.211c3.011,6.058,10.284,33.93,11.847,42.488.925,5.06-.637,7.367-2.109,8.411a5.619,5.619,0,0,1-3.259.988" fill="#263238"/>
            <path id="Trazado_875555" data-name="Trazado 875555" d="M412.077,192.193a89.53,89.53,0,0,1-21.573,3.343c-11.406.238-11.268.231-15.507-1.109s-11.761-3.987-14.566-4.418-4.419-1.252-5.362-.139c-8.26,9.745-9.483,10.065-9.306,10.893s3.853-1.01,3.853-1.01-2.072,3.436-1.232,3.537a9.729,9.729,0,0,0,2.893-.688s.063,1.39,1.168,1.2a9.375,9.375,0,0,0,2.856-1.522s-1.238,3.4.239,2.217,5.49-4.844,5.9-5,4.088,1.068,6.038,1.119a22.066,22.066,0,0,0,4.706-.631s12.879,4.57,24.362,6,20.725-.52,22.848-2.844.127-6.411-.99-9.563" fill="#b2b2b2"/>
            <path id="Trazado_875556" data-name="Trazado 875556" d="M404.236,206.97a62.869,62.869,0,0,1-7.75-.489c-10.765-1.34-22.89-5.476-24.327-5.975a21.5,21.5,0,0,1-4.693.61,23.2,23.2,0,0,1-4.142-.759,17.451,17.451,0,0,0-1.728-.373c-.372.252-1.775,1.48-2.915,2.478-1.075.941-2.186,1.914-2.828,2.427-.48.384-.885.46-1.209.23-.153-.11-.5-.362-.225-1.639a6.091,6.091,0,0,1-1.889.815,1.361,1.361,0,0,1-1.115-.261,1.658,1.658,0,0,1-.509-.767,7.534,7.534,0,0,1-2.581.519.7.7,0,0,1-.556-.391c-.239-.49.133-1.507.662-2.547-1.065.44-2.214.786-2.75.531a.73.73,0,0,1-.407-.512c-.144-.677.171-1.012,1.685-2.626,1.287-1.369,3.68-3.918,7.729-8.695.888-1.044,2.131-.777,3.855-.408.578.124,1.229.265,1.964.377a99.558,99.558,0,0,1,10.919,3.223c1.365.45,2.649.873,3.722,1.212l.165.052c4.006,1.267,4.008,1.27,15.181,1.034a89.76,89.76,0,0,0,21.435-3.322.5.5,0,1,1,.293.957,90.958,90.958,0,0,1-21.707,3.365c-11.342.238-11.341.238-15.5-1.081l-.164-.051c-1.077-.34-2.365-.765-3.734-1.216a101.847,101.847,0,0,0-10.758-3.185c-.756-.116-1.427-.26-2.022-.387-1.609-.345-2.4-.487-2.881.077-4.066,4.8-6.472,7.357-7.764,8.733a15.888,15.888,0,0,0-1.368,1.545,13.153,13.153,0,0,0,3.073-1.165.5.5,0,0,1,.652.705,13.18,13.18,0,0,0-1.336,2.782,11.187,11.187,0,0,0,2.388-.658.5.5,0,0,1,.679.444,1.1,1.1,0,0,0,.267.677.358.358,0,0,0,.319.053A8.556,8.556,0,0,0,355,201.883a.5.5,0,0,1,.772.568,9.458,9.458,0,0,0-.43,1.566c.639-.52,1.676-1.428,2.681-2.307a25.509,25.509,0,0,1,3.239-2.68c.293-.113.7-.035,2.3.355a22.519,22.519,0,0,0,3.931.731,21.43,21.43,0,0,0,4.573-.616.509.509,0,0,1,.287.014c.129.046,12.962,4.568,24.257,5.975,11.695,1.455,20.533-.624,22.416-2.685,1.636-1.791.442-4.961-.61-7.758-.168-.446-.332-.882-.482-1.3a.5.5,0,0,1,.944-.334c.146.414.307.844.473,1.284,1.155,3.066,2.462,6.541.413,8.784-1.773,1.942-7.747,3.492-15.527,3.492" fill="#263238"/>
            <path id="Trazado_875557" data-name="Trazado 875557" d="M349.617,200.253a.5.5,0,0,1-.4-.8c.041-.052,4.1-5.368,5.675-7.237a.5.5,0,1,1,.766.645c-1.561,1.85-5.606,7.146-5.647,7.2a.5.5,0,0,1-.4.2" fill="#263238"/>
            <path id="Trazado_875558" data-name="Trazado 875558" d="M351.277,203.1a.5.5,0,0,1-.4-.8l7.62-10.092a.5.5,0,0,1,.8.6L351.676,202.9a.5.5,0,0,1-.4.2" fill="#263238"/>
            <path id="Trazado_875559" data-name="Trazado 875559" d="M355.3,202.781a.5.5,0,0,1-.4-.8c1.81-2.372,5-6.382,6-6.572a.5.5,0,0,1,.188.982c-.566.211-3.247,3.383-5.395,6.2a.5.5,0,0,1-.4.2" fill="#263238"/>
          </g>
        </g>
      </g>
    </g>
  </g>
</svg>
