<svg xmlns="http://www.w3.org/2000/svg" xmlns:xlink="http://www.w3.org/1999/xlink" width="85" height="85" viewBox="0 0 85 85">
  <defs>
    <clipPath id="clip-path">
      <rect id="Rectángulo_401539" data-name="Rectángulo 401539" width="85" height="85" transform="translate(180 401)" fill="#fff" stroke="#707070" stroke-width="1"/>
    </clipPath>
  </defs>
  <g id="Enmascarar_grupo_1098726" data-name="Enmascarar grupo 1098726" transform="translate(-180 -401)" clip-path="url(#clip-path)">
    <g id="medios-de-comunicacion-social" transform="translate(180 401)">
      <path id="Trazado_874128" data-name="Trazado 874128" d="M1.328,1.328H46.484V38.516H1.328Zm0,0" fill="#a6e7ff"/>
      <path id="Trazado_874129" data-name="Trazado 874129" d="M1.328,11.953A10.625,10.625,0,0,0,11.953,1.328H1.328Zm0,0" fill="#ff8a65"/>
      <path id="Trazado_874130" data-name="Trazado 874130" d="M37.188,38.516,13.281,18.594,1.328,29.219v9.3Zm0,0" fill="#8edf78"/>
      <path id="Trazado_874131" data-name="Trazado 874131" d="M8.3,38.516,33.2,11.953,46.484,25.234V38.516Zm0,0" fill="#e2fc85"/>
      <path id="Trazado_874132" data-name="Trazado 874132" d="M78.359,35.859V81.016H6.641V35.859A2.656,2.656,0,0,1,9.3,33.2H75.7A2.656,2.656,0,0,1,78.359,35.859Zm0,0" fill="#e0e0e0"/>
      <path id="Trazado_874133" data-name="Trazado 874133" d="M11.953,38.516H73.047V70.391H11.953Zm0,0" fill="#90a4ae"/>
      <path id="Trazado_874134" data-name="Trazado 874134" d="M49.141,75.7a2.656,2.656,0,0,1-2.656,2.656H38.516A2.656,2.656,0,0,1,35.859,75.7H1.328v2.656a5.313,5.313,0,0,0,5.313,5.313H78.359a5.313,5.313,0,0,0,5.313-5.312V75.7Zm0,0" fill="#eee"/>
      <path id="Trazado_874135" data-name="Trazado 874135" d="M57.109,25.234H22.578V49.141H39.844v6.641l7.969-6.641h9.3Zm0,0" fill="#2ac3f2"/>
      <path id="Trazado_874136" data-name="Trazado 874136" d="M51.8,17.266H83.672V41.172H51.8Zm0,0" fill="#ff8a65"/>
      <path id="Trazado_874137" data-name="Trazado 874137" d="M65.078,23.906V34.531l7.969-5.312Zm0,0" fill="#fff"/>
      <path id="Trazado_874138" data-name="Trazado 874138" d="M1.328,46.484H33.2V58.438l6.641,6.641H33.2v5.313H1.328Zm0,0" fill="#e2fc85"/>
      <path id="Trazado_874139" data-name="Trazado 874139" d="M23.906,55.781H19.922V51.8H14.609v3.984H10.625v5.313h3.984v3.984h5.313V61.094h3.984Zm0,0" fill="#8edf78"/>
      <g id="Grupo_1099899" data-name="Grupo 1099899">
        <path id="Trazado_874140" data-name="Trazado 874140" d="M69.613,57.109H50.469V54.453H63.2l-1.717-1.717,1.878-1.878Zm0,0" fill="#fff"/>
        <path id="Trazado_874141" data-name="Trazado 874141" d="M56.17,66.017l-6.252-6.252H69.063v2.656H56.331l1.717,1.717Zm0,0" fill="#fff"/>
        <path id="Trazado_874142" data-name="Trazado 874142" d="M27.891,29.219H47.813v2.656H27.891Zm0,0" fill="#fff"/>
        <path id="Trazado_874143" data-name="Trazado 874143" d="M27.891,34.531h7.969v2.656H27.891Zm0,0" fill="#fff"/>
        <path id="Trazado_874144" data-name="Trazado 874144" d="M38.516,34.531h9.3v2.656h-9.3Zm0,0" fill="#fff"/>
        <path id="Trazado_874145" data-name="Trazado 874145" d="M27.891,39.844H39.844V42.5H27.891Zm0,0" fill="#fff"/>
        <path id="Trazado_874146" data-name="Trazado 874146" d="M42.5,39.844h5.313V42.5H42.5Zm0,0" fill="#fff"/>
        <path id="Trazado_874147" data-name="Trazado 874147" d="M58.438,26.563H55.781V21.25h5.313v2.656H58.438Zm0,0" fill="#fff"/>
        <path id="Trazado_874148" data-name="Trazado 874148" d="M79.688,37.188H74.375V34.531h2.656V31.875h2.656Zm0,0" fill="#fff"/>
        <path id="Trazado_874149" data-name="Trazado 874149" d="M13.281,10.625H21.25v2.656H13.281Zm0,0" fill="#fff"/>
        <path id="Trazado_874150" data-name="Trazado 874150" d="M15.938,5.313H29.219V7.969H15.938Zm0,0" fill="#fff"/>
      </g>
      <path id="Trazado_874151" data-name="Trazado 874151" d="M21.25,50.469H13.281v3.984H9.3v7.969h3.984v3.984H21.25V62.422h3.984V54.453H21.25Zm1.328,6.641v2.656H18.594V63.75H15.938V59.766H11.953V57.109h3.984V53.125h2.656v3.984Zm0,0"/>
      <path id="Trazado_874152" data-name="Trazado 874152" d="M50.469,23.906H47.813V0H0V39.844H5.313v5.313H0V71.719H5.313v2.656H0v3.984A6.648,6.648,0,0,0,6.641,85H78.359A6.648,6.648,0,0,0,85,78.359V74.375H79.688V42.5H85V15.938H50.469Zm0,2.656V42.5h5.313v5.313H47.332l-6.16,5.134V47.813H34.531V45.156H23.906V26.563ZM7.969,74.375V71.719H74.375V42.5h2.656V74.375H47.813V75.7a1.328,1.328,0,0,1-1.328,1.328H38.516A1.328,1.328,0,0,1,37.188,75.7V74.375Zm63.75-5.312H34.531V66.406H43.05l-8.519-8.519V50.469h3.984v8.148l9.777-8.148H58.438V42.5H71.719Zm-47.9-45.156,9.416-10.043L43.278,23.906ZM2.656,2.656h7.862a9.3,9.3,0,0,1-7.862,7.862Zm0,10.547A11.969,11.969,0,0,0,13.2,2.656H45.156V22.028L33.173,10.045,20.858,23.18l-7.6-6.338-10.6,9.419Zm7.969,23.985v7.969H7.969v-9.3A1.328,1.328,0,0,1,9.3,34.531H21.25v2.656ZM21.25,39.844v5.313H13.281V39.844Zm-4.9-7.969,4.9-5.23v5.23ZM2.656,37.188V29.815l10.653-9.47,5.729,4.781-6.333,6.748H9.3a3.985,3.985,0,0,0-3.984,3.984v1.328Zm0,31.875V47.813H31.875V58.987l4.763,4.763H31.875v5.313Zm79.688,7.969v1.328a3.985,3.985,0,0,1-3.984,3.984H6.641a3.985,3.985,0,0,1-3.984-3.984V77.031h32.1a3.992,3.992,0,0,0,3.757,2.656h7.969a3.992,3.992,0,0,0,3.757-2.656ZM53.125,18.594H82.344v21.25H53.125Zm0,0"/>
      <path id="Trazado_874153" data-name="Trazado 874153" d="M63.75,37.014l11.687-7.795L63.75,21.424Zm2.656-10.625,4.25,2.83-4.25,2.83Zm0,0"/>
      <path id="Trazado_874154" data-name="Trazado 874154" d="M77.031,0h2.656V10.625H77.031Zm0,0"/>
      <path id="Trazado_874155" data-name="Trazado 874155" d="M82.344,0H85V13.281H82.344Zm0,0"/>
      <path id="Trazado_874156" data-name="Trazado 874156" d="M71.719,0h2.656V7.969H71.719Zm0,0"/>
    </g>
  </g>
</svg>
