<svg xmlns="http://www.w3.org/2000/svg" xmlns:xlink="http://www.w3.org/1999/xlink" width="85" height="85" viewBox="0 0 85 85">
  <defs>
    <clipPath id="clip-path">
      <rect id="Rectángulo_401501" data-name="Rectángulo 401501" width="85" height="85" transform="translate(180 405)" fill="#fff" stroke="#707070" stroke-width="1"/>
    </clipPath>
  </defs>
  <g id="Grupo_1100546" data-name="Grupo 1100546" transform="translate(-180 -405)">
    <g id="Enmascarar_grupo_1098708" data-name="Enmascarar grupo 1098708" clip-path="url(#clip-path)">
      <g id="estrategia-de-contenido" transform="translate(176.106 401.111)">
        <rect id="Rectángulo_401502" data-name="Rectángulo 401502" width="19.16" height="12.906" transform="translate(36.842 74.895)" fill="#6288cc"/>
        <rect id="Rectángulo_401503" data-name="Rectángulo 401503" width="82.171" height="53.466" rx="4.051" transform="translate(5.29 23.827)" fill="#a8b7ee"/>
        <path id="Trazado_874029" data-name="Trazado 874029" d="M87.468,27.878v38.56H5.29V27.878a4.051,4.051,0,0,1,4.051-4.051H83.417A4.051,4.051,0,0,1,87.468,27.878Z" fill="#3b579f"/>
        <circle id="Elipse_11544" data-name="Elipse 11544" cx="12.566" cy="12.566" r="12.566" transform="translate(48.328 5.297)" fill="#6288cc"/>
        <path id="Trazado_874030" data-name="Trazado 874030" d="M64.5,16.928H60.373a.891.891,0,0,1-.841-1.167l.775-2.355a1.8,1.8,0,0,0-1.71-2.362h0a1.79,1.79,0,0,0-1.7,1.232l-1.094,3.4a8.175,8.175,0,0,0-.42,2.573v4.9a1.536,1.536,0,0,0,1.536,1.536H64.5a1.964,1.964,0,0,0,1.964-1.964V18.892A1.964,1.964,0,0,0,64.5,16.928Z" fill="#dbdfee"/>
        <circle id="Elipse_11545" data-name="Elipse 11545" cx="12.566" cy="12.566" r="12.566" transform="translate(19.371 5.297)" fill="#fa77c8"/>
        <rect id="Rectángulo_401504" data-name="Rectángulo 401504" width="12.022" height="12.022" rx="2.152" transform="translate(25.922 11.848)" fill="#dbdfee"/>
        <path id="Trazado_874031" data-name="Trazado 874031" d="M37.944,20.711V21.74a2.174,2.174,0,0,1-2.174,2.174h-7.7a2.174,2.174,0,0,1-2.174-2.174V20.726L29.712,17.5l2.9,3.036,2.616-2.1Z" fill="#6faf45"/>
        <path id="Trazado_874032" data-name="Trazado 874032" d="M55.916,46.031V60.083H50.792L47.3,62.909a.572.572,0,0,1-.92-.486V60.083H36.842V46.031Z" fill="#ffdc41"/>
        <circle id="Elipse_11546" data-name="Elipse 11546" cx="12.566" cy="12.566" r="12.566" transform="translate(62.365 31.262)" fill="#e10459"/>
        <path id="Trazado_874033" data-name="Trazado 874033" d="M81.518,40.959v5.732a.58.58,0,0,1-.855.507L77.4,45.379V42.263l3.268-1.812a.58.58,0,0,1,.855.507Z" fill="#bdcbf5"/>
        <rect id="Rectángulo_401505" data-name="Rectángulo 401505" width="9.051" height="9.051" rx="1.102" transform="translate(68.344 39.299)" fill="#dbdfee"/>
        <circle id="Elipse_11547" data-name="Elipse 11547" cx="12.566" cy="12.566" r="12.566" transform="translate(5.261 31.262)" fill="#49b2f7"/>
        <path id="Trazado_874034" data-name="Trazado 874034" d="M22.508,38.1H13.146a1.928,1.928,0,0,0-1.928,1.928v5.2a1.935,1.935,0,0,0,1.928,1.935h1.841l3.326,2.217a1.007,1.007,0,0,0,1.565-.826V47.176h2.645a1.935,1.935,0,0,0,1.928-1.935v-5.21A1.928,1.928,0,0,0,22.508,38.1Z" fill="#dbdfee"/>
        <path id="Trazado_874035" data-name="Trazado 874035" d="M74.315,67.525a1.087,1.087,0,0,0,0-2.174H65.221a1.087,1.087,0,0,0,0,2.174Z"/>
        <path id="Trazado_874036" data-name="Trazado 874036" d="M49.85,73.1a1.087,1.087,0,1,0,0-2.174H42.908a1.087,1.087,0,0,0,0,2.174Z"/>
        <path id="Trazado_874037" data-name="Trazado 874037" d="M41.966,52h1.2a1.087,1.087,0,1,0,0-2.174h-1.2a1.087,1.087,0,0,0,0,2.174Z"/>
        <path id="Trazado_874038" data-name="Trazado 874038" d="M45.256,50.916A1.087,1.087,0,0,0,46.343,52h4.449a1.087,1.087,0,1,0,0-2.174H46.379a1.087,1.087,0,0,0-1.123,1.087Z"/>
        <path id="Trazado_874039" data-name="Trazado 874039" d="M50.792,54.452H49.6a1.087,1.087,0,1,0,0,2.174h1.2a1.087,1.087,0,0,0,0-2.174Z"/>
        <path id="Trazado_874040" data-name="Trazado 874040" d="M46.415,54.452H41.966a1.087,1.087,0,0,0,0,2.174h4.449a1.087,1.087,0,0,0,0-2.174Z"/>
        <path id="Trazado_874041" data-name="Trazado 874041" d="M88.584,43.828V27.878a5.145,5.145,0,0,0-5.138-5.138h-9.8a13.813,13.813,0,0,0,.9-4.877,13.66,13.66,0,1,0-27.313,0,13.812,13.812,0,0,0,.9,4.877H44.691a13.812,13.812,0,0,0,.9-4.877,13.66,13.66,0,1,0-27.313,0,13.812,13.812,0,0,0,.9,4.877H9.341A5.145,5.145,0,0,0,4.2,27.878V73.243a5.145,5.145,0,0,0,5.138,5.138h5.334a1.087,1.087,0,1,0,0-2.174H9.341a2.964,2.964,0,0,1-2.964-2.964V67.525H58.09a1.087,1.087,0,1,0,0-2.174H6.377V51.242a13.646,13.646,0,0,0,25.1-7.413,7.673,7.673,0,0,0-.058-1.159H45.3v2.275H36.842a1.087,1.087,0,0,0-1.087,1.087V60.083a1.087,1.087,0,0,0,1.087,1.087h8.45v1.254a1.688,1.688,0,0,0,.957,1.536,1.623,1.623,0,0,0,1.732-.188l3.2-2.58h4.739A1.087,1.087,0,0,0,57,60.1V46.031a1.087,1.087,0,0,0-1.087-1.087H47.5V42.669H61.336c0,.377-.058.768-.058,1.159a13.646,13.646,0,0,0,25.1,7.413V65.351H81.468a1.087,1.087,0,0,0,0,2.174h4.913v5.718a2.964,2.964,0,0,1-2.964,2.964H21.74a1.087,1.087,0,0,0,0,2.174H35.755v8.334H29.893a1.087,1.087,0,1,0,0,2.174h33.06a1.087,1.087,0,1,0,0-2.174H57.09V78.381H83.417a5.145,5.145,0,0,0,5.138-5.138V44.451C88.562,44.241,88.584,44.038,88.584,43.828ZM54.829,59H50.792a1.116,1.116,0,0,0-.681.239l-2.645,2.174V60.083A1.087,1.087,0,0,0,46.379,59h-8.45V47.1h16.9Zm.087,27.719H37.929V78.381H54.916ZM60.873,6.377A11.493,11.493,0,1,1,49.408,17.863,11.493,11.493,0,0,1,60.873,6.377ZM43.625,24.914H49.2a13.689,13.689,0,0,0,5.152,4.913L46.379,39.857l-7.971-9.979A13.559,13.559,0,0,0,43.625,24.914ZM31.936,6.377A11.493,11.493,0,1,1,20.45,17.866,11.493,11.493,0,0,1,31.936,6.377ZM17.827,55.307a11.486,11.486,0,0,1-11.45-10.87V43.2a11.472,11.472,0,1,1,11.45,12.109Zm0-25.139a13.646,13.646,0,0,0-11.45,6.239V27.878a2.964,2.964,0,0,1,2.964-2.964h10.87A13.667,13.667,0,0,0,36.364,30.77l7.761,9.725H31.081A13.667,13.667,0,0,0,17.827,30.168ZM48.633,40.495l7.747-9.747a13.653,13.653,0,0,0,16.2-5.8h10.87a2.964,2.964,0,0,1,2.964,2.964v8.493a13.631,13.631,0,0,0-24.639,4.087Zm26.3,14.812A11.486,11.486,0,1,1,86.381,43.2v1.254A11.486,11.486,0,0,1,74.931,55.307Z"/>
        <path id="Trazado_874042" data-name="Trazado 874042" d="M56.887,25.769H64.5a3.058,3.058,0,0,0,3.051-3.051V18.892A3.058,3.058,0,0,0,64.5,15.841H60.648l.725-2.094a2.9,2.9,0,0,0-5.486-1.812l-1.123,3.4a9.254,9.254,0,0,0-.471,2.9v4.9A2.631,2.631,0,0,0,56.887,25.769Zm-.449-7.522a7.1,7.1,0,0,1,.362-2.232l1.123-3.4a.725.725,0,0,1,1.355.428L58.5,15.4a1.978,1.978,0,0,0,1.877,2.594H64.5a.877.877,0,0,1,.877.877V22.7a.877.877,0,0,1-.877.9H56.887a.449.449,0,0,1-.449-.449Z" fill="#231f20"/>
        <path id="Trazado_874043" data-name="Trazado 874043" d="M28.067,24.958H35.8a3.232,3.232,0,0,0,3.232-3.218V14A3.239,3.239,0,0,0,35.8,10.761H28.067A3.239,3.239,0,0,0,24.835,14v7.74a3.232,3.232,0,0,0,3.232,3.218ZM27.009,14a1.065,1.065,0,0,1,1.058-1.065H35.8A1.065,1.065,0,0,1,36.857,14v4.384l-.935-.783a1.08,1.08,0,0,0-1.377,0L32.7,19.052l-2.217-2.319a1.087,1.087,0,0,0-1.449-.072l-1.993,1.688Zm0,7.247,2.616-2.225,2.174,2.3a1.094,1.094,0,0,0,1.449.094l1.92-1.544,1.645,1.377v.493A1.058,1.058,0,0,1,35.755,22.8H28.067a1.058,1.058,0,0,1-1.058-1.058Z" fill="#231f20"/>
        <path id="Trazado_874044" data-name="Trazado 874044" d="M81.787,39.524a1.631,1.631,0,0,0-1.645,0l-1.659.92h0a2.174,2.174,0,0,0-2.174-2.174H69.445a2.174,2.174,0,0,0-2.174,2.174v6.8a2.174,2.174,0,0,0,2.174,2.174h6.848a2.174,2.174,0,0,0,2.174-2.174h0l1.652.92a1.667,1.667,0,0,0,2.471-1.449V40.959A1.652,1.652,0,0,0,81.787,39.524Zm-5.493,7.74H69.431V40.4h6.848Zm4.138-1.449-1.949-1.08V42.908l1.957-1.08Z" fill="#231f20"/>
        <path id="Trazado_874045" data-name="Trazado 874045" d="M13.146,48.249h1.507l3.058,2.036a2.087,2.087,0,0,0,3.254-1.732v-.275h1.544a3.022,3.022,0,0,0,3.015-3.022V40.031a3.015,3.015,0,0,0-3.015-3.015H13.146a3.015,3.015,0,0,0-3,3.015v5.2a3.022,3.022,0,0,0,3,3.022Zm-.826-8.218a.841.841,0,0,1,.841-.841h9.348a.841.841,0,0,1,.841.841v5.2a.848.848,0,0,1-.841.848H19.871a1.08,1.08,0,0,0-1.087,1.094v1.217l-3.2-2.131a1.065,1.065,0,0,0-.6-.181H13.146a.848.848,0,0,1-.826-.848Z" fill="#231f20"/>
      </g>
    </g>
  </g>
</svg>
