<svg xmlns="http://www.w3.org/2000/svg" width="400" height="663.002" viewBox="0 0 400 663.002">
  <g id="Grupo_60721" data-name="Grupo 60721" transform="translate(-915 -16152)">
    <rect id="Rectángulo_31042" data-name="Rectángulo 31042" width="400" height="663" transform="translate(915 16152)" fill="none"/>
    <g id="Grupo_60718" data-name="Grupo 60718" transform="translate(1766.123 11500.371)">
      <rect id="Rectángulo_5865" data-name="Rectángulo 5865" width="109.176" height="161.742" transform="translate(-607.254 4839.235)" fill="#ebebeb"/>
      <rect id="Rectángulo_5866" data-name="Rectángulo 5866" width="109.176" height="12.708" transform="translate(-607.254 4839.235)" fill="#fec52e"/>
    </g>
    <g id="Grupo_60720" data-name="Grupo 60720" transform="translate(1827.83 11471.025)">
      <rect id="Rectángulo_5865-2" data-name="Rectángulo 5865" width="65.974" height="97.739" transform="translate(-607.254 4839.235)" fill="#aee6e6"/>
      <rect id="Rectángulo_5866-2" data-name="Rectángulo 5866" width="65.974" height="7.68" transform="translate(-607.254 4839.235)" fill="#0d585f"/>
    </g>
    <path id="Trazado_132413" data-name="Trazado 132413" d="M379.324,129.66c0,.378-14.889.679-33.257.679s-33.257-.3-33.257-.679,14.889-.67,33.257-.67S379.324,129.291,379.324,129.66Z" transform="translate(784.786 16351.032)" fill="#455a64"/>
    <rect id="Rectángulo_31354" data-name="Rectángulo 31354" width="368.286" height="243.539" rx="14.57" transform="translate(930.889 16504.447)" fill="#263238"/>
    <path id="Trazado_132417" data-name="Trazado 132417" d="M101.44,419.92h399v6.014a15.292,15.292,0,0,1-15.293,15.293H116.733a15.292,15.292,0,0,1-15.293-15.293V419.92Z" transform="translate(814.56 16310.051)" fill="#263238"/>
    <rect id="Rectángulo_31355" data-name="Rectángulo 31355" width="347.478" height="205.669" transform="translate(941.284 16514.121)" fill="#455a64"/>
    <path id="Trazado_132418" data-name="Trazado 132418" d="M291.44,419.889h6.091l16.83-.069,56.3-.12h.412l-.206.361-2.234,3.832-2.363,4.047-.069.12h-.137l-69.676-.129h-.06v-.052l-3.651-5.937-.919-1.5-.292-.5s.129.18.344.524l.979,1.5c.859,1.332,2.1,3.273,3.72,5.791l-.094-.052,69.676-.129-.206.12,2.363-4.047,2.234-3.832.206.361-56.067-.12-16.942-.1h-5.816Z" transform="translate(787.796 16310.082)" fill="#455a64"/>
    <path id="Trazado_132419" data-name="Trazado 132419" d="M487.047,419.883c0,.129-82.477.223-184.13.223s-184.147-.094-184.147-.223,82.426-.223,184.147-.223S487.047,419.763,487.047,419.883Z" transform="translate(812.119 16310.088)" fill="#455a64"/>
    <path id="Trazado_132420" data-name="Trazado 132420" d="M434.647,120.87h0a10.31,10.31,0,0,1,10.31,10.31v21.109H414.2V132.795a11.916,11.916,0,0,1,11.908-11.925h8.54Z" transform="translate(770.503 16352.177)" fill="#263238"/>
    <path id="Trazado_132421" data-name="Trazado 132421" d="M416.744,120.823c0,.129-29.022.2-64.822.172s-64.822-.163-64.822-.284,29.013-.2,64.822-.172S416.744,120.7,416.744,120.823Z" transform="translate(788.407 16352.224)" fill="#263238"/>
    <path id="Trazado_132422" data-name="Trazado 132422" d="M406.664,120.826l-12.836-.086-18.635.112H238.3A21.049,21.049,0,0,0,217.25,141.9h0V368.085H394.541V132.39C395.065,120.852,406.664,120.826,406.664,120.826Z" transform="translate(798.247 16352.194)" fill="#fafafa"/>
    <path id="Trazado_132423" data-name="Trazado 132423" d="M406.591,120.8l-106.9.232H239.557c-1.117,0-2.217,0-3.316.095a21.936,21.936,0,0,0-3.239.593,20.671,20.671,0,0,0-14.176,12.715c-.172.524-.412,1.022-.533,1.555l-.4,1.6a22.3,22.3,0,0,0-.387,3.273c-.095,4.425,0,8.9,0,13.351l.146,213.8-.43-.43,177.291.12-.309.309.086-127.152.1-63.576.06-31.788V133.568a12.767,12.767,0,0,1,.077-1.985,10.8,10.8,0,0,1,.318-1.959,10.508,10.508,0,0,1,4.3-6.469,12.443,12.443,0,0,1,3.565-1.718A15.078,15.078,0,0,1,406.591,120.8Zm0,0a14.986,14.986,0,0,0-3.9.7,12.44,12.44,0,0,0-3.557,1.718,10.423,10.423,0,0,0-4.244,6.461,10.622,10.622,0,0,0-.309,1.95,13.912,13.912,0,0,0-.069,1.985v11.916l.069,31.788.1,63.576.077,127.152v.326h-.318l-177.291.112h-.421v-.43l.137-213.8c0-4.459,0-8.9.06-13.377a23.221,23.221,0,0,1,.4-3.359l.43-1.632c.12-.55.369-1.065.541-1.6a21.2,21.2,0,0,1,14.554-13.024,22.862,22.862,0,0,1,3.325-.6c1.125-.06,2.251-.12,3.359-.094h60.131Z" transform="translate(798.32 16352.22)" fill="#263238"/>
    <path id="Trazado_132424" data-name="Trazado 132424" d="M248.332,168.24H279.26l.052,10.361h-1.486q-.722-5.558-4.158-7.526a12.9,12.9,0,0,0-5.773-1.177v27.063c0,1.9.326,3.153.988,3.772s2.036.928,4.132.928v1.306H254.706V201.66c2,0,3.342-.318,3.995-.945s1-1.873,1-3.754V169.9a13.207,13.207,0,0,0-5.773,1.177c-2.457,1.349-3.849,3.849-4.167,7.526H248.28Z" transform="translate(793.875 16345.504)" fill="#aee6e6"/>
    <path id="Trazado_132425" data-name="Trazado 132425" d="M382.793,170.89c0,.369-17.062.67-38.111.67s-38.111-.3-38.111-.67,17.062-.67,38.111-.67S382.793,170.486,382.793,170.89Z" transform="translate(785.665 16345.225)" fill="#aee6e6"/>
    <path id="Trazado_132426" data-name="Trazado 132426" d="M337.818,185.029c0,.369-6.6.67-14.734.67s-14.734-.3-14.734-.67,6.6-.679,14.734-.679S337.818,184.651,337.818,185.029Z" transform="translate(785.414 16343.234)" fill="#455a64"/>
    <path id="Trazado_132427" data-name="Trazado 132427" d="M290.233,228.27c0,.369-12.526.67-27.982.67s-27.991-.3-27.991-.67,12.526-.67,27.991-.67S290.233,227.944,290.233,228.27Z" transform="translate(795.85 16337.142)" fill="#455a64"/>
    <path id="Trazado_132428" data-name="Trazado 132428" d="M364.013,228.27c0,.369-12.535.67-27.982.67s-27.991-.3-27.991-.67,12.526-.67,27.991-.67S364.013,227.944,364.013,228.27Z" transform="translate(785.458 16337.142)" fill="#aee6e6"/>
    <path id="Trazado_132429" data-name="Trazado 132429" d="M290.233,239.82c0,.369-12.526.67-27.982.67s-27.991-.3-27.991-.67,12.526-.67,27.991-.67S290.233,239.451,290.233,239.82Z" transform="translate(795.85 16335.515)" fill="#455a64"/>
    <path id="Trazado_132430" data-name="Trazado 132430" d="M290.233,251.369c0,.369-12.526.67-27.982.67s-27.991-.3-27.991-.67,12.526-.679,27.991-.679S290.233,250.956,290.233,251.369Z" transform="translate(795.85 16333.89)" fill="#aee6e6"/>
    <path id="Trazado_132431" data-name="Trazado 132431" d="M337.818,208.55c0,.369-6.6.67-14.734.67s-14.734-.3-14.734-.67,6.6-.67,14.734-.67S337.818,208.181,337.818,208.55Z" transform="translate(785.414 16339.92)" fill="#455a64"/>
    <path id="Trazado_132432" data-name="Trazado 132432" d="M398.928,228.27c0,.369-4.4.67-9.82.67s-9.829-.3-9.829-.67,4.4-.67,9.829-.67S398.928,227.944,398.928,228.27Z" transform="translate(775.422 16337.142)" fill="#455a64"/>
    <path id="Trazado_132433" data-name="Trazado 132433" d="M399.979,185.029c0,.369-11.323.67-25.284.67s-25.284-.3-25.284-.67,11.315-.679,25.284-.679S399.979,184.651,399.979,185.029Z" transform="translate(779.63 16343.234)" fill="#455a64"/>
    <path id="Trazado_132434" data-name="Trazado 132434" d="M391.91,196.29c0,.369-18.7.67-41.78.67s-41.78-.3-41.78-.67,18.7-.67,41.78-.67S391.91,195.946,391.91,196.29Z" transform="translate(785.414 16341.646)" fill="#455a64"/>
    <path id="Trazado_132435" data-name="Trazado 132435" d="M388.9,239.82c0,.369-18.1.67-40.379.67s-40.431-.3-40.431-.67,18.093-.67,40.431-.67S388.9,239.451,388.9,239.82Z" transform="translate(785.45 16335.515)" fill="#455a64"/>
    <path id="Trazado_132436" data-name="Trazado 132436" d="M389.71,273.25c0,.369-16.985.67-37.931.67s-37.939-.3-37.939-.67,16.985-.67,37.939-.67S389.71,272.881,389.71,273.25Z" transform="translate(784.64 16330.806)" fill="#aee6e6"/>
    <path id="Trazado_132437" data-name="Trazado 132437" d="M389.71,284.49c0,.369-16.985.67-37.931.67s-37.939-.3-37.939-.67,16.985-.67,37.939-.67S389.71,284.121,389.71,284.49Z" transform="translate(784.64 16329.223)" fill="#455a64"/>
    <path id="Trazado_132438" data-name="Trazado 132438" d="M389.71,295.73c0,.369-16.985.67-37.931.67s-37.939-.3-37.939-.67,16.985-.67,37.939-.67S389.71,295.361,389.71,295.73Z" transform="translate(784.64 16327.64)" fill="#455a64"/>
    <path id="Trazado_132439" data-name="Trazado 132439" d="M389.71,306.97c0,.369-16.985.67-37.931.67s-37.939-.3-37.939-.67,16.985-.67,37.939-.67S389.71,306.6,389.71,306.97Z" transform="translate(784.64 16326.056)" fill="#455a64"/>
    <path id="Trazado_132440" data-name="Trazado 132440" d="M357.511,318.21c0,.18-2.449.352-6.4.473s-9.451.2-15.464.2-11.5-.077-15.464-.2-6.392-.292-6.392-.473,2.44-.352,6.392-.473,9.451-.2,15.464-.2,11.487.077,15.464.2S357.511,318.021,357.511,318.21Z" transform="translate(784.647 16324.473)" fill="#455a64"/>
    <path id="Trazado_132441" data-name="Trazado 132441" d="M375.444,251.97c0,.369-14.605.67-32.647.67s-32.647-.3-32.647-.67,14.605-.67,32.647-.67S375.444,251.6,375.444,251.97Z" transform="translate(785.16 16333.804)" fill="#455a64"/>
    <path id="Trazado_132442" data-name="Trazado 132442" d="M286.571,274.526l4.029,74.539-72.881,9.124-.06-84.3Z" transform="translate(798.189 16330.621)" fill="#e0e0e0"/>
    <rect id="Rectángulo_31356" data-name="Rectángulo 31356" width="79.075" height="98.904" transform="translate(989.887 16679.055) rotate(-89.63)" fill="#f5f5f5"/>
    <rect id="Rectángulo_31357" data-name="Rectángulo 31357" width="69.117" height="91.953" transform="translate(993.329 16674.104) rotate(-89.63)" fill="#aee6e6"/>
    <g id="Grupo_60715" data-name="Grupo 60715" transform="translate(993.322 16631.342)" opacity="0.2">
      <path id="Trazado_132443" data-name="Trazado 132443" d="M191.44,347.871l32.4-42.751,19.717,27,13.592-14.279,26.255,30.62Z" transform="translate(-191.44 -305.12)"/>
    </g>
    <g id="Grupo_60716" data-name="Grupo 60716" transform="translate(1039.604 16618.971)" opacity="0.2">
      <path id="Trazado_132444" data-name="Trazado 132444" d="M259.8,298.005a7.243,7.243,0,1,1-7.2-7.286h.009A7.233,7.233,0,0,1,259.8,298Z" transform="translate(-245.31 -290.72)"/>
    </g>
    <path id="Trazado_132445" data-name="Trazado 132445" d="M313.139,382.849a1.529,1.529,0,1,1-1.529-1.529h0a1.52,1.52,0,0,1,1.529,1.512Z" transform="translate(785.17 16315.488)" fill="#263238"/>
    <path id="Trazado_132446" data-name="Trazado 132446" d="M323.709,382.849a1.529,1.529,0,1,1-1.529-1.529h0A1.529,1.529,0,0,1,323.709,382.849Z" transform="translate(783.681 16315.488)" fill="#263238"/>
    <path id="Trazado_132447" data-name="Trazado 132447" d="M334.268,382.849a1.529,1.529,0,1,1-1.529-1.529h0A1.529,1.529,0,0,1,334.268,382.849Z" transform="translate(782.194 16315.488)" fill="#263238"/>
    <path id="Trazado_132448" data-name="Trazado 132448" d="M364.511,341.63c0,.369-12.535.67-27.991.67s-27.991-.3-27.991-.67,12.535-.67,27.991-.67S364.511,341.261,364.511,341.63Z" transform="translate(785.388 16321.174)" fill="#aee6e6"/>
    <path id="Trazado_132449" data-name="Trazado 132449" d="M389.392,353.18c0,.369-18.1.67-40.431.67s-40.431-.3-40.431-.67,18.1-.67,40.431-.67S389.392,352.811,389.392,353.18Z" transform="translate(785.388 16319.547)" fill="#455a64"/>
    <g id="freepik--Character--inject-5" transform="translate(1007.363 16607.824)">
      <path id="Trazado_132450" data-name="Trazado 132450" d="M517.746,436.356l-73.206-4.484c-.462-1.052-.767-1.662-.767-1.662l-19.843.4-6.46-.4-.256.531-66.608,1.327c-13.284,0-27.247,8.1-27.247,18.456-.167,9.833,4.612,20.551,16.509,20.3l90.748-.3,90.758.3c11.9.246,15.044-6.883,15.064-15.447C537.825,439.532,527.894,436.483,517.746,436.356Z" transform="translate(-323.356 -264.642)" fill="#455a64"/>
      <path id="Trazado_132451" data-name="Trazado 132451" d="M348.62,471.058h1.721l4.916-.049,18.27-.079,60.964-.079-.256.266c-.128-1.967-.256-4.12-.393-6.264-.275-4.385-.541-8.712-.8-12.783l.226.236-56.146-6.352-16.637-1.9L356,443.516l-1.16-.147a2.1,2.1,0,0,1-.383-.069h.393l1.16.108,4.494.443,16.657,1.75,56.156,6.077h.206v.206c.265,4.11.531,8.427.806,12.783.138,2.144.265,4.277.393,6.264v.275h-.265l-60.964-.088-18.27-.079h-6.2Z" transform="translate(-323.778 -264.861)" fill="#263238"/>
      <path id="Trazado_132452" data-name="Trazado 132452" d="M367.319,444.947c-.059.069-.983-.669-2.566-1.642a28.083,28.083,0,0,0-6.667-2.95,27.8,27.8,0,0,0-7.208-1.062,20.622,20.622,0,0,1-3.038,0,2.713,2.713,0,0,1,.806-.187,17.154,17.154,0,0,1,2.232-.2,24.082,24.082,0,0,1,14.071,4.041,17.257,17.257,0,0,1,1.79,1.357C367.132,444.711,367.339,444.9,367.319,444.947Z" transform="translate(-323.765 -264.787)" fill="#263238"/>
      <path id="Trazado_132453" data-name="Trazado 132453" d="M514.172,441.09c0,.138-14.405,3.628-32.242,7.8s-32.34,7.434-32.37,7.3,14.405-3.628,32.252-7.8S514.142,441,514.172,441.09Z" transform="translate(-325.465 -264.824)" fill="#263238"/>
      <path id="Trazado_132454" data-name="Trazado 132454" d="M502.686,439.65a29.712,29.712,0,0,0-5.664,2.714,28.1,28.1,0,0,0-4.592,4.267,4.814,4.814,0,0,1,.983-1.6,15.048,15.048,0,0,1,7.444-5.034A5.239,5.239,0,0,1,502.686,439.65Z" transform="translate(-326.181 -264.8)" fill="#263238"/>
      <path id="Trazado_132455" data-name="Trazado 132455" d="M474.652,355.12l23.2,40.374a17.138,17.138,0,0,1,.462,16.214h0a17.158,17.158,0,0,1-15.821,9.469l-35.615-.983-.934-12.95,31.357-6.028-21.141-36.6Z" transform="translate(-325.404 -263.387)" fill="#ffbe9d"/>
      <path id="Trazado_132456" data-name="Trazado 132456" d="M386.923,424.206l32.744,8.673.718-9.833-30.177-17.522,22.045-40.9-18.5-9.5-23.2,40.374h0a18.9,18.9,0,0,0,10.915,26.972Z" transform="translate(-324.107 -263.387)" fill="#ffbe9d"/>
      <path id="Trazado_132457" data-name="Trazado 132457" d="M463.744,380.688l22.38-11.8a114.1,114.1,0,0,0-9.587-15.988c-6.932-9.587-17.7-16.283-29.892-18.84h0l-25.742.3a34.2,34.2,0,0,0-9.184,2.114v-.1c-13.973,3.078-29.5,33.55-29.5,33.55l20.433,10.728.452,3.206a21.634,21.634,0,0,0,5.31,11.416l-5.9,39.007,66.018,1.367-8.387-27.906Z" transform="translate(-324.339 -263.035)" fill="#aee6e6"/>
      <path id="Trazado_132458" data-name="Trazado 132458" d="M409.347,396.053a4.637,4.637,0,0,1-.983-.747,14.122,14.122,0,0,1-2.252-2.517,16.311,16.311,0,0,1-2.763-10.629,35.175,35.175,0,0,1,1.514-5.9c.59-1.78,1.2-3.353,1.721-4.671s.983-2.37,1.3-3.088a4.91,4.91,0,0,1,.57-1.091,6.439,6.439,0,0,1-.383,1.17c-.3.836-.688,1.888-1.15,3.137s-1.042,2.95-1.6,4.69a35.951,35.951,0,0,0-1.455,5.841,16.8,16.8,0,0,0,.56,5.9,15.9,15.9,0,0,0,1.967,4.454A27.276,27.276,0,0,0,409.347,396.053Z" transform="translate(-324.691 -263.593)" fill="#263238"/>
      <path id="Trazado_132459" data-name="Trazado 132459" d="M399.306,444.831l-3.736-43.51h80.521l-5.339,44.051Z" transform="translate(-324.563 -264.159)" fill="#263238"/>
      <path id="Trazado_132460" data-name="Trazado 132460" d="M441.556,424.833a5.133,5.133,0,1,1-5.143-5.123h.02A5.123,5.123,0,0,1,441.556,424.833Z" transform="translate(-325.159 -264.467)" fill="#fafafa"/>
      <path id="Trazado_132461" data-name="Trazado 132461" d="M435.08,454.21l13.678,1.908v14.867l-12.576-.324Z" transform="translate(-325.223 -265.043)" fill="#ffbe9d"/>
      <path id="Trazado_132462" data-name="Trazado 132462" d="M449,456.15h6.146a6.788,6.788,0,0,1,3.4.914l3.235,1.888a50.408,50.408,0,0,0,5.664,2.694c3.736,1.2,10.02,2.822,11.347,3.845,3.776,2.95,2.625,6.362.551,6.716-1.819.324-30.354-1.18-30.354-1.18Z" transform="translate(-325.455 -265.076)" fill="#aee6e6"/>
      <path id="Trazado_132463" data-name="Trazado 132463" d="M459.238,469.867a9.825,9.825,0,0,1-.659-3.864,9.56,9.56,0,0,1,.433-3.933,34.4,34.4,0,0,1,.079,3.874A33.076,33.076,0,0,1,459.238,469.867Z" transform="translate(-325.615 -265.174)" fill="#263238"/>
      <path id="Trazado_132464" data-name="Trazado 132464" d="M462.216,469.81a24.715,24.715,0,0,1,.059-7.09,12.993,12.993,0,0,1,.226,3.55A12.784,12.784,0,0,1,462.216,469.81Z" transform="translate(-325.672 -265.185)" fill="#263238"/>
      <path id="Trazado_132465" data-name="Trazado 132465" d="M465.709,470.406a26.316,26.316,0,0,1-.57-7.306,26.268,26.268,0,0,1,.57,7.306Z" transform="translate(-325.724 -265.192)" fill="#263238"/>
      <path id="Trazado_132466" data-name="Trazado 132466" d="M456.446,465.9a3.863,3.863,0,0,1-1.259-.393,11.685,11.685,0,0,1-3.078-1.9c-.285-.246-.58-.521-.875-.826a3.47,3.47,0,0,1-.787-1.1,1.554,1.554,0,0,1,.177-1.534,1.149,1.149,0,0,1,.757-.413,1.96,1.96,0,0,1,.836.089,6.126,6.126,0,0,1,1.288,10.885,3.945,3.945,0,0,1-1.416.639,1.7,1.7,0,0,1-.8,0,1.045,1.045,0,0,1-.619-.551,1.533,1.533,0,0,1,.177-1.416,4.44,4.44,0,0,1,.787-.983,9.511,9.511,0,0,1,3.029-1.967,3.706,3.706,0,0,1,1.268-.354s-.433.177-1.19.541a10.123,10.123,0,0,0-2.852,2.055,3.845,3.845,0,0,0-.7.885,1.2,1.2,0,0,0-.147,1.032.816.816,0,0,0,.983.334,3.576,3.576,0,0,0,1.229-.58,5.684,5.684,0,0,0-1.17-10.049.983.983,0,0,0-1.1.157,1.111,1.111,0,0,0-.118,1.091,5.9,5.9,0,0,0,1.5,1.809A16.052,16.052,0,0,0,456.446,465.9Z" transform="translate(-325.478 -265.135)" fill="#263238"/>
      <path id="Trazado_132467" data-name="Trazado 132467" d="M479.466,472.2a3.153,3.153,0,0,0,.747-.983,3.472,3.472,0,0,0-.4-3.1,6.882,6.882,0,0,0-3.8-2.861c-1.74-.629-3.805-.924-5.9-1.583a41.291,41.291,0,0,1-10.157-4.621,30.777,30.777,0,0,1-2.763-1.967,5.22,5.22,0,0,1-.934-.826,6.55,6.55,0,0,1,1.052.659c.659.442,1.613,1.082,2.842,1.809a45.772,45.772,0,0,0,10.108,4.444c2.055.639,4.11.983,5.9,1.622a7.15,7.15,0,0,1,3.933,3.137,3.637,3.637,0,0,1,.256,3.363,2.141,2.141,0,0,1-.629.7C479.6,472.17,479.475,472.219,479.466,472.2Z" transform="translate(-325.577 -265.077)" fill="#263238"/>
      <path id="Trazado_132468" data-name="Trazado 132468" d="M469.152,344.928a.615.615,0,0,1,0,.216v.61c-.049.57-.128,1.367-.216,2.38-.216,2.114-.521,5.133-.895,8.928v.226l-.207-.108L455.9,350.9l.285-.079-6.45,10.895-.138.226-.216-.157-10.816-8.328h.315l-4.73,3.707L427.7,362.2l-.236.187-.138-.265-6.146-11.357.3.1-13.019,5.8-.246.108v-.256l-1.967-11.583.2.118-7.493,2.891-1.967.728-.511.187-.177.049s.049,0,.157-.089l.5-.216,1.967-.806,7.4-2.95.167-.059v.177c.58,3.225,1.268,7.109,2.065,11.563l-.275-.148,12.989-5.9.206-.088.108.187c1.967,3.6,4.012,7.394,6.165,11.357l-.383-.079,6.45-5.054,4.73-3.707.157-.118.157.118,10.816,8.348-.354.069,6.5-10.816.1-.167.177.089,11.8,6.352-.226.118,1.042-8.909c.128-.983.226-1.8.295-2.37a4.086,4.086,0,0,1,.088-.61A1.735,1.735,0,0,1,469.152,344.928Z" transform="translate(-324.575 -263.215)" fill="#f5f5f5"/>
      <path id="Trazado_132469" data-name="Trazado 132469" d="M478.628,356.059a1.218,1.218,0,0,1-.049.285c-.059.216-.128.492-.206.836-.206.757-.482,1.839-.846,3.215-.757,2.832-1.858,6.883-3.215,11.967l-.059.2-.177-.088L460.2,365.823l.275-.079c-3.55,5.054-7.483,10.669-11.681,16.667l-.177.246-.206-.216-11.19-11.386-2.36-2.389h.315l-15.123,9.489-.216.138-.128-.216-8.161-14.415.256.1-15.556,5.359-.147.049-.049-.147c-1.475-4.267-2.645-7.66-3.451-10.01-.383-1.141-.688-2.035-.895-2.665-.1-.285-.167-.511-.226-.688a.749.749,0,0,1-.059-.236.873.873,0,0,1,.1.226l.266.669c.226.629.551,1.5.983,2.635.836,2.34,2.055,5.713,3.589,9.971l-.2-.1,15.5-5.438.167-.059.089.157,8.21,14.376-.344-.089,15.123-9.508.167-.108.147.147q1.17,1.2,2.36,2.389l11.219,11.4h-.383l11.74-16.627.1-.147.167.079,13.825,6.745-.226.108,3.363-11.927.924-3.2c.108-.334.187-.61.256-.816A1.062,1.062,0,0,1,478.628,356.059Z" transform="translate(-324.493 -263.392)" fill="#f5f5f5"/>
      <path id="Trazado_132470" data-name="Trazado 132470" d="M469.152,285.9a14.454,14.454,0,0,1-10.993-3.471c3.579,1.809,8.348-.678,9.617-4.484s.226-10.895-2.9-13.412a12.437,12.437,0,0,0-10.816-2.321c-3.687.983-7.591,6.6-8.8,10.216l.069.108c-.56-.226-1.141-.433-1.711-.629a29.493,29.493,0,0,0-12.734-1.544,20.724,20.724,0,0,0-11.632,5.123l25.005,40.187c4.543-.393,8.564-3.461,10.944-7.345s3.294-8.515,3.52-13.068c.059-1.15.049-2.3,0-3.451l8.033,1.288a17.977,17.977,0,0,0-5.339-4.779A6.726,6.726,0,0,0,469.152,285.9Z" transform="translate(-324.958 -261.828)" fill="#263238"/>
      <path id="Trazado_132471" data-name="Trazado 132471" d="M437.473,348.519a12.576,12.576,0,0,0,12.311-12.429l.58-50h0a3.933,3.933,0,0,0-3.559-4.031l-21.121-5.339c-6.775-.708-11.259,7.611-11.691,14.4-.472,7.542-.757,16.765.138,22.4C415.93,324.822,424.6,326.3,424.6,326.3v9.735a12.577,12.577,0,0,0,12.632,12.52l.209,0Z" transform="translate(-324.863 -262.076)" fill="#ffbe9d"/>
      <path id="Trazado_132472" data-name="Trazado 132472" d="M418.46,298.788a1.455,1.455,0,0,0,1.406,1.465,1.387,1.387,0,0,0,1.493-1.272l0-.035a1.446,1.446,0,0,0-1.4-1.465,1.4,1.4,0,0,0-1.5,1.281Z" transform="translate(-324.945 -262.424)" fill="#263238"/>
      <path id="Trazado_132473" data-name="Trazado 132473" d="M416,296.214c.177.2,1.278-.619,2.842-.619s2.7.787,2.871.6-.1-.433-.6-.8a4.077,4.077,0,0,0-2.3-.708,3.81,3.81,0,0,0-2.262.737A1.37,1.37,0,0,0,416,296.214Z" transform="translate(-324.904 -262.377)" fill="#263238"/>
      <path id="Trazado_132474" data-name="Trazado 132474" d="M433.57,298.788a1.446,1.446,0,0,0,1.406,1.465,1.4,1.4,0,0,0,1.5-1.281l0-.027a1.455,1.455,0,0,0-1.406-1.465,1.387,1.387,0,0,0-1.5,1.262Z" transform="translate(-325.198 -262.424)" fill="#263238"/>
      <path id="Trazado_132475" data-name="Trazado 132475" d="M431.65,296.514c.177.187,1.278-.619,2.842-.619s2.7.787,2.871.59-.1-.423-.6-.787a3.994,3.994,0,0,0-2.3-.708,3.8,3.8,0,0,0-2.262.728C431.718,296.091,431.561,296.426,431.65,296.514Z" transform="translate(-325.165 -262.382)" fill="#263238"/>
      <path id="Trazado_132476" data-name="Trazado 132476" d="M425.813,308.1a10.5,10.5,0,0,0-2.537-.462c-.393,0-.767-.118-.836-.393a1.968,1.968,0,0,1,.265-1.18l1.18-3.038c1.632-4.317,2.822-7.866,2.645-7.935s-1.642,3.383-3.284,7.709l-1.131,3.048a2.37,2.37,0,0,0-.206,1.563.984.984,0,0,0,.659.59,2.55,2.55,0,0,0,.678.089A10.144,10.144,0,0,0,425.813,308.1Z" transform="translate(-325.002 -262.384)" fill="#263238"/>
      <path id="Trazado_132477" data-name="Trazado 132477" d="M424.79,327.041A28.779,28.779,0,0,0,439.942,323s-3.678,7.768-15,6.706Z" transform="translate(-325.051 -262.85)" fill="#eb996e"/>
      <path id="Trazado_132478" data-name="Trazado 132478" d="M426.558,312.122a2.812,2.812,0,0,1,2.517-1.042,2.568,2.568,0,0,1,1.77.983,1.621,1.621,0,0,1,.128,1.858,1.9,1.9,0,0,1-2.045.521,6.1,6.1,0,0,1-1.967-1.19,1.651,1.651,0,0,1-.443-.462.52.52,0,0,1,0-.58" transform="translate(-325.078 -262.651)" fill="#eb996e"/>
      <path id="Trazado_132479" data-name="Trazado 132479" d="M430.475,309.41c-.256,0-.256,1.681-1.711,2.891s-3.255.983-3.265,1.249.4.334,1.16.354a4.281,4.281,0,0,0,2.734-.983,3.669,3.669,0,0,0,1.318-2.419C430.78,309.823,430.584,309.41,430.475,309.41Z" transform="translate(-325.063 -262.623)" fill="#263238"/>
      <path id="Trazado_132480" data-name="Trazado 132480" d="M430.93,293.74c.157.423,1.711.226,3.55.442s3.314.718,3.55.344c.108-.187-.147-.58-.737-.983a6.234,6.234,0,0,0-5.418-.6C431.205,293.209,430.861,293.544,430.93,293.74Z" transform="translate(-325.153 -262.342)" fill="#263238"/>
      <path id="Trazado_132481" data-name="Trazado 132481" d="M416.259,293.283c.275.354,1.347,0,2.645,0s2.389.246,2.635-.128c.118-.187-.059-.541-.541-.875a3.625,3.625,0,0,0-2.144-.58,3.666,3.666,0,0,0-2.114.718C416.289,292.752,416.141,293.116,416.259,293.283Z" transform="translate(-324.908 -262.327)" fill="#263238"/>
      <path id="Trazado_132482" data-name="Trazado 132482" d="M449.7,300.544a2.853,2.853,0,0,1,2.95.148,5.251,5.251,0,0,1-3.3,9.744" transform="translate(-325.461 -262.469)" fill="#ffbe9d"/>
      <path id="Trazado_132483" data-name="Trazado 132483" d="M450.516,307.106c0-.079.433.088.983-.157a2.177,2.177,0,0,0-.226-3.776c-.57-.236-.983-.118-.983-.206s.383-.354,1.131-.187a2.038,2.038,0,0,1,1.1.688,2.515,2.515,0,0,1,.56,1.485,2.243,2.243,0,0,1-1.416,2.36C450.87,307.538,450.457,307.145,450.516,307.106Z" transform="translate(-325.477 -262.512)" fill="#eb996e"/>
      <path id="Trazado_132484" data-name="Trazado 132484" d="M453.63,309.494a4.305,4.305,0,0,1,.521.364l1.386,1.1,4.916,4.149.167.138-.138.167c-1.819,2.183-3.845,4.916-6.116,7.768-.521.649-1.032,1.278-1.534,1.868l-.423.492v-.649c-.2-4.6-.364-8.682-.452-11.613,0-1.386-.059-2.547-.079-3.441a6.9,6.9,0,0,1,0-1.259,5.684,5.684,0,0,1,.157,1.249c.059.895.138,2.045.236,3.442.177,2.95.393,6.991.619,11.6l-.443-.157,1.514-1.849c2.271-2.852,4.317-5.565,6.185-7.738v.3l-4.769-4.287-1.318-1.17A2.96,2.96,0,0,1,453.63,309.494Z" transform="translate(-325.503 -262.609)" fill="#455a64"/>
      <path id="Trazado_132485" data-name="Trazado 132485" d="M430.091,271.69a41.481,41.481,0,0,0-8.25.9,13.767,13.767,0,0,0-7.129,4.012,8.378,8.378,0,0,0-1.967,7.719,6.067,6.067,0,0,0,6.264,4.366c2.085-.275,4.081-1.819,6.1-1.209s2.95,2.9,4.916,3.264,3.648-1.377,5.595-1.554c2.163-.187,4.031,1.583,5,3.53s1.327,4.13,2.291,6.067a4.918,4.918,0,0,0,2.95,2.773,4.012,4.012,0,0,0,3.53-.983,8.273,8.273,0,0,0,2.065-3.166,17.582,17.582,0,0,0-14.277-24.091" transform="translate(-324.845 -261.993)" fill="#263238"/>
      <path id="Trazado_132486" data-name="Trazado 132486" d="M458.223,283.723c-.088,0-.354-.914-1.042-2.3a16.423,16.423,0,0,0-8.761-7.866c-1.445-.551-2.4-.718-2.389-.806s.256,0,.688,0a10.409,10.409,0,0,1,1.829.423,14.987,14.987,0,0,1,8.958,8.1,9.7,9.7,0,0,1,.61,1.77A2.064,2.064,0,0,1,458.223,283.723Z" transform="translate(-325.406 -262.01)" fill="#aee6e6"/>
      <path id="Trazado_132487" data-name="Trazado 132487" d="M466.956,267.036a17.123,17.123,0,0,0-2.724-.846,10.816,10.816,0,0,0-6.637.983,14.578,14.578,0,0,0-5.123,4.464c-1.052,1.426-1.544,2.419-1.622,2.38a2.223,2.223,0,0,1,.275-.737,14.166,14.166,0,0,1,1.042-1.849,13.709,13.709,0,0,1,5.2-4.71,10.438,10.438,0,0,1,6.883-.895,7.464,7.464,0,0,1,2.016.747C466.73,266.829,466.976,266.977,466.956,267.036Z" transform="translate(-325.486 -261.891)" fill="#455a64"/>
      <path id="Trazado_132488" data-name="Trazado 132488" d="M456.067,280.57a7.239,7.239,0,0,1,0,2.33,18.867,18.867,0,0,1-1.416,5.438,18.608,18.608,0,0,1-2.95,4.769,6.95,6.95,0,0,1-1.7,1.583,29.592,29.592,0,0,0,4.218-6.549A30.34,30.34,0,0,0,456.067,280.57Z" transform="translate(-325.472 -262.141)" fill="#455a64"/>
      <path id="Trazado_132489" data-name="Trazado 132489" d="M456.43,280.82a1.975,1.975,0,0,1,.275.649,10.408,10.408,0,0,1,.442,1.858,15.979,15.979,0,0,1-3.029,12.006,10.663,10.663,0,0,1-1.278,1.426c-.334.315-.521.472-.551.442s.639-.767,1.534-2.085a18.025,18.025,0,0,0,2.527-5.6,18.252,18.252,0,0,0,.442-6.136C456.626,281.8,456.341,280.84,456.43,280.82Z" transform="translate(-325.51 -262.146)" fill="#455a64"/>
    </g>
    <g id="Grupo_56291" data-name="Grupo 56291" transform="translate(1099.324 16173.449)">
      <path id="Trazado_104972" data-name="Trazado 104972" d="M462.911,80.848c2.062,1.084,3.929,2.023,5.748,3.042a2.142,2.142,0,0,0,2.276-.076c2.443-1.167,3.632-2.774,2.745-5.53a4.748,4.748,0,0,1-.049-1.249c-.1-3.137-.117-3.174,2.809-4.216,1.718-.612,3.484-1.087,5.231-1.618a1.516,1.516,0,0,1,2.046.818c.715,1.332,1.76,2.5,2.355,3.878.834,1.924,2.341,1.446,3.818,1.487a2.66,2.66,0,0,0,2.982-1.884,31.736,31.736,0,0,1,2.116-4.364,1.63,1.63,0,0,1,1.252-.774c2.616.45,5.208,1.04,7.813,1.558a1.5,1.5,0,0,1,1.311,1.652c.034,1.619.133,3.24.1,4.858a2.477,2.477,0,0,0,1.4,2.312c2.25,1.56,4.163,1.4,6.038-.486a.745.745,0,0,1,.13-.088c3.6-2.42,3.614-2.431,6.808.468a42.119,42.119,0,0,1,3.344,3.3,1.8,1.8,0,0,1,.2,1.589c-.725,1.616-1.567,3.186-2.446,4.726a2.188,2.188,0,0,0,.079,2.42c1.2,2.3,2.728,3.536,5.428,2.674A6.6,6.6,0,0,1,528,95.266c2.853-.169,2.892-.185,3.868,2.594.639,1.818,1.139,3.685,1.717,5.526a1.46,1.46,0,0,1-.792,1.932c-1.447.834-2.8,1.828-4.26,2.642-.96.535-1.077,1.242-1.19,2.267-.285,2.586.646,4.16,3.154,4.863a11.167,11.167,0,0,1,1.838.869c2.288,1.136,2.347,1.148,1.911,3.607-.354,2-.9,3.963-1.313,5.953a1.522,1.522,0,0,1-1.691,1.423c-1.722.006-3.444.175-5.167.179-.969,0-1.381.479-1.934,1.225-1.714,2.314-1.265,4.181.421,6.353,2.586,3.333,2.47,3.455-.3,6.638-1.027,1.181-2.183,2.249-3.246,3.4a1.362,1.362,0,0,1-1.93.264c-1.59-.9-3.2-1.779-4.863-2.524a2.548,2.548,0,0,0-1.822.079c-2.514,1.072-3.886,2.781-2.934,5.7a6.591,6.591,0,0,1,.079,1.716c.1,2.521.125,2.575-2.2,3.4-1.964.695-3.985,1.224-5.967,1.869a1.438,1.438,0,0,1-1.92-.791c-.927-1.575-1.889-3.135-2.947-4.623a2.485,2.485,0,0,0-1.482-.768c-3-.566-4.555.827-5.654,3.617-1.462,3.714-1.683,3.661-5.617,2.961-1.536-.273-3.031-.769-4.56-1.091a1.6,1.6,0,0,1-1.41-1.75c-.03-1.672-.126-3.344-.11-5.015.01-1.034-.539-1.472-1.327-2.052-2.352-1.733-4.316-1.308-6.327.553a30.24,30.24,0,0,1-3.447,2.364c-2.261-2.1-4.6-4.223-6.857-6.424-.224-.218-.142-.967.042-1.353q1.151-2.4,2.469-4.717a2.292,2.292,0,0,0-.118-2.412c-1.214-2.649-3.053-2.948-5.775-2.7-4.769.433-3.677,1.134-5.371-3.346-.677-1.792-1.78-3.942-1.3-5.5.435-1.41,2.771-2.223,4.249-3.328.648-.484,1.683-.971,1.773-1.572a15.117,15.117,0,0,0-.188-4.2c-.043-.323-.641-.633-1.04-.835-1.63-.826-3.313-1.554-4.905-2.445a1.738,1.738,0,0,1-.767-1.387c.411-2.57.97-5.115,1.466-7.671A1.494,1.494,0,0,1,452,99.4c1.67.037,3.344-.092,5.015-.081,1.025.006,1.492-.522,2.047-1.339,1.49-2.195,1.58-4.157-.417-6.049a2.209,2.209,0,0,1-.262-.389c-2.226-3.313-2.249-3.333.369-6.3C460.063,83.755,461.472,82.361,462.911,80.848ZM491.673,87.6a25.631,25.631,0,1,0,25.54,25.747A25.643,25.643,0,0,0,491.673,87.6Z" transform="translate(-448.789 -70.355)" fill="#7d6eb2"/>
      <path id="Trazado_104973" data-name="Trazado 104973" d="M498.952,144.141a23.485,23.485,0,1,1,23.522-23.6A23.516,23.516,0,0,1,498.952,144.141Zm-18.008-23.507a18.1,18.1,0,1,0,18.481-18A18.258,18.258,0,0,0,480.944,120.634Z" transform="translate(-456.254 -77.848)" fill="#7d6eb2"/>
    </g>
    <g id="Grupo_56292" data-name="Grupo 56292" transform="translate(1210.555 16224.393)">
      <path id="Trazado_104974" data-name="Trazado 104974" d="M561.477,154.012c1.466.771,2.792,1.438,4.085,2.163a1.522,1.522,0,0,0,1.618-.054c1.736-.829,2.581-1.971,1.951-3.929a3.353,3.353,0,0,1-.035-.888c-.073-2.23-.083-2.255,2-3,1.221-.435,2.476-.772,3.717-1.149a1.078,1.078,0,0,1,1.454.581c.508.946,1.251,1.779,1.674,2.756.592,1.368,1.663,1.028,2.712,1.057a1.891,1.891,0,0,0,2.119-1.34,22.584,22.584,0,0,1,1.5-3.1,1.159,1.159,0,0,1,.889-.55c1.859.32,3.7.739,5.552,1.107a1.066,1.066,0,0,1,.932,1.174c.024,1.151.094,2.3.07,3.452a1.761,1.761,0,0,0,.995,1.644,2.971,2.971,0,0,0,4.29-.346.546.546,0,0,1,.092-.063c2.561-1.72,2.568-1.728,4.838.333a29.805,29.805,0,0,1,2.376,2.344,1.285,1.285,0,0,1,.143,1.129c-.515,1.149-1.113,2.263-1.738,3.358a1.555,1.555,0,0,0,.056,1.719c.852,1.633,1.939,2.513,3.857,1.9a4.653,4.653,0,0,1,1.109-.054c2.028-.12,2.055-.131,2.749,1.843.454,1.293.809,2.619,1.22,3.927a1.037,1.037,0,0,1-.563,1.373c-1.028.592-1.992,1.3-3.027,1.877-.682.381-.765.883-.845,1.611a2.811,2.811,0,0,0,2.241,3.456,7.9,7.9,0,0,1,1.306.618c1.626.807,1.668.816,1.358,2.562-.252,1.421-.639,2.817-.933,4.231a1.081,1.081,0,0,1-1.2,1.011c-1.224,0-2.448.125-3.672.128-.687,0-.981.341-1.373.87-1.219,1.644-.9,2.971.3,4.515,1.838,2.369,1.755,2.456-.21,4.718-.729.839-1.551,1.6-2.307,2.415a.968.968,0,0,1-1.371.188c-1.131-.638-2.273-1.265-3.457-1.794a1.8,1.8,0,0,0-1.295.056c-1.786.761-2.762,1.976-2.085,4.049a4.672,4.672,0,0,1,.056,1.22c.074,1.791.089,1.83-1.564,2.415-1.4.494-2.831.87-4.24,1.329a1.022,1.022,0,0,1-1.365-.562c-.658-1.12-1.342-2.228-2.094-3.285a1.768,1.768,0,0,0-1.054-.546c-2.13-.4-3.237.588-4.018,2.571-1.039,2.639-1.2,2.6-3.991,2.1-1.092-.194-2.155-.546-3.241-.775a1.134,1.134,0,0,1-1-1.243c-.021-1.188-.089-2.377-.078-3.564.007-.735-.383-1.046-.943-1.458-1.672-1.231-3.067-.93-4.5.393a21.25,21.25,0,0,1-2.449,1.68c-1.606-1.49-3.266-3-4.873-4.565-.159-.155-.1-.687.03-.961q.818-1.706,1.755-3.352a1.628,1.628,0,0,0-.084-1.714c-.863-1.883-2.17-2.1-4.1-1.92-3.389.308-2.614.806-3.817-2.377-.481-1.274-1.265-2.8-.923-3.909.309-1,1.969-1.58,3.019-2.364.461-.344,1.2-.69,1.26-1.118a10.781,10.781,0,0,0-.133-2.983c-.031-.229-.456-.45-.739-.593-1.159-.587-2.354-1.105-3.486-1.738a1.235,1.235,0,0,1-.546-.986c.292-1.826.689-3.635,1.041-5.451a1.061,1.061,0,0,1,1.237-.964c1.187.026,2.377-.065,3.564-.058.729,0,1.061-.371,1.455-.952,1.059-1.56,1.123-2.954-.3-4.3a1.583,1.583,0,0,1-.187-.276c-1.582-2.355-1.6-2.369.262-4.48C559.453,156.079,560.454,155.088,561.477,154.012Zm20.44,4.8a18.215,18.215,0,1,0,18.15,18.3A18.224,18.224,0,0,0,581.917,158.813Z" transform="translate(-551.441 -146.556)" fill="#7d6eb2"/>
      <path id="Trazado_104975" data-name="Trazado 104975" d="M587.089,198.993a16.69,16.69,0,1,1,16.716-16.768A16.712,16.712,0,0,1,587.089,198.993Zm-12.8-16.706a12.86,12.86,0,1,0,13.134-12.794A12.975,12.975,0,0,0,574.292,182.287Z" transform="translate(-556.745 -151.881)" fill="#7d6eb2"/>
    </g>
    <g id="Grupo_56289" data-name="Grupo 56289" transform="translate(973.724 16173.449)">
      <rect id="Rectángulo_5858" data-name="Rectángulo 5858" width="145.224" height="101.887" transform="translate(0 0)" fill="#fff" stroke="#bdbcba" stroke-miterlimit="10" stroke-width="1"/>
      <rect id="Rectángulo_5859" data-name="Rectángulo 5859" width="145.224" height="12.149" transform="translate(0 0)" fill="none" stroke="#bdbcba" stroke-miterlimit="10" stroke-width="1"/>
      <circle id="Elipse_4548" data-name="Elipse 4548" cx="3.266" cy="3.266" r="3.266" transform="translate(3.954 2.867)" fill="#acacac"/>
      <circle id="Elipse_4549" data-name="Elipse 4549" cx="3.266" cy="3.266" r="3.266" transform="translate(12.77 2.867)" fill="#e9e9e9"/>
      <circle id="Elipse_4550" data-name="Elipse 4550" cx="3.266" cy="3.266" r="3.266" transform="translate(21.587 2.867)" fill="#fec72e"/>
    </g>
    <g id="Grupo_60719" data-name="Grupo 60719" transform="translate(1738.648 11518.279)">
      <rect id="Rectángulo_5861" data-name="Rectángulo 5861" width="229.914" height="144.129" transform="translate(-794.212 4780.468)" fill="#fff"/>
      <rect id="Rectángulo_5862" data-name="Rectángulo 5862" width="229.914" height="5.777" transform="translate(-794.212 4780.468)" fill="#395a64"/>
      <rect id="Rectángulo_5863" data-name="Rectángulo 5863" width="181.101" height="6.643" transform="translate(-762.728 4793.466)" fill="#feffff"/>
      <rect id="Rectángulo_5864" data-name="Rectángulo 5864" width="229.914" height="36.105" transform="translate(-794.212 4786.245)" fill="#fec72e"/>
      <g id="Grupo_60717" data-name="Grupo 60717" transform="translate(-636.218 4831.015)">
        <rect id="Rectángulo_5865-3" data-name="Rectángulo 5865" width="54.59" height="80.874" fill="#ebebeb"/>
        <rect id="Rectángulo_5866-3" data-name="Rectángulo 5866" width="54.59" height="6.354" fill="#fec52e"/>
      </g>
      <rect id="Rectángulo_5867" data-name="Rectángulo 5867" width="31.668" height="6.354" transform="translate(-708.716 4831.015)" fill="#a5a5a5"/>
      <rect id="Rectángulo_5868" data-name="Rectángulo 5868" width="62.966" height="2.344" transform="translate(-708.716 4854.088)" fill="#ebebeb"/>
      <rect id="Rectángulo_5869" data-name="Rectángulo 5869" width="62.966" height="2.344" transform="translate(-708.716 4859.72)" fill="#ebebeb"/>
      <rect id="Rectángulo_5870" data-name="Rectángulo 5870" width="62.966" height="2.344" transform="translate(-708.716 4866.83)" fill="#ebebeb"/>
      <rect id="Rectángulo_5871" data-name="Rectángulo 5871" width="62.966" height="2.344" transform="translate(-708.716 4872.462)" fill="#ebebeb"/>
      <rect id="Rectángulo_5872" data-name="Rectángulo 5872" width="89.343" height="2.344" transform="translate(-782.225 4887.449)" fill="#ebebeb"/>
      <rect id="Rectángulo_5873" data-name="Rectángulo 5873" width="27.223" height="2.344" transform="translate(-782.225 4881.383)" fill="#a5a5a5"/>
      <rect id="Rectángulo_5874" data-name="Rectángulo 5874" width="89.343" height="2.344" transform="translate(-782.225 4893.081)" fill="#ebebeb"/>
      <rect id="Rectángulo_5875" data-name="Rectángulo 5875" width="89.343" height="2.344" transform="translate(-782.225 4898.136)" fill="#ebebeb"/>
      <rect id="Rectángulo_5876" data-name="Rectángulo 5876" width="89.343" height="2.344" transform="translate(-782.225 4903.768)" fill="#ebebeb"/>
      <rect id="Rectángulo_5877" data-name="Rectángulo 5877" width="89.343" height="2.344" transform="translate(-782.225 4909.4)" fill="#ebebeb"/>
      <rect id="Rectángulo_5878" data-name="Rectángulo 5878" width="40.582" height="31.372" transform="translate(-686.331 4881.383)" fill="#a5a5a5"/>
      <rect id="Rectángulo_5879" data-name="Rectángulo 5879" width="73.525" height="50.175" transform="translate(-790.401 4825.528)" fill="none" stroke="#bdbcba" stroke-miterlimit="10" stroke-width="1"/>
      <g id="Rectángulo_5880" data-name="Rectángulo 5880" transform="translate(-814.304 4814.98)" fill="#fff" stroke="#a6a6a1" stroke-miterlimit="10" stroke-width="1">
        <rect width="68.021" height="41.376" stroke="none"/>
        <rect x="0.5" y="0.5" width="67.021" height="40.376" fill="none"/>
      </g>
      <g id="Grupo_56293" data-name="Grupo 56293" transform="translate(-791.662 4781.534)">
        <circle id="Elipse_4551" data-name="Elipse 4551" cx="1.822" cy="1.822" r="1.822" transform="translate(0 0)" fill="#acacac"/>
        <circle id="Elipse_4552" data-name="Elipse 4552" cx="1.822" cy="1.822" r="1.822" transform="translate(4.919 0)" fill="#e9e9e9"/>
        <circle id="Elipse_4553" data-name="Elipse 4553" cx="1.822" cy="1.822" r="1.822" transform="translate(9.837 0)" fill="#fec72e"/>
      </g>
      <circle id="Elipse_4554" data-name="Elipse 4554" cx="7.153" cy="7.153" r="7.153" transform="translate(-787.447 4828.515)" fill="#fec72e"/>
    </g>
    <g id="Grupo_56290" data-name="Grupo 56290" transform="translate(930.889 16403.105)">
      <path id="Trazado_104970" data-name="Trazado 104970" d="M49.871,279.026c2.062,1.085,3.928,2.023,5.748,3.042a2.142,2.142,0,0,0,2.276-.076c2.443-1.167,3.632-2.774,2.745-5.53a4.716,4.716,0,0,1-.049-1.249c-.1-3.137-.117-3.174,2.809-4.216,1.717-.612,3.484-1.087,5.231-1.617a1.516,1.516,0,0,1,2.046.817c.715,1.332,1.76,2.5,2.355,3.878.834,1.923,2.341,1.445,3.818,1.487a2.662,2.662,0,0,0,2.982-1.885,31.786,31.786,0,0,1,2.116-4.364,1.631,1.631,0,0,1,1.252-.774c2.616.45,5.208,1.04,7.813,1.558a1.5,1.5,0,0,1,1.311,1.652c.034,1.62.133,3.241.1,4.858a2.478,2.478,0,0,0,1.4,2.312c2.25,1.559,4.163,1.4,6.038-.487a.811.811,0,0,1,.129-.088c3.6-2.42,3.615-2.431,6.808.468a42,42,0,0,1,3.344,3.3,1.806,1.806,0,0,1,.2,1.589c-.725,1.616-1.566,3.185-2.445,4.726a2.187,2.187,0,0,0,.079,2.419c1.2,2.3,2.728,3.536,5.428,2.674a6.6,6.6,0,0,1,1.561-.076c2.853-.169,2.891-.185,3.868,2.594.638,1.819,1.139,3.685,1.717,5.526a1.461,1.461,0,0,1-.792,1.933c-1.447.833-2.8,1.827-4.26,2.641-.96.535-1.077,1.243-1.19,2.267-.285,2.586.646,4.16,3.154,4.863a11.05,11.05,0,0,1,1.838.869c2.287,1.135,2.347,1.147,1.911,3.606-.355,2-.9,3.963-1.313,5.954a1.522,1.522,0,0,1-1.691,1.422c-1.723.006-3.444.175-5.167.179-.968,0-1.381.48-1.934,1.225-1.714,2.315-1.265,4.181.42,6.353,2.587,3.334,2.47,3.455-.3,6.638-1.027,1.182-2.183,2.249-3.246,3.4a1.363,1.363,0,0,1-1.93.264c-1.59-.9-3.2-1.78-4.863-2.525a2.544,2.544,0,0,0-1.822.08c-2.514,1.071-3.886,2.78-2.934,5.7a6.6,6.6,0,0,1,.079,1.717c.1,2.521.125,2.575-2.2,3.4-1.964.7-3.985,1.225-5.967,1.869a1.438,1.438,0,0,1-1.92-.791c-.927-1.575-1.889-3.135-2.947-4.623a2.485,2.485,0,0,0-1.482-.768c-3-.565-4.555.827-5.654,3.617-1.462,3.714-1.684,3.661-5.617,2.962-1.536-.274-3.032-.769-4.56-1.092a1.6,1.6,0,0,1-1.41-1.75c-.03-1.672-.127-3.344-.11-5.015.011-1.034-.539-1.472-1.326-2.052-2.352-1.732-4.316-1.307-6.328.553a30.066,30.066,0,0,1-3.446,2.364c-2.261-2.1-4.6-4.223-6.857-6.423-.224-.218-.142-.968.043-1.353q1.151-2.4,2.469-4.716a2.293,2.293,0,0,0-.118-2.413c-1.214-2.649-3.054-2.947-5.775-2.7-4.769.434-3.677,1.134-5.371-3.346-.677-1.792-1.78-3.942-1.3-5.5.435-1.41,2.771-2.223,4.249-3.328.648-.484,1.683-.971,1.773-1.572a15.119,15.119,0,0,0-.188-4.2c-.043-.323-.641-.632-1.04-.834-1.63-.827-3.313-1.555-4.905-2.446a1.739,1.739,0,0,1-.767-1.387c.411-2.569.97-5.115,1.466-7.671a1.492,1.492,0,0,1,1.741-1.356c1.67.036,3.344-.092,5.015-.081,1.025.007,1.492-.522,2.047-1.34,1.49-2.195,1.58-4.157-.417-6.049a2.175,2.175,0,0,1-.262-.389c-2.226-3.313-2.249-3.333.369-6.3C47.023,281.933,48.432,280.54,49.871,279.026Zm28.762,6.756a25.631,25.631,0,1,0,25.539,25.746A25.642,25.642,0,0,0,78.633,285.782Z" transform="translate(-35.749 -268.533)" fill="#aee6e6"/>
      <path id="Trazado_104971" data-name="Trazado 104971" d="M85.912,342.32a23.485,23.485,0,1,1,23.522-23.595A23.516,23.516,0,0,1,85.912,342.32ZM67.9,318.812a18.1,18.1,0,1,0,18.481-18A18.258,18.258,0,0,0,67.9,318.812Z" transform="translate(-43.214 -276.026)" fill="#aee6e6"/>
    </g>
  </g>
</svg>
