<svg xmlns="http://www.w3.org/2000/svg" width="344" height="220" viewBox="0 0 344 220">
  <g id="Grupo_62211" data-name="Grupo 62211" transform="translate(-1020 -14156.688)">
    <rect id="Rectángulo_31358" data-name="Rectángulo 31358" width="344" height="220" transform="translate(1020 14156.688)" fill="none"/>
    <g id="Grupo_60723" data-name="Grupo 60723" transform="translate(-4 15.146)">
      <rect id="Rectángulo_31359" data-name="Rectángulo 31359" width="288.61" height="45.68" rx="12.66" transform="translate(1044 14285.542)" fill="#e0e0e0"/>
      <path id="Trazado_133565" data-name="Trazado 133565" d="M-50.087-3.224A2.869,2.869,0,0,0-48.12-3.89a2.334,2.334,0,0,0,.787-1.771h4.1a5.611,5.611,0,0,1-.908,3.05A5.993,5.993,0,0,1-46.583-.462,7.651,7.651,0,0,1-50.012.3a7.11,7.11,0,0,1-5.54-2.233A8.835,8.835,0,0,1-57.58-8.1v-.288a8.734,8.734,0,0,1,2.013-6.04,7.027,7.027,0,0,1,5.525-2.255,6.889,6.889,0,0,1,4.927,1.748,6.19,6.19,0,0,1,1.885,4.655h-4.1a3.006,3.006,0,0,0-.787-2.077,2.624,2.624,0,0,0-2-.8,2.635,2.635,0,0,0-2.308,1.114,6.457,6.457,0,0,0-.78,3.616v.455a6.539,6.539,0,0,0,.772,3.638A2.668,2.668,0,0,0-50.087-3.224Zm19.163,1.559A5.486,5.486,0,0,1-35.4.3a5.174,5.174,0,0,1-4.019-1.514,6.462,6.462,0,0,1-1.415-4.435V-16.378h4.375V-5.785q0,2.561,2.331,2.561A3.159,3.159,0,0,0-31.076-4.77V-16.378h4.39V0H-30.8Zm16.741-10.611a11.885,11.885,0,0,0-1.574-.121q-2.482,0-3.254,1.68V0h-4.375V-16.378h4.132l.121,1.953a4.053,4.053,0,0,1,3.648-2.255,4.584,4.584,0,0,1,1.362.2Zm10.974,7.75A1.409,1.409,0,0,0-4-5.79a9.027,9.027,0,0,0-2.551-.825Q-12.4-7.841-12.4-11.58a4.5,4.5,0,0,1,1.809-3.64,7.3,7.3,0,0,1,4.73-1.461A7.853,7.853,0,0,1-.87-15.212,4.627,4.627,0,0,1,1-11.4H-3.375a2.117,2.117,0,0,0-.605-1.552,2.562,2.562,0,0,0-1.892-.613,2.618,2.618,0,0,0-1.71.5,1.577,1.577,0,0,0-.605,1.271A1.348,1.348,0,0,0-7.5-10.618a7.085,7.085,0,0,0,2.323.772,18.978,18.978,0,0,1,2.755.734q3.466,1.271,3.466,4.4A4.272,4.272,0,0,1-.878-1.082,8.293,8.293,0,0,1-5.843.3,8.661,8.661,0,0,1-9.5-.431,6.133,6.133,0,0,1-12-2.445a4.678,4.678,0,0,1-.908-2.762h4.147A2.284,2.284,0,0,0-7.9-3.421,3.422,3.422,0,0,0-5.752-2.8a3.167,3.167,0,0,0,1.9-.477A1.484,1.484,0,0,0-3.209-4.526ZM3.179-8.34a9.713,9.713,0,0,1,.938-4.344,6.87,6.87,0,0,1,2.7-2.952,7.883,7.883,0,0,1,4.094-1.044,7.458,7.458,0,0,1,5.411,2.028,8.14,8.14,0,0,1,2.339,5.51l.03,1.12a8.56,8.56,0,0,1-2.1,6.047A7.313,7.313,0,0,1,10.944.3,7.35,7.35,0,0,1,5.29-1.968,8.711,8.711,0,0,1,3.179-8.144Zm4.375.311a6.122,6.122,0,0,0,.878,3.57,2.9,2.9,0,0,0,2.513,1.236,2.9,2.9,0,0,0,2.482-1.22,6.7,6.7,0,0,0,.893-3.9,6.061,6.061,0,0,0-.893-3.547,2.9,2.9,0,0,0-2.513-1.258A2.856,2.856,0,0,0,8.431-11.9,6.812,6.812,0,0,0,7.553-8.03Zm22.705,3.5a1.409,1.409,0,0,0-.795-1.264,9.027,9.027,0,0,0-2.551-.825Q21.07-7.841,21.07-11.58a4.5,4.5,0,0,1,1.809-3.64,7.3,7.3,0,0,1,4.73-1.461A7.853,7.853,0,0,1,32.6-15.212,4.627,4.627,0,0,1,34.466-11.4H30.092a2.117,2.117,0,0,0-.605-1.552,2.562,2.562,0,0,0-1.892-.613,2.618,2.618,0,0,0-1.71.5,1.577,1.577,0,0,0-.605,1.271,1.348,1.348,0,0,0,.689,1.173,7.085,7.085,0,0,0,2.323.772,18.978,18.978,0,0,1,2.755.734q3.466,1.271,3.466,4.4a4.272,4.272,0,0,1-1.922,3.625A8.293,8.293,0,0,1,27.625.3a8.661,8.661,0,0,1-3.656-.734,6.133,6.133,0,0,1-2.505-2.013,4.678,4.678,0,0,1-.908-2.762H24.7a2.284,2.284,0,0,0,.863,1.786,3.422,3.422,0,0,0,2.149.621,3.167,3.167,0,0,0,1.9-.477A1.484,1.484,0,0,0,30.258-4.526Zm7.4,2.376a2.2,2.2,0,0,1,.7-1.7A2.5,2.5,0,0,1,40.127-4.5a2.518,2.518,0,0,1,1.779.651,2.2,2.2,0,0,1,.7,1.7,2.172,2.172,0,0,1-.7,1.673,2.528,2.528,0,0,1-1.786.643,2.508,2.508,0,0,1-1.771-.643A2.172,2.172,0,0,1,37.66-2.149Zm7.16,0a2.2,2.2,0,0,1,.7-1.7A2.5,2.5,0,0,1,47.287-4.5a2.518,2.518,0,0,1,1.779.651,2.2,2.2,0,0,1,.7,1.7,2.172,2.172,0,0,1-.7,1.673,2.528,2.528,0,0,1-1.786.643,2.508,2.508,0,0,1-1.771-.643A2.172,2.172,0,0,1,44.82-2.149Zm7.023,0a2.2,2.2,0,0,1,.7-1.7A2.5,2.5,0,0,1,54.311-4.5a2.518,2.518,0,0,1,1.779.651,2.2,2.2,0,0,1,.7,1.7,2.172,2.172,0,0,1-.7,1.673,2.528,2.528,0,0,1-1.786.643A2.508,2.508,0,0,1,52.54-.477,2.172,2.172,0,0,1,51.843-2.149Z" transform="translate(1186 14318.854)" fill="#d6a113"/>
    </g>
    <g id="Grupo_60722" data-name="Grupo 60722" transform="translate(878.765 14117.75)">
      <path id="Trazado_132490" data-name="Trazado 132490" d="M342.91,63.92V198.954l21.75-22.57H467.813V63.92Z" transform="translate(0)" fill="#f5ca56"/>
      <path id="Trazado_132491" data-name="Trazado 132491" d="M466.982,82.2c0,.187-27.536.34-61.491.34S344,82.387,344,82.2s27.525-.34,61.491-.34S466.982,82.024,466.982,82.2Z" transform="translate(0.187 3.072)" fill="#fff"/>
      <path id="Trazado_132492" data-name="Trazado 132492" d="M355.718,75.452A3.1,3.1,0,1,1,352.6,72.36h.012A3.1,3.1,0,0,1,355.718,75.452Z" transform="translate(1.13 1.445)" fill="#fff"/>
      <path id="Trazado_132493" data-name="Trazado 132493" d="M363.538,75.454a3.1,3.1,0,1,1-3.1-3.1h.023A3.1,3.1,0,0,1,363.538,75.454Z" transform="translate(2.47 1.444)" fill="#fff"/>
      <path id="Trazado_132494" data-name="Trazado 132494" d="M371.344,75.452a3.092,3.092,0,1,1-3.092-3.092A3.092,3.092,0,0,1,371.344,75.452Z" transform="translate(3.81 1.445)" fill="#fff"/>
      <path id="Trazado_132495" data-name="Trazado 132495" d="M383.721,126.575H375.44l-1.534,3.795H368.26l8.632-19.56h5.458l8.667,19.56h-5.763Zm-1.628-4.088-2.518-6.255-2.506,6.255Z" transform="translate(4.341 8.03)" fill="#fff"/>
      <path id="Trazado_132496" data-name="Trazado 132496" d="M389,110.81h9.253c6.489,0,10.928,3.771,10.928,9.78s-4.439,9.78-10.928,9.78H389Zm9.03,15.144c3.326,0,5.564-1.979,5.564-5.364s-2.237-5.364-5.564-5.364h-3.514v10.729Z" transform="translate(7.893 8.03)" fill="#fff"/>
      <path id="Trazado_132497" data-name="Trazado 132497" d="M407.56,128.662l1.815-4.088a12.336,12.336,0,0,0,6.465,1.933c2.284,0,3.186-.644,3.186-1.593,0-3.1-11.127-.832-11.127-8.105,0-3.514,2.846-6.348,8.667-6.348a14.594,14.594,0,0,1,7.1,1.71l-1.71,4.111a11.532,11.532,0,0,0-5.423-1.511c-2.343,0-3.151.785-3.151,1.757,0,3,11.092.761,11.092,7.965,0,3.408-2.846,6.325-8.667,6.325A15.406,15.406,0,0,1,407.56,128.662Z" transform="translate(11.072 7.97)" fill="#fff"/>
    </g>
    <g id="Grupo_60725" data-name="Grupo 60725">
      <g id="Grupo_60724" data-name="Grupo 60724" transform="translate(1044.684 13878.572)">
        <rect id="Rectángulo_31360" data-name="Rectángulo 31360" width="104.208" height="93.822" transform="translate(30.78 308.06)" fill="#aee6e6"/>
        <rect id="Rectángulo_31361" data-name="Rectángulo 31361" width="77.028" height="28.696" rx="7.53" transform="translate(44.376 348.034)" fill="#fff"/>
        <path id="Trazado_132498" data-name="Trazado 132498" d="M134.3,324.029c0,.156-22.968.279-51.263.279s-51.263-.123-51.263-.279,22.968-.279,51.263-.279S134.3,323.917,134.3,324.029Z" transform="translate(0.113 1.795)" fill="#fff"/>
        <path id="Trazado_132499" data-name="Trazado 132499" d="M41.751,318.035a2.585,2.585,0,1,1-2.585-2.585,2.586,2.586,0,0,1,2.585,2.585Z" transform="translate(0.664 0.845)" fill="#fff"/>
        <path id="Trazado_132500" data-name="Trazado 132500" d="M48.6,318.035a2.585,2.585,0,1,1-2.585-2.585h.011a2.574,2.574,0,0,1,2.574,2.574Z" transform="translate(1.447 0.845)" fill="#fff"/>
        <path id="Trazado_132501" data-name="Trazado 132501" d="M55.461,318.035a2.585,2.585,0,1,1-2.585-2.585,2.586,2.586,0,0,1,2.585,2.585Z" transform="translate(2.232 0.845)" fill="#fff"/>
      </g>
    </g>
  </g>
</svg>
