<svg xmlns="http://www.w3.org/2000/svg" width="273.329" height="188.04" viewBox="0 0 273.329 188.04">
  <g id="Grupo_60733" data-name="Grupo 60733" transform="translate(23.056 -21.58)">
    <g id="Grupo_60730" data-name="Grupo 60730" transform="translate(-10.445 144.515)">
      <rect id="Rectángulo_31362" data-name="Rectángulo 31362" width="39.228" height="35.318" transform="translate(0)" fill="rgba(125,110,178,0.6)"/>
      <rect id="Rectángulo_31363" data-name="Rectángulo 31363" width="28.996" height="10.802" rx="5.401" transform="translate(5.118 15.048)" fill="#e0e0e0"/>
      <path id="Trazado_132502" data-name="Trazado 132502" d="M70.365,323.855c0,.059-8.646.1-19.3.1s-19.3-.046-19.3-.1,8.646-.1,19.3-.1S70.365,323.813,70.365,323.855Z" transform="translate(-31.355 -317.168)" fill="#e0e0e0"/>
      <path id="Trazado_132503" data-name="Trazado 132503" d="M38.527,316.423a.973.973,0,1,1-.973-.973.973.973,0,0,1,.973.973Z" transform="translate(-34.147 -312.35)" fill="#e0e0e0"/>
      <path id="Trazado_132504" data-name="Trazado 132504" d="M45.377,316.423a.973.973,0,1,1-.973-.973h0a.969.969,0,0,1,.969.969Z" transform="translate(-38.123 -312.35)" fill="#e0e0e0"/>
      <path id="Trazado_132505" data-name="Trazado 132505" d="M52.237,316.423a.973.973,0,1,1-.973-.973.973.973,0,0,1,.973.973Z" transform="translate(-42.105 -312.35)" fill="#e0e0e0"/>
    </g>
    <rect id="Rectángulo_31364" data-name="Rectángulo 31364" width="51.436" height="19.163" rx="9.582" transform="translate(28.783 39.421)" fill="#e0e0e0"/>
    <path id="Trazado_132514" data-name="Trazado 132514" d="M424.412,359.468a9.858,9.858,0,1,1-4.456-13.211l.026.013A9.846,9.846,0,0,1,424.412,359.468Z" transform="translate(-223.942 -187.877)" fill="#f5f5f5"/>
    <path id="Trazado_132515" data-name="Trazado 132515" d="M425.576,361.643a7.513,7.513,0,1,1-3.372-10.076l.016.008A7.5,7.5,0,0,1,425.576,361.643Z" transform="translate(-227.203 -191.096)" fill="#ebebeb"/>
    <path id="Trazado_132516" data-name="Trazado 132516" d="M426.637,361.042a4.591,4.591,0,0,1,.227-.894,7.8,7.8,0,0,0-.025-4.115,7.55,7.55,0,0,0-.772-1.77,7.1,7.1,0,0,0-1.342-1.644,6.884,6.884,0,0,0-.885-.7,7.654,7.654,0,0,0-1.011-.566,7.755,7.755,0,0,0-1.087-.42,7.419,7.419,0,0,0-1.1-.218,6.82,6.82,0,0,0-1.087-.05,6.976,6.976,0,0,0-1.04.1,7.538,7.538,0,0,0-4.984,3.222c-.336.482-.5.772-.537.755a2.221,2.221,0,0,1,.344-.873,7,7,0,0,1,1.628-1.984,7.551,7.551,0,0,1,3.453-1.64,7.448,7.448,0,0,1,1.116-.13,7.321,7.321,0,0,1,1.17.038,7.471,7.471,0,0,1,1.191.231,8.59,8.59,0,0,1,1.175.419,7.889,7.889,0,0,1,1.091.617,7.683,7.683,0,0,1,.952.755,7.263,7.263,0,0,1,.789.864,6.943,6.943,0,0,1,.625.931,7.586,7.586,0,0,1,.772,1.913,7.458,7.458,0,0,1,.227,1.779,6.959,6.959,0,0,1-.445,2.517C426.859,360.782,426.67,361.059,426.637,361.042Z" transform="translate(-228.163 -190.71)" fill="#e0e0e0"/>
    <path id="Trazado_132517" data-name="Trazado 132517" d="M421.755,366.427l-.571,1.2-1.049-.508.55-1.149a5.526,5.526,0,0,1-2.215-2.1l1.2-1.007a4.726,4.726,0,0,0,1.678,1.728l.839-1.758c-1.032-.839-2.152-1.863-1.426-3.356.537-1.116,1.808-1.678,3.562-1.074l.566-1.166,1.053.5-.533,1.116a5.321,5.321,0,0,1,1.829,1.678l-1.149,1.045a4.762,4.762,0,0,0-1.351-1.326l-.86,1.791c1.036.839,2.135,1.842,1.422,3.327C424.758,366.461,423.5,367.023,421.755,366.427Zm1.183-5.16.722-1.493c-.621-.143-.986.059-1.154.419s.042.722.432,1.074Zm.592,3.411c.176-.369-.029-.717-.419-1.091l-.7,1.451c.6.138.957-.025,1.12-.348Z" transform="translate(-231.344 -194.849)" fill="#e0e0e0"/>
    <g id="freepik--Desk--inject-20" transform="translate(25.519 209.401)">
      <path id="Trazado_132518" data-name="Trazado 132518" d="M215.1,469.409c0,.059-40.713.109-90.928.109s-90.936-.05-90.936-.109,40.692-.109,90.936-.109S215.1,469.346,215.1,469.409Z" transform="translate(-33.24 -469.3)" fill="#263238"/>
    </g>
    <g id="freepik--Character--inject-20" transform="translate(49.161 73.937)">
      <path id="Trazado_132519" data-name="Trazado 132519" d="M226.783,160.484l.94.034a18.19,18.19,0,0,1,17.527,17.355c.394,8.818.713,18.563.487,23.278-.47,9.741-10.286,10.907-10.286,10.907-.013.3.042,2.727.117,5.634.159,6.133-1.913,14.737-10.869,16.046h0c-10.379.73-11.96-8.889-12.12-15.463l-.952-38.645C211.119,169.466,216.614,160.7,226.783,160.484Z" transform="translate(-160.415 -154.57)" fill="#ffbe9d"/>
      <path id="Trazado_132520" data-name="Trazado 132520" d="M251.076,280.136c-9.77.529-12.615-6.712-12.615-6.712a23.691,23.691,0,0,0,12.585,4.2Z" transform="translate(-176.011 -220.131)" fill="#eb996e"/>
      <path id="Trazado_132521" data-name="Trazado 132521" d="M243.684,209.827a3.931,3.931,0,0,0-2.366-.763,4.1,4.1,0,0,0-2.4.776c-.516.382-.7.747-.617.839.18.18,1.363-.642,3-.659s2.79.847,2.974.642C244.356,210.57,244.184,210.2,243.684,209.827Z" transform="translate(-175.906 -182.77)" fill="#263238"/>
      <path id="Trazado_132522" data-name="Trazado 132522" d="M249.655,219.971a1.259,1.259,0,0,0-1.316-1.2,1.318,1.318,0,0,0-1.317,1.284v.039a1.258,1.258,0,0,0,1.316,1.2,1.317,1.317,0,0,0,1.317-1.284C249.656,220,249.655,219.984,249.655,219.971Z" transform="translate(-180.98 -188.405)" fill="#263238"/>
      <path id="Trazado_132523" data-name="Trazado 132523" d="M265.412,222.339a2.505,2.505,0,0,0,.654-.067.968.968,0,0,0,.65-.537,2.227,2.227,0,0,0-.143-1.51q-.466-1.422-.982-2.974c-1.422-4.208-2.718-7.572-2.886-7.518s.847,3.524,2.27,7.719c.361,1.011.7,2,1.028,2.937a1.964,1.964,0,0,1,.218,1.145c-.088.256-.453.319-.839.344a10.309,10.309,0,0,0-2.45.352A10.561,10.561,0,0,0,265.412,222.339Z" transform="translate(-190.074 -183.158)" fill="#263238"/>
      <path id="Trazado_132524" data-name="Trazado 132524" d="M241.19,196.066a5.126,5.126,0,0,0-4.6.357c-.52.336-.751.675-.663.839.193.34,1.468-.05,3.025-.189s2.874.088,3.016-.281C242.029,196.616,241.753,196.314,241.19,196.066Z" transform="translate(-174.528 -174.999)" fill="#263238"/>
      <path id="Trazado_132525" data-name="Trazado 132525" d="M279,196.837a5.606,5.606,0,0,0-2.286-.474,5.378,5.378,0,0,0-2.265.461c-.529.252-.772.529-.7.671.176.3,1.443.055,2.987.046s2.827.273,2.987-.029C279.8,197.353,279.537,197.093,279,196.837Z" transform="translate(-196.489 -175.397)" fill="#263238"/>
      <path id="Trazado_132526" data-name="Trazado 132526" d="M203.793,232.475c-.029.193-6.737,1.544-6.712-5.135s6.494-4.535,6.662-4.455C203.743,222.885,203.822,232.282,203.793,232.475Z" transform="translate(-151.99 -190.567)" fill="#ffbe9d"/>
      <path id="Trazado_132527" data-name="Trazado 132527" d="M203.843,233.177a1.258,1.258,0,0,1-1.066.172,3.029,3.029,0,0,1-1.678-2.89,3.946,3.946,0,0,1,.42-1.863,1.641,1.641,0,0,1,1.221-1.032.865.865,0,0,1,.642.176.719.719,0,0,1,.26.42c.055.273-.059.4-.092.386s.008-.147-.08-.331a.591.591,0,0,0-.684-.323,1.352,1.352,0,0,0-.881.889,3.863,3.863,0,0,0-.331,1.678,2.88,2.88,0,0,0,1.321,2.588,1.175,1.175,0,0,0,.873,0c.193-.092.281-.172.31-.172S204.065,233.039,203.843,233.177Z" transform="translate(-154.322 -193.505)" fill="#eb996e"/>
      <path id="Trazado_132528" data-name="Trazado 132528" d="M189.935,169.865a1.09,1.09,0,0,0,1.158.453,3.155,3.155,0,0,0,1.175-.587q-.39,1.053-.784,2.1a6.016,6.016,0,0,0,2.794-.289,62.616,62.616,0,0,0,2.1,6.855,3.971,3.971,0,0,1,2.752.571c.931.776,1.389,2.286,2.865,1.653.751-.323,1.389-1.951,1.615-2.735a38.006,38.006,0,0,0,1.049-16.126,12.225,12.225,0,0,1,3.666-2.857l-.113.109c2.685-1.045,5.722-2.089,8.348-.91,2.039.919,3.289,2.949,4.845,4.552a15.29,15.29,0,0,0,11.071,4.615c.222,2.731.394,12.262.642,14.993l1.9-10.123h0c.176-.327.319-.654.457-.986l2.345-4.858-3.276-8.973a32.869,32.869,0,0,0-3.557-4c-3.075-2.932-5.563-4.912-8.109-5.827a22.566,22.566,0,0,0-12.09-.5c-3.348,1.015-5.63,3.067-5.974,6.553a6.466,6.466,0,0,0-7.211-.214c-2.538,1.011-4.485,4.38-5.147,7.031s-.881,5.47-2.186,7.874C189.994,168.736,189.671,169.336,189.935,169.865Z" transform="translate(-147.785 -146.386)" fill="#263238"/>
      <path id="Trazado_132529" data-name="Trazado 132529" d="M211.441,168.618a6.874,6.874,0,0,0-1.464,3.314,12.2,12.2,0,0,0-.189,2.517c.021.91.122,1.871.222,2.878a25.553,25.553,0,0,1,.176,3.163,11.085,11.085,0,0,1-.155,1.653,3.3,3.3,0,0,1-.579,1.552,1.258,1.258,0,0,1-1.149.42,1.975,1.975,0,0,1-1.128-.583,4.943,4.943,0,0,1-.982-2.332l-.076-.336-.13.319a8.043,8.043,0,0,1-1.066,2.035,2.7,2.7,0,0,1-1.72,1.045,1.678,1.678,0,0,1-.915-.113,1.477,1.477,0,0,1-.638-.571,1.259,1.259,0,0,1,0-1.447l-.109-.088a6.5,6.5,0,0,1-1.959,1.678c-.26.147-.474.239-.617.306a.86.86,0,0,0-.214.1,1.372,1.372,0,0,0,.231-.067,5.844,5.844,0,0,0,.638-.277,6.2,6.2,0,0,0,2.03-1.644l-.1-.088a1.2,1.2,0,0,0-.285.768,1.68,1.68,0,0,0,.239.839,1.6,1.6,0,0,0,.7.646,1.87,1.87,0,0,0,1.011.138,2.908,2.908,0,0,0,1.854-1.1,8.343,8.343,0,0,0,1.107-2.1l-.206-.021A5.064,5.064,0,0,0,207,183.665a2.19,2.19,0,0,0,1.259.65,1.464,1.464,0,0,0,1.355-.512,3.509,3.509,0,0,0,.625-1.657,10.615,10.615,0,0,0,.155-1.678,25.791,25.791,0,0,0-.189-3.188c-.1-1.007-.214-1.963-.243-2.861a12.581,12.581,0,0,1,.155-2.479,6.946,6.946,0,0,1,1.376-3.285,8.111,8.111,0,0,1,.944-.931A3.945,3.945,0,0,0,211.441,168.618Z" transform="translate(-152.959 -158.772)" fill="#455a64"/>
      <path id="Trazado_132530" data-name="Trazado 132530" d="M279.124,209.977a3.963,3.963,0,0,0-2.37-.764,4.091,4.091,0,0,0-2.4.776c-.516.382-.7.747-.617.839.18.18,1.363-.642,3-.659s2.79.847,2.974.642C279.8,210.724,279.628,210.355,279.124,209.977Z" transform="translate(-196.479 -182.857)" fill="#263238"/>
      <path id="Trazado_132531" data-name="Trazado 132531" d="M282.025,218.8a1.259,1.259,0,0,0-1.316-1.2,1.318,1.318,0,0,0-1.317,1.284v.035a1.258,1.258,0,0,0,1.312,1.2,1.321,1.321,0,0,0,1.321-1.284C282.026,218.827,282.025,218.814,282.025,218.8Z" transform="translate(-199.77 -187.725)" fill="#263238"/>
      <path id="Trazado_132532" data-name="Trazado 132532" d="M291.191,170.352a36.7,36.7,0,0,0,1.418,8.915,3.291,3.291,0,0,0,1.229,2.068,2.942,2.942,0,0,0,2.685-.117,8.359,8.359,0,0,0,4.8-6.83c-1.691.667-3.134,1.124-4.757.306a8.805,8.805,0,0,0,1-1.082c.323-.461.39-2.093-.1-2.37a10.282,10.282,0,0,1-1.439.461,4.15,4.15,0,0,1-3.515-1.858Z" transform="translate(-206.62 -160.003)" fill="#263238"/>
      <path id="Trazado_132533" data-name="Trazado 132533" d="M255.734,246.071c.55.68.235,2.723-.558,3.088a1.758,1.758,0,0,1-2.211-.839,2.123,2.123,0,0,1,.466-2.4,1.5,1.5,0,0,1,1.17-.273,1.346,1.346,0,0,1,1.166.7" transform="translate(-184.323 -204.008)" fill="#eb996e"/>
      <path id="Trazado_132534" data-name="Trazado 132534" d="M255.8,247.76a1.137,1.137,0,0,1-.088.31,1.438,1.438,0,0,1-.839.839,2.163,2.163,0,0,1-1.741-.164,1.842,1.842,0,0,1,.894-3.335,1.753,1.753,0,0,1,1.586.7,1.63,1.63,0,0,1,.3,1.137,1.433,1.433,0,0,1-.063.315c-.025.071-.025.1-.046.1s.025-.151.025-.42a1.645,1.645,0,0,0-.336-1.04,1.624,1.624,0,0,0-1.443-.591,1.653,1.653,0,0,0-.81,2.966,2.034,2.034,0,0,0,1.582.189,1.382,1.382,0,0,0,.81-.717,3.457,3.457,0,0,1,.172-.382Z" transform="translate(-184.075 -203.864)" fill="#263238"/>
      <path id="Trazado_132535" data-name="Trazado 132535" d="M231.222,163.181c.038-.071.088-.159.147-.273a4.98,4.98,0,0,1,.743-.935,6.5,6.5,0,0,1,3.96-1.775,8.107,8.107,0,0,1,3.025.331,11.844,11.844,0,0,1,3.146,1.506,38,38,0,0,1,5.848,5.407,26.717,26.717,0,0,0,3.058,2.731,12.23,12.23,0,0,0,3.356,1.8,11.107,11.107,0,0,0,6.355.147,11.273,11.273,0,0,0,3.893-1.9l.529-.419c.151-.126.268-.252.369-.344l.227-.21.084-.067s-.021.034-.067.084l-.214.227c-.1.1-.206.227-.357.357l-.529.445a10.971,10.971,0,0,1-3.906,1.98,11.181,11.181,0,0,1-6.46-.1,12.325,12.325,0,0,1-3.4-1.821,25.8,25.8,0,0,1-3.088-2.752,38.077,38.077,0,0,0-5.8-5.391,11.887,11.887,0,0,0-3.088-1.5,7.976,7.976,0,0,0-2.957-.348,6.5,6.5,0,0,0-3.918,1.678,6.165,6.165,0,0,0-.99,1.259S231.184,163.252,231.222,163.181Z" transform="translate(-171.788 -154.389)" fill="#455a64"/>
      <path id="Trazado_132536" data-name="Trazado 132536" d="M232.958,293.842l-1.489,6.079-6.729,6.125-10.7.214-11.029-7.035-.642-11.88,4.879-1.33,22.888,1.414,3.7.734Z" transform="translate(-155.061 -227.439)" fill="#ffbe9d"/>
      <path id="Trazado_132537" data-name="Trazado 132537" d="M109.771,323.1l21.235,8.516.8-1.288.268,18.924-.357,12.342,63.8.143-.445-10.8,1.313-18.907,21-6.066s-2.307-5.751-7.551-17c-5.508-11.809-10.24-13.445-10.941-13.718l-20.409-8.143s-2.362,16.516-14.49,16.516S150.954,286,150.954,286l-17.619,4.778A19.62,19.62,0,0,0,122.05,299a72.1,72.1,0,0,0-4.4,7.862C112.506,317.5,109.771,323.1,109.771,323.1Z" transform="translate(-101.307 -227.433)" fill="#f5ca56"/>
      <path id="Trazado_132538" data-name="Trazado 132538" d="M161.945,378.217c.164,8.432.218,15.27.126,15.27s-.285-6.821-.449-15.253-.222-15.27-.126-15.27C161.572,362.964,161.782,369.785,161.945,378.217Z" transform="translate(-131.306 -272.108)" fill="#263238"/>
      <path id="Trazado_132539" data-name="Trazado 132539" d="M319.115,354.454c-.109.537-.239,1.2-.394,1.972-.344,1.661-.8,3.952-1.259,6.5s-.831,4.854-1.091,6.532c-.126.78-.231,1.443-.315,1.984a2.915,2.915,0,0,1-.159.722,3.292,3.292,0,0,1,.025-.738c.038-.474.113-1.162.214-2,.2-1.682.529-4.006.99-6.557s.956-4.841,1.355-6.494c.2-.822.373-1.489.5-1.947a3,3,0,0,1,.235-.7A3.271,3.271,0,0,1,319.115,354.454Z" transform="translate(-220.956 -266.744)" fill="#263238"/>
      <path id="Trazado_132540" data-name="Trazado 132540" d="M306.3,387.308l7.069,13.365-18.655,4.5,1.074,11.184,24.516,1.422a12.509,12.509,0,0,0,12.493-11.9h0a12.514,12.514,0,0,0-1.3-6.184l-8.55-17.162Z" transform="translate(-208.664 -283.468)" fill="#ffbe9d"/>
      <path id="Trazado_132541" data-name="Trazado 132541" d="M339.743,425.118a10,10,0,0,1,1.619-.193,14.9,14.9,0,0,1,5.311.81,14.032,14.032,0,0,1,4.69,2.63,8.269,8.269,0,0,1,1.116,1.2c.222.315.369.474.31.516s-.562-.642-1.619-1.481a15.743,15.743,0,0,0-4.615-2.458,16.965,16.965,0,0,0-5.172-.915c-1.363-.008-2.2.134-2.2.055A1.778,1.778,0,0,1,339.743,425.118Z" transform="translate(-234.478 -308.072)" fill="#eb996e"/>
      <path id="Trazado_132542" data-name="Trazado 132542" d="M323.74,397.73c1.233,2.24,2.467,3.922,2.387,3.981a4.678,4.678,0,0,1-.9-1.036,24.391,24.391,0,0,1-1.783-2.781,24.723,24.723,0,0,1-1.405-2.987,4.739,4.739,0,0,1-.42-1.313C321.713,393.56,322.506,395.49,323.74,397.73Z" transform="translate(-224.285 -289.888)" fill="#eb996e"/>
      <path id="Trazado_132543" data-name="Trazado 132543" d="M90.218,407.513c-1.649-4.791.285-7.291,2.177-12.556l8.147-18.123,16.688,6.712L111.047,396.5l16.671,7.043v10.865H98.932C94.615,414.413,91.074,410,90.218,407.513Z" transform="translate(-89.595 -280.159)" fill="#ffbe9d"/>
      <path id="Trazado_132544" data-name="Trazado 132544" d="M267.229,440.34l-3.776.378a16.282,16.282,0,0,1-3.356,1.552c-1.921.638-2.945.059-5.185-1.523-1.59-1.12-4.048-.419-4.048-.419a54.349,54.349,0,0,1-7.4,2.806c-1.233.273-1.548-.365-1.477-.986a2.136,2.136,0,0,1,1.158-1.607c1.993-1.049,7.618-3.981,8.428-4.04h0a1.514,1.514,0,0,0-1.4-.965,31.5,31.5,0,0,0-4.443.227c-1.368.227-3.373,2.278-4.3,3.3a1.2,1.2,0,0,1-1.259.331h0a1.2,1.2,0,0,1-.839-1.078l-.025-.449a1.207,1.207,0,0,1,.151-.659l.277-.491a1.057,1.057,0,0,1-1.967-.457,2.663,2.663,0,0,1,.113-.877l.063-.218-.151-.063a1.578,1.578,0,0,1-.877-2h0a.939.939,0,0,1,.348-.445c1.439-.965,8.784-5.844,10.79-6.179,2.228-.373,13.055,3.541,13.055,3.541h4.8C270.794,431.392,267.229,440.34,267.229,440.34Z" transform="translate(-175.052 -308.964)" fill="#ffbe9d"/>
      <path id="Trazado_132545" data-name="Trazado 132545" d="M254.929,438.541a8.649,8.649,0,0,0-1.493-.256,10.183,10.183,0,0,0-8.877,3.776,9.29,9.29,0,0,0-.839,1.259,2.277,2.277,0,0,0-.239.5,19.983,19.983,0,0,1,1.2-1.678,10.488,10.488,0,0,1,8.751-3.738c1.267.084,2.035.327,2.035.285A2.4,2.4,0,0,0,254.929,438.541Z" transform="translate(-178.925 -315.807)" fill="#eb996e"/>
      <path id="Trazado_132546" data-name="Trazado 132546" d="M251.9,432.263a3.627,3.627,0,0,0-.419-.155,5.976,5.976,0,0,0-1.573-.289,9.007,9.007,0,0,0-5.034,1.363,18.365,18.365,0,0,0-3.973,3.436c-.449.5-.8.915-1.04,1.2a3.692,3.692,0,0,0-.357.461,3.05,3.05,0,0,0,.42-.419l1.091-1.154a19.74,19.74,0,0,1,3.969-3.356,9.235,9.235,0,0,1,4.917-1.393,8.993,8.993,0,0,1,2.118.369C252.019,432.322,251.973,432.3,251.9,432.263Z" transform="translate(-176.614 -312.075)" fill="#eb996e"/>
      <path id="Trazado_132547" data-name="Trazado 132547" d="M158.812,441.11l3.776.378a16.176,16.176,0,0,0,3.356,1.552c1.921.638,2.945.059,5.185-1.523,1.59-1.124,4.048-.42,4.048-.42a54.356,54.356,0,0,0,7.4,2.806c1.233.289,1.548-.365,1.477-.99a2.131,2.131,0,0,0-1.158-1.6c-1.993-1.049-7.618-3.985-8.428-4.04h0a1.515,1.515,0,0,1,1.4-.965,32.2,32.2,0,0,1,4.447.222c1.368.227,3.373,2.278,4.3,3.306a1.2,1.2,0,0,0,1.259.327h0a1.19,1.19,0,0,0,.839-1.078l.025-.445a1.256,1.256,0,0,0-.151-.659l-.277-.491a1.057,1.057,0,0,0,1.967-.457,2.617,2.617,0,0,0-.113-.877l-.063-.218.151-.063a1.581,1.581,0,0,0,.877-2h0a.933.933,0,0,0-.348-.445c-1.439-.965-8.784-5.844-10.79-6.179-2.228-.373-13.055,3.541-13.055,3.541h-4.8C155.242,432.174,158.812,441.11,158.812,441.11Z" transform="translate(-129.046 -309.411)" fill="#ffbe9d"/>
      <path id="Trazado_132548" data-name="Trazado 132548" d="M198.369,439.357a9.183,9.183,0,0,1,1.493-.252,10.182,10.182,0,0,1,8.877,3.776,9.2,9.2,0,0,1,.839,1.259,2.4,2.4,0,0,1,.239.5,12.6,12.6,0,0,0-1.2-1.678,10.487,10.487,0,0,0-8.768-3.738c-1.267.08-2.035.323-2.035.281A2.707,2.707,0,0,1,198.369,439.357Z" transform="translate(-152.414 -316.283)" fill="#eb996e"/>
      <path id="Trazado_132549" data-name="Trazado 132549" d="M200.67,433.083a2.993,2.993,0,0,1,.42-.155,5.945,5.945,0,0,1,1.569-.289A9.013,9.013,0,0,1,207.693,434a18.219,18.219,0,0,1,3.969,3.436c.453.5.805.914,1.045,1.2a3.447,3.447,0,0,1,.357.466,3.1,3.1,0,0,1-.42-.419l-1.091-1.158a19.832,19.832,0,0,0-3.969-3.356,9.269,9.269,0,0,0-4.925-1.4,9,9,0,0,0-2.1.369A.436.436,0,0,1,200.67,433.083Z" transform="translate(-154.01 -312.551)" fill="#eb996e"/>
      <path id="Trazado_132550" data-name="Trazado 132550" d="M110.513,421.991a5.1,5.1,0,0,1,.537-.348,5.784,5.784,0,0,1,.747-.42,8.818,8.818,0,0,1,.944-.419c.34-.147.722-.252,1.12-.378a12.7,12.7,0,0,1,5.37-.306,11.623,11.623,0,0,1,1.154.243,9.146,9.146,0,0,1,.986.3,7.823,7.823,0,0,1,.784.315,4.048,4.048,0,0,1,.575.281,2.248,2.248,0,0,1,.47.281c-.021.038-.7-.344-1.879-.73a9.275,9.275,0,0,0-.977-.273c-.352-.1-.722-.151-1.141-.222a13.3,13.3,0,0,0-5.29.306c-.394.113-.759.231-1.108.348s-.659.256-.94.382c-1.133.524-1.758.982-1.783.944A2.43,2.43,0,0,1,110.513,421.991Z" transform="translate(-101.487 -305.197)" fill="#eb996e"/>
      <path id="Trazado_132551" data-name="Trazado 132551" d="M158.376,400.767,156.7,359.508q0-.064,0-.128a3.184,3.184,0,0,1,3.182-3.186h63.429c.047,0,.095,0,.142,0a3.18,3.18,0,0,1,3.034,3.319l-1.8,41.258a3.179,3.179,0,0,1-3.176,3.046H161.56A3.18,3.18,0,0,1,158.376,400.767Z" transform="translate(-128.546 -268.178)" fill="#e0e0e0"/>
      <path id="Trazado_132552" data-name="Trazado 132552" d="M161.253,403.355a3,3,0,0,1-.42-.042,3.151,3.151,0,0,1-1.531-.738,3.245,3.245,0,0,1-1.107-2.483q-.071-1.632-.164-3.776c-.243-5.73-.6-13.978-1.019-24.189q-.159-3.821-.336-8.017-.088-2.089-.176-4.266c-.029-.365-.029-.717-.029-1.1a3.323,3.323,0,0,1,.26-1.095,3.223,3.223,0,0,1,1.54-1.64,3.291,3.291,0,0,1,1.108-.331c.394-.021.768-.021,1.154-.021h62.347a3.678,3.678,0,0,1,1.468.227,3.292,3.292,0,0,1,1.967,2.123,3.634,3.634,0,0,1,.13.734,6.836,6.836,0,0,1,0,.73l-.063,1.435c-.042.956-.08,1.909-.122,2.857q-.252,5.7-.491,11.209c-.323,7.346-.633,14.435-.931,21.189q-.059,1.259-.109,2.517c-.021.419-.038.839-.059,1.258a4.552,4.552,0,0,1-.159,1.259,3.284,3.284,0,0,1-2.739,2.29c-.42.025-.8.025-1.217.025H194.533l-24.21-.034h-6.582l6.582-.021,24.21-.034h26.039c.4,0,.81.017,1.191-.025a3.051,3.051,0,0,0,1.112-.357,3.093,3.093,0,0,0,1.464-1.8,4.322,4.322,0,0,0,.151-1.2c.021-.419.055-.839.055-1.258.038-.839.071-1.678.109-2.517.294-6.754.6-13.839.919-21.189q.244-5.512.487-11.209l.126-2.857c.021-.478.038-.956.059-1.435v-.709a3.414,3.414,0,0,0-.126-.684,3.079,3.079,0,0,0-1.837-1.984,3.435,3.435,0,0,0-1.389-.21H160.544c-.382,0-.772-.029-1.133,0a3.173,3.173,0,0,0-1.049.315,3.053,3.053,0,0,0-1.456,1.544,3.1,3.1,0,0,0-.248,1.036c-.013.352.029.726.029,1.087.055,1.447.113,2.869.168,4.262q.168,4.183.319,8.017c.4,10.215.726,18.479.952,24.193q.084,2.148.147,3.8a3.189,3.189,0,0,0,1.07,2.454,3.121,3.121,0,0,0,1.506.747,5.714,5.714,0,0,0,.579.067Z" transform="translate(-128.416 -267.864)" fill="#263238"/>
      <path id="Trazado_132553" data-name="Trazado 132553" d="M235.346,406.894h0a3.285,3.285,0,1,1-3.285,3.285A3.285,3.285,0,0,1,235.346,406.894Z" transform="translate(-172.296 -297.609)" fill="#fff"/>
    </g>
    <g id="freepik--ad-3--inject-20" transform="translate(161.477 88.902)">
      <path id="Trazado_132554" data-name="Trazado 132554" d="M408.446,200.6H326.92l.416,57.115h8.907v13.2l12.062-13.2h60.556Z" transform="translate(-326.791 -195.331)" fill="#fff"/>
      <path id="Trazado_132555" data-name="Trazado 132555" d="M408.345,200.5v1.007c0,.669,0,1.687.034,2.98,0,2.626.062,6.484.112,11.432.084,9.925.208,24.214.366,41.685v.118h-.118l-60.506.028.1-.045-12.056,13.209-.253.276v-13.58l.146.146h-9.081v-.146c-.141-20.57-.276-39.959-.4-57.109v-.135h.129l59,.068,16.639.034H402.4l-16.667.034-58.914.067.135-.135c.129,17.151.276,36.551.427,57.109l-.146-.141h9.053v13.35l-.253-.1L348.1,257.519l.039-.045h60.652l-.112.118c-.1-17.432-.186-31.709-.242-41.612-.028-4.96-.045-8.828-.056-11.46v-3C408.379,200.831,408.345,200.5,408.345,200.5Z" transform="translate(-326.69 -195.23)" fill="#263238"/>
      <path id="Trazado_132556" data-name="Trazado 132556" d="M408.353,214.829c0,.068-18.062.129-40.341.129s-40.352-.062-40.352-.129,18.062-.129,40.352-.129S408.353,214.756,408.353,214.829Z" transform="translate(-327.115 -201.502)" fill="#263238"/>
      <ellipse id="Elipse_4555" data-name="Elipse 4555" cx="1.08" cy="1.181" rx="1.08" ry="1.181" transform="translate(2.812 8.947)" fill="#e0e0e0"/>
      <ellipse id="Elipse_4556" data-name="Elipse 4556" cx="1.08" cy="1.181" rx="1.08" ry="1.181" transform="translate(6.006 8.947)" fill="#e0e0e0"/>
      <ellipse id="Elipse_4557" data-name="Elipse 4557" cx="1.08" cy="1.181" rx="1.08" ry="1.181" transform="translate(9.194 8.947)" fill="#e0e0e0"/>
      <circle id="Elipse_4558" data-name="Elipse 4558" cx="11.499" cy="11.499" r="11.499" transform="translate(30.517 22.307)" fill="#f5ca56"/>
      <path id="Trazado_132557" data-name="Trazado 132557" d="M396.48,251.715v-6.782a.433.433,0,0,1,.647-.377l6.062,3.419a.433.433,0,0,1,0,.754l-6.067,3.374a.428.428,0,0,1-.641-.388Z" transform="translate(-357.235 -214.545)" fill="#fff"/>
      <rect id="Rectángulo_31365" data-name="Rectángulo 31365" width="70.397" height="0.349" transform="translate(5.528 55.13)" fill="#263238"/>
      <rect id="Rectángulo_31366" data-name="Rectángulo 31366" width="21.998" height="0.933" transform="translate(5.471 54.748)" fill="#f5ca56"/>
      <ellipse id="Elipse_4559" data-name="Elipse 4559" cx="1.068" cy="1.17" rx="1.068" ry="1.17" transform="translate(26.041 54.135)" fill="#f5ca56"/>
      <circle id="Elipse_4560" data-name="Elipse 4560" cx="7.76" cy="7.76" r="7.76" transform="translate(73.276)" fill="#f5ca56"/>
      <rect id="Rectángulo_31367" data-name="Rectángulo 31367" width="6.995" height="1.563" transform="translate(78.009 9.683) rotate(-45)" fill="#fff"/>
      <rect id="Rectángulo_31368" data-name="Rectángulo 31368" width="1.563" height="6.995" transform="translate(78.007 5.83) rotate(-45)" fill="#fff"/>
    </g>
    <g id="freepik--ad-2--inject-20" transform="translate(94.709 21.58)">
      <path id="Trazado_132558" data-name="Trazado 132558" d="M198.39,36.48V78.141h38.049l8.222,6.36V36.48Z" transform="translate(-198.298 -30.229)" fill="#fff"/>
      <path id="Trazado_132559" data-name="Trazado 132559" d="M198.262,36.381h3.306l9.393-.025,33.561-.046h.092V84.646l-.176-.134-8.193-6.381.067.021H198.17v-.092c.021-12.585.034-22.989.046-30.276,0-3.633,0-6.481.025-8.424V39.4c0,1.947,0,4.8.021,8.44,0,7.274.029,17.678.046,30.2l-.088-.088h38.087l.029.021,8.222,6.356-.176.088V36.4l.1.1-33.51-.05-9.414-.021h-3.13Z" transform="translate(-198.17 -30.131)" fill="#263238"/>
      <path id="Trazado_132560" data-name="Trazado 132560" d="M245.038,55.166c0,.067-10.2.126-22.779.126s-22.779-.059-22.779-.126,10.2-.126,22.779-.126S245.038,55.095,245.038,55.166Z" transform="translate(-198.93 -41.003)" fill="#263238"/>
      <path id="Trazado_132561" data-name="Trazado 132561" d="M207.519,46.349a1.149,1.149,0,1,1-1.149-1.149h.017A1.149,1.149,0,0,1,207.519,46.349Z" transform="translate(-202.262 -35.291)" fill="#e0e0e0"/>
      <path id="Trazado_132562" data-name="Trazado 132562" d="M215.6,46.349a1.149,1.149,0,1,1-1.149-1.149h0a1.145,1.145,0,0,1,1.145,1.145Z" transform="translate(-206.953 -35.291)" fill="#e0e0e0"/>
      <path id="Trazado_132563" data-name="Trazado 132563" d="M223.689,46.349a1.149,1.149,0,1,1-1.149-1.149,1.15,1.15,0,0,1,1.149,1.149Z" transform="translate(-211.649 -35.291)" fill="#e0e0e0"/>
      <path id="Trazado_132564" data-name="Trazado 132564" d="M252.68,74.042A12.887,12.887,0,1,1,239.461,61.5h.026A12.875,12.875,0,0,1,252.68,74.042Z" transform="translate(-214.854 -44.748)" fill="#f5ca56"/>
      <path id="Trazado_132565" data-name="Trazado 132565" d="M253.814,78.35a9.825,9.825,0,1,1-10.079-9.564h.01a9.809,9.809,0,0,1,10.068,9.542Z" transform="translate(-219.067 -48.98)" fill="#f5ca56"/>
      <g id="Grupo_60731" data-name="Grupo 60731" transform="translate(14.987 19.423)" opacity="0.3">
        <path id="Trazado_132566" data-name="Trazado 132566" d="M253.656,77.516a5.69,5.69,0,0,1-.289-1.175,10.507,10.507,0,0,0-1.2-2.983,9.861,9.861,0,0,0-1.342-1.749,9.718,9.718,0,0,0-1.972-1.577,8.922,8.922,0,0,0-1.212-.621,8.762,8.762,0,0,0-1.347-.461,9.574,9.574,0,0,0-1.443-.264,10.671,10.671,0,0,0-1.514-.034,10.464,10.464,0,0,0-1.506.2,9.7,9.7,0,0,0-3.834,1.779,9.836,9.836,0,0,0-1.783,1.787,10.159,10.159,0,0,0-1.141,1.888,10.414,10.414,0,0,0-.868,3.1,5.8,5.8,0,0,1-.155,1.2,2.939,2.939,0,0,1-.134-1.217,9.053,9.053,0,0,1,.667-3.289,9.994,9.994,0,0,1,1.128-2.051,10.122,10.122,0,0,1,1.858-1.955,9.318,9.318,0,0,1,1.208-.839,9.7,9.7,0,0,1,1.376-.671,10.155,10.155,0,0,1,1.519-.466,10.861,10.861,0,0,1,1.623-.222,11.1,11.1,0,0,1,1.632.042,9.952,9.952,0,0,1,1.561.294,9.779,9.779,0,0,1,1.443.541,9.017,9.017,0,0,1,1.292.692,9.9,9.9,0,0,1,3.415,3.654,9.12,9.12,0,0,1,1.024,3.176A2.9,2.9,0,0,1,253.656,77.516Z" transform="translate(-233.895 -67.88)"/>
      </g>
      <g id="Grupo_60732" data-name="Grupo 60732" transform="translate(20.78 22.796)" opacity="0.3">
        <path id="Trazado_132567" data-name="Trazado 132567" d="M253.119,88.56l.063,1.707-1.527.059-.063-1.678a7.228,7.228,0,0,1-3.847-1.078l.768-1.892a6.187,6.187,0,0,0,3,.969l-.1-2.551c-1.712-.344-3.629-.839-3.713-3.02-.059-1.619,1.061-3.054,3.461-3.419l-.063-1.678,1.527-.059.063,1.678a6.923,6.923,0,0,1,3.134.814l-.688,1.909a6.241,6.241,0,0,0-2.366-.7l.1,2.593c1.712.331,3.6.839,3.679,2.978C256.609,86.76,255.5,88.178,253.119,88.56Zm-1.787-6.712-.084-2.165c-.8.214-1.1.667-1.087,1.17s.491.831,1.17,1.015Zm2.769,3.578c-.021-.533-.474-.805-1.141-1.011l.08,2.1c.759-.168,1.082-.575,1.082-1.066Z" transform="translate(-247.705 -75.92)"/>
      </g>
      <path id="Trazado_132568" data-name="Trazado 132568" d="M253.639,77.521v-.164c0-.109-.025-.273-.046-.474l-.034-.348a2.548,2.548,0,0,0-.076-.42,7.068,7.068,0,0,0-.235-1.024,9.519,9.519,0,0,0-1.179-2.614,9.935,9.935,0,0,0-12.006-3.927,10.387,10.387,0,0,0-1.3.6,10.059,10.059,0,0,0-1.191.805,10.989,10.989,0,0,0-1.1.977,12.272,12.272,0,0,0-.944,1.17,9.582,9.582,0,0,0-1.351,2.756,9.761,9.761,0,0,0,.151,6.238,9.655,9.655,0,0,0,1.481,2.689,11.55,11.55,0,0,0,1,1.12,11.915,11.915,0,0,0,1.145.927,9.273,9.273,0,0,0,2.538,1.284,10.022,10.022,0,0,0,5.21.31,9.849,9.849,0,0,0,4.128-1.942,9.989,9.989,0,0,0,2.467-2.865,9.537,9.537,0,0,0,1.053-2.647,7.053,7.053,0,0,0,.185-1.036c.021-.151.046-.289.059-.42a3.285,3.285,0,0,0,0-.352,2.527,2.527,0,0,1,.025-.474c0-.053,0-.106,0-.159a.673.673,0,0,1,0,.159v.831a4.122,4.122,0,0,1-.046.42,6.94,6.94,0,0,1-.122,1.032,9.5,9.5,0,0,1-1.028,2.71A10.068,10.068,0,0,1,240.441,87.3a11,11,0,0,1-1.334-.541A9.954,9.954,0,0,1,237.849,86a11.343,11.343,0,0,1-1.175-.94,11.526,11.526,0,0,1-1.019-1.145,9.678,9.678,0,0,1-1.519-2.748,9.958,9.958,0,0,1-.151-6.377,9.675,9.675,0,0,1,1.384-2.815,11.489,11.489,0,0,1,.965-1.191,11.925,11.925,0,0,1,1.124-.994,10.928,10.928,0,0,1,1.221-.839,10.414,10.414,0,0,1,1.3-.6,10.078,10.078,0,0,1,12.17,4.082,9.5,9.5,0,0,1,1.158,2.655,7.524,7.524,0,0,1,.218,1.036c.021.151.05.289.063.42a3.2,3.2,0,0,1,0,.348,3.554,3.554,0,0,0,.025.478A.843.843,0,0,1,253.639,77.521Z" transform="translate(-218.698 -48.34)" fill="#263238"/>
      <circle id="Elipse_4561" data-name="Elipse 4561" cx="6.251" cy="6.251" r="6.251" transform="translate(39.858 0)" fill="#f5ca56"/>
      <rect id="Rectángulo_31369" data-name="Rectángulo 31369" width="5.634" height="1.259" transform="translate(43.67 7.799) rotate(-45)" fill="#fff"/>
      <rect id="Rectángulo_31370" data-name="Rectángulo 31370" width="1.259" height="5.634" transform="translate(43.669 4.701) rotate(-45)" fill="#fff"/>
    </g>
    <path id="Trazado_132569" data-name="Trazado 132569" d="M83.128,206.268h-.042V155.68H19.95v50.727H74.905l8.222,8.227Z" transform="translate(-43.006 -77.844)" fill="#e0e0e0"/>
    <path id="Trazado_132570" data-name="Trazado 132570" d="M83.08,169.008c0,.05-14.133.088-31.568.088s-31.572-.038-31.572-.088,14.133-.088,31.572-.088S83.08,168.954,83.08,169.008Z" transform="translate(0 -85.53)" fill="#263238"/>
    <path id="Trazado_132571" data-name="Trazado 132571" d="M26.474,161.5a.8.8,0,1,1-.8-.793h.008A.8.8,0,0,1,26.474,161.5Z" transform="translate(-45.868 -80.764)" fill="#fff"/>
    <path id="Trazado_132572" data-name="Trazado 132572" d="M32.084,161.5a.8.8,0,1,1-.8-.793h0A.8.8,0,0,1,32.084,161.5Z" transform="translate(-49.124 -80.764)" fill="#fff"/>
    <circle id="Elipse_4562" data-name="Elipse 4562" cx="0.797" cy="0.797" r="0.797" transform="translate(-16.281 79.942)" fill="#fff"/>
    <circle id="Elipse_4563" data-name="Elipse 4563" cx="5.974" cy="5.974" r="5.974" transform="translate(34.148 73.456)" fill="#f5ca56"/>
    <rect id="Rectángulo_31371" data-name="Rectángulo 31371" width="5.386" height="1.2" transform="translate(37.796 80.909) rotate(-45)" fill="#fff"/>
    <rect id="Rectángulo_31372" data-name="Rectángulo 31372" width="1.2" height="5.386" transform="translate(37.792 77.951) rotate(-45)" fill="#fff"/>
    <path id="Trazado_132573" data-name="Trazado 132573" d="M61.23,171.96l4.669,4.816,6.532-1.527,1.326,6.574,6.318,2.249-2.437,6.251,4.1,5.307-5.428,3.935.579,6.683-6.7.378-3.125,5.936-5.835-3.306-5.84,3.306-3.125-5.936-6.7-.378.579-6.683-5.428-3.935,4.1-5.307-2.442-6.251,6.318-2.249,1.326-6.574,6.532,1.527Z" transform="translate(-55.063 -87.295)" fill="#f5ca56"/>
    <g id="Grupo_60734" data-name="Grupo 60734" transform="translate(0 -15.938)">
      <path id="Trazado_132506" data-name="Trazado 132506" d="M342.91,63.92v64.3l10.358-10.748h49.122V63.92Z" transform="translate(-187.482 -24.578)" fill="#aee6e6"/>
      <path id="Trazado_132508" data-name="Trazado 132508" d="M352.466,73.832a1.478,1.478,0,1,1-1.484-1.472h.006A1.478,1.478,0,0,1,352.466,73.832Z" transform="translate(-190.401 -28.311)" fill="#fff"/>
      <path id="Trazado_132509" data-name="Trazado 132509" d="M360.286,73.828a1.478,1.478,0,1,1-1.478-1.478h.011A1.478,1.478,0,0,1,360.286,73.828Z" transform="translate(-193.86 -28.306)" fill="#fff"/>
      <path id="Trazado_132510" data-name="Trazado 132510" d="M368.1,73.832a1.472,1.472,0,1,1-1.473-1.472A1.473,1.473,0,0,1,368.1,73.832Z" transform="translate(-197.322 -28.311)" fill="#fff"/>
      <path id="Trazado_132511" data-name="Trazado 132511" d="M375.622,118.317h-3.943l-.731,1.807H368.26l4.111-9.315h2.6l4.127,9.315h-2.744Zm-.775-1.947-1.2-2.978-1.194,2.978Z" transform="translate(-198.693 -45.315)" fill="#fff"/>
      <path id="Trazado_132512" data-name="Trazado 132512" d="M389,110.81h4.406c3.09,0,5.2,1.8,5.2,4.657s-2.114,4.657-5.2,4.657H389Zm4.3,7.212a2.556,2.556,0,1,0,0-5.109h-1.673v5.109Z" transform="translate(-207.865 -45.315)" fill="#fff"/>
      <path id="Trazado_132513" data-name="Trazado 132513" d="M407.56,119.127l.865-1.947a5.874,5.874,0,0,0,3.079.92c1.088,0,1.517-.307,1.517-.759,0-1.478-5.3-.4-5.3-3.86,0-1.673,1.355-3.023,4.127-3.023a6.949,6.949,0,0,1,3.38.814l-.814,1.958a5.492,5.492,0,0,0-2.582-.72c-1.115,0-1.5.374-1.5.837,0,1.428,5.282.363,5.282,3.793,0,1.623-1.355,3.012-4.127,3.012A7.337,7.337,0,0,1,407.56,119.127Z" transform="translate(-216.073 -45.16)" fill="#fff"/>
    </g>
  </g>
</svg>
