<svg xmlns="http://www.w3.org/2000/svg" xmlns:xlink="http://www.w3.org/1999/xlink" width="78.501" height="76.824" viewBox="0 0 78.501 76.824">
  <defs>
    <clipPath id="clip-path">
      <rect id="Rectángulo_401709" data-name="Rectángulo 401709" width="63" height="63" transform="translate(293 3114)" fill="#fff" stroke="#707070" stroke-width="1"/>
    </clipPath>
  </defs>
  <g id="Grupo_1100548" data-name="Grupo 1100548" transform="translate(-285 -3114)">
    <g id="Grupo_1100176" data-name="Grupo 1100176">
      <path id="_12068" data-name="12068" d="M72.033,71.913c-8.038-1.11-16.53-.839-23.844,2.675C38.045,79.46,31.382,90.507,31.127,101.757s5.606,22.305,14.66,28.988,21,9.051,32.068,7.045c11.165-2.023,21.645-8.583,27.469-18.322,3.735-6.245,5.48-13.956,3.417-20.934a28.6,28.6,0,0,0-6.787-11.156A50.145,50.145,0,0,0,72.033,71.913Z" transform="translate(253.881 3052.343)" fill="#26aab7"/>
      <g id="Enmascarar_grupo_1098736" data-name="Enmascarar grupo 1098736" clip-path="url(#clip-path)">
        <g id="objetivo2" transform="translate(293 3114)">
          <g id="Grupo_1100195" data-name="Grupo 1100195">
            <g id="Grupo_1100180" data-name="Grupo 1100180">
              <path id="Trazado_874894" data-name="Trazado 874894" d="M51.619,11.381l-4.308,4.308-.01.01a22.258,22.258,0,0,0-5.182-3.871l.152-.457a7.655,7.655,0,0,0,.406-2.49V5.325a28.575,28.575,0,0,1,8.942,6.056Z" fill="#ef7385"/>
            </g>
            <g id="Grupo_1100181" data-name="Grupo 1100181">
              <path id="Trazado_874895" data-name="Trazado 874895" d="M47.311,47.311l4.308,4.308a28.577,28.577,0,0,1-8.505,5.863l.823-.823a6.089,6.089,0,0,0,1.788-4.319v-3.6A17.543,17.543,0,0,0,47.3,47.3Z" fill="#7d6eb2"/>
            </g>
            <g id="Grupo_1100182" data-name="Grupo 1100182">
              <path id="Trazado_874896" data-name="Trazado 874896" d="M59.952,31.5h-6.1A22.252,22.252,0,0,0,47.3,15.7l.01-.01,4.308-4.308A28.36,28.36,0,0,1,59.952,31.5Z" fill="#7d6eb2"/>
            </g>
            <g id="Grupo_1100183" data-name="Grupo 1100183">
              <path id="Trazado_874897" data-name="Trazado 874897" d="M53.855,31.5h6.1a28.4,28.4,0,0,1-8.332,20.119l-4.308-4.308-.01-.01A22.21,22.21,0,0,0,53.855,31.5Z" fill="#7d6eb2"/>
            </g>
            <g id="Grupo_1100184" data-name="Grupo 1100184">
              <path id="Trazado_874898" data-name="Trazado 874898" d="M15.7,47.3l-.01.01-4.308,4.308A28.36,28.36,0,0,1,3.048,31.5h6.1A22.21,22.21,0,0,0,15.7,47.3Z" fill="#7d6eb2"/>
            </g>
            <g id="Grupo_1100185" data-name="Grupo 1100185">
              <path id="Trazado_874899" data-name="Trazado 874899" d="M28.452,57.919v1.87a28.434,28.434,0,0,1-17.071-8.17l4.308-4.308.01-.01a22.22,22.22,0,0,0,9.745,5.721,6.085,6.085,0,0,0,1.748,3.638Z" fill="#7d6eb2"/>
            </g>
            <g id="Grupo_1100186" data-name="Grupo 1100186">
              <path id="Trazado_874900" data-name="Trazado 874900" d="M15.689,15.689l.01.01A22.27,22.27,0,0,0,9.145,31.5h-6.1a28.4,28.4,0,0,1,8.332-20.119Z" fill="#7d6eb2"/>
            </g>
            <g id="Grupo_1100187" data-name="Grupo 1100187">
              <path id="Trazado_874901" data-name="Trazado 874901" d="M20.729,11.37l.152.467-.041.01A21.953,21.953,0,0,0,15.7,15.7l-.01-.01-4.308-4.308A28.609,28.609,0,0,1,21.41,4.888a7.81,7.81,0,0,0-1.087,3.993A7.655,7.655,0,0,0,20.729,11.37Z" fill="#7d6eb2"/>
            </g>
            <g id="Grupo_1100188" data-name="Grupo 1100188">
              <path id="Trazado_874902" data-name="Trazado 874902" d="M42.677,57.919v4.065H28.452V57.919Z" fill="#aee6e6"/>
            </g>
            <g id="Grupo_1100189" data-name="Grupo 1100189">
              <path id="Trazado_874903" data-name="Trazado 874903" d="M33.532,38.613a2.038,2.038,0,0,1,2.032-2.032A2.047,2.047,0,0,1,37.6,38.613v1.016A2.038,2.038,0,0,1,39.629,37.6a2.047,2.047,0,0,1,2.032,2.032v1.016a1.993,1.993,0,0,1,.6-1.443,2.033,2.033,0,0,1,3.465,1.443v11.7a6.089,6.089,0,0,1-1.788,4.319l-.823.823-.437.437H28.452l-1.26-1.26a6.085,6.085,0,0,1-1.748-3.638,5.1,5.1,0,0,1-.041-.681V49.882a17.665,17.665,0,0,0-1.86-7.875,1.644,1.644,0,0,1,1.473-2.378,4.449,4.449,0,0,1,4.451,4.451V29.468A2.038,2.038,0,0,1,31.5,27.435a2.047,2.047,0,0,1,2.032,2.032v9.145Z" fill="#f0d0b4"/>
            </g>
            <g id="Grupo_1100190" data-name="Grupo 1100190">
              <path id="Trazado_874904" data-name="Trazado 874904" d="M39.629,31.5h-6.1V29.468A2.047,2.047,0,0,0,31.5,27.435a2.038,2.038,0,0,0-2.032,2.032V31.5h-6.1a8.129,8.129,0,1,1,16.258,0Z" fill="#ffd947"/>
            </g>
            <g id="Grupo_1100191" data-name="Grupo 1100191">
              <path id="Trazado_874905" data-name="Trazado 874905" d="M21.024,12.275l-.142-.437-.152-.467a7.655,7.655,0,0,1-.406-2.49A7.81,7.81,0,0,1,21.41,4.888a8.3,8.3,0,0,1,1.219-1.565,7.833,7.833,0,0,1,5.558-2.307h14.49V8.881a7.655,7.655,0,0,1-.406,2.49l-.152.457-.142.447a3.046,3.046,0,0,0-2.347-1.1H38.613a2.038,2.038,0,0,0-2.032-2.032H32.343a6.946,6.946,0,0,1-4.908-2.032,4.467,4.467,0,0,0-3.048,4.065H23.371a3.046,3.046,0,0,0-2.347,1.1Z" fill="#ffd947"/>
            </g>
            <g id="Grupo_1100192" data-name="Grupo 1100192">
              <path id="Trazado_874906" data-name="Trazado 874906" d="M41.976,12.275a3.053,3.053,0,0,1-2.347,5H38.613v-6.1h1.016a3.046,3.046,0,0,1,2.347,1.1Z" fill="#f0d0b4"/>
            </g>
            <g id="Grupo_1100193" data-name="Grupo 1100193">
              <path id="Trazado_874907" data-name="Trazado 874907" d="M24.387,11.177a4.467,4.467,0,0,1,3.048-4.065,6.946,6.946,0,0,0,4.908,2.032h4.237a2.038,2.038,0,0,1,2.032,2.032v6.1a6.1,6.1,0,0,1-6.1,6.1H30.484a6.1,6.1,0,0,1-6.1-6.1v-6.1Z" fill="#f0d0b4"/>
            </g>
            <g id="Grupo_1100194" data-name="Grupo 1100194">
              <path id="Trazado_874908" data-name="Trazado 874908" d="M24.387,11.177v6.1H23.371a3.048,3.048,0,1,1,0-6.1Z" fill="#f0d0b4"/>
            </g>
          </g>
          <g id="Grupo_1100196" data-name="Grupo 1100196">
            <circle id="Elipse_11606" data-name="Elipse 11606" cx="1.016" cy="1.016" r="1.016" transform="translate(27.435 12.194)"/>
            <circle id="Elipse_11607" data-name="Elipse 11607" cx="1.016" cy="1.016" r="1.016" transform="translate(33.532 12.194)"/>
            <path id="Trazado_874909" data-name="Trazado 874909" d="M33.532,17.034a2.272,2.272,0,0,1-4.065,0l-.107-.214-1.818.909.107.214a4.3,4.3,0,0,0,7.7,0l.107-.214-1.818-.909Z"/>
            <path id="Trazado_874910" data-name="Trazado 874910" d="M63,32.516V30.484H60.93A29.411,29.411,0,0,0,53.038,11.4l1.455-1.455L53.056,8.507,51.6,9.961a29.485,29.485,0,0,0-7.909-5.276V0h-15.5a8.877,8.877,0,0,0-7.458,4.075,29.219,29.219,0,0,0-9.319,5.9L9.945,8.508,8.508,9.945l1.469,1.469a29.593,29.593,0,0,0-7.905,19.07H0v2.032H2.056a29.389,29.389,0,0,0,7.887,19.1L8.508,53.055l1.437,1.437,1.431-1.431a29.315,29.315,0,0,0,16.061,7.62V63H43.695V58.34l.024-.024a29.362,29.362,0,0,0,7.874-5.287l1.463,1.463,1.437-1.437-1.464-1.464a29.482,29.482,0,0,0,7.9-19.075Zm-4.1-2.032H54.836a23.34,23.34,0,0,0-6.108-14.776L51.6,12.836a27.383,27.383,0,0,1,7.3,17.648ZM27.907,55.939a5.109,5.109,0,0,1-1.489-3.594V49.883a18.729,18.729,0,0,0-1.965-8.328.629.629,0,0,1,.562-.909,3.441,3.441,0,0,1,3.437,3.438v2.659h2.032V29.468a1.016,1.016,0,0,1,2.032,0V46.742h2.032V38.613a1.016,1.016,0,0,1,2.032,0v8.129h2.032V39.629a1.016,1.016,0,1,1,2.032,0v7.113h2.032v-6.1a1.016,1.016,0,0,1,2.032,0v11.7a5.052,5.052,0,0,1-1.488,3.593l-.965.964H28.872ZM10.161,31.5a21.329,21.329,0,0,1,9.17-17.518c-.005.082-.024.161-.024.244a4.069,4.069,0,0,0,4.065,4.065h.081a7.122,7.122,0,0,0,3.613,5.218A9.149,9.149,0,0,0,22.355,31.5v1.016h6.1v7.347a5.412,5.412,0,0,0-3.437-1.25,2.661,2.661,0,0,0-2.38,3.85,16.669,16.669,0,0,1,1.752,7.42v1.728A21.41,21.41,0,0,1,10.161,31.5Zm13.21-15.242a2.032,2.032,0,1,1,0-4.065ZM31.5,26.419a3.052,3.052,0,0,0-3.048,3.048v1.016H24.459a7.114,7.114,0,0,1,14.082,0H34.548V29.468A3.052,3.052,0,0,0,31.5,26.419Zm-1.016-4.065A5.086,5.086,0,0,1,25.4,17.274V11.342A3.438,3.438,0,0,1,27.23,8.3a7.89,7.89,0,0,0,5.112,1.86h4.238A1.018,1.018,0,0,1,37.6,11.177v6.1a5.086,5.086,0,0,1-5.081,5.081ZM46.742,46.431V40.646A3.054,3.054,0,0,0,43.694,37.6,3.015,3.015,0,0,0,42.2,38a3,3,0,0,0-4.065-1.016,2.987,2.987,0,0,0-3.586-1.237V32.516h6.1V31.5a9.149,9.149,0,0,0-4.711-7.992,7.124,7.124,0,0,0,3.613-5.218h.081a4.069,4.069,0,0,0,4.065-4.065c0-.083-.019-.163-.024-.245a21.325,21.325,0,0,1,3.073,32.45ZM39.629,12.194a2.032,2.032,0,0,1,0,4.065ZM50.163,11.4l-2.878,2.878a23.373,23.373,0,0,0-3.963-2.926,8.9,8.9,0,0,0,.371-2.466V6.931A27.39,27.39,0,0,1,50.163,11.4ZM28.191,2.032h13.47V8.885a6.825,6.825,0,0,1-.24,1.712,4,4,0,0,0-1.792-.436h-.187a3.044,3.044,0,0,0-2.861-2.032H32.342a5.884,5.884,0,0,1-4.188-1.735L27.71,5.95l-.6.2a5.455,5.455,0,0,0-3.6,4.013h-.144a4.019,4.019,0,0,0-1.792.435,6.81,6.81,0,0,1-.24-1.711,6.86,6.86,0,0,1,6.853-6.853ZM19.564,6.8a8.806,8.806,0,0,0-.257,2.083,8.815,8.815,0,0,0,.372,2.466,23.393,23.393,0,0,0-3.963,2.927l-2.868-2.868A27.3,27.3,0,0,1,19.564,6.8Zm-8.149,6.049,2.858,2.858A23.35,23.35,0,0,0,8.164,30.484H4.1A27.561,27.561,0,0,1,11.414,12.851ZM4.088,32.516H8.171a23.41,23.41,0,0,0,6.117,14.759l-2.907,2.907A27.376,27.376,0,0,1,4.088,32.516Zm8.726,19.107,2.912-2.911A23.205,23.205,0,0,0,24.542,53.8a7.155,7.155,0,0,0,1.929,3.577l.965.964v.293A27.289,27.289,0,0,1,12.813,51.623Zm28.848,9.344H29.468V58.935H41.661Zm4.732-6.43a7.1,7.1,0,0,0,.349-2.192V49.207c.184-.159.37-.315.549-.479l2.865,2.864a27.4,27.4,0,0,1-3.763,2.945Zm5.2-4.384-2.868-2.868a23.272,23.272,0,0,0,6.119-14.77H58.9A27.452,27.452,0,0,1,51.591,50.154Z"/>
          </g>
        </g>
      </g>
    </g>
  </g>
</svg>
