<svg xmlns="http://www.w3.org/2000/svg" xmlns:xlink="http://www.w3.org/1999/xlink" width="78.501" height="76.824" viewBox="0 0 78.501 76.824">
  <defs>
    <clipPath id="clip-path">
      <rect id="Rectángulo_401709" data-name="Rectángulo 401709" width="63" height="63" transform="translate(293 3114)" fill="#fff" stroke="#707070" stroke-width="1"/>
    </clipPath>
  </defs>
  <g id="Grupo_1100551" data-name="Grupo 1100551" transform="translate(-838 -3309)">
    <g id="Grupo_1100179" data-name="Grupo 1100179" transform="translate(553 195)">
      <path id="_12068" data-name="12068" d="M72.033,71.913c-8.038-1.11-16.53-.839-23.844,2.675C38.045,79.46,31.382,90.507,31.127,101.757s5.606,22.305,14.66,28.988,21,9.051,32.068,7.045c11.165-2.023,21.645-8.583,27.469-18.322,3.735-6.245,5.48-13.956,3.417-20.934a28.6,28.6,0,0,0-6.787-11.156A50.145,50.145,0,0,0,72.033,71.913Z" transform="translate(253.881 3052.343)" fill="#26aab7"/>
      <g id="Enmascarar_grupo_1098739" data-name="Enmascarar grupo 1098739" clip-path="url(#clip-path)">
        <g id="subcontratacion" transform="translate(293 3114)">
          <g id="Grupo_1100224" data-name="Grupo 1100224">
            <g id="Grupo_1100199" data-name="Grupo 1100199">
              <path id="Trazado_874934" data-name="Trazado 874934" d="M22.351,33.381a3.049,3.049,0,0,0-3.045-2.9c-.058,0-.116,0-.173.005a3.054,3.054,0,0,0-3.591-1.954,16.424,16.424,0,0,1-.015-6.181A16.261,16.261,0,1,1,47.41,28.765,9.147,9.147,0,0,0,40.645,37.6v1.016a2.028,2.028,0,0,0-1.127-1.819A7.451,7.451,0,0,0,33.193,25.4H28.452A3.049,3.049,0,0,0,25.4,28.452,3.049,3.049,0,0,0,22.355,31.5v1.355q0,.265.019.526Z" fill="#69d6f4"/>
            </g>
            <g id="Grupo_1100200" data-name="Grupo 1100200">
              <path id="Trazado_874935" data-name="Trazado 874935" d="M34.548,1.016V5.081h-6.1V1.016Z" fill="#ff826e"/>
            </g>
            <g id="Grupo_1100201" data-name="Grupo 1100201">
              <path id="Trazado_874936" data-name="Trazado 874936" d="M11.177,8.129v2.032h-6.1V6.1h6.1Z" fill="#ff826e"/>
            </g>
            <g id="Grupo_1100202" data-name="Grupo 1100202">
              <path id="Trazado_874937" data-name="Trazado 874937" d="M7.113,22.355v2.032h-6.1V20.323h6.1Z" fill="#ff826e"/>
            </g>
            <g id="Grupo_1100203" data-name="Grupo 1100203">
              <path id="Trazado_874938" data-name="Trazado 874938" d="M61.984,20.323v4.065h-6.1V20.323Z" fill="#ff826e"/>
            </g>
            <g id="Grupo_1100204" data-name="Grupo 1100204">
              <path id="Trazado_874939" data-name="Trazado 874939" d="M57.919,6.1v4.065h-6.1V6.1Z" fill="#ff826e"/>
            </g>
            <g id="Grupo_1100205" data-name="Grupo 1100205">
              <path id="Trazado_874940" data-name="Trazado 874940" d="M22.351,33.381h.023a7.445,7.445,0,0,0,1.108,3.413,2.022,2.022,0,0,0-1.127,1.819H17.274a4.059,4.059,0,0,1-3.409-1.851h0a9.8,9.8,0,0,1-5.735,1.852H6.1a2.031,2.031,0,0,0-1.438.594c-.028.028-.055.056-.08.085a3.05,3.05,0,0,1,1.733-4.637,3.048,3.048,0,0,1,2.834-4.171c.058,0,.116,0,.173.005a3.047,3.047,0,0,1,4.908-1.26,3.045,3.045,0,0,1,1.317-.694,3.054,3.054,0,0,1,3.591,1.954c.057,0,.114-.005.173-.005A3.049,3.049,0,0,1,22.351,33.381Z" fill="#656d78"/>
            </g>
            <g id="Grupo_1100206" data-name="Grupo 1100206">
              <path id="Trazado_874941" data-name="Trazado 874941" d="M22.355,57.438v4.546H4.065V57.438a6.1,6.1,0,0,1,4.421-5.863l2.691-.768,2.032,3.048,2.032-3.048,2.691.768A6.1,6.1,0,0,1,22.355,57.438Z" fill="#fcd770"/>
            </g>
            <g id="Grupo_1100207" data-name="Grupo 1100207">
              <path id="Trazado_874942" data-name="Trazado 874942" d="M36.224,49.543a6.1,6.1,0,0,1,4.421,5.863v6.578H22.355V55.406a6.1,6.1,0,0,1,4.421-5.863l.141-.041h0l1.534,5.368L31.5,51.823l3.048,3.048L36.083,49.5h0Z" fill="#b4dd7f"/>
            </g>
            <g id="Grupo_1100208" data-name="Grupo 1100208">
              <path id="Trazado_874943" data-name="Trazado 874943" d="M36.083,49.5h0l-1.534,5.368L31.5,51.823l2.032-3.048Z" fill="#a0d468"/>
            </g>
            <g id="Grupo_1100209" data-name="Grupo 1100209">
              <path id="Trazado_874944" data-name="Trazado 874944" d="M29.468,48.774,31.5,51.823l-3.048,3.048L26.917,49.5h0Z" fill="#a0d468"/>
            </g>
            <g id="Grupo_1100210" data-name="Grupo 1100210">
              <path id="Trazado_874945" data-name="Trazado 874945" d="M36.581,36.581H34.649a6.3,6.3,0,0,1-3.94-1.379,7.356,7.356,0,0,1-4.289,1.379H24.387a2.011,2.011,0,0,0-.906.213,7.445,7.445,0,0,1-1.108-3.413q-.019-.261-.019-.526V31.5A3.049,3.049,0,0,1,25.4,28.452,3.049,3.049,0,0,1,28.452,25.4h4.742a7.452,7.452,0,0,1,6.325,11.391,2.011,2.011,0,0,0-.906-.213Z" fill="#b27946"/>
            </g>
            <g id="Grupo_1100211" data-name="Grupo 1100211">
              <path id="Trazado_874946" data-name="Trazado 874946" d="M58.935,40.645v5.081a7.109,7.109,0,0,1-3.565,6.167,5.462,5.462,0,0,0-.572-.227c-.094-.033-.188-.062-.285-.09l-2.691-.768V49.318a1.016,1.016,0,0,1,.452-.845l.334-.224a5.077,5.077,0,0,0,2.262-4.227V42.677H56.9a2.03,2.03,0,0,0,2.032-2.032Z" fill="#656d78"/>
            </g>
            <g id="Grupo_1100212" data-name="Grupo 1100212">
              <path id="Trazado_874947" data-name="Trazado 874947" d="M47.758,49.318v1.489l-2.691.768c-.1.028-.191.057-.285.09a5.46,5.46,0,0,0-.572.227,7.109,7.109,0,0,1-3.565-6.167V40.645a2.032,2.032,0,0,0,2.032,2.032H44.71v1.345a5.077,5.077,0,0,0,2.262,4.227l.334.224A1.016,1.016,0,0,1,47.758,49.318Z" fill="#656d78"/>
            </g>
            <g id="Grupo_1100213" data-name="Grupo 1100213">
              <path id="Trazado_874948" data-name="Trazado 874948" d="M58.935,37.6v3.048A2.032,2.032,0,0,0,56.9,38.613H54.871a4.93,4.93,0,0,1-4.411-2.727l-.215-.428a1.644,1.644,0,0,0-2.942,0l-.561,1.123h-.389a1.645,1.645,0,0,0-1.644,1.644v.389H42.677a2.03,2.03,0,0,0-2.032,2.032V37.6a9.145,9.145,0,0,1,18.29,0Z" fill="#656d78"/>
            </g>
            <g id="Grupo_1100214" data-name="Grupo 1100214">
              <path id="Trazado_874949" data-name="Trazado 874949" d="M58.935,57.438v4.546H40.645V57.438a6.094,6.094,0,0,1,3.565-5.546,5.462,5.462,0,0,1,.572-.227,5.081,5.081,0,0,0,10.016,0,5.46,5.46,0,0,1,.572.227A6.094,6.094,0,0,1,58.935,57.438Z" fill="#ff826e"/>
            </g>
            <g id="Grupo_1100215" data-name="Grupo 1100215">
              <path id="Trazado_874950" data-name="Trazado 874950" d="M56.9,38.613a2.032,2.032,0,1,1,0,4.065H54.871V38.613Z" fill="#f0d0b4"/>
            </g>
            <g id="Grupo_1100216" data-name="Grupo 1100216">
              <path id="Trazado_874951" data-name="Trazado 874951" d="M54.871,38.613v5.41a5.077,5.077,0,0,1-2.262,4.227l-.334.224a1.016,1.016,0,0,0-.452.845v1.489l2.691.768c.1.028.191.057.285.09a5.081,5.081,0,0,1-10.016,0c.094-.033.188-.062.285-.09l2.691-.768V49.318a1.016,1.016,0,0,0-.452-.845l-.334-.224a5.077,5.077,0,0,1-2.262-4.227v-5.8a1.645,1.645,0,0,1,1.644-1.644h.389l.561-1.123a1.643,1.643,0,0,1,2.942,0l.215.428A4.93,4.93,0,0,0,54.871,38.613Z" fill="#f0d0b4"/>
            </g>
            <g id="Grupo_1100217" data-name="Grupo 1100217">
              <path id="Trazado_874952" data-name="Trazado 874952" d="M44.71,38.613v4.065H42.677a2.032,2.032,0,1,1,0-4.065Z" fill="#f0d0b4"/>
            </g>
            <g id="Grupo_1100218" data-name="Grupo 1100218">
              <path id="Trazado_874953" data-name="Trazado 874953" d="M39.519,36.794a2.032,2.032,0,0,1-.906,3.851H36.581V36.581h2.032A2.011,2.011,0,0,1,39.519,36.794Z" fill="#f0d0b4"/>
            </g>
            <g id="Grupo_1100219" data-name="Grupo 1100219">
              <path id="Trazado_874954" data-name="Trazado 874954" d="M36.581,40.645V41.99a5.077,5.077,0,0,1-2.262,4.227l-.334.224a1.016,1.016,0,0,0-.452.845v1.489L31.5,51.823l-2.032-3.048V47.286a1.016,1.016,0,0,0-.452-.845l-.334-.224a5.077,5.077,0,0,1-2.262-4.227v-5.41A7.356,7.356,0,0,0,30.709,35.2a6.3,6.3,0,0,0,3.94,1.379h1.932Z" fill="#f0d0b4"/>
            </g>
            <g id="Grupo_1100220" data-name="Grupo 1100220">
              <path id="Trazado_874955" data-name="Trazado 874955" d="M26.419,36.581v4.065H24.387a2.031,2.031,0,0,1-.906-3.851,2.011,2.011,0,0,1,.906-.213Z" fill="#f0d0b4"/>
            </g>
            <g id="Grupo_1100221" data-name="Grupo 1100221">
              <path id="Trazado_874956" data-name="Trazado 874956" d="M20.323,38.613a2.032,2.032,0,1,1,0,4.065H18.29V38.613Z" fill="#f0d0b4"/>
            </g>
            <g id="Grupo_1100222" data-name="Grupo 1100222">
              <path id="Trazado_874957" data-name="Trazado 874957" d="M18.29,42.677v1.345a5.077,5.077,0,0,1-2.262,4.227l-.334.224a1.016,1.016,0,0,0-.452.845v1.489L13.21,53.855l-2.032-3.048V49.318a1.016,1.016,0,0,0-.452-.845l-.334-.224a5.077,5.077,0,0,1-2.262-4.227v-5.41a9.8,9.8,0,0,0,5.735-1.852h0a4.059,4.059,0,0,0,3.409,1.851H18.29Z" fill="#f0d0b4"/>
            </g>
            <g id="Grupo_1100223" data-name="Grupo 1100223">
              <path id="Trazado_874958" data-name="Trazado 874958" d="M4.579,39.292c.025-.029.052-.057.08-.085A2.031,2.031,0,0,1,6.1,38.613H8.129v4.065H6.1a2.033,2.033,0,0,1-1.518-3.385Z" fill="#f0d0b4"/>
            </g>
          </g>
          <path id="Trazado_874959" data-name="Trazado 874959" d="M63,25.4v-6.1H54.871v2.032H48.29a17.236,17.236,0,0,0-3.58-7.053V10.161a1.017,1.017,0,0,1,1.016-1.016h5.081v2.032h8.129v-6.1H50.806V7.113H45.726a3.052,3.052,0,0,0-3.048,3.048v2.083A17.2,17.2,0,0,0,32.516,8.16V6.1h3.048V0H27.435V6.1h3.048V8.16a17.2,17.2,0,0,0-10.161,4.084V10.161a3.052,3.052,0,0,0-3.048-3.048H12.194V5.081H4.065v6.1h8.129V9.145h5.081a1.017,1.017,0,0,1,1.016,1.016v4.124a17.238,17.238,0,0,0-3.58,7.053H8.129V19.306H0v6.1H8.129V23.371h6.217a17.355,17.355,0,0,0,.057,4.514c-.06.031-.119.061-.177.1A4.065,4.065,0,0,0,8.657,29.5a4.066,4.066,0,0,0-3.542,4.561A4.059,4.059,0,0,0,3.4,39.236a3.046,3.046,0,0,0,2.7,4.458H7.113v.329A6.084,6.084,0,0,0,9.828,49.1l.333.222v.722L8.207,50.6a7.143,7.143,0,0,0-5.159,6.839V63h56.9V57.437A7.142,7.142,0,0,0,57.2,51.824a8.158,8.158,0,0,0,2.755-6.1V37.6A10.148,10.148,0,0,0,48.646,27.5a17.27,17.27,0,0,0,.008-4.131h6.217V25.4ZM52.839,7.113H56.9V9.145H52.839ZM29.468,2.032h4.065V4.065H29.468ZM10.161,9.145H6.1V7.113h4.065ZM6.1,23.371H2.032V21.339H6.1Zm37.589-7.113H37.581a18.121,18.121,0,0,0-2.247-5.608,15.284,15.284,0,0,1,8.352,5.608Zm9.865,36.1a4.069,4.069,0,0,1-7.52,0l2.744-.784V49.318a2.028,2.028,0,0,0-.905-1.691l-.333-.222a4.057,4.057,0,0,1-1.81-3.382v-5.8a.629.629,0,0,1,.628-.628H47.37l.842-1.685a.628.628,0,0,1,1.124,0l.215.429a5.911,5.911,0,0,0,4.3,3.2v4.48a4.056,4.056,0,0,1-1.81,3.382l-.334.222a2.028,2.028,0,0,0-.905,1.691v2.255Zm-12.327.606a7.144,7.144,0,0,0-4.721-4.4l-1.954-.558v-.722l.334-.222A6.084,6.084,0,0,0,37.6,41.991v-.329h1.016a3.034,3.034,0,0,0,1.016-.175v4.239a8.158,8.158,0,0,0,2.755,6.1A7.167,7.167,0,0,0,41.223,52.963ZM19.306,39.629h1.016a1.016,1.016,0,1,1,0,2.032H19.306Zm0,4.394v-.329h1.016a3.053,3.053,0,0,0,2.941-2.248,3.032,3.032,0,0,0,1.124.216H25.4v.329a6.084,6.084,0,0,0,2.715,5.073l.333.222v.722l-1.954.558a7.144,7.144,0,0,0-4.721,4.4A7.1,7.1,0,0,0,18.212,50.6l-1.954-.558v-.722l.334-.222a6.084,6.084,0,0,0,2.715-5.073Zm6.1-4.394H24.387a1.016,1.016,0,1,1,0-2.032H25.4Zm3.631,10.326,1.159,1.738-1.238,1.238-.78-2.731Zm1.45-1.489V47.286a2.028,2.028,0,0,0-.905-1.691l-.333-.222a4.057,4.057,0,0,1-1.81-3.382V37.536a8.3,8.3,0,0,0,3.251-1.107A7.307,7.307,0,0,0,34.649,37.6h.916v4.394a4.056,4.056,0,0,1-1.81,3.382l-.334.222a2.028,2.028,0,0,0-.905,1.691v1.181L31.5,49.991Zm3.482,1.488.86.246-.78,2.731-1.238-1.238Zm5.663-11.342a1.017,1.017,0,0,1-1.016,1.016H37.6V37.6h1.016A1.017,1.017,0,0,1,39.629,38.613ZM46.409,49.1l.333.222v.722l-1.954.558c-.161.046-.319.1-.475.156a6.12,6.12,0,0,1-2.651-5.028V43.519a3.034,3.034,0,0,0,1.016.175h1.016v.329A6.085,6.085,0,0,0,46.409,49.1Zm-2.715-7.435H42.677a1.016,1.016,0,1,1,0-2.032h1.016Zm-4.676-6.069a3.075,3.075,0,0,0-.4-.028H37.6A4.069,4.069,0,0,0,33.532,31.5v2.032a2.035,2.035,0,0,1,2.032,2.032h-.916a5.318,5.318,0,0,1-5.2-4.264l-1.993.4a7.3,7.3,0,0,0,1.6,3.3,6.31,6.31,0,0,1-2.631.57H24.387a3.075,3.075,0,0,0-.4.028,6.428,6.428,0,0,1-.612-2.737V31.5A2.035,2.035,0,0,1,25.4,29.468h1.016V28.452a2.035,2.035,0,0,1,2.032-2.032h4.742a6.434,6.434,0,0,1,5.824,9.173Zm-5.824-11.2H28.452a4.038,4.038,0,0,0-2.029.545,38,38,0,0,1,.636-6.641h8.883a38.111,38.111,0,0,1,.638,6.805,8.418,8.418,0,0,0-3.386-.708ZM27.52,16.258c1-3.754,2.542-6.1,3.98-6.1s2.977,2.342,3.98,6.1Zm.146-5.608a18.121,18.121,0,0,0-2.247,5.608H19.314A15.284,15.284,0,0,1,27.666,10.65ZM18.023,18.29h6.971a41.331,41.331,0,0,0-.607,7.113c0,.718.018,1.438.053,2.148a4.08,4.08,0,0,0-2.872,2.605,4.038,4.038,0,0,0-1.773-.66,4.071,4.071,0,0,0-3.4-2.057,15.44,15.44,0,0,1-.136-2.037,15.146,15.146,0,0,1,1.765-7.113ZM6.1,41.661a1.016,1.016,0,1,1,0-2.032H7.113v2.032ZM8.129,37.6H6.1a3.034,3.034,0,0,0-1.008.172c0-.057-.008-.114-.008-.172a2.036,2.036,0,0,1,1.5-1.961l1.1-.3-.419-1.057A2.032,2.032,0,0,1,9.145,31.5c.039,0,.077,0,.115,0l.763.043.253-.721a2.032,2.032,0,0,1,3.272-.84l.678.607.678-.607a2.032,2.032,0,0,1,3.272.84l.253.721.763-.043c.038,0,.076,0,.115,0a2.035,2.035,0,0,1,2.032,2.032h.028a8.455,8.455,0,0,0,.807,2.988,3.046,3.046,0,0,0-.727,1.292,3.032,3.032,0,0,0-1.124-.216H17.274a3.04,3.04,0,0,1-1.95-.7q.236-.21.461-.436l.174-.174-1.437-1.437-.174.174A8.738,8.738,0,0,1,8.129,37.6Zm1.016,6.426V39.582a10.724,10.724,0,0,0,4.511-1.465,5.063,5.063,0,0,0,3.618,1.512v4.394a4.056,4.056,0,0,1-1.81,3.382l-.334.222a2.028,2.028,0,0,0-.905,1.691V50.5L13.21,52.023,12.194,50.5V49.318a2.028,2.028,0,0,0-.905-1.691l-.333-.222a4.057,4.057,0,0,1-1.81-3.382ZM21.339,60.968H5.081v-3.53a5.1,5.1,0,0,1,3.685-4.885l1.978-.565,2.466,3.7,2.466-3.7,1.978.565a5.1,5.1,0,0,1,3.685,4.885Zm18.29,0H23.371V55.405a5.106,5.106,0,0,1,2.87-4.573l1.708,5.978L31.5,53.26l3.551,3.551,1.708-5.978a5.107,5.107,0,0,1,2.87,4.573v5.563Zm18.29-3.53v3.53H41.661v-3.53a5.105,5.105,0,0,1,2.47-4.355,6.1,6.1,0,0,0,11.318,0A5.106,5.106,0,0,1,57.919,57.437Zm-2.651-6.684c-.156-.057-.314-.109-.475-.156l-1.954-.558v-.722l.334-.222a6.084,6.084,0,0,0,2.715-5.073v-.329H56.9a3.034,3.034,0,0,0,1.016-.175v2.207a6.119,6.119,0,0,1-2.651,5.028Zm.619-11.125H56.9a1.016,1.016,0,1,1,0,2.032H55.887ZM57.919,37.6v.175A3.034,3.034,0,0,0,56.9,37.6H54.871a3.9,3.9,0,0,1-3.5-2.165L51.154,35a2.66,2.66,0,0,0-4.759,0l-.286.573A2.664,2.664,0,0,0,43.771,37.6H42.677a3.034,3.034,0,0,0-1.016.175V37.6a8.129,8.129,0,1,1,16.258,0ZM41.572,31.631a8.466,8.466,0,0,0-2.97-5.287c.007-.314.011-.628.011-.942a41.331,41.331,0,0,0-.607-7.113h6.971A15.145,15.145,0,0,1,46.742,25.4a15.387,15.387,0,0,1-.218,2.574,10.2,10.2,0,0,0-4.952,3.654ZM56.9,21.339h4.065v2.032H56.9Z"/>
        </g>
      </g>
    </g>
  </g>
</svg>
